M48
INCH
T32C0.035
T31C0.030
T30C0.040
T29C0.038
%
T31
X006000Y021000
X007000Y024000
X007000Y021000
X008000Y024000
T32
X005300Y022800
X007000Y022800
T29
X004000Y028000
X004000Y027000
X004000Y026000
X004000Y025000
X004000Y024000
X004000Y023000
X004000Y022000
X004000Y021000
X004000Y020000
X004000Y019000
X004000Y018000
X004000Y017000
X004000Y016000
X004000Y015000
X004000Y014000
X004000Y013000
X004000Y012000
X004000Y011000
X004000Y010000
X004000Y009000
X005000Y028000
X005000Y009000
X006000Y028000
X006000Y009000
X007000Y028000
X007000Y018000
X007000Y009000
X008000Y028000
X008000Y018000
X008000Y009000
X009000Y028000
X009000Y018000
X009000Y009000
X010000Y028000
X010000Y018000
X010000Y009000
X011000Y028000
X011000Y018000
X011000Y009000
X012000Y028000
X012000Y018000
X012000Y009000
X013000Y028000
X013000Y018000
X013000Y009000
X014000Y028000
X014000Y027000
X014000Y026000
X014000Y025000
X014000Y024000
X014000Y023000
X014000Y022000
X014000Y021000
X014000Y020000
X014000Y019000
X014000Y018000
X014000Y017000
X014000Y016000
X014000Y015000
X014000Y014000
X014000Y013000
X014000Y012000
X014000Y011000
X014000Y010000
X014000Y009000
T30
X005350Y011100
X006350Y011100
X007350Y011100
X008350Y011100
X009350Y011100
X010350Y011100
M30
