G04 start of page 2 for group 0 idx 0 *
G04 Title: (unknown), top *
G04 Creator: pcb 20140316 *
G04 CreationDate: Mon 16 Nov 2015 01:32:15 PM GMT UTC *
G04 For: fosse *
G04 Format: Gerber/RS-274X *
G04 PCB-Dimensions (mil): 1600.00 3000.00 *
G04 PCB-Coordinate-Origin: lower left *
%MOIN*%
%FSLAX25Y25*%
%LNTOP*%
%ADD19C,0.0300*%
%ADD18C,0.0380*%
%ADD17C,0.0350*%
%ADD16C,0.0800*%
%ADD15C,0.0001*%
%ADD14C,0.0600*%
%ADD13C,0.0700*%
%ADD12C,0.0200*%
%ADD11C,0.0400*%
G54D11*X56500Y137000D02*Y206500D01*
X60000Y210000D01*
X56500Y213500D01*
X62000Y139500D02*Y187500D01*
X66000Y191500D01*
X73500D01*
X80000Y198000D01*
X51500Y221500D02*Y134500D01*
X46500Y98000D02*Y255500D01*
X50000Y259000D01*
Y280000D02*Y259000D01*
X60000Y274500D02*Y280000D01*
Y259500D02*Y280500D01*
X70000Y260500D02*Y280000D01*
X50000Y90000D02*Y94500D01*
X46500Y98000D01*
X53500Y111000D02*X46500D01*
X70000Y90000D02*Y97000D01*
X60000Y90000D02*Y99500D01*
X63500Y103000D01*
X70000Y97000D02*X73500Y100500D01*
X63500Y103000D02*Y122500D01*
X73500Y100500D02*Y120000D01*
X83500Y111000D02*Y118000D01*
Y100500D02*Y111500D01*
X63500Y122500D02*X51500Y134500D01*
X73500Y120000D02*X56500Y137000D01*
X83500Y118000D02*X62000Y139500D01*
X80000Y90000D02*Y97000D01*
X83500Y100500D01*
G54D12*X90000Y90000D02*Y98000D01*
G54D11*Y89500D02*Y98000D01*
X93500Y101500D01*
Y111000D01*
X51500Y251000D02*X60000Y259500D01*
X56500Y247000D02*X70000Y260500D01*
X80000Y198000D02*Y280000D01*
G54D13*X70000Y210000D02*Y240000D01*
G54D11*X56500Y213500D02*Y218000D01*
X61000Y222500D01*
Y234000D01*
X53000Y233500D02*Y223000D01*
X51500Y221500D01*
X61000Y234000D02*X56500Y238500D01*
Y247000D01*
X51500Y251000D02*Y235000D01*
X53000Y233500D01*
G54D14*X80000Y90000D03*
X90000D03*
X100000D03*
X110000D03*
G54D15*G36*
X47000Y93000D02*Y87000D01*
X53000D01*
Y93000D01*
X47000D01*
G37*
G54D14*X60000Y90000D03*
X70000D03*
X120000D03*
X130000D03*
X140000D03*
X40000D03*
X140000Y200000D03*
Y190000D03*
X130000Y180000D03*
X140000D03*
Y170000D03*
Y160000D03*
Y150000D03*
Y140000D03*
Y130000D03*
Y120000D03*
Y110000D03*
Y100000D03*
X40000Y150000D03*
Y140000D03*
Y130000D03*
Y120000D03*
Y110000D03*
G54D15*G36*
X49500Y115000D02*Y107000D01*
X57500D01*
Y115000D01*
X49500D01*
G37*
G54D16*X63500Y111000D03*
G54D14*X40000Y100000D03*
G54D16*X73500Y111000D03*
X83500D03*
X93500D03*
X103500D03*
G54D15*G36*
X137000Y283000D02*Y277000D01*
X143000D01*
Y283000D01*
X137000D01*
G37*
G54D14*X140000Y270000D03*
Y260000D03*
Y250000D03*
Y240000D03*
Y230000D03*
Y220000D03*
Y210000D03*
G54D15*G36*
X37000Y283000D02*Y277000D01*
X43000D01*
Y283000D01*
X37000D01*
G37*
G36*
X47000D02*Y277000D01*
X53000D01*
Y283000D01*
X47000D01*
G37*
G54D14*X60000Y280000D03*
X40000Y270000D03*
Y260000D03*
Y250000D03*
Y240000D03*
G54D15*G36*
X67000Y243000D02*Y237000D01*
X73000D01*
Y243000D01*
X67000D01*
G37*
G54D14*X80000Y240000D03*
X70000Y280000D03*
X80000D03*
X90000D03*
X100000D03*
X110000D03*
X120000D03*
X130000D03*
X40000Y230000D03*
Y220000D03*
Y210000D03*
Y200000D03*
Y190000D03*
Y180000D03*
Y170000D03*
Y160000D03*
G54D15*G36*
X67000Y183000D02*Y177000D01*
X73000D01*
Y183000D01*
X67000D01*
G37*
G54D14*X80000Y180000D03*
X90000D03*
X100000D03*
X110000D03*
X120000D03*
G54D15*G36*
X57000Y213000D02*Y207000D01*
X63000D01*
Y213000D01*
X57000D01*
G37*
G54D14*X70000Y210000D03*
X53000Y228000D03*
X70000D03*
G54D17*G54D18*G54D11*G54D18*G54D11*G54D18*G54D19*G54D18*G54D19*M02*
