M48
INCH
T29C0.035
T28C0.040
T27C0.038
%
T29
X006000Y022400
X009500Y022400
T27
X004000Y028000
X004000Y027000
X004000Y026000
X004000Y025000
X004000Y024000
X004000Y023000
X004000Y022000
X004000Y021000
X004000Y020000
X004000Y019000
X004000Y018000
X004000Y017000
X004000Y016000
X004000Y015000
X004000Y014000
X004000Y013000
X004000Y012000
X004000Y011000
X004000Y010000
X004000Y009000
X005000Y028000
X005000Y009000
X006000Y028000
X006000Y009000
X007000Y028000
X007000Y018000
X007000Y009000
X008000Y028000
X008000Y018000
X008000Y009000
X009000Y028000
X009000Y018000
X009000Y009000
X010000Y028000
X010000Y018000
X010000Y009000
X011000Y028000
X011000Y018000
X011000Y009000
X012000Y028000
X012000Y018000
X012000Y009000
X013000Y028000
X013000Y018000
X013000Y009000
X014000Y028000
X014000Y027000
X014000Y026000
X014000Y025000
X014000Y024000
X014000Y023000
X014000Y022000
X014000Y021000
X014000Y020000
X014000Y019000
X014000Y018000
X014000Y017000
X014000Y016000
X014000Y015000
X014000Y014000
X014000Y013000
X014000Y012000
X014000Y011000
X014000Y010000
X014000Y009000
T28
X005450Y025450
X006450Y025450
X007450Y025450
X008450Y025450
X009450Y025450
M30
