G04 start of page 9 for group -4078 idx -4078 *
G04 Title: (unknown), bottomsilk *
G04 Creator: pcb 20140316 *
G04 CreationDate: Mon 16 Nov 2015 01:32:15 PM GMT UTC *
G04 For: fosse *
G04 Format: Gerber/RS-274X *
G04 PCB-Dimensions (mil): 1600.00 3000.00 *
G04 PCB-Coordinate-Origin: lower left *
%MOIN*%
%FSLAX25Y25*%
%LNBOTTOMSILK*%
%ADD40C,0.0100*%
G54D40*X145000Y285000D02*Y85000D01*
X135000D02*X145000D01*
X135000Y285000D02*Y85000D01*
Y285000D02*X145000D01*
X135000Y275000D02*X145000D01*
X135000Y285000D02*Y275000D01*
X65000Y185000D02*X135000D01*
Y175000D02*Y185000D01*
X65000Y175000D02*X135000D01*
X65000D02*Y185000D01*
X75000Y175000D02*Y185000D01*
X65000Y175000D02*X75000D01*
X45000Y285000D02*X135000D01*
Y275000D02*Y285000D01*
X45000Y275000D02*X135000D01*
X45000D02*Y285000D01*
X55000Y275000D02*Y285000D01*
X45000Y275000D02*X55000D01*
X45000Y95000D02*X135000D01*
Y85000D02*Y95000D01*
X45000Y85000D02*X135000D01*
X45000D02*Y95000D01*
X55000Y85000D02*Y95000D01*
X45000Y85000D02*X55000D01*
X45000Y285000D02*Y85000D01*
X35000D02*X45000D01*
X35000Y285000D02*Y85000D01*
Y285000D02*X45000D01*
X35000Y275000D02*X45000D01*
X35000Y285000D02*Y275000D01*
X128000Y204000D02*Y204800D01*
Y204000D02*X131500D01*
X132000Y204500D02*X131500Y204000D01*
X132000Y204500D02*Y205000D01*
X131500Y205500D02*X132000Y205000D01*
X131000Y205500D02*X131500D01*
X132000Y202300D02*X130000Y200800D01*
X128500D02*X130000D01*
X128000Y201300D02*X128500Y200800D01*
X128000Y201300D02*Y202300D01*
X128500Y202800D02*X128000Y202300D01*
X128500Y202800D02*X129500D01*
X130000Y202300D01*
Y200800D02*Y202300D01*
X65700Y186000D02*X66500D01*
Y189500D01*
X66000Y190000D02*X66500Y189500D01*
X65500Y190000D02*X66000D01*
X65000Y189500D02*X65500Y190000D01*
X65000Y189000D02*Y189500D01*
X67700Y186800D02*X68500Y186000D01*
Y190000D01*
X67700D02*X69200D01*
X70400Y189500D02*X70900Y190000D01*
X70400Y186500D02*Y189500D01*
Y186500D02*X70900Y186000D01*
X71900D01*
X72400Y186500D01*
Y189500D01*
X71900Y190000D02*X72400Y189500D01*
X70900Y190000D02*X71900D01*
X70400Y189000D02*X72400Y187000D01*
X88200Y268500D02*X89000D01*
Y272000D01*
X88500Y272500D02*X89000Y272000D01*
X88000Y272500D02*X88500D01*
X87500Y272000D02*X88000Y272500D01*
X87500Y271500D02*Y272000D01*
X90700Y272500D02*X92700Y268500D01*
X90200D02*X92700D01*
X90200Y98500D02*X91000D01*
Y102000D01*
X90500Y102500D02*X91000Y102000D01*
X90000Y102500D02*X90500D01*
X89500Y102000D02*X90000Y102500D01*
X89500Y101500D02*Y102000D01*
X93700Y98500D02*X94200Y99000D01*
X92700Y98500D02*X93700D01*
X92200Y99000D02*X92700Y98500D01*
X92200Y99000D02*Y102000D01*
X92700Y102500D01*
X93700Y100300D02*X94200Y100800D01*
X92200Y100300D02*X93700D01*
X92700Y102500D02*X93700D01*
X94200Y102000D01*
Y100800D02*Y102000D01*
X48000Y156500D02*Y157300D01*
Y156500D02*X51500D01*
X52000Y157000D02*X51500Y156500D01*
X52000Y157000D02*Y157500D01*
X51500Y158000D02*X52000Y157500D01*
X51000Y158000D02*X51500D01*
Y155300D02*X52000Y154800D01*
X50700Y155300D02*X51500D01*
X50700D02*X50000Y154600D01*
Y154000D02*Y154600D01*
Y154000D02*X50700Y153300D01*
X51500D01*
X52000Y153800D02*X51500Y153300D01*
X52000Y153800D02*Y154800D01*
X49300Y155300D02*X50000Y154600D01*
X48500Y155300D02*X49300D01*
X48500D02*X48000Y154800D01*
Y153800D02*Y154800D01*
Y153800D02*X48500Y153300D01*
X49300D01*
X50000Y154000D02*X49300Y153300D01*
M02*
