G04 start of page 2 for group 0 idx 0 *
G04 Title: (unknown), top *
G04 Creator: pcb 20140316 *
G04 CreationDate: Fri 27 Mar 2015 01:12:27 PM GMT UTC *
G04 For: fosse *
G04 Format: Gerber/RS-274X *
G04 PCB-Dimensions (mil): 1600.00 3000.00 *
G04 PCB-Coordinate-Origin: lower left *
%MOIN*%
%FSLAX25Y25*%
%LNTOP*%
%ADD19C,0.0380*%
%ADD18C,0.0350*%
%ADD17R,0.0515X0.0515*%
%ADD16C,0.0800*%
%ADD15C,0.0600*%
%ADD14C,0.0001*%
%ADD13C,0.0100*%
%ADD12C,0.0400*%
%ADD11C,0.0200*%
G54D11*X132500Y194500D02*X125000Y187000D01*
Y125000D01*
G54D12*X100334Y189000D02*X115000Y203666D01*
G54D13*X120000Y128500D02*Y188500D01*
X129500Y198000D01*
G54D12*X61500Y115500D02*Y184500D01*
G54D11*X125000Y125000D02*X90000Y90000D01*
G54D13*X85500Y94000D02*X120000Y128500D01*
G54D12*X50000Y90000D02*Y94500D01*
X46500Y98000D01*
X51500Y105000D02*Y236000D01*
X56500Y110500D02*Y208000D01*
X60000Y90000D02*Y96500D01*
X51500Y105000D01*
X70000Y90000D02*Y97000D01*
X56500Y110500D01*
X80000Y90000D02*Y97000D01*
X61500Y115500D01*
G54D13*X85000Y94000D02*X85500D01*
G54D12*X75000Y226417D02*X74917D01*
X56500Y208000D01*
X51500Y224000D02*X60000D01*
X115000Y203666D02*X115166D01*
X125500Y214000D01*
X95000Y224000D02*X112500D01*
X54500Y254500D02*X46500Y246500D01*
X64500Y249000D02*X51500Y236000D01*
X64500Y249000D02*Y270000D01*
X60000Y274500D01*
Y280000D01*
X50000D02*Y259000D01*
X54500Y254500D01*
X80000Y275000D02*Y280000D01*
X74500Y254500D02*Y270500D01*
X70000Y275000D01*
Y280000D01*
X84500Y246500D02*Y270500D01*
X80000Y275000D01*
X74500Y255000D02*Y226917D01*
X46500Y98000D02*Y246500D01*
X61500Y184500D02*X66000Y189000D01*
X75000Y203583D02*Y204000D01*
X66000Y189000D02*X100334D01*
G54D13*X97500Y246000D02*X92500D01*
G54D12*X112500Y224000D02*X115000Y226500D01*
X125500Y214000D02*Y233000D01*
X75000Y204000D02*X95000Y224000D01*
X74500Y226917D02*X75000Y226417D01*
X91500Y239500D02*X84500Y246500D01*
G54D11*X132500Y194500D02*Y240000D01*
G54D13*X129500Y198000D02*Y236500D01*
G54D12*X125500Y233000D02*X119000Y239500D01*
G54D11*X132500Y240000D02*X118000Y254500D01*
G54D13*X129500Y236500D02*X116500Y249500D01*
G54D12*X119000Y239500D02*X91500D01*
G54D11*X118000Y254500D02*X94500D01*
G54D13*X116500Y249500D02*X101000D01*
X97500Y246000D01*
X92500D02*X89500Y249000D01*
G54D14*G36*
X137000Y283000D02*Y277000D01*
X143000D01*
Y283000D01*
X137000D01*
G37*
G54D15*X140000Y270000D03*
Y260000D03*
Y250000D03*
Y240000D03*
Y230000D03*
Y220000D03*
Y210000D03*
G54D14*G36*
X37000Y283000D02*Y277000D01*
X43000D01*
Y283000D01*
X37000D01*
G37*
G36*
X47000D02*Y277000D01*
X53000D01*
Y283000D01*
X47000D01*
G37*
G54D15*X60000Y280000D03*
X40000Y270000D03*
Y260000D03*
Y250000D03*
Y240000D03*
G54D14*G36*
X50500Y258500D02*Y250500D01*
X58500D01*
Y258500D01*
X50500D01*
G37*
G54D15*X70000Y280000D03*
X80000D03*
X90000D03*
X100000D03*
X110000D03*
X120000D03*
X130000D03*
G54D16*X64500Y254500D03*
X74500D03*
X84500D03*
X94500D03*
G54D15*X80000Y90000D03*
X90000D03*
X100000D03*
X110000D03*
G54D14*G36*
X47000Y93000D02*Y87000D01*
X53000D01*
Y93000D01*
X47000D01*
G37*
G54D15*X60000Y90000D03*
X70000D03*
X120000D03*
X130000D03*
X140000D03*
X40000D03*
X140000Y200000D03*
Y190000D03*
X130000Y180000D03*
X140000D03*
Y170000D03*
Y160000D03*
Y150000D03*
Y140000D03*
Y130000D03*
Y120000D03*
Y110000D03*
Y100000D03*
X40000Y230000D03*
Y220000D03*
Y210000D03*
Y200000D03*
Y190000D03*
Y180000D03*
Y170000D03*
Y160000D03*
Y150000D03*
Y140000D03*
Y130000D03*
Y120000D03*
Y110000D03*
Y100000D03*
G54D14*G36*
X67000Y183000D02*Y177000D01*
X73000D01*
Y183000D01*
X67000D01*
G37*
G54D15*X80000Y180000D03*
X90000D03*
X100000D03*
X110000D03*
X120000D03*
G54D17*X75000Y231732D02*Y221102D01*
Y208898D02*Y198268D01*
X115000Y231815D02*Y221185D01*
Y208981D02*Y198351D01*
G54D15*X60000Y224000D03*
X95000D03*
G54D18*G54D19*G54D12*G54D19*G54D12*G54D19*M02*
