G04 start of page 6 for group -4063 idx -4063 *
G04 Title: (unknown), componentmask *
G04 Creator: pcb 20140316 *
G04 CreationDate: Fri 13 Nov 2015 04:53:15 PM GMT UTC *
G04 For: fosse *
G04 Format: Gerber/RS-274X *
G04 PCB-Dimensions (mil): 1600.00 3000.00 *
G04 PCB-Coordinate-Origin: lower left *
%MOIN*%
%FSLAX25Y25*%
%LNTOPMASK*%
%ADD35C,0.0860*%
%ADD34C,0.0001*%
%ADD33C,0.0660*%
G54D33*X80000Y90000D03*
X90000D03*
X100000D03*
X110000D03*
G54D34*G36*
X46700Y93300D02*Y86700D01*
X53300D01*
Y93300D01*
X46700D01*
G37*
G54D33*X60000Y90000D03*
X70000D03*
X120000D03*
X130000D03*
X140000D03*
X40000D03*
X140000Y200000D03*
Y190000D03*
X130000Y180000D03*
X140000D03*
Y170000D03*
Y160000D03*
Y150000D03*
Y140000D03*
Y130000D03*
Y120000D03*
Y110000D03*
Y100000D03*
X40000Y150000D03*
Y140000D03*
Y130000D03*
Y120000D03*
Y110000D03*
G54D34*G36*
X49200Y115300D02*Y106700D01*
X57800D01*
Y115300D01*
X49200D01*
G37*
G54D35*X63500Y111000D03*
G54D33*X40000Y100000D03*
G54D35*X73500Y111000D03*
X83500D03*
X93500D03*
X103500D03*
G54D34*G36*
X136700Y283300D02*Y276700D01*
X143300D01*
Y283300D01*
X136700D01*
G37*
G54D33*X140000Y270000D03*
Y260000D03*
Y250000D03*
Y240000D03*
Y230000D03*
Y220000D03*
Y210000D03*
G54D34*G36*
X36700Y283300D02*Y276700D01*
X43300D01*
Y283300D01*
X36700D01*
G37*
G36*
X46700D02*Y276700D01*
X53300D01*
Y283300D01*
X46700D01*
G37*
G54D33*X60000Y280000D03*
X40000Y270000D03*
Y260000D03*
Y250000D03*
Y240000D03*
G54D34*G36*
X66700Y243300D02*Y236700D01*
X73300D01*
Y243300D01*
X66700D01*
G37*
G54D33*X80000Y240000D03*
X70000Y280000D03*
X80000D03*
X90000D03*
X100000D03*
X110000D03*
X120000D03*
X130000D03*
X40000Y230000D03*
Y220000D03*
Y210000D03*
Y200000D03*
Y190000D03*
Y180000D03*
Y170000D03*
Y160000D03*
G54D34*G36*
X66700Y183300D02*Y176700D01*
X73300D01*
Y183300D01*
X66700D01*
G37*
G54D33*X80000Y180000D03*
X90000D03*
X100000D03*
X110000D03*
X120000D03*
G54D34*G36*
X56700Y213300D02*Y206700D01*
X63300D01*
Y213300D01*
X56700D01*
G37*
G54D33*X70000Y210000D03*
M02*
