G04 start of page 8 for group -4079 idx -4079 *
G04 Title: (unknown), topsilk *
G04 Creator: pcb 20140316 *
G04 CreationDate: Mon 23 Mar 2015 03:55:12 PM GMT UTC *
G04 For: fosse *
G04 Format: Gerber/RS-274X *
G04 PCB-Dimensions (mil): 1600.00 3000.00 *
G04 PCB-Coordinate-Origin: lower left *
%MOIN*%
%FSLAX25Y25*%
%LNTOPSILK*%
%ADD37C,0.0100*%
G54D37*X118874Y197051D02*X133032D01*
Y230115D02*Y197051D01*
Y230115D02*X130032Y233115D01*
X118874D02*X130032D01*
X96968Y197051D02*X111126D01*
X96968Y230115D02*Y197051D01*
Y230115D02*X99968Y233115D01*
X111126D01*
X78874Y196968D02*X93032D01*
Y230032D02*Y196968D01*
Y230032D02*X90032Y233032D01*
X78874D02*X90032D01*
X56968Y196968D02*X71126D01*
X56968Y230032D02*Y196968D01*
Y230032D02*X59968Y233032D01*
X71126D01*
X49500Y241700D02*X99500D01*
X49500Y266700D02*X99500D01*
X54500Y260700D02*Y266700D01*
Y260700D02*X94500D01*
Y266700D01*
X49500D02*Y241700D01*
X99500Y266700D02*Y241700D01*
X111700Y236083D02*X113000D01*
X111000Y236783D02*X111700Y236083D01*
X111000Y239383D02*Y236783D01*
Y239383D02*X111700Y240083D01*
X113000D01*
X114200Y239283D02*X115000Y240083D01*
Y236083D01*
X114200D02*X115700D01*
X116900Y239283D02*X117700Y240083D01*
Y236083D01*
X116900D02*X118400D01*
X71700Y236000D02*X73000D01*
X71000Y236700D02*X71700Y236000D01*
X71000Y239300D02*Y236700D01*
Y239300D02*X71700Y240000D01*
X73000D01*
X74200Y239200D02*X75000Y240000D01*
Y236000D01*
X74200D02*X75700D01*
X76900Y239500D02*X77400Y240000D01*
X78900D01*
X79400Y239500D01*
Y238500D01*
X76900Y236000D02*X79400Y238500D01*
X76900Y236000D02*X79400D01*
X67200Y268500D02*X68500D01*
X66500Y269200D02*X67200Y268500D01*
X66500Y271800D02*Y269200D01*
Y271800D02*X67200Y272500D01*
X68500D01*
X69700Y272000D02*Y269000D01*
Y272000D02*X70200Y272500D01*
X71200D01*
X71700Y272000D01*
Y269000D01*
X71200Y268500D02*X71700Y269000D01*
X70200Y268500D02*X71200D01*
X69700Y269000D02*X70200Y268500D01*
X72900Y272500D02*Y268500D01*
Y272500D02*X75400Y268500D01*
Y272500D02*Y268500D01*
X76600Y272500D02*Y268500D01*
Y272500D02*X79100Y268500D01*
Y272500D02*Y268500D01*
X80300Y271700D02*X81100Y272500D01*
Y268500D01*
X80300D02*X81800D01*
M02*
