G04 start of page 9 for group -4078 idx -4078 *
G04 Title: (unknown), bottomsilk *
G04 Creator: pcb 20140316 *
G04 CreationDate: Mon 23 Mar 2015 03:55:12 PM GMT UTC *
G04 For: fosse *
G04 Format: Gerber/RS-274X *
G04 PCB-Dimensions (mil): 1600.00 3000.00 *
G04 PCB-Coordinate-Origin: lower left *
%MOIN*%
%FSLAX25Y25*%
%LNBOTTOMSILK*%
%ADD38C,0.0100*%
G54D38*X145000Y285000D02*Y85000D01*
X135000D02*X145000D01*
X135000Y285000D02*Y85000D01*
Y285000D02*X145000D01*
X135000Y275000D02*X145000D01*
X135000Y285000D02*Y275000D01*
X65000Y185000D02*X135000D01*
Y175000D02*Y185000D01*
X65000Y175000D02*X135000D01*
X65000D02*Y185000D01*
X75000Y175000D02*Y185000D01*
X65000Y175000D02*X75000D01*
X45000Y95000D02*X135000D01*
Y85000D02*Y95000D01*
X45000Y85000D02*X135000D01*
X45000D02*Y95000D01*
X55000Y85000D02*Y95000D01*
X45000Y85000D02*X55000D01*
X45000Y285000D02*Y85000D01*
X35000D02*X45000D01*
X35000Y285000D02*Y85000D01*
Y285000D02*X45000D01*
X35000Y275000D02*X45000D01*
X35000Y285000D02*Y275000D01*
X45000Y285000D02*X135000D01*
Y275000D02*Y285000D01*
X45000Y275000D02*X135000D01*
X45000D02*Y285000D01*
X55000Y275000D02*Y285000D01*
X45000Y275000D02*X55000D01*
X146000Y293500D02*Y294300D01*
Y293500D02*X149500D01*
X150000Y294000D02*X149500Y293500D01*
X150000Y294000D02*Y294500D01*
X149500Y295000D02*X150000Y294500D01*
X149000Y295000D02*X149500D01*
X150000Y291800D02*X148000Y290300D01*
X146500D02*X148000D01*
X146000Y290800D02*X146500Y290300D01*
X146000Y290800D02*Y291800D01*
X146500Y292300D02*X146000Y291800D01*
X146500Y292300D02*X147500D01*
X148000Y291800D01*
Y290300D02*Y291800D01*
X45700Y106000D02*X46500D01*
Y109500D01*
X46000Y110000D02*X46500Y109500D01*
X45500Y110000D02*X46000D01*
X45000Y109500D02*X45500Y110000D01*
X45000Y109000D02*Y109500D01*
X49200Y106000D02*X49700Y106500D01*
X48200Y106000D02*X49200D01*
X47700Y106500D02*X48200Y106000D01*
X47700Y106500D02*Y109500D01*
X48200Y110000D01*
X49200Y107800D02*X49700Y108300D01*
X47700Y107800D02*X49200D01*
X48200Y110000D02*X49200D01*
X49700Y109500D01*
Y108300D02*Y109500D01*
X46000Y283500D02*Y284300D01*
Y283500D02*X49500D01*
X50000Y284000D02*X49500Y283500D01*
X50000Y284000D02*Y284500D01*
X49500Y285000D02*X50000Y284500D01*
X49000Y285000D02*X49500D01*
Y282300D02*X50000Y281800D01*
X48700Y282300D02*X49500D01*
X48700D02*X48000Y281600D01*
Y281000D02*Y281600D01*
Y281000D02*X48700Y280300D01*
X49500D01*
X50000Y280800D02*X49500Y280300D01*
X50000Y280800D02*Y281800D01*
X47300Y282300D02*X48000Y281600D01*
X46500Y282300D02*X47300D01*
X46500D02*X46000Y281800D01*
Y280800D02*Y281800D01*
Y280800D02*X46500Y280300D01*
X47300D01*
X48000Y281000D02*X47300Y280300D01*
X65700Y186000D02*X66500D01*
Y189500D01*
X66000Y190000D02*X66500Y189500D01*
X65500Y190000D02*X66000D01*
X65000Y189500D02*X65500Y190000D01*
X65000Y189000D02*Y189500D01*
X67700Y186800D02*X68500Y186000D01*
Y190000D01*
X67700D02*X69200D01*
X70400Y189500D02*X70900Y190000D01*
X70400Y186500D02*Y189500D01*
Y186500D02*X70900Y186000D01*
X71900D01*
X72400Y186500D01*
Y189500D01*
X71900Y190000D02*X72400Y189500D01*
X70900Y190000D02*X71900D01*
X70400Y189000D02*X72400Y187000D01*
X48700Y289000D02*X49500D01*
Y292500D01*
X49000Y293000D02*X49500Y292500D01*
X48500Y293000D02*X49000D01*
X48000Y292500D02*X48500Y293000D01*
X48000Y292000D02*Y292500D01*
X51200Y293000D02*X53200Y289000D01*
X50700D02*X53200D01*
M02*
