G04 start of page 10 for group -3984 idx -3984 *
G04 Title: (unknown), fab *
G04 Creator: pcb 20140316 *
G04 CreationDate: Fri 13 Nov 2015 04:53:15 PM GMT UTC *
G04 For: fosse *
G04 Format: Gerber/RS-274X *
G04 PCB-Dimensions (mil): 1600.00 3000.00 *
G04 PCB-Coordinate-Origin: lower left *
%MOIN*%
%FSLAX25Y25*%
%LNFAB*%
%ADD44C,0.0100*%
%ADD43C,0.0075*%
%ADD42C,0.0060*%
%ADD41C,0.0080*%
G54D41*X52700Y111000D02*G75*G03X54300Y111000I800J0D01*G01*
G75*G03X52700Y111000I-800J0D01*G01*
X62700D02*G75*G03X64300Y111000I800J0D01*G01*
G75*G03X62700Y111000I-800J0D01*G01*
X72700D02*G75*G03X74300Y111000I800J0D01*G01*
G75*G03X72700Y111000I-800J0D01*G01*
X82700D02*G75*G03X84300Y111000I800J0D01*G01*
G75*G03X82700Y111000I-800J0D01*G01*
X92700D02*G75*G03X94300Y111000I800J0D01*G01*
G75*G03X92700Y111000I-800J0D01*G01*
X102700D02*G75*G03X104300Y111000I800J0D01*G01*
G75*G03X102700Y111000I-800J0D01*G01*
X14200Y311250D02*G75*G03X15800Y311250I800J0D01*G01*
G75*G03X14200Y311250I-800J0D01*G01*
G54D42*X135000Y313500D02*X136500Y310500D01*
X138000Y313500D01*
X136500Y310500D02*Y307500D01*
X139800Y310800D02*X142050D01*
X139800Y307500D02*X142800D01*
X139800Y313500D02*Y307500D01*
Y313500D02*X142800D01*
X147600D02*X148350Y312750D01*
X145350Y313500D02*X147600D01*
X144600Y312750D02*X145350Y313500D01*
X144600Y312750D02*Y311250D01*
X145350Y310500D01*
X147600D01*
X148350Y309750D01*
Y308250D01*
X147600Y307500D02*X148350Y308250D01*
X145350Y307500D02*X147600D01*
X144600Y308250D02*X145350Y307500D01*
X100250Y313500D02*X101000Y312750D01*
X98750Y313500D02*X100250D01*
X98000Y312750D02*X98750Y313500D01*
X98000Y312750D02*Y308250D01*
X98750Y307500D01*
X100250Y310800D02*X101000Y310050D01*
X98000Y310800D02*X100250D01*
X98750Y307500D02*X100250D01*
X101000Y308250D01*
Y310050D02*Y308250D01*
X45000D02*X45750Y307500D01*
X45000Y312750D02*Y308250D01*
Y312750D02*X45750Y313500D01*
X47250D01*
X48000Y312750D01*
Y308250D01*
X47250Y307500D02*X48000Y308250D01*
X45750Y307500D02*X47250D01*
X45000Y309000D02*X48000Y312000D01*
X49800Y307500D02*X50550D01*
X52350Y308250D02*X53100Y307500D01*
X52350Y312750D02*Y308250D01*
Y312750D02*X53100Y313500D01*
X54600D01*
X55350Y312750D01*
Y308250D01*
X54600Y307500D02*X55350Y308250D01*
X53100Y307500D02*X54600D01*
X52350Y309000D02*X55350Y312000D01*
X57150Y309750D02*X60150Y313500D01*
X57150Y309750D02*X60900D01*
X60150Y313500D02*Y307500D01*
X62700Y308250D02*X63450Y307500D01*
X62700Y312750D02*Y308250D01*
Y312750D02*X63450Y313500D01*
X64950D01*
X65700Y312750D01*
Y308250D01*
X64950Y307500D02*X65700Y308250D01*
X63450Y307500D02*X64950D01*
X62700Y309000D02*X65700Y312000D01*
X48800Y91200D02*X51200Y88800D01*
X48800D02*X51200Y91200D01*
X58800D02*X61200Y88800D01*
X58800D02*X61200Y91200D01*
X68800D02*X71200Y88800D01*
X68800D02*X71200Y91200D01*
X78800D02*X81200Y88800D01*
X78800D02*X81200Y91200D01*
X88800D02*X91200Y88800D01*
X88800D02*X91200Y91200D01*
X98800D02*X101200Y88800D01*
X98800D02*X101200Y91200D01*
X108800D02*X111200Y88800D01*
X108800D02*X111200Y91200D01*
X118800D02*X121200Y88800D01*
X118800D02*X121200Y91200D01*
X128800D02*X131200Y88800D01*
X128800D02*X131200Y91200D01*
X138800Y281200D02*X141200Y278800D01*
X138800D02*X141200Y281200D01*
X138800Y271200D02*X141200Y268800D01*
X138800D02*X141200Y271200D01*
X138800Y261200D02*X141200Y258800D01*
X138800D02*X141200Y261200D01*
X138800Y251200D02*X141200Y248800D01*
X138800D02*X141200Y251200D01*
X138800Y241200D02*X141200Y238800D01*
X138800D02*X141200Y241200D01*
X138800Y231200D02*X141200Y228800D01*
X138800D02*X141200Y231200D01*
X138800Y221200D02*X141200Y218800D01*
X138800D02*X141200Y221200D01*
X138800Y211200D02*X141200Y208800D01*
X138800D02*X141200Y211200D01*
X138800Y201200D02*X141200Y198800D01*
X138800D02*X141200Y201200D01*
X138800Y191200D02*X141200Y188800D01*
X138800D02*X141200Y191200D01*
X138800Y181200D02*X141200Y178800D01*
X138800D02*X141200Y181200D01*
X138800Y171200D02*X141200Y168800D01*
X138800D02*X141200Y171200D01*
X138800Y161200D02*X141200Y158800D01*
X138800D02*X141200Y161200D01*
X138800Y151200D02*X141200Y148800D01*
X138800D02*X141200Y151200D01*
X138800Y141200D02*X141200Y138800D01*
X138800D02*X141200Y141200D01*
X138800Y131200D02*X141200Y128800D01*
X138800D02*X141200Y131200D01*
X138800Y121200D02*X141200Y118800D01*
X138800D02*X141200Y121200D01*
X138800Y111200D02*X141200Y108800D01*
X138800D02*X141200Y111200D01*
X138800Y101200D02*X141200Y98800D01*
X138800D02*X141200Y101200D01*
X138800Y91200D02*X141200Y88800D01*
X138800D02*X141200Y91200D01*
X38800Y281200D02*X41200Y278800D01*
X38800D02*X41200Y281200D01*
X38800Y271200D02*X41200Y268800D01*
X38800D02*X41200Y271200D01*
X38800Y261200D02*X41200Y258800D01*
X38800D02*X41200Y261200D01*
X38800Y251200D02*X41200Y248800D01*
X38800D02*X41200Y251200D01*
X38800Y241200D02*X41200Y238800D01*
X38800D02*X41200Y241200D01*
X38800Y231200D02*X41200Y228800D01*
X38800D02*X41200Y231200D01*
X38800Y221200D02*X41200Y218800D01*
X38800D02*X41200Y221200D01*
X38800Y211200D02*X41200Y208800D01*
X38800D02*X41200Y211200D01*
X38800Y201200D02*X41200Y198800D01*
X38800D02*X41200Y201200D01*
X38800Y191200D02*X41200Y188800D01*
X38800D02*X41200Y191200D01*
X38800Y181200D02*X41200Y178800D01*
X38800D02*X41200Y181200D01*
X38800Y171200D02*X41200Y168800D01*
X38800D02*X41200Y171200D01*
X38800Y161200D02*X41200Y158800D01*
X38800D02*X41200Y161200D01*
X38800Y151200D02*X41200Y148800D01*
X38800D02*X41200Y151200D01*
X38800Y141200D02*X41200Y138800D01*
X38800D02*X41200Y141200D01*
X38800Y131200D02*X41200Y128800D01*
X38800D02*X41200Y131200D01*
X38800Y121200D02*X41200Y118800D01*
X38800D02*X41200Y121200D01*
X38800Y111200D02*X41200Y108800D01*
X38800D02*X41200Y111200D01*
X38800Y101200D02*X41200Y98800D01*
X38800D02*X41200Y101200D01*
X38800Y91200D02*X41200Y88800D01*
X38800D02*X41200Y91200D01*
X68800Y181200D02*X71200Y178800D01*
X68800D02*X71200Y181200D01*
X78800D02*X81200Y178800D01*
X78800D02*X81200Y181200D01*
X88800D02*X91200Y178800D01*
X88800D02*X91200Y181200D01*
X98800D02*X101200Y178800D01*
X98800D02*X101200Y181200D01*
X108800D02*X111200Y178800D01*
X108800D02*X111200Y181200D01*
X118800D02*X121200Y178800D01*
X118800D02*X121200Y181200D01*
X128800D02*X131200Y178800D01*
X128800D02*X131200Y181200D01*
X48800Y281200D02*X51200Y278800D01*
X48800D02*X51200Y281200D01*
X58800D02*X61200Y278800D01*
X58800D02*X61200Y281200D01*
X68800D02*X71200Y278800D01*
X68800D02*X71200Y281200D01*
X78800D02*X81200Y278800D01*
X78800D02*X81200Y281200D01*
X88800D02*X91200Y278800D01*
X88800D02*X91200Y281200D01*
X98800D02*X101200Y278800D01*
X98800D02*X101200Y281200D01*
X108800D02*X111200Y278800D01*
X108800D02*X111200Y281200D01*
X118800D02*X121200Y278800D01*
X118800D02*X121200Y281200D01*
X128800D02*X131200Y278800D01*
X128800D02*X131200Y281200D01*
X13800Y327450D02*X16200Y325050D01*
X13800D02*X16200Y327450D01*
X135000Y328500D02*X136500Y325500D01*
X138000Y328500D01*
X136500Y325500D02*Y322500D01*
X139800Y325800D02*X142050D01*
X139800Y322500D02*X142800D01*
X139800Y328500D02*Y322500D01*
Y328500D02*X142800D01*
X147600D02*X148350Y327750D01*
X145350Y328500D02*X147600D01*
X144600Y327750D02*X145350Y328500D01*
X144600Y327750D02*Y326250D01*
X145350Y325500D01*
X147600D01*
X148350Y324750D01*
Y323250D01*
X147600Y322500D02*X148350Y323250D01*
X145350Y322500D02*X147600D01*
X144600Y323250D02*X145350Y322500D01*
X100250Y328500D02*X101000Y327750D01*
X98750Y328500D02*X100250D01*
X98000Y327750D02*X98750Y328500D01*
X98000Y327750D02*Y323250D01*
X98750Y322500D01*
X100250Y325800D02*X101000Y325050D01*
X98000Y325800D02*X100250D01*
X98750Y322500D02*X100250D01*
X101000Y323250D01*
Y325050D02*Y323250D01*
X102800Y328500D02*X105800D01*
X102800D02*Y325500D01*
X103550Y326250D01*
X105050D01*
X105800Y325500D01*
Y323250D01*
X105050Y322500D02*X105800Y323250D01*
X103550Y322500D02*X105050D01*
X102800Y323250D02*X103550Y322500D01*
X45000Y323250D02*X45750Y322500D01*
X45000Y327750D02*Y323250D01*
Y327750D02*X45750Y328500D01*
X47250D01*
X48000Y327750D01*
Y323250D01*
X47250Y322500D02*X48000Y323250D01*
X45750Y322500D02*X47250D01*
X45000Y324000D02*X48000Y327000D01*
X49800Y322500D02*X50550D01*
X52350Y323250D02*X53100Y322500D01*
X52350Y327750D02*Y323250D01*
Y327750D02*X53100Y328500D01*
X54600D01*
X55350Y327750D01*
Y323250D01*
X54600Y322500D02*X55350Y323250D01*
X53100Y322500D02*X54600D01*
X52350Y324000D02*X55350Y327000D01*
X57150Y327750D02*X57900Y328500D01*
X59400D01*
X60150Y327750D01*
X59400Y322500D02*X60150Y323250D01*
X57900Y322500D02*X59400D01*
X57150Y323250D02*X57900Y322500D01*
Y325800D02*X59400D01*
X60150Y327750D02*Y326550D01*
Y325050D02*Y323250D01*
Y325050D02*X59400Y325800D01*
X60150Y326550D02*X59400Y325800D01*
X61950Y323250D02*X62700Y322500D01*
X61950Y324450D02*Y323250D01*
Y324450D02*X63000Y325500D01*
X63900D01*
X64950Y324450D01*
Y323250D01*
X64200Y322500D02*X64950Y323250D01*
X62700Y322500D02*X64200D01*
X61950Y326550D02*X63000Y325500D01*
X61950Y327750D02*Y326550D01*
Y327750D02*X62700Y328500D01*
X64200D01*
X64950Y327750D01*
Y326550D01*
X63900Y325500D02*X64950Y326550D01*
X53000Y229600D02*Y226400D01*
X51400Y228000D02*X54600D01*
X70000Y229600D02*Y226400D01*
X68400Y228000D02*X71600D01*
X15000Y342850D02*Y339650D01*
X13400Y341250D02*X16600D01*
X135000Y343500D02*X136500Y340500D01*
X138000Y343500D01*
X136500Y340500D02*Y337500D01*
X139800Y340800D02*X142050D01*
X139800Y337500D02*X142800D01*
X139800Y343500D02*Y337500D01*
Y343500D02*X142800D01*
X147600D02*X148350Y342750D01*
X145350Y343500D02*X147600D01*
X144600Y342750D02*X145350Y343500D01*
X144600Y342750D02*Y341250D01*
X145350Y340500D01*
X147600D01*
X148350Y339750D01*
Y338250D01*
X147600Y337500D02*X148350Y338250D01*
X145350Y337500D02*X147600D01*
X144600Y338250D02*X145350Y337500D01*
X98000Y342750D02*X98750Y343500D01*
X101000D01*
X101750Y342750D01*
Y341250D01*
X98000Y337500D02*X101750Y341250D01*
X98000Y337500D02*X101750D01*
X45000Y338250D02*X45750Y337500D01*
X45000Y342750D02*Y338250D01*
Y342750D02*X45750Y343500D01*
X47250D01*
X48000Y342750D01*
Y338250D01*
X47250Y337500D02*X48000Y338250D01*
X45750Y337500D02*X47250D01*
X45000Y339000D02*X48000Y342000D01*
X49800Y337500D02*X50550D01*
X52350Y338250D02*X53100Y337500D01*
X52350Y342750D02*Y338250D01*
Y342750D02*X53100Y343500D01*
X54600D01*
X55350Y342750D01*
Y338250D01*
X54600Y337500D02*X55350Y338250D01*
X53100Y337500D02*X54600D01*
X52350Y339000D02*X55350Y342000D01*
X57150Y342750D02*X57900Y343500D01*
X59400D01*
X60150Y342750D01*
X59400Y337500D02*X60150Y338250D01*
X57900Y337500D02*X59400D01*
X57150Y338250D02*X57900Y337500D01*
Y340800D02*X59400D01*
X60150Y342750D02*Y341550D01*
Y340050D02*Y338250D01*
Y340050D02*X59400Y340800D01*
X60150Y341550D02*X59400Y340800D01*
X61950Y343500D02*X64950D01*
X61950D02*Y340500D01*
X62700Y341250D01*
X64200D01*
X64950Y340500D01*
Y338250D01*
X64200Y337500D02*X64950Y338250D01*
X62700Y337500D02*X64200D01*
X61950Y338250D02*X62700Y337500D01*
X70000Y240000D02*Y238400D01*
Y240000D02*X71387Y240800D01*
X70000Y240000D02*X68613Y240800D01*
X80000Y240000D02*Y238400D01*
Y240000D02*X81387Y240800D01*
X80000Y240000D02*X78613Y240800D01*
X60000Y210000D02*Y208400D01*
Y210000D02*X61387Y210800D01*
X60000Y210000D02*X58613Y210800D01*
X70000Y210000D02*Y208400D01*
Y210000D02*X71387Y210800D01*
X70000Y210000D02*X68613Y210800D01*
X15000Y356250D02*Y354650D01*
Y356250D02*X16387Y357050D01*
X15000Y356250D02*X13613Y357050D01*
X135000Y358500D02*X136500Y355500D01*
X138000Y358500D01*
X136500Y355500D02*Y352500D01*
X139800Y355800D02*X142050D01*
X139800Y352500D02*X142800D01*
X139800Y358500D02*Y352500D01*
Y358500D02*X142800D01*
X147600D02*X148350Y357750D01*
X145350Y358500D02*X147600D01*
X144600Y357750D02*X145350Y358500D01*
X144600Y357750D02*Y356250D01*
X145350Y355500D01*
X147600D01*
X148350Y354750D01*
Y353250D01*
X147600Y352500D02*X148350Y353250D01*
X145350Y352500D02*X147600D01*
X144600Y353250D02*X145350Y352500D01*
X98000Y354750D02*X101000Y358500D01*
X98000Y354750D02*X101750D01*
X101000Y358500D02*Y352500D01*
X45000Y353250D02*X45750Y352500D01*
X45000Y357750D02*Y353250D01*
Y357750D02*X45750Y358500D01*
X47250D01*
X48000Y357750D01*
Y353250D01*
X47250Y352500D02*X48000Y353250D01*
X45750Y352500D02*X47250D01*
X45000Y354000D02*X48000Y357000D01*
X49800Y352500D02*X50550D01*
X52350Y353250D02*X53100Y352500D01*
X52350Y357750D02*Y353250D01*
Y357750D02*X53100Y358500D01*
X54600D01*
X55350Y357750D01*
Y353250D01*
X54600Y352500D02*X55350Y353250D01*
X53100Y352500D02*X54600D01*
X52350Y354000D02*X55350Y357000D01*
X57150Y357750D02*X57900Y358500D01*
X59400D01*
X60150Y357750D01*
X59400Y352500D02*X60150Y353250D01*
X57900Y352500D02*X59400D01*
X57150Y353250D02*X57900Y352500D01*
Y355800D02*X59400D01*
X60150Y357750D02*Y356550D01*
Y355050D02*Y353250D01*
Y355050D02*X59400Y355800D01*
X60150Y356550D02*X59400Y355800D01*
X61950Y353250D02*X62700Y352500D01*
X61950Y357750D02*Y353250D01*
Y357750D02*X62700Y358500D01*
X64200D01*
X64950Y357750D01*
Y353250D01*
X64200Y352500D02*X64950Y353250D01*
X62700Y352500D02*X64200D01*
X61950Y354000D02*X64950Y357000D01*
X3000Y373500D02*X3750Y372750D01*
X750Y373500D02*X3000D01*
X0Y372750D02*X750Y373500D01*
X0Y372750D02*Y371250D01*
X750Y370500D01*
X3000D01*
X3750Y369750D01*
Y368250D01*
X3000Y367500D02*X3750Y368250D01*
X750Y367500D02*X3000D01*
X0Y368250D02*X750Y367500D01*
X5550Y370500D02*Y368250D01*
X6300Y367500D01*
X8550Y370500D02*Y366000D01*
X7800Y365250D02*X8550Y366000D01*
X6300Y365250D02*X7800D01*
X5550Y366000D02*X6300Y365250D01*
Y367500D02*X7800D01*
X8550Y368250D01*
X11100Y369750D02*Y367500D01*
Y369750D02*X11850Y370500D01*
X12600D01*
X13350Y369750D01*
Y367500D01*
Y369750D02*X14100Y370500D01*
X14850D01*
X15600Y369750D01*
Y367500D01*
X10350Y370500D02*X11100Y369750D01*
X17400Y373500D02*Y367500D01*
Y368250D02*X18150Y367500D01*
X19650D01*
X20400Y368250D01*
Y369750D02*Y368250D01*
X19650Y370500D02*X20400Y369750D01*
X18150Y370500D02*X19650D01*
X17400Y369750D02*X18150Y370500D01*
X22200Y369750D02*Y368250D01*
Y369750D02*X22950Y370500D01*
X24450D01*
X25200Y369750D01*
Y368250D01*
X24450Y367500D02*X25200Y368250D01*
X22950Y367500D02*X24450D01*
X22200Y368250D02*X22950Y367500D01*
X27000Y373500D02*Y368250D01*
X27750Y367500D01*
X0Y364250D02*X29250D01*
X41750Y373500D02*Y367500D01*
X43700Y373500D02*X44750Y372450D01*
Y368550D01*
X43700Y367500D02*X44750Y368550D01*
X41000Y367500D02*X43700D01*
X41000Y373500D02*X43700D01*
G54D43*X46550Y372000D02*Y371850D01*
G54D42*Y369750D02*Y367500D01*
X50300Y370500D02*X51050Y369750D01*
X48800Y370500D02*X50300D01*
X48050Y369750D02*X48800Y370500D01*
X48050Y369750D02*Y368250D01*
X48800Y367500D01*
X51050Y370500D02*Y368250D01*
X51800Y367500D01*
X48800D02*X50300D01*
X51050Y368250D01*
X54350Y369750D02*Y367500D01*
Y369750D02*X55100Y370500D01*
X55850D01*
X56600Y369750D01*
Y367500D01*
Y369750D02*X57350Y370500D01*
X58100D01*
X58850Y369750D01*
Y367500D01*
X53600Y370500D02*X54350Y369750D01*
X60650Y367500D02*X61400D01*
X65900Y368250D02*X66650Y367500D01*
X65900Y372750D02*X66650Y373500D01*
X65900Y372750D02*Y368250D01*
X68450Y373500D02*X69950D01*
X69200D02*Y367500D01*
X68450D02*X69950D01*
X72500Y369750D02*Y367500D01*
Y369750D02*X73250Y370500D01*
X74000D01*
X74750Y369750D01*
Y367500D01*
X71750Y370500D02*X72500Y369750D01*
X77300Y370500D02*X79550D01*
X76550Y369750D02*X77300Y370500D01*
X76550Y369750D02*Y368250D01*
X77300Y367500D01*
X79550D01*
X81350Y373500D02*Y367500D01*
Y369750D02*X82100Y370500D01*
X83600D01*
X84350Y369750D01*
Y367500D01*
X86150Y373500D02*X86900Y372750D01*
Y368250D01*
X86150Y367500D02*X86900Y368250D01*
X41000Y364250D02*X88700D01*
X96050Y367500D02*X98000D01*
X95000Y368550D02*X96050Y367500D01*
X95000Y372450D02*Y368550D01*
Y372450D02*X96050Y373500D01*
X98000D01*
X99800Y369750D02*Y368250D01*
Y369750D02*X100550Y370500D01*
X102050D01*
X102800Y369750D01*
Y368250D01*
X102050Y367500D02*X102800Y368250D01*
X100550Y367500D02*X102050D01*
X99800Y368250D02*X100550Y367500D01*
X104600Y370500D02*Y368250D01*
X105350Y367500D01*
X106850D01*
X107600Y368250D01*
Y370500D02*Y368250D01*
X110150Y369750D02*Y367500D01*
Y369750D02*X110900Y370500D01*
X111650D01*
X112400Y369750D01*
Y367500D01*
X109400Y370500D02*X110150Y369750D01*
X114950Y373500D02*Y368250D01*
X115700Y367500D01*
X114200Y371250D02*X115700D01*
X95000Y364250D02*X117200D01*
X130750Y373500D02*Y367500D01*
X130000Y373500D02*X133000D01*
X133750Y372750D01*
Y371250D01*
X133000Y370500D02*X133750Y371250D01*
X130750Y370500D02*X133000D01*
X135550Y373500D02*Y368250D01*
X136300Y367500D01*
X140050Y370500D02*X140800Y369750D01*
X138550Y370500D02*X140050D01*
X137800Y369750D02*X138550Y370500D01*
X137800Y369750D02*Y368250D01*
X138550Y367500D01*
X140800Y370500D02*Y368250D01*
X141550Y367500D01*
X138550D02*X140050D01*
X140800Y368250D01*
X144100Y373500D02*Y368250D01*
X144850Y367500D01*
X143350Y371250D02*X144850D01*
X147100Y367500D02*X149350D01*
X146350Y368250D02*X147100Y367500D01*
X146350Y369750D02*Y368250D01*
Y369750D02*X147100Y370500D01*
X148600D01*
X149350Y369750D01*
X146350Y369000D02*X149350D01*
Y369750D02*Y369000D01*
X154150Y373500D02*Y367500D01*
X153400D02*X154150Y368250D01*
X151900Y367500D02*X153400D01*
X151150Y368250D02*X151900Y367500D01*
X151150Y369750D02*Y368250D01*
Y369750D02*X151900Y370500D01*
X153400D01*
X154150Y369750D01*
X157450Y370500D02*Y369750D01*
Y368250D02*Y367500D01*
X155950Y372750D02*Y372000D01*
Y372750D02*X156700Y373500D01*
X158200D01*
X158950Y372750D01*
Y372000D01*
X157450Y370500D02*X158950Y372000D01*
X130000Y364250D02*X160750D01*
X0Y388500D02*X3000D01*
X1500D02*Y382500D01*
X4800Y388500D02*Y382500D01*
Y384750D02*X5550Y385500D01*
X7050D01*
X7800Y384750D01*
Y382500D01*
X10350D02*X12600D01*
X9600Y383250D02*X10350Y382500D01*
X9600Y384750D02*Y383250D01*
Y384750D02*X10350Y385500D01*
X11850D01*
X12600Y384750D01*
X9600Y384000D02*X12600D01*
Y384750D02*Y384000D01*
X15150Y384750D02*Y382500D01*
Y384750D02*X15900Y385500D01*
X17400D01*
X14400D02*X15150Y384750D01*
X19950Y382500D02*X22200D01*
X19200Y383250D02*X19950Y382500D01*
X19200Y384750D02*Y383250D01*
Y384750D02*X19950Y385500D01*
X21450D01*
X22200Y384750D01*
X19200Y384000D02*X22200D01*
Y384750D02*Y384000D01*
X28950Y385500D02*X29700Y384750D01*
X27450Y385500D02*X28950D01*
X26700Y384750D02*X27450Y385500D01*
X26700Y384750D02*Y383250D01*
X27450Y382500D01*
X29700Y385500D02*Y383250D01*
X30450Y382500D01*
X27450D02*X28950D01*
X29700Y383250D01*
X33000Y384750D02*Y382500D01*
Y384750D02*X33750Y385500D01*
X35250D01*
X32250D02*X33000Y384750D01*
X37800Y382500D02*X40050D01*
X37050Y383250D02*X37800Y382500D01*
X37050Y384750D02*Y383250D01*
Y384750D02*X37800Y385500D01*
X39300D01*
X40050Y384750D01*
X37050Y384000D02*X40050D01*
Y384750D02*Y384000D01*
X44550Y384750D02*X47550Y388500D01*
X44550Y384750D02*X48300D01*
X47550Y388500D02*Y382500D01*
X55800Y388500D02*Y382500D01*
X55050D02*X55800Y383250D01*
X53550Y382500D02*X55050D01*
X52800Y383250D02*X53550Y382500D01*
X52800Y384750D02*Y383250D01*
Y384750D02*X53550Y385500D01*
X55050D01*
X55800Y384750D01*
G54D43*X57600Y387000D02*Y386850D01*
G54D42*Y384750D02*Y382500D01*
X59850Y387750D02*Y382500D01*
Y387750D02*X60600Y388500D01*
X61350D01*
X59100Y385500D02*X60600D01*
X63600Y387750D02*Y382500D01*
Y387750D02*X64350Y388500D01*
X65100D01*
X62850Y385500D02*X64350D01*
X67350Y382500D02*X69600D01*
X66600Y383250D02*X67350Y382500D01*
X66600Y384750D02*Y383250D01*
Y384750D02*X67350Y385500D01*
X68850D01*
X69600Y384750D01*
X66600Y384000D02*X69600D01*
Y384750D02*Y384000D01*
X72150Y384750D02*Y382500D01*
Y384750D02*X72900Y385500D01*
X74400D01*
X71400D02*X72150Y384750D01*
X76950Y382500D02*X79200D01*
X76200Y383250D02*X76950Y382500D01*
X76200Y384750D02*Y383250D01*
Y384750D02*X76950Y385500D01*
X78450D01*
X79200Y384750D01*
X76200Y384000D02*X79200D01*
Y384750D02*Y384000D01*
X81750Y384750D02*Y382500D01*
Y384750D02*X82500Y385500D01*
X83250D01*
X84000Y384750D01*
Y382500D01*
X81000Y385500D02*X81750Y384750D01*
X86550Y388500D02*Y383250D01*
X87300Y382500D01*
X85800Y386250D02*X87300D01*
X94500Y388500D02*Y382500D01*
X93750D02*X94500Y383250D01*
X92250Y382500D02*X93750D01*
X91500Y383250D02*X92250Y382500D01*
X91500Y384750D02*Y383250D01*
Y384750D02*X92250Y385500D01*
X93750D01*
X94500Y384750D01*
X97050D02*Y382500D01*
Y384750D02*X97800Y385500D01*
X99300D01*
X96300D02*X97050Y384750D01*
G54D43*X101100Y387000D02*Y386850D01*
G54D42*Y384750D02*Y382500D01*
X102600Y388500D02*Y383250D01*
X103350Y382500D01*
X104850Y388500D02*Y383250D01*
X105600Y382500D01*
X110550D02*X112800D01*
X113550Y383250D01*
X112800Y384000D02*X113550Y383250D01*
X110550Y384000D02*X112800D01*
X109800Y384750D02*X110550Y384000D01*
X109800Y384750D02*X110550Y385500D01*
X112800D01*
X113550Y384750D01*
X109800Y383250D02*X110550Y382500D01*
G54D43*X115350Y387000D02*Y386850D01*
G54D42*Y384750D02*Y382500D01*
X116850Y385500D02*X119850D01*
X116850Y382500D02*X119850Y385500D01*
X116850Y382500D02*X119850D01*
X122400D02*X124650D01*
X121650Y383250D02*X122400Y382500D01*
X121650Y384750D02*Y383250D01*
Y384750D02*X122400Y385500D01*
X123900D01*
X124650Y384750D01*
X121650Y384000D02*X124650D01*
Y384750D02*Y384000D01*
X127200Y382500D02*X129450D01*
X130200Y383250D01*
X129450Y384000D02*X130200Y383250D01*
X127200Y384000D02*X129450D01*
X126450Y384750D02*X127200Y384000D01*
X126450Y384750D02*X127200Y385500D01*
X129450D01*
X130200Y384750D01*
X126450Y383250D02*X127200Y382500D01*
X134700Y385500D02*Y383250D01*
X135450Y382500D01*
X136950D01*
X137700Y383250D01*
Y385500D02*Y383250D01*
X140250Y382500D02*X142500D01*
X143250Y383250D01*
X142500Y384000D02*X143250Y383250D01*
X140250Y384000D02*X142500D01*
X139500Y384750D02*X140250Y384000D01*
X139500Y384750D02*X140250Y385500D01*
X142500D01*
X143250Y384750D01*
X139500Y383250D02*X140250Y382500D01*
X145800D02*X148050D01*
X145050Y383250D02*X145800Y382500D01*
X145050Y384750D02*Y383250D01*
Y384750D02*X145800Y385500D01*
X147300D01*
X148050Y384750D01*
X145050Y384000D02*X148050D01*
Y384750D02*Y384000D01*
X152850Y388500D02*Y382500D01*
X152100D02*X152850Y383250D01*
X150600Y382500D02*X152100D01*
X149850Y383250D02*X150600Y382500D01*
X149850Y384750D02*Y383250D01*
Y384750D02*X150600Y385500D01*
X152100D01*
X152850Y384750D01*
G54D43*X157350Y387000D02*Y386850D01*
G54D42*Y384750D02*Y382500D01*
X159600Y384750D02*Y382500D01*
Y384750D02*X160350Y385500D01*
X161100D01*
X161850Y384750D01*
Y382500D01*
X158850Y385500D02*X159600Y384750D01*
X167100Y388500D02*Y383250D01*
X167850Y382500D01*
X166350Y386250D02*X167850D01*
X169350Y388500D02*Y382500D01*
Y384750D02*X170100Y385500D01*
X171600D01*
X172350Y384750D01*
Y382500D01*
G54D43*X174150Y387000D02*Y386850D01*
G54D42*Y384750D02*Y382500D01*
X176400D02*X178650D01*
X179400Y383250D01*
X178650Y384000D02*X179400Y383250D01*
X176400Y384000D02*X178650D01*
X175650Y384750D02*X176400Y384000D01*
X175650Y384750D02*X176400Y385500D01*
X178650D01*
X179400Y384750D01*
X175650Y383250D02*X176400Y382500D01*
X183900Y388500D02*Y383250D01*
X184650Y382500D01*
X188400Y385500D02*X189150Y384750D01*
X186900Y385500D02*X188400D01*
X186150Y384750D02*X186900Y385500D01*
X186150Y384750D02*Y383250D01*
X186900Y382500D01*
X189150Y385500D02*Y383250D01*
X189900Y382500D01*
X186900D02*X188400D01*
X189150Y383250D01*
X191700Y385500D02*Y383250D01*
X192450Y382500D01*
X194700Y385500D02*Y381000D01*
X193950Y380250D02*X194700Y381000D01*
X192450Y380250D02*X193950D01*
X191700Y381000D02*X192450Y380250D01*
Y382500D02*X193950D01*
X194700Y383250D01*
X196500Y384750D02*Y383250D01*
Y384750D02*X197250Y385500D01*
X198750D01*
X199500Y384750D01*
Y383250D01*
X198750Y382500D02*X199500Y383250D01*
X197250Y382500D02*X198750D01*
X196500Y383250D02*X197250Y382500D01*
X201300Y385500D02*Y383250D01*
X202050Y382500D01*
X203550D01*
X204300Y383250D01*
Y385500D02*Y383250D01*
X206850Y388500D02*Y383250D01*
X207600Y382500D01*
X206100Y386250D02*X207600D01*
X209100Y381000D02*X210600Y382500D01*
X215850D02*X218850Y388500D01*
X215100D02*X218850D01*
X221400Y382500D02*X224400Y388500D01*
X220650D02*X224400D01*
X228900D02*Y382500D01*
Y384750D02*X229650Y385500D01*
X231150D01*
X231900Y384750D01*
Y382500D01*
X233700Y384750D02*Y383250D01*
Y384750D02*X234450Y385500D01*
X235950D01*
X236700Y384750D01*
Y383250D01*
X235950Y382500D02*X236700Y383250D01*
X234450Y382500D02*X235950D01*
X233700Y383250D02*X234450Y382500D01*
X238500Y388500D02*Y383250D01*
X239250Y382500D01*
X241500D02*X243750D01*
X240750Y383250D02*X241500Y382500D01*
X240750Y384750D02*Y383250D01*
Y384750D02*X241500Y385500D01*
X243000D01*
X243750Y384750D01*
X240750Y384000D02*X243750D01*
Y384750D02*Y384000D01*
X246300Y382500D02*X248550D01*
X249300Y383250D01*
X248550Y384000D02*X249300Y383250D01*
X246300Y384000D02*X248550D01*
X245550Y384750D02*X246300Y384000D01*
X245550Y384750D02*X246300Y385500D01*
X248550D01*
X249300Y384750D01*
X245550Y383250D02*X246300Y382500D01*
X254550Y388500D02*Y383250D01*
X255300Y382500D01*
X253800Y386250D02*X255300D01*
X256800Y384750D02*Y383250D01*
Y384750D02*X257550Y385500D01*
X259050D01*
X259800Y384750D01*
Y383250D01*
X259050Y382500D02*X259800Y383250D01*
X257550Y382500D02*X259050D01*
X256800Y383250D02*X257550Y382500D01*
X262350Y388500D02*Y383250D01*
X263100Y382500D01*
X261600Y386250D02*X263100D01*
X266850Y385500D02*X267600Y384750D01*
X265350Y385500D02*X266850D01*
X264600Y384750D02*X265350Y385500D01*
X264600Y384750D02*Y383250D01*
X265350Y382500D01*
X267600Y385500D02*Y383250D01*
X268350Y382500D01*
X265350D02*X266850D01*
X267600Y383250D01*
X270150Y388500D02*Y383250D01*
X270900Y382500D01*
G54D44*X34500Y285500D02*X145500D01*
Y84500D01*
X34500D01*
Y285500D01*
G54D42*X0Y-9500D02*X3000D01*
X3750Y-8750D01*
Y-6950D02*Y-8750D01*
X3000Y-6200D02*X3750Y-6950D01*
X750Y-6200D02*X3000D01*
X750Y-3500D02*Y-9500D01*
X0Y-3500D02*X3000D01*
X3750Y-4250D01*
Y-5450D01*
X3000Y-6200D02*X3750Y-5450D01*
X5550Y-7250D02*Y-8750D01*
Y-7250D02*X6300Y-6500D01*
X7800D01*
X8550Y-7250D01*
Y-8750D01*
X7800Y-9500D02*X8550Y-8750D01*
X6300Y-9500D02*X7800D01*
X5550Y-8750D02*X6300Y-9500D01*
X12600Y-6500D02*X13350Y-7250D01*
X11100Y-6500D02*X12600D01*
X10350Y-7250D02*X11100Y-6500D01*
X10350Y-7250D02*Y-8750D01*
X11100Y-9500D01*
X13350Y-6500D02*Y-8750D01*
X14100Y-9500D01*
X11100D02*X12600D01*
X13350Y-8750D01*
X16650Y-7250D02*Y-9500D01*
Y-7250D02*X17400Y-6500D01*
X18900D01*
X15900D02*X16650Y-7250D01*
X23700Y-3500D02*Y-9500D01*
X22950D02*X23700Y-8750D01*
X21450Y-9500D02*X22950D01*
X20700Y-8750D02*X21450Y-9500D01*
X20700Y-7250D02*Y-8750D01*
Y-7250D02*X21450Y-6500D01*
X22950D01*
X23700Y-7250D01*
X28200D02*Y-8750D01*
Y-7250D02*X28950Y-6500D01*
X30450D01*
X31200Y-7250D01*
Y-8750D01*
X30450Y-9500D02*X31200Y-8750D01*
X28950Y-9500D02*X30450D01*
X28200Y-8750D02*X28950Y-9500D01*
X33000Y-6500D02*Y-8750D01*
X33750Y-9500D01*
X35250D01*
X36000Y-8750D01*
Y-6500D02*Y-8750D01*
X38550Y-3500D02*Y-8750D01*
X39300Y-9500D01*
X37800Y-5750D02*X39300D01*
X40800Y-3500D02*Y-8750D01*
X41550Y-9500D01*
G54D43*X43050Y-5000D02*Y-5150D01*
G54D42*Y-7250D02*Y-9500D01*
X45300Y-7250D02*Y-9500D01*
Y-7250D02*X46050Y-6500D01*
X46800D01*
X47550Y-7250D01*
Y-9500D01*
X44550Y-6500D02*X45300Y-7250D01*
X50100Y-9500D02*X52350D01*
X49350Y-8750D02*X50100Y-9500D01*
X49350Y-7250D02*Y-8750D01*
Y-7250D02*X50100Y-6500D01*
X51600D01*
X52350Y-7250D01*
X49350Y-8000D02*X52350D01*
Y-7250D02*Y-8000D01*
G54D43*X56850Y-5000D02*Y-5150D01*
G54D42*Y-7250D02*Y-9500D01*
X59100D02*X61350D01*
X62100Y-8750D01*
X61350Y-8000D02*X62100Y-8750D01*
X59100Y-8000D02*X61350D01*
X58350Y-7250D02*X59100Y-8000D01*
X58350Y-7250D02*X59100Y-6500D01*
X61350D01*
X62100Y-7250D01*
X58350Y-8750D02*X59100Y-9500D01*
X67350Y-3500D02*Y-8750D01*
X68100Y-9500D01*
X66600Y-5750D02*X68100D01*
X69600Y-3500D02*Y-9500D01*
Y-7250D02*X70350Y-6500D01*
X71850D01*
X72600Y-7250D01*
Y-9500D01*
X75150D02*X77400D01*
X74400Y-8750D02*X75150Y-9500D01*
X74400Y-7250D02*Y-8750D01*
Y-7250D02*X75150Y-6500D01*
X76650D01*
X77400Y-7250D01*
X74400Y-8000D02*X77400D01*
Y-7250D02*Y-8000D01*
X82650Y-6500D02*X84900D01*
X81900Y-7250D02*X82650Y-6500D01*
X81900Y-7250D02*Y-8750D01*
X82650Y-9500D01*
X84900D01*
X87450D02*X89700D01*
X86700Y-8750D02*X87450Y-9500D01*
X86700Y-7250D02*Y-8750D01*
Y-7250D02*X87450Y-6500D01*
X88950D01*
X89700Y-7250D01*
X86700Y-8000D02*X89700D01*
Y-7250D02*Y-8000D01*
X92250Y-7250D02*Y-9500D01*
Y-7250D02*X93000Y-6500D01*
X93750D01*
X94500Y-7250D01*
Y-9500D01*
X91500Y-6500D02*X92250Y-7250D01*
X97050Y-3500D02*Y-8750D01*
X97800Y-9500D01*
X96300Y-5750D02*X97800D01*
X100050Y-9500D02*X102300D01*
X99300Y-8750D02*X100050Y-9500D01*
X99300Y-7250D02*Y-8750D01*
Y-7250D02*X100050Y-6500D01*
X101550D01*
X102300Y-7250D01*
X99300Y-8000D02*X102300D01*
Y-7250D02*Y-8000D01*
X104850Y-7250D02*Y-9500D01*
Y-7250D02*X105600Y-6500D01*
X107100D01*
X104100D02*X104850Y-7250D01*
X108900Y-3500D02*Y-8750D01*
X109650Y-9500D01*
G54D43*X111150Y-5000D02*Y-5150D01*
G54D42*Y-7250D02*Y-9500D01*
X113400Y-7250D02*Y-9500D01*
Y-7250D02*X114150Y-6500D01*
X114900D01*
X115650Y-7250D01*
Y-9500D01*
X112650Y-6500D02*X113400Y-7250D01*
X118200Y-9500D02*X120450D01*
X117450Y-8750D02*X118200Y-9500D01*
X117450Y-7250D02*Y-8750D01*
Y-7250D02*X118200Y-6500D01*
X119700D01*
X120450Y-7250D01*
X117450Y-8000D02*X120450D01*
Y-7250D02*Y-8000D01*
X124950Y-7250D02*Y-8750D01*
Y-7250D02*X125700Y-6500D01*
X127200D01*
X127950Y-7250D01*
Y-8750D01*
X127200Y-9500D02*X127950Y-8750D01*
X125700Y-9500D02*X127200D01*
X124950Y-8750D02*X125700Y-9500D01*
X130500Y-4250D02*Y-9500D01*
Y-4250D02*X131250Y-3500D01*
X132000D01*
X129750Y-6500D02*X131250D01*
X136950Y-3500D02*Y-8750D01*
X137700Y-9500D01*
X136200Y-5750D02*X137700D01*
X139200Y-3500D02*Y-9500D01*
Y-7250D02*X139950Y-6500D01*
X141450D01*
X142200Y-7250D01*
Y-9500D01*
G54D43*X144000Y-5000D02*Y-5150D01*
G54D42*Y-7250D02*Y-9500D01*
X146250D02*X148500D01*
X149250Y-8750D01*
X148500Y-8000D02*X149250Y-8750D01*
X146250Y-8000D02*X148500D01*
X145500Y-7250D02*X146250Y-8000D01*
X145500Y-7250D02*X146250Y-6500D01*
X148500D01*
X149250Y-7250D01*
X145500Y-8750D02*X146250Y-9500D01*
X154500Y-7250D02*Y-11750D01*
X153750Y-6500D02*X154500Y-7250D01*
X155250Y-6500D01*
X156750D01*
X157500Y-7250D01*
Y-8750D01*
X156750Y-9500D02*X157500Y-8750D01*
X155250Y-9500D02*X156750D01*
X154500Y-8750D02*X155250Y-9500D01*
X161550Y-6500D02*X162300Y-7250D01*
X160050Y-6500D02*X161550D01*
X159300Y-7250D02*X160050Y-6500D01*
X159300Y-7250D02*Y-8750D01*
X160050Y-9500D01*
X162300Y-6500D02*Y-8750D01*
X163050Y-9500D01*
X160050D02*X161550D01*
X162300Y-8750D01*
X165600Y-3500D02*Y-8750D01*
X166350Y-9500D01*
X164850Y-5750D02*X166350D01*
X167850Y-3500D02*Y-9500D01*
Y-7250D02*X168600Y-6500D01*
X170100D01*
X170850Y-7250D01*
Y-9500D01*
X200750Y328500D02*Y322500D01*
X202700Y328500D02*X203750Y327450D01*
Y323550D01*
X202700Y322500D02*X203750Y323550D01*
X200000Y322500D02*X202700D01*
X200000Y328500D02*X202700D01*
X207800Y325500D02*X208550Y324750D01*
X206300Y325500D02*X207800D01*
X205550Y324750D02*X206300Y325500D01*
X205550Y324750D02*Y323250D01*
X206300Y322500D01*
X208550Y325500D02*Y323250D01*
X209300Y322500D01*
X206300D02*X207800D01*
X208550Y323250D01*
X211850Y328500D02*Y323250D01*
X212600Y322500D01*
X211100Y326250D02*X212600D01*
X214850Y322500D02*X217100D01*
X214100Y323250D02*X214850Y322500D01*
X214100Y324750D02*Y323250D01*
Y324750D02*X214850Y325500D01*
X216350D01*
X217100Y324750D01*
X214100Y324000D02*X217100D01*
Y324750D02*Y324000D01*
X218900Y326250D02*X219650D01*
X218900Y324750D02*X219650D01*
X224150Y328500D02*Y322500D01*
Y328500D02*X227150D01*
X224150Y325800D02*X226400D01*
X229700Y324750D02*Y322500D01*
Y324750D02*X230450Y325500D01*
X231950D01*
X228950D02*X229700Y324750D01*
G54D43*X233750Y327000D02*Y326850D01*
G54D42*Y324750D02*Y322500D01*
X237950Y327300D02*X239150Y328500D01*
Y322500D01*
X237950D02*X240200D01*
X242000Y327750D02*X242750Y328500D01*
X244250D01*
X245000Y327750D01*
X244250Y322500D02*X245000Y323250D01*
X242750Y322500D02*X244250D01*
X242000Y323250D02*X242750Y322500D01*
Y325800D02*X244250D01*
X245000Y327750D02*Y326550D01*
Y325050D02*Y323250D01*
Y325050D02*X244250Y325800D01*
X245000Y326550D02*X244250Y325800D01*
X249500Y328500D02*Y322500D01*
Y328500D02*X253250Y322500D01*
Y328500D02*Y322500D01*
X255050Y324750D02*Y323250D01*
Y324750D02*X255800Y325500D01*
X257300D01*
X258050Y324750D01*
Y323250D01*
X257300Y322500D02*X258050Y323250D01*
X255800Y322500D02*X257300D01*
X255050Y323250D02*X255800Y322500D01*
X259850Y325500D02*X261350Y322500D01*
X262850Y325500D02*X261350Y322500D01*
X267350Y327750D02*X268100Y328500D01*
X270350D01*
X271100Y327750D01*
Y326250D01*
X267350Y322500D02*X271100Y326250D01*
X267350Y322500D02*X271100D01*
X272900Y323250D02*X273650Y322500D01*
X272900Y327750D02*Y323250D01*
Y327750D02*X273650Y328500D01*
X275150D01*
X275900Y327750D01*
Y323250D01*
X275150Y322500D02*X275900Y323250D01*
X273650Y322500D02*X275150D01*
X272900Y324000D02*X275900Y327000D01*
X277700Y327300D02*X278900Y328500D01*
Y322500D01*
X277700D02*X279950D01*
X281750Y328500D02*X284750D01*
X281750D02*Y325500D01*
X282500Y326250D01*
X284000D01*
X284750Y325500D01*
Y323250D01*
X284000Y322500D02*X284750Y323250D01*
X282500Y322500D02*X284000D01*
X281750Y323250D02*X282500Y322500D01*
X289250Y323250D02*X290000Y322500D01*
X289250Y327750D02*Y323250D01*
Y327750D02*X290000Y328500D01*
X291500D01*
X292250Y327750D01*
Y323250D01*
X291500Y322500D02*X292250Y323250D01*
X290000Y322500D02*X291500D01*
X289250Y324000D02*X292250Y327000D01*
X294050Y324750D02*X297050Y328500D01*
X294050Y324750D02*X297800D01*
X297050Y328500D02*Y322500D01*
X299600Y326250D02*X300350D01*
X299600Y324750D02*X300350D01*
X302150Y328500D02*X305150D01*
X302150D02*Y325500D01*
X302900Y326250D01*
X304400D01*
X305150Y325500D01*
Y323250D01*
X304400Y322500D02*X305150Y323250D01*
X302900Y322500D02*X304400D01*
X302150Y323250D02*X302900Y322500D01*
X306950Y327750D02*X307700Y328500D01*
X309200D01*
X309950Y327750D01*
X309200Y322500D02*X309950Y323250D01*
X307700Y322500D02*X309200D01*
X306950Y323250D02*X307700Y322500D01*
Y325800D02*X309200D01*
X309950Y327750D02*Y326550D01*
Y325050D02*Y323250D01*
Y325050D02*X309200Y325800D01*
X309950Y326550D02*X309200Y325800D01*
X311750Y326250D02*X312500D01*
X311750Y324750D02*X312500D01*
X314300Y327300D02*X315500Y328500D01*
Y322500D01*
X314300D02*X316550D01*
X318350Y328500D02*X321350D01*
X318350D02*Y325500D01*
X319100Y326250D01*
X320600D01*
X321350Y325500D01*
Y323250D01*
X320600Y322500D02*X321350Y323250D01*
X319100Y322500D02*X320600D01*
X318350Y323250D02*X319100Y322500D01*
X326600Y328500D02*Y322500D01*
X325850Y328500D02*X328850D01*
X329600Y327750D01*
Y326250D01*
X328850Y325500D02*X329600Y326250D01*
X326600Y325500D02*X328850D01*
X331400Y328500D02*Y322500D01*
Y328500D02*X333650Y325500D01*
X335900Y328500D01*
Y322500D01*
X343400Y328500D02*X344150Y327750D01*
X341150Y328500D02*X343400D01*
X340400Y327750D02*X341150Y328500D01*
X340400Y327750D02*Y323250D01*
X341150Y322500D01*
X343400D01*
X344150Y323250D01*
Y324750D02*Y323250D01*
X343400Y325500D02*X344150Y324750D01*
X341900Y325500D02*X343400D01*
X345950Y328500D02*Y322500D01*
Y328500D02*X348200Y325500D01*
X350450Y328500D01*
Y322500D01*
X352250Y328500D02*X355250D01*
X353750D02*Y322500D01*
X359750Y328500D02*Y323250D01*
X360500Y322500D01*
X362000D01*
X362750Y323250D01*
Y328500D02*Y323250D01*
X364550Y328500D02*X367550D01*
X366050D02*Y322500D01*
X370400D02*X372350D01*
X369350Y323550D02*X370400Y322500D01*
X369350Y327450D02*Y323550D01*
Y327450D02*X370400Y328500D01*
X372350D01*
X200000Y342000D02*Y337500D01*
Y342000D02*X201050Y343500D01*
X202700D01*
X203750Y342000D01*
Y337500D01*
X200000Y340500D02*X203750D01*
X205550D02*Y338250D01*
X206300Y337500D01*
X207800D01*
X208550Y338250D01*
Y340500D02*Y338250D01*
X211100Y343500D02*Y338250D01*
X211850Y337500D01*
X210350Y341250D02*X211850D01*
X213350Y343500D02*Y337500D01*
Y339750D02*X214100Y340500D01*
X215600D01*
X216350Y339750D01*
Y337500D01*
X218150Y339750D02*Y338250D01*
Y339750D02*X218900Y340500D01*
X220400D01*
X221150Y339750D01*
Y338250D01*
X220400Y337500D02*X221150Y338250D01*
X218900Y337500D02*X220400D01*
X218150Y338250D02*X218900Y337500D01*
X223700Y339750D02*Y337500D01*
Y339750D02*X224450Y340500D01*
X225950D01*
X222950D02*X223700Y339750D01*
X227750Y341250D02*X228500D01*
X227750Y339750D02*X228500D01*
X200000Y358500D02*X203000D01*
X201500D02*Y352500D01*
G54D43*X204800Y357000D02*Y356850D01*
G54D42*Y354750D02*Y352500D01*
X207050Y358500D02*Y353250D01*
X207800Y352500D01*
X206300Y356250D02*X207800D01*
X209300Y358500D02*Y353250D01*
X210050Y352500D01*
X212300D02*X214550D01*
X211550Y353250D02*X212300Y352500D01*
X211550Y354750D02*Y353250D01*
Y354750D02*X212300Y355500D01*
X213800D01*
X214550Y354750D01*
X211550Y354000D02*X214550D01*
Y354750D02*Y354000D01*
X216350Y356250D02*X217100D01*
X216350Y354750D02*X217100D01*
X221600Y353250D02*X222350Y352500D01*
X221600Y357750D02*X222350Y358500D01*
X221600Y357750D02*Y353250D01*
X224150Y355500D02*Y353250D01*
X224900Y352500D01*
X226400D01*
X227150Y353250D01*
Y355500D02*Y353250D01*
X229700Y354750D02*Y352500D01*
Y354750D02*X230450Y355500D01*
X231200D01*
X231950Y354750D01*
Y352500D01*
X228950Y355500D02*X229700Y354750D01*
X233750Y358500D02*Y352500D01*
Y354750D02*X236000Y352500D01*
X233750Y354750D02*X235250Y356250D01*
X238550Y354750D02*Y352500D01*
Y354750D02*X239300Y355500D01*
X240050D01*
X240800Y354750D01*
Y352500D01*
X237800Y355500D02*X238550Y354750D01*
X242600D02*Y353250D01*
Y354750D02*X243350Y355500D01*
X244850D01*
X245600Y354750D01*
Y353250D01*
X244850Y352500D02*X245600Y353250D01*
X243350Y352500D02*X244850D01*
X242600Y353250D02*X243350Y352500D01*
X247400Y355500D02*Y353250D01*
X248150Y352500D01*
X248900D01*
X249650Y353250D01*
Y355500D02*Y353250D01*
X250400Y352500D01*
X251150D01*
X251900Y353250D01*
Y355500D02*Y353250D01*
X254450Y354750D02*Y352500D01*
Y354750D02*X255200Y355500D01*
X255950D01*
X256700Y354750D01*
Y352500D01*
X253700Y355500D02*X254450Y354750D01*
X258500Y358500D02*X259250Y357750D01*
Y353250D01*
X258500Y352500D02*X259250Y353250D01*
X263750Y355500D02*X266750D01*
X271250Y358500D02*Y352500D01*
Y358500D02*X274250D01*
X271250Y355800D02*X273500D01*
X278300Y355500D02*X279050Y354750D01*
X276800Y355500D02*X278300D01*
X276050Y354750D02*X276800Y355500D01*
X276050Y354750D02*Y353250D01*
X276800Y352500D01*
X279050Y355500D02*Y353250D01*
X279800Y352500D01*
X276800D02*X278300D01*
X279050Y353250D01*
X281600Y358500D02*Y352500D01*
Y353250D02*X282350Y352500D01*
X283850D01*
X284600Y353250D01*
Y354750D02*Y353250D01*
X283850Y355500D02*X284600Y354750D01*
X282350Y355500D02*X283850D01*
X281600Y354750D02*X282350Y355500D01*
X287150Y354750D02*Y352500D01*
Y354750D02*X287900Y355500D01*
X289400D01*
X286400D02*X287150Y354750D01*
G54D43*X291200Y357000D02*Y356850D01*
G54D42*Y354750D02*Y352500D01*
X293450Y355500D02*X295700D01*
X292700Y354750D02*X293450Y355500D01*
X292700Y354750D02*Y353250D01*
X293450Y352500D01*
X295700D01*
X299750Y355500D02*X300500Y354750D01*
X298250Y355500D02*X299750D01*
X297500Y354750D02*X298250Y355500D01*
X297500Y354750D02*Y353250D01*
X298250Y352500D01*
X300500Y355500D02*Y353250D01*
X301250Y352500D01*
X298250D02*X299750D01*
X300500Y353250D01*
X303800Y358500D02*Y353250D01*
X304550Y352500D01*
X303050Y356250D02*X304550D01*
G54D43*X306050Y357000D02*Y356850D01*
G54D42*Y354750D02*Y352500D01*
X307550Y354750D02*Y353250D01*
Y354750D02*X308300Y355500D01*
X309800D01*
X310550Y354750D01*
Y353250D01*
X309800Y352500D02*X310550Y353250D01*
X308300Y352500D02*X309800D01*
X307550Y353250D02*X308300Y352500D01*
X313100Y354750D02*Y352500D01*
Y354750D02*X313850Y355500D01*
X314600D01*
X315350Y354750D01*
Y352500D01*
X312350Y355500D02*X313100Y354750D01*
X320600Y358500D02*Y352500D01*
X322550Y358500D02*X323600Y357450D01*
Y353550D01*
X322550Y352500D02*X323600Y353550D01*
X319850Y352500D02*X322550D01*
X319850Y358500D02*X322550D01*
X326150Y354750D02*Y352500D01*
Y354750D02*X326900Y355500D01*
X328400D01*
X325400D02*X326150Y354750D01*
X332450Y355500D02*X333200Y354750D01*
X330950Y355500D02*X332450D01*
X330200Y354750D02*X330950Y355500D01*
X330200Y354750D02*Y353250D01*
X330950Y352500D01*
X333200Y355500D02*Y353250D01*
X333950Y352500D01*
X330950D02*X332450D01*
X333200Y353250D01*
X335750Y355500D02*Y353250D01*
X336500Y352500D01*
X337250D01*
X338000Y353250D01*
Y355500D02*Y353250D01*
X338750Y352500D01*
X339500D01*
X340250Y353250D01*
Y355500D02*Y353250D01*
G54D43*X342050Y357000D02*Y356850D01*
G54D42*Y354750D02*Y352500D01*
X344300Y354750D02*Y352500D01*
Y354750D02*X345050Y355500D01*
X345800D01*
X346550Y354750D01*
Y352500D01*
X343550Y355500D02*X344300Y354750D01*
X350600Y355500D02*X351350Y354750D01*
X349100Y355500D02*X350600D01*
X348350Y354750D02*X349100Y355500D01*
X348350Y354750D02*Y353250D01*
X349100Y352500D01*
X350600D01*
X351350Y353250D01*
X348350Y351000D02*X349100Y350250D01*
X350600D01*
X351350Y351000D01*
Y355500D02*Y351000D01*
M02*
