G04 start of page 8 for group -4079 idx -4079 *
G04 Title: (unknown), topsilk *
G04 Creator: pcb 20140316 *
G04 CreationDate: Fri 13 Nov 2015 05:31:24 PM GMT UTC *
G04 For: fosse *
G04 Format: Gerber/RS-274X *
G04 PCB-Dimensions (mil): 1250.00 2150.00 *
G04 PCB-Coordinate-Origin: lower left *
%MOIN*%
%FSLAX25Y25*%
%LNTOPSILK*%
%ADD71C,0.0130*%
%ADD70C,0.0080*%
%ADD69C,0.0100*%
%ADD68C,0.0060*%
%ADD67C,0.0150*%
G54D67*X19000Y141500D02*X17000Y143500D01*
X19000Y145500D02*Y141500D01*
X17000Y143500D02*X19000Y145500D01*
X17000Y143500D02*X22500D01*
X24000Y148500D02*Y138500D01*
X33500D01*
Y148500D02*Y138500D01*
X24000Y148500D02*X33500D01*
X87500Y192500D02*X97000D01*
X87500D02*Y182500D01*
X97000D01*
X102000Y189500D02*X104000Y187500D01*
X102000Y189500D02*Y185500D01*
X104000Y187500D02*X102000Y185500D01*
X98500Y187500D02*X104000D01*
X97000Y192500D02*Y182500D01*
X75500Y197000D02*X77500Y199000D01*
X75500Y197000D02*X79500D01*
X72500Y192000D02*X82500D01*
X72500D02*Y182500D01*
X82500D01*
Y192000D02*Y182500D01*
X77500Y199000D02*X79500Y197000D01*
X77500Y199000D02*Y193500D01*
G54D68*X38500Y199000D02*Y195000D01*
Y199000D02*X40500D01*
X38500Y197000D02*X40000D01*
X41700Y198000D02*Y197500D01*
Y196500D02*Y195000D01*
X42700Y199000D02*Y195000D01*
Y195500D02*X43200Y195000D01*
X44200D01*
X44700Y195500D01*
Y196500D02*Y195500D01*
X44200Y197000D02*X44700Y196500D01*
X43200Y197000D02*X44200D01*
X42700Y196500D02*X43200Y197000D01*
X46400Y195000D02*X47900D01*
X45900Y195500D02*X46400Y195000D01*
X45900Y196500D02*Y195500D01*
Y196500D02*X46400Y197000D01*
X47400D01*
X47900Y196500D01*
X45900Y196000D02*X47900D01*
Y196500D02*Y196000D01*
X49600Y196500D02*Y195000D01*
Y196500D02*X50100Y197000D01*
X51100D01*
X49100D02*X49600Y196500D01*
X52300D02*Y195500D01*
Y196500D02*X52800Y197000D01*
X53800D01*
X54300Y196500D01*
Y195500D01*
X53800Y195000D02*X54300Y195500D01*
X52800Y195000D02*X53800D01*
X52300Y195500D02*X52800Y195000D01*
X56000Y196500D02*Y193500D01*
X55500Y197000D02*X56000Y196500D01*
X56500Y197000D01*
X57500D01*
X58000Y196500D01*
Y195500D01*
X57500Y195000D02*X58000Y195500D01*
X56500Y195000D02*X57500D01*
X56000Y195500D02*X56500Y195000D01*
X59700Y199000D02*Y195500D01*
X60200Y195000D01*
X59200Y197500D02*X60200D01*
X61200Y198000D02*Y197500D01*
Y196500D02*Y195000D01*
X62700Y197000D02*X64200D01*
X62200Y196500D02*X62700Y197000D01*
X62200Y196500D02*Y195500D01*
X62700Y195000D01*
X64200D01*
X38500Y192500D02*Y188500D01*
Y192500D02*X40000Y191000D01*
X41500Y192500D01*
Y188500D01*
X42700Y191500D02*Y191000D01*
Y190000D02*Y188500D01*
X44200Y190500D02*X45700D01*
X43700Y190000D02*X44200Y190500D01*
X43700Y190000D02*Y189000D01*
X44200Y188500D01*
X45700D01*
X47400Y190000D02*Y188500D01*
Y190000D02*X47900Y190500D01*
X48900D01*
X46900D02*X47400Y190000D01*
X50100D02*Y189000D01*
Y190000D02*X50600Y190500D01*
X51600D01*
X52100Y190000D01*
Y189000D01*
X51600Y188500D02*X52100Y189000D01*
X50600Y188500D02*X51600D01*
X50100Y189000D02*X50600Y188500D01*
X53800Y190000D02*Y187000D01*
X53300Y190500D02*X53800Y190000D01*
X54300Y190500D01*
X55300D01*
X55800Y190000D01*
Y189000D01*
X55300Y188500D02*X55800Y189000D01*
X54300Y188500D02*X55300D01*
X53800Y189000D02*X54300Y188500D01*
X57000Y192500D02*Y188500D01*
Y190000D02*X57500Y190500D01*
X58500D01*
X59000Y190000D01*
Y188500D01*
X60200Y190000D02*Y189000D01*
Y190000D02*X60700Y190500D01*
X61700D01*
X62200Y190000D01*
Y189000D01*
X61700Y188500D02*X62200Y189000D01*
X60700Y188500D02*X61700D01*
X60200Y189000D02*X60700Y188500D01*
X63900Y190000D02*Y188500D01*
Y190000D02*X64400Y190500D01*
X64900D01*
X65400Y190000D01*
Y188500D01*
X63400Y190500D02*X63900Y190000D01*
X67100Y188500D02*X68600D01*
X66600Y189000D02*X67100Y188500D01*
X66600Y190000D02*Y189000D01*
Y190000D02*X67100Y190500D01*
X68100D01*
X68600Y190000D01*
X66600Y189500D02*X68600D01*
Y190000D02*Y189500D01*
X38500Y185500D02*Y182000D01*
Y185500D02*X39000Y186000D01*
X40500D01*
X41000Y185500D01*
Y182000D01*
X38500Y184000D02*X41000D01*
X42700Y183500D02*Y182000D01*
Y183500D02*X43200Y184000D01*
X43700D01*
X44200Y183500D01*
Y182000D01*
Y183500D02*X44700Y184000D01*
X45200D01*
X45700Y183500D01*
Y182000D01*
X42200Y184000D02*X42700Y183500D01*
X47400D02*Y180500D01*
X46900Y184000D02*X47400Y183500D01*
X47900Y184000D01*
X48900D01*
X49400Y183500D01*
Y182500D01*
X48900Y182000D02*X49400Y182500D01*
X47900Y182000D02*X48900D01*
X47400Y182500D02*X47900Y182000D01*
X50600Y186000D02*Y182500D01*
X51100Y182000D01*
X52100Y185000D02*Y184500D01*
Y183500D02*Y182000D01*
X53600Y185500D02*Y182000D01*
Y185500D02*X54100Y186000D01*
X54600D01*
X53100Y184000D02*X54100D01*
X55600Y185000D02*Y184500D01*
Y183500D02*Y182000D01*
X57100D02*X58600D01*
X56600Y182500D02*X57100Y182000D01*
X56600Y183500D02*Y182500D01*
Y183500D02*X57100Y184000D01*
X58100D01*
X58600Y183500D01*
X56600Y183000D02*X58600D01*
Y183500D02*Y183000D01*
X60300Y183500D02*Y182000D01*
Y183500D02*X60800Y184000D01*
X61800D01*
X59800D02*X60300Y183500D01*
X55000Y26500D02*X55500Y27000D01*
X57000D01*
X57500Y26500D01*
Y25500D01*
X55000Y23000D02*X57500Y25500D01*
X55000Y23000D02*X57500D01*
X58700Y23500D02*X59200Y23000D01*
X58700Y26500D02*Y23500D01*
Y26500D02*X59200Y27000D01*
X60200D01*
X60700Y26500D01*
Y23500D01*
X60200Y23000D02*X60700Y23500D01*
X59200Y23000D02*X60200D01*
X58700Y24000D02*X60700Y26000D01*
X62400Y23000D02*X63400D01*
X62900Y27000D02*Y23000D01*
X61900Y26000D02*X62900Y27000D01*
X64600D02*X66600D01*
X64600D02*Y25000D01*
X65100Y25500D01*
X66100D01*
X66600Y25000D01*
Y23500D01*
X66100Y23000D02*X66600Y23500D01*
X65100Y23000D02*X66100D01*
X64600Y23500D02*X65100Y23000D01*
X67800D02*X68300D01*
X70000D02*X71000D01*
X70500Y27000D02*Y23000D01*
X69500Y26000D02*X70500Y27000D01*
X72700Y23000D02*X73700D01*
X73200Y27000D02*Y23000D01*
X72200Y26000D02*X73200Y27000D01*
X74900Y23000D02*X75400D01*
X77100D02*X78100D01*
X77600Y27000D02*Y23000D01*
X76600Y26000D02*X77600Y27000D01*
X79300Y26500D02*X79800Y27000D01*
X80800D01*
X81300Y26500D01*
Y23500D01*
X80800Y23000D02*X81300Y23500D01*
X79800Y23000D02*X80800D01*
X79300Y23500D02*X79800Y23000D01*
Y25000D02*X81300D01*
X46000Y170000D02*X47500D01*
X46000Y168000D02*X48000D01*
X46000Y172000D02*Y168000D01*
Y172000D02*X48000D01*
X50700Y170000D02*X51200Y169500D01*
X49700Y170000D02*X50700D01*
X49200Y169500D02*X49700Y170000D01*
X49200Y169500D02*Y168500D01*
X49700Y168000D01*
X51200Y170000D02*Y168500D01*
X51700Y168000D01*
X49700D02*X50700D01*
X51200Y168500D01*
X53400Y172000D02*Y168500D01*
X53900Y168000D01*
X52900Y170500D02*X53900D01*
X54900Y169500D02*Y168500D01*
Y169500D02*X55400Y170000D01*
X56400D01*
X56900Y169500D01*
Y168500D01*
X56400Y168000D02*X56900Y168500D01*
X55400Y168000D02*X56400D01*
X54900Y168500D02*X55400Y168000D01*
X58600Y169500D02*Y168000D01*
Y169500D02*X59100Y170000D01*
X59600D01*
X60100Y169500D01*
Y168000D01*
X58100Y170000D02*X58600Y169500D01*
X63600Y172000D02*Y168000D01*
X63100Y172000D02*X65100D01*
X65600Y171500D01*
Y170500D01*
X65100Y170000D02*X65600Y170500D01*
X63600Y170000D02*X65100D01*
X67300Y168000D02*X68800D01*
X66800Y168500D02*X67300Y168000D01*
X66800Y169500D02*Y168500D01*
Y169500D02*X67300Y170000D01*
X68300D01*
X68800Y169500D01*
X66800Y169000D02*X68800D01*
Y169500D02*Y169000D01*
X71500Y170000D02*X72000Y169500D01*
X70500Y170000D02*X71500D01*
X70000Y169500D02*X70500Y170000D01*
X70000Y169500D02*Y168500D01*
X70500Y168000D01*
X72000Y170000D02*Y168500D01*
X72500Y168000D01*
X70500D02*X71500D01*
X72000Y168500D01*
X73700Y172000D02*Y168000D01*
Y168500D02*X74200Y168000D01*
X75200D01*
X75700Y168500D01*
Y169500D02*Y168500D01*
X75200Y170000D02*X75700Y169500D01*
X74200Y170000D02*X75200D01*
X73700Y169500D02*X74200Y170000D01*
X76900Y169500D02*Y168500D01*
Y169500D02*X77400Y170000D01*
X78400D01*
X78900Y169500D01*
Y168500D01*
X78400Y168000D02*X78900Y168500D01*
X77400Y168000D02*X78400D01*
X76900Y168500D02*X77400Y168000D01*
X82100Y172000D02*Y168000D01*
X81600D02*X82100Y168500D01*
X80600Y168000D02*X81600D01*
X80100Y168500D02*X80600Y168000D01*
X80100Y169500D02*Y168500D01*
Y169500D02*X80600Y170000D01*
X81600D01*
X82100Y169500D01*
X83300Y170000D02*Y168500D01*
X83800Y168000D01*
X85300Y170000D02*Y167000D01*
X84800Y166500D02*X85300Y167000D01*
X83800Y166500D02*X84800D01*
X83300Y167000D02*X83800Y166500D01*
Y168000D02*X84800D01*
X85300Y168500D01*
X88300Y172000D02*Y168000D01*
X90300D01*
X93000Y170000D02*X93500Y169500D01*
X92000Y170000D02*X93000D01*
X91500Y169500D02*X92000Y170000D01*
X91500Y169500D02*Y168500D01*
X92000Y168000D01*
X93500Y170000D02*Y168500D01*
X94000Y168000D01*
X92000D02*X93000D01*
X93500Y168500D01*
X95200Y172000D02*Y168000D01*
Y168500D02*X95700Y168000D01*
X96700D01*
X97200Y168500D01*
Y169500D02*Y168500D01*
X96700Y170000D02*X97200Y169500D01*
X95700Y170000D02*X96700D01*
X95200Y169500D02*X95700Y170000D01*
X46000Y162000D02*X48000D01*
X48500Y162500D01*
Y163500D02*Y162500D01*
X48000Y164000D02*X48500Y163500D01*
X46500Y164000D02*X48000D01*
X46500Y166000D02*Y162000D01*
X46000Y166000D02*X48000D01*
X48500Y165500D01*
Y164500D01*
X48000Y164000D02*X48500Y164500D01*
X49700Y164000D02*Y162500D01*
X50200Y162000D01*
X51700Y164000D02*Y161000D01*
X51200Y160500D02*X51700Y161000D01*
X50200Y160500D02*X51200D01*
X49700Y161000D02*X50200Y160500D01*
Y162000D02*X51200D01*
X51700Y162500D01*
X54700Y164000D02*X56200D01*
X54700Y162000D02*X56700D01*
X54700Y166000D02*Y162000D01*
Y166000D02*X56700D01*
X57900Y164000D02*Y163000D01*
X58900Y162000D01*
X59900Y163000D01*
Y164000D02*Y163000D01*
X62600Y164000D02*X63100Y163500D01*
X61600Y164000D02*X62600D01*
X61100Y163500D02*X61600Y164000D01*
X61100Y163500D02*Y162500D01*
X61600Y162000D01*
X63100Y164000D02*Y162500D01*
X63600Y162000D01*
X61600D02*X62600D01*
X63100Y162500D01*
X65300Y163500D02*Y162000D01*
Y163500D02*X65800Y164000D01*
X66300D01*
X66800Y163500D01*
Y162000D01*
X64800Y164000D02*X65300Y163500D01*
X69800Y166000D02*Y162000D01*
Y166000D02*X71800D01*
X69800Y164000D02*X71300D01*
X73000Y163500D02*Y162500D01*
Y163500D02*X73500Y164000D01*
X74500D01*
X75000Y163500D01*
Y162500D01*
X74500Y162000D02*X75000Y162500D01*
X73500Y162000D02*X74500D01*
X73000Y162500D02*X73500Y162000D01*
X76700D02*X78200D01*
X78700Y162500D01*
X78200Y163000D02*X78700Y162500D01*
X76700Y163000D02*X78200D01*
X76200Y163500D02*X76700Y163000D01*
X76200Y163500D02*X76700Y164000D01*
X78200D01*
X78700Y163500D01*
X76200Y162500D02*X76700Y162000D01*
X80400D02*X81900D01*
X82400Y162500D01*
X81900Y163000D02*X82400Y162500D01*
X80400Y163000D02*X81900D01*
X79900Y163500D02*X80400Y163000D01*
X79900Y163500D02*X80400Y164000D01*
X81900D01*
X82400Y163500D01*
X79900Y162500D02*X80400Y162000D01*
G54D69*X105500Y210500D02*Y10500D01*
X115500D01*
Y210500D01*
X105500D01*
Y200500D02*X115500D01*
Y210500D01*
G54D70*X91638Y121240D02*X96362D01*
X91638Y113760D02*X96362D01*
X70138Y121240D02*X74862D01*
X70138Y113760D02*X74862D01*
G54D69*X15500Y100500D02*X105500D01*
Y110500D02*Y100500D01*
X15500Y110500D02*X105500D01*
X15500D02*Y100500D01*
X25500Y110500D02*Y100500D01*
X15500Y110500D02*X25500D01*
G54D70*X25638Y178240D02*X30362D01*
X25638Y170760D02*X30362D01*
X25638Y193240D02*X30362D01*
X25638Y185760D02*X30362D01*
X25638Y162740D02*X30362D01*
X25638Y155260D02*X30362D01*
G54D69*X15500Y200500D02*X105500D01*
Y210500D02*Y200500D01*
X15500Y210500D02*X105500D01*
X15500D02*Y200500D01*
X25500Y210500D02*Y200500D01*
X15500Y210500D02*X25500D01*
G54D70*X26740Y124957D02*Y120233D01*
X19260Y124957D02*Y120233D01*
X39755Y120893D02*Y120107D01*
X34245Y120893D02*Y120107D01*
X52755Y120893D02*Y120107D01*
X47245Y120893D02*Y120107D01*
G54D69*X5500Y210500D02*Y10500D01*
X15500D01*
Y210500D01*
X5500D01*
Y200500D02*X15500D01*
Y210500D01*
G54D70*X91638Y137740D02*X96362D01*
X91638Y130260D02*X96362D01*
X91638Y154740D02*X96362D01*
X91638Y147260D02*X96362D01*
G54D69*X15500Y10500D02*X105500D01*
Y20500D02*Y10500D01*
X15500Y20500D02*X105500D01*
X15500D02*Y10500D01*
X25500Y20500D02*Y10500D01*
X15500Y20500D02*X25500D01*
G54D70*X49107Y33755D02*X49893D01*
X49107Y28245D02*X49893D01*
X45607Y46255D02*X46393D01*
X45607Y40745D02*X46393D01*
G54D69*X77500Y45000D02*Y32000D01*
Y63000D02*Y50000D01*
X58500Y32000D02*X77500D01*
X58500Y63000D02*Y32000D01*
Y63000D02*X77500D01*
Y50000D02*G75*G03X77500Y45000I0J-2500D01*G01*
G54D71*X78138Y68260D02*X82862D01*
X78138Y75740D02*X82862D01*
G54D70*X78147Y85240D02*X82871D01*
X78147Y77760D02*X82871D01*
G54D68*X58150Y126650D02*Y124650D01*
X57650Y124150D01*
X56650D02*X57650D01*
X56150Y124650D02*X56650Y124150D01*
X56150Y126150D02*Y124650D01*
X54150Y126150D02*X58150D01*
X56150D02*X54150Y124150D01*
Y122450D02*Y121450D01*
Y121950D02*X58150D01*
X57150Y122950D02*X58150Y121950D01*
X54650Y120250D02*X54150Y119750D01*
X54650Y120250D02*X57650D01*
X58150Y119750D01*
Y118750D01*
X57650Y118250D01*
X54650D02*X57650D01*
X54150Y118750D02*X54650Y118250D01*
X54150Y119750D02*Y118750D01*
X55150Y120250D02*X57150Y118250D01*
X54150Y116550D02*Y115550D01*
Y116050D02*X58150D01*
X57150Y117050D02*X58150Y116050D01*
X87945Y160650D02*X89945D01*
X90445Y160150D01*
Y159150D01*
X89945Y158650D02*X90445Y159150D01*
X88445Y158650D02*X89945D01*
X88445Y160650D02*Y156650D01*
Y158650D02*X90445Y156650D01*
X92145D02*X93145D01*
X92645Y160650D02*Y156650D01*
X91645Y159650D02*X92645Y160650D01*
X94345Y157150D02*X94845Y156650D01*
X94345Y160150D02*Y157150D01*
Y160150D02*X94845Y160650D01*
X95845D01*
X96345Y160150D01*
Y157150D01*
X95845Y156650D02*X96345Y157150D01*
X94845Y156650D02*X95845D01*
X94345Y157650D02*X96345Y159650D01*
X97545Y157150D02*X98045Y156650D01*
X97545Y160150D02*Y157150D01*
Y160150D02*X98045Y160650D01*
X99045D01*
X99545Y160150D01*
Y157150D01*
X99045Y156650D02*X99545Y157150D01*
X98045Y156650D02*X99045D01*
X97545Y157650D02*X99545Y159650D01*
X79500Y39500D02*X83000D01*
X79500D02*X79000Y39000D01*
Y38000D01*
X79500Y37500D01*
X83000D01*
X79000Y35800D02*Y34800D01*
Y35300D02*X83000D01*
X82000Y36300D02*X83000Y35300D01*
X90850Y74150D02*X92850D01*
X93350Y73650D01*
Y72650D01*
X92850Y72150D02*X93350Y72650D01*
X91350Y72150D02*X92850D01*
X91350Y74150D02*Y70150D01*
Y72150D02*X93350Y70150D01*
X95050D02*X96050D01*
X95550Y74150D02*Y70150D01*
X94550Y73150D02*X95550Y74150D01*
X91359Y79650D02*X92859D01*
X90859Y80150D02*X91359Y79650D01*
X90859Y83150D02*Y80150D01*
Y83150D02*X91359Y83650D01*
X92859D01*
X94559Y79650D02*X95559D01*
X95059Y83650D02*Y79650D01*
X94059Y82650D02*X95059Y83650D01*
X47350Y35150D02*X48850D01*
X46850Y35650D02*X47350Y35150D01*
X46850Y38650D02*Y35650D01*
Y38650D02*X47350Y39150D01*
X48850D01*
X50050D02*X52050D01*
X50050D02*Y37150D01*
X50550Y37650D01*
X51550D01*
X52050Y37150D01*
Y35650D01*
X51550Y35150D02*X52050Y35650D01*
X50550Y35150D02*X51550D01*
X50050Y35650D02*X50550Y35150D01*
X45936Y47650D02*X47436D01*
X45436Y48150D02*X45936Y47650D01*
X45436Y51150D02*Y48150D01*
Y51150D02*X45936Y51650D01*
X47436D01*
X48636Y49650D02*X50636Y51650D01*
X48636Y49650D02*X51136D01*
X50636Y51650D02*Y47650D01*
X28150Y127245D02*Y125745D01*
X28650Y127745D02*X28150Y127245D01*
X28650Y127745D02*X31650D01*
X32150Y127245D01*
Y125745D01*
X28150Y124045D02*Y123045D01*
Y123545D02*X32150D01*
X31150Y124545D02*X32150Y123545D01*
X28650Y121845D02*X28150Y121345D01*
X28650Y121845D02*X31650D01*
X32150Y121345D01*
Y120345D01*
X31650Y119845D01*
X28650D02*X31650D01*
X28150Y120345D02*X28650Y119845D01*
X28150Y121345D02*Y120345D01*
X29150Y121845D02*X31150Y119845D01*
X28650Y118645D02*X28150Y118145D01*
X28650Y118645D02*X31650D01*
X32150Y118145D01*
Y117145D01*
X31650Y116645D01*
X28650D02*X31650D01*
X28150Y117145D02*X28650Y116645D01*
X28150Y118145D02*Y117145D01*
X29150Y118645D02*X31150Y116645D01*
X88850Y123150D02*X90350D01*
X88350Y123650D02*X88850Y123150D01*
X88350Y126650D02*Y123650D01*
Y126650D02*X88850Y127150D01*
X90350D01*
X92050Y123150D02*X93050D01*
X92550Y127150D02*Y123150D01*
X91550Y126150D02*X92550Y127150D01*
X94250Y123650D02*X94750Y123150D01*
X94250Y126650D02*Y123650D01*
Y126650D02*X94750Y127150D01*
X95750D01*
X96250Y126650D01*
Y123650D01*
X95750Y123150D02*X96250Y123650D01*
X94750Y123150D02*X95750D01*
X94250Y124150D02*X96250Y126150D01*
X97450Y126650D02*X97950Y127150D01*
X99450D01*
X99950Y126650D01*
Y125650D01*
X97450Y123150D02*X99950Y125650D01*
X97450Y123150D02*X99950D01*
X66445Y127150D02*X68445D01*
X68945Y126650D01*
Y125650D01*
X68445Y125150D02*X68945Y125650D01*
X66945Y125150D02*X68445D01*
X66945Y127150D02*Y123150D01*
Y125150D02*X68945Y123150D01*
X70645D02*X71645D01*
X71145Y127150D02*Y123150D01*
X70145Y126150D02*X71145Y127150D01*
X72845Y123650D02*X73345Y123150D01*
X72845Y126650D02*Y123650D01*
Y126650D02*X73345Y127150D01*
X74345D01*
X74845Y126650D01*
Y123650D01*
X74345Y123150D02*X74845Y123650D01*
X73345Y123150D02*X74345D01*
X72845Y124150D02*X74845Y126150D01*
X76045Y126650D02*X76545Y127150D01*
X77545D01*
X78045Y126650D01*
Y123650D01*
X77545Y123150D02*X78045Y123650D01*
X76545Y123150D02*X77545D01*
X76045Y123650D02*X76545Y123150D01*
Y125150D02*X78045D01*
X89350Y139650D02*X90850D01*
X88850Y140150D02*X89350Y139650D01*
X88850Y143150D02*Y140150D01*
Y143150D02*X89350Y143650D01*
X90850D01*
X92550Y139650D02*X93550D01*
X93050Y143650D02*Y139650D01*
X92050Y142650D02*X93050Y143650D01*
X94750Y140150D02*X95250Y139650D01*
X94750Y143150D02*Y140150D01*
Y143150D02*X95250Y143650D01*
X96250D01*
X96750Y143150D01*
Y140150D01*
X96250Y139650D02*X96750Y140150D01*
X95250Y139650D02*X96250D01*
X94750Y140650D02*X96750Y142650D01*
X98450Y139650D02*X99450D01*
X98950Y143650D02*Y139650D01*
X97950Y142650D02*X98950Y143650D01*
X22850Y180150D02*X24350D01*
X22350Y180650D02*X22850Y180150D01*
X22350Y183650D02*Y180650D01*
Y183650D02*X22850Y184150D01*
X24350D01*
X26050Y180150D02*X27050D01*
X26550Y184150D02*Y180150D01*
X25550Y183150D02*X26550Y184150D01*
X28250Y180650D02*X28750Y180150D01*
X28250Y183650D02*Y180650D01*
Y183650D02*X28750Y184150D01*
X29750D01*
X30250Y183650D01*
Y180650D01*
X29750Y180150D02*X30250Y180650D01*
X28750Y180150D02*X29750D01*
X28250Y181150D02*X30250Y183150D01*
X31450Y183650D02*X31950Y184150D01*
X32950D01*
X33450Y183650D01*
Y180650D01*
X32950Y180150D02*X33450Y180650D01*
X31950Y180150D02*X32950D01*
X31450Y180650D02*X31950Y180150D01*
Y182150D02*X33450D01*
X22350Y195150D02*X23850D01*
X21850Y195650D02*X22350Y195150D01*
X21850Y198650D02*Y195650D01*
Y198650D02*X22350Y199150D01*
X23850D01*
X25550Y195150D02*X26550D01*
X26050Y199150D02*Y195150D01*
X25050Y198150D02*X26050Y199150D01*
X27750Y195650D02*X28250Y195150D01*
X27750Y198650D02*Y195650D01*
Y198650D02*X28250Y199150D01*
X29250D01*
X29750Y198650D01*
Y195650D01*
X29250Y195150D02*X29750Y195650D01*
X28250Y195150D02*X29250D01*
X27750Y196150D02*X29750Y198150D01*
X30950Y197150D02*X32950Y199150D01*
X30950Y197150D02*X33450D01*
X32950Y199150D02*Y195150D01*
X21945Y168650D02*X23945D01*
X24445Y168150D01*
Y167150D01*
X23945Y166650D02*X24445Y167150D01*
X22445Y166650D02*X23945D01*
X22445Y168650D02*Y164650D01*
Y166650D02*X24445Y164650D01*
X26145D02*X27145D01*
X26645Y168650D02*Y164650D01*
X25645Y167650D02*X26645Y168650D01*
X28345Y165150D02*X28845Y164650D01*
X28345Y168150D02*Y165150D01*
Y168150D02*X28845Y168650D01*
X29845D01*
X30345Y168150D01*
Y165150D01*
X29845Y164650D02*X30345Y165150D01*
X28845Y164650D02*X29845D01*
X28345Y165650D02*X30345Y167650D01*
X31545Y166650D02*X33545Y168650D01*
X31545Y166650D02*X34045D01*
X33545Y168650D02*Y164650D01*
X17500Y26000D02*X19000D01*
Y22500D01*
X18500Y22000D02*X19000Y22500D01*
X18000Y22000D02*X18500D01*
X17500Y22500D02*X18000Y22000D01*
X20700D02*X21700D01*
X21200Y26000D02*Y22000D01*
X20200Y25000D02*X21200Y26000D01*
X19000Y116500D02*X20500D01*
Y113000D01*
X20000Y112500D02*X20500Y113000D01*
X19500Y112500D02*X20000D01*
X19000Y113000D02*X19500Y112500D01*
X21700Y116000D02*X22200Y116500D01*
X23700D01*
X24200Y116000D01*
Y115000D01*
X21700Y112500D02*X24200Y115000D01*
X21700Y112500D02*X24200D01*
X30500Y146000D02*Y144500D01*
X27000D02*X30500D01*
X26500Y145000D02*X27000Y144500D01*
X26500Y145500D02*Y145000D01*
X27000Y146000D02*X26500Y145500D01*
X28500Y143300D02*X30500Y141300D01*
X28500Y143300D02*Y140800D01*
X26500Y141300D02*X30500D01*
X45150Y126650D02*Y124650D01*
X44650Y124150D01*
X43650D02*X44650D01*
X43150Y124650D02*X43650Y124150D01*
X43150Y126150D02*Y124650D01*
X41150Y126150D02*X45150D01*
X43150D02*X41150Y124150D01*
Y122450D02*Y121450D01*
Y121950D02*X45150D01*
X44150Y122950D02*X45150Y121950D01*
X41650Y120250D02*X41150Y119750D01*
X41650Y120250D02*X44650D01*
X45150Y119750D01*
Y118750D01*
X44650Y118250D01*
X41650D02*X44650D01*
X41150Y118750D02*X41650Y118250D01*
X41150Y119750D02*Y118750D01*
X42150Y120250D02*X44150Y118250D01*
X44650Y117050D02*X45150Y116550D01*
Y115050D01*
X44650Y114550D01*
X43650D02*X44650D01*
X41150Y117050D02*X43650Y114550D01*
X41150Y117050D02*Y114550D01*
X94000Y190000D02*Y188500D01*
X90500D02*X94000D01*
X90000Y189000D02*X90500Y188500D01*
X90000Y189500D02*Y189000D01*
X90500Y190000D02*X90000Y189500D01*
X94000Y187300D02*Y185300D01*
X92000Y187300D02*X94000D01*
X92000D02*X92500Y186800D01*
Y185800D01*
X92000Y185300D01*
X90500D02*X92000D01*
X90000Y185800D02*X90500Y185300D01*
X90000Y186800D02*Y185800D01*
X90500Y187300D02*X90000Y186800D01*
X75000Y189000D02*X76500D01*
Y185500D01*
X76000Y185000D02*X76500Y185500D01*
X75500Y185000D02*X76000D01*
X75000Y185500D02*X75500Y185000D01*
X77700Y188500D02*X78200Y189000D01*
X79200D01*
X79700Y188500D01*
Y185500D01*
X79200Y185000D02*X79700Y185500D01*
X78200Y185000D02*X79200D01*
X77700Y185500D02*X78200Y185000D01*
Y187000D02*X79700D01*
M02*
