G04 start of page 11 for group -4014 idx -4014 *
G04 Title: (unknown), bottompaste *
G04 Creator: pcb 20140316 *
G04 CreationDate: Fri 13 Nov 2015 05:31:24 PM GMT UTC *
G04 For: fosse *
G04 Format: Gerber/RS-274X *
G04 PCB-Dimensions (mil): 1250.00 2150.00 *
G04 PCB-Coordinate-Origin: lower left *
%MOIN*%
%FSLAX25Y25*%
%LNBOTTOMPASTE*%
%ADD85R,0.0850X0.0850*%
%ADD84R,0.0512X0.0512*%
%ADD83C,0.0550*%
%ADD82R,0.1220X0.1220*%
%ADD81R,0.0560X0.0560*%
G54D81*X32300Y134000D02*X38900D01*
X32300Y143000D02*X38900D01*
X32300Y152100D02*X38900D01*
G54D82*X60000Y147500D02*Y138500D01*
G54D83*X77000Y46000D02*X81500Y50500D01*
Y59500D02*Y50500D01*
Y59500D02*X84000Y62000D01*
X78000Y95500D02*X84000Y89500D01*
X69000Y95500D02*X78000D01*
X63500Y90000D02*X69000Y95500D01*
X59500Y90000D02*X63500D01*
X56000Y86500D02*X59500Y90000D01*
X50500Y86500D02*X56000D01*
X44750Y80750D02*X50500Y86500D01*
X44750Y73750D02*X55000Y63500D01*
X61000D01*
X63500Y61000D01*
Y50000D01*
X67500Y46000D01*
X44750Y105250D02*Y73750D01*
X84000Y105500D02*Y62000D01*
X57000Y74500D02*X59000D01*
X54000Y77500D02*X57000Y74500D01*
X54000Y105500D02*Y77500D01*
X67500Y46000D02*X77000D01*
G54D84*X50500Y37893D02*Y37107D01*
X57586Y37893D02*Y37107D01*
G54D85*X27500Y69500D02*Y57500D01*
Y69500D02*Y57500D01*
Y69500D02*Y57500D01*
M02*
