G04 start of page 9 for group -4078 idx -4078 *
G04 Title: (unknown), bottomsilk *
G04 Creator: pcb 20140316 *
G04 CreationDate: Tue 05 May 2015 02:49:42 PM GMT UTC *
G04 For: fosse *
G04 Format: Gerber/RS-274X *
G04 PCB-Dimensions (mil): 1250.00 2150.00 *
G04 PCB-Coordinate-Origin: lower left *
%MOIN*%
%FSLAX25Y25*%
%LNBOTTOMSILK*%
%ADD58C,0.0100*%
%ADD57C,0.0060*%
%ADD56C,0.0080*%
G54D56*X42638Y33260D02*X47362D01*
X42638Y40740D02*X47362D01*
X67814Y42468D02*Y38532D01*
X57186Y42468D02*Y38532D01*
G54D57*X35500Y58500D02*X85500D01*
X35500Y99500D02*Y58500D01*
Y99500D02*X85500D01*
Y58500D01*
X60500Y79500D02*Y78500D01*
Y79500D02*X61000Y79000D01*
X60000D02*X61000D01*
X60000D02*X60500Y78500D01*
X61000Y79000D01*
X50500Y94500D02*X49000Y93000D01*
X50500Y96500D02*X49000Y95000D01*
X50500Y96500D02*Y92500D01*
X49000Y91000D01*
X50500Y94500D02*X52500D01*
X60500Y78500D02*G75*G03X61000Y79000I0J500D01*G01*
X60000D02*G75*G03X60500Y78500I500J0D01*G01*
Y79500D02*G75*G03X60000Y79000I0J-500D01*G01*
X61000D02*G75*G03X60500Y79500I-500J0D01*G01*
X59000Y62500D02*G75*G03X60500Y61000I1500J0D01*G01*
G75*G03X62000Y62500I0J1500D01*G01*
X70500Y92000D02*G75*G03X72000Y93500I0J1500D01*G01*
X69000D02*G75*G03X70500Y92000I1500J0D01*G01*
Y95000D02*G75*G03X69000Y93500I0J-1500D01*G01*
X72000D02*G75*G03X70500Y95000I-1500J0D01*G01*
X69000Y96500D02*G75*G03X70500Y95000I1500J0D01*G01*
X35500Y158500D02*X85500D01*
X35500Y199500D02*Y158500D01*
Y199500D02*X85500D01*
Y158500D01*
X60500Y179500D02*Y178500D01*
Y179500D02*X61000Y179000D01*
X60000D02*X61000D01*
X60000D02*X60500Y178500D01*
X61000Y179000D01*
X50500Y194500D02*X49000Y193000D01*
X50500Y196500D02*X49000Y195000D01*
X50500Y196500D02*Y192500D01*
X49000Y191000D01*
X50500Y194500D02*X52500D01*
X60500Y178500D02*G75*G03X61000Y179000I0J500D01*G01*
X60000D02*G75*G03X60500Y178500I500J0D01*G01*
Y179500D02*G75*G03X60000Y179000I0J-500D01*G01*
X61000D02*G75*G03X60500Y179500I-500J0D01*G01*
X59000Y162500D02*G75*G03X60500Y161000I1500J0D01*G01*
G75*G03X62000Y162500I0J1500D01*G01*
X70500Y192000D02*G75*G03X72000Y193500I0J1500D01*G01*
X69000D02*G75*G03X70500Y192000I1500J0D01*G01*
Y195000D02*G75*G03X69000Y193500I0J-1500D01*G01*
X72000D02*G75*G03X70500Y195000I-1500J0D01*G01*
X69000Y196500D02*G75*G03X70500Y195000I1500J0D01*G01*
G54D58*X27100Y128800D02*X68500D01*
X27100Y157300D02*Y128800D01*
Y157300D02*X68500D01*
Y128800D01*
G54D57*X42350Y31850D02*X43850D01*
X41850Y31350D02*X42350Y31850D01*
X41850Y28350D02*Y31350D01*
Y28350D02*X42350Y27850D01*
X43850D01*
X45050D02*X47050D01*
X45050D02*Y29850D01*
X45550Y29350D01*
X46550D01*
X47050Y29850D01*
Y31350D01*
X46550Y31850D02*X47050Y31350D01*
X45550Y31850D02*X46550D01*
X45050Y31350D02*X45550Y31850D01*
X69850Y38245D02*Y39745D01*
X70350Y37745D02*X69850Y38245D01*
X70350Y37745D02*X73350D01*
X73850Y38245D01*
Y39745D01*
X73350Y40945D02*X73850Y41445D01*
Y42945D01*
X73350Y43445D01*
X72350D02*X73350D01*
X69850Y40945D02*X72350Y43445D01*
X69850Y40945D02*Y43445D01*
X87000Y77000D02*X91000D01*
Y78500D02*X90500Y79000D01*
X87500D02*X90500D01*
X87000Y78500D02*X87500Y79000D01*
X87000Y76500D02*Y78500D01*
X91000Y76500D02*Y78500D01*
X87000Y80700D02*Y81700D01*
Y81200D02*X91000D01*
X90000Y80200D02*X91000Y81200D01*
X71300Y137500D02*X74800D01*
X71300D02*X70800Y138000D01*
Y139000D01*
X71300Y139500D01*
X74800D01*
X70800Y141200D02*Y142200D01*
Y141700D02*X74800D01*
X73800Y140700D02*X74800Y141700D01*
X71300Y143400D02*X70800Y143900D01*
X71300Y143400D02*X74300D01*
X74800Y143900D01*
Y144900D01*
X74300Y145400D01*
X71300D02*X74300D01*
X70800Y144900D02*X71300Y145400D01*
X70800Y143900D02*Y144900D01*
X71800Y143400D02*X73800Y145400D01*
X71300Y146600D02*X70800Y147100D01*
X71300Y146600D02*X74300D01*
X74800Y147100D01*
Y148100D01*
X74300Y148600D01*
X71300D02*X74300D01*
X70800Y148100D02*X71300Y148600D01*
X70800Y147100D02*Y148100D01*
X71800Y146600D02*X73800Y148600D01*
X87000Y169500D02*X91000D01*
X87000D02*Y171500D01*
X89000Y172700D02*Y174200D01*
X87000Y172700D02*Y174700D01*
Y172700D02*X91000D01*
Y174700D01*
X87000Y176400D02*X91000D01*
Y177900D02*X90500Y178400D01*
X87500D02*X90500D01*
X87000Y177900D02*X87500Y178400D01*
X87000Y175900D02*Y177900D01*
X91000Y175900D02*Y177900D01*
X87000Y180100D02*Y181100D01*
Y180600D02*X91000D01*
X90000Y179600D02*X91000Y180600D01*
X87500Y182300D02*X87000Y182800D01*
X87500Y182300D02*X90500D01*
X91000Y182800D01*
Y183800D01*
X90500Y184300D01*
X87500D02*X90500D01*
X87000Y183800D02*X87500Y184300D01*
X87000Y182800D02*Y183800D01*
X88000Y182300D02*X90000Y184300D01*
X87500Y185500D02*X87000Y186000D01*
X87500Y185500D02*X90500D01*
X91000Y186000D01*
Y187000D01*
X90500Y187500D01*
X87500D02*X90500D01*
X87000Y187000D02*X87500Y187500D01*
X87000Y186000D02*Y187000D01*
X88000Y185500D02*X90000Y187500D01*
M02*
