M48
INCH
T43C0.035
T42C0.020
T41C0.022
T40C0.038
%
T42
X006000Y013950
X006000Y013550
X007050Y003950
X007050Y003500
X002250Y007300
X003150Y007300
X007300Y004700
X005600Y014750
X006000Y014750
X006400Y014750
X006400Y014350
X006000Y014350
X005600Y014350
X006400Y015150
X006000Y015150
X005600Y015150
X005600Y013950
X005600Y013550
X006400Y013950
X006400Y013550
T41
X005400Y007950
X006400Y007950
X005900Y007450
X005400Y017950
X006400Y017950
X005900Y017450
T43
X005950Y011650
X004250Y005450
X003800Y003450
X002046Y008796
X002550Y004750
X004450Y007600
X001750Y005850
X002200Y015200
X002200Y018200
X002850Y016700
X010050Y012750
X009250Y014200
X002275Y013525
T40
X011050Y012550
X011050Y011550
X011050Y010550
X011050Y009550
X011050Y008550
X009050Y010550
X010050Y010550
X011050Y017550
X011050Y016550
X011050Y015550
X011050Y014550
X011050Y020550
X011050Y019550
X011050Y018550
X011050Y013550
X009050Y020550
X010050Y020550
X011050Y007550
X011050Y006550
X011050Y005550
X011050Y004550
X011050Y003550
X011050Y002550
X011050Y001550
X008050Y001550
X009050Y001550
X010050Y001550
X002050Y001550
X003050Y001550
X004050Y001550
X005050Y001550
X006050Y001550
X007050Y001550
X001050Y002550
X001050Y001550
X002050Y010550
X003050Y010550
X006050Y010550
X007050Y010550
X008050Y010550
X001050Y014550
X001050Y013550
X001050Y012550
X001050Y011550
X001050Y010550
X001050Y009550
X001050Y008550
X001050Y007550
X001050Y006550
X001050Y005550
X001050Y004550
X001050Y003550
X004050Y010550
X004050Y020550
X005050Y010550
X002050Y020550
X003050Y020550
X001050Y020550
X001050Y019550
X001050Y018550
X001050Y017550
X001050Y016550
X001050Y015550
X005050Y020550
X006050Y020550
X007050Y020550
X008050Y020550
M30
