G04 start of page 9 for group -4015 idx -4015 *
G04 Title: (unknown), toppaste *
G04 Creator: pcb 20110918 *
G04 CreationDate: Mon Jul 21 20:20:48 2014 UTC *
G04 For: fosse *
G04 Format: Gerber/RS-274X *
G04 PCB-Dimensions: 200000 300000 *
G04 PCB-Coordinate-Origin: lower left *
%MOIN*%
%FSLAX25Y25*%
%LNTOPPASTE*%
%ADD43R,0.0200X0.0200*%
%ADD42R,0.0512X0.0512*%
G54D42*X165414Y192893D02*Y192107D01*
X172500Y192893D02*Y192107D01*
G54D43*X102500Y153000D02*Y146500D01*
X97500Y153000D02*Y146500D01*
X92500Y153000D02*Y146500D01*
X87500Y153000D02*Y146500D01*
Y132500D02*Y126000D01*
X92500Y132500D02*Y126000D01*
X97500Y132500D02*Y126000D01*
X102500Y132500D02*Y126000D01*
G54D42*X111319Y155414D02*X113681D01*
X111319Y143604D02*X113681D01*
X113819Y121155D02*X116181D01*
X113819Y109345D02*X116181D01*
X114607Y101293D02*X115393D01*
X114607Y94207D02*X115393D01*
X113819Y85655D02*X116181D01*
X113819Y73845D02*X116181D01*
G54D43*X102500Y111250D02*Y104750D01*
X97500Y111250D02*Y104750D01*
X92500Y111250D02*Y104750D01*
X87500Y111250D02*Y104750D01*
Y90750D02*Y84250D01*
X92500Y90750D02*Y84250D01*
X97500Y90750D02*Y84250D01*
X102500Y90750D02*Y84250D01*
G54D42*X64595Y122005D02*Y116495D01*
X76405Y122005D02*Y116495D01*
X64595Y80505D02*Y74995D01*
X76405Y80505D02*Y74995D01*
X64595Y142005D02*Y136495D01*
X76405Y142005D02*Y136495D01*
X64595Y100505D02*Y94995D01*
X76405Y100505D02*Y94995D01*
M02*
