M48
INCH
T38C0.035
T37C0.020
T36C0.038
T35C0.022
%
T37
X003400Y003850
X003400Y003500
X005600Y015150
X005600Y014750
X005600Y014350
X005600Y013950
X005600Y013550
X006000Y015150
X006000Y014750
X006000Y014350
X006000Y013950
X006000Y013550
X006050Y004700
X006400Y015150
X006400Y014750
X006400Y014350
X006400Y013950
X006400Y013550
X006700Y003900
X006700Y003450
T35
X005700Y017900
X005700Y007900
X006700Y016900
X006700Y006900
X007700Y017900
X007700Y007900
T38
X002200Y018200
X002200Y015200
X002275Y013525
X002850Y016700
X005950Y011650
X009250Y014200
X010050Y012750
T36
X001050Y020550
X001050Y019550
X001050Y018550
X001050Y017550
X001050Y016550
X001050Y015550
X001050Y014550
X001050Y013550
X001050Y012550
X001050Y011550
X001050Y010550
X001050Y009550
X001050Y008550
X001050Y007550
X001050Y006550
X001050Y005550
X001050Y004550
X001050Y003550
X001050Y002550
X001050Y001550
X002050Y020550
X002050Y010550
X002050Y001550
X003050Y020550
X003050Y010550
X003050Y001550
X004050Y020550
X004050Y010550
X004050Y001550
X005050Y020550
X005050Y010550
X005050Y001550
X006050Y020550
X006050Y010550
X006050Y001550
X007050Y020550
X007050Y010550
X007050Y001550
X008050Y020550
X008050Y010550
X008050Y001550
X009050Y020550
X009050Y010550
X009050Y001550
X010050Y020550
X010050Y010550
X010050Y001550
X011050Y020550
X011050Y019550
X011050Y018550
X011050Y017550
X011050Y016550
X011050Y015550
X011050Y014550
X011050Y013550
X011050Y012550
X011050Y011550
X011050Y010550
X011050Y009550
X011050Y008550
X011050Y007550
X011050Y006550
X011050Y005550
X011050Y004550
X011050Y003550
X011050Y002550
X011050Y001550
M30
