G04 start of page 7 for group -4062 idx -4062 *
G04 Title: (unknown), soldermask *
G04 Creator: pcb-rnd 1.0.10 *
G04 CreationDate: Sat 16 Jul 2016 12:11:23 AM GMT UTC *
G04 For: fosse *
G04 Format: Gerber/RS-274X *
G04 PCB-Dimensions: 125000 215000 *
G04 PCB-Coordinate-Origin: lower left *
%MOIN*%
%FSLAX25Y25*%
%LNBOTTOMMASK*%
%ADD56R,0.0572X0.0572*%
%ADD55R,0.1280X0.1280*%
%ADD54R,0.0620X0.0620*%
%ADD53C,0.0560*%
%ADD52C,0.0001*%
%ADD51C,0.0660*%
G54D51*X110500Y125500D03*
Y115500D03*
Y105500D03*
Y95500D03*
Y85500D03*
X90500Y105500D03*
X100500D03*
X110500Y175500D03*
Y165500D03*
Y155500D03*
Y145500D03*
G54D52*G36*
X107200Y208800D02*Y202200D01*
X113800D01*
Y208800D01*
X107200D01*
G37*
G54D51*X110500Y195500D03*
Y185500D03*
Y135500D03*
X90500Y205500D03*
X100500D03*
X110500Y75500D03*
Y65500D03*
Y55500D03*
Y45500D03*
Y35500D03*
Y25500D03*
Y15500D03*
X80500D03*
X90500D03*
X100500D03*
G54D52*G36*
X17200Y18800D02*Y12200D01*
X23800D01*
Y18800D01*
X17200D01*
G37*
G54D51*X30500Y15500D03*
X40500D03*
X50500D03*
X60500D03*
X70500D03*
X10500Y25500D03*
Y15500D03*
G54D52*G36*
X17200Y108800D02*Y102200D01*
X23800D01*
Y108800D01*
X17200D01*
G37*
G54D51*X30500Y105500D03*
X60500D03*
X70500D03*
X80500D03*
G54D53*X54000Y79500D03*
X64000D03*
X59000Y74500D03*
G54D51*X10500Y145500D03*
Y135500D03*
Y125500D03*
Y115500D03*
Y105500D03*
Y95500D03*
Y85500D03*
Y75500D03*
Y65500D03*
Y55500D03*
Y45500D03*
Y35500D03*
X40500Y105500D03*
Y205500D03*
X50500Y105500D03*
G54D52*G36*
X17200Y208800D02*Y202200D01*
X23800D01*
Y208800D01*
X17200D01*
G37*
G54D51*X30500Y205500D03*
G54D52*G36*
X7200Y208800D02*Y202200D01*
X13800D01*
Y208800D01*
X7200D01*
G37*
G54D51*X10500Y195500D03*
Y185500D03*
Y175500D03*
Y165500D03*
Y155500D03*
X50500Y205500D03*
X60500D03*
X70500D03*
X80500D03*
G54D53*X54000Y179500D03*
X64000D03*
X59000Y174500D03*
G54D54*X32300Y134000D02*X38900D01*
X32300Y143000D02*X38900D01*
X32300Y152100D02*X38900D01*
G54D55*X60000Y147500D02*Y138500D01*
G54D56*X24957Y31393D02*Y30607D01*
X32043Y31393D02*Y30607D01*
X20457Y96893D02*Y96107D01*
X27543Y96893D02*Y96107D01*
M02*
