G04 start of page 10 for group -3984 idx -3984 *
G04 Title: (unknown), fab *
G04 Creator: pcb 20110918 *
G04 CreationDate: Mon Jul 21 20:20:48 2014 UTC *
G04 For: fosse *
G04 Format: Gerber/RS-274X *
G04 PCB-Dimensions: 200000 300000 *
G04 PCB-Coordinate-Origin: lower left *
%MOIN*%
%FSLAX25Y25*%
%LNFAB*%
%ADD46C,0.0100*%
%ADD45C,0.0060*%
%ADD44R,0.0080X0.0080*%
G54D44*X140500Y179350D02*Y176150D01*
X138900Y177750D02*X142100D01*
X140500Y169350D02*Y166150D01*
X138900Y167750D02*X142100D01*
X140500Y159350D02*Y156150D01*
X138900Y157750D02*X142100D01*
X140500Y149350D02*Y146150D01*
X138900Y147750D02*X142100D01*
X140500Y139350D02*Y136150D01*
X138900Y137750D02*X142100D01*
X140500Y129350D02*Y126150D01*
X138900Y127750D02*X142100D01*
X140500Y119350D02*Y116150D01*
X138900Y117750D02*X142100D01*
X140500Y109350D02*Y106150D01*
X138900Y107750D02*X142100D01*
X140500Y99350D02*Y96150D01*
X138900Y97750D02*X142100D01*
X140500Y89350D02*Y86150D01*
X138900Y87750D02*X142100D01*
X140500Y79350D02*Y76150D01*
X138900Y77750D02*X142100D01*
X140500Y69350D02*Y66150D01*
X138900Y67750D02*X142100D01*
X50500Y179350D02*Y176150D01*
X48900Y177750D02*X52100D01*
X50500Y169350D02*Y166150D01*
X48900Y167750D02*X52100D01*
X50500Y159350D02*Y156150D01*
X48900Y157750D02*X52100D01*
X50500Y149350D02*Y146150D01*
X48900Y147750D02*X52100D01*
X50500Y139350D02*Y136150D01*
X48900Y137750D02*X52100D01*
X50500Y129350D02*Y126150D01*
X48900Y127750D02*X52100D01*
X50500Y119350D02*Y116150D01*
X48900Y117750D02*X52100D01*
X50500Y109350D02*Y106150D01*
X48900Y107750D02*X52100D01*
X50500Y99350D02*Y96150D01*
X48900Y97750D02*X52100D01*
X50500Y89350D02*Y86150D01*
X48900Y87750D02*X52100D01*
X50500Y79350D02*Y76150D01*
X48900Y77750D02*X52100D01*
X50500Y69350D02*Y66150D01*
X48900Y67750D02*X52100D01*
X60500Y199600D02*Y196400D01*
X58900Y198000D02*X62100D01*
X70500Y199600D02*Y196400D01*
X68900Y198000D02*X72100D01*
X80500Y199600D02*Y196400D01*
X78900Y198000D02*X82100D01*
X90500Y199600D02*Y196400D01*
X88900Y198000D02*X92100D01*
X100500Y199600D02*Y196400D01*
X98900Y198000D02*X102100D01*
X110500Y199600D02*Y196400D01*
X108900Y198000D02*X112100D01*
X120500Y199600D02*Y196400D01*
X118900Y198000D02*X122100D01*
X130500Y199600D02*Y196400D01*
X128900Y198000D02*X132100D01*
X70500Y59350D02*Y56150D01*
X68900Y57750D02*X72100D01*
X80500Y59350D02*Y56150D01*
X78900Y57750D02*X82100D01*
X90500Y59350D02*Y56150D01*
X88900Y57750D02*X92100D01*
X100500Y59350D02*Y56150D01*
X98900Y57750D02*X102100D01*
X110500Y59350D02*Y56150D01*
X108900Y57750D02*X112100D01*
X120500Y59350D02*Y56150D01*
X118900Y57750D02*X122100D01*
X15000Y342850D02*Y339650D01*
X13400Y341250D02*X16600D01*
G54D45*X135000Y343500D02*Y342750D01*
X136500Y341250D01*
X138000Y342750D01*
Y343500D02*Y342750D01*
X136500Y341250D02*Y337500D01*
X139800Y340500D02*X142050D01*
X139800Y337500D02*X142800D01*
X139800Y343500D02*Y337500D01*
Y343500D02*X142800D01*
X147600D02*X148350Y342750D01*
X145350Y343500D02*X147600D01*
X144600Y342750D02*X145350Y343500D01*
X144600Y342750D02*Y341250D01*
X145350Y340500D01*
X147600D01*
X148350Y339750D01*
Y338250D01*
X147600Y337500D02*X148350Y338250D01*
X145350Y337500D02*X147600D01*
X144600Y338250D02*X145350Y337500D01*
X98000Y342750D02*X98750Y343500D01*
X100250D01*
X101000Y342750D01*
Y338250D01*
X100250Y337500D02*X101000Y338250D01*
X98750Y337500D02*X100250D01*
X98000Y338250D02*X98750Y337500D01*
Y340500D02*X101000D01*
X102800Y338250D02*X103550Y337500D01*
X102800Y339750D02*Y338250D01*
Y339750D02*X103550Y340500D01*
X105050D01*
X105800Y339750D01*
Y338250D01*
X105050Y337500D02*X105800Y338250D01*
X103550Y337500D02*X105050D01*
X102800Y341250D02*X103550Y340500D01*
X102800Y342750D02*Y341250D01*
Y342750D02*X103550Y343500D01*
X105050D01*
X105800Y342750D01*
Y341250D01*
X105050Y340500D02*X105800Y341250D01*
X45000Y338250D02*X45750Y337500D01*
X45000Y342750D02*Y338250D01*
Y342750D02*X45750Y343500D01*
X47250D01*
X48000Y342750D01*
Y338250D01*
X47250Y337500D02*X48000Y338250D01*
X45750Y337500D02*X47250D01*
X45000Y339000D02*X48000Y342000D01*
X49800Y337500D02*X50550D01*
X52350Y338250D02*X53100Y337500D01*
X52350Y342750D02*Y338250D01*
Y342750D02*X53100Y343500D01*
X54600D01*
X55350Y342750D01*
Y338250D01*
X54600Y337500D02*X55350Y338250D01*
X53100Y337500D02*X54600D01*
X52350Y339000D02*X55350Y342000D01*
X57150Y342750D02*X57900Y343500D01*
X59400D01*
X60150Y342750D01*
Y338250D01*
X59400Y337500D02*X60150Y338250D01*
X57900Y337500D02*X59400D01*
X57150Y338250D02*X57900Y337500D01*
Y340500D02*X60150D01*
X61950Y338250D02*X62700Y337500D01*
X61950Y339750D02*Y338250D01*
Y339750D02*X62700Y340500D01*
X64200D01*
X64950Y339750D01*
Y338250D01*
X64200Y337500D02*X64950Y338250D01*
X62700Y337500D02*X64200D01*
X61950Y341250D02*X62700Y340500D01*
X61950Y342750D02*Y341250D01*
Y342750D02*X62700Y343500D01*
X64200D01*
X64950Y342750D01*
Y341250D01*
X64200Y340500D02*X64950Y341250D01*
X105000Y168500D02*Y166900D01*
Y168500D02*X106387Y169300D01*
X105000Y168500D02*X103613Y169300D01*
X85000Y168500D02*Y166900D01*
Y168500D02*X86387Y169300D01*
X85000Y168500D02*X83613Y169300D01*
X95000Y178500D02*Y176900D01*
Y178500D02*X96387Y179300D01*
X95000Y178500D02*X93613Y179300D01*
X15000Y356250D02*Y354650D01*
Y356250D02*X16387Y357050D01*
X15000Y356250D02*X13613Y357050D01*
X135000Y358500D02*Y357750D01*
X136500Y356250D01*
X138000Y357750D01*
Y358500D02*Y357750D01*
X136500Y356250D02*Y352500D01*
X139800Y355500D02*X142050D01*
X139800Y352500D02*X142800D01*
X139800Y358500D02*Y352500D01*
Y358500D02*X142800D01*
X147600D02*X148350Y357750D01*
X145350Y358500D02*X147600D01*
X144600Y357750D02*X145350Y358500D01*
X144600Y357750D02*Y356250D01*
X145350Y355500D01*
X147600D01*
X148350Y354750D01*
Y353250D01*
X147600Y352500D02*X148350Y353250D01*
X145350Y352500D02*X147600D01*
X144600Y353250D02*X145350Y352500D01*
X98000Y357750D02*X98750Y358500D01*
X100250D01*
X101000Y357750D01*
Y353250D01*
X100250Y352500D02*X101000Y353250D01*
X98750Y352500D02*X100250D01*
X98000Y353250D02*X98750Y352500D01*
Y355500D02*X101000D01*
X45000Y353250D02*X45750Y352500D01*
X45000Y357750D02*Y353250D01*
Y357750D02*X45750Y358500D01*
X47250D01*
X48000Y357750D01*
Y353250D01*
X47250Y352500D02*X48000Y353250D01*
X45750Y352500D02*X47250D01*
X45000Y354000D02*X48000Y357000D01*
X49800Y352500D02*X50550D01*
X52350Y353250D02*X53100Y352500D01*
X52350Y357750D02*Y353250D01*
Y357750D02*X53100Y358500D01*
X54600D01*
X55350Y357750D01*
Y353250D01*
X54600Y352500D02*X55350Y353250D01*
X53100Y352500D02*X54600D01*
X52350Y354000D02*X55350Y357000D01*
X57150Y357750D02*X57900Y358500D01*
X60150D01*
X60900Y357750D01*
Y356250D01*
X57150Y352500D02*X60900Y356250D01*
X57150Y352500D02*X60900D01*
X62700Y357750D02*X63450Y358500D01*
X64950D01*
X65700Y357750D01*
Y353250D01*
X64950Y352500D02*X65700Y353250D01*
X63450Y352500D02*X64950D01*
X62700Y353250D02*X63450Y352500D01*
Y355500D02*X65700D01*
X3000Y373500D02*X3750Y372750D01*
X750Y373500D02*X3000D01*
X0Y372750D02*X750Y373500D01*
X0Y372750D02*Y371250D01*
X750Y370500D01*
X3000D01*
X3750Y369750D01*
Y368250D01*
X3000Y367500D02*X3750Y368250D01*
X750Y367500D02*X3000D01*
X0Y368250D02*X750Y367500D01*
X5550Y370500D02*Y368250D01*
X6300Y367500D01*
X8550Y370500D02*Y366000D01*
X7800Y365250D02*X8550Y366000D01*
X6300Y365250D02*X7800D01*
X5550Y366000D02*X6300Y365250D01*
Y367500D02*X7800D01*
X8550Y368250D01*
X11100Y369750D02*Y367500D01*
Y369750D02*X11850Y370500D01*
X12600D01*
X13350Y369750D01*
Y367500D01*
Y369750D02*X14100Y370500D01*
X14850D01*
X15600Y369750D01*
Y367500D01*
X10350Y370500D02*X11100Y369750D01*
X17400Y373500D02*Y367500D01*
Y368250D02*X18150Y367500D01*
X19650D01*
X20400Y368250D01*
Y369750D02*Y368250D01*
X19650Y370500D02*X20400Y369750D01*
X18150Y370500D02*X19650D01*
X17400Y369750D02*X18150Y370500D01*
X22200Y369750D02*Y368250D01*
Y369750D02*X22950Y370500D01*
X24450D01*
X25200Y369750D01*
Y368250D01*
X24450Y367500D02*X25200Y368250D01*
X22950Y367500D02*X24450D01*
X22200Y368250D02*X22950Y367500D01*
X27000Y373500D02*Y368250D01*
X27750Y367500D01*
X0Y364250D02*X29250D01*
X41750Y373500D02*Y367500D01*
X44000Y373500D02*X44750Y372750D01*
Y368250D01*
X44000Y367500D02*X44750Y368250D01*
X41000Y367500D02*X44000D01*
X41000Y373500D02*X44000D01*
X46550Y372000D02*Y371250D01*
Y369750D02*Y367500D01*
X50300Y370500D02*X51050Y369750D01*
X48800Y370500D02*X50300D01*
X48050Y369750D02*X48800Y370500D01*
X48050Y369750D02*Y368250D01*
X48800Y367500D01*
X51050Y370500D02*Y368250D01*
X51800Y367500D01*
X48800D02*X50300D01*
X51050Y368250D01*
X54350Y369750D02*Y367500D01*
Y369750D02*X55100Y370500D01*
X55850D01*
X56600Y369750D01*
Y367500D01*
Y369750D02*X57350Y370500D01*
X58100D01*
X58850Y369750D01*
Y367500D01*
X53600Y370500D02*X54350Y369750D01*
X60650Y367500D02*X61400D01*
X65900Y368250D02*X66650Y367500D01*
X65900Y372750D02*X66650Y373500D01*
X65900Y372750D02*Y368250D01*
X68450Y373500D02*X69950D01*
X69200D02*Y367500D01*
X68450D02*X69950D01*
X72500Y369750D02*Y367500D01*
Y369750D02*X73250Y370500D01*
X74000D01*
X74750Y369750D01*
Y367500D01*
X71750Y370500D02*X72500Y369750D01*
X77300Y370500D02*X79550D01*
X76550Y369750D02*X77300Y370500D01*
X76550Y369750D02*Y368250D01*
X77300Y367500D01*
X79550D01*
X81350Y373500D02*Y367500D01*
Y369750D02*X82100Y370500D01*
X83600D01*
X84350Y369750D01*
Y367500D01*
X86150Y373500D02*X86900Y372750D01*
Y368250D01*
X86150Y367500D02*X86900Y368250D01*
X41000Y364250D02*X88700D01*
X95750Y367500D02*X98000D01*
X95000Y368250D02*X95750Y367500D01*
X95000Y372750D02*Y368250D01*
Y372750D02*X95750Y373500D01*
X98000D01*
X99800Y369750D02*Y368250D01*
Y369750D02*X100550Y370500D01*
X102050D01*
X102800Y369750D01*
Y368250D01*
X102050Y367500D02*X102800Y368250D01*
X100550Y367500D02*X102050D01*
X99800Y368250D02*X100550Y367500D01*
X104600Y370500D02*Y368250D01*
X105350Y367500D01*
X106850D01*
X107600Y368250D01*
Y370500D02*Y368250D01*
X110150Y369750D02*Y367500D01*
Y369750D02*X110900Y370500D01*
X111650D01*
X112400Y369750D01*
Y367500D01*
X109400Y370500D02*X110150Y369750D01*
X114950Y373500D02*Y368250D01*
X115700Y367500D01*
X114200Y371250D02*X115700D01*
X95000Y364250D02*X117200D01*
X130750Y373500D02*Y367500D01*
X130000Y373500D02*X133000D01*
X133750Y372750D01*
Y371250D01*
X133000Y370500D02*X133750Y371250D01*
X130750Y370500D02*X133000D01*
X135550Y373500D02*Y368250D01*
X136300Y367500D01*
X140050Y370500D02*X140800Y369750D01*
X138550Y370500D02*X140050D01*
X137800Y369750D02*X138550Y370500D01*
X137800Y369750D02*Y368250D01*
X138550Y367500D01*
X140800Y370500D02*Y368250D01*
X141550Y367500D01*
X138550D02*X140050D01*
X140800Y368250D01*
X144100Y373500D02*Y368250D01*
X144850Y367500D01*
X143350Y371250D02*X144850D01*
X147100Y367500D02*X149350D01*
X146350Y368250D02*X147100Y367500D01*
X146350Y369750D02*Y368250D01*
Y369750D02*X147100Y370500D01*
X148600D01*
X149350Y369750D01*
X146350Y369000D02*X149350D01*
Y369750D02*Y369000D01*
X154150Y373500D02*Y367500D01*
X153400D02*X154150Y368250D01*
X151900Y367500D02*X153400D01*
X151150Y368250D02*X151900Y367500D01*
X151150Y369750D02*Y368250D01*
Y369750D02*X151900Y370500D01*
X153400D01*
X154150Y369750D01*
X157450Y370500D02*Y369750D01*
Y368250D02*Y367500D01*
X155950Y372750D02*Y372000D01*
Y372750D02*X156700Y373500D01*
X158200D01*
X158950Y372750D01*
Y372000D01*
X157450Y370500D02*X158950Y372000D01*
X130000Y364250D02*X160750D01*
X0Y388500D02*X3000D01*
X1500D02*Y382500D01*
X4800Y388500D02*Y382500D01*
Y384750D02*X5550Y385500D01*
X7050D01*
X7800Y384750D01*
Y382500D01*
X10350D02*X12600D01*
X9600Y383250D02*X10350Y382500D01*
X9600Y384750D02*Y383250D01*
Y384750D02*X10350Y385500D01*
X11850D01*
X12600Y384750D01*
X9600Y384000D02*X12600D01*
Y384750D02*Y384000D01*
X15150Y384750D02*Y382500D01*
Y384750D02*X15900Y385500D01*
X17400D01*
X14400D02*X15150Y384750D01*
X19950Y382500D02*X22200D01*
X19200Y383250D02*X19950Y382500D01*
X19200Y384750D02*Y383250D01*
Y384750D02*X19950Y385500D01*
X21450D01*
X22200Y384750D01*
X19200Y384000D02*X22200D01*
Y384750D02*Y384000D01*
X28950Y385500D02*X29700Y384750D01*
X27450Y385500D02*X28950D01*
X26700Y384750D02*X27450Y385500D01*
X26700Y384750D02*Y383250D01*
X27450Y382500D01*
X29700Y385500D02*Y383250D01*
X30450Y382500D01*
X27450D02*X28950D01*
X29700Y383250D01*
X33000Y384750D02*Y382500D01*
Y384750D02*X33750Y385500D01*
X35250D01*
X32250D02*X33000Y384750D01*
X37800Y382500D02*X40050D01*
X37050Y383250D02*X37800Y382500D01*
X37050Y384750D02*Y383250D01*
Y384750D02*X37800Y385500D01*
X39300D01*
X40050Y384750D01*
X37050Y384000D02*X40050D01*
Y384750D02*Y384000D01*
X44550Y387750D02*X45300Y388500D01*
X47550D01*
X48300Y387750D01*
Y386250D01*
X44550Y382500D02*X48300Y386250D01*
X44550Y382500D02*X48300D01*
X55800Y388500D02*Y382500D01*
X55050D02*X55800Y383250D01*
X53550Y382500D02*X55050D01*
X52800Y383250D02*X53550Y382500D01*
X52800Y384750D02*Y383250D01*
Y384750D02*X53550Y385500D01*
X55050D01*
X55800Y384750D01*
X57600Y387000D02*Y386250D01*
Y384750D02*Y382500D01*
X59850Y387750D02*Y382500D01*
Y387750D02*X60600Y388500D01*
X61350D01*
X59100Y385500D02*X60600D01*
X63600Y387750D02*Y382500D01*
Y387750D02*X64350Y388500D01*
X65100D01*
X62850Y385500D02*X64350D01*
X67350Y382500D02*X69600D01*
X66600Y383250D02*X67350Y382500D01*
X66600Y384750D02*Y383250D01*
Y384750D02*X67350Y385500D01*
X68850D01*
X69600Y384750D01*
X66600Y384000D02*X69600D01*
Y384750D02*Y384000D01*
X72150Y384750D02*Y382500D01*
Y384750D02*X72900Y385500D01*
X74400D01*
X71400D02*X72150Y384750D01*
X76950Y382500D02*X79200D01*
X76200Y383250D02*X76950Y382500D01*
X76200Y384750D02*Y383250D01*
Y384750D02*X76950Y385500D01*
X78450D01*
X79200Y384750D01*
X76200Y384000D02*X79200D01*
Y384750D02*Y384000D01*
X81750Y384750D02*Y382500D01*
Y384750D02*X82500Y385500D01*
X83250D01*
X84000Y384750D01*
Y382500D01*
X81000Y385500D02*X81750Y384750D01*
X86550Y388500D02*Y383250D01*
X87300Y382500D01*
X85800Y386250D02*X87300D01*
X94500Y388500D02*Y382500D01*
X93750D02*X94500Y383250D01*
X92250Y382500D02*X93750D01*
X91500Y383250D02*X92250Y382500D01*
X91500Y384750D02*Y383250D01*
Y384750D02*X92250Y385500D01*
X93750D01*
X94500Y384750D01*
X97050D02*Y382500D01*
Y384750D02*X97800Y385500D01*
X99300D01*
X96300D02*X97050Y384750D01*
X101100Y387000D02*Y386250D01*
Y384750D02*Y382500D01*
X102600Y388500D02*Y383250D01*
X103350Y382500D01*
X104850Y388500D02*Y383250D01*
X105600Y382500D01*
X110550D02*X112800D01*
X113550Y383250D01*
X112800Y384000D02*X113550Y383250D01*
X110550Y384000D02*X112800D01*
X109800Y384750D02*X110550Y384000D01*
X109800Y384750D02*X110550Y385500D01*
X112800D01*
X113550Y384750D01*
X109800Y383250D02*X110550Y382500D01*
X115350Y387000D02*Y386250D01*
Y384750D02*Y382500D01*
X116850Y385500D02*X119850D01*
X116850Y382500D02*X119850Y385500D01*
X116850Y382500D02*X119850D01*
X122400D02*X124650D01*
X121650Y383250D02*X122400Y382500D01*
X121650Y384750D02*Y383250D01*
Y384750D02*X122400Y385500D01*
X123900D01*
X124650Y384750D01*
X121650Y384000D02*X124650D01*
Y384750D02*Y384000D01*
X127200Y382500D02*X129450D01*
X130200Y383250D01*
X129450Y384000D02*X130200Y383250D01*
X127200Y384000D02*X129450D01*
X126450Y384750D02*X127200Y384000D01*
X126450Y384750D02*X127200Y385500D01*
X129450D01*
X130200Y384750D01*
X126450Y383250D02*X127200Y382500D01*
X134700Y385500D02*Y383250D01*
X135450Y382500D01*
X136950D01*
X137700Y383250D01*
Y385500D02*Y383250D01*
X140250Y382500D02*X142500D01*
X143250Y383250D01*
X142500Y384000D02*X143250Y383250D01*
X140250Y384000D02*X142500D01*
X139500Y384750D02*X140250Y384000D01*
X139500Y384750D02*X140250Y385500D01*
X142500D01*
X143250Y384750D01*
X139500Y383250D02*X140250Y382500D01*
X145800D02*X148050D01*
X145050Y383250D02*X145800Y382500D01*
X145050Y384750D02*Y383250D01*
Y384750D02*X145800Y385500D01*
X147300D01*
X148050Y384750D01*
X145050Y384000D02*X148050D01*
Y384750D02*Y384000D01*
X152850Y388500D02*Y382500D01*
X152100D02*X152850Y383250D01*
X150600Y382500D02*X152100D01*
X149850Y383250D02*X150600Y382500D01*
X149850Y384750D02*Y383250D01*
Y384750D02*X150600Y385500D01*
X152100D01*
X152850Y384750D01*
X157350Y387000D02*Y386250D01*
Y384750D02*Y382500D01*
X159600Y384750D02*Y382500D01*
Y384750D02*X160350Y385500D01*
X161100D01*
X161850Y384750D01*
Y382500D01*
X158850Y385500D02*X159600Y384750D01*
X167100Y388500D02*Y383250D01*
X167850Y382500D01*
X166350Y386250D02*X167850D01*
X169350Y388500D02*Y382500D01*
Y384750D02*X170100Y385500D01*
X171600D01*
X172350Y384750D01*
Y382500D01*
X174150Y387000D02*Y386250D01*
Y384750D02*Y382500D01*
X176400D02*X178650D01*
X179400Y383250D01*
X178650Y384000D02*X179400Y383250D01*
X176400Y384000D02*X178650D01*
X175650Y384750D02*X176400Y384000D01*
X175650Y384750D02*X176400Y385500D01*
X178650D01*
X179400Y384750D01*
X175650Y383250D02*X176400Y382500D01*
X183900Y388500D02*Y383250D01*
X184650Y382500D01*
X188400Y385500D02*X189150Y384750D01*
X186900Y385500D02*X188400D01*
X186150Y384750D02*X186900Y385500D01*
X186150Y384750D02*Y383250D01*
X186900Y382500D01*
X189150Y385500D02*Y383250D01*
X189900Y382500D01*
X186900D02*X188400D01*
X189150Y383250D01*
X191700Y385500D02*Y383250D01*
X192450Y382500D01*
X194700Y385500D02*Y381000D01*
X193950Y380250D02*X194700Y381000D01*
X192450Y380250D02*X193950D01*
X191700Y381000D02*X192450Y380250D01*
Y382500D02*X193950D01*
X194700Y383250D01*
X196500Y384750D02*Y383250D01*
Y384750D02*X197250Y385500D01*
X198750D01*
X199500Y384750D01*
Y383250D01*
X198750Y382500D02*X199500Y383250D01*
X197250Y382500D02*X198750D01*
X196500Y383250D02*X197250Y382500D01*
X201300Y385500D02*Y383250D01*
X202050Y382500D01*
X203550D01*
X204300Y383250D01*
Y385500D02*Y383250D01*
X206850Y388500D02*Y383250D01*
X207600Y382500D01*
X206100Y386250D02*X207600D01*
X209100Y381000D02*X210600Y382500D01*
X215100Y385500D02*X218100Y388500D01*
X215100Y385500D02*X218850D01*
X218100Y388500D02*Y382500D01*
X221400D02*X222900D01*
X222150Y388500D02*Y382500D01*
X220650Y387000D02*X222150Y388500D01*
X227400D02*Y382500D01*
Y384750D02*X228150Y385500D01*
X229650D01*
X230400Y384750D01*
Y382500D01*
X232200Y384750D02*Y383250D01*
Y384750D02*X232950Y385500D01*
X234450D01*
X235200Y384750D01*
Y383250D01*
X234450Y382500D02*X235200Y383250D01*
X232950Y382500D02*X234450D01*
X232200Y383250D02*X232950Y382500D01*
X237000Y388500D02*Y383250D01*
X237750Y382500D01*
X240000D02*X242250D01*
X239250Y383250D02*X240000Y382500D01*
X239250Y384750D02*Y383250D01*
Y384750D02*X240000Y385500D01*
X241500D01*
X242250Y384750D01*
X239250Y384000D02*X242250D01*
Y384750D02*Y384000D01*
X244800Y382500D02*X247050D01*
X247800Y383250D01*
X247050Y384000D02*X247800Y383250D01*
X244800Y384000D02*X247050D01*
X244050Y384750D02*X244800Y384000D01*
X244050Y384750D02*X244800Y385500D01*
X247050D01*
X247800Y384750D01*
X244050Y383250D02*X244800Y382500D01*
X253050Y388500D02*Y383250D01*
X253800Y382500D01*
X252300Y386250D02*X253800D01*
X255300Y384750D02*Y383250D01*
Y384750D02*X256050Y385500D01*
X257550D01*
X258300Y384750D01*
Y383250D01*
X257550Y382500D02*X258300Y383250D01*
X256050Y382500D02*X257550D01*
X255300Y383250D02*X256050Y382500D01*
X260850Y388500D02*Y383250D01*
X261600Y382500D01*
X260100Y386250D02*X261600D01*
X265350Y385500D02*X266100Y384750D01*
X263850Y385500D02*X265350D01*
X263100Y384750D02*X263850Y385500D01*
X263100Y384750D02*Y383250D01*
X263850Y382500D01*
X266100Y385500D02*Y383250D01*
X266850Y382500D01*
X263850D02*X265350D01*
X266100Y383250D01*
X268650Y388500D02*Y383250D01*
X269400Y382500D01*
G54D46*X0Y300000D02*X200000D01*
X0D02*Y0D01*
X200000Y300000D02*Y0D01*
X0D02*X200000D01*
G54D45*Y313500D02*Y307500D01*
Y313500D02*X202250Y311250D01*
X204500Y313500D01*
Y307500D01*
X208550Y310500D02*X209300Y309750D01*
X207050Y310500D02*X208550D01*
X206300Y309750D02*X207050Y310500D01*
X206300Y309750D02*Y308250D01*
X207050Y307500D01*
X209300Y310500D02*Y308250D01*
X210050Y307500D01*
X207050D02*X208550D01*
X209300Y308250D01*
X211850Y310500D02*X214850Y307500D01*
X211850D02*X214850Y310500D01*
X216650Y312000D02*Y311250D01*
Y309750D02*Y307500D01*
X218900Y309750D02*Y307500D01*
Y309750D02*X219650Y310500D01*
X220400D01*
X221150Y309750D01*
Y307500D01*
Y309750D02*X221900Y310500D01*
X222650D01*
X223400Y309750D01*
Y307500D01*
X218150Y310500D02*X218900Y309750D01*
X225200Y310500D02*Y308250D01*
X225950Y307500D01*
X227450D01*
X228200Y308250D01*
Y310500D02*Y308250D01*
X230750Y309750D02*Y307500D01*
Y309750D02*X231500Y310500D01*
X232250D01*
X233000Y309750D01*
Y307500D01*
Y309750D02*X233750Y310500D01*
X234500D01*
X235250Y309750D01*
Y307500D01*
X230000Y310500D02*X230750Y309750D01*
X240500Y313500D02*Y307500D01*
X242750Y313500D02*X243500Y312750D01*
Y308250D01*
X242750Y307500D02*X243500Y308250D01*
X239750Y307500D02*X242750D01*
X239750Y313500D02*X242750D01*
X245300Y312000D02*Y311250D01*
Y309750D02*Y307500D01*
X247550Y309750D02*Y307500D01*
Y309750D02*X248300Y310500D01*
X249050D01*
X249800Y309750D01*
Y307500D01*
Y309750D02*X250550Y310500D01*
X251300D01*
X252050Y309750D01*
Y307500D01*
X246800Y310500D02*X247550Y309750D01*
X254600Y307500D02*X256850D01*
X253850Y308250D02*X254600Y307500D01*
X253850Y309750D02*Y308250D01*
Y309750D02*X254600Y310500D01*
X256100D01*
X256850Y309750D01*
X253850Y309000D02*X256850D01*
Y309750D02*Y309000D01*
X259400Y309750D02*Y307500D01*
Y309750D02*X260150Y310500D01*
X260900D01*
X261650Y309750D01*
Y307500D01*
X258650Y310500D02*X259400Y309750D01*
X264200Y307500D02*X266450D01*
X267200Y308250D01*
X266450Y309000D02*X267200Y308250D01*
X264200Y309000D02*X266450D01*
X263450Y309750D02*X264200Y309000D01*
X263450Y309750D02*X264200Y310500D01*
X266450D01*
X267200Y309750D01*
X263450Y308250D02*X264200Y307500D01*
X269000Y312000D02*Y311250D01*
Y309750D02*Y307500D01*
X270500Y309750D02*Y308250D01*
Y309750D02*X271250Y310500D01*
X272750D01*
X273500Y309750D01*
Y308250D01*
X272750Y307500D02*X273500Y308250D01*
X271250Y307500D02*X272750D01*
X270500Y308250D02*X271250Y307500D01*
X276050Y309750D02*Y307500D01*
Y309750D02*X276800Y310500D01*
X277550D01*
X278300Y309750D01*
Y307500D01*
X275300Y310500D02*X276050Y309750D01*
X280850Y307500D02*X283100D01*
X283850Y308250D01*
X283100Y309000D02*X283850Y308250D01*
X280850Y309000D02*X283100D01*
X280100Y309750D02*X280850Y309000D01*
X280100Y309750D02*X280850Y310500D01*
X283100D01*
X283850Y309750D01*
X280100Y308250D02*X280850Y307500D01*
X285650Y311250D02*X286400D01*
X285650Y309750D02*X286400D01*
X290900Y312750D02*X291650Y313500D01*
X293900D01*
X294650Y312750D01*
Y311250D01*
X290900Y307500D02*X294650Y311250D01*
X290900Y307500D02*X294650D01*
X296450Y308250D02*X297200Y307500D01*
X296450Y312750D02*Y308250D01*
Y312750D02*X297200Y313500D01*
X298700D01*
X299450Y312750D01*
Y308250D01*
X298700Y307500D02*X299450Y308250D01*
X297200Y307500D02*X298700D01*
X296450Y309000D02*X299450Y312000D01*
X301250Y308250D02*X302000Y307500D01*
X301250Y312750D02*Y308250D01*
Y312750D02*X302000Y313500D01*
X303500D01*
X304250Y312750D01*
Y308250D01*
X303500Y307500D02*X304250Y308250D01*
X302000Y307500D02*X303500D01*
X301250Y309000D02*X304250Y312000D01*
X306050Y308250D02*X306800Y307500D01*
X306050Y312750D02*Y308250D01*
Y312750D02*X306800Y313500D01*
X308300D01*
X309050Y312750D01*
Y308250D01*
X308300Y307500D02*X309050Y308250D01*
X306800Y307500D02*X308300D01*
X306050Y309000D02*X309050Y312000D01*
X310850Y307500D02*X311600D01*
X313400Y308250D02*X314150Y307500D01*
X313400Y312750D02*Y308250D01*
Y312750D02*X314150Y313500D01*
X315650D01*
X316400Y312750D01*
Y308250D01*
X315650Y307500D02*X316400Y308250D01*
X314150Y307500D02*X315650D01*
X313400Y309000D02*X316400Y312000D01*
X318200Y308250D02*X318950Y307500D01*
X318200Y312750D02*Y308250D01*
Y312750D02*X318950Y313500D01*
X320450D01*
X321200Y312750D01*
Y308250D01*
X320450Y307500D02*X321200Y308250D01*
X318950Y307500D02*X320450D01*
X318200Y309000D02*X321200Y312000D01*
X323000Y308250D02*X323750Y307500D01*
X323000Y312750D02*Y308250D01*
Y312750D02*X323750Y313500D01*
X325250D01*
X326000Y312750D01*
Y308250D01*
X325250Y307500D02*X326000Y308250D01*
X323750Y307500D02*X325250D01*
X323000Y309000D02*X326000Y312000D01*
X327800Y308250D02*X328550Y307500D01*
X327800Y312750D02*Y308250D01*
Y312750D02*X328550Y313500D01*
X330050D01*
X330800Y312750D01*
Y308250D01*
X330050Y307500D02*X330800Y308250D01*
X328550Y307500D02*X330050D01*
X327800Y309000D02*X330800Y312000D01*
X332600Y308250D02*X333350Y307500D01*
X332600Y312750D02*Y308250D01*
Y312750D02*X333350Y313500D01*
X334850D01*
X335600Y312750D01*
Y308250D01*
X334850Y307500D02*X335600Y308250D01*
X333350Y307500D02*X334850D01*
X332600Y309000D02*X335600Y312000D01*
X337400Y308250D02*X338150Y307500D01*
X337400Y312750D02*Y308250D01*
Y312750D02*X338150Y313500D01*
X339650D01*
X340400Y312750D01*
Y308250D01*
X339650Y307500D02*X340400Y308250D01*
X338150Y307500D02*X339650D01*
X337400Y309000D02*X340400Y312000D01*
X345650Y309750D02*Y307500D01*
Y309750D02*X346400Y310500D01*
X347150D01*
X347900Y309750D01*
Y307500D01*
Y309750D02*X348650Y310500D01*
X349400D01*
X350150Y309750D01*
Y307500D01*
X344900Y310500D02*X345650Y309750D01*
X351950Y312000D02*Y311250D01*
Y309750D02*Y307500D01*
X353450Y313500D02*Y308250D01*
X354200Y307500D01*
X356450D02*X358700D01*
X359450Y308250D01*
X358700Y309000D02*X359450Y308250D01*
X356450Y309000D02*X358700D01*
X355700Y309750D02*X356450Y309000D01*
X355700Y309750D02*X356450Y310500D01*
X358700D01*
X359450Y309750D01*
X355700Y308250D02*X356450Y307500D01*
X363950Y310500D02*Y308250D01*
X364700Y307500D01*
X365450D01*
X366200Y308250D01*
Y310500D02*Y308250D01*
X366950Y307500D01*
X367700D01*
X368450Y308250D01*
Y310500D02*Y308250D01*
X370250Y312000D02*Y311250D01*
Y309750D02*Y307500D01*
X374750Y313500D02*Y307500D01*
X374000D02*X374750Y308250D01*
X372500Y307500D02*X374000D01*
X371750Y308250D02*X372500Y307500D01*
X371750Y309750D02*Y308250D01*
Y309750D02*X372500Y310500D01*
X374000D01*
X374750Y309750D01*
X377300Y307500D02*X379550D01*
X376550Y308250D02*X377300Y307500D01*
X376550Y309750D02*Y308250D01*
Y309750D02*X377300Y310500D01*
X378800D01*
X379550Y309750D01*
X376550Y309000D02*X379550D01*
Y309750D02*Y309000D01*
X381350Y306000D02*X382850Y307500D01*
X387350Y312750D02*X388100Y313500D01*
X389600D01*
X390350Y312750D01*
Y308250D01*
X389600Y307500D02*X390350Y308250D01*
X388100Y307500D02*X389600D01*
X387350Y308250D02*X388100Y307500D01*
Y310500D02*X390350D01*
X392150Y308250D02*X392900Y307500D01*
X392150Y312750D02*Y308250D01*
Y312750D02*X392900Y313500D01*
X394400D01*
X395150Y312750D01*
Y308250D01*
X394400Y307500D02*X395150Y308250D01*
X392900Y307500D02*X394400D01*
X392150Y309000D02*X395150Y312000D01*
X396950Y308250D02*X397700Y307500D01*
X396950Y312750D02*Y308250D01*
Y312750D02*X397700Y313500D01*
X399200D01*
X399950Y312750D01*
Y308250D01*
X399200Y307500D02*X399950Y308250D01*
X397700Y307500D02*X399200D01*
X396950Y309000D02*X399950Y312000D01*
X401750Y308250D02*X402500Y307500D01*
X401750Y312750D02*Y308250D01*
Y312750D02*X402500Y313500D01*
X404000D01*
X404750Y312750D01*
Y308250D01*
X404000Y307500D02*X404750Y308250D01*
X402500Y307500D02*X404000D01*
X401750Y309000D02*X404750Y312000D01*
X406550Y307500D02*X407300D01*
X409100Y308250D02*X409850Y307500D01*
X409100Y312750D02*Y308250D01*
Y312750D02*X409850Y313500D01*
X411350D01*
X412100Y312750D01*
Y308250D01*
X411350Y307500D02*X412100Y308250D01*
X409850Y307500D02*X411350D01*
X409100Y309000D02*X412100Y312000D01*
X413900Y308250D02*X414650Y307500D01*
X413900Y312750D02*Y308250D01*
Y312750D02*X414650Y313500D01*
X416150D01*
X416900Y312750D01*
Y308250D01*
X416150Y307500D02*X416900Y308250D01*
X414650Y307500D02*X416150D01*
X413900Y309000D02*X416900Y312000D01*
X418700Y308250D02*X419450Y307500D01*
X418700Y312750D02*Y308250D01*
Y312750D02*X419450Y313500D01*
X420950D01*
X421700Y312750D01*
Y308250D01*
X420950Y307500D02*X421700Y308250D01*
X419450Y307500D02*X420950D01*
X418700Y309000D02*X421700Y312000D01*
X423500Y308250D02*X424250Y307500D01*
X423500Y312750D02*Y308250D01*
Y312750D02*X424250Y313500D01*
X425750D01*
X426500Y312750D01*
Y308250D01*
X425750Y307500D02*X426500Y308250D01*
X424250Y307500D02*X425750D01*
X423500Y309000D02*X426500Y312000D01*
X428300Y308250D02*X429050Y307500D01*
X428300Y312750D02*Y308250D01*
Y312750D02*X429050Y313500D01*
X430550D01*
X431300Y312750D01*
Y308250D01*
X430550Y307500D02*X431300Y308250D01*
X429050Y307500D02*X430550D01*
X428300Y309000D02*X431300Y312000D01*
X433100Y308250D02*X433850Y307500D01*
X433100Y312750D02*Y308250D01*
Y312750D02*X433850Y313500D01*
X435350D01*
X436100Y312750D01*
Y308250D01*
X435350Y307500D02*X436100Y308250D01*
X433850Y307500D02*X435350D01*
X433100Y309000D02*X436100Y312000D01*
X441350Y309750D02*Y307500D01*
Y309750D02*X442100Y310500D01*
X442850D01*
X443600Y309750D01*
Y307500D01*
Y309750D02*X444350Y310500D01*
X445100D01*
X445850Y309750D01*
Y307500D01*
X440600Y310500D02*X441350Y309750D01*
X447650Y312000D02*Y311250D01*
Y309750D02*Y307500D01*
X449150Y313500D02*Y308250D01*
X449900Y307500D01*
X452150D02*X454400D01*
X455150Y308250D01*
X454400Y309000D02*X455150Y308250D01*
X452150Y309000D02*X454400D01*
X451400Y309750D02*X452150Y309000D01*
X451400Y309750D02*X452150Y310500D01*
X454400D01*
X455150Y309750D01*
X451400Y308250D02*X452150Y307500D01*
X459650Y313500D02*Y307500D01*
Y309750D02*X460400Y310500D01*
X461900D01*
X462650Y309750D01*
Y307500D01*
X464450Y312000D02*Y311250D01*
Y309750D02*Y307500D01*
X468200Y310500D02*X468950Y309750D01*
X466700Y310500D02*X468200D01*
X465950Y309750D02*X466700Y310500D01*
X465950Y309750D02*Y308250D01*
X466700Y307500D01*
X468200D01*
X468950Y308250D01*
X465950Y306000D02*X466700Y305250D01*
X468200D01*
X468950Y306000D01*
Y310500D02*Y306000D01*
X470750Y313500D02*Y307500D01*
Y309750D02*X471500Y310500D01*
X473000D01*
X473750Y309750D01*
Y307500D01*
X0Y-9500D02*X3000D01*
X3750Y-8750D01*
Y-7250D02*Y-8750D01*
X3000Y-6500D02*X3750Y-7250D01*
X750Y-6500D02*X3000D01*
X750Y-3500D02*Y-9500D01*
X0Y-3500D02*X3000D01*
X3750Y-4250D01*
Y-5750D01*
X3000Y-6500D02*X3750Y-5750D01*
X5550Y-7250D02*Y-8750D01*
Y-7250D02*X6300Y-6500D01*
X7800D01*
X8550Y-7250D01*
Y-8750D01*
X7800Y-9500D02*X8550Y-8750D01*
X6300Y-9500D02*X7800D01*
X5550Y-8750D02*X6300Y-9500D01*
X12600Y-6500D02*X13350Y-7250D01*
X11100Y-6500D02*X12600D01*
X10350Y-7250D02*X11100Y-6500D01*
X10350Y-7250D02*Y-8750D01*
X11100Y-9500D01*
X13350Y-6500D02*Y-8750D01*
X14100Y-9500D01*
X11100D02*X12600D01*
X13350Y-8750D01*
X16650Y-7250D02*Y-9500D01*
Y-7250D02*X17400Y-6500D01*
X18900D01*
X15900D02*X16650Y-7250D01*
X23700Y-3500D02*Y-9500D01*
X22950D02*X23700Y-8750D01*
X21450Y-9500D02*X22950D01*
X20700Y-8750D02*X21450Y-9500D01*
X20700Y-7250D02*Y-8750D01*
Y-7250D02*X21450Y-6500D01*
X22950D01*
X23700Y-7250D01*
X28200D02*Y-8750D01*
Y-7250D02*X28950Y-6500D01*
X30450D01*
X31200Y-7250D01*
Y-8750D01*
X30450Y-9500D02*X31200Y-8750D01*
X28950Y-9500D02*X30450D01*
X28200Y-8750D02*X28950Y-9500D01*
X33000Y-6500D02*Y-8750D01*
X33750Y-9500D01*
X35250D01*
X36000Y-8750D01*
Y-6500D02*Y-8750D01*
X38550Y-3500D02*Y-8750D01*
X39300Y-9500D01*
X37800Y-5750D02*X39300D01*
X40800Y-3500D02*Y-8750D01*
X41550Y-9500D01*
X43050Y-5000D02*Y-5750D01*
Y-7250D02*Y-9500D01*
X45300Y-7250D02*Y-9500D01*
Y-7250D02*X46050Y-6500D01*
X46800D01*
X47550Y-7250D01*
Y-9500D01*
X44550Y-6500D02*X45300Y-7250D01*
X50100Y-9500D02*X52350D01*
X49350Y-8750D02*X50100Y-9500D01*
X49350Y-7250D02*Y-8750D01*
Y-7250D02*X50100Y-6500D01*
X51600D01*
X52350Y-7250D01*
X49350Y-8000D02*X52350D01*
Y-7250D02*Y-8000D01*
X56850Y-5000D02*Y-5750D01*
Y-7250D02*Y-9500D01*
X59100D02*X61350D01*
X62100Y-8750D01*
X61350Y-8000D02*X62100Y-8750D01*
X59100Y-8000D02*X61350D01*
X58350Y-7250D02*X59100Y-8000D01*
X58350Y-7250D02*X59100Y-6500D01*
X61350D01*
X62100Y-7250D01*
X58350Y-8750D02*X59100Y-9500D01*
X67350Y-3500D02*Y-8750D01*
X68100Y-9500D01*
X66600Y-5750D02*X68100D01*
X69600Y-3500D02*Y-9500D01*
Y-7250D02*X70350Y-6500D01*
X71850D01*
X72600Y-7250D01*
Y-9500D01*
X75150D02*X77400D01*
X74400Y-8750D02*X75150Y-9500D01*
X74400Y-7250D02*Y-8750D01*
Y-7250D02*X75150Y-6500D01*
X76650D01*
X77400Y-7250D01*
X74400Y-8000D02*X77400D01*
Y-7250D02*Y-8000D01*
X82650Y-6500D02*X84900D01*
X81900Y-7250D02*X82650Y-6500D01*
X81900Y-7250D02*Y-8750D01*
X82650Y-9500D01*
X84900D01*
X87450D02*X89700D01*
X86700Y-8750D02*X87450Y-9500D01*
X86700Y-7250D02*Y-8750D01*
Y-7250D02*X87450Y-6500D01*
X88950D01*
X89700Y-7250D01*
X86700Y-8000D02*X89700D01*
Y-7250D02*Y-8000D01*
X92250Y-7250D02*Y-9500D01*
Y-7250D02*X93000Y-6500D01*
X93750D01*
X94500Y-7250D01*
Y-9500D01*
X91500Y-6500D02*X92250Y-7250D01*
X97050Y-3500D02*Y-8750D01*
X97800Y-9500D01*
X96300Y-5750D02*X97800D01*
X100050Y-9500D02*X102300D01*
X99300Y-8750D02*X100050Y-9500D01*
X99300Y-7250D02*Y-8750D01*
Y-7250D02*X100050Y-6500D01*
X101550D01*
X102300Y-7250D01*
X99300Y-8000D02*X102300D01*
Y-7250D02*Y-8000D01*
X104850Y-7250D02*Y-9500D01*
Y-7250D02*X105600Y-6500D01*
X107100D01*
X104100D02*X104850Y-7250D01*
X108900Y-3500D02*Y-8750D01*
X109650Y-9500D01*
X111150Y-5000D02*Y-5750D01*
Y-7250D02*Y-9500D01*
X113400Y-7250D02*Y-9500D01*
Y-7250D02*X114150Y-6500D01*
X114900D01*
X115650Y-7250D01*
Y-9500D01*
X112650Y-6500D02*X113400Y-7250D01*
X118200Y-9500D02*X120450D01*
X117450Y-8750D02*X118200Y-9500D01*
X117450Y-7250D02*Y-8750D01*
Y-7250D02*X118200Y-6500D01*
X119700D01*
X120450Y-7250D01*
X117450Y-8000D02*X120450D01*
Y-7250D02*Y-8000D01*
X124950Y-7250D02*Y-8750D01*
Y-7250D02*X125700Y-6500D01*
X127200D01*
X127950Y-7250D01*
Y-8750D01*
X127200Y-9500D02*X127950Y-8750D01*
X125700Y-9500D02*X127200D01*
X124950Y-8750D02*X125700Y-9500D01*
X130500Y-4250D02*Y-9500D01*
Y-4250D02*X131250Y-3500D01*
X132000D01*
X129750Y-6500D02*X131250D01*
X136950Y-3500D02*Y-8750D01*
X137700Y-9500D01*
X136200Y-5750D02*X137700D01*
X139200Y-3500D02*Y-9500D01*
Y-7250D02*X139950Y-6500D01*
X141450D01*
X142200Y-7250D01*
Y-9500D01*
X144000Y-5000D02*Y-5750D01*
Y-7250D02*Y-9500D01*
X146250D02*X148500D01*
X149250Y-8750D01*
X148500Y-8000D02*X149250Y-8750D01*
X146250Y-8000D02*X148500D01*
X145500Y-7250D02*X146250Y-8000D01*
X145500Y-7250D02*X146250Y-6500D01*
X148500D01*
X149250Y-7250D01*
X145500Y-8750D02*X146250Y-9500D01*
X153750Y-8750D02*X154500Y-9500D01*
X153750Y-7250D02*Y-8750D01*
Y-7250D02*X154500Y-6500D01*
X156000D01*
X156750Y-7250D01*
Y-8750D01*
X156000Y-9500D02*X156750Y-8750D01*
X154500Y-9500D02*X156000D01*
X153750Y-5750D02*X154500Y-6500D01*
X153750Y-4250D02*Y-5750D01*
Y-4250D02*X154500Y-3500D01*
X156000D01*
X156750Y-4250D01*
Y-5750D01*
X156000Y-6500D02*X156750Y-5750D01*
X158550Y-9500D02*X159300D01*
X161100Y-8750D02*X161850Y-9500D01*
X161100Y-4250D02*Y-8750D01*
Y-4250D02*X161850Y-3500D01*
X163350D01*
X164100Y-4250D01*
Y-8750D01*
X163350Y-9500D02*X164100Y-8750D01*
X161850Y-9500D02*X163350D01*
X161100Y-8000D02*X164100Y-5000D01*
X165900Y-8750D02*X166650Y-9500D01*
X165900Y-4250D02*Y-8750D01*
Y-4250D02*X166650Y-3500D01*
X168150D01*
X168900Y-4250D01*
Y-8750D01*
X168150Y-9500D02*X168900Y-8750D01*
X166650Y-9500D02*X168150D01*
X165900Y-8000D02*X168900Y-5000D01*
X170700Y-8750D02*X171450Y-9500D01*
X170700Y-4250D02*Y-8750D01*
Y-4250D02*X171450Y-3500D01*
X172950D01*
X173700Y-4250D01*
Y-8750D01*
X172950Y-9500D02*X173700Y-8750D01*
X171450Y-9500D02*X172950D01*
X170700Y-8000D02*X173700Y-5000D01*
X175500Y-8750D02*X176250Y-9500D01*
X175500Y-4250D02*Y-8750D01*
Y-4250D02*X176250Y-3500D01*
X177750D01*
X178500Y-4250D01*
Y-8750D01*
X177750Y-9500D02*X178500Y-8750D01*
X176250Y-9500D02*X177750D01*
X175500Y-8000D02*X178500Y-5000D01*
X180300Y-8750D02*X181050Y-9500D01*
X180300Y-4250D02*Y-8750D01*
Y-4250D02*X181050Y-3500D01*
X182550D01*
X183300Y-4250D01*
Y-8750D01*
X182550Y-9500D02*X183300Y-8750D01*
X181050Y-9500D02*X182550D01*
X180300Y-8000D02*X183300Y-5000D01*
X185100Y-8750D02*X185850Y-9500D01*
X185100Y-4250D02*Y-8750D01*
Y-4250D02*X185850Y-3500D01*
X187350D01*
X188100Y-4250D01*
Y-8750D01*
X187350Y-9500D02*X188100Y-8750D01*
X185850Y-9500D02*X187350D01*
X185100Y-8000D02*X188100Y-5000D01*
X193350Y-7250D02*Y-9500D01*
Y-7250D02*X194100Y-6500D01*
X194850D01*
X195600Y-7250D01*
Y-9500D01*
Y-7250D02*X196350Y-6500D01*
X197100D01*
X197850Y-7250D01*
Y-9500D01*
X192600Y-6500D02*X193350Y-7250D01*
X199650Y-5000D02*Y-5750D01*
Y-7250D02*Y-9500D01*
X201150Y-3500D02*Y-8750D01*
X201900Y-9500D01*
X206850Y-7250D02*Y-9500D01*
Y-7250D02*X207600Y-6500D01*
X209100D01*
X206100D02*X206850Y-7250D01*
X211650Y-9500D02*X213900D01*
X210900Y-8750D02*X211650Y-9500D01*
X210900Y-7250D02*Y-8750D01*
Y-7250D02*X211650Y-6500D01*
X213150D01*
X213900Y-7250D01*
X210900Y-8000D02*X213900D01*
Y-7250D02*Y-8000D01*
X216450Y-6500D02*X218700D01*
X215700Y-7250D02*X216450Y-6500D01*
X215700Y-7250D02*Y-8750D01*
X216450Y-9500D01*
X218700D01*
X221250Y-3500D02*Y-8750D01*
X222000Y-9500D01*
X220500Y-5750D02*X222000D01*
X225750Y-6500D02*X226500Y-7250D01*
X224250Y-6500D02*X225750D01*
X223500Y-7250D02*X224250Y-6500D01*
X223500Y-7250D02*Y-8750D01*
X224250Y-9500D01*
X226500Y-6500D02*Y-8750D01*
X227250Y-9500D01*
X224250D02*X225750D01*
X226500Y-8750D01*
X229800Y-7250D02*Y-9500D01*
Y-7250D02*X230550Y-6500D01*
X231300D01*
X232050Y-7250D01*
Y-9500D01*
X229050Y-6500D02*X229800Y-7250D01*
X236100Y-6500D02*X236850Y-7250D01*
X234600Y-6500D02*X236100D01*
X233850Y-7250D02*X234600Y-6500D01*
X233850Y-7250D02*Y-8750D01*
X234600Y-9500D01*
X236100D01*
X236850Y-8750D01*
X233850Y-11000D02*X234600Y-11750D01*
X236100D01*
X236850Y-11000D01*
Y-6500D02*Y-11000D01*
X238650Y-3500D02*Y-8750D01*
X239400Y-9500D01*
X241650D02*X243900D01*
X240900Y-8750D02*X241650Y-9500D01*
X240900Y-7250D02*Y-8750D01*
Y-7250D02*X241650Y-6500D01*
X243150D01*
X243900Y-7250D01*
X240900Y-8000D02*X243900D01*
Y-7250D02*Y-8000D01*
X248400Y-6500D02*X251400D01*
X255900Y-8750D02*X256650Y-9500D01*
X255900Y-4250D02*Y-8750D01*
Y-4250D02*X256650Y-3500D01*
X258150D01*
X258900Y-4250D01*
Y-8750D01*
X258150Y-9500D02*X258900Y-8750D01*
X256650Y-9500D02*X258150D01*
X255900Y-8000D02*X258900Y-5000D01*
X260700Y-11000D02*X262200Y-9500D01*
X264000Y-8750D02*X264750Y-9500D01*
X264000Y-4250D02*Y-8750D01*
Y-4250D02*X264750Y-3500D01*
X266250D01*
X267000Y-4250D01*
Y-8750D01*
X266250Y-9500D02*X267000Y-8750D01*
X264750Y-9500D02*X266250D01*
X264000Y-8000D02*X267000Y-5000D01*
X272250Y-3500D02*Y-8750D01*
X273000Y-9500D01*
X271500Y-5750D02*X273000D01*
X274500Y-7250D02*Y-8750D01*
Y-7250D02*X275250Y-6500D01*
X276750D01*
X277500Y-7250D01*
Y-8750D01*
X276750Y-9500D02*X277500Y-8750D01*
X275250Y-9500D02*X276750D01*
X274500Y-8750D02*X275250Y-9500D01*
X282000Y-4250D02*X282750Y-3500D01*
X285000D01*
X285750Y-4250D01*
Y-5750D01*
X282000Y-9500D02*X285750Y-5750D01*
X282000Y-9500D02*X285750D01*
X287550Y-8750D02*X288300Y-9500D01*
X287550Y-4250D02*Y-8750D01*
Y-4250D02*X288300Y-3500D01*
X289800D01*
X290550Y-4250D01*
Y-8750D01*
X289800Y-9500D02*X290550Y-8750D01*
X288300Y-9500D02*X289800D01*
X287550Y-8000D02*X290550Y-5000D01*
X292350Y-8750D02*X293100Y-9500D01*
X292350Y-4250D02*Y-8750D01*
Y-4250D02*X293100Y-3500D01*
X294600D01*
X295350Y-4250D01*
Y-8750D01*
X294600Y-9500D02*X295350Y-8750D01*
X293100Y-9500D02*X294600D01*
X292350Y-8000D02*X295350Y-5000D01*
X297150Y-8750D02*X297900Y-9500D01*
X297150Y-4250D02*Y-8750D01*
Y-4250D02*X297900Y-3500D01*
X299400D01*
X300150Y-4250D01*
Y-8750D01*
X299400Y-9500D02*X300150Y-8750D01*
X297900Y-9500D02*X299400D01*
X297150Y-8000D02*X300150Y-5000D01*
X301950Y-9500D02*X302700D01*
X304500Y-8750D02*X305250Y-9500D01*
X304500Y-4250D02*Y-8750D01*
Y-4250D02*X305250Y-3500D01*
X306750D01*
X307500Y-4250D01*
Y-8750D01*
X306750Y-9500D02*X307500Y-8750D01*
X305250Y-9500D02*X306750D01*
X304500Y-8000D02*X307500Y-5000D01*
X309300Y-8750D02*X310050Y-9500D01*
X309300Y-4250D02*Y-8750D01*
Y-4250D02*X310050Y-3500D01*
X311550D01*
X312300Y-4250D01*
Y-8750D01*
X311550Y-9500D02*X312300Y-8750D01*
X310050Y-9500D02*X311550D01*
X309300Y-8000D02*X312300Y-5000D01*
X314100Y-8750D02*X314850Y-9500D01*
X314100Y-4250D02*Y-8750D01*
Y-4250D02*X314850Y-3500D01*
X316350D01*
X317100Y-4250D01*
Y-8750D01*
X316350Y-9500D02*X317100Y-8750D01*
X314850Y-9500D02*X316350D01*
X314100Y-8000D02*X317100Y-5000D01*
X318900Y-8750D02*X319650Y-9500D01*
X318900Y-4250D02*Y-8750D01*
Y-4250D02*X319650Y-3500D01*
X321150D01*
X321900Y-4250D01*
Y-8750D01*
X321150Y-9500D02*X321900Y-8750D01*
X319650Y-9500D02*X321150D01*
X318900Y-8000D02*X321900Y-5000D01*
X323700Y-8750D02*X324450Y-9500D01*
X323700Y-4250D02*Y-8750D01*
Y-4250D02*X324450Y-3500D01*
X325950D01*
X326700Y-4250D01*
Y-8750D01*
X325950Y-9500D02*X326700Y-8750D01*
X324450Y-9500D02*X325950D01*
X323700Y-8000D02*X326700Y-5000D01*
X328500Y-8750D02*X329250Y-9500D01*
X328500Y-4250D02*Y-8750D01*
Y-4250D02*X329250Y-3500D01*
X330750D01*
X331500Y-4250D01*
Y-8750D01*
X330750Y-9500D02*X331500Y-8750D01*
X329250Y-9500D02*X330750D01*
X328500Y-8000D02*X331500Y-5000D01*
X333300Y-11000D02*X334800Y-9500D01*
X336600Y-4250D02*X337350Y-3500D01*
X338850D01*
X339600Y-4250D01*
Y-8750D01*
X338850Y-9500D02*X339600Y-8750D01*
X337350Y-9500D02*X338850D01*
X336600Y-8750D02*X337350Y-9500D01*
Y-6500D02*X339600D01*
X341400Y-8750D02*X342150Y-9500D01*
X341400Y-4250D02*Y-8750D01*
Y-4250D02*X342150Y-3500D01*
X343650D01*
X344400Y-4250D01*
Y-8750D01*
X343650Y-9500D02*X344400Y-8750D01*
X342150Y-9500D02*X343650D01*
X341400Y-8000D02*X344400Y-5000D01*
X346200Y-8750D02*X346950Y-9500D01*
X346200Y-4250D02*Y-8750D01*
Y-4250D02*X346950Y-3500D01*
X348450D01*
X349200Y-4250D01*
Y-8750D01*
X348450Y-9500D02*X349200Y-8750D01*
X346950Y-9500D02*X348450D01*
X346200Y-8000D02*X349200Y-5000D01*
X351000Y-8750D02*X351750Y-9500D01*
X351000Y-4250D02*Y-8750D01*
Y-4250D02*X351750Y-3500D01*
X353250D01*
X354000Y-4250D01*
Y-8750D01*
X353250Y-9500D02*X354000Y-8750D01*
X351750Y-9500D02*X353250D01*
X351000Y-8000D02*X354000Y-5000D01*
X355800Y-9500D02*X356550D01*
X358350Y-8750D02*X359100Y-9500D01*
X358350Y-4250D02*Y-8750D01*
Y-4250D02*X359100Y-3500D01*
X360600D01*
X361350Y-4250D01*
Y-8750D01*
X360600Y-9500D02*X361350Y-8750D01*
X359100Y-9500D02*X360600D01*
X358350Y-8000D02*X361350Y-5000D01*
X363150Y-8750D02*X363900Y-9500D01*
X363150Y-4250D02*Y-8750D01*
Y-4250D02*X363900Y-3500D01*
X365400D01*
X366150Y-4250D01*
Y-8750D01*
X365400Y-9500D02*X366150Y-8750D01*
X363900Y-9500D02*X365400D01*
X363150Y-8000D02*X366150Y-5000D01*
X367950Y-8750D02*X368700Y-9500D01*
X367950Y-4250D02*Y-8750D01*
Y-4250D02*X368700Y-3500D01*
X370200D01*
X370950Y-4250D01*
Y-8750D01*
X370200Y-9500D02*X370950Y-8750D01*
X368700Y-9500D02*X370200D01*
X367950Y-8000D02*X370950Y-5000D01*
X372750Y-8750D02*X373500Y-9500D01*
X372750Y-4250D02*Y-8750D01*
Y-4250D02*X373500Y-3500D01*
X375000D01*
X375750Y-4250D01*
Y-8750D01*
X375000Y-9500D02*X375750Y-8750D01*
X373500Y-9500D02*X375000D01*
X372750Y-8000D02*X375750Y-5000D01*
X377550Y-8750D02*X378300Y-9500D01*
X377550Y-4250D02*Y-8750D01*
Y-4250D02*X378300Y-3500D01*
X379800D01*
X380550Y-4250D01*
Y-8750D01*
X379800Y-9500D02*X380550Y-8750D01*
X378300Y-9500D02*X379800D01*
X377550Y-8000D02*X380550Y-5000D01*
X382350Y-8750D02*X383100Y-9500D01*
X382350Y-4250D02*Y-8750D01*
Y-4250D02*X383100Y-3500D01*
X384600D01*
X385350Y-4250D01*
Y-8750D01*
X384600Y-9500D02*X385350Y-8750D01*
X383100Y-9500D02*X384600D01*
X382350Y-8000D02*X385350Y-5000D01*
X390600Y-7250D02*Y-9500D01*
Y-7250D02*X391350Y-6500D01*
X392100D01*
X392850Y-7250D01*
Y-9500D01*
Y-7250D02*X393600Y-6500D01*
X394350D01*
X395100Y-7250D01*
Y-9500D01*
X389850Y-6500D02*X390600Y-7250D01*
X396900Y-5000D02*Y-5750D01*
Y-7250D02*Y-9500D01*
X398400Y-3500D02*Y-8750D01*
X399150Y-9500D01*
X401400D02*X403650D01*
X404400Y-8750D01*
X403650Y-8000D02*X404400Y-8750D01*
X401400Y-8000D02*X403650D01*
X400650Y-7250D02*X401400Y-8000D01*
X400650Y-7250D02*X401400Y-6500D01*
X403650D01*
X404400Y-7250D01*
X400650Y-8750D02*X401400Y-9500D01*
X200750Y328500D02*Y322500D01*
X203000Y328500D02*X203750Y327750D01*
Y323250D01*
X203000Y322500D02*X203750Y323250D01*
X200000Y322500D02*X203000D01*
X200000Y328500D02*X203000D01*
X207800Y325500D02*X208550Y324750D01*
X206300Y325500D02*X207800D01*
X205550Y324750D02*X206300Y325500D01*
X205550Y324750D02*Y323250D01*
X206300Y322500D01*
X208550Y325500D02*Y323250D01*
X209300Y322500D01*
X206300D02*X207800D01*
X208550Y323250D01*
X211850Y328500D02*Y323250D01*
X212600Y322500D01*
X211100Y326250D02*X212600D01*
X214850Y322500D02*X217100D01*
X214100Y323250D02*X214850Y322500D01*
X214100Y324750D02*Y323250D01*
Y324750D02*X214850Y325500D01*
X216350D01*
X217100Y324750D01*
X214100Y324000D02*X217100D01*
Y324750D02*Y324000D01*
X218900Y326250D02*X219650D01*
X218900Y324750D02*X219650D01*
X224150Y328500D02*Y322500D01*
Y328500D02*X226400Y326250D01*
X228650Y328500D01*
Y322500D01*
X230450Y324750D02*Y323250D01*
Y324750D02*X231200Y325500D01*
X232700D01*
X233450Y324750D01*
Y323250D01*
X232700Y322500D02*X233450Y323250D01*
X231200Y322500D02*X232700D01*
X230450Y323250D02*X231200Y322500D01*
X236000Y324750D02*Y322500D01*
Y324750D02*X236750Y325500D01*
X237500D01*
X238250Y324750D01*
Y322500D01*
X235250Y325500D02*X236000Y324750D01*
X242750Y328500D02*X245000D01*
Y323250D01*
X244250Y322500D02*X245000Y323250D01*
X243500Y322500D02*X244250D01*
X242750Y323250D02*X243500Y322500D01*
X246800Y325500D02*Y323250D01*
X247550Y322500D01*
X249050D01*
X249800Y323250D01*
Y325500D02*Y323250D01*
X251600Y328500D02*Y323250D01*
X252350Y322500D01*
X256550Y327750D02*X257300Y328500D01*
X259550D01*
X260300Y327750D01*
Y326250D01*
X256550Y322500D02*X260300Y326250D01*
X256550Y322500D02*X260300D01*
X262850D02*X264350D01*
X263600Y328500D02*Y322500D01*
X262100Y327000D02*X263600Y328500D01*
X268850Y327750D02*X269600Y328500D01*
X271850D01*
X272600Y327750D01*
Y326250D01*
X268850Y322500D02*X272600Y326250D01*
X268850Y322500D02*X272600D01*
X274400Y323250D02*X275150Y322500D01*
X274400Y327750D02*Y323250D01*
Y327750D02*X275150Y328500D01*
X276650D01*
X277400Y327750D01*
Y323250D01*
X276650Y322500D02*X277400Y323250D01*
X275150Y322500D02*X276650D01*
X274400Y324000D02*X277400Y327000D01*
X279200Y326250D02*X279950D01*
X279200Y324750D02*X279950D01*
X281750Y327750D02*X282500Y328500D01*
X284750D01*
X285500Y327750D01*
Y326250D01*
X281750Y322500D02*X285500Y326250D01*
X281750Y322500D02*X285500D01*
X287300Y323250D02*X288050Y322500D01*
X287300Y327750D02*Y323250D01*
Y327750D02*X288050Y328500D01*
X289550D01*
X290300Y327750D01*
Y323250D01*
X289550Y322500D02*X290300Y323250D01*
X288050Y322500D02*X289550D01*
X287300Y324000D02*X290300Y327000D01*
X292100Y326250D02*X292850D01*
X292100Y324750D02*X292850D01*
X294650Y325500D02*X297650Y328500D01*
X294650Y325500D02*X298400D01*
X297650Y328500D02*Y322500D01*
X300200Y323250D02*X300950Y322500D01*
X300200Y324750D02*Y323250D01*
Y324750D02*X300950Y325500D01*
X302450D01*
X303200Y324750D01*
Y323250D01*
X302450Y322500D02*X303200Y323250D01*
X300950Y322500D02*X302450D01*
X300200Y326250D02*X300950Y325500D01*
X300200Y327750D02*Y326250D01*
Y327750D02*X300950Y328500D01*
X302450D01*
X303200Y327750D01*
Y326250D01*
X302450Y325500D02*X303200Y326250D01*
X307700Y327750D02*X308450Y328500D01*
X310700D01*
X311450Y327750D01*
Y326250D01*
X307700Y322500D02*X311450Y326250D01*
X307700Y322500D02*X311450D01*
X313250Y323250D02*X314000Y322500D01*
X313250Y327750D02*Y323250D01*
Y327750D02*X314000Y328500D01*
X315500D01*
X316250Y327750D01*
Y323250D01*
X315500Y322500D02*X316250Y323250D01*
X314000Y322500D02*X315500D01*
X313250Y324000D02*X316250Y327000D01*
X318800Y322500D02*X320300D01*
X319550Y328500D02*Y322500D01*
X318050Y327000D02*X319550Y328500D01*
X322100Y325500D02*X325100Y328500D01*
X322100Y325500D02*X325850D01*
X325100Y328500D02*Y322500D01*
X330350Y328500D02*Y323250D01*
X331100Y322500D01*
X332600D01*
X333350Y323250D01*
Y328500D02*Y323250D01*
X335150Y328500D02*X338150D01*
X336650D02*Y322500D01*
X340700D02*X342950D01*
X339950Y323250D02*X340700Y322500D01*
X339950Y327750D02*Y323250D01*
Y327750D02*X340700Y328500D01*
X342950D01*
X200000Y342750D02*Y337500D01*
Y342750D02*X200750Y343500D01*
X203000D01*
X203750Y342750D01*
Y337500D01*
X200000Y340500D02*X203750D01*
X205550D02*Y338250D01*
X206300Y337500D01*
X207800D01*
X208550Y338250D01*
Y340500D02*Y338250D01*
X211100Y343500D02*Y338250D01*
X211850Y337500D01*
X210350Y341250D02*X211850D01*
X213350Y343500D02*Y337500D01*
Y339750D02*X214100Y340500D01*
X215600D01*
X216350Y339750D01*
Y337500D01*
X218150Y339750D02*Y338250D01*
Y339750D02*X218900Y340500D01*
X220400D01*
X221150Y339750D01*
Y338250D01*
X220400Y337500D02*X221150Y338250D01*
X218900Y337500D02*X220400D01*
X218150Y338250D02*X218900Y337500D01*
X223700Y339750D02*Y337500D01*
Y339750D02*X224450Y340500D01*
X225950D01*
X222950D02*X223700Y339750D01*
X227750Y341250D02*X228500D01*
X227750Y339750D02*X228500D01*
X200000Y358500D02*X203000D01*
X201500D02*Y352500D01*
X204800Y357000D02*Y356250D01*
Y354750D02*Y352500D01*
X207050Y358500D02*Y353250D01*
X207800Y352500D01*
X206300Y356250D02*X207800D01*
X209300Y358500D02*Y353250D01*
X210050Y352500D01*
X212300D02*X214550D01*
X211550Y353250D02*X212300Y352500D01*
X211550Y354750D02*Y353250D01*
Y354750D02*X212300Y355500D01*
X213800D01*
X214550Y354750D01*
X211550Y354000D02*X214550D01*
Y354750D02*Y354000D01*
X216350Y356250D02*X217100D01*
X216350Y354750D02*X217100D01*
X221600Y353250D02*X222350Y352500D01*
X221600Y357750D02*X222350Y358500D01*
X221600Y357750D02*Y353250D01*
X224150Y355500D02*Y353250D01*
X224900Y352500D01*
X226400D01*
X227150Y353250D01*
Y355500D02*Y353250D01*
X229700Y354750D02*Y352500D01*
Y354750D02*X230450Y355500D01*
X231200D01*
X231950Y354750D01*
Y352500D01*
X228950Y355500D02*X229700Y354750D01*
X233750Y358500D02*Y352500D01*
Y354750D02*X236000Y352500D01*
X233750Y354750D02*X235250Y356250D01*
X238550Y354750D02*Y352500D01*
Y354750D02*X239300Y355500D01*
X240050D01*
X240800Y354750D01*
Y352500D01*
X237800Y355500D02*X238550Y354750D01*
X242600D02*Y353250D01*
Y354750D02*X243350Y355500D01*
X244850D01*
X245600Y354750D01*
Y353250D01*
X244850Y352500D02*X245600Y353250D01*
X243350Y352500D02*X244850D01*
X242600Y353250D02*X243350Y352500D01*
X247400Y355500D02*Y353250D01*
X248150Y352500D01*
X248900D01*
X249650Y353250D01*
Y355500D02*Y353250D01*
X250400Y352500D01*
X251150D01*
X251900Y353250D01*
Y355500D02*Y353250D01*
X254450Y354750D02*Y352500D01*
Y354750D02*X255200Y355500D01*
X255950D01*
X256700Y354750D01*
Y352500D01*
X253700Y355500D02*X254450Y354750D01*
X258500Y358500D02*X259250Y357750D01*
Y353250D01*
X258500Y352500D02*X259250Y353250D01*
X263750Y355500D02*X266750D01*
X271250Y358500D02*Y352500D01*
Y358500D02*X274250D01*
X271250Y355500D02*X273500D01*
X278300D02*X279050Y354750D01*
X276800Y355500D02*X278300D01*
X276050Y354750D02*X276800Y355500D01*
X276050Y354750D02*Y353250D01*
X276800Y352500D01*
X279050Y355500D02*Y353250D01*
X279800Y352500D01*
X276800D02*X278300D01*
X279050Y353250D01*
X281600Y358500D02*Y352500D01*
Y353250D02*X282350Y352500D01*
X283850D01*
X284600Y353250D01*
Y354750D02*Y353250D01*
X283850Y355500D02*X284600Y354750D01*
X282350Y355500D02*X283850D01*
X281600Y354750D02*X282350Y355500D01*
X287150Y354750D02*Y352500D01*
Y354750D02*X287900Y355500D01*
X289400D01*
X286400D02*X287150Y354750D01*
X291200Y357000D02*Y356250D01*
Y354750D02*Y352500D01*
X293450Y355500D02*X295700D01*
X292700Y354750D02*X293450Y355500D01*
X292700Y354750D02*Y353250D01*
X293450Y352500D01*
X295700D01*
X299750Y355500D02*X300500Y354750D01*
X298250Y355500D02*X299750D01*
X297500Y354750D02*X298250Y355500D01*
X297500Y354750D02*Y353250D01*
X298250Y352500D01*
X300500Y355500D02*Y353250D01*
X301250Y352500D01*
X298250D02*X299750D01*
X300500Y353250D01*
X303800Y358500D02*Y353250D01*
X304550Y352500D01*
X303050Y356250D02*X304550D01*
X306050Y357000D02*Y356250D01*
Y354750D02*Y352500D01*
X307550Y354750D02*Y353250D01*
Y354750D02*X308300Y355500D01*
X309800D01*
X310550Y354750D01*
Y353250D01*
X309800Y352500D02*X310550Y353250D01*
X308300Y352500D02*X309800D01*
X307550Y353250D02*X308300Y352500D01*
X313100Y354750D02*Y352500D01*
Y354750D02*X313850Y355500D01*
X314600D01*
X315350Y354750D01*
Y352500D01*
X312350Y355500D02*X313100Y354750D01*
X320600Y358500D02*Y352500D01*
X322850Y358500D02*X323600Y357750D01*
Y353250D01*
X322850Y352500D02*X323600Y353250D01*
X319850Y352500D02*X322850D01*
X319850Y358500D02*X322850D01*
X326150Y354750D02*Y352500D01*
Y354750D02*X326900Y355500D01*
X328400D01*
X325400D02*X326150Y354750D01*
X332450Y355500D02*X333200Y354750D01*
X330950Y355500D02*X332450D01*
X330200Y354750D02*X330950Y355500D01*
X330200Y354750D02*Y353250D01*
X330950Y352500D01*
X333200Y355500D02*Y353250D01*
X333950Y352500D01*
X330950D02*X332450D01*
X333200Y353250D01*
X335750Y355500D02*Y353250D01*
X336500Y352500D01*
X337250D01*
X338000Y353250D01*
Y355500D02*Y353250D01*
X338750Y352500D01*
X339500D01*
X340250Y353250D01*
Y355500D02*Y353250D01*
X342050Y357000D02*Y356250D01*
Y354750D02*Y352500D01*
X344300Y354750D02*Y352500D01*
Y354750D02*X345050Y355500D01*
X345800D01*
X346550Y354750D01*
Y352500D01*
X343550Y355500D02*X344300Y354750D01*
X350600Y355500D02*X351350Y354750D01*
X349100Y355500D02*X350600D01*
X348350Y354750D02*X349100Y355500D01*
X348350Y354750D02*Y353250D01*
X349100Y352500D01*
X350600D01*
X351350Y353250D01*
X348350Y351000D02*X349100Y350250D01*
X350600D01*
X351350Y351000D01*
Y355500D02*Y351000D01*
M02*
