G04 start of page 10 for group -4015 idx -4015 *
G04 Title: (unknown), toppaste *
G04 Creator: pcb 20140316 *
G04 CreationDate: Fri 13 Nov 2015 05:31:24 PM GMT UTC *
G04 For: fosse *
G04 Format: Gerber/RS-274X *
G04 PCB-Dimensions (mil): 1250.00 2150.00 *
G04 PCB-Coordinate-Origin: lower left *
%MOIN*%
%FSLAX25Y25*%
%LNTOPPASTE*%
%ADD80R,0.3050X0.3050*%
%ADD79C,0.0550*%
%ADD78C,0.0090*%
%ADD77C,0.0200*%
%ADD76R,0.0200X0.0200*%
%ADD75R,0.0512X0.0512*%
G54D75*X21819Y128500D02*X24181D01*
X21819Y116690D02*X24181D01*
X88095Y118681D02*Y116319D01*
X99905Y118681D02*Y116319D01*
X22095Y175681D02*Y173319D01*
X33905Y175681D02*Y173319D01*
X22095Y190681D02*Y188319D01*
X33905Y190681D02*Y188319D01*
X22095Y160181D02*Y157819D01*
X33905Y160181D02*Y157819D01*
X66595Y118681D02*Y116319D01*
X78405Y118681D02*Y116319D01*
X36607Y124043D02*X37393D01*
X36607Y116957D02*X37393D01*
X49607Y124043D02*X50393D01*
X49607Y116957D02*X50393D01*
X88095Y135181D02*Y132819D01*
X99905Y135181D02*Y132819D01*
X88095Y152181D02*Y149819D01*
X99905Y152181D02*Y149819D01*
G54D76*X75500Y61000D02*Y54500D01*
X70500Y61000D02*Y54500D01*
X65500Y61000D02*Y54500D01*
X60500Y61000D02*Y54500D01*
Y40500D02*Y34000D01*
X65500Y40500D02*Y34000D01*
X70500Y40500D02*Y34000D01*
X75500Y40500D02*Y34000D01*
G54D75*X74595Y73181D02*Y70819D01*
X86405Y73181D02*Y70819D01*
X74604Y82681D02*Y80319D01*
X86414Y82681D02*Y80319D01*
X45957Y31393D02*Y30607D01*
X53043Y31393D02*Y30607D01*
X42457Y43893D02*Y43107D01*
X49543Y43893D02*Y43107D01*
G54D77*X70500Y67905D02*Y57750D01*
Y67905D02*X74595Y72000D01*
X64000Y79500D02*X73500Y70000D01*
X74604Y81500D02*Y72896D01*
X81000Y58500D02*Y50000D01*
X65500Y63500D02*Y50000D01*
G54D78*X82500Y88500D02*Y63500D01*
G54D77*X81000Y58500D02*X82500Y60000D01*
Y63500D02*Y60000D01*
X68500Y47000D02*X78000D01*
G54D79*X84000Y105500D02*Y89500D01*
X78000Y95500D02*X84000Y89500D01*
X69000Y95500D02*X78000D01*
X63500Y90000D02*X69000Y95500D01*
X59500Y90000D02*X63500D01*
X56000Y86500D02*X59500Y90000D01*
X50500Y86500D02*X56000D01*
X44750Y80750D02*X50500Y86500D01*
X44750Y73750D02*X52000Y66500D01*
G54D77*X62500D01*
X65500Y63500D01*
G54D79*X44750Y105250D02*Y73750D01*
G54D77*X65500Y50000D02*X68500Y47000D01*
X78000D02*X81000Y50000D01*
G54D80*X59750Y144250D02*X68250D01*
M02*
