G04 start of page 7 for group -4062 idx -4062 *
G04 Title: (unknown), soldermask *
G04 Creator: pcb 20140316 *
G04 CreationDate: Fri 13 Nov 2015 05:31:24 PM GMT UTC *
G04 For: fosse *
G04 Format: Gerber/RS-274X *
G04 PCB-Dimensions (mil): 1250.00 2150.00 *
G04 PCB-Coordinate-Origin: lower left *
%MOIN*%
%FSLAX25Y25*%
%LNBOTTOMMASK*%
%ADD66R,0.1280X0.1280*%
%ADD65R,0.0620X0.0620*%
%ADD64R,0.0572X0.0572*%
%ADD63R,0.0950X0.0950*%
%ADD62C,0.0750*%
%ADD61C,0.0560*%
%ADD60C,0.2000*%
%ADD59C,0.0001*%
%ADD58C,0.0660*%
G54D58*X110500Y125500D03*
Y115500D03*
Y105500D03*
Y95500D03*
Y85500D03*
X90500Y105500D03*
X100500D03*
X110500Y175500D03*
Y165500D03*
Y155500D03*
Y145500D03*
G54D59*G36*
X107200Y208800D02*Y202200D01*
X113800D01*
Y208800D01*
X107200D01*
G37*
G54D58*X110500Y195500D03*
Y185500D03*
Y135500D03*
X90500Y205500D03*
X100500D03*
X110500Y75500D03*
Y65500D03*
Y55500D03*
Y45500D03*
Y35500D03*
Y25500D03*
Y15500D03*
X80500D03*
X90500D03*
X100500D03*
G54D59*G36*
X17200Y18800D02*Y12200D01*
X23800D01*
Y18800D01*
X17200D01*
G37*
G54D58*X30500Y15500D03*
X40500D03*
X50500D03*
X60500D03*
X70500D03*
X10500Y25500D03*
Y15500D03*
G54D59*G36*
X17200Y108800D02*Y102200D01*
X23800D01*
Y108800D01*
X17200D01*
G37*
G54D58*X30500Y105500D03*
X60500D03*
X70500D03*
X80500D03*
G54D60*X54000Y79500D03*
X64000D03*
X59000Y74500D03*
G54D58*X10500Y145500D03*
Y135500D03*
Y125500D03*
Y115500D03*
Y105500D03*
Y95500D03*
Y85500D03*
Y75500D03*
Y65500D03*
Y55500D03*
Y45500D03*
Y35500D03*
X40500Y105500D03*
Y205500D03*
X50500Y105500D03*
G54D59*G36*
X17200Y208800D02*Y202200D01*
X23800D01*
Y208800D01*
X17200D01*
G37*
G54D58*X30500Y205500D03*
G54D59*G36*
X7200Y208800D02*Y202200D01*
X13800D01*
Y208800D01*
X7200D01*
G37*
G54D58*X10500Y195500D03*
Y185500D03*
Y175500D03*
Y165500D03*
Y155500D03*
X50500Y205500D03*
X60500D03*
X70500D03*
X80500D03*
G54D61*X54000Y179500D03*
X64000D03*
X59000Y174500D03*
G54D62*X63500Y50000D02*X67500Y46000D01*
X77000D01*
X61000Y63500D02*X63500Y61000D01*
G54D63*X27500Y69500D02*Y57500D01*
Y69500D02*Y57500D01*
Y69500D02*Y57500D01*
G54D62*X63500Y61000D02*Y50000D01*
G54D64*X57586Y37893D02*Y37107D01*
X50500Y37893D02*Y37107D01*
G54D62*X77000Y46000D02*X81500Y50500D01*
Y59500D02*Y50500D01*
Y59500D02*X84000Y62000D01*
Y105500D02*Y62000D01*
X78000Y95500D02*X84000Y89500D01*
X69000Y95500D02*X78000D01*
X63500Y90000D02*X69000Y95500D01*
X59500Y90000D02*X63500D01*
X56000Y86500D02*X59500Y90000D01*
X57000Y74500D02*X59000D01*
X50500Y86500D02*X56000D01*
X44750Y80750D02*X50500Y86500D01*
X44750Y105250D02*Y73750D01*
X55000Y63500D01*
X61000D01*
X54000Y77500D02*X57000Y74500D01*
X54000Y105500D02*Y77500D01*
G54D65*X32300Y134000D02*X38900D01*
X32300Y143000D02*X38900D01*
X32300Y152100D02*X38900D01*
G54D66*X60000Y147500D02*Y138500D01*
M02*
