G04 start of page 6 for group -4062 idx -4062 *
G04 Title: (unknown), soldermask *
G04 Creator: pcb 20110918 *
G04 CreationDate: Mon Jul 21 20:20:48 2014 UTC *
G04 For: fosse *
G04 Format: Gerber/RS-274X *
G04 PCB-Dimensions: 200000 300000 *
G04 PCB-Coordinate-Origin: lower left *
%MOIN*%
%FSLAX25Y25*%
%LNBOTTOMMASK*%
%ADD36C,0.0560*%
%ADD35C,0.0660*%
%ADD34C,0.0001*%
G54D34*G36*
X137200Y181050D02*Y174450D01*
X143800D01*
Y181050D01*
X137200D01*
G37*
G54D35*X140500Y167750D03*
Y157750D03*
Y147750D03*
Y137750D03*
Y127750D03*
Y117750D03*
Y107750D03*
Y97750D03*
Y87750D03*
Y77750D03*
Y67750D03*
G54D34*G36*
X47200Y181050D02*Y174450D01*
X53800D01*
Y181050D01*
X47200D01*
G37*
G54D35*X50500Y167750D03*
Y157750D03*
G54D34*G36*
X57200Y201300D02*Y194700D01*
X63800D01*
Y201300D01*
X57200D01*
G37*
G54D35*X70500Y198000D03*
X50500Y147750D03*
Y137750D03*
Y127750D03*
Y117750D03*
Y107750D03*
Y97750D03*
Y87750D03*
Y77750D03*
Y67750D03*
G54D34*G36*
X67200Y61050D02*Y54450D01*
X73800D01*
Y61050D01*
X67200D01*
G37*
G54D35*X80500Y57750D03*
X90500D03*
X100500D03*
X110500D03*
X120500D03*
G54D36*X105000Y168500D03*
X85000D03*
X95000Y178500D03*
G54D35*X80500Y198000D03*
X90500D03*
X100500D03*
X110500D03*
X120500D03*
X130500D03*
M02*
