G04 start of page 10 for group -4015 idx -4015 *
G04 Title: (unknown), toppaste *
G04 Creator: pcb-rnd 1.0.10 *
G04 CreationDate: Sat 16 Jul 2016 12:11:23 AM GMT UTC *
G04 For: fosse *
G04 Format: Gerber/RS-274X *
G04 PCB-Dimensions: 125000 215000 *
G04 PCB-Coordinate-Origin: lower left *
%MOIN*%
%FSLAX25Y25*%
%LNTOPPASTE*%
%ADD68R,0.0197X0.0197*%
%ADD67R,0.0600X0.0600*%
%ADD66R,0.0200X0.0200*%
%ADD65R,0.0512X0.0512*%
G54D65*X21819Y128500D02*X24181D01*
X21819Y116690D02*X24181D01*
X88095Y118681D02*Y116319D01*
X99905Y118681D02*Y116319D01*
X22095Y175681D02*Y173319D01*
X33905Y175681D02*Y173319D01*
X22095Y190681D02*Y188319D01*
X33905Y190681D02*Y188319D01*
X22095Y160181D02*Y157819D01*
X33905Y160181D02*Y157819D01*
X66595Y118681D02*Y116319D01*
X78405Y118681D02*Y116319D01*
X36607Y124043D02*X37393D01*
X36607Y116957D02*X37393D01*
X49607Y124043D02*X50393D01*
X49607Y116957D02*X50393D01*
X88095Y135181D02*Y132819D01*
X99905Y135181D02*Y132819D01*
X88095Y152181D02*Y149819D01*
X99905Y152181D02*Y149819D01*
G54D66*X75500Y61000D02*Y54500D01*
X70500Y61000D02*Y54500D01*
X65500Y61000D02*Y54500D01*
X60500Y61000D02*Y54500D01*
Y40500D02*Y34000D01*
X65500Y40500D02*Y34000D01*
X70500Y40500D02*Y34000D01*
X75500Y40500D02*Y34000D01*
G54D65*X42457Y85893D02*Y85107D01*
X49543Y85893D02*Y85107D01*
X28957Y54893D02*Y54107D01*
X36043Y54893D02*Y54107D01*
G54D67*X44000Y76000D02*X45000D01*
X44000Y64000D02*X45000D01*
G54D65*X74595Y73181D02*Y70819D01*
X86405Y73181D02*Y70819D01*
X74604Y82681D02*Y80319D01*
X86414Y82681D02*Y80319D01*
G54D68*X35635Y69260D02*X36816D01*
X35635Y76740D02*X36816D01*
X26187Y73000D02*X27368D01*
X26187Y76740D02*X27368D01*
X26187Y69260D02*X27368D01*
G54D65*X54957Y94393D02*Y93607D01*
X62043Y94393D02*Y93607D01*
X25457Y42893D02*Y42107D01*
X32543Y42893D02*Y42107D01*
X45957Y31393D02*Y30607D01*
X53043Y31393D02*Y30607D01*
X30957Y94893D02*Y94107D01*
X38043Y94893D02*Y94107D01*
X42457Y43893D02*Y43107D01*
X49543Y43893D02*Y43107D01*
M02*
