M48
INCH
T28C0.022
T27C0.038
%
T28
X010500Y016850
X008500Y016850
X009500Y017850
T27
X014050Y017775
X014050Y016775
X014050Y015775
X014050Y014775
X014050Y013775
X014050Y012775
X014050Y011775
X014050Y010775
X014050Y009775
X014050Y008775
X014050Y007775
X014050Y006775
X005050Y017775
X005050Y016775
X005050Y015775
X006050Y019800
X007050Y019800
X005050Y014775
X005050Y013775
X005050Y012775
X005050Y011775
X005050Y010775
X005050Y009775
X005050Y008775
X005050Y007775
X005050Y006775
X007050Y005775
X008050Y005775
X009050Y005775
X010050Y005775
X011050Y005775
X012050Y005775
X008050Y019800
X009050Y019800
X010050Y019800
X011050Y019800
X012050Y019800
X013050Y019800
M30
