G04 start of page 2 for group 0 idx 0 *
G04 Title: (unknown), top *
G04 Creator: pcb 20140316 *
G04 CreationDate: Fri 20 Nov 2015 02:08:32 PM GMT UTC *
G04 For: fosse *
G04 Format: Gerber/RS-274X *
G04 PCB-Dimensions (mil): 3170.00 5000.00 *
G04 PCB-Coordinate-Origin: lower left *
%MOIN*%
%FSLAX25Y25*%
%LNTOP*%
%ADD28C,0.0430*%
%ADD27C,0.0320*%
%ADD26C,0.0790*%
%ADD25C,0.0300*%
%ADD24C,0.0420*%
%ADD23C,0.0350*%
%ADD22C,0.0360*%
%ADD21R,0.0827X0.0827*%
%ADD20R,0.0200X0.0200*%
%ADD19R,0.0512X0.0512*%
%ADD18C,0.0830*%
%ADD17C,0.0800*%
%ADD16C,0.1500*%
%ADD15C,0.0600*%
%ADD14C,0.0200*%
%ADD13C,0.1000*%
%ADD12C,0.0400*%
%ADD11C,0.0001*%
G54D11*G36*
X135230Y391848D02*X140500Y391854D01*
Y387153D01*
X135230Y387147D01*
Y391848D01*
G37*
G36*
Y438500D02*X139000D01*
Y425581D01*
X138987Y425550D01*
X138950Y425397D01*
X138941Y425240D01*
X138950Y417603D01*
X138987Y417450D01*
X139047Y417305D01*
X139130Y417170D01*
X139232Y417051D01*
X139352Y416948D01*
X139486Y416866D01*
X139631Y416806D01*
X139784Y416769D01*
X139941Y416760D01*
X140496Y416761D01*
X140500Y416757D01*
Y415500D01*
X140500Y415500D01*
Y415095D01*
X140500Y415095D01*
Y411146D01*
X140254Y410858D01*
X139925Y410322D01*
X139684Y409740D01*
X139537Y409128D01*
X139488Y408500D01*
X139537Y407872D01*
X139684Y407260D01*
X139925Y406678D01*
X140254Y406142D01*
X140500Y405854D01*
Y400737D01*
X140372Y400628D01*
X140296Y400538D01*
X138718Y398961D01*
X135230Y398957D01*
Y399714D01*
X135298Y399728D01*
X135371Y399755D01*
X135440Y399794D01*
X135502Y399843D01*
X135555Y399901D01*
X135598Y399966D01*
X135630Y400038D01*
X135706Y400271D01*
X135760Y400511D01*
X135792Y400755D01*
X135803Y401000D01*
X135792Y401245D01*
X135760Y401489D01*
X135706Y401729D01*
X135632Y401963D01*
X135600Y402035D01*
X135556Y402100D01*
X135503Y402159D01*
X135441Y402208D01*
X135372Y402246D01*
X135298Y402274D01*
X135230Y402288D01*
Y438500D01*
G37*
G36*
X132999Y380387D02*X133051Y380327D01*
X133170Y380224D01*
X133305Y380142D01*
X133450Y380082D01*
X133603Y380045D01*
X133760Y380036D01*
X134500Y380037D01*
Y378146D01*
X134254Y377858D01*
X133925Y377322D01*
X133792Y377000D01*
X132999D01*
Y380387D01*
G37*
G36*
Y391506D02*X133404Y391911D01*
X133450Y391892D01*
X133603Y391855D01*
X133760Y391846D01*
X135230Y391848D01*
Y387147D01*
X133603Y387145D01*
X133450Y387108D01*
X133305Y387048D01*
X133170Y386966D01*
X133051Y386863D01*
X132999Y386803D01*
Y391506D01*
G37*
G36*
Y438383D02*X133275Y438497D01*
X133279Y438500D01*
X135230D01*
Y402288D01*
X135221Y402290D01*
X135142Y402293D01*
X135063Y402284D01*
X134987Y402263D01*
X134915Y402230D01*
X134850Y402186D01*
X134791Y402133D01*
X134742Y402071D01*
X134704Y402002D01*
X134676Y401928D01*
X134660Y401851D01*
X134657Y401772D01*
X134666Y401693D01*
X134689Y401618D01*
X134738Y401468D01*
X134772Y401314D01*
X134793Y401158D01*
X134800Y401000D01*
X134793Y400842D01*
X134772Y400686D01*
X134738Y400532D01*
X134690Y400382D01*
X134668Y400306D01*
X134659Y400228D01*
X134662Y400150D01*
X134678Y400073D01*
X134705Y399999D01*
X134744Y399930D01*
X134793Y399869D01*
X134851Y399815D01*
X134916Y399772D01*
X134988Y399739D01*
X135064Y399718D01*
X135142Y399709D01*
X135220Y399712D01*
X135230Y399714D01*
Y398957D01*
X134279Y398956D01*
X134263Y399013D01*
X134230Y399085D01*
X134186Y399150D01*
X134133Y399209D01*
X134071Y399258D01*
X134002Y399296D01*
X133928Y399324D01*
X133851Y399340D01*
X133772Y399343D01*
X133693Y399334D01*
X133618Y399311D01*
X133468Y399262D01*
X133314Y399228D01*
X133158Y399207D01*
X133000Y399200D01*
X132999Y399200D01*
Y402800D01*
X133000Y402800D01*
X133158Y402793D01*
X133314Y402772D01*
X133468Y402738D01*
X133618Y402690D01*
X133694Y402668D01*
X133772Y402659D01*
X133850Y402662D01*
X133927Y402678D01*
X134001Y402705D01*
X134070Y402744D01*
X134131Y402793D01*
X134185Y402851D01*
X134228Y402916D01*
X134261Y402988D01*
X134282Y403064D01*
X134291Y403142D01*
X134288Y403220D01*
X134272Y403298D01*
X134245Y403371D01*
X134206Y403440D01*
X134157Y403502D01*
X134099Y403555D01*
X134034Y403598D01*
X133962Y403630D01*
X133729Y403706D01*
X133489Y403760D01*
X133245Y403792D01*
X133000Y403803D01*
X132999Y403803D01*
Y438383D01*
G37*
G36*
X130770Y389277D02*X132999Y391506D01*
Y386803D01*
X132948Y386744D01*
X132866Y386609D01*
X132806Y386464D01*
X132769Y386311D01*
X132760Y386154D01*
X132769Y380879D01*
X132806Y380726D01*
X132866Y380581D01*
X132948Y380446D01*
X132999Y380387D01*
Y377000D01*
X130770D01*
Y389277D01*
G37*
G36*
Y438479D02*X131132Y438329D01*
X131561Y438226D01*
X132000Y438191D01*
X132439Y438226D01*
X132868Y438329D01*
X132999Y438383D01*
Y403803D01*
X132755Y403792D01*
X132511Y403760D01*
X132271Y403706D01*
X132037Y403632D01*
X131965Y403600D01*
X131900Y403556D01*
X131841Y403503D01*
X131792Y403441D01*
X131754Y403372D01*
X131726Y403298D01*
X131710Y403221D01*
X131707Y403142D01*
X131716Y403063D01*
X131737Y402987D01*
X131770Y402915D01*
X131814Y402850D01*
X131867Y402791D01*
X131929Y402742D01*
X131998Y402704D01*
X132072Y402676D01*
X132149Y402660D01*
X132228Y402657D01*
X132307Y402666D01*
X132382Y402689D01*
X132532Y402738D01*
X132686Y402772D01*
X132842Y402793D01*
X132999Y402800D01*
Y399200D01*
X132842Y399207D01*
X132686Y399228D01*
X132532Y399262D01*
X132382Y399310D01*
X132306Y399332D01*
X132228Y399341D01*
X132150Y399338D01*
X132073Y399322D01*
X131999Y399295D01*
X131930Y399256D01*
X131869Y399207D01*
X131815Y399149D01*
X131772Y399084D01*
X131739Y399012D01*
X131718Y398936D01*
X131709Y398858D01*
X131712Y398780D01*
X131728Y398702D01*
X131755Y398629D01*
X131794Y398560D01*
X131843Y398498D01*
X131901Y398445D01*
X131966Y398402D01*
X132038Y398370D01*
X132088Y398354D01*
X131725Y398267D01*
X131289Y398086D01*
X130886Y397840D01*
X130886Y397839D01*
X130770Y397740D01*
Y399712D01*
X130779Y399710D01*
X130858Y399707D01*
X130937Y399716D01*
X131013Y399737D01*
X131085Y399770D01*
X131150Y399814D01*
X131209Y399867D01*
X131258Y399929D01*
X131296Y399998D01*
X131324Y400072D01*
X131340Y400149D01*
X131343Y400228D01*
X131334Y400307D01*
X131311Y400382D01*
X131262Y400532D01*
X131228Y400686D01*
X131207Y400842D01*
X131200Y401000D01*
X131207Y401158D01*
X131228Y401314D01*
X131262Y401468D01*
X131310Y401618D01*
X131332Y401694D01*
X131341Y401772D01*
X131338Y401850D01*
X131322Y401927D01*
X131295Y402001D01*
X131256Y402070D01*
X131207Y402131D01*
X131149Y402185D01*
X131084Y402228D01*
X131012Y402261D01*
X130936Y402282D01*
X130858Y402291D01*
X130780Y402288D01*
X130770Y402286D01*
Y438479D01*
G37*
G36*
X97000Y438500D02*X130721D01*
X130725Y438497D01*
X130770Y438479D01*
Y402286D01*
X130702Y402272D01*
X130629Y402245D01*
X130560Y402206D01*
X130498Y402157D01*
X130445Y402099D01*
X130402Y402034D01*
X130370Y401962D01*
X130294Y401729D01*
X130240Y401489D01*
X130208Y401245D01*
X130197Y401000D01*
X130208Y400755D01*
X130240Y400511D01*
X130294Y400271D01*
X130368Y400037D01*
X130400Y399965D01*
X130444Y399900D01*
X130497Y399841D01*
X130559Y399792D01*
X130628Y399754D01*
X130702Y399726D01*
X130770Y399712D01*
Y397740D01*
X130527Y397533D01*
X130451Y397443D01*
X123379Y390371D01*
X123065Y390019D01*
X122819Y389616D01*
X122638Y389180D01*
X122528Y388721D01*
X122491Y388250D01*
X122528Y387779D01*
X122638Y387320D01*
X122819Y386884D01*
X123065Y386481D01*
X123372Y386122D01*
X123731Y385815D01*
X124134Y385569D01*
X124570Y385388D01*
X125029Y385278D01*
X125500Y385241D01*
X125971Y385278D01*
X126430Y385388D01*
X126866Y385569D01*
X127269Y385815D01*
X127621Y386129D01*
X130770Y389277D01*
Y377000D01*
X92000D01*
X84500Y384500D01*
Y397500D01*
X113500D01*
Y410500D01*
X84000D01*
Y425500D01*
X84464Y425964D01*
X84985Y426180D01*
X86159Y426899D01*
X87206Y427794D01*
X88101Y428841D01*
X88820Y430015D01*
X89036Y430536D01*
X97000Y438500D01*
G37*
G36*
X130000Y399000D02*Y405500D01*
X136500D01*
Y399000D01*
X130000D01*
G37*
G54D12*X157000Y331000D02*X155500D01*
X152500Y328000D01*
G54D13*X159500Y331000D02*X246500D01*
X259000Y343500D01*
G54D12*X230000D02*X238500Y352000D01*
X159547Y360953D02*X149047D01*
X159547D02*X170500Y350000D01*
X215500D01*
X221500Y356000D02*Y361500D01*
X238500Y352000D02*Y360000D01*
X243000Y364500D01*
X138000Y343500D02*X230000D01*
X215500Y350000D02*X221500Y356000D01*
G54D13*X259000Y394500D02*Y343500D01*
G54D12*Y394500D03*
G54D13*Y414500D02*X253000D01*
X259000Y471500D02*Y394500D01*
G54D12*X243000Y476000D02*Y364500D01*
X211000Y394500D02*X233500D01*
Y432500D01*
X142500Y398500D02*X171095D01*
X154310Y421500D02*X160000D01*
X160500Y382500D02*Y377000D01*
X167500Y390500D02*Y381000D01*
X176000Y372500D01*
X163595Y368000D02*Y374405D01*
X160500Y377500D01*
X171000Y398500D02*X185095Y384405D01*
X221500Y361500D02*X233500Y373500D01*
X176000Y372500D02*Y350000D01*
X197000Y376000D02*X211500Y361500D01*
G54D14*X184500Y409000D02*Y400000D01*
X190500Y424114D02*X203614D01*
X211000Y431500D01*
X148000Y432500D02*X161000D01*
X184500Y409000D02*X161000Y432500D01*
X183000Y445385D02*Y424500D01*
G54D12*X243000Y384500D02*X185000D01*
X185095Y376000D02*Y384405D01*
X196905Y376000D02*X197000D01*
X135000Y479500D02*X239500D01*
X243000Y441500D02*X211000D01*
Y451500D02*X233500D01*
G54D14*X183114Y445500D02*X183000Y445385D01*
X181586Y447028D02*X183114Y445500D01*
G54D12*X239500Y479500D02*X243000Y476000D01*
G54D14*X181586Y471500D02*Y447028D01*
G54D12*X167000Y461500D02*X171000Y457500D01*
Y451500D01*
G54D14*X172500Y469500D02*X174500Y471500D01*
G54D12*X155000Y461500D02*X167000D01*
G54D14*X156543Y469500D02*X172500D01*
X132000Y456000D02*X137000Y461000D01*
Y469250D01*
X132000Y456000D02*Y441000D01*
G54D12*X131905Y475000D02*Y476405D01*
X135000Y479500D01*
G54D14*X137000Y448750D02*Y452500D01*
G54D12*X142000Y438500D02*Y443000D01*
X145500D01*
X150500Y448000D01*
G54D14*X137000Y452500D02*X149500Y465000D01*
Y471457D01*
X149457Y471500D01*
G54D12*X150500Y448000D02*Y457000D01*
X155000Y461500D01*
G54D14*X125500Y340750D03*
Y344000D01*
X122500Y347000D01*
G54D12*X125500Y344000D02*Y337000D01*
X131000D01*
X131500D02*X138000Y343500D01*
X125500Y344000D02*X122000Y347500D01*
X147405Y361000D02*X137000D01*
X147500Y349095D02*X154095D01*
X156500Y351500D01*
X149047Y360953D02*X149000Y361000D01*
X131000Y337000D02*X131500Y336500D01*
X159500Y328000D02*X99000D01*
X143310Y336500D02*X150000D01*
X133905Y351000D02*Y359655D01*
X135500Y361250D01*
X136750D01*
X137000Y361000D01*
X140000Y396000D02*X142500Y398500D01*
X66500Y360500D02*Y404000D01*
X137500Y375500D02*Y383595D01*
Y395405D02*X132655D01*
X125500Y388250D01*
X155500Y398500D02*Y403000D01*
G54D14*X160500Y388250D02*Y377500D01*
X155500Y408750D02*Y401000D01*
Y382000D02*Y388250D01*
X159492Y445500D02*Y432508D01*
X159500Y432500D01*
G54D12*X142000Y443000D02*Y419500D01*
X143500Y415095D02*Y408500D01*
Y415500D02*Y418000D01*
X142000Y419500D01*
G54D14*X154043Y370000D02*Y380543D01*
X155500Y382000D01*
G54D12*X93000Y334000D02*G75*G03X81000Y346000I-12000J0D01*G01*
G75*G02X66500Y360500I0J14500D01*G01*
X93000Y334000D02*G75*G03X99000Y328000I6000J0D01*G01*
G54D11*G36*
X208000Y474500D02*Y468500D01*
X214000D01*
Y474500D01*
X208000D01*
G37*
G54D15*X211000Y461500D03*
Y451500D03*
Y441500D03*
Y431500D03*
G54D11*G36*
X208000Y417500D02*Y411500D01*
X214000D01*
Y417500D01*
X208000D01*
G37*
G54D15*X211000Y404500D03*
Y394500D03*
Y384500D03*
G54D11*G36*
X208500Y364500D02*Y358500D01*
X214500D01*
Y364500D01*
X208500D01*
G37*
G54D15*X221500Y361500D03*
G54D11*G36*
X235500Y355000D02*Y349000D01*
X241500D01*
Y355000D01*
X235500D01*
G37*
G54D15*X248500Y352000D03*
G54D16*X81000Y434000D03*
Y474000D03*
G54D17*X101000Y444000D03*
Y454000D03*
G54D16*X81000Y334000D03*
Y374000D03*
G54D17*X101000Y344000D03*
Y354000D03*
G54D18*X106500Y404000D03*
X96500D03*
X86500D03*
X66500D03*
G54D19*X136319Y383595D02*X138681D01*
X122095Y352181D02*Y349819D01*
X133905Y352181D02*Y349819D01*
X146319Y349095D02*X148681D01*
X146319Y360905D02*X148681D01*
X146957Y370393D02*Y369607D01*
X154043Y370393D02*Y369607D01*
X163595Y369181D02*Y366819D01*
X175405Y369181D02*Y366819D01*
X131500Y337681D02*Y335319D01*
X143310Y337681D02*Y335319D01*
G54D20*X165500Y412000D02*Y405500D01*
X160500Y412000D02*Y405500D01*
X155500Y412000D02*Y405500D01*
X150500Y391500D02*Y385000D01*
X155500Y391500D02*Y385000D01*
X160500Y391500D02*Y385000D01*
X165500Y391500D02*Y385000D01*
G54D19*X136319Y395405D02*X138681D01*
X142500Y422681D02*Y420319D01*
X154310Y422681D02*Y420319D01*
G54D20*X142000Y472500D02*Y466000D01*
G54D19*X149457Y471893D02*Y471107D01*
X156543Y471893D02*Y471107D01*
X174500Y471893D02*Y471107D01*
X181586Y471893D02*Y471107D01*
G54D20*X127000Y452000D02*Y445500D01*
X132000Y452000D02*Y445500D01*
X137000Y452000D02*Y445500D01*
X142000Y452000D02*Y445500D01*
X137000Y472500D02*Y466000D01*
X132000Y472500D02*Y466000D01*
X127000Y472500D02*Y466000D01*
X150500Y412000D02*Y405500D01*
G54D21*X184792Y424114D02*X196209D01*
X184791Y400492D02*X196209D01*
G54D19*X185095Y377181D02*Y374819D01*
X196905Y377181D02*Y374819D01*
G54D21*X159492Y451209D02*Y439791D01*
X183114Y451208D02*Y439791D01*
G54D15*X143500Y408500D03*
X259000Y414500D03*
X253000D03*
G54D22*X184500Y409000D03*
G54D15*X259000Y471500D03*
X253000D03*
X233500Y432500D03*
Y451500D03*
Y373500D03*
Y394500D03*
X160000Y421500D03*
G54D22*X148000Y432500D03*
X144000Y459500D03*
X165500Y469500D03*
G54D15*X171000Y451500D03*
G54D22*X131905Y475000D03*
X142000Y443000D03*
X132000Y441000D03*
X160500Y408750D03*
X155500Y388250D03*
X146957Y370000D03*
G54D15*X156500Y351500D03*
X150000Y336500D03*
X160500Y377500D03*
G54D22*X125500Y340750D03*
X135500Y361250D03*
X133000Y401000D03*
G54D15*X137500Y375500D03*
G54D22*X125500Y388250D03*
G54D23*G54D14*G54D23*G54D14*G54D23*G54D14*G54D23*G54D14*G54D23*G54D14*G54D24*G54D25*G54D26*G54D27*G54D26*G54D27*G54D28*M02*
