M48
INCH
T38C0.035
T37C0.020
T36C0.030
T35C0.040
T34C0.038
%
T37
X004800Y022600
X006000Y019800
X006710Y020810
X007300Y022600
X007900Y023300
X008000Y019000
X008300Y026200
X008800Y019000
X009075Y025550
X009075Y024550
X009075Y021450
X009075Y020450
X009500Y022600
X011125Y025050
X011125Y020950
X011700Y022600
T36
X006200Y005000
X006200Y003670
X010200Y005000
X010200Y003670
T38
X007000Y011800
T34
X004000Y028000
X004000Y027000
X004000Y026000
X004000Y025000
X004000Y024000
X004000Y023000
X004000Y022000
X004000Y021000
X004000Y020000
X004000Y019000
X004000Y018000
X004000Y017000
X004000Y016000
X004000Y015000
X004000Y014000
X004000Y013000
X004000Y012000
X004000Y011000
X004000Y010000
X004000Y009000
X005000Y028000
X005000Y009000
X006000Y028000
X006000Y009000
X007000Y028000
X007000Y018000
X007000Y009000
X008000Y028000
X008000Y018000
X008000Y009000
X009000Y028000
X009000Y018000
X009000Y009000
X010000Y028000
X010000Y018000
X010000Y009000
X011000Y028000
X011000Y018000
X011000Y009000
X012000Y028000
X012000Y018000
X012000Y009000
X013000Y028000
X013000Y018000
X013000Y009000
X014000Y028000
X014000Y027000
X014000Y026000
X014000Y025000
X014000Y024000
X014000Y023000
X014000Y022000
X014000Y021000
X014000Y020000
X014000Y019000
X014000Y018000
X014000Y017000
X014000Y016000
X014000Y015000
X014000Y014000
X014000Y013000
X014000Y012000
X014000Y011000
X014000Y010000
X014000Y009000
T35
X008000Y008000
X008000Y007000
X012000Y008000
X012000Y007000
M30
