G04 start of page 2 for group 0 idx 0 *
G04 Title: (unknown), top *
G04 Creator: pcb 20140316 *
G04 CreationDate: Tue 10 Mar 2015 03:41:28 PM GMT UTC *
G04 For: fosse *
G04 Format: Gerber/RS-274X *
G04 PCB-Dimensions (mil): 1600.00 3000.00 *
G04 PCB-Coordinate-Origin: lower left *
%MOIN*%
%FSLAX25Y25*%
%LNTOP*%
%ADD22C,0.0300*%
%ADD21C,0.0380*%
%ADD20C,0.0350*%
%ADD19C,0.0360*%
%ADD18R,0.0200X0.0200*%
%ADD17R,0.0512X0.0512*%
%ADD16C,0.0550*%
%ADD15C,0.0800*%
%ADD14C,0.0600*%
%ADD13C,0.0001*%
%ADD12C,0.0400*%
%ADD11C,0.0200*%
G54D11*X90750Y214500D02*X79405D01*
X78905Y215000D01*
X83500Y209500D02*X82000Y208000D01*
X75095D01*
X91000Y209500D02*X95500D01*
X90750Y204500D02*X83405D01*
X90750Y209500D02*X83500D01*
X83405Y204500D02*X78905Y200000D01*
G54D12*X90750Y204500D02*X84500D01*
X53000Y124000D02*X80000Y97000D01*
Y90000D01*
X48000Y102000D02*X60000Y90000D01*
X53000Y262000D02*Y124000D01*
X48000Y264000D02*Y102000D01*
X71000Y191000D02*X62000D01*
X58000Y187000D01*
G54D11*X67095Y208095D02*X67000Y208000D01*
G54D12*X58000Y187000D02*Y130000D01*
X70000Y118000D01*
G54D11*X67095Y255000D02*X63000D01*
X60000Y252000D01*
X75095Y208000D02*X67095Y200000D01*
X60000Y252000D02*Y198000D01*
X67095Y215000D02*Y208095D01*
X111250Y209500D02*X120405D01*
X124000Y205905D01*
X123595Y214500D02*X105500D01*
X104000Y201000D02*X107000Y198000D01*
Y192095D01*
X106905Y192000D01*
X124000Y194095D02*X123095D01*
X115000Y186000D01*
X123595Y214500D02*X124000Y214095D01*
X117000Y226000D02*X123905D01*
X124000Y225905D01*
X133000Y230000D02*Y194000D01*
X125000Y186000D01*
X115000D02*Y106000D01*
X125000Y186000D02*Y85000D01*
X90000Y186000D02*X93000D01*
X90000Y145000D02*Y90000D01*
X93000Y186000D02*X95000Y184000D01*
Y160905D01*
X85000Y185000D02*Y160905D01*
X84095Y160000D01*
Y150905D01*
X90000Y145000D01*
X95000Y160905D02*X95905Y160000D01*
X90750Y204500D02*Y196345D01*
X95095Y192000D01*
G54D12*X84500Y204500D02*X71000Y191000D01*
G54D11*X80000Y190000D02*X85000Y185000D01*
X88000Y190000D02*Y188000D01*
X90000Y186000D01*
X115000Y106000D02*X105000Y96000D01*
Y87000D01*
X98000Y80000D01*
X125000Y85000D02*X120000Y80000D01*
X98000D02*X80000D01*
G54D12*X120000Y70000D02*X66000D01*
X60000Y76000D01*
Y90000D01*
G54D11*X95500Y209500D02*X97000Y211000D01*
Y223000D01*
X95000Y225000D02*Y234000D01*
Y233095D02*X95095Y233000D01*
X97000Y223000D02*X94000Y226000D01*
X105500Y214500D02*X104000Y216000D01*
Y222000D02*X107000Y225000D01*
Y234000D01*
Y233095D02*X106905Y233000D01*
X104000Y222000D02*Y201000D01*
X111250Y250500D02*X119405D01*
X124000Y245905D01*
Y234095D02*X128905D01*
X133000Y230000D01*
X111500Y255500D02*X107043D01*
X110500D02*X107405D01*
X107043D02*X104543Y253000D01*
Y240457D01*
X107000Y238000D01*
Y233095D01*
X79000Y240000D02*Y233000D01*
X90750Y245500D02*X84500D01*
X79000Y240000D01*
X83500Y250500D02*X82000Y249000D01*
X75095D01*
X67095Y241000D01*
X97500Y248500D02*Y240500D01*
X95000Y238000D01*
Y233095D01*
X73000Y226000D02*X94000D01*
X83500Y250500D02*X95500D01*
X97500Y248500D01*
X90750Y255500D02*X79405D01*
X78905Y255000D01*
X83000Y262000D02*Y267905D01*
X83095Y268000D01*
X92548Y268452D02*X85000Y276000D01*
X84000D01*
X80000Y280000D01*
G54D12*X73000Y273000D02*X80000Y280000D01*
G54D11*X107405Y255500D02*X94905Y268000D01*
X94452Y268452D02*X92548D01*
G54D12*X60000Y280000D02*Y276000D01*
X48000Y264000D01*
X53000Y262000D02*X64000Y273000D01*
X73000D01*
G54D13*G36*
X47000Y283000D02*Y277000D01*
X53000D01*
Y283000D01*
X47000D01*
G37*
G54D14*X60000Y280000D03*
X70000D03*
X80000D03*
X90000D03*
G54D13*G36*
X37000Y283000D02*Y277000D01*
X43000D01*
Y283000D01*
X37000D01*
G37*
G36*
X47000Y93000D02*Y87000D01*
X53000D01*
Y93000D01*
X47000D01*
G37*
G54D14*X60000Y90000D03*
X70000D03*
X80000D03*
X90000D03*
X100000D03*
G54D13*G36*
X76000Y84000D02*Y76000D01*
X84000D01*
Y84000D01*
X76000D01*
G37*
G54D15*X80000Y70000D03*
G54D14*X110000Y90000D03*
X120000D03*
G54D13*G36*
X116000Y84000D02*Y76000D01*
X124000D01*
Y84000D01*
X116000D01*
G37*
G54D15*X120000Y70000D03*
G54D14*X130000Y90000D03*
X140000D03*
G54D13*G36*
X59250Y52750D02*Y47250D01*
X64750D01*
Y52750D01*
X59250D01*
G37*
G54D16*X102000Y50000D03*
G54D13*G36*
X59250Y39450D02*Y33950D01*
X64750D01*
Y39450D01*
X59250D01*
G37*
G54D16*X102000Y36700D03*
G54D14*X100000Y280000D03*
X110000D03*
X120000D03*
X130000D03*
G54D13*G36*
X137000Y283000D02*Y277000D01*
X143000D01*
Y283000D01*
X137000D01*
G37*
G54D14*X140000Y270000D03*
Y260000D03*
Y250000D03*
Y240000D03*
Y230000D03*
Y220000D03*
Y210000D03*
Y200000D03*
Y190000D03*
Y180000D03*
Y170000D03*
Y160000D03*
Y150000D03*
Y140000D03*
Y130000D03*
Y120000D03*
Y110000D03*
Y100000D03*
X40000Y270000D03*
Y260000D03*
Y250000D03*
Y240000D03*
Y230000D03*
Y220000D03*
Y210000D03*
G54D13*G36*
X67000Y183000D02*Y177000D01*
X73000D01*
Y183000D01*
X67000D01*
G37*
G54D14*X80000Y180000D03*
X90000D03*
X100000D03*
X110000D03*
X120000D03*
X130000D03*
X40000Y200000D03*
Y190000D03*
Y180000D03*
Y170000D03*
Y160000D03*
Y150000D03*
Y140000D03*
Y130000D03*
Y120000D03*
Y110000D03*
Y100000D03*
Y90000D03*
G54D17*X67095Y216181D02*Y213819D01*
Y201181D02*Y198819D01*
Y256181D02*Y253819D01*
X83095Y269181D02*Y266819D01*
X94905Y269181D02*Y266819D01*
G54D18*X87500Y260500D02*X94000D01*
G54D17*X95095Y234181D02*Y231819D01*
X78905Y256181D02*Y253819D01*
G54D18*X87500Y255500D02*X94000D01*
X87500Y250500D02*X94000D01*
X87500Y245500D02*X94000D01*
G54D17*X79000Y241181D02*Y238819D01*
X67190Y241181D02*Y238819D01*
X84095Y162755D02*Y157245D01*
X95905Y162755D02*Y157245D01*
X78905Y216181D02*Y213819D01*
G54D18*X87500Y219500D02*X94000D01*
X87500Y214500D02*X94000D01*
X87500Y209500D02*X94000D01*
X87500Y204500D02*X94000D01*
G54D17*X95095Y193181D02*Y190819D01*
X78905Y201181D02*Y198819D01*
G54D18*X108000Y204500D02*X114500D01*
G54D17*X122819Y205905D02*X125181D01*
X122819Y194095D02*X125181D01*
X106905Y193181D02*Y190819D01*
G54D18*X108000Y209500D02*X114500D01*
X108000Y214500D02*X114500D01*
X108000Y219500D02*X114500D01*
G54D17*X122819Y225905D02*X125181D01*
X122819Y214095D02*X125181D01*
X106905Y234181D02*Y231819D01*
X122819Y234095D02*X125181D01*
G54D18*X108000Y245500D02*X114500D01*
X108000Y250500D02*X114500D01*
X108000Y255500D02*X114500D01*
X108000Y260500D02*X114500D01*
G54D17*X122819Y245905D02*X125181D01*
G54D19*X95000Y226000D03*
X117000D03*
X79000Y233000D03*
X90750Y255500D03*
X111250Y250500D03*
X90750Y245500D03*
Y214500D03*
X111250Y209500D03*
X90750Y204500D03*
X88000Y190000D03*
X80000D03*
X83000Y262000D03*
X73000Y226000D03*
X48000D03*
X60000Y198000D03*
X67095Y208095D03*
G54D14*X70000Y118000D03*
G54D11*G54D20*G54D21*G54D12*G54D21*G54D12*G54D21*G54D22*G54D21*M02*
