M48
INCH
T42C0.035
T41C0.020
T40C0.032
T39C0.079
T38C0.040
%
T41
X008400Y011875
X008900Y013925
X015800Y009850
X018450Y009850
T40
X005450Y013500
X005450Y012500
X005450Y003500
X005450Y002500
T42
X006400Y014350
X008050Y004000
X009400Y010750
X010200Y004600
X011950Y001900
X012059Y003809
X015008Y011608
X017808Y013892
T38
X014700Y008400
X015700Y008400
X015700Y003400
X016700Y008400
X016700Y003400
X017700Y008400
X017700Y003400
X018700Y003400
X019700Y003400
T39
X003450Y015500
X003450Y011500
X003450Y005500
X003450Y001500
M30
