G04 start of page 5 for group -4063 idx -4063 *
G04 Title: (unknown), componentmask *
G04 Creator: pcb 20140316 *
G04 CreationDate: Tue 10 Mar 2015 03:41:28 PM GMT UTC *
G04 For: fosse *
G04 Format: Gerber/RS-274X *
G04 PCB-Dimensions (mil): 1600.00 3000.00 *
G04 PCB-Coordinate-Origin: lower left *
%MOIN*%
%FSLAX25Y25*%
%LNTOPMASK*%
%ADD44R,0.0300X0.0300*%
%ADD43R,0.0572X0.0572*%
%ADD42C,0.0610*%
%ADD41C,0.0860*%
%ADD40C,0.0660*%
%ADD39C,0.0001*%
G54D39*G36*
X46700Y283300D02*Y276700D01*
X53300D01*
Y283300D01*
X46700D01*
G37*
G54D40*X60000Y280000D03*
X70000D03*
X80000D03*
X90000D03*
G54D39*G36*
X36700Y283300D02*Y276700D01*
X43300D01*
Y283300D01*
X36700D01*
G37*
G36*
X46700Y93300D02*Y86700D01*
X53300D01*
Y93300D01*
X46700D01*
G37*
G54D40*X60000Y90000D03*
X70000D03*
X80000D03*
X90000D03*
X100000D03*
G54D39*G36*
X75700Y84300D02*Y75700D01*
X84300D01*
Y84300D01*
X75700D01*
G37*
G54D41*X80000Y70000D03*
G54D40*X110000Y90000D03*
X120000D03*
G54D39*G36*
X115700Y84300D02*Y75700D01*
X124300D01*
Y84300D01*
X115700D01*
G37*
G54D41*X120000Y70000D03*
G54D40*X130000Y90000D03*
X140000D03*
G54D39*G36*
X58950Y53050D02*Y46950D01*
X65050D01*
Y53050D01*
X58950D01*
G37*
G54D42*X102000Y50000D03*
G54D39*G36*
X58950Y39750D02*Y33650D01*
X65050D01*
Y39750D01*
X58950D01*
G37*
G54D42*X102000Y36700D03*
G54D40*X100000Y280000D03*
X110000D03*
X120000D03*
X130000D03*
G54D39*G36*
X136700Y283300D02*Y276700D01*
X143300D01*
Y283300D01*
X136700D01*
G37*
G54D40*X140000Y270000D03*
Y260000D03*
Y250000D03*
Y240000D03*
Y230000D03*
Y220000D03*
Y210000D03*
Y200000D03*
Y190000D03*
Y180000D03*
Y170000D03*
Y160000D03*
Y150000D03*
Y140000D03*
Y130000D03*
Y120000D03*
Y110000D03*
Y100000D03*
X40000Y270000D03*
Y260000D03*
Y250000D03*
Y240000D03*
Y230000D03*
Y220000D03*
Y210000D03*
G54D39*G36*
X66700Y183300D02*Y176700D01*
X73300D01*
Y183300D01*
X66700D01*
G37*
G54D40*X80000Y180000D03*
X90000D03*
X100000D03*
X110000D03*
X120000D03*
X130000D03*
X40000Y200000D03*
Y190000D03*
Y180000D03*
Y170000D03*
Y160000D03*
Y150000D03*
Y140000D03*
Y130000D03*
Y120000D03*
Y110000D03*
Y100000D03*
Y90000D03*
G54D43*X67095Y216181D02*Y213819D01*
Y201181D02*Y198819D01*
Y256181D02*Y253819D01*
X83095Y269181D02*Y266819D01*
X94905Y269181D02*Y266819D01*
G54D44*X87500Y260500D02*X94000D01*
G54D43*X95095Y234181D02*Y231819D01*
X78905Y256181D02*Y253819D01*
G54D44*X87500Y255500D02*X94000D01*
X87500Y250500D02*X94000D01*
X87500Y245500D02*X94000D01*
G54D43*X79000Y241181D02*Y238819D01*
X67190Y241181D02*Y238819D01*
X84095Y162755D02*Y157245D01*
X95905Y162755D02*Y157245D01*
X78905Y216181D02*Y213819D01*
G54D44*X87500Y219500D02*X94000D01*
X87500Y214500D02*X94000D01*
X87500Y209500D02*X94000D01*
X87500Y204500D02*X94000D01*
G54D43*X95095Y193181D02*Y190819D01*
X78905Y201181D02*Y198819D01*
G54D44*X108000Y204500D02*X114500D01*
G54D43*X122819Y205905D02*X125181D01*
X122819Y194095D02*X125181D01*
X106905Y193181D02*Y190819D01*
G54D44*X108000Y209500D02*X114500D01*
X108000Y214500D02*X114500D01*
X108000Y219500D02*X114500D01*
G54D43*X122819Y225905D02*X125181D01*
X122819Y214095D02*X125181D01*
X106905Y234181D02*Y231819D01*
X122819Y234095D02*X125181D01*
G54D44*X108000Y245500D02*X114500D01*
X108000Y250500D02*X114500D01*
X108000Y255500D02*X114500D01*
X108000Y260500D02*X114500D01*
G54D43*X122819Y245905D02*X125181D01*
M02*
