G04 start of page 7 for group -4062 idx -4062 *
G04 Title: (unknown), soldermask *
G04 Creator: pcb 20140316 *
G04 CreationDate: Fri 20 Nov 2015 02:08:32 PM GMT UTC *
G04 For: fosse *
G04 Format: Gerber/RS-274X *
G04 PCB-Dimensions (mil): 3170.00 5000.00 *
G04 PCB-Coordinate-Origin: lower left *
%MOIN*%
%FSLAX25Y25*%
%LNBOTTOMMASK*%
%ADD70R,0.0927X0.0927*%
%ADD69R,0.0572X0.0572*%
%ADD68R,0.0300X0.0300*%
%ADD67C,0.0890*%
%ADD66C,0.0860*%
%ADD65C,0.1560*%
%ADD64C,0.0660*%
%ADD63C,0.0001*%
G54D63*G36*
X207700Y474800D02*Y468200D01*
X214300D01*
Y474800D01*
X207700D01*
G37*
G54D64*X211000Y461500D03*
Y451500D03*
Y441500D03*
Y431500D03*
G54D63*G36*
X207700Y417800D02*Y411200D01*
X214300D01*
Y417800D01*
X207700D01*
G37*
G54D64*X211000Y404500D03*
Y394500D03*
Y384500D03*
G54D63*G36*
X208200Y364800D02*Y358200D01*
X214800D01*
Y364800D01*
X208200D01*
G37*
G54D64*X221500Y361500D03*
G54D63*G36*
X235200Y355300D02*Y348700D01*
X241800D01*
Y355300D01*
X235200D01*
G37*
G54D64*X248500Y352000D03*
G54D65*X81000Y434000D03*
Y474000D03*
G54D66*X101000Y444000D03*
Y454000D03*
G54D65*X81000Y334000D03*
Y374000D03*
G54D66*X101000Y344000D03*
Y354000D03*
G54D67*X106500Y404000D03*
X96500D03*
X86500D03*
X66500D03*
G54D68*X135500Y391500D02*Y385000D01*
X130500Y391500D02*Y385000D01*
X125500Y391500D02*Y385000D01*
X120500Y391500D02*Y385000D01*
G54D69*X110607Y387043D02*X111393D01*
X110607Y379957D02*X111393D01*
G54D68*X120500Y364500D02*Y358000D01*
X125500Y364500D02*Y358000D01*
X130500Y364500D02*Y358000D01*
G54D69*X112607Y369043D02*X113393D01*
X112607Y361957D02*X113393D01*
G54D68*X135500Y344000D02*Y337500D01*
X130500Y344000D02*Y337500D01*
X125500Y344000D02*Y337500D01*
X120500Y344000D02*Y337500D01*
X135500Y364500D02*Y358000D01*
G54D69*X86607Y360043D02*X87393D01*
X86607Y352957D02*X87393D01*
X99107Y371043D02*X99893D01*
X99107Y363957D02*X99893D01*
X155245Y404405D02*X160755D01*
X155245Y392595D02*X160755D01*
X136595Y422681D02*Y420319D01*
X148405Y422681D02*Y420319D01*
X144095Y475755D02*Y470245D01*
X131905Y476181D02*Y473819D01*
X155905Y475755D02*Y470245D01*
X172138Y475755D02*Y470245D01*
X183948Y475755D02*Y470245D01*
X115319Y454905D02*X117681D01*
X115319Y443095D02*X117681D01*
X126319Y432405D02*X128681D01*
X120095Y476181D02*Y473819D01*
X131819Y461905D02*X134181D01*
X131819Y450095D02*X134181D01*
G54D68*X120500Y412000D02*Y405500D01*
X125500Y412000D02*Y405500D01*
X130500Y412000D02*Y405500D01*
X135500Y412000D02*Y405500D01*
G54D69*X126319Y420595D02*X128681D01*
X111607Y422043D02*X112393D01*
X111607Y414957D02*X112393D01*
X104607Y422043D02*X105393D01*
X104607Y414957D02*X105393D01*
X88107Y422043D02*X88893D01*
X88107Y414957D02*X88893D01*
X95107Y422043D02*X95893D01*
G54D70*X184791Y424008D02*X196209D01*
G54D69*X95107Y414957D02*X95893D01*
G54D70*X184792Y400386D02*X196209D01*
G54D69*X148595Y447181D02*Y444819D01*
X160405Y447181D02*Y444819D01*
M02*
