G04 start of page 8 for group -4079 idx -4079 *
G04 Title: (unknown), topsilk *
G04 Creator: pcb 20140316 *
G04 CreationDate: Fri 17 Jul 2015 05:08:15 PM GMT UTC *
G04 For: fosse *
G04 Format: Gerber/RS-274X *
G04 PCB-Dimensions (mil): 2170.00 1700.00 *
G04 PCB-Coordinate-Origin: lower left *
%MOIN*%
%FSLAX25Y25*%
%LNTOPSILK*%
%ADD56C,0.0080*%
%ADD55C,0.0100*%
G54D55*X15000Y68500D02*X13000Y66500D01*
Y68000D02*Y66500D01*
Y68000D02*X14500Y66500D01*
X13000D02*X14500D01*
X15000Y102500D02*X13000Y104500D01*
X14500D01*
X13000Y103000D01*
Y104500D01*
X17500Y75700D02*X19000D01*
X17500Y73500D02*X19500D01*
X17500Y77500D02*Y73500D01*
Y77500D02*X19500D01*
X22200Y75500D02*X22700Y75000D01*
X21200Y75500D02*X22200D01*
X20700Y75000D02*X21200Y75500D01*
X20700Y75000D02*Y74000D01*
X21200Y73500D01*
X22700Y75500D02*Y74000D01*
X23200Y73500D01*
X21200D02*X22200D01*
X22700Y74000D01*
X24900Y77500D02*Y74000D01*
X25400Y73500D01*
X24400Y76000D02*X25400D01*
X26400Y75000D02*Y74000D01*
Y75000D02*X26900Y75500D01*
X27900D01*
X28400Y75000D01*
Y74000D01*
X27900Y73500D02*X28400Y74000D01*
X26900Y73500D02*X27900D01*
X26400Y74000D02*X26900Y73500D01*
X30100Y75000D02*Y73500D01*
Y75000D02*X30600Y75500D01*
X31100D01*
X31600Y75000D01*
Y73500D01*
X29600Y75500D02*X30100Y75000D01*
X35100Y77500D02*Y73500D01*
X34600Y77500D02*X36600D01*
X37100Y77000D01*
Y76000D01*
X36600Y75500D02*X37100Y76000D01*
X35100Y75500D02*X36600D01*
X38800Y73500D02*X40300D01*
X38300Y74000D02*X38800Y73500D01*
X38300Y75000D02*Y74000D01*
Y75000D02*X38800Y75500D01*
X39800D01*
X40300Y75000D01*
X38300Y74500D02*X40300D01*
Y75000D02*Y74500D01*
X43000Y75500D02*X43500Y75000D01*
X42000Y75500D02*X43000D01*
X41500Y75000D02*X42000Y75500D01*
X41500Y75000D02*Y74000D01*
X42000Y73500D01*
X43500Y75500D02*Y74000D01*
X44000Y73500D01*
X42000D02*X43000D01*
X43500Y74000D01*
X45200Y77500D02*Y73500D01*
Y74000D02*X45700Y73500D01*
X46700D01*
X47200Y74000D01*
Y75000D02*Y74000D01*
X46700Y75500D02*X47200Y75000D01*
X45700Y75500D02*X46700D01*
X45200Y75000D02*X45700Y75500D01*
X48400Y75000D02*Y74000D01*
Y75000D02*X48900Y75500D01*
X49900D01*
X50400Y75000D01*
Y74000D01*
X49900Y73500D02*X50400Y74000D01*
X48900Y73500D02*X49900D01*
X48400Y74000D02*X48900Y73500D01*
X53600Y77500D02*Y73500D01*
X53100D02*X53600Y74000D01*
X52100Y73500D02*X53100D01*
X51600Y74000D02*X52100Y73500D01*
X51600Y75000D02*Y74000D01*
Y75000D02*X52100Y75500D01*
X53100D01*
X53600Y75000D01*
X54800Y75500D02*Y74000D01*
X55300Y73500D01*
X56800Y75500D02*Y72500D01*
X56300Y72000D02*X56800Y72500D01*
X55300Y72000D02*X56300D01*
X54800Y72500D02*X55300Y72000D01*
Y73500D02*X56300D01*
X56800Y74000D01*
X59800Y77500D02*Y73500D01*
X61800D01*
X64500Y75500D02*X65000Y75000D01*
X63500Y75500D02*X64500D01*
X63000Y75000D02*X63500Y75500D01*
X63000Y75000D02*Y74000D01*
X63500Y73500D01*
X65000Y75500D02*Y74000D01*
X65500Y73500D01*
X63500D02*X64500D01*
X65000Y74000D01*
X66700Y77500D02*Y73500D01*
Y74000D02*X67200Y73500D01*
X68200D01*
X68700Y74000D01*
Y75000D02*Y74000D01*
X68200Y75500D02*X68700Y75000D01*
X67200Y75500D02*X68200D01*
X66700Y75000D02*X67200Y75500D01*
X71500Y77000D02*X72000Y77500D01*
X73500D01*
X74000Y77000D01*
Y76000D01*
X71500Y73500D02*X74000Y76000D01*
X71500Y73500D02*X74000D01*
X75200Y74000D02*X75700Y73500D01*
X75200Y77000D02*Y74000D01*
Y77000D02*X75700Y77500D01*
X76700D01*
X77200Y77000D01*
Y74000D01*
X76700Y73500D02*X77200Y74000D01*
X75700Y73500D02*X76700D01*
X75200Y74500D02*X77200Y76500D01*
X78400Y76700D02*X79200Y77500D01*
Y73500D01*
X78400D02*X79900D01*
X81100Y77500D02*X83100D01*
X81100D02*Y75500D01*
X81600Y76000D01*
X82600D01*
X83100Y75500D01*
Y74000D01*
X82600Y73500D02*X83100Y74000D01*
X81600Y73500D02*X82600D01*
X81100Y74000D02*X81600Y73500D01*
X84300D02*X84800D01*
X86000Y74000D02*X86500Y73500D01*
X86000Y77000D02*Y74000D01*
Y77000D02*X86500Y77500D01*
X87500D01*
X88000Y77000D01*
Y74000D01*
X87500Y73500D02*X88000Y74000D01*
X86500Y73500D02*X87500D01*
X86000Y74500D02*X88000Y76500D01*
X89200Y77000D02*X89700Y77500D01*
X90700D01*
X91200Y77000D01*
X90700Y73500D02*X91200Y74000D01*
X89700Y73500D02*X90700D01*
X89200Y74000D02*X89700Y73500D01*
Y75700D02*X90700D01*
X91200Y77000D02*Y76200D01*
Y75200D02*Y74000D01*
Y75200D02*X90700Y75700D01*
X91200Y76200D02*X90700Y75700D01*
X92400Y73500D02*X92900D01*
X94100Y77000D02*X94600Y77500D01*
X96100D01*
X96600Y77000D01*
Y76000D01*
X94100Y73500D02*X96600Y76000D01*
X94100Y73500D02*X96600D01*
X97800Y75000D02*X99800Y77500D01*
X97800Y75000D02*X100300D01*
X99800Y77500D02*Y73500D01*
X18000Y84500D02*Y80500D01*
X19300Y84500D02*X20000Y83800D01*
Y81200D01*
X19300Y80500D02*X20000Y81200D01*
X17500Y80500D02*X19300D01*
X17500Y84500D02*X19300D01*
X21900Y80500D02*X23200D01*
X21200Y81200D02*X21900Y80500D01*
X21200Y83800D02*Y81200D01*
Y83800D02*X21900Y84500D01*
X23200D01*
X26200D02*Y80500D01*
Y84500D02*X28200D01*
X26200Y82700D02*X27700D01*
X29400Y83500D02*Y83400D01*
Y82000D02*Y80500D01*
X30400Y84500D02*Y81000D01*
X30900Y80500D01*
X32400Y84500D02*Y81000D01*
X32900Y80500D01*
X31900Y83000D02*X32900D01*
X34400Y80500D02*X35900D01*
X33900Y81000D02*X34400Y80500D01*
X33900Y82000D02*Y81000D01*
Y82000D02*X34400Y82500D01*
X35400D01*
X35900Y82000D01*
X33900Y81500D02*X35900D01*
Y82000D02*Y81500D01*
X37600Y82000D02*Y80500D01*
Y82000D02*X38100Y82500D01*
X39100D01*
X37100D02*X37600Y82000D01*
X42100Y84500D02*Y80500D01*
Y81000D02*X42600Y80500D01*
X43600D01*
X44100Y81000D01*
Y82000D02*Y81000D01*
X43600Y82500D02*X44100Y82000D01*
X42600Y82500D02*X43600D01*
X42100Y82000D02*X42600Y82500D01*
X45300D02*Y81000D01*
X45800Y80500D01*
X47300Y82500D02*Y79500D01*
X46800Y79000D02*X47300Y79500D01*
X45800Y79000D02*X46800D01*
X45300Y79500D02*X45800Y79000D01*
Y80500D02*X46800D01*
X47300Y81000D01*
X50300Y84500D02*X51300D01*
X50800D02*Y80500D01*
X50300D02*X51300D01*
X53200Y84500D02*X54000D01*
Y81000D01*
X53500Y80500D02*X54000Y81000D01*
X53000Y80500D02*X53500D01*
X52500Y81000D02*X53000Y80500D01*
X52500Y81500D02*Y81000D01*
X57200Y84500D02*X57700Y84000D01*
X55700Y84500D02*X57200D01*
X55200Y84000D02*X55700Y84500D01*
X55200Y84000D02*Y83000D01*
X55700Y82500D01*
X57200D01*
X57700Y82000D01*
Y81000D01*
X57200Y80500D02*X57700Y81000D01*
X55700Y80500D02*X57200D01*
X55200Y81000D02*X55700Y80500D01*
X18000Y70500D02*Y66500D01*
X19300Y70500D02*X20000Y69800D01*
Y67200D01*
X19300Y66500D02*X20000Y67200D01*
X17500Y66500D02*X19300D01*
X17500Y70500D02*X19300D01*
X21900Y66500D02*X23200D01*
X21200Y67200D02*X21900Y66500D01*
X21200Y69800D02*Y67200D01*
Y69800D02*X21900Y70500D01*
X23200D01*
X26200D02*Y66500D01*
Y70500D02*X28700Y66500D01*
Y70500D02*Y66500D01*
X29900Y68000D02*Y67000D01*
Y68000D02*X30400Y68500D01*
X31400D01*
X31900Y68000D01*
Y67000D01*
X31400Y66500D02*X31900Y67000D01*
X30400Y66500D02*X31400D01*
X29900Y67000D02*X30400Y66500D01*
X33600Y68000D02*Y66500D01*
Y68000D02*X34100Y68500D01*
X34600D01*
X35100Y68000D01*
Y66500D01*
X33100Y68500D02*X33600Y68000D01*
X36300Y68500D02*X38300D01*
X39500Y70500D02*X40500D01*
X40000D02*Y66500D01*
X39500D02*X40500D01*
X42200Y68000D02*Y66500D01*
Y68000D02*X42700Y68500D01*
X43200D01*
X43700Y68000D01*
Y66500D01*
X41700Y68500D02*X42200Y68000D01*
X44900Y68500D02*X45900Y66500D01*
X46900Y68500D02*X45900Y66500D01*
X48600D02*X50100D01*
X48100Y67000D02*X48600Y66500D01*
X48100Y68000D02*Y67000D01*
Y68000D02*X48600Y68500D01*
X49600D01*
X50100Y68000D01*
X48100Y67500D02*X50100D01*
Y68000D02*Y67500D01*
X51800Y68000D02*Y66500D01*
Y68000D02*X52300Y68500D01*
X53300D01*
X51300D02*X51800Y68000D01*
X55000Y70500D02*Y67000D01*
X55500Y66500D01*
X54500Y69000D02*X55500D01*
X56500Y69500D02*Y69400D01*
Y68000D02*Y66500D01*
X58000Y68000D02*Y66500D01*
Y68000D02*X58500Y68500D01*
X59000D01*
X59500Y68000D01*
Y66500D01*
X57500Y68500D02*X58000Y68000D01*
X62200Y68500D02*X62700Y68000D01*
X61200Y68500D02*X62200D01*
X60700Y68000D02*X61200Y68500D01*
X60700Y68000D02*Y67000D01*
X61200Y66500D01*
X62200D01*
X62700Y67000D01*
X60700Y65500D02*X61200Y65000D01*
X62200D01*
X62700Y65500D01*
Y68500D02*Y65500D01*
X17500Y103500D02*Y100500D01*
Y103500D02*X18200Y104500D01*
X19300D01*
X20000Y103500D01*
Y100500D01*
X17500Y102500D02*X20000D01*
X21900Y100500D02*X23200D01*
X21200Y101200D02*X21900Y100500D01*
X21200Y103800D02*Y101200D01*
Y103800D02*X21900Y104500D01*
X23200D01*
X26200D02*X27200D01*
X26700D02*Y100500D01*
X26200D02*X27200D01*
X28900Y102000D02*Y100500D01*
Y102000D02*X29400Y102500D01*
X29900D01*
X30400Y102000D01*
Y100500D01*
X28400Y102500D02*X28900Y102000D01*
X31600Y102500D02*X32600Y100500D01*
X33600Y102500D02*X32600Y100500D01*
X35300D02*X36800D01*
X34800Y101000D02*X35300Y100500D01*
X34800Y102000D02*Y101000D01*
Y102000D02*X35300Y102500D01*
X36300D01*
X36800Y102000D01*
X34800Y101500D02*X36800D01*
Y102000D02*Y101500D01*
X38500Y102000D02*Y100500D01*
Y102000D02*X39000Y102500D01*
X40000D01*
X38000D02*X38500Y102000D01*
X41700Y104500D02*Y101000D01*
X42200Y100500D01*
X41200Y103000D02*X42200D01*
X43200Y103500D02*Y103400D01*
Y102000D02*Y100500D01*
X44700Y102000D02*Y100500D01*
Y102000D02*X45200Y102500D01*
X45700D01*
X46200Y102000D01*
Y100500D01*
X44200Y102500D02*X44700Y102000D01*
X48900Y102500D02*X49400Y102000D01*
X47900Y102500D02*X48900D01*
X47400Y102000D02*X47900Y102500D01*
X47400Y102000D02*Y101000D01*
X47900Y100500D01*
X48900D01*
X49400Y101000D01*
X47400Y99500D02*X47900Y99000D01*
X48900D01*
X49400Y99500D01*
Y102500D02*Y99500D01*
X18000Y97500D02*Y93500D01*
X19300Y97500D02*X20000Y96800D01*
Y94200D01*
X19300Y93500D02*X20000Y94200D01*
X17500Y93500D02*X19300D01*
X17500Y97500D02*X19300D01*
X21200Y95500D02*Y94000D01*
X21700Y93500D01*
X22700D01*
X23200Y94000D01*
Y95500D02*Y94000D01*
X25900Y95500D02*X26400Y95000D01*
X24900Y95500D02*X25900D01*
X24400Y95000D02*X24900Y95500D01*
X24400Y95000D02*Y94000D01*
X24900Y93500D01*
X26400Y95500D02*Y94000D01*
X26900Y93500D01*
X24900D02*X25900D01*
X26400Y94000D01*
X28100Y97500D02*Y94000D01*
X28600Y93500D01*
X32100D02*X33400D01*
X31400Y94200D02*X32100Y93500D01*
X31400Y96800D02*Y94200D01*
Y96800D02*X32100Y97500D01*
X33400D01*
X36100Y95500D02*X36600Y95000D01*
X35100Y95500D02*X36100D01*
X34600Y95000D02*X35100Y95500D01*
X34600Y95000D02*Y94000D01*
X35100Y93500D01*
X36600Y95500D02*Y94000D01*
X37100Y93500D01*
X35100D02*X36100D01*
X36600Y94000D01*
X38300Y97500D02*Y93500D01*
Y94000D02*X38800Y93500D01*
X39800D01*
X40300Y94000D01*
Y95000D02*Y94000D01*
X39800Y95500D02*X40300Y95000D01*
X38800Y95500D02*X39800D01*
X38300Y95000D02*X38800Y95500D01*
X41500Y97500D02*Y94000D01*
X42000Y93500D01*
X43500D02*X45000D01*
X43000Y94000D02*X43500Y93500D01*
X43000Y95000D02*Y94000D01*
Y95000D02*X43500Y95500D01*
X44500D01*
X45000Y95000D01*
X43000Y94500D02*X45000D01*
Y95000D02*Y94500D01*
X48500Y97500D02*Y93500D01*
X49800Y97500D02*X50500Y96800D01*
Y94200D01*
X49800Y93500D02*X50500Y94200D01*
X48000Y93500D02*X49800D01*
X48000Y97500D02*X49800D01*
X52200Y95000D02*Y93500D01*
Y95000D02*X52700Y95500D01*
X53700D01*
X51700D02*X52200Y95000D01*
X54900Y96500D02*Y96400D01*
Y95000D02*Y93500D01*
X55900Y95500D02*X56900Y93500D01*
X57900Y95500D02*X56900Y93500D01*
X59600D02*X61100D01*
X59100Y94000D02*X59600Y93500D01*
X59100Y95000D02*Y94000D01*
Y95000D02*X59600Y95500D01*
X60600D01*
X61100Y95000D01*
X59100Y94500D02*X61100D01*
Y95000D02*Y94500D01*
X62800Y95000D02*Y93500D01*
Y95000D02*X63300Y95500D01*
X64300D01*
X62300D02*X62800Y95000D01*
X17500Y90500D02*Y87500D01*
Y90500D02*X18200Y91500D01*
X19300D01*
X20000Y90500D01*
Y87500D01*
X17500Y89500D02*X20000D01*
X21900Y87500D02*X23200D01*
X21200Y88200D02*X21900Y87500D01*
X21200Y90800D02*Y88200D01*
Y90800D02*X21900Y91500D01*
X23200D01*
X26200Y90500D02*Y87500D01*
Y90500D02*X26900Y91500D01*
X28000D01*
X28700Y90500D01*
Y87500D01*
X26200Y89500D02*X28700D01*
X30400Y89000D02*Y87500D01*
Y89000D02*X30900Y89500D01*
X31400D01*
X31900Y89000D01*
Y87500D01*
Y89000D02*X32400Y89500D01*
X32900D01*
X33400Y89000D01*
Y87500D01*
X29900Y89500D02*X30400Y89000D01*
X35100D02*Y86000D01*
X34600Y89500D02*X35100Y89000D01*
X35600Y89500D01*
X36600D01*
X37100Y89000D01*
Y88000D01*
X36600Y87500D02*X37100Y88000D01*
X35600Y87500D02*X36600D01*
X35100Y88000D02*X35600Y87500D01*
X38300D02*X38800D01*
X41800Y88000D02*X42300Y87500D01*
X41800Y91000D02*Y90000D01*
Y91000D02*X42300Y91500D01*
X41800Y89000D02*X43300Y90500D01*
X42300Y87500D02*X42800D01*
X43800Y88500D01*
X41800Y90000D02*X44300Y87500D01*
X42300Y91500D02*X42800D01*
X43300Y91000D01*
Y90500D01*
X41800Y89000D02*Y88000D01*
X47300Y91500D02*Y87500D01*
X49300D01*
X52000Y89500D02*X52500Y89000D01*
X51000Y89500D02*X52000D01*
X50500Y89000D02*X51000Y89500D01*
X50500Y89000D02*Y88000D01*
X51000Y87500D01*
X52500Y89500D02*Y88000D01*
X53000Y87500D01*
X51000D02*X52000D01*
X52500Y88000D01*
X54200Y89500D02*Y88000D01*
X54700Y87500D01*
X56200Y89500D02*Y86500D01*
X55700Y86000D02*X56200Y86500D01*
X54700Y86000D02*X55700D01*
X54200Y86500D02*X54700Y86000D01*
Y87500D02*X55700D01*
X56200Y88000D01*
X57400Y89000D02*Y88000D01*
Y89000D02*X57900Y89500D01*
X58900D01*
X59400Y89000D01*
Y88000D01*
X58900Y87500D02*X59400Y88000D01*
X57900Y87500D02*X58900D01*
X57400Y88000D02*X57900Y87500D01*
X60600Y89500D02*Y88000D01*
X61100Y87500D01*
X62100D01*
X62600Y88000D01*
Y89500D02*Y88000D01*
X64300Y91500D02*Y88000D01*
X64800Y87500D01*
X63800Y90000D02*X64800D01*
X67600Y87500D02*X69600D01*
X70100Y88000D01*
Y89200D02*Y88000D01*
X69600Y89700D02*X70100Y89200D01*
X68100Y89700D02*X69600D01*
X68100Y91500D02*Y87500D01*
X67600Y91500D02*X69600D01*
X70100Y91000D01*
Y90200D01*
X69600Y89700D02*X70100Y90200D01*
X71300Y89500D02*Y88000D01*
X71800Y87500D01*
X73300Y89500D02*Y86500D01*
X72800Y86000D02*X73300Y86500D01*
X71800Y86000D02*X72800D01*
X71300Y86500D02*X71800Y86000D01*
Y87500D02*X72800D01*
X73300Y88000D01*
X76300Y89700D02*X77800D01*
X76300Y87500D02*X78300D01*
X76300Y91500D02*Y87500D01*
Y91500D02*X78300D01*
X79500Y89700D02*X81000D01*
X79500Y87500D02*X81500D01*
X79500Y91500D02*Y87500D01*
Y91500D02*X81500D01*
X82700D02*Y87500D01*
Y91500D02*X84700D01*
X82700Y89700D02*X84200D01*
X154000Y66500D02*X156000D01*
X155000Y67500D02*Y65500D01*
X152800Y65300D02*X152000Y64500D01*
Y68500D02*Y64500D01*
X151300Y68500D02*X152800D01*
X148100Y64500D02*X150100D01*
Y66500D02*Y64500D01*
Y66500D02*X149600Y66000D01*
X148600D02*X149600D01*
X148600D02*X148100Y66500D01*
Y68000D02*Y66500D01*
X148600Y68500D02*X148100Y68000D01*
X148600Y68500D02*X149600D01*
X150100Y68000D02*X149600Y68500D01*
X146900Y64500D02*X145900Y68500D01*
X144900Y64500D01*
X153500Y76000D02*X155500D01*
X152300Y74800D02*X151500Y74000D01*
Y78000D02*Y74000D01*
X150800Y78000D02*X152300D01*
X147600Y74000D02*X149600D01*
Y76000D02*Y74000D01*
Y76000D02*X149100Y75500D01*
X148100D02*X149100D01*
X148100D02*X147600Y76000D01*
Y77500D02*Y76000D01*
X148100Y78000D02*X147600Y77500D01*
X148100Y78000D02*X149100D01*
X149600Y77500D02*X149100Y78000D01*
X146400Y74000D02*X145400Y78000D01*
X144400Y74000D01*
X153500Y88500D02*X154800D01*
X155500Y87800D02*X154800Y88500D01*
X155500Y87800D02*Y85200D01*
X154800Y84500D01*
X153500D02*X154800D01*
X152300Y88000D02*Y85000D01*
X151800Y84500D01*
X150800D02*X151800D01*
X150800D02*X150300Y85000D01*
Y88000D02*Y85000D01*
X150800Y88500D02*X150300Y88000D01*
X150800Y88500D02*X151800D01*
X152300Y88000D02*X151800Y88500D01*
X149100D02*Y84500D01*
X147600Y86500D01*
X146100Y84500D01*
Y88500D02*Y84500D01*
X144400Y88500D02*X144900D01*
X153500Y98500D02*X154800D01*
X155500Y97800D02*X154800Y98500D01*
X155500Y97800D02*Y95200D01*
X154800Y94500D01*
X153500D02*X154800D01*
X152300Y98500D02*Y94500D01*
X149800Y98500D02*Y94500D01*
Y96500D02*X152300D01*
X148600Y98500D02*Y95500D01*
X147900Y94500D01*
X146800D02*X147900D01*
X146800D02*X146100Y95500D01*
Y98500D02*Y95500D01*
Y96500D02*X148600D01*
X142900Y94500D02*X142400Y95000D01*
X142900Y94500D02*X144400D01*
X144900Y95000D02*X144400Y94500D01*
X144900Y96000D02*Y95000D01*
Y96000D02*X144400Y96500D01*
X142900D02*X144400D01*
X142900D02*X142400Y97000D01*
Y98000D02*Y97000D01*
X142900Y98500D02*X142400Y98000D01*
X142900Y98500D02*X144400D01*
X144900Y98000D02*X144400Y98500D01*
X140700D02*X141200D01*
X153500Y54500D02*X153000Y55000D01*
X153500Y54500D02*X155000D01*
X155500Y55000D02*X155000Y54500D01*
X155500Y56000D02*Y55000D01*
Y56000D02*X155000Y56500D01*
X153500D02*X155000D01*
X153500D02*X153000Y57000D01*
Y58000D02*Y57000D01*
X153500Y58500D02*X153000Y58000D01*
X153500Y58500D02*X155000D01*
X155500Y58000D02*X155000Y58500D01*
X150800Y54500D02*X151800D01*
X151300Y58500D02*Y54500D01*
X150800Y58500D02*X151800D01*
X147600Y54500D02*X147100Y55000D01*
X147600Y54500D02*X149100D01*
X149600Y55000D02*X149100Y54500D01*
X149600Y58000D02*Y55000D01*
Y58000D02*X149100Y58500D01*
X147600D02*X149100D01*
X147600D02*X147100Y58000D01*
Y57000D01*
X147600Y56500D02*X147100Y57000D01*
X147600Y56500D02*X148600D01*
X145400Y58500D02*X145900D01*
X159032Y109468D02*X144874D01*
X159032D02*Y142532D01*
X156032Y145532D01*
X144874D01*
X122968Y109468D02*X137126D01*
X122968D02*Y142532D01*
X125968Y145532D01*
X137126D01*
X205032Y109468D02*X190874D01*
X205032D02*Y142532D01*
X202032Y145532D01*
X190874D01*
X168968Y109468D02*X183126D01*
X168968D02*Y142532D01*
X171968Y145532D01*
X183126D01*
X77000Y113500D02*X96000D01*
Y144500D02*Y113500D01*
X77000Y144500D02*X96000D01*
X77000Y126500D02*Y113500D01*
Y144500D02*Y131500D01*
Y126500D02*G75*G03X77000Y131500I0J2500D01*G01*
G54D56*X96138Y155740D02*X100862D01*
X96138Y148260D02*X100862D01*
X76138Y155740D02*X80862D01*
X76138Y148260D02*X80862D01*
X102760Y131362D02*Y126638D01*
X110240Y131362D02*Y126638D01*
X107138Y111240D02*X111862D01*
X107138Y103760D02*X111862D01*
X81245Y103893D02*Y103107D01*
X86755Y103893D02*Y103107D01*
X121186Y91468D02*Y87532D01*
X131814Y91468D02*Y87532D01*
X124532Y55814D02*X128468D01*
X124532Y45186D02*X128468D01*
X126107Y70255D02*X126893D01*
X126107Y64745D02*X126893D01*
X107260Y42362D02*Y37638D01*
X114740Y42362D02*Y37638D01*
X102138Y21240D02*X106862D01*
X102138Y13760D02*X106862D01*
X132532Y24314D02*X136468D01*
X132532Y13686D02*X136468D01*
X134107Y37255D02*X134893D01*
X134107Y31745D02*X134893D01*
G54D55*X205300Y101500D02*Y61500D01*
X180300Y101500D02*Y61500D01*
Y66500D02*X186300D01*
Y96500D02*Y66500D01*
X180300Y96500D02*X186300D01*
X180300Y61500D02*X205300D01*
X180300Y101500D02*X205300D01*
X78500Y24500D02*X97500D01*
Y55500D02*Y24500D01*
X78500Y55500D02*X97500D01*
X78500Y37500D02*Y24500D01*
Y55500D02*Y42500D01*
Y37500D02*G75*G03X78500Y42500I0J2500D01*G01*
G54D56*X83138Y66740D02*X87862D01*
X83138Y59260D02*X87862D01*
X81638Y16740D02*X86362D01*
X81638Y9260D02*X86362D01*
G54D55*X137700Y148500D02*X139000D01*
X137000Y149200D02*X137700Y148500D01*
X137000Y151800D02*Y149200D01*
Y151800D02*X137700Y152500D01*
X139000D01*
X140200Y151700D02*X141000Y152500D01*
Y148500D01*
X140200D02*X141700D01*
X142900Y150000D02*X144900Y152500D01*
X142900Y150000D02*X145400D01*
X144900Y152500D02*Y148500D01*
X183700D02*X185000D01*
X183000Y149200D02*X183700Y148500D01*
X183000Y151800D02*Y149200D01*
Y151800D02*X183700Y152500D01*
X185000D01*
X186200Y151700D02*X187000Y152500D01*
Y148500D01*
X186200D02*X187700D01*
X188900Y152000D02*X189400Y152500D01*
X190400D01*
X190900Y152000D01*
X190400Y148500D02*X190900Y149000D01*
X189400Y148500D02*X190400D01*
X188900Y149000D02*X189400Y148500D01*
Y150700D02*X190400D01*
X190900Y152000D02*Y151200D01*
Y150200D02*Y149000D01*
Y150200D02*X190400Y150700D01*
X190900Y151200D02*X190400Y150700D01*
X71500Y126000D02*X75000D01*
X75500Y126500D01*
Y127500D02*Y126500D01*
Y127500D02*X75000Y128000D01*
X71500D02*X75000D01*
X72000Y129200D02*X71500Y129700D01*
Y130700D02*Y129700D01*
Y130700D02*X72000Y131200D01*
X75500Y130700D02*X75000Y131200D01*
X75500Y130700D02*Y129700D01*
X75000Y129200D02*X75500Y129700D01*
X73300Y130700D02*Y129700D01*
X72000Y131200D02*X72800D01*
X73800D02*X75000D01*
X73800D02*X73300Y130700D01*
X72800Y131200D02*X73300Y130700D01*
X95350Y161650D02*X97350D01*
X97850Y161150D01*
Y160150D01*
X97350Y159650D02*X97850Y160150D01*
X95850Y159650D02*X97350D01*
X95850Y161650D02*Y157650D01*
X96650Y159650D02*X97850Y157650D01*
X99050Y158150D02*X99550Y157650D01*
X99050Y158950D02*Y158150D01*
Y158950D02*X99750Y159650D01*
X100350D01*
X101050Y158950D01*
Y158150D01*
X100550Y157650D02*X101050Y158150D01*
X99550Y157650D02*X100550D01*
X99050Y160350D02*X99750Y159650D01*
X99050Y161150D02*Y160350D01*
Y161150D02*X99550Y161650D01*
X100550D01*
X101050Y161150D01*
Y160350D01*
X100350Y159650D02*X101050Y160350D01*
X76050Y157150D02*X77350D01*
X75350Y157850D02*X76050Y157150D01*
X75350Y160450D02*Y157850D01*
Y160450D02*X76050Y161150D01*
X77350D01*
X80050D02*X80550Y160650D01*
X79050Y161150D02*X80050D01*
X78550Y160650D02*X79050Y161150D01*
X78550Y160650D02*Y157650D01*
X79050Y157150D01*
X80050Y159350D02*X80550Y158850D01*
X78550Y159350D02*X80050D01*
X79050Y157150D02*X80050D01*
X80550Y157650D01*
Y158850D02*Y157650D01*
X101350Y126850D02*Y125550D01*
X100650Y124850D02*X101350Y125550D01*
X98050Y124850D02*X100650D01*
X98050D02*X97350Y125550D01*
Y126850D02*Y125550D01*
X98150Y128050D02*X97350Y128850D01*
X101350D01*
Y129550D02*Y128050D01*
X100850Y130750D02*X101350Y131250D01*
X97850Y130750D02*X100850D01*
X97850D02*X97350Y131250D01*
Y132250D02*Y131250D01*
Y132250D02*X97850Y132750D01*
X100850D01*
X101350Y132250D02*X100850Y132750D01*
X101350Y132250D02*Y131250D01*
X100350Y130750D02*X98350Y132750D01*
X107050Y112650D02*X108350D01*
X106350Y113350D02*X107050Y112650D01*
X106350Y115950D02*Y113350D01*
Y115950D02*X107050Y116650D01*
X108350D01*
X110050Y112650D02*X112050Y116650D01*
X109550D02*X112050D01*
X75850Y102850D02*Y100850D01*
Y102850D02*X76350Y103350D01*
X77350D01*
X77850Y102850D02*X77350Y103350D01*
X77850Y102850D02*Y101350D01*
X75850D02*X79850D01*
X77850Y102150D02*X79850Y103350D01*
X75850Y106050D02*X76350Y106550D01*
X75850Y106050D02*Y105050D01*
X76350Y104550D02*X75850Y105050D01*
X76350Y104550D02*X79350D01*
X79850Y105050D01*
X77650Y106050D02*X78150Y106550D01*
X77650Y106050D02*Y104550D01*
X79850Y106050D02*Y105050D01*
Y106050D02*X79350Y106550D01*
X78150D02*X79350D01*
X178700Y83900D02*Y82600D01*
X178000Y81900D02*X178700Y82600D01*
X175400Y81900D02*X178000D01*
X175400D02*X174700Y82600D01*
Y83900D02*Y82600D01*
X175200Y85100D02*X178200D01*
X175200D02*X174700Y85600D01*
Y86600D02*Y85600D01*
Y86600D02*X175200Y87100D01*
X178200D01*
X178700Y86600D02*X178200Y87100D01*
X178700Y86600D02*Y85600D01*
X178200Y85100D02*X178700Y85600D01*
X174700Y88300D02*X178700D01*
X174700D02*X178700Y90800D01*
X174700D02*X178700D01*
X174700Y92000D02*X178700D01*
X174700D02*X178700Y94500D01*
X174700D02*X178700D01*
X177200Y95700D02*X174700Y97700D01*
X177200Y98200D02*Y95700D01*
X174700Y97700D02*X178700D01*
X119350Y88350D02*Y87050D01*
X118650Y86350D02*X119350Y87050D01*
X116050Y86350D02*X118650D01*
X116050D02*X115350Y87050D01*
Y88350D02*Y87050D01*
X118850Y89550D02*X119350Y90050D01*
X118050Y89550D02*X118850D01*
X118050D02*X117350Y90250D01*
Y90850D02*Y90250D01*
Y90850D02*X118050Y91550D01*
X118850D01*
X119350Y91050D02*X118850Y91550D01*
X119350Y91050D02*Y90050D01*
X116650Y89550D02*X117350Y90250D01*
X115850Y89550D02*X116650D01*
X115850D02*X115350Y90050D01*
Y91050D02*Y90050D01*
Y91050D02*X115850Y91550D01*
X116650D01*
X117350Y90850D02*X116650Y91550D01*
X123850Y75650D02*X125850D01*
X126350Y75150D01*
Y74150D01*
X125850Y73650D02*X126350Y74150D01*
X124350Y73650D02*X125850D01*
X124350Y75650D02*Y71650D01*
X125150Y73650D02*X126350Y71650D01*
X127550Y75150D02*X128050Y75650D01*
X129050D01*
X129550Y75150D01*
X129050Y71650D02*X129550Y72150D01*
X128050Y71650D02*X129050D01*
X127550Y72150D02*X128050Y71650D01*
Y73850D02*X129050D01*
X129550Y75150D02*Y74350D01*
Y73350D02*Y72150D01*
Y73350D02*X129050Y73850D01*
X129550Y74350D02*X129050Y73850D01*
X105850Y38850D02*Y37550D01*
X105150Y36850D02*X105850Y37550D01*
X102550Y36850D02*X105150D01*
X102550D02*X101850Y37550D01*
Y38850D02*Y37550D01*
X102350Y40050D02*X101850Y40550D01*
Y41550D02*Y40550D01*
Y41550D02*X102350Y42050D01*
X105850Y41550D02*X105350Y42050D01*
X105850Y41550D02*Y40550D01*
X105350Y40050D02*X105850Y40550D01*
X103650Y41550D02*Y40550D01*
X102350Y42050D02*X103150D01*
X104150D02*X105350D01*
X104150D02*X103650Y41550D01*
X103150Y42050D02*X103650Y41550D01*
X72500Y37250D02*X76000D01*
X76500Y37750D01*
Y38750D02*Y37750D01*
Y38750D02*X76000Y39250D01*
X72500D02*X76000D01*
X73000Y40450D02*X72500Y40950D01*
Y42450D02*Y40950D01*
Y42450D02*X73000Y42950D01*
X74000D01*
X76500Y40450D02*X74000Y42950D01*
X76500D02*Y40450D01*
X82445Y72150D02*X84445D01*
X84945Y71650D01*
Y70650D01*
X84445Y70150D02*X84945Y70650D01*
X82945Y70150D02*X84445D01*
X82945Y72150D02*Y68150D01*
X83745Y70150D02*X84945Y68150D01*
X86145Y72150D02*X88145D01*
X86145D02*Y70150D01*
X86645Y70650D01*
X87645D01*
X88145Y70150D01*
Y68650D01*
X87645Y68150D02*X88145Y68650D01*
X86645Y68150D02*X87645D01*
X86145Y68650D02*X86645Y68150D01*
X102050Y22650D02*X103350D01*
X101350Y23350D02*X102050Y22650D01*
X101350Y25950D02*Y23350D01*
Y25950D02*X102050Y26650D01*
X103350D01*
X104550D02*X106550D01*
X104550D02*Y24650D01*
X105050Y25150D01*
X106050D01*
X106550Y24650D01*
Y23150D01*
X106050Y22650D02*X106550Y23150D01*
X105050Y22650D02*X106050D01*
X104550Y23150D02*X105050Y22650D01*
X81955Y18150D02*X83255D01*
X81255Y18850D02*X81955Y18150D01*
X81255Y21450D02*Y18850D01*
Y21450D02*X81955Y22150D01*
X83255D01*
X84955Y18150D02*X86455Y20150D01*
Y21650D02*Y20150D01*
X85955Y22150D02*X86455Y21650D01*
X84955Y22150D02*X85955D01*
X84455Y21650D02*X84955Y22150D01*
X84455Y21650D02*Y20650D01*
X84955Y20150D01*
X86455D01*
X123550Y58150D02*X124850D01*
X122850Y58850D02*X123550Y58150D01*
X122850Y61450D02*Y58850D01*
Y61450D02*X123550Y62150D01*
X124850D01*
X126050Y61350D02*X126850Y62150D01*
Y58150D01*
X126050D02*X127550D01*
X128750Y62150D02*X130750D01*
X128750D02*Y60150D01*
X129250Y60650D01*
X130250D01*
X130750Y60150D01*
Y58650D01*
X130250Y58150D02*X130750Y58650D01*
X129250Y58150D02*X130250D01*
X128750Y58650D02*X129250Y58150D01*
X131050Y25650D02*X132350D01*
X130350Y26350D02*X131050Y25650D01*
X130350Y28950D02*Y26350D01*
Y28950D02*X131050Y29650D01*
X132350D01*
X133550Y28850D02*X134350Y29650D01*
Y25650D01*
X133550D02*X135050D01*
X137750Y29650D02*X138250Y29150D01*
X136750Y29650D02*X137750D01*
X136250Y29150D02*X136750Y29650D01*
X136250Y29150D02*Y26150D01*
X136750Y25650D01*
X137750Y27850D02*X138250Y27350D01*
X136250Y27850D02*X137750D01*
X136750Y25650D02*X137750D01*
X138250Y26150D01*
Y27350D02*Y26150D01*
X131350Y42650D02*X133350D01*
X133850Y42150D01*
Y41150D01*
X133350Y40650D02*X133850Y41150D01*
X131850Y40650D02*X133350D01*
X131850Y42650D02*Y38650D01*
X132650Y40650D02*X133850Y38650D01*
X135050Y40150D02*X137050Y42650D01*
X135050Y40150D02*X137550D01*
X137050Y42650D02*Y38650D01*
M02*
