G04 start of page 11 for group -3984 idx -3984 *
G04 Title: (unknown), fab *
G04 Creator: pcb 20140316 *
G04 CreationDate: Tue 10 Mar 2015 03:41:28 PM GMT UTC *
G04 For: fosse *
G04 Format: Gerber/RS-274X *
G04 PCB-Dimensions (mil): 1600.00 3000.00 *
G04 PCB-Coordinate-Origin: lower left *
%MOIN*%
%FSLAX25Y25*%
%LNFAB*%
%ADD61C,0.0100*%
%ADD60C,0.0075*%
%ADD59C,0.0060*%
%ADD58R,0.0080X0.0080*%
G54D58*X118400Y81600D02*X121600D01*
X118400D02*Y78400D01*
X121600D01*
Y81600D02*Y78400D01*
X118400Y71600D02*X121600D01*
X118400D02*Y68400D01*
X121600D01*
Y71600D02*Y68400D01*
X78400Y81600D02*X81600D01*
X78400D02*Y78400D01*
X81600D01*
Y81600D02*Y78400D01*
X78400Y71600D02*X81600D01*
X78400D02*Y68400D01*
X81600D01*
Y71600D02*Y68400D01*
X13400Y312850D02*X16600D01*
X13400D02*Y309650D01*
X16600D01*
Y312850D02*Y309650D01*
G54D59*X135000Y313500D02*X136500Y310500D01*
X138000Y313500D01*
X136500Y310500D02*Y307500D01*
X139800Y310800D02*X142050D01*
X139800Y307500D02*X142800D01*
X139800Y313500D02*Y307500D01*
Y313500D02*X142800D01*
X147600D02*X148350Y312750D01*
X145350Y313500D02*X147600D01*
X144600Y312750D02*X145350Y313500D01*
X144600Y312750D02*Y311250D01*
X145350Y310500D01*
X147600D01*
X148350Y309750D01*
Y308250D01*
X147600Y307500D02*X148350Y308250D01*
X145350Y307500D02*X147600D01*
X144600Y308250D02*X145350Y307500D01*
X98000Y309750D02*X101000Y313500D01*
X98000Y309750D02*X101750D01*
X101000Y313500D02*Y307500D01*
X45000Y308250D02*X45750Y307500D01*
X45000Y312750D02*Y308250D01*
Y312750D02*X45750Y313500D01*
X47250D01*
X48000Y312750D01*
Y308250D01*
X47250Y307500D02*X48000Y308250D01*
X45750Y307500D02*X47250D01*
X45000Y309000D02*X48000Y312000D01*
X49800Y307500D02*X50550D01*
X52350Y308250D02*X53100Y307500D01*
X52350Y312750D02*Y308250D01*
Y312750D02*X53100Y313500D01*
X54600D01*
X55350Y312750D01*
Y308250D01*
X54600Y307500D02*X55350Y308250D01*
X53100Y307500D02*X54600D01*
X52350Y309000D02*X55350Y312000D01*
X57150Y309750D02*X60150Y313500D01*
X57150Y309750D02*X60900D01*
X60150Y313500D02*Y307500D01*
X62700Y308250D02*X63450Y307500D01*
X62700Y312750D02*Y308250D01*
Y312750D02*X63450Y313500D01*
X64950D01*
X65700Y312750D01*
Y308250D01*
X64950Y307500D02*X65700Y308250D01*
X63450Y307500D02*X64950D01*
X62700Y309000D02*X65700Y312000D01*
X49200Y90000D02*G75*G03X50800Y90000I800J0D01*G01*
G75*G03X49200Y90000I-800J0D01*G01*
X59200D02*G75*G03X60800Y90000I800J0D01*G01*
G75*G03X59200Y90000I-800J0D01*G01*
X69200D02*G75*G03X70800Y90000I800J0D01*G01*
G75*G03X69200Y90000I-800J0D01*G01*
X79200D02*G75*G03X80800Y90000I800J0D01*G01*
G75*G03X79200Y90000I-800J0D01*G01*
X89200D02*G75*G03X90800Y90000I800J0D01*G01*
G75*G03X89200Y90000I-800J0D01*G01*
X99200D02*G75*G03X100800Y90000I800J0D01*G01*
G75*G03X99200Y90000I-800J0D01*G01*
X109200D02*G75*G03X110800Y90000I800J0D01*G01*
G75*G03X109200Y90000I-800J0D01*G01*
X119200D02*G75*G03X120800Y90000I800J0D01*G01*
G75*G03X119200Y90000I-800J0D01*G01*
X129200D02*G75*G03X130800Y90000I800J0D01*G01*
G75*G03X129200Y90000I-800J0D01*G01*
X49200Y280000D02*G75*G03X50800Y280000I800J0D01*G01*
G75*G03X49200Y280000I-800J0D01*G01*
X59200D02*G75*G03X60800Y280000I800J0D01*G01*
G75*G03X59200Y280000I-800J0D01*G01*
X69200D02*G75*G03X70800Y280000I800J0D01*G01*
G75*G03X69200Y280000I-800J0D01*G01*
X79200D02*G75*G03X80800Y280000I800J0D01*G01*
G75*G03X79200Y280000I-800J0D01*G01*
X89200D02*G75*G03X90800Y280000I800J0D01*G01*
G75*G03X89200Y280000I-800J0D01*G01*
X99200D02*G75*G03X100800Y280000I800J0D01*G01*
G75*G03X99200Y280000I-800J0D01*G01*
X109200D02*G75*G03X110800Y280000I800J0D01*G01*
G75*G03X109200Y280000I-800J0D01*G01*
X119200D02*G75*G03X120800Y280000I800J0D01*G01*
G75*G03X119200Y280000I-800J0D01*G01*
X129200D02*G75*G03X130800Y280000I800J0D01*G01*
G75*G03X129200Y280000I-800J0D01*G01*
X139200D02*G75*G03X140800Y280000I800J0D01*G01*
G75*G03X139200Y280000I-800J0D01*G01*
Y270000D02*G75*G03X140800Y270000I800J0D01*G01*
G75*G03X139200Y270000I-800J0D01*G01*
Y260000D02*G75*G03X140800Y260000I800J0D01*G01*
G75*G03X139200Y260000I-800J0D01*G01*
Y250000D02*G75*G03X140800Y250000I800J0D01*G01*
G75*G03X139200Y250000I-800J0D01*G01*
Y240000D02*G75*G03X140800Y240000I800J0D01*G01*
G75*G03X139200Y240000I-800J0D01*G01*
Y230000D02*G75*G03X140800Y230000I800J0D01*G01*
G75*G03X139200Y230000I-800J0D01*G01*
Y220000D02*G75*G03X140800Y220000I800J0D01*G01*
G75*G03X139200Y220000I-800J0D01*G01*
Y210000D02*G75*G03X140800Y210000I800J0D01*G01*
G75*G03X139200Y210000I-800J0D01*G01*
Y200000D02*G75*G03X140800Y200000I800J0D01*G01*
G75*G03X139200Y200000I-800J0D01*G01*
Y190000D02*G75*G03X140800Y190000I800J0D01*G01*
G75*G03X139200Y190000I-800J0D01*G01*
Y180000D02*G75*G03X140800Y180000I800J0D01*G01*
G75*G03X139200Y180000I-800J0D01*G01*
Y170000D02*G75*G03X140800Y170000I800J0D01*G01*
G75*G03X139200Y170000I-800J0D01*G01*
Y160000D02*G75*G03X140800Y160000I800J0D01*G01*
G75*G03X139200Y160000I-800J0D01*G01*
Y150000D02*G75*G03X140800Y150000I800J0D01*G01*
G75*G03X139200Y150000I-800J0D01*G01*
Y140000D02*G75*G03X140800Y140000I800J0D01*G01*
G75*G03X139200Y140000I-800J0D01*G01*
Y130000D02*G75*G03X140800Y130000I800J0D01*G01*
G75*G03X139200Y130000I-800J0D01*G01*
Y120000D02*G75*G03X140800Y120000I800J0D01*G01*
G75*G03X139200Y120000I-800J0D01*G01*
Y110000D02*G75*G03X140800Y110000I800J0D01*G01*
G75*G03X139200Y110000I-800J0D01*G01*
Y100000D02*G75*G03X140800Y100000I800J0D01*G01*
G75*G03X139200Y100000I-800J0D01*G01*
Y90000D02*G75*G03X140800Y90000I800J0D01*G01*
G75*G03X139200Y90000I-800J0D01*G01*
X39200Y280000D02*G75*G03X40800Y280000I800J0D01*G01*
G75*G03X39200Y280000I-800J0D01*G01*
Y270000D02*G75*G03X40800Y270000I800J0D01*G01*
G75*G03X39200Y270000I-800J0D01*G01*
Y260000D02*G75*G03X40800Y260000I800J0D01*G01*
G75*G03X39200Y260000I-800J0D01*G01*
Y250000D02*G75*G03X40800Y250000I800J0D01*G01*
G75*G03X39200Y250000I-800J0D01*G01*
Y240000D02*G75*G03X40800Y240000I800J0D01*G01*
G75*G03X39200Y240000I-800J0D01*G01*
Y230000D02*G75*G03X40800Y230000I800J0D01*G01*
G75*G03X39200Y230000I-800J0D01*G01*
Y220000D02*G75*G03X40800Y220000I800J0D01*G01*
G75*G03X39200Y220000I-800J0D01*G01*
Y210000D02*G75*G03X40800Y210000I800J0D01*G01*
G75*G03X39200Y210000I-800J0D01*G01*
Y200000D02*G75*G03X40800Y200000I800J0D01*G01*
G75*G03X39200Y200000I-800J0D01*G01*
Y190000D02*G75*G03X40800Y190000I800J0D01*G01*
G75*G03X39200Y190000I-800J0D01*G01*
Y180000D02*G75*G03X40800Y180000I800J0D01*G01*
G75*G03X39200Y180000I-800J0D01*G01*
Y170000D02*G75*G03X40800Y170000I800J0D01*G01*
G75*G03X39200Y170000I-800J0D01*G01*
Y160000D02*G75*G03X40800Y160000I800J0D01*G01*
G75*G03X39200Y160000I-800J0D01*G01*
Y150000D02*G75*G03X40800Y150000I800J0D01*G01*
G75*G03X39200Y150000I-800J0D01*G01*
Y140000D02*G75*G03X40800Y140000I800J0D01*G01*
G75*G03X39200Y140000I-800J0D01*G01*
Y130000D02*G75*G03X40800Y130000I800J0D01*G01*
G75*G03X39200Y130000I-800J0D01*G01*
Y120000D02*G75*G03X40800Y120000I800J0D01*G01*
G75*G03X39200Y120000I-800J0D01*G01*
Y110000D02*G75*G03X40800Y110000I800J0D01*G01*
G75*G03X39200Y110000I-800J0D01*G01*
Y100000D02*G75*G03X40800Y100000I800J0D01*G01*
G75*G03X39200Y100000I-800J0D01*G01*
Y90000D02*G75*G03X40800Y90000I800J0D01*G01*
G75*G03X39200Y90000I-800J0D01*G01*
X69200Y180000D02*G75*G03X70800Y180000I800J0D01*G01*
G75*G03X69200Y180000I-800J0D01*G01*
X79200D02*G75*G03X80800Y180000I800J0D01*G01*
G75*G03X79200Y180000I-800J0D01*G01*
X89200D02*G75*G03X90800Y180000I800J0D01*G01*
G75*G03X89200Y180000I-800J0D01*G01*
X99200D02*G75*G03X100800Y180000I800J0D01*G01*
G75*G03X99200Y180000I-800J0D01*G01*
X109200D02*G75*G03X110800Y180000I800J0D01*G01*
G75*G03X109200Y180000I-800J0D01*G01*
X119200D02*G75*G03X120800Y180000I800J0D01*G01*
G75*G03X119200Y180000I-800J0D01*G01*
X129200D02*G75*G03X130800Y180000I800J0D01*G01*
G75*G03X129200Y180000I-800J0D01*G01*
X14200Y326250D02*G75*G03X15800Y326250I800J0D01*G01*
G75*G03X14200Y326250I-800J0D01*G01*
X135000Y328500D02*X136500Y325500D01*
X138000Y328500D01*
X136500Y325500D02*Y322500D01*
X139800Y325800D02*X142050D01*
X139800Y322500D02*X142800D01*
X139800Y328500D02*Y322500D01*
Y328500D02*X142800D01*
X147600D02*X148350Y327750D01*
X145350Y328500D02*X147600D01*
X144600Y327750D02*X145350Y328500D01*
X144600Y327750D02*Y326250D01*
X145350Y325500D01*
X147600D01*
X148350Y324750D01*
Y323250D01*
X147600Y322500D02*X148350Y323250D01*
X145350Y322500D02*X147600D01*
X144600Y323250D02*X145350Y322500D01*
X100250Y328500D02*X101000Y327750D01*
X98750Y328500D02*X100250D01*
X98000Y327750D02*X98750Y328500D01*
X98000Y327750D02*Y323250D01*
X98750Y322500D01*
X100250Y325800D02*X101000Y325050D01*
X98000Y325800D02*X100250D01*
X98750Y322500D02*X100250D01*
X101000Y323250D01*
Y325050D02*Y323250D01*
X102800Y328500D02*X105800D01*
X102800D02*Y325500D01*
X103550Y326250D01*
X105050D01*
X105800Y325500D01*
Y323250D01*
X105050Y322500D02*X105800Y323250D01*
X103550Y322500D02*X105050D01*
X102800Y323250D02*X103550Y322500D01*
X45000Y323250D02*X45750Y322500D01*
X45000Y327750D02*Y323250D01*
Y327750D02*X45750Y328500D01*
X47250D01*
X48000Y327750D01*
Y323250D01*
X47250Y322500D02*X48000Y323250D01*
X45750Y322500D02*X47250D01*
X45000Y324000D02*X48000Y327000D01*
X49800Y322500D02*X50550D01*
X52350Y323250D02*X53100Y322500D01*
X52350Y327750D02*Y323250D01*
Y327750D02*X53100Y328500D01*
X54600D01*
X55350Y327750D01*
Y323250D01*
X54600Y322500D02*X55350Y323250D01*
X53100Y322500D02*X54600D01*
X52350Y324000D02*X55350Y327000D01*
X57150Y327750D02*X57900Y328500D01*
X59400D01*
X60150Y327750D01*
X59400Y322500D02*X60150Y323250D01*
X57900Y322500D02*X59400D01*
X57150Y323250D02*X57900Y322500D01*
Y325800D02*X59400D01*
X60150Y327750D02*Y326550D01*
Y325050D02*Y323250D01*
Y325050D02*X59400Y325800D01*
X60150Y326550D02*X59400Y325800D01*
X61950Y323250D02*X62700Y322500D01*
X61950Y324450D02*Y323250D01*
Y324450D02*X63000Y325500D01*
X63900D01*
X64950Y324450D01*
Y323250D01*
X64200Y322500D02*X64950Y323250D01*
X62700Y322500D02*X64200D01*
X61950Y326550D02*X63000Y325500D01*
X61950Y327750D02*Y326550D01*
Y327750D02*X62700Y328500D01*
X64200D01*
X64950Y327750D01*
Y326550D01*
X63900Y325500D02*X64950Y326550D01*
X68800Y119200D02*X71200Y116800D01*
X68800D02*X71200Y119200D01*
X13800Y342450D02*X16200Y340050D01*
X13800D02*X16200Y342450D01*
X135000Y343500D02*X136500Y340500D01*
X138000Y343500D01*
X136500Y340500D02*Y337500D01*
X139800Y340800D02*X142050D01*
X139800Y337500D02*X142800D01*
X139800Y343500D02*Y337500D01*
Y343500D02*X142800D01*
X147600D02*X148350Y342750D01*
X145350Y343500D02*X147600D01*
X144600Y342750D02*X145350Y343500D01*
X144600Y342750D02*Y341250D01*
X145350Y340500D01*
X147600D01*
X148350Y339750D01*
Y338250D01*
X147600Y337500D02*X148350Y338250D01*
X145350Y337500D02*X147600D01*
X144600Y338250D02*X145350Y337500D01*
X98000Y342300D02*X99200Y343500D01*
Y337500D01*
X98000D02*X100250D01*
X45000Y338250D02*X45750Y337500D01*
X45000Y342750D02*Y338250D01*
Y342750D02*X45750Y343500D01*
X47250D01*
X48000Y342750D01*
Y338250D01*
X47250Y337500D02*X48000Y338250D01*
X45750Y337500D02*X47250D01*
X45000Y339000D02*X48000Y342000D01*
X49800Y337500D02*X50550D01*
X52350Y338250D02*X53100Y337500D01*
X52350Y342750D02*Y338250D01*
Y342750D02*X53100Y343500D01*
X54600D01*
X55350Y342750D01*
Y338250D01*
X54600Y337500D02*X55350Y338250D01*
X53100Y337500D02*X54600D01*
X52350Y339000D02*X55350Y342000D01*
X57150Y342750D02*X57900Y343500D01*
X59400D01*
X60150Y342750D01*
X59400Y337500D02*X60150Y338250D01*
X57900Y337500D02*X59400D01*
X57150Y338250D02*X57900Y337500D01*
Y340800D02*X59400D01*
X60150Y342750D02*Y341550D01*
Y340050D02*Y338250D01*
Y340050D02*X59400Y340800D01*
X60150Y341550D02*X59400Y340800D01*
X61950Y343500D02*X64950D01*
X61950D02*Y340500D01*
X62700Y341250D01*
X64200D01*
X64950Y340500D01*
Y338250D01*
X64200Y337500D02*X64950Y338250D01*
X62700Y337500D02*X64200D01*
X61950Y338250D02*X62700Y337500D01*
X62000Y51600D02*Y48400D01*
X60400Y50000D02*X63600D01*
X102000Y51600D02*Y48400D01*
X100400Y50000D02*X103600D01*
X62000Y38300D02*Y35100D01*
X60400Y36700D02*X63600D01*
X102000Y38300D02*Y35100D01*
X100400Y36700D02*X103600D01*
X15000Y357850D02*Y354650D01*
X13400Y356250D02*X16600D01*
X135000Y358500D02*X136500Y355500D01*
X138000Y358500D01*
X136500Y355500D02*Y352500D01*
X139800Y355800D02*X142050D01*
X139800Y352500D02*X142800D01*
X139800Y358500D02*Y352500D01*
Y358500D02*X142800D01*
X147600D02*X148350Y357750D01*
X145350Y358500D02*X147600D01*
X144600Y357750D02*X145350Y358500D01*
X144600Y357750D02*Y356250D01*
X145350Y355500D01*
X147600D01*
X148350Y354750D01*
Y353250D01*
X147600Y352500D02*X148350Y353250D01*
X145350Y352500D02*X147600D01*
X144600Y353250D02*X145350Y352500D01*
X98000Y354750D02*X101000Y358500D01*
X98000Y354750D02*X101750D01*
X101000Y358500D02*Y352500D01*
X45000Y353250D02*X45750Y352500D01*
X45000Y357750D02*Y353250D01*
Y357750D02*X45750Y358500D01*
X47250D01*
X48000Y357750D01*
Y353250D01*
X47250Y352500D02*X48000Y353250D01*
X45750Y352500D02*X47250D01*
X45000Y354000D02*X48000Y357000D01*
X49800Y352500D02*X50550D01*
X52350Y353250D02*X53100Y352500D01*
X52350Y357750D02*Y353250D01*
Y357750D02*X53100Y358500D01*
X54600D01*
X55350Y357750D01*
Y353250D01*
X54600Y352500D02*X55350Y353250D01*
X53100Y352500D02*X54600D01*
X52350Y354000D02*X55350Y357000D01*
X57150Y357750D02*X57900Y358500D01*
X59400D01*
X60150Y357750D01*
X59400Y352500D02*X60150Y353250D01*
X57900Y352500D02*X59400D01*
X57150Y353250D02*X57900Y352500D01*
Y355800D02*X59400D01*
X60150Y357750D02*Y356550D01*
Y355050D02*Y353250D01*
Y355050D02*X59400Y355800D01*
X60150Y356550D02*X59400Y355800D01*
X61950Y353250D02*X62700Y352500D01*
X61950Y357750D02*Y353250D01*
Y357750D02*X62700Y358500D01*
X64200D01*
X64950Y357750D01*
Y353250D01*
X64200Y352500D02*X64950Y353250D01*
X62700Y352500D02*X64200D01*
X61950Y354000D02*X64950Y357000D01*
X90750Y214500D02*Y212900D01*
Y214500D02*X92137Y215300D01*
X90750Y214500D02*X89363Y215300D01*
X111250Y209500D02*Y207900D01*
Y209500D02*X112637Y210300D01*
X111250Y209500D02*X109863Y210300D01*
X95000Y226000D02*Y224400D01*
Y226000D02*X96387Y226800D01*
X95000Y226000D02*X93613Y226800D01*
X117000Y226000D02*Y224400D01*
Y226000D02*X118387Y226800D01*
X117000Y226000D02*X115613Y226800D01*
X90750Y204500D02*Y202900D01*
Y204500D02*X92137Y205300D01*
X90750Y204500D02*X89363Y205300D01*
X79000Y233000D02*Y231400D01*
Y233000D02*X80387Y233800D01*
X79000Y233000D02*X77613Y233800D01*
X90750Y255500D02*Y253900D01*
Y255500D02*X92137Y256300D01*
X90750Y255500D02*X89363Y256300D01*
X111250Y250500D02*Y248900D01*
Y250500D02*X112637Y251300D01*
X111250Y250500D02*X109863Y251300D01*
X90750Y245500D02*Y243900D01*
Y245500D02*X92137Y246300D01*
X90750Y245500D02*X89363Y246300D01*
X83000Y262000D02*Y260400D01*
Y262000D02*X84387Y262800D01*
X83000Y262000D02*X81613Y262800D01*
X73000Y226000D02*Y224400D01*
Y226000D02*X74387Y226800D01*
X73000Y226000D02*X71613Y226800D01*
X48000Y226000D02*Y224400D01*
Y226000D02*X49387Y226800D01*
X48000Y226000D02*X46613Y226800D01*
X88000Y190000D02*Y188400D01*
Y190000D02*X89387Y190800D01*
X88000Y190000D02*X86613Y190800D01*
X80000Y190000D02*Y188400D01*
Y190000D02*X81387Y190800D01*
X80000Y190000D02*X78613Y190800D01*
X60000Y198000D02*Y196400D01*
Y198000D02*X61387Y198800D01*
X60000Y198000D02*X58613Y198800D01*
X67095Y208095D02*Y206495D01*
Y208095D02*X68482Y208895D01*
X67095Y208095D02*X65708Y208895D01*
X15000Y371250D02*Y369650D01*
Y371250D02*X16387Y372050D01*
X15000Y371250D02*X13613Y372050D01*
X135000Y373500D02*X136500Y370500D01*
X138000Y373500D01*
X136500Y370500D02*Y367500D01*
X139800Y370800D02*X142050D01*
X139800Y367500D02*X142800D01*
X139800Y373500D02*Y367500D01*
Y373500D02*X142800D01*
X147600D02*X148350Y372750D01*
X145350Y373500D02*X147600D01*
X144600Y372750D02*X145350Y373500D01*
X144600Y372750D02*Y371250D01*
X145350Y370500D01*
X147600D01*
X148350Y369750D01*
Y368250D01*
X147600Y367500D02*X148350Y368250D01*
X145350Y367500D02*X147600D01*
X144600Y368250D02*X145350Y367500D01*
X98000Y372300D02*X99200Y373500D01*
Y367500D01*
X98000D02*X100250D01*
X104300Y373500D02*X105050Y372750D01*
X102800Y373500D02*X104300D01*
X102050Y372750D02*X102800Y373500D01*
X102050Y372750D02*Y368250D01*
X102800Y367500D01*
X104300Y370800D02*X105050Y370050D01*
X102050Y370800D02*X104300D01*
X102800Y367500D02*X104300D01*
X105050Y368250D01*
Y370050D02*Y368250D01*
X45000D02*X45750Y367500D01*
X45000Y372750D02*Y368250D01*
Y372750D02*X45750Y373500D01*
X47250D01*
X48000Y372750D01*
Y368250D01*
X47250Y367500D02*X48000Y368250D01*
X45750Y367500D02*X47250D01*
X45000Y369000D02*X48000Y372000D01*
X49800Y367500D02*X50550D01*
X52350Y368250D02*X53100Y367500D01*
X52350Y372750D02*Y368250D01*
Y372750D02*X53100Y373500D01*
X54600D01*
X55350Y372750D01*
Y368250D01*
X54600Y367500D02*X55350Y368250D01*
X53100Y367500D02*X54600D01*
X52350Y369000D02*X55350Y372000D01*
X57150Y372750D02*X57900Y373500D01*
X60150D01*
X60900Y372750D01*
Y371250D01*
X57150Y367500D02*X60900Y371250D01*
X57150Y367500D02*X60900D01*
X62700Y368250D02*X63450Y367500D01*
X62700Y372750D02*Y368250D01*
Y372750D02*X63450Y373500D01*
X64950D01*
X65700Y372750D01*
Y368250D01*
X64950Y367500D02*X65700Y368250D01*
X63450Y367500D02*X64950D01*
X62700Y369000D02*X65700Y372000D01*
X3000Y388500D02*X3750Y387750D01*
X750Y388500D02*X3000D01*
X0Y387750D02*X750Y388500D01*
X0Y387750D02*Y386250D01*
X750Y385500D01*
X3000D01*
X3750Y384750D01*
Y383250D01*
X3000Y382500D02*X3750Y383250D01*
X750Y382500D02*X3000D01*
X0Y383250D02*X750Y382500D01*
X5550Y385500D02*Y383250D01*
X6300Y382500D01*
X8550Y385500D02*Y381000D01*
X7800Y380250D02*X8550Y381000D01*
X6300Y380250D02*X7800D01*
X5550Y381000D02*X6300Y380250D01*
Y382500D02*X7800D01*
X8550Y383250D01*
X11100Y384750D02*Y382500D01*
Y384750D02*X11850Y385500D01*
X12600D01*
X13350Y384750D01*
Y382500D01*
Y384750D02*X14100Y385500D01*
X14850D01*
X15600Y384750D01*
Y382500D01*
X10350Y385500D02*X11100Y384750D01*
X17400Y388500D02*Y382500D01*
Y383250D02*X18150Y382500D01*
X19650D01*
X20400Y383250D01*
Y384750D02*Y383250D01*
X19650Y385500D02*X20400Y384750D01*
X18150Y385500D02*X19650D01*
X17400Y384750D02*X18150Y385500D01*
X22200Y384750D02*Y383250D01*
Y384750D02*X22950Y385500D01*
X24450D01*
X25200Y384750D01*
Y383250D01*
X24450Y382500D02*X25200Y383250D01*
X22950Y382500D02*X24450D01*
X22200Y383250D02*X22950Y382500D01*
X27000Y388500D02*Y383250D01*
X27750Y382500D01*
X0Y379250D02*X29250D01*
X41750Y388500D02*Y382500D01*
X43700Y388500D02*X44750Y387450D01*
Y383550D01*
X43700Y382500D02*X44750Y383550D01*
X41000Y382500D02*X43700D01*
X41000Y388500D02*X43700D01*
G54D60*X46550Y387000D02*Y386850D01*
G54D59*Y384750D02*Y382500D01*
X50300Y385500D02*X51050Y384750D01*
X48800Y385500D02*X50300D01*
X48050Y384750D02*X48800Y385500D01*
X48050Y384750D02*Y383250D01*
X48800Y382500D01*
X51050Y385500D02*Y383250D01*
X51800Y382500D01*
X48800D02*X50300D01*
X51050Y383250D01*
X54350Y384750D02*Y382500D01*
Y384750D02*X55100Y385500D01*
X55850D01*
X56600Y384750D01*
Y382500D01*
Y384750D02*X57350Y385500D01*
X58100D01*
X58850Y384750D01*
Y382500D01*
X53600Y385500D02*X54350Y384750D01*
X60650Y382500D02*X61400D01*
X65900Y383250D02*X66650Y382500D01*
X65900Y387750D02*X66650Y388500D01*
X65900Y387750D02*Y383250D01*
X68450Y388500D02*X69950D01*
X69200D02*Y382500D01*
X68450D02*X69950D01*
X72500Y384750D02*Y382500D01*
Y384750D02*X73250Y385500D01*
X74000D01*
X74750Y384750D01*
Y382500D01*
X71750Y385500D02*X72500Y384750D01*
X77300Y385500D02*X79550D01*
X76550Y384750D02*X77300Y385500D01*
X76550Y384750D02*Y383250D01*
X77300Y382500D01*
X79550D01*
X81350Y388500D02*Y382500D01*
Y384750D02*X82100Y385500D01*
X83600D01*
X84350Y384750D01*
Y382500D01*
X86150Y388500D02*X86900Y387750D01*
Y383250D01*
X86150Y382500D02*X86900Y383250D01*
X41000Y379250D02*X88700D01*
X96050Y382500D02*X98000D01*
X95000Y383550D02*X96050Y382500D01*
X95000Y387450D02*Y383550D01*
Y387450D02*X96050Y388500D01*
X98000D01*
X99800Y384750D02*Y383250D01*
Y384750D02*X100550Y385500D01*
X102050D01*
X102800Y384750D01*
Y383250D01*
X102050Y382500D02*X102800Y383250D01*
X100550Y382500D02*X102050D01*
X99800Y383250D02*X100550Y382500D01*
X104600Y385500D02*Y383250D01*
X105350Y382500D01*
X106850D01*
X107600Y383250D01*
Y385500D02*Y383250D01*
X110150Y384750D02*Y382500D01*
Y384750D02*X110900Y385500D01*
X111650D01*
X112400Y384750D01*
Y382500D01*
X109400Y385500D02*X110150Y384750D01*
X114950Y388500D02*Y383250D01*
X115700Y382500D01*
X114200Y386250D02*X115700D01*
X95000Y379250D02*X117200D01*
X130750Y388500D02*Y382500D01*
X130000Y388500D02*X133000D01*
X133750Y387750D01*
Y386250D01*
X133000Y385500D02*X133750Y386250D01*
X130750Y385500D02*X133000D01*
X135550Y388500D02*Y383250D01*
X136300Y382500D01*
X140050Y385500D02*X140800Y384750D01*
X138550Y385500D02*X140050D01*
X137800Y384750D02*X138550Y385500D01*
X137800Y384750D02*Y383250D01*
X138550Y382500D01*
X140800Y385500D02*Y383250D01*
X141550Y382500D01*
X138550D02*X140050D01*
X140800Y383250D01*
X144100Y388500D02*Y383250D01*
X144850Y382500D01*
X143350Y386250D02*X144850D01*
X147100Y382500D02*X149350D01*
X146350Y383250D02*X147100Y382500D01*
X146350Y384750D02*Y383250D01*
Y384750D02*X147100Y385500D01*
X148600D01*
X149350Y384750D01*
X146350Y384000D02*X149350D01*
Y384750D02*Y384000D01*
X154150Y388500D02*Y382500D01*
X153400D02*X154150Y383250D01*
X151900Y382500D02*X153400D01*
X151150Y383250D02*X151900Y382500D01*
X151150Y384750D02*Y383250D01*
Y384750D02*X151900Y385500D01*
X153400D01*
X154150Y384750D01*
X157450Y385500D02*Y384750D01*
Y383250D02*Y382500D01*
X155950Y387750D02*Y387000D01*
Y387750D02*X156700Y388500D01*
X158200D01*
X158950Y387750D01*
Y387000D01*
X157450Y385500D02*X158950Y387000D01*
X130000Y379250D02*X160750D01*
X0Y403500D02*X3000D01*
X1500D02*Y397500D01*
X4800Y403500D02*Y397500D01*
Y399750D02*X5550Y400500D01*
X7050D01*
X7800Y399750D01*
Y397500D01*
X10350D02*X12600D01*
X9600Y398250D02*X10350Y397500D01*
X9600Y399750D02*Y398250D01*
Y399750D02*X10350Y400500D01*
X11850D01*
X12600Y399750D01*
X9600Y399000D02*X12600D01*
Y399750D02*Y399000D01*
X15150Y399750D02*Y397500D01*
Y399750D02*X15900Y400500D01*
X17400D01*
X14400D02*X15150Y399750D01*
X19950Y397500D02*X22200D01*
X19200Y398250D02*X19950Y397500D01*
X19200Y399750D02*Y398250D01*
Y399750D02*X19950Y400500D01*
X21450D01*
X22200Y399750D01*
X19200Y399000D02*X22200D01*
Y399750D02*Y399000D01*
X28950Y400500D02*X29700Y399750D01*
X27450Y400500D02*X28950D01*
X26700Y399750D02*X27450Y400500D01*
X26700Y399750D02*Y398250D01*
X27450Y397500D01*
X29700Y400500D02*Y398250D01*
X30450Y397500D01*
X27450D02*X28950D01*
X29700Y398250D01*
X33000Y399750D02*Y397500D01*
Y399750D02*X33750Y400500D01*
X35250D01*
X32250D02*X33000Y399750D01*
X37800Y397500D02*X40050D01*
X37050Y398250D02*X37800Y397500D01*
X37050Y399750D02*Y398250D01*
Y399750D02*X37800Y400500D01*
X39300D01*
X40050Y399750D01*
X37050Y399000D02*X40050D01*
Y399750D02*Y399000D01*
X44550Y403500D02*X47550D01*
X44550D02*Y400500D01*
X45300Y401250D01*
X46800D01*
X47550Y400500D01*
Y398250D01*
X46800Y397500D02*X47550Y398250D01*
X45300Y397500D02*X46800D01*
X44550Y398250D02*X45300Y397500D01*
X55050Y403500D02*Y397500D01*
X54300D02*X55050Y398250D01*
X52800Y397500D02*X54300D01*
X52050Y398250D02*X52800Y397500D01*
X52050Y399750D02*Y398250D01*
Y399750D02*X52800Y400500D01*
X54300D01*
X55050Y399750D01*
G54D60*X56850Y402000D02*Y401850D01*
G54D59*Y399750D02*Y397500D01*
X59100Y402750D02*Y397500D01*
Y402750D02*X59850Y403500D01*
X60600D01*
X58350Y400500D02*X59850D01*
X62850Y402750D02*Y397500D01*
Y402750D02*X63600Y403500D01*
X64350D01*
X62100Y400500D02*X63600D01*
X66600Y397500D02*X68850D01*
X65850Y398250D02*X66600Y397500D01*
X65850Y399750D02*Y398250D01*
Y399750D02*X66600Y400500D01*
X68100D01*
X68850Y399750D01*
X65850Y399000D02*X68850D01*
Y399750D02*Y399000D01*
X71400Y399750D02*Y397500D01*
Y399750D02*X72150Y400500D01*
X73650D01*
X70650D02*X71400Y399750D01*
X76200Y397500D02*X78450D01*
X75450Y398250D02*X76200Y397500D01*
X75450Y399750D02*Y398250D01*
Y399750D02*X76200Y400500D01*
X77700D01*
X78450Y399750D01*
X75450Y399000D02*X78450D01*
Y399750D02*Y399000D01*
X81000Y399750D02*Y397500D01*
Y399750D02*X81750Y400500D01*
X82500D01*
X83250Y399750D01*
Y397500D01*
X80250Y400500D02*X81000Y399750D01*
X85800Y403500D02*Y398250D01*
X86550Y397500D01*
X85050Y401250D02*X86550D01*
X93750Y403500D02*Y397500D01*
X93000D02*X93750Y398250D01*
X91500Y397500D02*X93000D01*
X90750Y398250D02*X91500Y397500D01*
X90750Y399750D02*Y398250D01*
Y399750D02*X91500Y400500D01*
X93000D01*
X93750Y399750D01*
X96300D02*Y397500D01*
Y399750D02*X97050Y400500D01*
X98550D01*
X95550D02*X96300Y399750D01*
G54D60*X100350Y402000D02*Y401850D01*
G54D59*Y399750D02*Y397500D01*
X101850Y403500D02*Y398250D01*
X102600Y397500D01*
X104100Y403500D02*Y398250D01*
X104850Y397500D01*
X109800D02*X112050D01*
X112800Y398250D01*
X112050Y399000D02*X112800Y398250D01*
X109800Y399000D02*X112050D01*
X109050Y399750D02*X109800Y399000D01*
X109050Y399750D02*X109800Y400500D01*
X112050D01*
X112800Y399750D01*
X109050Y398250D02*X109800Y397500D01*
G54D60*X114600Y402000D02*Y401850D01*
G54D59*Y399750D02*Y397500D01*
X116100Y400500D02*X119100D01*
X116100Y397500D02*X119100Y400500D01*
X116100Y397500D02*X119100D01*
X121650D02*X123900D01*
X120900Y398250D02*X121650Y397500D01*
X120900Y399750D02*Y398250D01*
Y399750D02*X121650Y400500D01*
X123150D01*
X123900Y399750D01*
X120900Y399000D02*X123900D01*
Y399750D02*Y399000D01*
X126450Y397500D02*X128700D01*
X129450Y398250D01*
X128700Y399000D02*X129450Y398250D01*
X126450Y399000D02*X128700D01*
X125700Y399750D02*X126450Y399000D01*
X125700Y399750D02*X126450Y400500D01*
X128700D01*
X129450Y399750D01*
X125700Y398250D02*X126450Y397500D01*
X133950Y400500D02*Y398250D01*
X134700Y397500D01*
X136200D01*
X136950Y398250D01*
Y400500D02*Y398250D01*
X139500Y397500D02*X141750D01*
X142500Y398250D01*
X141750Y399000D02*X142500Y398250D01*
X139500Y399000D02*X141750D01*
X138750Y399750D02*X139500Y399000D01*
X138750Y399750D02*X139500Y400500D01*
X141750D01*
X142500Y399750D01*
X138750Y398250D02*X139500Y397500D01*
X145050D02*X147300D01*
X144300Y398250D02*X145050Y397500D01*
X144300Y399750D02*Y398250D01*
Y399750D02*X145050Y400500D01*
X146550D01*
X147300Y399750D01*
X144300Y399000D02*X147300D01*
Y399750D02*Y399000D01*
X152100Y403500D02*Y397500D01*
X151350D02*X152100Y398250D01*
X149850Y397500D02*X151350D01*
X149100Y398250D02*X149850Y397500D01*
X149100Y399750D02*Y398250D01*
Y399750D02*X149850Y400500D01*
X151350D01*
X152100Y399750D01*
G54D60*X156600Y402000D02*Y401850D01*
G54D59*Y399750D02*Y397500D01*
X158850Y399750D02*Y397500D01*
Y399750D02*X159600Y400500D01*
X160350D01*
X161100Y399750D01*
Y397500D01*
X158100Y400500D02*X158850Y399750D01*
X166350Y403500D02*Y398250D01*
X167100Y397500D01*
X165600Y401250D02*X167100D01*
X168600Y403500D02*Y397500D01*
Y399750D02*X169350Y400500D01*
X170850D01*
X171600Y399750D01*
Y397500D01*
G54D60*X173400Y402000D02*Y401850D01*
G54D59*Y399750D02*Y397500D01*
X175650D02*X177900D01*
X178650Y398250D01*
X177900Y399000D02*X178650Y398250D01*
X175650Y399000D02*X177900D01*
X174900Y399750D02*X175650Y399000D01*
X174900Y399750D02*X175650Y400500D01*
X177900D01*
X178650Y399750D01*
X174900Y398250D02*X175650Y397500D01*
X183150Y403500D02*Y398250D01*
X183900Y397500D01*
X187650Y400500D02*X188400Y399750D01*
X186150Y400500D02*X187650D01*
X185400Y399750D02*X186150Y400500D01*
X185400Y399750D02*Y398250D01*
X186150Y397500D01*
X188400Y400500D02*Y398250D01*
X189150Y397500D01*
X186150D02*X187650D01*
X188400Y398250D01*
X190950Y400500D02*Y398250D01*
X191700Y397500D01*
X193950Y400500D02*Y396000D01*
X193200Y395250D02*X193950Y396000D01*
X191700Y395250D02*X193200D01*
X190950Y396000D02*X191700Y395250D01*
Y397500D02*X193200D01*
X193950Y398250D01*
X195750Y399750D02*Y398250D01*
Y399750D02*X196500Y400500D01*
X198000D01*
X198750Y399750D01*
Y398250D01*
X198000Y397500D02*X198750Y398250D01*
X196500Y397500D02*X198000D01*
X195750Y398250D02*X196500Y397500D01*
X200550Y400500D02*Y398250D01*
X201300Y397500D01*
X202800D01*
X203550Y398250D01*
Y400500D02*Y398250D01*
X206100Y403500D02*Y398250D01*
X206850Y397500D01*
X205350Y401250D02*X206850D01*
X208350Y396000D02*X209850Y397500D01*
X215100D02*X217350Y400500D01*
Y402750D02*Y400500D01*
X216600Y403500D02*X217350Y402750D01*
X215100Y403500D02*X216600D01*
X214350Y402750D02*X215100Y403500D01*
X214350Y402750D02*Y401250D01*
X215100Y400500D01*
X217350D01*
X219150Y398250D02*X219900Y397500D01*
X219150Y402750D02*Y398250D01*
Y402750D02*X219900Y403500D01*
X221400D01*
X222150Y402750D01*
Y398250D01*
X221400Y397500D02*X222150Y398250D01*
X219900Y397500D02*X221400D01*
X219150Y399000D02*X222150Y402000D01*
X226650Y403500D02*Y397500D01*
Y399750D02*X227400Y400500D01*
X228900D01*
X229650Y399750D01*
Y397500D01*
X231450Y399750D02*Y398250D01*
Y399750D02*X232200Y400500D01*
X233700D01*
X234450Y399750D01*
Y398250D01*
X233700Y397500D02*X234450Y398250D01*
X232200Y397500D02*X233700D01*
X231450Y398250D02*X232200Y397500D01*
X236250Y403500D02*Y398250D01*
X237000Y397500D01*
X239250D02*X241500D01*
X238500Y398250D02*X239250Y397500D01*
X238500Y399750D02*Y398250D01*
Y399750D02*X239250Y400500D01*
X240750D01*
X241500Y399750D01*
X238500Y399000D02*X241500D01*
Y399750D02*Y399000D01*
X244050Y397500D02*X246300D01*
X247050Y398250D01*
X246300Y399000D02*X247050Y398250D01*
X244050Y399000D02*X246300D01*
X243300Y399750D02*X244050Y399000D01*
X243300Y399750D02*X244050Y400500D01*
X246300D01*
X247050Y399750D01*
X243300Y398250D02*X244050Y397500D01*
X252300Y403500D02*Y398250D01*
X253050Y397500D01*
X251550Y401250D02*X253050D01*
X254550Y399750D02*Y398250D01*
Y399750D02*X255300Y400500D01*
X256800D01*
X257550Y399750D01*
Y398250D01*
X256800Y397500D02*X257550Y398250D01*
X255300Y397500D02*X256800D01*
X254550Y398250D02*X255300Y397500D01*
X260100Y403500D02*Y398250D01*
X260850Y397500D01*
X259350Y401250D02*X260850D01*
X264600Y400500D02*X265350Y399750D01*
X263100Y400500D02*X264600D01*
X262350Y399750D02*X263100Y400500D01*
X262350Y399750D02*Y398250D01*
X263100Y397500D01*
X265350Y400500D02*Y398250D01*
X266100Y397500D01*
X263100D02*X264600D01*
X265350Y398250D01*
X267900Y403500D02*Y398250D01*
X268650Y397500D01*
G54D61*X0Y300000D02*X160000D01*
X0D02*Y0D01*
X160000Y300000D02*Y0D01*
X0D02*X160000D01*
G54D59*X200000Y313500D02*Y307500D01*
Y313500D02*X202250Y310500D01*
X204500Y313500D01*
Y307500D01*
X208550Y310500D02*X209300Y309750D01*
X207050Y310500D02*X208550D01*
X206300Y309750D02*X207050Y310500D01*
X206300Y309750D02*Y308250D01*
X207050Y307500D01*
X209300Y310500D02*Y308250D01*
X210050Y307500D01*
X207050D02*X208550D01*
X209300Y308250D01*
X211850Y310500D02*X214850Y307500D01*
X211850D02*X214850Y310500D01*
G54D60*X216650Y312000D02*Y311850D01*
G54D59*Y309750D02*Y307500D01*
X218900Y309750D02*Y307500D01*
Y309750D02*X219650Y310500D01*
X220400D01*
X221150Y309750D01*
Y307500D01*
Y309750D02*X221900Y310500D01*
X222650D01*
X223400Y309750D01*
Y307500D01*
X218150Y310500D02*X218900Y309750D01*
X225200Y310500D02*Y308250D01*
X225950Y307500D01*
X227450D01*
X228200Y308250D01*
Y310500D02*Y308250D01*
X230750Y309750D02*Y307500D01*
Y309750D02*X231500Y310500D01*
X232250D01*
X233000Y309750D01*
Y307500D01*
Y309750D02*X233750Y310500D01*
X234500D01*
X235250Y309750D01*
Y307500D01*
X230000Y310500D02*X230750Y309750D01*
X240500Y313500D02*Y307500D01*
X242450Y313500D02*X243500Y312450D01*
Y308550D01*
X242450Y307500D02*X243500Y308550D01*
X239750Y307500D02*X242450D01*
X239750Y313500D02*X242450D01*
G54D60*X245300Y312000D02*Y311850D01*
G54D59*Y309750D02*Y307500D01*
X247550Y309750D02*Y307500D01*
Y309750D02*X248300Y310500D01*
X249050D01*
X249800Y309750D01*
Y307500D01*
Y309750D02*X250550Y310500D01*
X251300D01*
X252050Y309750D01*
Y307500D01*
X246800Y310500D02*X247550Y309750D01*
X254600Y307500D02*X256850D01*
X253850Y308250D02*X254600Y307500D01*
X253850Y309750D02*Y308250D01*
Y309750D02*X254600Y310500D01*
X256100D01*
X256850Y309750D01*
X253850Y309000D02*X256850D01*
Y309750D02*Y309000D01*
X259400Y309750D02*Y307500D01*
Y309750D02*X260150Y310500D01*
X260900D01*
X261650Y309750D01*
Y307500D01*
X258650Y310500D02*X259400Y309750D01*
X264200Y307500D02*X266450D01*
X267200Y308250D01*
X266450Y309000D02*X267200Y308250D01*
X264200Y309000D02*X266450D01*
X263450Y309750D02*X264200Y309000D01*
X263450Y309750D02*X264200Y310500D01*
X266450D01*
X267200Y309750D01*
X263450Y308250D02*X264200Y307500D01*
G54D60*X269000Y312000D02*Y311850D01*
G54D59*Y309750D02*Y307500D01*
X270500Y309750D02*Y308250D01*
Y309750D02*X271250Y310500D01*
X272750D01*
X273500Y309750D01*
Y308250D01*
X272750Y307500D02*X273500Y308250D01*
X271250Y307500D02*X272750D01*
X270500Y308250D02*X271250Y307500D01*
X276050Y309750D02*Y307500D01*
Y309750D02*X276800Y310500D01*
X277550D01*
X278300Y309750D01*
Y307500D01*
X275300Y310500D02*X276050Y309750D01*
X280850Y307500D02*X283100D01*
X283850Y308250D01*
X283100Y309000D02*X283850Y308250D01*
X280850Y309000D02*X283100D01*
X280100Y309750D02*X280850Y309000D01*
X280100Y309750D02*X280850Y310500D01*
X283100D01*
X283850Y309750D01*
X280100Y308250D02*X280850Y307500D01*
X285650Y311250D02*X286400D01*
X285650Y309750D02*X286400D01*
X290900Y312300D02*X292100Y313500D01*
Y307500D01*
X290900D02*X293150D01*
X297200Y313500D02*X297950Y312750D01*
X295700Y313500D02*X297200D01*
X294950Y312750D02*X295700Y313500D01*
X294950Y312750D02*Y308250D01*
X295700Y307500D01*
X297200Y310800D02*X297950Y310050D01*
X294950Y310800D02*X297200D01*
X295700Y307500D02*X297200D01*
X297950Y308250D01*
Y310050D02*Y308250D01*
X299750D02*X300500Y307500D01*
X299750Y312750D02*Y308250D01*
Y312750D02*X300500Y313500D01*
X302000D01*
X302750Y312750D01*
Y308250D01*
X302000Y307500D02*X302750Y308250D01*
X300500Y307500D02*X302000D01*
X299750Y309000D02*X302750Y312000D01*
X304550Y308250D02*X305300Y307500D01*
X304550Y312750D02*Y308250D01*
Y312750D02*X305300Y313500D01*
X306800D01*
X307550Y312750D01*
Y308250D01*
X306800Y307500D02*X307550Y308250D01*
X305300Y307500D02*X306800D01*
X304550Y309000D02*X307550Y312000D01*
X309350Y307500D02*X310100D01*
X311900Y308250D02*X312650Y307500D01*
X311900Y312750D02*Y308250D01*
Y312750D02*X312650Y313500D01*
X314150D01*
X314900Y312750D01*
Y308250D01*
X314150Y307500D02*X314900Y308250D01*
X312650Y307500D02*X314150D01*
X311900Y309000D02*X314900Y312000D01*
X316700Y308250D02*X317450Y307500D01*
X316700Y312750D02*Y308250D01*
Y312750D02*X317450Y313500D01*
X318950D01*
X319700Y312750D01*
Y308250D01*
X318950Y307500D02*X319700Y308250D01*
X317450Y307500D02*X318950D01*
X316700Y309000D02*X319700Y312000D01*
X321500Y308250D02*X322250Y307500D01*
X321500Y312750D02*Y308250D01*
Y312750D02*X322250Y313500D01*
X323750D01*
X324500Y312750D01*
Y308250D01*
X323750Y307500D02*X324500Y308250D01*
X322250Y307500D02*X323750D01*
X321500Y309000D02*X324500Y312000D01*
X326300Y308250D02*X327050Y307500D01*
X326300Y312750D02*Y308250D01*
Y312750D02*X327050Y313500D01*
X328550D01*
X329300Y312750D01*
Y308250D01*
X328550Y307500D02*X329300Y308250D01*
X327050Y307500D02*X328550D01*
X326300Y309000D02*X329300Y312000D01*
X331100Y308250D02*X331850Y307500D01*
X331100Y312750D02*Y308250D01*
Y312750D02*X331850Y313500D01*
X333350D01*
X334100Y312750D01*
Y308250D01*
X333350Y307500D02*X334100Y308250D01*
X331850Y307500D02*X333350D01*
X331100Y309000D02*X334100Y312000D01*
X335900Y308250D02*X336650Y307500D01*
X335900Y312750D02*Y308250D01*
Y312750D02*X336650Y313500D01*
X338150D01*
X338900Y312750D01*
Y308250D01*
X338150Y307500D02*X338900Y308250D01*
X336650Y307500D02*X338150D01*
X335900Y309000D02*X338900Y312000D01*
X344150Y309750D02*Y307500D01*
Y309750D02*X344900Y310500D01*
X345650D01*
X346400Y309750D01*
Y307500D01*
Y309750D02*X347150Y310500D01*
X347900D01*
X348650Y309750D01*
Y307500D01*
X343400Y310500D02*X344150Y309750D01*
G54D60*X350450Y312000D02*Y311850D01*
G54D59*Y309750D02*Y307500D01*
X351950Y313500D02*Y308250D01*
X352700Y307500D01*
X354950D02*X357200D01*
X357950Y308250D01*
X357200Y309000D02*X357950Y308250D01*
X354950Y309000D02*X357200D01*
X354200Y309750D02*X354950Y309000D01*
X354200Y309750D02*X354950Y310500D01*
X357200D01*
X357950Y309750D01*
X354200Y308250D02*X354950Y307500D01*
X362450Y310500D02*Y308250D01*
X363200Y307500D01*
X363950D01*
X364700Y308250D01*
Y310500D02*Y308250D01*
X365450Y307500D01*
X366200D01*
X366950Y308250D01*
Y310500D02*Y308250D01*
G54D60*X368750Y312000D02*Y311850D01*
G54D59*Y309750D02*Y307500D01*
X373250Y313500D02*Y307500D01*
X372500D02*X373250Y308250D01*
X371000Y307500D02*X372500D01*
X370250Y308250D02*X371000Y307500D01*
X370250Y309750D02*Y308250D01*
Y309750D02*X371000Y310500D01*
X372500D01*
X373250Y309750D01*
X375800Y307500D02*X378050D01*
X375050Y308250D02*X375800Y307500D01*
X375050Y309750D02*Y308250D01*
Y309750D02*X375800Y310500D01*
X377300D01*
X378050Y309750D01*
X375050Y309000D02*X378050D01*
Y309750D02*Y309000D01*
X379850Y306000D02*X381350Y307500D01*
X385850Y312750D02*X386600Y313500D01*
X388100D01*
X388850Y312750D01*
X388100Y307500D02*X388850Y308250D01*
X386600Y307500D02*X388100D01*
X385850Y308250D02*X386600Y307500D01*
Y310800D02*X388100D01*
X388850Y312750D02*Y311550D01*
Y310050D02*Y308250D01*
Y310050D02*X388100Y310800D01*
X388850Y311550D02*X388100Y310800D01*
X390650Y308250D02*X391400Y307500D01*
X390650Y312750D02*Y308250D01*
Y312750D02*X391400Y313500D01*
X392900D01*
X393650Y312750D01*
Y308250D01*
X392900Y307500D02*X393650Y308250D01*
X391400Y307500D02*X392900D01*
X390650Y309000D02*X393650Y312000D01*
X395450Y308250D02*X396200Y307500D01*
X395450Y312750D02*Y308250D01*
Y312750D02*X396200Y313500D01*
X397700D01*
X398450Y312750D01*
Y308250D01*
X397700Y307500D02*X398450Y308250D01*
X396200Y307500D02*X397700D01*
X395450Y309000D02*X398450Y312000D01*
X400250Y308250D02*X401000Y307500D01*
X400250Y312750D02*Y308250D01*
Y312750D02*X401000Y313500D01*
X402500D01*
X403250Y312750D01*
Y308250D01*
X402500Y307500D02*X403250Y308250D01*
X401000Y307500D02*X402500D01*
X400250Y309000D02*X403250Y312000D01*
X405050Y307500D02*X405800D01*
X407600Y308250D02*X408350Y307500D01*
X407600Y312750D02*Y308250D01*
Y312750D02*X408350Y313500D01*
X409850D01*
X410600Y312750D01*
Y308250D01*
X409850Y307500D02*X410600Y308250D01*
X408350Y307500D02*X409850D01*
X407600Y309000D02*X410600Y312000D01*
X412400Y308250D02*X413150Y307500D01*
X412400Y312750D02*Y308250D01*
Y312750D02*X413150Y313500D01*
X414650D01*
X415400Y312750D01*
Y308250D01*
X414650Y307500D02*X415400Y308250D01*
X413150Y307500D02*X414650D01*
X412400Y309000D02*X415400Y312000D01*
X417200Y308250D02*X417950Y307500D01*
X417200Y312750D02*Y308250D01*
Y312750D02*X417950Y313500D01*
X419450D01*
X420200Y312750D01*
Y308250D01*
X419450Y307500D02*X420200Y308250D01*
X417950Y307500D02*X419450D01*
X417200Y309000D02*X420200Y312000D01*
X422000Y308250D02*X422750Y307500D01*
X422000Y312750D02*Y308250D01*
Y312750D02*X422750Y313500D01*
X424250D01*
X425000Y312750D01*
Y308250D01*
X424250Y307500D02*X425000Y308250D01*
X422750Y307500D02*X424250D01*
X422000Y309000D02*X425000Y312000D01*
X426800Y308250D02*X427550Y307500D01*
X426800Y312750D02*Y308250D01*
Y312750D02*X427550Y313500D01*
X429050D01*
X429800Y312750D01*
Y308250D01*
X429050Y307500D02*X429800Y308250D01*
X427550Y307500D02*X429050D01*
X426800Y309000D02*X429800Y312000D01*
X431600Y308250D02*X432350Y307500D01*
X431600Y312750D02*Y308250D01*
Y312750D02*X432350Y313500D01*
X433850D01*
X434600Y312750D01*
Y308250D01*
X433850Y307500D02*X434600Y308250D01*
X432350Y307500D02*X433850D01*
X431600Y309000D02*X434600Y312000D01*
X439850Y309750D02*Y307500D01*
Y309750D02*X440600Y310500D01*
X441350D01*
X442100Y309750D01*
Y307500D01*
Y309750D02*X442850Y310500D01*
X443600D01*
X444350Y309750D01*
Y307500D01*
X439100Y310500D02*X439850Y309750D01*
G54D60*X446150Y312000D02*Y311850D01*
G54D59*Y309750D02*Y307500D01*
X447650Y313500D02*Y308250D01*
X448400Y307500D01*
X450650D02*X452900D01*
X453650Y308250D01*
X452900Y309000D02*X453650Y308250D01*
X450650Y309000D02*X452900D01*
X449900Y309750D02*X450650Y309000D01*
X449900Y309750D02*X450650Y310500D01*
X452900D01*
X453650Y309750D01*
X449900Y308250D02*X450650Y307500D01*
X458150Y313500D02*Y307500D01*
Y309750D02*X458900Y310500D01*
X460400D01*
X461150Y309750D01*
Y307500D01*
G54D60*X462950Y312000D02*Y311850D01*
G54D59*Y309750D02*Y307500D01*
X466700Y310500D02*X467450Y309750D01*
X465200Y310500D02*X466700D01*
X464450Y309750D02*X465200Y310500D01*
X464450Y309750D02*Y308250D01*
X465200Y307500D01*
X466700D01*
X467450Y308250D01*
X464450Y306000D02*X465200Y305250D01*
X466700D01*
X467450Y306000D01*
Y310500D02*Y306000D01*
X469250Y313500D02*Y307500D01*
Y309750D02*X470000Y310500D01*
X471500D01*
X472250Y309750D01*
Y307500D01*
X0Y-9500D02*X3000D01*
X3750Y-8750D01*
Y-6950D02*Y-8750D01*
X3000Y-6200D02*X3750Y-6950D01*
X750Y-6200D02*X3000D01*
X750Y-3500D02*Y-9500D01*
X0Y-3500D02*X3000D01*
X3750Y-4250D01*
Y-5450D01*
X3000Y-6200D02*X3750Y-5450D01*
X5550Y-7250D02*Y-8750D01*
Y-7250D02*X6300Y-6500D01*
X7800D01*
X8550Y-7250D01*
Y-8750D01*
X7800Y-9500D02*X8550Y-8750D01*
X6300Y-9500D02*X7800D01*
X5550Y-8750D02*X6300Y-9500D01*
X12600Y-6500D02*X13350Y-7250D01*
X11100Y-6500D02*X12600D01*
X10350Y-7250D02*X11100Y-6500D01*
X10350Y-7250D02*Y-8750D01*
X11100Y-9500D01*
X13350Y-6500D02*Y-8750D01*
X14100Y-9500D01*
X11100D02*X12600D01*
X13350Y-8750D01*
X16650Y-7250D02*Y-9500D01*
Y-7250D02*X17400Y-6500D01*
X18900D01*
X15900D02*X16650Y-7250D01*
X23700Y-3500D02*Y-9500D01*
X22950D02*X23700Y-8750D01*
X21450Y-9500D02*X22950D01*
X20700Y-8750D02*X21450Y-9500D01*
X20700Y-7250D02*Y-8750D01*
Y-7250D02*X21450Y-6500D01*
X22950D01*
X23700Y-7250D01*
X28200D02*Y-8750D01*
Y-7250D02*X28950Y-6500D01*
X30450D01*
X31200Y-7250D01*
Y-8750D01*
X30450Y-9500D02*X31200Y-8750D01*
X28950Y-9500D02*X30450D01*
X28200Y-8750D02*X28950Y-9500D01*
X33000Y-6500D02*Y-8750D01*
X33750Y-9500D01*
X35250D01*
X36000Y-8750D01*
Y-6500D02*Y-8750D01*
X38550Y-3500D02*Y-8750D01*
X39300Y-9500D01*
X37800Y-5750D02*X39300D01*
X40800Y-3500D02*Y-8750D01*
X41550Y-9500D01*
G54D60*X43050Y-5000D02*Y-5150D01*
G54D59*Y-7250D02*Y-9500D01*
X45300Y-7250D02*Y-9500D01*
Y-7250D02*X46050Y-6500D01*
X46800D01*
X47550Y-7250D01*
Y-9500D01*
X44550Y-6500D02*X45300Y-7250D01*
X50100Y-9500D02*X52350D01*
X49350Y-8750D02*X50100Y-9500D01*
X49350Y-7250D02*Y-8750D01*
Y-7250D02*X50100Y-6500D01*
X51600D01*
X52350Y-7250D01*
X49350Y-8000D02*X52350D01*
Y-7250D02*Y-8000D01*
G54D60*X56850Y-5000D02*Y-5150D01*
G54D59*Y-7250D02*Y-9500D01*
X59100D02*X61350D01*
X62100Y-8750D01*
X61350Y-8000D02*X62100Y-8750D01*
X59100Y-8000D02*X61350D01*
X58350Y-7250D02*X59100Y-8000D01*
X58350Y-7250D02*X59100Y-6500D01*
X61350D01*
X62100Y-7250D01*
X58350Y-8750D02*X59100Y-9500D01*
X67350Y-3500D02*Y-8750D01*
X68100Y-9500D01*
X66600Y-5750D02*X68100D01*
X69600Y-3500D02*Y-9500D01*
Y-7250D02*X70350Y-6500D01*
X71850D01*
X72600Y-7250D01*
Y-9500D01*
X75150D02*X77400D01*
X74400Y-8750D02*X75150Y-9500D01*
X74400Y-7250D02*Y-8750D01*
Y-7250D02*X75150Y-6500D01*
X76650D01*
X77400Y-7250D01*
X74400Y-8000D02*X77400D01*
Y-7250D02*Y-8000D01*
X82650Y-6500D02*X84900D01*
X81900Y-7250D02*X82650Y-6500D01*
X81900Y-7250D02*Y-8750D01*
X82650Y-9500D01*
X84900D01*
X87450D02*X89700D01*
X86700Y-8750D02*X87450Y-9500D01*
X86700Y-7250D02*Y-8750D01*
Y-7250D02*X87450Y-6500D01*
X88950D01*
X89700Y-7250D01*
X86700Y-8000D02*X89700D01*
Y-7250D02*Y-8000D01*
X92250Y-7250D02*Y-9500D01*
Y-7250D02*X93000Y-6500D01*
X93750D01*
X94500Y-7250D01*
Y-9500D01*
X91500Y-6500D02*X92250Y-7250D01*
X97050Y-3500D02*Y-8750D01*
X97800Y-9500D01*
X96300Y-5750D02*X97800D01*
X100050Y-9500D02*X102300D01*
X99300Y-8750D02*X100050Y-9500D01*
X99300Y-7250D02*Y-8750D01*
Y-7250D02*X100050Y-6500D01*
X101550D01*
X102300Y-7250D01*
X99300Y-8000D02*X102300D01*
Y-7250D02*Y-8000D01*
X104850Y-7250D02*Y-9500D01*
Y-7250D02*X105600Y-6500D01*
X107100D01*
X104100D02*X104850Y-7250D01*
X108900Y-3500D02*Y-8750D01*
X109650Y-9500D01*
G54D60*X111150Y-5000D02*Y-5150D01*
G54D59*Y-7250D02*Y-9500D01*
X113400Y-7250D02*Y-9500D01*
Y-7250D02*X114150Y-6500D01*
X114900D01*
X115650Y-7250D01*
Y-9500D01*
X112650Y-6500D02*X113400Y-7250D01*
X118200Y-9500D02*X120450D01*
X117450Y-8750D02*X118200Y-9500D01*
X117450Y-7250D02*Y-8750D01*
Y-7250D02*X118200Y-6500D01*
X119700D01*
X120450Y-7250D01*
X117450Y-8000D02*X120450D01*
Y-7250D02*Y-8000D01*
X124950Y-7250D02*Y-8750D01*
Y-7250D02*X125700Y-6500D01*
X127200D01*
X127950Y-7250D01*
Y-8750D01*
X127200Y-9500D02*X127950Y-8750D01*
X125700Y-9500D02*X127200D01*
X124950Y-8750D02*X125700Y-9500D01*
X130500Y-4250D02*Y-9500D01*
Y-4250D02*X131250Y-3500D01*
X132000D01*
X129750Y-6500D02*X131250D01*
X136950Y-3500D02*Y-8750D01*
X137700Y-9500D01*
X136200Y-5750D02*X137700D01*
X139200Y-3500D02*Y-9500D01*
Y-7250D02*X139950Y-6500D01*
X141450D01*
X142200Y-7250D01*
Y-9500D01*
G54D60*X144000Y-5000D02*Y-5150D01*
G54D59*Y-7250D02*Y-9500D01*
X146250D02*X148500D01*
X149250Y-8750D01*
X148500Y-8000D02*X149250Y-8750D01*
X146250Y-8000D02*X148500D01*
X145500Y-7250D02*X146250Y-8000D01*
X145500Y-7250D02*X146250Y-6500D01*
X148500D01*
X149250Y-7250D01*
X145500Y-8750D02*X146250Y-9500D01*
X153750Y-8750D02*X154500Y-9500D01*
X153750Y-7550D02*Y-8750D01*
Y-7550D02*X154800Y-6500D01*
X155700D01*
X156750Y-7550D01*
Y-8750D01*
X156000Y-9500D02*X156750Y-8750D01*
X154500Y-9500D02*X156000D01*
X153750Y-5450D02*X154800Y-6500D01*
X153750Y-4250D02*Y-5450D01*
Y-4250D02*X154500Y-3500D01*
X156000D01*
X156750Y-4250D01*
Y-5450D01*
X155700Y-6500D02*X156750Y-5450D01*
X158550Y-9500D02*X159300D01*
X161100Y-8750D02*X161850Y-9500D01*
X161100Y-4250D02*Y-8750D01*
Y-4250D02*X161850Y-3500D01*
X163350D01*
X164100Y-4250D01*
Y-8750D01*
X163350Y-9500D02*X164100Y-8750D01*
X161850Y-9500D02*X163350D01*
X161100Y-8000D02*X164100Y-5000D01*
X165900Y-8750D02*X166650Y-9500D01*
X165900Y-4250D02*Y-8750D01*
Y-4250D02*X166650Y-3500D01*
X168150D01*
X168900Y-4250D01*
Y-8750D01*
X168150Y-9500D02*X168900Y-8750D01*
X166650Y-9500D02*X168150D01*
X165900Y-8000D02*X168900Y-5000D01*
X170700Y-8750D02*X171450Y-9500D01*
X170700Y-4250D02*Y-8750D01*
Y-4250D02*X171450Y-3500D01*
X172950D01*
X173700Y-4250D01*
Y-8750D01*
X172950Y-9500D02*X173700Y-8750D01*
X171450Y-9500D02*X172950D01*
X170700Y-8000D02*X173700Y-5000D01*
X175500Y-8750D02*X176250Y-9500D01*
X175500Y-4250D02*Y-8750D01*
Y-4250D02*X176250Y-3500D01*
X177750D01*
X178500Y-4250D01*
Y-8750D01*
X177750Y-9500D02*X178500Y-8750D01*
X176250Y-9500D02*X177750D01*
X175500Y-8000D02*X178500Y-5000D01*
X180300Y-8750D02*X181050Y-9500D01*
X180300Y-4250D02*Y-8750D01*
Y-4250D02*X181050Y-3500D01*
X182550D01*
X183300Y-4250D01*
Y-8750D01*
X182550Y-9500D02*X183300Y-8750D01*
X181050Y-9500D02*X182550D01*
X180300Y-8000D02*X183300Y-5000D01*
X185100Y-8750D02*X185850Y-9500D01*
X185100Y-4250D02*Y-8750D01*
Y-4250D02*X185850Y-3500D01*
X187350D01*
X188100Y-4250D01*
Y-8750D01*
X187350Y-9500D02*X188100Y-8750D01*
X185850Y-9500D02*X187350D01*
X185100Y-8000D02*X188100Y-5000D01*
X193350Y-7250D02*Y-9500D01*
Y-7250D02*X194100Y-6500D01*
X194850D01*
X195600Y-7250D01*
Y-9500D01*
Y-7250D02*X196350Y-6500D01*
X197100D01*
X197850Y-7250D01*
Y-9500D01*
X192600Y-6500D02*X193350Y-7250D01*
G54D60*X199650Y-5000D02*Y-5150D01*
G54D59*Y-7250D02*Y-9500D01*
X201150Y-3500D02*Y-8750D01*
X201900Y-9500D01*
X206850Y-7250D02*Y-9500D01*
Y-7250D02*X207600Y-6500D01*
X209100D01*
X206100D02*X206850Y-7250D01*
X211650Y-9500D02*X213900D01*
X210900Y-8750D02*X211650Y-9500D01*
X210900Y-7250D02*Y-8750D01*
Y-7250D02*X211650Y-6500D01*
X213150D01*
X213900Y-7250D01*
X210900Y-8000D02*X213900D01*
Y-7250D02*Y-8000D01*
X216450Y-6500D02*X218700D01*
X215700Y-7250D02*X216450Y-6500D01*
X215700Y-7250D02*Y-8750D01*
X216450Y-9500D01*
X218700D01*
X221250Y-3500D02*Y-8750D01*
X222000Y-9500D01*
X220500Y-5750D02*X222000D01*
X225750Y-6500D02*X226500Y-7250D01*
X224250Y-6500D02*X225750D01*
X223500Y-7250D02*X224250Y-6500D01*
X223500Y-7250D02*Y-8750D01*
X224250Y-9500D01*
X226500Y-6500D02*Y-8750D01*
X227250Y-9500D01*
X224250D02*X225750D01*
X226500Y-8750D01*
X229800Y-7250D02*Y-9500D01*
Y-7250D02*X230550Y-6500D01*
X231300D01*
X232050Y-7250D01*
Y-9500D01*
X229050Y-6500D02*X229800Y-7250D01*
X236100Y-6500D02*X236850Y-7250D01*
X234600Y-6500D02*X236100D01*
X233850Y-7250D02*X234600Y-6500D01*
X233850Y-7250D02*Y-8750D01*
X234600Y-9500D01*
X236100D01*
X236850Y-8750D01*
X233850Y-11000D02*X234600Y-11750D01*
X236100D01*
X236850Y-11000D01*
Y-6500D02*Y-11000D01*
X238650Y-3500D02*Y-8750D01*
X239400Y-9500D01*
X241650D02*X243900D01*
X240900Y-8750D02*X241650Y-9500D01*
X240900Y-7250D02*Y-8750D01*
Y-7250D02*X241650Y-6500D01*
X243150D01*
X243900Y-7250D01*
X240900Y-8000D02*X243900D01*
Y-7250D02*Y-8000D01*
X248400Y-6500D02*X251400D01*
X255900Y-8750D02*X256650Y-9500D01*
X255900Y-4250D02*Y-8750D01*
Y-4250D02*X256650Y-3500D01*
X258150D01*
X258900Y-4250D01*
Y-8750D01*
X258150Y-9500D02*X258900Y-8750D01*
X256650Y-9500D02*X258150D01*
X255900Y-8000D02*X258900Y-5000D01*
X260700Y-11000D02*X262200Y-9500D01*
X264000Y-8750D02*X264750Y-9500D01*
X264000Y-4250D02*Y-8750D01*
Y-4250D02*X264750Y-3500D01*
X266250D01*
X267000Y-4250D01*
Y-8750D01*
X266250Y-9500D02*X267000Y-8750D01*
X264750Y-9500D02*X266250D01*
X264000Y-8000D02*X267000Y-5000D01*
X272250Y-3500D02*Y-8750D01*
X273000Y-9500D01*
X271500Y-5750D02*X273000D01*
X274500Y-7250D02*Y-8750D01*
Y-7250D02*X275250Y-6500D01*
X276750D01*
X277500Y-7250D01*
Y-8750D01*
X276750Y-9500D02*X277500Y-8750D01*
X275250Y-9500D02*X276750D01*
X274500Y-8750D02*X275250Y-9500D01*
X282000Y-4700D02*X283200Y-3500D01*
Y-9500D01*
X282000D02*X284250D01*
X288300Y-3500D02*X289050Y-4250D01*
X286800Y-3500D02*X288300D01*
X286050Y-4250D02*X286800Y-3500D01*
X286050Y-4250D02*Y-8750D01*
X286800Y-9500D01*
X288300Y-6200D02*X289050Y-6950D01*
X286050Y-6200D02*X288300D01*
X286800Y-9500D02*X288300D01*
X289050Y-8750D01*
Y-6950D02*Y-8750D01*
X290850D02*X291600Y-9500D01*
X290850Y-4250D02*Y-8750D01*
Y-4250D02*X291600Y-3500D01*
X293100D01*
X293850Y-4250D01*
Y-8750D01*
X293100Y-9500D02*X293850Y-8750D01*
X291600Y-9500D02*X293100D01*
X290850Y-8000D02*X293850Y-5000D01*
X295650Y-8750D02*X296400Y-9500D01*
X295650Y-4250D02*Y-8750D01*
Y-4250D02*X296400Y-3500D01*
X297900D01*
X298650Y-4250D01*
Y-8750D01*
X297900Y-9500D02*X298650Y-8750D01*
X296400Y-9500D02*X297900D01*
X295650Y-8000D02*X298650Y-5000D01*
X300450Y-9500D02*X301200D01*
X303000Y-8750D02*X303750Y-9500D01*
X303000Y-4250D02*Y-8750D01*
Y-4250D02*X303750Y-3500D01*
X305250D01*
X306000Y-4250D01*
Y-8750D01*
X305250Y-9500D02*X306000Y-8750D01*
X303750Y-9500D02*X305250D01*
X303000Y-8000D02*X306000Y-5000D01*
X307800Y-8750D02*X308550Y-9500D01*
X307800Y-4250D02*Y-8750D01*
Y-4250D02*X308550Y-3500D01*
X310050D01*
X310800Y-4250D01*
Y-8750D01*
X310050Y-9500D02*X310800Y-8750D01*
X308550Y-9500D02*X310050D01*
X307800Y-8000D02*X310800Y-5000D01*
X312600Y-8750D02*X313350Y-9500D01*
X312600Y-4250D02*Y-8750D01*
Y-4250D02*X313350Y-3500D01*
X314850D01*
X315600Y-4250D01*
Y-8750D01*
X314850Y-9500D02*X315600Y-8750D01*
X313350Y-9500D02*X314850D01*
X312600Y-8000D02*X315600Y-5000D01*
X317400Y-8750D02*X318150Y-9500D01*
X317400Y-4250D02*Y-8750D01*
Y-4250D02*X318150Y-3500D01*
X319650D01*
X320400Y-4250D01*
Y-8750D01*
X319650Y-9500D02*X320400Y-8750D01*
X318150Y-9500D02*X319650D01*
X317400Y-8000D02*X320400Y-5000D01*
X322200Y-8750D02*X322950Y-9500D01*
X322200Y-4250D02*Y-8750D01*
Y-4250D02*X322950Y-3500D01*
X324450D01*
X325200Y-4250D01*
Y-8750D01*
X324450Y-9500D02*X325200Y-8750D01*
X322950Y-9500D02*X324450D01*
X322200Y-8000D02*X325200Y-5000D01*
X327000Y-8750D02*X327750Y-9500D01*
X327000Y-4250D02*Y-8750D01*
Y-4250D02*X327750Y-3500D01*
X329250D01*
X330000Y-4250D01*
Y-8750D01*
X329250Y-9500D02*X330000Y-8750D01*
X327750Y-9500D02*X329250D01*
X327000Y-8000D02*X330000Y-5000D01*
X331800Y-11000D02*X333300Y-9500D01*
X335100Y-4250D02*X335850Y-3500D01*
X337350D01*
X338100Y-4250D01*
X337350Y-9500D02*X338100Y-8750D01*
X335850Y-9500D02*X337350D01*
X335100Y-8750D02*X335850Y-9500D01*
Y-6200D02*X337350D01*
X338100Y-4250D02*Y-5450D01*
Y-6950D02*Y-8750D01*
Y-6950D02*X337350Y-6200D01*
X338100Y-5450D02*X337350Y-6200D01*
X339900Y-8750D02*X340650Y-9500D01*
X339900Y-4250D02*Y-8750D01*
Y-4250D02*X340650Y-3500D01*
X342150D01*
X342900Y-4250D01*
Y-8750D01*
X342150Y-9500D02*X342900Y-8750D01*
X340650Y-9500D02*X342150D01*
X339900Y-8000D02*X342900Y-5000D01*
X344700Y-8750D02*X345450Y-9500D01*
X344700Y-4250D02*Y-8750D01*
Y-4250D02*X345450Y-3500D01*
X346950D01*
X347700Y-4250D01*
Y-8750D01*
X346950Y-9500D02*X347700Y-8750D01*
X345450Y-9500D02*X346950D01*
X344700Y-8000D02*X347700Y-5000D01*
X349500Y-8750D02*X350250Y-9500D01*
X349500Y-4250D02*Y-8750D01*
Y-4250D02*X350250Y-3500D01*
X351750D01*
X352500Y-4250D01*
Y-8750D01*
X351750Y-9500D02*X352500Y-8750D01*
X350250Y-9500D02*X351750D01*
X349500Y-8000D02*X352500Y-5000D01*
X354300Y-9500D02*X355050D01*
X356850Y-8750D02*X357600Y-9500D01*
X356850Y-4250D02*Y-8750D01*
Y-4250D02*X357600Y-3500D01*
X359100D01*
X359850Y-4250D01*
Y-8750D01*
X359100Y-9500D02*X359850Y-8750D01*
X357600Y-9500D02*X359100D01*
X356850Y-8000D02*X359850Y-5000D01*
X361650Y-8750D02*X362400Y-9500D01*
X361650Y-4250D02*Y-8750D01*
Y-4250D02*X362400Y-3500D01*
X363900D01*
X364650Y-4250D01*
Y-8750D01*
X363900Y-9500D02*X364650Y-8750D01*
X362400Y-9500D02*X363900D01*
X361650Y-8000D02*X364650Y-5000D01*
X366450Y-8750D02*X367200Y-9500D01*
X366450Y-4250D02*Y-8750D01*
Y-4250D02*X367200Y-3500D01*
X368700D01*
X369450Y-4250D01*
Y-8750D01*
X368700Y-9500D02*X369450Y-8750D01*
X367200Y-9500D02*X368700D01*
X366450Y-8000D02*X369450Y-5000D01*
X371250Y-8750D02*X372000Y-9500D01*
X371250Y-4250D02*Y-8750D01*
Y-4250D02*X372000Y-3500D01*
X373500D01*
X374250Y-4250D01*
Y-8750D01*
X373500Y-9500D02*X374250Y-8750D01*
X372000Y-9500D02*X373500D01*
X371250Y-8000D02*X374250Y-5000D01*
X376050Y-8750D02*X376800Y-9500D01*
X376050Y-4250D02*Y-8750D01*
Y-4250D02*X376800Y-3500D01*
X378300D01*
X379050Y-4250D01*
Y-8750D01*
X378300Y-9500D02*X379050Y-8750D01*
X376800Y-9500D02*X378300D01*
X376050Y-8000D02*X379050Y-5000D01*
X380850Y-8750D02*X381600Y-9500D01*
X380850Y-4250D02*Y-8750D01*
Y-4250D02*X381600Y-3500D01*
X383100D01*
X383850Y-4250D01*
Y-8750D01*
X383100Y-9500D02*X383850Y-8750D01*
X381600Y-9500D02*X383100D01*
X380850Y-8000D02*X383850Y-5000D01*
X389100Y-7250D02*Y-9500D01*
Y-7250D02*X389850Y-6500D01*
X390600D01*
X391350Y-7250D01*
Y-9500D01*
Y-7250D02*X392100Y-6500D01*
X392850D01*
X393600Y-7250D01*
Y-9500D01*
X388350Y-6500D02*X389100Y-7250D01*
G54D60*X395400Y-5000D02*Y-5150D01*
G54D59*Y-7250D02*Y-9500D01*
X396900Y-3500D02*Y-8750D01*
X397650Y-9500D01*
X399900D02*X402150D01*
X402900Y-8750D01*
X402150Y-8000D02*X402900Y-8750D01*
X399900Y-8000D02*X402150D01*
X399150Y-7250D02*X399900Y-8000D01*
X399150Y-7250D02*X399900Y-6500D01*
X402150D01*
X402900Y-7250D01*
X399150Y-8750D02*X399900Y-9500D01*
X200750Y328500D02*Y322500D01*
X202700Y328500D02*X203750Y327450D01*
Y323550D01*
X202700Y322500D02*X203750Y323550D01*
X200000Y322500D02*X202700D01*
X200000Y328500D02*X202700D01*
X207800Y325500D02*X208550Y324750D01*
X206300Y325500D02*X207800D01*
X205550Y324750D02*X206300Y325500D01*
X205550Y324750D02*Y323250D01*
X206300Y322500D01*
X208550Y325500D02*Y323250D01*
X209300Y322500D01*
X206300D02*X207800D01*
X208550Y323250D01*
X211850Y328500D02*Y323250D01*
X212600Y322500D01*
X211100Y326250D02*X212600D01*
X214850Y322500D02*X217100D01*
X214100Y323250D02*X214850Y322500D01*
X214100Y324750D02*Y323250D01*
Y324750D02*X214850Y325500D01*
X216350D01*
X217100Y324750D01*
X214100Y324000D02*X217100D01*
Y324750D02*Y324000D01*
X218900Y326250D02*X219650D01*
X218900Y324750D02*X219650D01*
X224150Y328500D02*X227150D01*
X225650D02*Y322500D01*
X228950Y325500D02*Y323250D01*
X229700Y322500D01*
X231200D01*
X231950Y323250D01*
Y325500D02*Y323250D01*
X234500Y322500D02*X236750D01*
X233750Y323250D02*X234500Y322500D01*
X233750Y324750D02*Y323250D01*
Y324750D02*X234500Y325500D01*
X236000D01*
X236750Y324750D01*
X233750Y324000D02*X236750D01*
Y324750D02*Y324000D01*
X241250Y327300D02*X242450Y328500D01*
Y322500D01*
X241250D02*X243500D01*
X245300Y323250D02*X246050Y322500D01*
X245300Y327750D02*Y323250D01*
Y327750D02*X246050Y328500D01*
X247550D01*
X248300Y327750D01*
Y323250D01*
X247550Y322500D02*X248300Y323250D01*
X246050Y322500D02*X247550D01*
X245300Y324000D02*X248300Y327000D01*
X252800Y328500D02*Y322500D01*
Y328500D02*X255050Y325500D01*
X257300Y328500D01*
Y322500D01*
X261350Y325500D02*X262100Y324750D01*
X259850Y325500D02*X261350D01*
X259100Y324750D02*X259850Y325500D01*
X259100Y324750D02*Y323250D01*
X259850Y322500D01*
X262100Y325500D02*Y323250D01*
X262850Y322500D01*
X259850D02*X261350D01*
X262100Y323250D01*
X265400Y324750D02*Y322500D01*
Y324750D02*X266150Y325500D01*
X267650D01*
X264650D02*X265400Y324750D01*
X272150Y327750D02*X272900Y328500D01*
X275150D01*
X275900Y327750D01*
Y326250D01*
X272150Y322500D02*X275900Y326250D01*
X272150Y322500D02*X275900D01*
X277700Y323250D02*X278450Y322500D01*
X277700Y327750D02*Y323250D01*
Y327750D02*X278450Y328500D01*
X279950D01*
X280700Y327750D01*
Y323250D01*
X279950Y322500D02*X280700Y323250D01*
X278450Y322500D02*X279950D01*
X277700Y324000D02*X280700Y327000D01*
X282500Y327300D02*X283700Y328500D01*
Y322500D01*
X282500D02*X284750D01*
X286550Y328500D02*X289550D01*
X286550D02*Y325500D01*
X287300Y326250D01*
X288800D01*
X289550Y325500D01*
Y323250D01*
X288800Y322500D02*X289550Y323250D01*
X287300Y322500D02*X288800D01*
X286550Y323250D02*X287300Y322500D01*
X294050Y323250D02*X294800Y322500D01*
X294050Y327750D02*Y323250D01*
Y327750D02*X294800Y328500D01*
X296300D01*
X297050Y327750D01*
Y323250D01*
X296300Y322500D02*X297050Y323250D01*
X294800Y322500D02*X296300D01*
X294050Y324000D02*X297050Y327000D01*
X298850Y327750D02*X299600Y328500D01*
X301100D01*
X301850Y327750D01*
X301100Y322500D02*X301850Y323250D01*
X299600Y322500D02*X301100D01*
X298850Y323250D02*X299600Y322500D01*
Y325800D02*X301100D01*
X301850Y327750D02*Y326550D01*
Y325050D02*Y323250D01*
Y325050D02*X301100Y325800D01*
X301850Y326550D02*X301100Y325800D01*
X303650Y326250D02*X304400D01*
X303650Y324750D02*X304400D01*
X306200D02*X309200Y328500D01*
X306200Y324750D02*X309950D01*
X309200Y328500D02*Y322500D01*
X311750Y327300D02*X312950Y328500D01*
Y322500D01*
X311750D02*X314000D01*
X315800Y326250D02*X316550D01*
X315800Y324750D02*X316550D01*
X318350Y327750D02*X319100Y328500D01*
X321350D01*
X322100Y327750D01*
Y326250D01*
X318350Y322500D02*X322100Y326250D01*
X318350Y322500D02*X322100D01*
X323900Y323250D02*X324650Y322500D01*
X323900Y324450D02*Y323250D01*
Y324450D02*X324950Y325500D01*
X325850D01*
X326900Y324450D01*
Y323250D01*
X326150Y322500D02*X326900Y323250D01*
X324650Y322500D02*X326150D01*
X323900Y326550D02*X324950Y325500D01*
X323900Y327750D02*Y326550D01*
Y327750D02*X324650Y328500D01*
X326150D01*
X326900Y327750D01*
Y326550D01*
X325850Y325500D02*X326900Y326550D01*
X332150Y328500D02*Y322500D01*
X331400Y328500D02*X334400D01*
X335150Y327750D01*
Y326250D01*
X334400Y325500D02*X335150Y326250D01*
X332150Y325500D02*X334400D01*
X336950Y328500D02*Y322500D01*
Y328500D02*X339200Y325500D01*
X341450Y328500D01*
Y322500D01*
X348950Y328500D02*X349700Y327750D01*
X346700Y328500D02*X348950D01*
X345950Y327750D02*X346700Y328500D01*
X345950Y327750D02*Y323250D01*
X346700Y322500D01*
X348950D01*
X349700Y323250D01*
Y324750D02*Y323250D01*
X348950Y325500D02*X349700Y324750D01*
X347450Y325500D02*X348950D01*
X351500Y328500D02*Y322500D01*
Y328500D02*X353750Y325500D01*
X356000Y328500D01*
Y322500D01*
X357800Y328500D02*X360800D01*
X359300D02*Y322500D01*
X365300Y328500D02*Y323250D01*
X366050Y322500D01*
X367550D01*
X368300Y323250D01*
Y328500D02*Y323250D01*
X370100Y328500D02*X373100D01*
X371600D02*Y322500D01*
X375950D02*X377900D01*
X374900Y323550D02*X375950Y322500D01*
X374900Y327450D02*Y323550D01*
Y327450D02*X375950Y328500D01*
X377900D01*
X200000Y342000D02*Y337500D01*
Y342000D02*X201050Y343500D01*
X202700D01*
X203750Y342000D01*
Y337500D01*
X200000Y340500D02*X203750D01*
X205550D02*Y338250D01*
X206300Y337500D01*
X207800D01*
X208550Y338250D01*
Y340500D02*Y338250D01*
X211100Y343500D02*Y338250D01*
X211850Y337500D01*
X210350Y341250D02*X211850D01*
X213350Y343500D02*Y337500D01*
Y339750D02*X214100Y340500D01*
X215600D01*
X216350Y339750D01*
Y337500D01*
X218150Y339750D02*Y338250D01*
Y339750D02*X218900Y340500D01*
X220400D01*
X221150Y339750D01*
Y338250D01*
X220400Y337500D02*X221150Y338250D01*
X218900Y337500D02*X220400D01*
X218150Y338250D02*X218900Y337500D01*
X223700Y339750D02*Y337500D01*
Y339750D02*X224450Y340500D01*
X225950D01*
X222950D02*X223700Y339750D01*
X227750Y341250D02*X228500D01*
X227750Y339750D02*X228500D01*
X200000Y358500D02*X203000D01*
X201500D02*Y352500D01*
G54D60*X204800Y357000D02*Y356850D01*
G54D59*Y354750D02*Y352500D01*
X207050Y358500D02*Y353250D01*
X207800Y352500D01*
X206300Y356250D02*X207800D01*
X209300Y358500D02*Y353250D01*
X210050Y352500D01*
X212300D02*X214550D01*
X211550Y353250D02*X212300Y352500D01*
X211550Y354750D02*Y353250D01*
Y354750D02*X212300Y355500D01*
X213800D01*
X214550Y354750D01*
X211550Y354000D02*X214550D01*
Y354750D02*Y354000D01*
X216350Y356250D02*X217100D01*
X216350Y354750D02*X217100D01*
X221600Y353250D02*X222350Y352500D01*
X221600Y357750D02*X222350Y358500D01*
X221600Y357750D02*Y353250D01*
X224150Y355500D02*Y353250D01*
X224900Y352500D01*
X226400D01*
X227150Y353250D01*
Y355500D02*Y353250D01*
X229700Y354750D02*Y352500D01*
Y354750D02*X230450Y355500D01*
X231200D01*
X231950Y354750D01*
Y352500D01*
X228950Y355500D02*X229700Y354750D01*
X233750Y358500D02*Y352500D01*
Y354750D02*X236000Y352500D01*
X233750Y354750D02*X235250Y356250D01*
X238550Y354750D02*Y352500D01*
Y354750D02*X239300Y355500D01*
X240050D01*
X240800Y354750D01*
Y352500D01*
X237800Y355500D02*X238550Y354750D01*
X242600D02*Y353250D01*
Y354750D02*X243350Y355500D01*
X244850D01*
X245600Y354750D01*
Y353250D01*
X244850Y352500D02*X245600Y353250D01*
X243350Y352500D02*X244850D01*
X242600Y353250D02*X243350Y352500D01*
X247400Y355500D02*Y353250D01*
X248150Y352500D01*
X248900D01*
X249650Y353250D01*
Y355500D02*Y353250D01*
X250400Y352500D01*
X251150D01*
X251900Y353250D01*
Y355500D02*Y353250D01*
X254450Y354750D02*Y352500D01*
Y354750D02*X255200Y355500D01*
X255950D01*
X256700Y354750D01*
Y352500D01*
X253700Y355500D02*X254450Y354750D01*
X258500Y358500D02*X259250Y357750D01*
Y353250D01*
X258500Y352500D02*X259250Y353250D01*
X263750Y355500D02*X266750D01*
X271250Y358500D02*Y352500D01*
Y358500D02*X274250D01*
X271250Y355800D02*X273500D01*
X278300Y355500D02*X279050Y354750D01*
X276800Y355500D02*X278300D01*
X276050Y354750D02*X276800Y355500D01*
X276050Y354750D02*Y353250D01*
X276800Y352500D01*
X279050Y355500D02*Y353250D01*
X279800Y352500D01*
X276800D02*X278300D01*
X279050Y353250D01*
X281600Y358500D02*Y352500D01*
Y353250D02*X282350Y352500D01*
X283850D01*
X284600Y353250D01*
Y354750D02*Y353250D01*
X283850Y355500D02*X284600Y354750D01*
X282350Y355500D02*X283850D01*
X281600Y354750D02*X282350Y355500D01*
X287150Y354750D02*Y352500D01*
Y354750D02*X287900Y355500D01*
X289400D01*
X286400D02*X287150Y354750D01*
G54D60*X291200Y357000D02*Y356850D01*
G54D59*Y354750D02*Y352500D01*
X293450Y355500D02*X295700D01*
X292700Y354750D02*X293450Y355500D01*
X292700Y354750D02*Y353250D01*
X293450Y352500D01*
X295700D01*
X299750Y355500D02*X300500Y354750D01*
X298250Y355500D02*X299750D01*
X297500Y354750D02*X298250Y355500D01*
X297500Y354750D02*Y353250D01*
X298250Y352500D01*
X300500Y355500D02*Y353250D01*
X301250Y352500D01*
X298250D02*X299750D01*
X300500Y353250D01*
X303800Y358500D02*Y353250D01*
X304550Y352500D01*
X303050Y356250D02*X304550D01*
G54D60*X306050Y357000D02*Y356850D01*
G54D59*Y354750D02*Y352500D01*
X307550Y354750D02*Y353250D01*
Y354750D02*X308300Y355500D01*
X309800D01*
X310550Y354750D01*
Y353250D01*
X309800Y352500D02*X310550Y353250D01*
X308300Y352500D02*X309800D01*
X307550Y353250D02*X308300Y352500D01*
X313100Y354750D02*Y352500D01*
Y354750D02*X313850Y355500D01*
X314600D01*
X315350Y354750D01*
Y352500D01*
X312350Y355500D02*X313100Y354750D01*
X320600Y358500D02*Y352500D01*
X322550Y358500D02*X323600Y357450D01*
Y353550D01*
X322550Y352500D02*X323600Y353550D01*
X319850Y352500D02*X322550D01*
X319850Y358500D02*X322550D01*
X326150Y354750D02*Y352500D01*
Y354750D02*X326900Y355500D01*
X328400D01*
X325400D02*X326150Y354750D01*
X332450Y355500D02*X333200Y354750D01*
X330950Y355500D02*X332450D01*
X330200Y354750D02*X330950Y355500D01*
X330200Y354750D02*Y353250D01*
X330950Y352500D01*
X333200Y355500D02*Y353250D01*
X333950Y352500D01*
X330950D02*X332450D01*
X333200Y353250D01*
X335750Y355500D02*Y353250D01*
X336500Y352500D01*
X337250D01*
X338000Y353250D01*
Y355500D02*Y353250D01*
X338750Y352500D01*
X339500D01*
X340250Y353250D01*
Y355500D02*Y353250D01*
G54D60*X342050Y357000D02*Y356850D01*
G54D59*Y354750D02*Y352500D01*
X344300Y354750D02*Y352500D01*
Y354750D02*X345050Y355500D01*
X345800D01*
X346550Y354750D01*
Y352500D01*
X343550Y355500D02*X344300Y354750D01*
X350600Y355500D02*X351350Y354750D01*
X349100Y355500D02*X350600D01*
X348350Y354750D02*X349100Y355500D01*
X348350Y354750D02*Y353250D01*
X349100Y352500D01*
X350600D01*
X351350Y353250D01*
X348350Y351000D02*X349100Y350250D01*
X350600D01*
X351350Y351000D01*
Y355500D02*Y351000D01*
M02*
