G04 start of page 10 for group -4015 idx -4015 *
G04 Title: (unknown), toppaste *
G04 Creator: pcb 20140316 *
G04 CreationDate: Fri 20 Nov 2015 02:08:32 PM GMT UTC *
G04 For: fosse *
G04 Format: Gerber/RS-274X *
G04 PCB-Dimensions (mil): 3170.00 5000.00 *
G04 PCB-Coordinate-Origin: lower left *
%MOIN*%
%FSLAX25Y25*%
%LNTOPPASTE*%
%ADD83R,0.0827X0.0827*%
%ADD82R,0.0512X0.0512*%
%ADD81R,0.0200X0.0200*%
G54D81*X150500Y391500D02*Y385000D01*
X155500Y391500D02*Y385000D01*
X160500Y391500D02*Y385000D01*
X165500Y391500D02*Y385000D01*
Y412000D02*Y405500D01*
X160500Y412000D02*Y405500D01*
X155500Y412000D02*Y405500D01*
X150500Y412000D02*Y405500D01*
X127000Y452000D02*Y445500D01*
X132000Y452000D02*Y445500D01*
X137000Y452000D02*Y445500D01*
X142000Y452000D02*Y445500D01*
Y472500D02*Y466000D01*
X137000Y472500D02*Y466000D01*
X132000Y472500D02*Y466000D01*
X127000Y472500D02*Y466000D01*
G54D82*X122095Y352181D02*Y349819D01*
X133905Y352181D02*Y349819D01*
X146319Y349095D02*X148681D01*
X146319Y360905D02*X148681D01*
X146957Y370393D02*Y369607D01*
X154043Y370393D02*Y369607D01*
X131500Y337681D02*Y335319D01*
X143310Y337681D02*Y335319D01*
X136319Y383595D02*X138681D01*
X136319Y395405D02*X138681D01*
G54D83*X184791Y400492D02*X196209D01*
X184792Y424114D02*X196209D01*
G54D82*X142500Y422681D02*Y420319D01*
X154310Y422681D02*Y420319D01*
X185095Y377181D02*Y374819D01*
X196905Y377181D02*Y374819D01*
X163595Y369181D02*Y366819D01*
X175405Y369181D02*Y366819D01*
X149457Y471893D02*Y471107D01*
X156543Y471893D02*Y471107D01*
X174500Y471893D02*Y471107D01*
X181586Y471893D02*Y471107D01*
G54D83*X159492Y451209D02*Y439791D01*
X183114Y451208D02*Y439791D01*
M02*
