G04 start of page 9 for group -4078 idx -4078 *
G04 Title: (unknown), bottomsilk *
G04 Creator: pcb 20140316 *
G04 CreationDate: Fri 20 Nov 2015 02:08:32 PM GMT UTC *
G04 For: fosse *
G04 Format: Gerber/RS-274X *
G04 PCB-Dimensions (mil): 3170.00 5000.00 *
G04 PCB-Coordinate-Origin: lower left *
%MOIN*%
%FSLAX25Y25*%
%LNBOTTOMSILK*%
%ADD80C,0.0197*%
%ADD79C,0.0080*%
%ADD78C,0.0100*%
%ADD77C,0.0070*%
G54D77*X217000Y451500D02*X219000D01*
X220200Y450300D02*X221000Y449500D01*
Y453500D01*
X220200D02*X221700D01*
X222900Y449500D02*X224900D01*
X222900D02*Y451500D01*
X223400Y451000D01*
X224400D01*
X224900Y451500D01*
Y453000D01*
X224400Y453500D02*X224900Y453000D01*
X223400Y453500D02*X224400D01*
X222900Y453000D02*X223400Y453500D01*
X226100Y449500D02*X227100Y453500D01*
X228100Y449500D01*
X219000Y429500D02*X219500Y430000D01*
X217500Y429500D02*X219000D01*
X217000Y430000D02*X217500Y429500D01*
X217000Y430000D02*Y431000D01*
X217500Y431500D01*
X219000D01*
X219500Y432000D01*
Y433000D01*
X219000Y433500D02*X219500Y433000D01*
X217500Y433500D02*X219000D01*
X217000Y433000D02*X217500Y433500D01*
X220700Y429500D02*X221700D01*
X221200D02*Y433500D01*
X220700D02*X221700D01*
X224900Y429500D02*X225400Y430000D01*
X223400Y429500D02*X224900D01*
X222900Y430000D02*X223400Y429500D01*
X222900Y430000D02*Y433000D01*
X223400Y433500D01*
X224900D01*
X225400Y433000D01*
Y432000D02*Y433000D01*
X224900Y431500D02*X225400Y432000D01*
X223900Y431500D02*X224900D01*
X226600Y433500D02*X227100D01*
X217700Y473500D02*X219000D01*
X217000Y472800D02*X217700Y473500D01*
X217000Y470200D02*Y472800D01*
Y470200D02*X217700Y469500D01*
X219000D01*
X220200D02*Y473500D01*
X222700Y469500D02*Y473500D01*
X220200Y471500D02*X222700D01*
X223900Y470500D02*Y473500D01*
Y470500D02*X224600Y469500D01*
X225700D01*
X226400Y470500D01*
Y473500D01*
X223900Y471500D02*X226400D01*
X229600Y469500D02*X230100Y470000D01*
X228100Y469500D02*X229600D01*
X227600Y470000D02*X228100Y469500D01*
X227600Y470000D02*Y471000D01*
X228100Y471500D01*
X229600D01*
X230100Y472000D01*
Y473000D01*
X229600Y473500D02*X230100Y473000D01*
X228100Y473500D02*X229600D01*
X227600Y473000D02*X228100Y473500D01*
X231300D02*X231800D01*
X217000Y441500D02*X219000D01*
X218000Y440500D02*Y442500D01*
X220200Y440300D02*X221000Y439500D01*
Y443500D01*
X220200D02*X221700D01*
X222900Y439500D02*X224900D01*
X222900D02*Y441500D01*
X223400Y441000D01*
X224400D01*
X224900Y441500D01*
Y443000D01*
X224400Y443500D02*X224900Y443000D01*
X223400Y443500D02*X224400D01*
X222900Y443000D02*X223400Y443500D01*
X226100Y439500D02*X227100Y443500D01*
X228100Y439500D01*
X217700Y463500D02*X219000D01*
X217000Y462800D02*X217700Y463500D01*
X217000Y460200D02*Y462800D01*
Y460200D02*X217700Y459500D01*
X219000D01*
X220200Y460000D02*Y463000D01*
Y460000D02*X220700Y459500D01*
X221700D01*
X222200Y460000D01*
Y463000D01*
X221700Y463500D02*X222200Y463000D01*
X220700Y463500D02*X221700D01*
X220200Y463000D02*X220700Y463500D01*
X223400Y459500D02*Y463500D01*
Y459500D02*X224900Y461500D01*
X226400Y459500D01*
Y463500D01*
X227600D02*X228100D01*
X175000Y329000D02*X175500Y329500D01*
X173500Y329000D02*X175000D01*
X173000Y329500D02*X173500Y329000D01*
X173000Y329500D02*Y330500D01*
X173500Y331000D01*
X175000D01*
X175500Y331500D01*
Y332500D01*
X175000Y333000D02*X175500Y332500D01*
X173500Y333000D02*X175000D01*
X173000Y332500D02*X173500Y333000D01*
X178200Y331000D02*X178700Y331500D01*
X177200Y331000D02*X178200D01*
X176700Y331500D02*X177200Y331000D01*
X176700Y331500D02*Y332500D01*
X177200Y333000D01*
X178700Y331000D02*Y332500D01*
X179200Y333000D01*
X177200D02*X178200D01*
X178700Y332500D01*
X180400Y331000D02*X181400Y333000D01*
X182400Y331000D02*X181400Y333000D01*
X184100D02*X185600D01*
X183600Y332500D02*X184100Y333000D01*
X183600Y331500D02*Y332500D01*
Y331500D02*X184100Y331000D01*
X185100D01*
X185600Y331500D01*
X183600Y332000D02*X185600D01*
Y331500D02*Y332000D01*
X189100Y329000D02*Y332500D01*
X189600Y333000D01*
X188600Y330500D02*X189600D01*
X190600Y329000D02*Y333000D01*
Y331500D02*X191100Y331000D01*
X192100D01*
X192600Y331500D01*
Y333000D01*
X194300D02*X195800D01*
X193800Y332500D02*X194300Y333000D01*
X193800Y331500D02*Y332500D01*
Y331500D02*X194300Y331000D01*
X195300D01*
X195800Y331500D01*
X193800Y332000D02*X195800D01*
Y331500D02*Y332000D01*
X199300Y331500D02*Y334500D01*
X198800Y331000D02*X199300Y331500D01*
X199800Y331000D01*
X200800D01*
X201300Y331500D01*
Y332500D01*
X200800Y333000D02*X201300Y332500D01*
X199800Y333000D02*X200800D01*
X199300Y332500D02*X199800Y333000D01*
X204000Y331000D02*X204500Y331500D01*
X203000Y331000D02*X204000D01*
X202500Y331500D02*X203000Y331000D01*
X202500Y331500D02*Y332500D01*
X203000Y333000D01*
X204500Y331000D02*Y332500D01*
X205000Y333000D01*
X203000D02*X204000D01*
X204500Y332500D01*
X206700Y331500D02*Y333000D01*
Y331500D02*X207200Y331000D01*
X207700D01*
X208200Y331500D01*
Y333000D01*
X206200Y331000D02*X206700Y331500D01*
X210900Y331000D02*X211400Y331500D01*
X209900Y331000D02*X210900D01*
X209400Y331500D02*X209900Y331000D01*
X209400Y331500D02*Y332500D01*
X209900Y333000D01*
X210900D01*
X211400Y332500D01*
X209400Y334000D02*X209900Y334500D01*
X210900D01*
X211400Y334000D01*
Y331000D02*Y334000D01*
X212600Y331500D02*Y332500D01*
Y331500D02*X213100Y331000D01*
X214100D01*
X214600Y331500D01*
Y332500D01*
X214100Y333000D02*X214600Y332500D01*
X213100Y333000D02*X214100D01*
X212600Y332500D02*X213100Y333000D01*
X215800Y329000D02*Y332500D01*
X216300Y333000D01*
X217300Y330000D02*Y330100D01*
Y331500D02*Y333000D01*
X218800Y331500D02*Y333000D01*
Y331500D02*X219300Y331000D01*
X219800D01*
X220300Y331500D01*
Y333000D01*
X218300Y331000D02*X218800Y331500D01*
X221500Y332500D02*Y333000D01*
Y329000D02*Y331500D01*
X217000Y394500D02*X219000D01*
X220200Y393300D02*X221000Y392500D01*
Y396500D01*
X220200D02*X221700D01*
X222900Y392500D02*X224900D01*
X222900D02*Y394500D01*
X223400Y394000D01*
X224400D01*
X224900Y394500D01*
Y396000D01*
X224400Y396500D02*X224900Y396000D01*
X223400Y396500D02*X224400D01*
X222900Y396000D02*X223400Y396500D01*
X226100Y392500D02*X227100Y396500D01*
X228100Y392500D01*
X217000Y384500D02*X219000D01*
X218000Y383500D02*Y385500D01*
X220200Y383300D02*X221000Y382500D01*
Y386500D01*
X220200D02*X221700D01*
X222900Y382500D02*X224900D01*
X222900D02*Y384500D01*
X223400Y384000D01*
X224400D01*
X224900Y384500D01*
Y386000D01*
X224400Y386500D02*X224900Y386000D01*
X223400Y386500D02*X224400D01*
X222900Y386000D02*X223400Y386500D01*
X226100Y382500D02*X227100Y386500D01*
X228100Y382500D01*
X217700Y416500D02*X219000D01*
X217000Y415800D02*X217700Y416500D01*
X217000Y413200D02*Y415800D01*
Y413200D02*X217700Y412500D01*
X219000D01*
X220200D02*Y416500D01*
X222700Y412500D02*Y416500D01*
X220200Y414500D02*X222700D01*
X223900Y413500D02*Y416500D01*
Y413500D02*X224600Y412500D01*
X225700D01*
X226400Y413500D01*
Y416500D01*
X223900Y414500D02*X226400D01*
X229600Y412500D02*X230100Y413000D01*
X228100Y412500D02*X229600D01*
X227600Y413000D02*X228100Y412500D01*
X227600Y413000D02*Y414000D01*
X228100Y414500D01*
X229600D01*
X230100Y415000D01*
Y416000D01*
X229600Y416500D02*X230100Y416000D01*
X228100Y416500D02*X229600D01*
X227600Y416000D02*X228100Y416500D01*
X231300D02*X231800D01*
X217700Y406500D02*X219000D01*
X217000Y405800D02*X217700Y406500D01*
X217000Y403200D02*Y405800D01*
Y403200D02*X217700Y402500D01*
X219000D01*
X220200Y403000D02*Y406000D01*
Y403000D02*X220700Y402500D01*
X221700D01*
X222200Y403000D01*
Y406000D01*
X221700Y406500D02*X222200Y406000D01*
X220700Y406500D02*X221700D01*
X220200Y406000D02*X220700Y406500D01*
X223400Y402500D02*Y406500D01*
Y402500D02*X224900Y404500D01*
X226400Y402500D01*
Y406500D01*
X227600D02*X228100D01*
G54D78*X118500Y414000D02*X137500D01*
Y383000D02*Y414000D01*
X118500Y383000D02*X137500D01*
X118500Y401000D02*Y414000D01*
Y383000D02*Y396000D01*
G75*G03X118500Y401000I0J2500D01*G01*
G54D79*X152686Y400468D02*Y396532D01*
X163314Y400468D02*Y396532D01*
X140138Y417760D02*X144862D01*
X140138Y425240D02*X144862D01*
X112760Y446638D02*Y451362D01*
X120240Y446638D02*Y451362D01*
X123638Y471260D02*X128362D01*
X123638Y478740D02*X128362D01*
X129260Y458362D02*Y453638D01*
X136740Y458362D02*Y453638D01*
X123760Y424138D02*Y428862D01*
X131240Y424138D02*Y428862D01*
X109245Y418893D02*Y418107D01*
X114755Y418893D02*Y418107D01*
X102245Y418893D02*Y418107D01*
X107755Y418893D02*Y418107D01*
X85745Y418893D02*Y418107D01*
X91255Y418893D02*Y418107D01*
X92745Y418893D02*Y418107D01*
X98255Y418893D02*Y418107D01*
X152138Y442260D02*X156862D01*
X152138Y449740D02*X156862D01*
X84245Y356893D02*Y356107D01*
X89755Y356893D02*Y356107D01*
X96745Y367893D02*Y367107D01*
X102255Y367893D02*Y367107D01*
G54D78*X118500Y366500D02*X137500D01*
Y335500D02*Y366500D01*
X118500Y335500D02*X137500D01*
X118500Y353500D02*Y366500D01*
Y335500D02*Y348500D01*
G75*G03X118500Y353500I0J2500D01*G01*
G54D79*X108245Y383893D02*Y383107D01*
X113755Y383893D02*Y383107D01*
X110245Y365893D02*Y365107D01*
X115755Y365893D02*Y365107D01*
X148032Y467686D02*X151968D01*
X148032Y478314D02*X151968D01*
X176075Y467686D02*X180011D01*
X176075Y478314D02*X180011D01*
G54D80*X200342Y407276D02*Y417118D01*
X180658Y407276D02*Y417118D01*
G54D77*X146550Y466350D02*X147850D01*
X145850Y465650D02*X146550Y466350D01*
X145850Y463050D02*Y465650D01*
Y463050D02*X146550Y462350D01*
X147850D01*
X149050Y463150D02*X149850Y462350D01*
Y466350D01*
X149050D02*X150550D01*
X153250Y462350D02*X153750Y462850D01*
X152250Y462350D02*X153250D01*
X151750Y462850D02*X152250Y462350D01*
X151750Y462850D02*Y465850D01*
X152250Y466350D01*
X153250Y464150D02*X153750Y464650D01*
X151750Y464150D02*X153250D01*
X152250Y466350D02*X153250D01*
X153750Y465850D01*
Y464650D02*Y465850D01*
X127850Y456745D02*Y458045D01*
X127150Y458745D02*X127850Y458045D01*
X124550Y458745D02*X127150D01*
X124550D02*X123850Y458045D01*
Y456745D02*Y458045D01*
X127850Y455045D02*X125850Y453545D01*
X124350D02*X125850D01*
X123850Y454045D02*X124350Y453545D01*
X123850Y454045D02*Y455045D01*
X124350Y455545D02*X123850Y455045D01*
X124350Y455545D02*X125350D01*
X125850Y455045D01*
Y453545D02*Y455045D01*
X175093Y465350D02*X176393D01*
X174393Y464650D02*X175093Y465350D01*
X174393Y462050D02*Y464650D01*
Y462050D02*X175093Y461350D01*
X176393D01*
X177593Y462150D02*X178393Y461350D01*
Y465350D01*
X177593D02*X179093D01*
X180293Y461350D02*X182293D01*
X180293D02*Y463350D01*
X180793Y462850D01*
X181793D01*
X182293Y463350D01*
Y464850D01*
X181793Y465350D02*X182293Y464850D01*
X180793Y465350D02*X181793D01*
X180293Y464850D02*X180793Y465350D01*
X123550Y469850D02*X124850D01*
X122850Y469150D02*X123550Y469850D01*
X122850Y466550D02*Y469150D01*
Y466550D02*X123550Y465850D01*
X124850D01*
X126050Y466350D02*X126550Y465850D01*
X127550D01*
X128050Y466350D01*
X127550Y469850D02*X128050Y469350D01*
X126550Y469850D02*X127550D01*
X126050Y469350D02*X126550Y469850D01*
Y467650D02*X127550D01*
X128050Y466350D02*Y467150D01*
Y468150D02*Y469350D01*
Y468150D02*X127550Y467650D01*
X128050Y467150D02*X127550Y467650D01*
X113000Y354000D02*X116500D01*
X117000Y353500D01*
Y352500D02*Y353500D01*
Y352500D02*X116500Y352000D01*
X113000D02*X116500D01*
X113500Y350800D02*X113000Y350300D01*
Y349300D02*Y350300D01*
Y349300D02*X113500Y348800D01*
X117000Y349300D02*X116500Y348800D01*
X117000Y349300D02*Y350300D01*
X116500Y350800D02*X117000Y350300D01*
X114800Y349300D02*Y350300D01*
X113500Y348800D02*X114300D01*
X115300D02*X116500D01*
X115300D02*X114800Y349300D01*
X114300Y348800D02*X114800Y349300D01*
X78850Y357193D02*Y359193D01*
Y357193D02*X79350Y356693D01*
X80350D01*
X80850Y357193D02*X80350Y356693D01*
X80850Y357193D02*Y358693D01*
X78850D02*X82850D01*
X80850Y357893D02*X82850Y356693D01*
Y354993D02*X78850Y352993D01*
Y355493D01*
X104850Y367693D02*Y369693D01*
Y367693D02*X105350Y367193D01*
X106350D01*
X106850Y367693D02*X106350Y367193D01*
X106850Y367693D02*Y369193D01*
X104850D02*X108850D01*
X106850Y368393D02*X108850Y367193D01*
X105650Y365993D02*X104850Y365193D01*
X108850D01*
Y364493D02*Y365993D01*
X107350Y363293D02*X104850Y361293D01*
X107350Y360793D02*Y363293D01*
X104850Y361293D02*X108850D01*
X95350Y369693D02*Y370993D01*
X94650Y371693D02*X95350Y370993D01*
X92050Y371693D02*X94650D01*
X92050D02*X91350Y370993D01*
Y369693D02*Y370993D01*
X91850Y368493D02*X91350Y367993D01*
Y366493D02*Y367993D01*
Y366493D02*X91850Y365993D01*
X92850D01*
X95350Y368493D02*X92850Y365993D01*
X95350D02*Y368493D01*
Y364293D02*X93350Y362793D01*
X91850D02*X93350D01*
X91350Y363293D02*X91850Y362793D01*
X91350Y363293D02*Y364293D01*
X91850Y364793D02*X91350Y364293D01*
X91850Y364793D02*X92850D01*
X93350Y364293D01*
Y362793D02*Y364293D01*
X150350Y400098D02*Y401398D01*
X149650Y402098D02*X150350Y401398D01*
X147050Y402098D02*X149650D01*
X147050D02*X146350Y401398D01*
Y400098D02*Y401398D01*
X147150Y398898D02*X146350Y398098D01*
X150350D01*
Y397398D02*Y398898D01*
Y395698D02*X146350Y393698D01*
Y396198D01*
X177980Y412756D02*Y414056D01*
X177280Y414756D02*X177980Y414056D01*
X174680Y414756D02*X177280D01*
X174680D02*X173980Y414056D01*
Y412756D02*Y414056D01*
X177480Y411556D02*X177980Y411056D01*
X176680Y411556D02*X177480D01*
X176680D02*X175980Y410856D01*
Y410256D02*Y410856D01*
Y410256D02*X176680Y409556D01*
X177480D01*
X177980Y410056D02*X177480Y409556D01*
X177980Y410056D02*Y411056D01*
X175280Y411556D02*X175980Y410856D01*
X174480Y411556D02*X175280D01*
X174480D02*X173980Y411056D01*
Y410056D02*Y411056D01*
Y410056D02*X174480Y409556D01*
X175280D01*
X175980Y410256D02*X175280Y409556D01*
X107350Y450055D02*Y452055D01*
Y450055D02*X107850Y449555D01*
X108850D01*
X109350Y450055D02*X108850Y449555D01*
X109350Y450055D02*Y451555D01*
X107350D02*X111350D01*
X109350Y450755D02*X111350Y449555D01*
X107350Y446355D02*Y448355D01*
X109350D01*
X108850Y447855D01*
Y446855D02*Y447855D01*
Y446855D02*X109350Y446355D01*
X110850D01*
X111350Y446855D02*X110850Y446355D01*
X111350Y446855D02*Y447855D01*
X110850Y448355D02*X111350Y447855D01*
X102850Y386193D02*Y388193D01*
Y386193D02*X103350Y385693D01*
X104350D01*
X104850Y386193D02*X104350Y385693D01*
X104850Y386193D02*Y387693D01*
X102850D02*X106850D01*
X104850Y386893D02*X106850Y385693D01*
X103650Y384493D02*X102850Y383693D01*
X106850D01*
Y382993D02*Y384493D01*
X103350Y381793D02*X102850Y381293D01*
Y380293D02*Y381293D01*
Y380293D02*X103350Y379793D01*
X106850Y380293D02*X106350Y379793D01*
X106850Y380293D02*Y381293D01*
X106350Y381793D02*X106850Y381293D01*
X104650Y380293D02*Y381293D01*
X103350Y379793D02*X104150D01*
X105150D02*X106350D01*
X105150D02*X104650Y380293D01*
X104150Y379793D02*X104650Y380293D01*
X106850Y432650D02*Y433950D01*
X106150Y434650D02*X106850Y433950D01*
X103550Y434650D02*X106150D01*
X103550D02*X102850Y433950D01*
Y432650D02*Y433950D01*
X103350Y431450D02*X102850Y430950D01*
Y429450D02*Y430950D01*
Y429450D02*X103350Y428950D01*
X104350D01*
X106850Y431450D02*X104350Y428950D01*
X106850D02*Y431450D01*
X106350Y427750D02*X106850Y427250D01*
X105550Y427750D02*X106350D01*
X105550D02*X104850Y427050D01*
Y426450D02*Y427050D01*
Y426450D02*X105550Y425750D01*
X106350D01*
X106850Y426250D02*X106350Y425750D01*
X106850Y426250D02*Y427250D01*
X104150Y427750D02*X104850Y427050D01*
X103350Y427750D02*X104150D01*
X103350D02*X102850Y427250D01*
Y426250D02*Y427250D01*
Y426250D02*X103350Y425750D01*
X104150D01*
X104850Y426450D02*X104150Y425750D01*
X112500Y401500D02*X116000D01*
X116500Y401000D01*
Y400000D02*Y401000D01*
Y400000D02*X116000Y399500D01*
X112500D02*X116000D01*
X115000Y398300D02*X112500Y396300D01*
X115000Y395800D02*Y398300D01*
X112500Y396300D02*X116500D01*
X109850Y431650D02*Y433650D01*
Y431650D02*X110350Y431150D01*
X111350D01*
X111850Y431650D02*X111350Y431150D01*
X111850Y431650D02*Y433150D01*
X109850D02*X113850D01*
X111850Y432350D02*X113850Y431150D01*
X110650Y429950D02*X109850Y429150D01*
X113850D01*
Y428450D02*Y429950D01*
X110650Y427250D02*X109850Y426450D01*
X113850D01*
Y425750D02*Y427250D01*
X84350Y421150D02*Y422450D01*
X83650Y423150D02*X84350Y422450D01*
X81050Y423150D02*X83650D01*
X81050D02*X80350Y422450D01*
Y421150D02*Y422450D01*
X80850Y419950D02*X80350Y419450D01*
Y417950D02*Y419450D01*
Y417950D02*X80850Y417450D01*
X81850D01*
X84350Y419950D02*X81850Y417450D01*
X84350D02*Y419950D01*
Y415750D02*X80350Y413750D01*
Y416250D01*
X93350Y432150D02*Y434150D01*
Y432150D02*X93850Y431650D01*
X94850D01*
X95350Y432150D02*X94850Y431650D01*
X95350Y432150D02*Y433650D01*
X93350D02*X97350D01*
X95350Y432850D02*X97350Y431650D01*
X94150Y430450D02*X93350Y429650D01*
X97350D01*
Y428950D02*Y430450D01*
X96850Y427750D02*X97350Y427250D01*
X93850Y427750D02*X96850D01*
X93850D02*X93350Y427250D01*
Y426250D02*Y427250D01*
Y426250D02*X93850Y425750D01*
X96850D01*
X97350Y426250D02*X96850Y425750D01*
X97350Y426250D02*Y427250D01*
X96350Y427750D02*X94350Y425750D01*
X139850Y412350D02*X141850D01*
X142350Y412850D01*
Y413850D01*
X141850Y414350D02*X142350Y413850D01*
X140350Y414350D02*X141850D01*
X140350Y412350D02*Y416350D01*
X141150Y414350D02*X142350Y416350D01*
X145050Y412350D02*X145550Y412850D01*
X144050Y412350D02*X145050D01*
X143550Y412850D02*X144050Y412350D01*
X143550Y412850D02*Y415850D01*
X144050Y416350D01*
X145050Y414150D02*X145550Y414650D01*
X143550Y414150D02*X145050D01*
X144050Y416350D02*X145050D01*
X145550Y415850D01*
Y414650D02*Y415850D01*
X117850Y427650D02*Y429650D01*
Y427650D02*X118350Y427150D01*
X119350D01*
X119850Y427650D02*X119350Y427150D01*
X119850Y427650D02*Y429150D01*
X117850D02*X121850D01*
X119850Y428350D02*X121850Y427150D01*
Y425450D02*X119850Y423950D01*
X118350D02*X119850D01*
X117850Y424450D02*X118350Y423950D01*
X117850Y424450D02*Y425450D01*
X118350Y425950D02*X117850Y425450D01*
X118350Y425950D02*X119350D01*
X119850Y425450D01*
Y423950D02*Y425450D01*
X150550Y440350D02*X151850D01*
X149850Y439650D02*X150550Y440350D01*
X149850Y437050D02*Y439650D01*
Y437050D02*X150550Y436350D01*
X151850D01*
X153050Y436850D02*X153550Y436350D01*
X155050D01*
X155550Y436850D01*
Y437850D01*
X153050Y440350D02*X155550Y437850D01*
X153050Y440350D02*X155550D01*
X158250Y436350D02*X158750Y436850D01*
X157250Y436350D02*X158250D01*
X156750Y436850D02*X157250Y436350D01*
X156750Y436850D02*Y439850D01*
X157250Y440350D01*
X158250Y438150D02*X158750Y438650D01*
X156750Y438150D02*X158250D01*
X157250Y440350D02*X158250D01*
X158750Y439850D01*
Y438650D02*Y439850D01*
M02*
