M48
INCH
T54C0.020
T53C0.035
T52C0.043
T51C0.032
T50C0.079
T49C0.030
T48C0.042
%
T54
X012550Y038825
X012550Y034075
X013191Y047500
X013200Y044100
X013300Y040100
X013550Y036125
X014200Y044300
X014400Y045950
X014696Y037000
X014800Y043250
X015550Y038825
X016050Y040875
X016550Y046950
X018450Y040900
T49
X021150Y036150
X022150Y036150
X023850Y035200
X024850Y035200
T51
X010100Y045400
X010100Y044400
X010100Y035400
X010100Y034400
T53
X013750Y037550
X014350Y040850
X015000Y033650
X015650Y035150
X016000Y042150
X016050Y037750
X017100Y045150
X023350Y045150
X023350Y043250
X023350Y039450
X023350Y037350
X025300Y047150
X025300Y041450
X025900Y047150
X025900Y041450
T48
X021100Y047150
X021100Y046150
X021100Y045150
X021100Y044150
X021100Y043150
X021100Y041450
X021100Y040450
X021100Y039450
X021100Y038450
T52
X006650Y040400
X008650Y040400
X009650Y040400
X010650Y040400
T50
X008100Y047400
X008100Y043400
X008100Y037400
X008100Y033400
M30
