G04 start of page 8 for group -4079 idx -4079 *
G04 Title: (unknown), topsilk *
G04 Creator: pcb 20140316 *
G04 CreationDate: Fri 20 Nov 2015 02:08:32 PM GMT UTC *
G04 For: fosse *
G04 Format: Gerber/RS-274X *
G04 PCB-Dimensions (mil): 3170.00 5000.00 *
G04 PCB-Coordinate-Origin: lower left *
%MOIN*%
%FSLAX25Y25*%
%LNTOPSILK*%
%ADD76C,0.0197*%
%ADD75C,0.0150*%
%ADD74C,0.0400*%
%ADD73C,0.0080*%
%ADD72C,0.0100*%
%ADD71C,0.0070*%
G54D71*X113000Y457000D02*X117000D01*
X113000Y458300D02*X113700Y459000D01*
X116300D01*
X117000Y458300D02*X116300Y459000D01*
X117000Y458300D02*Y456500D01*
X113000Y458300D02*Y456500D01*
X117000Y462200D02*Y460900D01*
X116300Y460200D02*X117000Y460900D01*
X113700Y460200D02*X116300D01*
X113700D02*X113000Y460900D01*
Y462200D02*Y460900D01*
X113500Y465200D02*X116500D01*
X113500D02*X113000Y465700D01*
Y466700D02*Y465700D01*
Y466700D02*X113500Y467200D01*
X116500D01*
X117000Y466700D02*X116500Y467200D01*
X117000Y466700D02*Y465700D01*
X116500Y465200D02*X117000Y465700D01*
X115000Y468400D02*X116500D01*
X117000Y468900D01*
Y469900D02*Y468900D01*
Y469900D02*X116500Y470400D01*
X115000D02*X116500D01*
X113000Y472100D02*X116500D01*
X117000Y472600D01*
X114500D02*Y471600D01*
X115500Y474100D02*X118500D01*
X115000Y473600D02*X115500Y474100D01*
X115000Y474600D01*
Y475600D02*Y474600D01*
Y475600D02*X115500Y476100D01*
X116500D01*
X117000Y475600D02*X116500Y476100D01*
X117000Y475600D02*Y474600D01*
X116500Y474100D02*X117000Y474600D01*
X115000Y477300D02*X116500D01*
X117000Y477800D01*
Y478800D02*Y477800D01*
Y478800D02*X116500Y479300D01*
X115000D02*X116500D01*
X113000Y481000D02*X116500D01*
X117000Y481500D01*
X114500D02*Y480500D01*
X189500Y451500D02*X191500D01*
X192700Y452700D02*X193500Y453500D01*
Y449500D01*
X192700D02*X194200D01*
X195400Y453500D02*X197400D01*
X195400D02*Y451500D01*
X195900Y452000D01*
X196900D01*
X197400Y451500D01*
Y450000D01*
X196900Y449500D02*X197400Y450000D01*
X195900Y449500D02*X196900D01*
X195400Y450000D02*X195900Y449500D01*
X198600Y453500D02*X199600Y449500D01*
X200600Y453500D01*
X114000Y357500D02*X117000D01*
X114000D02*X113000Y358200D01*
Y359300D02*Y358200D01*
Y359300D02*X114000Y360000D01*
X117000D01*
X115000D02*Y357500D01*
X117000Y363200D02*Y361900D01*
X116300Y361200D02*X117000Y361900D01*
X113700Y361200D02*X116300D01*
X113700D02*X113000Y361900D01*
Y363200D02*Y361900D01*
X113500Y366200D02*X116500D01*
X113500D02*X113000Y366700D01*
Y367700D02*Y366700D01*
Y367700D02*X113500Y368200D01*
X116500D01*
X117000Y367700D02*X116500Y368200D01*
X117000Y367700D02*Y366700D01*
X116500Y366200D02*X117000Y366700D01*
X115000Y369400D02*X116500D01*
X117000Y369900D01*
Y370900D02*Y369900D01*
Y370900D02*X116500Y371400D01*
X115000D02*X116500D01*
X113000Y373100D02*X116500D01*
X117000Y373600D01*
X114500D02*Y372600D01*
X115500Y375100D02*X118500D01*
X115000Y374600D02*X115500Y375100D01*
X115000Y375600D01*
Y376600D02*Y375600D01*
Y376600D02*X115500Y377100D01*
X116500D01*
X117000Y376600D02*X116500Y377100D01*
X117000Y376600D02*Y375600D01*
X116500Y375100D02*X117000Y375600D01*
X115000Y378300D02*X116500D01*
X117000Y378800D01*
Y379800D02*Y378800D01*
Y379800D02*X116500Y380300D01*
X115000D02*X116500D01*
X113000Y382000D02*X116500D01*
X117000Y382500D01*
X114500D02*Y381500D01*
X163000Y332500D02*Y328500D01*
X164300Y332500D02*X165000Y331800D01*
Y329200D01*
X164300Y328500D02*X165000Y329200D01*
X162500Y328500D02*X164300D01*
X162500Y332500D02*X164300D01*
X166900Y328500D02*X168200D01*
X166200Y329200D02*X166900Y328500D01*
X166200Y331800D02*Y329200D01*
Y331800D02*X166900Y332500D01*
X168200D01*
X171200D02*Y328500D01*
Y332500D02*X173200D01*
X171200Y330700D02*X172700D01*
X174400Y331500D02*Y331400D01*
Y330000D02*Y328500D01*
X175400Y332500D02*Y329000D01*
X175900Y328500D01*
X177400Y332500D02*Y329000D01*
X177900Y328500D01*
X176900Y331000D02*X177900D01*
X179400Y328500D02*X180900D01*
X178900Y329000D02*X179400Y328500D01*
X178900Y330000D02*Y329000D01*
Y330000D02*X179400Y330500D01*
X180400D01*
X180900Y330000D01*
X178900Y329500D02*X180900D01*
Y330000D02*Y329500D01*
X182600Y330000D02*Y328500D01*
Y330000D02*X183100Y330500D01*
X184100D01*
X182100D02*X182600Y330000D01*
X187100Y332500D02*Y328500D01*
Y329000D02*X187600Y328500D01*
X188600D01*
X189100Y329000D01*
Y330000D02*Y329000D01*
X188600Y330500D02*X189100Y330000D01*
X187600Y330500D02*X188600D01*
X187100Y330000D02*X187600Y330500D01*
X190300D02*Y329000D01*
X190800Y328500D01*
X192300Y330500D02*Y327500D01*
X191800Y327000D02*X192300Y327500D01*
X190800Y327000D02*X191800D01*
X190300Y327500D02*X190800Y327000D01*
Y328500D02*X191800D01*
X192300Y329000D01*
X195300Y332500D02*X196300D01*
X195800D02*Y328500D01*
X195300D02*X196300D01*
X198200Y332500D02*X199000D01*
Y329000D01*
X198500Y328500D02*X199000Y329000D01*
X198000Y328500D02*X198500D01*
X197500Y329000D02*X198000Y328500D01*
X197500Y329500D02*Y329000D01*
X202200Y332500D02*X202700Y332000D01*
X200700Y332500D02*X202200D01*
X200200Y332000D02*X200700Y332500D01*
X200200Y332000D02*Y331000D01*
X200700Y330500D01*
X202200D01*
X202700Y330000D01*
Y329000D01*
X202200Y328500D02*X202700Y329000D01*
X200700Y328500D02*X202200D01*
X200200Y329000D02*X200700Y328500D01*
X162500Y338500D02*Y335500D01*
Y338500D02*X163200Y339500D01*
X164300D01*
X165000Y338500D01*
Y335500D01*
X162500Y337500D02*X165000D01*
X166900Y335500D02*X168200D01*
X166200Y336200D02*X166900Y335500D01*
X166200Y338800D02*Y336200D01*
Y338800D02*X166900Y339500D01*
X168200D01*
X171200Y338500D02*Y335500D01*
Y338500D02*X171900Y339500D01*
X173000D01*
X173700Y338500D01*
Y335500D01*
X171200Y337500D02*X173700D01*
X175400Y337000D02*Y335500D01*
Y337000D02*X175900Y337500D01*
X176400D01*
X176900Y337000D01*
Y335500D01*
Y337000D02*X177400Y337500D01*
X177900D01*
X178400Y337000D01*
Y335500D01*
X174900Y337500D02*X175400Y337000D01*
X180100D02*Y334000D01*
X179600Y337500D02*X180100Y337000D01*
X180600Y337500D01*
X181600D01*
X182100Y337000D01*
Y336000D01*
X181600Y335500D02*X182100Y336000D01*
X180600Y335500D02*X181600D01*
X180100Y336000D02*X180600Y335500D01*
X183300D02*X183800D01*
X185000Y334500D02*X186000Y335500D01*
X189000Y339500D02*X190000D01*
X189500D02*Y335500D01*
X189000D02*X190000D01*
X191700Y337000D02*Y335500D01*
Y337000D02*X192200Y337500D01*
X192700D01*
X193200Y337000D01*
Y335500D01*
X191200Y337500D02*X191700Y337000D01*
X194900Y339500D02*Y336000D01*
X195400Y335500D01*
X194400Y338000D02*X195400D01*
X196900Y335500D02*X198400D01*
X196400Y336000D02*X196900Y335500D01*
X196400Y337000D02*Y336000D01*
Y337000D02*X196900Y337500D01*
X197900D01*
X198400Y337000D01*
X196400Y336500D02*X198400D01*
Y337000D02*Y336500D01*
X201100Y337500D02*X201600Y337000D01*
X200100Y337500D02*X201100D01*
X199600Y337000D02*X200100Y337500D01*
X199600Y337000D02*Y336000D01*
X200100Y335500D01*
X201100D01*
X201600Y336000D01*
X199600Y334500D02*X200100Y334000D01*
X201100D01*
X201600Y334500D01*
Y337500D02*Y334500D01*
X203300Y337000D02*Y335500D01*
Y337000D02*X203800Y337500D01*
X204800D01*
X202800D02*X203300Y337000D01*
X207500Y337500D02*X208000Y337000D01*
X206500Y337500D02*X207500D01*
X206000Y337000D02*X206500Y337500D01*
X206000Y337000D02*Y336000D01*
X206500Y335500D01*
X208000Y337500D02*Y336000D01*
X208500Y335500D01*
X206500D02*X207500D01*
X208000Y336000D01*
X210200Y339500D02*Y336000D01*
X210700Y335500D01*
X209700Y338000D02*X210700D01*
X211700Y337000D02*Y336000D01*
Y337000D02*X212200Y337500D01*
X213200D01*
X213700Y337000D01*
Y336000D01*
X213200Y335500D02*X213700Y336000D01*
X212200Y335500D02*X213200D01*
X211700Y336000D02*X212200Y335500D01*
X215400Y337000D02*Y335500D01*
Y337000D02*X215900Y337500D01*
X216900D01*
X214900D02*X215400Y337000D01*
X219900Y336000D02*X220400Y335500D01*
X219900Y339000D02*Y338000D01*
Y339000D02*X220400Y339500D01*
X219900Y337000D02*X221400Y338500D01*
X220400Y335500D02*X220900D01*
X221900Y336500D01*
X219900Y338000D02*X222400Y335500D01*
X220400Y339500D02*X220900D01*
X221400Y339000D01*
Y338500D01*
X219900Y337000D02*Y336000D01*
X225400Y339500D02*Y335500D01*
X227400D01*
X230100Y337500D02*X230600Y337000D01*
X229100Y337500D02*X230100D01*
X228600Y337000D02*X229100Y337500D01*
X228600Y337000D02*Y336000D01*
X229100Y335500D01*
X230600Y337500D02*Y336000D01*
X231100Y335500D01*
X229100D02*X230100D01*
X230600Y336000D01*
X232300Y337500D02*Y336000D01*
X232800Y335500D01*
X234300Y337500D02*Y334500D01*
X233800Y334000D02*X234300Y334500D01*
X232800Y334000D02*X233800D01*
X232300Y334500D02*X232800Y334000D01*
Y335500D02*X233800D01*
X234300Y336000D01*
X235500Y337000D02*Y336000D01*
Y337000D02*X236000Y337500D01*
X237000D01*
X237500Y337000D01*
Y336000D01*
X237000Y335500D02*X237500Y336000D01*
X236000Y335500D02*X237000D01*
X235500Y336000D02*X236000Y335500D01*
X238700Y337500D02*Y336000D01*
X239200Y335500D01*
X240200D01*
X240700Y336000D01*
Y337500D02*Y336000D01*
X242400Y339500D02*Y336000D01*
X242900Y335500D01*
X241900Y338000D02*X242900D01*
X245700Y335500D02*X247700D01*
X248200Y336000D01*
Y337200D02*Y336000D01*
X247700Y337700D02*X248200Y337200D01*
X246200Y337700D02*X247700D01*
X246200Y339500D02*Y335500D01*
X245700Y339500D02*X247700D01*
X248200Y339000D01*
Y338200D01*
X247700Y337700D02*X248200Y338200D01*
X249400Y337500D02*Y336000D01*
X249900Y335500D01*
X251400Y337500D02*Y334500D01*
X250900Y334000D02*X251400Y334500D01*
X249900Y334000D02*X250900D01*
X249400Y334500D02*X249900Y334000D01*
Y335500D02*X250900D01*
X251400Y336000D01*
X254400Y337700D02*X255900D01*
X254400Y335500D02*X256400D01*
X254400Y339500D02*Y335500D01*
Y339500D02*X256400D01*
X257600Y337700D02*X259100D01*
X257600Y335500D02*X259600D01*
X257600Y339500D02*Y335500D01*
Y339500D02*X259600D01*
X260800D02*Y335500D01*
Y339500D02*X262800D01*
X260800Y337700D02*X262300D01*
X163000Y352000D02*Y348000D01*
X164300Y352000D02*X165000Y351300D01*
Y348700D01*
X164300Y348000D02*X165000Y348700D01*
X162500Y348000D02*X164300D01*
X162500Y352000D02*X164300D01*
X166200Y350000D02*Y348500D01*
X166700Y348000D01*
X167700D01*
X168200Y348500D01*
Y350000D02*Y348500D01*
X170900Y350000D02*X171400Y349500D01*
X169900Y350000D02*X170900D01*
X169400Y349500D02*X169900Y350000D01*
X169400Y349500D02*Y348500D01*
X169900Y348000D01*
X171400Y350000D02*Y348500D01*
X171900Y348000D01*
X169900D02*X170900D01*
X171400Y348500D01*
X173100Y352000D02*Y348500D01*
X173600Y348000D01*
X177100D02*X178400D01*
X176400Y348700D02*X177100Y348000D01*
X176400Y351300D02*Y348700D01*
Y351300D02*X177100Y352000D01*
X178400D01*
X181100Y350000D02*X181600Y349500D01*
X180100Y350000D02*X181100D01*
X179600Y349500D02*X180100Y350000D01*
X179600Y349500D02*Y348500D01*
X180100Y348000D01*
X181600Y350000D02*Y348500D01*
X182100Y348000D01*
X180100D02*X181100D01*
X181600Y348500D01*
X183300Y352000D02*Y348000D01*
Y348500D02*X183800Y348000D01*
X184800D01*
X185300Y348500D01*
Y349500D02*Y348500D01*
X184800Y350000D02*X185300Y349500D01*
X183800Y350000D02*X184800D01*
X183300Y349500D02*X183800Y350000D01*
X186500Y352000D02*Y348500D01*
X187000Y348000D01*
X188500D02*X190000D01*
X188000Y348500D02*X188500Y348000D01*
X188000Y349500D02*Y348500D01*
Y349500D02*X188500Y350000D01*
X189500D01*
X190000Y349500D01*
X188000Y349000D02*X190000D01*
Y349500D02*Y349000D01*
X193500Y352000D02*Y348000D01*
X194800Y352000D02*X195500Y351300D01*
Y348700D01*
X194800Y348000D02*X195500Y348700D01*
X193000Y348000D02*X194800D01*
X193000Y352000D02*X194800D01*
X197200Y349500D02*Y348000D01*
Y349500D02*X197700Y350000D01*
X198700D01*
X196700D02*X197200Y349500D01*
X199900Y351000D02*Y350900D01*
Y349500D02*Y348000D01*
X200900Y350000D02*X201900Y348000D01*
X202900Y350000D02*X201900Y348000D01*
X204600D02*X206100D01*
X204100Y348500D02*X204600Y348000D01*
X204100Y349500D02*Y348500D01*
Y349500D02*X204600Y350000D01*
X205600D01*
X206100Y349500D01*
X204100Y349000D02*X206100D01*
Y349500D02*Y349000D01*
X207800Y349500D02*Y348000D01*
Y349500D02*X208300Y350000D01*
X209300D01*
X207300D02*X207800Y349500D01*
X162500Y344200D02*X164000D01*
X162500Y342000D02*X164500D01*
X162500Y346000D02*Y342000D01*
Y346000D02*X164500D01*
X167200Y344000D02*X167700Y343500D01*
X166200Y344000D02*X167200D01*
X165700Y343500D02*X166200Y344000D01*
X165700Y343500D02*Y342500D01*
X166200Y342000D01*
X167700Y344000D02*Y342500D01*
X168200Y342000D01*
X166200D02*X167200D01*
X167700Y342500D01*
X169900Y346000D02*Y342500D01*
X170400Y342000D01*
X169400Y344500D02*X170400D01*
X171400Y343500D02*Y342500D01*
Y343500D02*X171900Y344000D01*
X172900D01*
X173400Y343500D01*
Y342500D01*
X172900Y342000D02*X173400Y342500D01*
X171900Y342000D02*X172900D01*
X171400Y342500D02*X171900Y342000D01*
X175100Y343500D02*Y342000D01*
Y343500D02*X175600Y344000D01*
X176100D01*
X176600Y343500D01*
Y342000D01*
X174600Y344000D02*X175100Y343500D01*
X180100Y346000D02*Y342000D01*
X179600Y346000D02*X181600D01*
X182100Y345500D01*
Y344500D01*
X181600Y344000D02*X182100Y344500D01*
X180100Y344000D02*X181600D01*
X183800Y342000D02*X185300D01*
X183300Y342500D02*X183800Y342000D01*
X183300Y343500D02*Y342500D01*
Y343500D02*X183800Y344000D01*
X184800D01*
X185300Y343500D01*
X183300Y343000D02*X185300D01*
Y343500D02*Y343000D01*
X188000Y344000D02*X188500Y343500D01*
X187000Y344000D02*X188000D01*
X186500Y343500D02*X187000Y344000D01*
X186500Y343500D02*Y342500D01*
X187000Y342000D01*
X188500Y344000D02*Y342500D01*
X189000Y342000D01*
X187000D02*X188000D01*
X188500Y342500D01*
X190200Y346000D02*Y342000D01*
Y342500D02*X190700Y342000D01*
X191700D01*
X192200Y342500D01*
Y343500D02*Y342500D01*
X191700Y344000D02*X192200Y343500D01*
X190700Y344000D02*X191700D01*
X190200Y343500D02*X190700Y344000D01*
X193400Y343500D02*Y342500D01*
Y343500D02*X193900Y344000D01*
X194900D01*
X195400Y343500D01*
Y342500D01*
X194900Y342000D02*X195400Y342500D01*
X193900Y342000D02*X194900D01*
X193400Y342500D02*X193900Y342000D01*
X198600Y346000D02*Y342000D01*
X198100D02*X198600Y342500D01*
X197100Y342000D02*X198100D01*
X196600Y342500D02*X197100Y342000D01*
X196600Y343500D02*Y342500D01*
Y343500D02*X197100Y344000D01*
X198100D01*
X198600Y343500D01*
X199800Y344000D02*Y342500D01*
X200300Y342000D01*
X201800Y344000D02*Y341000D01*
X201300Y340500D02*X201800Y341000D01*
X200300Y340500D02*X201300D01*
X199800Y341000D02*X200300Y340500D01*
Y342000D02*X201300D01*
X201800Y342500D01*
X204800Y346000D02*Y342000D01*
X206800D01*
X209500Y344000D02*X210000Y343500D01*
X208500Y344000D02*X209500D01*
X208000Y343500D02*X208500Y344000D01*
X208000Y343500D02*Y342500D01*
X208500Y342000D01*
X210000Y344000D02*Y342500D01*
X210500Y342000D01*
X208500D02*X209500D01*
X210000Y342500D01*
X211700Y346000D02*Y342000D01*
Y342500D02*X212200Y342000D01*
X213200D01*
X213700Y342500D01*
Y343500D02*Y342500D01*
X213200Y344000D02*X213700Y343500D01*
X212200Y344000D02*X213200D01*
X211700Y343500D02*X212200Y344000D01*
X225500Y332000D02*X226000Y332500D01*
X227500D01*
X228000Y332000D01*
Y331000D01*
X225500Y328500D02*X228000Y331000D01*
X225500Y328500D02*X228000D01*
X229200Y329000D02*X229700Y328500D01*
X229200Y332000D02*Y329000D01*
Y332000D02*X229700Y332500D01*
X230700D01*
X231200Y332000D01*
Y329000D01*
X230700Y328500D02*X231200Y329000D01*
X229700Y328500D02*X230700D01*
X229200Y329500D02*X231200Y331500D01*
X232400Y331700D02*X233200Y332500D01*
Y328500D01*
X232400D02*X233900D01*
X235100Y332500D02*X237100D01*
X235100D02*Y330500D01*
X235600Y331000D01*
X236600D01*
X237100Y330500D01*
Y329000D01*
X236600Y328500D02*X237100Y329000D01*
X235600Y328500D02*X236600D01*
X235100Y329000D02*X235600Y328500D01*
X238300D02*X238800D01*
X240000Y331700D02*X240800Y332500D01*
Y328500D01*
X240000D02*X241500D01*
X242700Y331700D02*X243500Y332500D01*
Y328500D01*
X242700D02*X244200D01*
X245400D02*X245900D01*
X247100Y331700D02*X247900Y332500D01*
Y328500D01*
X247100D02*X248600D01*
X249800Y332000D02*X250300Y332500D01*
X251300D01*
X251800Y332000D01*
X251300Y328500D02*X251800Y329000D01*
X250300Y328500D02*X251300D01*
X249800Y329000D02*X250300Y328500D01*
Y330700D02*X251300D01*
X251800Y332000D02*Y331200D01*
Y330200D02*Y329000D01*
Y330200D02*X251300Y330700D01*
X251800Y331200D02*X251300Y330700D01*
X186700Y469500D02*X188000D01*
X186000Y470200D02*X186700Y469500D01*
X186000Y472800D02*Y470200D01*
Y472800D02*X186700Y473500D01*
X188000D01*
X189200D02*Y469500D01*
X191700Y473500D02*Y469500D01*
X189200Y471500D02*X191700D01*
X192900Y472500D02*Y469500D01*
Y472500D02*X193600Y473500D01*
X194700D01*
X195400Y472500D01*
Y469500D01*
X192900Y471500D02*X195400D01*
X198600Y473500D02*X199100Y473000D01*
X197100Y473500D02*X198600D01*
X196600Y473000D02*X197100Y473500D01*
X196600Y473000D02*Y472000D01*
X197100Y471500D01*
X198600D01*
X199100Y471000D01*
Y470000D01*
X198600Y469500D02*X199100Y470000D01*
X197100Y469500D02*X198600D01*
X196600Y470000D02*X197100Y469500D01*
X200300D02*X200800D01*
X189500Y441500D02*X191500D01*
X190500Y442500D02*Y440500D01*
X192700Y442700D02*X193500Y443500D01*
Y439500D01*
X192700D02*X194200D01*
X195400Y443500D02*X197400D01*
X195400D02*Y441500D01*
X195900Y442000D01*
X196900D01*
X197400Y441500D01*
Y440000D01*
X196900Y439500D02*X197400Y440000D01*
X195900Y439500D02*X196900D01*
X195400Y440000D02*X195900Y439500D01*
X198600Y443500D02*X199600Y439500D01*
X200600Y443500D01*
X190500Y459500D02*X191800D01*
X189800Y460200D02*X190500Y459500D01*
X189800Y462800D02*Y460200D01*
Y462800D02*X190500Y463500D01*
X191800D01*
X193000Y463000D02*Y460000D01*
Y463000D02*X193500Y463500D01*
X194500D01*
X195000Y463000D01*
Y460000D01*
X194500Y459500D02*X195000Y460000D01*
X193500Y459500D02*X194500D01*
X193000Y460000D02*X193500Y459500D01*
X196200Y463500D02*Y459500D01*
Y463500D02*X197700Y461500D01*
X199200Y463500D01*
Y459500D01*
X200400D02*X200900D01*
X192500Y434000D02*X193000Y433500D01*
X191000Y434000D02*X192500D01*
X190500Y433500D02*X191000Y434000D01*
X190500Y433500D02*Y432500D01*
X191000Y432000D01*
X192500D01*
X193000Y431500D01*
Y430500D01*
X192500Y430000D02*X193000Y430500D01*
X191000Y430000D02*X192500D01*
X190500Y430500D02*X191000Y430000D01*
X194200Y434000D02*X195200D01*
X194700D02*Y430000D01*
X194200D02*X195200D01*
X198400Y434000D02*X198900Y433500D01*
X196900Y434000D02*X198400D01*
X196400Y433500D02*X196900Y434000D01*
X196400Y433500D02*Y430500D01*
X196900Y430000D01*
X198400D01*
X198900Y430500D01*
Y431500D02*Y430500D01*
X198400Y432000D02*X198900Y431500D01*
X197400Y432000D02*X198400D01*
X200100Y430000D02*X200600D01*
G54D72*X148500Y383000D02*X167500D01*
Y414000D02*Y383000D01*
X148500Y414000D02*X167500D01*
X148500Y396000D02*Y383000D01*
Y414000D02*Y401000D01*
Y396000D02*G75*G03X148500Y401000I0J2500D01*G01*
G54D73*X133760Y391862D02*Y387138D01*
X141240Y391862D02*Y387138D01*
X146043Y425240D02*X150767D01*
X146043Y417760D02*X150767D01*
G54D72*X51150Y483000D02*Y425000D01*
X90000Y483000D02*X110850D01*
Y425000D01*
X51150D02*X72000D01*
X51150Y483000D02*X72000D01*
X90000Y425000D02*X110850D01*
X51984Y483000D03*
G54D73*X152607Y474255D02*X153393D01*
X152607Y468745D02*X153393D01*
G54D72*X51150Y383000D02*Y325000D01*
X90000Y383000D02*X110850D01*
Y325000D01*
X51150D02*X72000D01*
X51150Y383000D02*X72000D01*
X90000Y325000D02*X110850D01*
X51984Y383000D03*
X86500Y394000D02*Y414000D01*
X53200D01*
X51200Y392000D02*Y416000D01*
X86500Y394000D02*X53200D01*
X29200Y403700D02*Y404300D01*
Y394200D02*Y413800D01*
Y401500D02*Y406500D01*
Y401500D02*X10700D01*
X29200Y406500D02*X10700D01*
X51200Y413800D02*X29200D01*
X51200Y394200D02*X29200D01*
G54D74*X106500Y404000D02*X86500D01*
G54D72*X53200Y416000D02*X51200D01*
X53200Y392000D02*X51200D01*
X53200D02*Y416000D01*
X10700Y406500D02*G75*G03X8200Y404000I0J-2500D01*G01*
G75*G03X10700Y401500I2500J0D01*G01*
G54D73*X143760Y357362D02*Y352638D01*
X151240Y357362D02*Y352638D01*
X150107Y372755D02*X150893D01*
X150107Y367245D02*X150893D01*
X125638Y354740D02*X130362D01*
X125638Y347260D02*X130362D01*
X135043Y340240D02*X139767D01*
X135043Y332760D02*X139767D01*
G54D72*X125000Y443500D02*X144000D01*
Y474500D02*Y443500D01*
X125000Y474500D02*X144000D01*
X125000Y456500D02*Y443500D01*
Y474500D02*Y461500D01*
Y456500D02*G75*G03X125000Y461500I0J2500D01*G01*
X253700Y471500D02*X234000D01*
Y476500D02*X221500D01*
X234000Y471500D02*Y476500D01*
Y465000D02*Y468000D01*
G54D74*X247400Y461500D02*X245200D01*
X247400Y471500D02*X245200D01*
X238400Y461500D02*X236200D01*
X238400Y471500D02*X236200D01*
X229400D02*X227200D01*
X229400Y461500D02*X227200D01*
X219500Y471500D02*X211000D01*
X219500Y461500D02*X211000D01*
G54D72*X253700Y458000D02*Y471500D01*
G54D74*X258400Y461500D02*X255200D01*
X258400Y471500D02*X255200D01*
G54D75*X255400Y472750D02*X234300D01*
G54D72*X253700Y431500D02*X234000D01*
Y426500D02*X221500D01*
X234000D02*Y431500D01*
Y435000D02*Y438000D01*
Y445000D02*Y448000D01*
Y455000D02*Y458000D01*
G54D74*X247400Y451500D02*X245200D01*
X247400Y441500D02*X245200D01*
X247400Y431500D02*X245200D01*
X238400D02*X236200D01*
X229400Y451500D02*X227200D01*
X229400Y431500D02*X227200D01*
X229400Y441500D02*X227200D01*
X238400D02*X236200D01*
X238400Y451500D02*X236200D01*
X219500D02*X211000D01*
X219500Y441500D02*X211000D01*
X219500Y431500D02*X211000D01*
X258400Y451500D02*X255200D01*
X258400Y441500D02*X255200D01*
X258400Y431500D02*X255200D01*
G54D75*X255700Y430250D02*X234300D01*
G54D72*X221500Y426500D02*Y476500D01*
X253700Y431500D02*Y471500D01*
G54D73*X177650Y474255D02*X178436D01*
X177650Y468745D02*X178436D01*
G54D76*X176224Y435658D02*X166382D01*
Y455342D02*X176224D01*
G54D72*X253700Y414500D02*X234000D01*
Y419500D02*X221500D01*
X234000Y414500D02*Y419500D01*
Y408000D02*Y411000D01*
G54D74*X247400Y404500D02*X245200D01*
X247400Y414500D02*X245200D01*
X238400Y404500D02*X236200D01*
X238400Y414500D02*X236200D01*
X229400D02*X227200D01*
X229400Y404500D02*X227200D01*
X219500Y414500D02*X211000D01*
X219500Y404500D02*X211000D01*
G54D72*X253700Y401000D02*Y414500D01*
G54D74*X258400Y404500D02*X255200D01*
X258400Y414500D02*X255200D01*
G54D75*X255400Y415750D02*X234300D01*
G54D72*X234000Y398000D02*Y401000D01*
G54D74*X247400Y394500D02*X245200D01*
X229400D02*X227200D01*
X238400D02*X236200D01*
X219500D02*X211000D01*
X258400D02*X255200D01*
G54D72*X221500Y379500D02*Y419500D01*
X253700Y384500D02*X234000D01*
Y379500D02*X221500D01*
X234000D02*Y384500D01*
Y388000D02*Y391000D01*
G54D74*X247400Y384500D02*X245200D01*
X238400D02*X236200D01*
X229400D02*X227200D01*
X219500D02*X211000D01*
X258400D02*X255200D01*
G54D75*X255700Y383250D02*X234300D01*
G54D72*X253700Y384500D02*Y414500D01*
X200500Y361500D02*X204500D01*
X202500Y363500D02*Y359500D01*
X228500Y361500D02*X232500D01*
X206500D02*G75*G03X206500Y361500I10000J0D01*G01*
G54D76*X200342Y417224D02*Y407382D01*
X180658Y417224D02*Y407382D01*
G54D72*X227500Y352000D02*X231500D01*
X229500Y354000D02*Y350000D01*
X255500Y352000D02*X259500D01*
X233500D02*G75*G03X233500Y352000I10000J0D01*G01*
G54D73*X188638Y379740D02*X193362D01*
X188638Y372260D02*X193362D01*
X167138Y371740D02*X171862D01*
X167138Y364260D02*X171862D01*
G54D71*X119000Y456250D02*X122500D01*
X123000Y456750D01*
Y457750D02*Y456750D01*
Y457750D02*X122500Y458250D01*
X119000D02*X122500D01*
X119500Y459450D02*X119000Y459950D01*
Y461450D02*Y459950D01*
Y461450D02*X119500Y461950D01*
X120500D01*
X123000Y459450D02*X120500Y461950D01*
X123000D02*Y459450D01*
X206500Y446000D02*Y444700D01*
X205800Y444000D02*X206500Y444700D01*
X203200Y444000D02*X205800D01*
X203200D02*X202500Y444700D01*
Y446000D02*Y444700D01*
X203000Y447200D02*X206000D01*
X203000D02*X202500Y447700D01*
Y448700D02*Y447700D01*
Y448700D02*X203000Y449200D01*
X206000D01*
X206500Y448700D02*X206000Y449200D01*
X206500Y448700D02*Y447700D01*
X206000Y447200D02*X206500Y447700D01*
X202500Y450400D02*X206500D01*
X202500D02*X206500Y452900D01*
X202500D02*X206500D01*
X202500Y454100D02*X206500D01*
X202500D02*X206500Y456600D01*
X202500D02*X206500D01*
X202500Y459800D02*Y457800D01*
X204500D01*
X204000Y458300D01*
Y459300D02*Y458300D01*
Y459300D02*X204500Y459800D01*
X206000D01*
X206500Y459300D02*X206000Y459800D01*
X206500Y459300D02*Y458300D01*
X206000Y457800D02*X206500Y458300D01*
X169444Y458020D02*X170744D01*
X168744Y458720D02*X169444Y458020D01*
X168744Y461320D02*Y458720D01*
Y461320D02*X169444Y462020D01*
X170744D01*
X171944Y461520D02*X172444Y462020D01*
X173444D01*
X173944Y461520D01*
X173444Y458020D02*X173944Y458520D01*
X172444Y458020D02*X173444D01*
X171944Y458520D02*X172444Y458020D01*
Y460220D02*X173444D01*
X173944Y461520D02*Y460720D01*
Y459720D02*Y458520D01*
Y459720D02*X173444Y460220D01*
X173944Y460720D02*X173444Y460220D01*
X175144Y461220D02*X175944Y462020D01*
Y458020D01*
X175144D02*X176644D01*
X149850Y479650D02*X151850D01*
X152350Y479150D01*
Y478150D01*
X151850Y477650D02*X152350Y478150D01*
X150350Y477650D02*X151850D01*
X150350Y479650D02*Y475650D01*
X151150Y477650D02*X152350Y475650D01*
X153550Y477150D02*X155550Y479650D01*
X153550Y477150D02*X156050D01*
X155550Y479650D02*Y475650D01*
X175393Y479650D02*X177393D01*
X177893Y479150D01*
Y478150D01*
X177393Y477650D02*X177893Y478150D01*
X175893Y477650D02*X177393D01*
X175893Y479650D02*Y475650D01*
X176693Y477650D02*X177893Y475650D01*
X179093Y479150D02*X179593Y479650D01*
X180593D01*
X181093Y479150D01*
X180593Y475650D02*X181093Y476150D01*
X179593Y475650D02*X180593D01*
X179093Y476150D02*X179593Y475650D01*
Y477850D02*X180593D01*
X181093Y479150D02*Y478350D01*
Y477350D02*Y476150D01*
Y477350D02*X180593Y477850D01*
X181093Y478350D02*X180593Y477850D01*
X116810Y329537D02*Y328237D01*
X116110Y327537D02*X116810Y328237D01*
X113510Y327537D02*X116110D01*
X113510D02*X112810Y328237D01*
Y329537D02*Y328237D01*
X113310Y330737D02*X116310D01*
X113310D02*X112810Y331237D01*
Y332237D02*Y331237D01*
Y332237D02*X113310Y332737D01*
X116310D01*
X116810Y332237D02*X116310Y332737D01*
X116810Y332237D02*Y331237D01*
X116310Y330737D02*X116810Y331237D01*
X112810Y333937D02*X116810D01*
X112810D02*X116810Y336437D01*
X112810D02*X116810D01*
X112810Y337637D02*X116810D01*
X112810D02*X116810Y340137D01*
X112810D02*X116810D01*
X113310Y341337D02*X112810Y341837D01*
Y342837D02*Y341837D01*
Y342837D02*X113310Y343337D01*
X116810Y342837D02*X116310Y343337D01*
X116810Y342837D02*Y341837D01*
X116310Y341337D02*X116810Y341837D01*
X114610Y342837D02*Y341837D01*
X113310Y343337D02*X114110D01*
X115110D02*X116310D01*
X115110D02*X114610Y342837D01*
X114110Y343337D02*X114610Y342837D01*
X124550Y356150D02*X125850D01*
X123850Y356850D02*X124550Y356150D01*
X123850Y359450D02*Y356850D01*
Y359450D02*X124550Y360150D01*
X125850D01*
X127050Y359350D02*X127850Y360150D01*
Y356150D01*
X127050D02*X128550D01*
X129750Y356650D02*X130250Y356150D01*
X129750Y359650D02*Y356650D01*
Y359650D02*X130250Y360150D01*
X131250D01*
X131750Y359650D01*
Y356650D01*
X131250Y356150D02*X131750Y356650D01*
X130250Y356150D02*X131250D01*
X129750Y357150D02*X131750Y359150D01*
X142350Y353850D02*Y352550D01*
X141650Y351850D02*X142350Y352550D01*
X139050Y351850D02*X141650D01*
X139050D02*X138350Y352550D01*
Y353850D02*Y352550D01*
X142350Y355550D02*X138350Y357550D01*
Y355050D01*
X145764Y378650D02*X147764D01*
X148264Y378150D01*
Y377150D01*
X147764Y376650D02*X148264Y377150D01*
X146264Y376650D02*X147764D01*
X146264Y378650D02*Y374650D01*
X147064Y376650D02*X148264Y374650D01*
X149464Y377850D02*X150264Y378650D01*
Y374650D01*
X149464D02*X150964D01*
X152164Y378150D02*X152664Y378650D01*
X154164D01*
X154664Y378150D01*
Y377150D01*
X152164Y374650D02*X154664Y377150D01*
X152164Y374650D02*X154664D01*
X134955Y341650D02*X136255D01*
X134255Y342350D02*X134955Y341650D01*
X134255Y344950D02*Y342350D01*
Y344950D02*X134955Y345650D01*
X136255D01*
X138955D02*X139455Y345150D01*
X137955Y345650D02*X138955D01*
X137455Y345150D02*X137955Y345650D01*
X137455Y345150D02*Y342150D01*
X137955Y341650D01*
X138955Y343850D02*X139455Y343350D01*
X137455Y343850D02*X138955D01*
X137955Y341650D02*X138955D01*
X139455Y342150D01*
Y343350D02*Y342150D01*
X206500Y393500D02*Y392200D01*
X205800Y391500D02*X206500Y392200D01*
X203200Y391500D02*X205800D01*
X203200D02*X202500Y392200D01*
Y393500D02*Y392200D01*
X203000Y394700D02*X206000D01*
X203000D02*X202500Y395200D01*
Y396200D02*Y395200D01*
Y396200D02*X203000Y396700D01*
X206000D01*
X206500Y396200D02*X206000Y396700D01*
X206500Y396200D02*Y395200D01*
X206000Y394700D02*X206500Y395200D01*
X202500Y397900D02*X206500D01*
X202500D02*X206500Y400400D01*
X202500D02*X206500D01*
X202500Y401600D02*X206500D01*
X202500D02*X206500Y404100D01*
X202500D02*X206500D01*
X205000Y405300D02*X202500Y407300D01*
X205000Y407800D02*Y405300D01*
X202500Y407300D02*X206500D01*
X212700Y373500D02*X214000D01*
X212000Y374200D02*X212700Y373500D01*
X212000Y376800D02*Y374200D01*
Y376800D02*X212700Y377500D01*
X214000D01*
X215200Y376700D02*X216000Y377500D01*
Y373500D01*
X215200D02*X216700D01*
X217900Y375000D02*X219900Y377500D01*
X217900Y375000D02*X220400D01*
X219900Y377500D02*Y373500D01*
X240200Y364000D02*X241500D01*
X239500Y364700D02*X240200Y364000D01*
X239500Y367300D02*Y364700D01*
Y367300D02*X240200Y368000D01*
X241500D01*
X242700Y367200D02*X243500Y368000D01*
Y364000D01*
X242700D02*X244200D01*
X245400Y367500D02*X245900Y368000D01*
X246900D01*
X247400Y367500D01*
X246900Y364000D02*X247400Y364500D01*
X245900Y364000D02*X246900D01*
X245400Y364500D02*X245900Y364000D01*
Y366200D02*X246900D01*
X247400Y367500D02*Y366700D01*
Y365700D02*Y364500D01*
Y365700D02*X246900Y366200D01*
X247400Y366700D02*X246900Y366200D01*
X187050Y381650D02*X188350D01*
X186350Y382350D02*X187050Y381650D01*
X186350Y384950D02*Y382350D01*
Y384950D02*X187050Y385650D01*
X188350D01*
X189550Y385150D02*X190050Y385650D01*
X191550D01*
X192050Y385150D01*
Y384150D01*
X189550Y381650D02*X192050Y384150D01*
X189550Y381650D02*X192050D01*
X193250Y382150D02*X193750Y381650D01*
X193250Y385150D02*Y382150D01*
Y385150D02*X193750Y385650D01*
X194750D01*
X195250Y385150D01*
Y382150D01*
X194750Y381650D02*X195250Y382150D01*
X193750Y381650D02*X194750D01*
X193250Y382650D02*X195250Y384650D01*
X89000Y395000D02*X89500Y395500D01*
X89000Y395000D02*Y393500D01*
X89500Y393000D02*X89000Y393500D01*
X89500Y393000D02*X90500D01*
X91000Y393500D01*
Y395000D02*Y393500D01*
Y395000D02*X91500Y395500D01*
X92500D01*
X93000Y395000D02*X92500Y395500D01*
X93000Y395000D02*Y393500D01*
X92500Y393000D02*X93000Y393500D01*
X89800Y396700D02*X89000Y397500D01*
X93000D01*
Y398200D02*Y396700D01*
X177980Y411744D02*Y410444D01*
X177280Y409744D02*X177980Y410444D01*
X174680Y409744D02*X177280D01*
X174680D02*X173980Y410444D01*
Y411744D02*Y410444D01*
X174480Y412944D02*X173980Y413444D01*
Y414444D02*Y413444D01*
Y414444D02*X174480Y414944D01*
X177980Y414444D02*X177480Y414944D01*
X177980Y414444D02*Y413444D01*
X177480Y412944D02*X177980Y413444D01*
X175780Y414444D02*Y413444D01*
X174480Y414944D02*X175280D01*
X176280D02*X177480D01*
X176280D02*X175780Y414444D01*
X175280Y414944D02*X175780Y414444D01*
X177480Y416144D02*X177980Y416644D01*
X174480Y416144D02*X177480D01*
X174480D02*X173980Y416644D01*
Y417644D02*Y416644D01*
Y417644D02*X174480Y418144D01*
X177480D01*
X177980Y417644D02*X177480Y418144D01*
X177980Y417644D02*Y416644D01*
X176980Y416144D02*X174980Y418144D01*
X142500Y396000D02*X146000D01*
X146500Y396500D01*
Y397500D02*Y396500D01*
Y397500D02*X146000Y398000D01*
X142500D02*X146000D01*
X142500Y401200D02*Y399200D01*
X144500D01*
X144000Y399700D01*
Y400700D02*Y399700D01*
Y400700D02*X144500Y401200D01*
X146000D01*
X146500Y400700D02*X146000Y401200D01*
X146500Y400700D02*Y399700D01*
X146000Y399200D02*X146500Y399700D01*
X131850Y387350D02*Y386050D01*
X131150Y385350D02*X131850Y386050D01*
X128550Y385350D02*X131150D01*
X128550D02*X127850Y386050D01*
Y387350D02*Y386050D01*
X128650Y388550D02*X127850Y389350D01*
X131850D01*
Y390050D02*Y388550D01*
X131350Y391250D02*X131850Y391750D01*
X130550Y391250D02*X131350D01*
X130550D02*X129850Y391950D01*
Y392550D02*Y391950D01*
Y392550D02*X130550Y393250D01*
X131350D01*
X131850Y392750D02*X131350Y393250D01*
X131850Y392750D02*Y391750D01*
X129150Y391250D02*X129850Y391950D01*
X128350Y391250D02*X129150D01*
X128350D02*X127850Y391750D01*
Y392750D02*Y391750D01*
Y392750D02*X128350Y393250D01*
X129150D01*
X129850Y392550D02*X129150Y393250D01*
X116810Y430037D02*Y428737D01*
X116110Y428037D02*X116810Y428737D01*
X113510Y428037D02*X116110D01*
X113510D02*X112810Y428737D01*
Y430037D02*Y428737D01*
X113310Y431237D02*X116310D01*
X113310D02*X112810Y431737D01*
Y432737D02*Y431737D01*
Y432737D02*X113310Y433237D01*
X116310D01*
X116810Y432737D02*X116310Y433237D01*
X116810Y432737D02*Y431737D01*
X116310Y431237D02*X116810Y431737D01*
X112810Y434437D02*X116810D01*
X112810D02*X116810Y436937D01*
X112810D02*X116810D01*
X112810Y438137D02*X116810D01*
X112810D02*X116810Y440637D01*
X112810D02*X116810D01*
X113310Y441837D02*X112810Y442337D01*
Y443837D02*Y442337D01*
Y443837D02*X113310Y444337D01*
X114310D01*
X116810Y441837D02*X114310Y444337D01*
X116810D02*Y441837D01*
X145455Y427150D02*X146755D01*
X144755Y427850D02*X145455Y427150D01*
X144755Y430450D02*Y427850D01*
Y430450D02*X145455Y431150D01*
X146755D01*
X147955Y430350D02*X148755Y431150D01*
Y427150D01*
X147955D02*X149455D01*
X151155D02*X152655Y429150D01*
Y430650D02*Y429150D01*
X152155Y431150D02*X152655Y430650D01*
X151155Y431150D02*X152155D01*
X150655Y430650D02*X151155Y431150D01*
X150655Y430650D02*Y429650D01*
X151155Y429150D01*
X152655D01*
X165550Y373650D02*X166850D01*
X164850Y374350D02*X165550Y373650D01*
X164850Y376950D02*Y374350D01*
Y376950D02*X165550Y377650D01*
X166850D01*
X168050Y377150D02*X168550Y377650D01*
X170050D01*
X170550Y377150D01*
Y376150D01*
X168050Y373650D02*X170550Y376150D01*
X168050Y373650D02*X170550D01*
X171750Y377650D02*X173750D01*
X171750D02*Y375650D01*
X172250Y376150D01*
X173250D01*
X173750Y375650D01*
Y374150D01*
X173250Y373650D02*X173750Y374150D01*
X172250Y373650D02*X173250D01*
X171750Y374150D02*X172250Y373650D01*
M02*
