G04 start of page 11 for group -4014 idx -4014 *
G04 Title: (unknown), bottompaste *
G04 Creator: pcb 20140316 *
G04 CreationDate: Fri 20 Nov 2015 02:08:32 PM GMT UTC *
G04 For: fosse *
G04 Format: Gerber/RS-274X *
G04 PCB-Dimensions (mil): 3170.00 5000.00 *
G04 PCB-Coordinate-Origin: lower left *
%MOIN*%
%FSLAX25Y25*%
%LNBOTTOMPASTE*%
%ADD86R,0.0827X0.0827*%
%ADD85R,0.0200X0.0200*%
%ADD84R,0.0512X0.0512*%
G54D84*X144095Y475755D02*Y470245D01*
X155905Y475755D02*Y470245D01*
G54D85*X120500Y412000D02*Y405500D01*
X125500Y412000D02*Y405500D01*
X130500Y412000D02*Y405500D01*
X135500Y412000D02*Y405500D01*
Y391500D02*Y385000D01*
X130500Y391500D02*Y385000D01*
X125500Y391500D02*Y385000D01*
X120500Y391500D02*Y385000D01*
Y364500D02*Y358000D01*
X125500Y364500D02*Y358000D01*
X130500Y364500D02*Y358000D01*
X135500Y364500D02*Y358000D01*
Y344000D02*Y337500D01*
X130500Y344000D02*Y337500D01*
X125500Y344000D02*Y337500D01*
X120500Y344000D02*Y337500D01*
G54D84*X155245Y404405D02*X160755D01*
X155245Y392595D02*X160755D01*
X115319Y454905D02*X117681D01*
X115319Y443095D02*X117681D01*
X120095Y476181D02*Y473819D01*
X131905Y476181D02*Y473819D01*
X131819Y461905D02*X134181D01*
X131819Y450095D02*X134181D01*
X86607Y360043D02*X87393D01*
X86607Y352957D02*X87393D01*
X110607Y387043D02*X111393D01*
X110607Y379957D02*X111393D01*
X136595Y422681D02*Y420319D01*
X148405Y422681D02*Y420319D01*
X126319Y432405D02*X128681D01*
X126319Y420595D02*X128681D01*
X111607Y422043D02*X112393D01*
X111607Y414957D02*X112393D01*
X104607Y422043D02*X105393D01*
X104607Y414957D02*X105393D01*
X88107Y422043D02*X88893D01*
X88107Y414957D02*X88893D01*
X95107Y422043D02*X95893D01*
X95107Y414957D02*X95893D01*
X112607Y369043D02*X113393D01*
X112607Y361957D02*X113393D01*
X99107Y371043D02*X99893D01*
X99107Y363957D02*X99893D01*
G54D86*X184791Y424008D02*X196209D01*
X184792Y400386D02*X196209D01*
G54D84*X172138Y475755D02*Y470245D01*
X183948Y475755D02*Y470245D01*
X148595Y447181D02*Y444819D01*
X160405Y447181D02*Y444819D01*
M02*
