G04 start of page 8 for group -4079 idx -4079 *
G04 Title: (unknown), topsilk *
G04 Creator: pcb 20140316 *
G04 CreationDate: Tue 24 Mar 2015 03:34:11 PM GMT UTC *
G04 For: fosse *
G04 Format: Gerber/RS-274X *
G04 PCB-Dimensions (mil): 2170.00 1700.00 *
G04 PCB-Coordinate-Origin: lower left *
%MOIN*%
%FSLAX25Y25*%
%LNTOPSILK*%
%ADD56C,0.0100*%
%ADD55C,0.0080*%
G54D55*X107260Y42362D02*Y37638D01*
X114740Y42362D02*Y37638D01*
X102138Y21240D02*X106862D01*
X102138Y13760D02*X106862D01*
G54D56*X78500Y24500D02*X97500D01*
Y55500D02*Y24500D01*
X78500Y55500D02*X97500D01*
X78500Y37500D02*Y24500D01*
Y55500D02*Y42500D01*
Y37500D02*G75*G03X78500Y42500I0J2500D01*G01*
G54D55*X83138Y66740D02*X87862D01*
X83138Y59260D02*X87862D01*
X81638Y16740D02*X86362D01*
X81638Y9260D02*X86362D01*
G54D56*X4650Y64000D02*Y6000D01*
X43500Y64000D02*X64350D01*
Y6000D01*
X4650D02*X25500D01*
X4650Y64000D02*X25500D01*
X43500Y6000D02*X64350D01*
X5484Y64000D03*
X159032Y109468D02*X144874D01*
X159032D02*Y142532D01*
X156032Y145532D01*
X144874D01*
X122968Y109468D02*X137126D01*
X122968D02*Y142532D01*
X125968Y145532D01*
X137126D01*
X205032Y109468D02*X190874D01*
X205032D02*Y142532D01*
X202032Y145532D01*
X190874D01*
X168968Y109468D02*X183126D01*
X168968D02*Y142532D01*
X171968Y145532D01*
X183126D01*
X142000Y71200D02*X182000D01*
X142000Y96200D02*X182000D01*
X147000Y90200D02*Y96200D01*
Y90200D02*X177000D01*
Y96200D01*
X142000D02*Y71200D01*
X182000Y96200D02*Y71200D01*
G54D55*X121186Y91468D02*Y87532D01*
X131814Y91468D02*Y87532D01*
X124532Y55814D02*X128468D01*
X124532Y45186D02*X128468D01*
X126107Y70255D02*X126893D01*
X126107Y64745D02*X126893D01*
X132532Y24314D02*X136468D01*
X132532Y13686D02*X136468D01*
X134107Y37255D02*X134893D01*
X134107Y31745D02*X134893D01*
G54D56*X152000Y21200D02*X202000D01*
X152000Y46200D02*X202000D01*
X157000Y40200D02*Y46200D01*
Y40200D02*X197000D01*
Y46200D01*
X152000D02*Y21200D01*
X202000Y46200D02*Y21200D01*
X77000Y113500D02*X96000D01*
Y144500D02*Y113500D01*
X77000Y144500D02*X96000D01*
X77000Y126500D02*Y113500D01*
Y144500D02*Y131500D01*
Y126500D02*G75*G03X77000Y131500I0J2500D01*G01*
G54D55*X96138Y155740D02*X100862D01*
X96138Y148260D02*X100862D01*
X102760Y131362D02*Y126638D01*
X110240Y131362D02*Y126638D01*
X76138Y155740D02*X80862D01*
X76138Y148260D02*X80862D01*
X107138Y111240D02*X111862D01*
X107138Y103760D02*X111862D01*
X81245Y103893D02*Y103107D01*
X86755Y103893D02*Y103107D01*
G54D56*X4650Y164000D02*Y106000D01*
X43500Y164000D02*X64350D01*
Y106000D01*
X4650D02*X25500D01*
X4650Y164000D02*X25500D01*
X43500Y106000D02*X64350D01*
X5484Y164000D03*
X119350Y88350D02*Y87050D01*
X118650Y86350D02*X119350Y87050D01*
X116050Y86350D02*X118650D01*
X116050D02*X115350Y87050D01*
Y88350D02*Y87050D01*
X118850Y89550D02*X119350Y90050D01*
X118050Y89550D02*X118850D01*
X118050D02*X117350Y90250D01*
Y90850D02*Y90250D01*
Y90850D02*X118050Y91550D01*
X118850D01*
X119350Y91050D02*X118850Y91550D01*
X119350Y91050D02*Y90050D01*
X116650Y89550D02*X117350Y90250D01*
X115850Y89550D02*X116650D01*
X115850D02*X115350Y90050D01*
Y91050D02*Y90050D01*
Y91050D02*X115850Y91550D01*
X116650D01*
X117350Y90850D02*X116650Y91550D01*
X123550Y58150D02*X124850D01*
X122850Y58850D02*X123550Y58150D01*
X122850Y61450D02*Y58850D01*
Y61450D02*X123550Y62150D01*
X124850D01*
X126050Y61350D02*X126850Y62150D01*
Y58150D01*
X126050D02*X127550D01*
X128750Y62150D02*X130750D01*
X128750D02*Y60150D01*
X129250Y60650D01*
X130250D01*
X130750Y60150D01*
Y58650D01*
X130250Y58150D02*X130750Y58650D01*
X129250Y58150D02*X130250D01*
X128750Y58650D02*X129250Y58150D01*
X123850Y75650D02*X125850D01*
X126350Y75150D01*
Y74150D01*
X125850Y73650D02*X126350Y74150D01*
X124350Y73650D02*X125850D01*
X124350Y75650D02*Y71650D01*
X125150Y73650D02*X126350Y71650D01*
X127550Y75150D02*X128050Y75650D01*
X129050D01*
X129550Y75150D01*
X129050Y71650D02*X129550Y72150D01*
X128050Y71650D02*X129050D01*
X127550Y72150D02*X128050Y71650D01*
Y73850D02*X129050D01*
X129550Y75150D02*Y74350D01*
Y73350D02*Y72150D01*
Y73350D02*X129050Y73850D01*
X129550Y74350D02*X129050Y73850D01*
X131050Y25650D02*X132350D01*
X130350Y26350D02*X131050Y25650D01*
X130350Y28950D02*Y26350D01*
Y28950D02*X131050Y29650D01*
X132350D01*
X133550Y28850D02*X134350Y29650D01*
Y25650D01*
X133550D02*X135050D01*
X137750Y29650D02*X138250Y29150D01*
X136750Y29650D02*X137750D01*
X136250Y29150D02*X136750Y29650D01*
X136250Y29150D02*Y26150D01*
X136750Y25650D01*
X137750Y27850D02*X138250Y27350D01*
X136250Y27850D02*X137750D01*
X136750Y25650D02*X137750D01*
X138250Y26150D01*
Y27350D02*Y26150D01*
X131350Y42650D02*X133350D01*
X133850Y42150D01*
Y41150D01*
X133350Y40650D02*X133850Y41150D01*
X131850Y40650D02*X133350D01*
X131850Y42650D02*Y38650D01*
X132650Y40650D02*X133850Y38650D01*
X135050Y40150D02*X137050Y42650D01*
X135050Y40150D02*X137550D01*
X137050Y42650D02*Y38650D01*
X105850Y38850D02*Y37550D01*
X105150Y36850D02*X105850Y37550D01*
X102550Y36850D02*X105150D01*
X102550D02*X101850Y37550D01*
Y38850D02*Y37550D01*
X102350Y40050D02*X101850Y40550D01*
Y41550D02*Y40550D01*
Y41550D02*X102350Y42050D01*
X105850Y41550D02*X105350Y42050D01*
X105850Y41550D02*Y40550D01*
X105350Y40050D02*X105850Y40550D01*
X103650Y41550D02*Y40550D01*
X102350Y42050D02*X103150D01*
X104150D02*X105350D01*
X104150D02*X103650Y41550D01*
X103150Y42050D02*X103650Y41550D01*
X102050Y22650D02*X103350D01*
X101350Y23350D02*X102050Y22650D01*
X101350Y25950D02*Y23350D01*
Y25950D02*X102050Y26650D01*
X103350D01*
X104550D02*X106550D01*
X104550D02*Y24650D01*
X105050Y25150D01*
X106050D01*
X106550Y24650D01*
Y23150D01*
X106050Y22650D02*X106550Y23150D01*
X105050Y22650D02*X106050D01*
X104550Y23150D02*X105050Y22650D01*
X72500Y37250D02*X76000D01*
X76500Y37750D01*
Y38750D02*Y37750D01*
Y38750D02*X76000Y39250D01*
X72500D02*X76000D01*
X73000Y40450D02*X72500Y40950D01*
Y42450D02*Y40950D01*
Y42450D02*X73000Y42950D01*
X74000D01*
X76500Y40450D02*X74000Y42950D01*
X76500D02*Y40450D01*
X71500Y126000D02*X75000D01*
X75500Y126500D01*
Y127500D02*Y126500D01*
Y127500D02*X75000Y128000D01*
X71500D02*X75000D01*
X72000Y129200D02*X71500Y129700D01*
Y130700D02*Y129700D01*
Y130700D02*X72000Y131200D01*
X75500Y130700D02*X75000Y131200D01*
X75500Y130700D02*Y129700D01*
X75000Y129200D02*X75500Y129700D01*
X73300Y130700D02*Y129700D01*
X72000Y131200D02*X72800D01*
X73800D02*X75000D01*
X73800D02*X73300Y130700D01*
X72800Y131200D02*X73300Y130700D01*
X70310Y109037D02*Y107737D01*
X69610Y107037D02*X70310Y107737D01*
X67010Y107037D02*X69610D01*
X67010D02*X66310Y107737D01*
Y109037D02*Y107737D01*
X66810Y110237D02*X69810D01*
X66810D02*X66310Y110737D01*
Y111737D02*Y110737D01*
Y111737D02*X66810Y112237D01*
X69810D01*
X70310Y111737D02*X69810Y112237D01*
X70310Y111737D02*Y110737D01*
X69810Y110237D02*X70310Y110737D01*
X66310Y113437D02*X70310D01*
X66310D02*X70310Y115937D01*
X66310D02*X70310D01*
X66310Y117137D02*X70310D01*
X66310D02*X70310Y119637D01*
X66310D02*X70310D01*
X66810Y120837D02*X66310Y121337D01*
Y122337D02*Y121337D01*
Y122337D02*X66810Y122837D01*
X70310Y122337D02*X69810Y122837D01*
X70310Y122337D02*Y121337D01*
X69810Y120837D02*X70310Y121337D01*
X68110Y122337D02*Y121337D01*
X66810Y122837D02*X67610D01*
X68610D02*X69810D01*
X68610D02*X68110Y122337D01*
X67610Y122837D02*X68110Y122337D01*
X82445Y72150D02*X84445D01*
X84945Y71650D01*
Y70650D01*
X84445Y70150D02*X84945Y70650D01*
X82945Y70150D02*X84445D01*
X82945Y72150D02*Y68150D01*
X83745Y70150D02*X84945Y68150D01*
X86145Y72150D02*X88145D01*
X86145D02*Y70150D01*
X86645Y70650D01*
X87645D01*
X88145Y70150D01*
Y68650D01*
X87645Y68150D02*X88145Y68650D01*
X86645Y68150D02*X87645D01*
X86145Y68650D02*X86645Y68150D01*
X75850Y102850D02*Y100850D01*
Y102850D02*X76350Y103350D01*
X77350D01*
X77850Y102850D02*X77350Y103350D01*
X77850Y102850D02*Y101350D01*
X75850D02*X79850D01*
X77850Y102150D02*X79850Y103350D01*
X75850Y106050D02*X76350Y106550D01*
X75850Y106050D02*Y105050D01*
X76350Y104550D02*X75850Y105050D01*
X76350Y104550D02*X79350D01*
X79850Y105050D01*
X77650Y106050D02*X78150Y106550D01*
X77650Y106050D02*Y104550D01*
X79850Y106050D02*Y105050D01*
Y106050D02*X79350Y106550D01*
X78150D02*X79350D01*
X95350Y161650D02*X97350D01*
X97850Y161150D01*
Y160150D01*
X97350Y159650D02*X97850Y160150D01*
X95850Y159650D02*X97350D01*
X95850Y161650D02*Y157650D01*
X96650Y159650D02*X97850Y157650D01*
X99050Y158150D02*X99550Y157650D01*
X99050Y158950D02*Y158150D01*
Y158950D02*X99750Y159650D01*
X100350D01*
X101050Y158950D01*
Y158150D01*
X100550Y157650D02*X101050Y158150D01*
X99550Y157650D02*X100550D01*
X99050Y160350D02*X99750Y159650D01*
X99050Y161150D02*Y160350D01*
Y161150D02*X99550Y161650D01*
X100550D01*
X101050Y161150D01*
Y160350D01*
X100350Y159650D02*X101050Y160350D01*
X101350Y126850D02*Y125550D01*
X100650Y124850D02*X101350Y125550D01*
X98050Y124850D02*X100650D01*
X98050D02*X97350Y125550D01*
Y126850D02*Y125550D01*
X98150Y128050D02*X97350Y128850D01*
X101350D01*
Y129550D02*Y128050D01*
X100850Y130750D02*X101350Y131250D01*
X97850Y130750D02*X100850D01*
X97850D02*X97350Y131250D01*
Y132250D02*Y131250D01*
Y132250D02*X97850Y132750D01*
X100850D01*
X101350Y132250D02*X100850Y132750D01*
X101350Y132250D02*Y131250D01*
X100350Y130750D02*X98350Y132750D01*
X76050Y157150D02*X77350D01*
X75350Y157850D02*X76050Y157150D01*
X75350Y160450D02*Y157850D01*
Y160450D02*X76050Y161150D01*
X77350D01*
X80050D02*X80550Y160650D01*
X79050Y161150D02*X80050D01*
X78550Y160650D02*X79050Y161150D01*
X78550Y160650D02*Y157650D01*
X79050Y157150D01*
X80050Y159350D02*X80550Y158850D01*
X78550Y159350D02*X80050D01*
X79050Y157150D02*X80050D01*
X80550Y157650D01*
Y158850D02*Y157650D01*
X107050Y112650D02*X108350D01*
X106350Y113350D02*X107050Y112650D01*
X106350Y115950D02*Y113350D01*
Y115950D02*X107050Y116650D01*
X108350D01*
X110050Y112650D02*X112050Y116650D01*
X109550D02*X112050D01*
X81955Y18150D02*X83255D01*
X81255Y18850D02*X81955Y18150D01*
X81255Y21450D02*Y18850D01*
Y21450D02*X81955Y22150D01*
X83255D01*
X84955Y18150D02*X86455Y20150D01*
Y21650D02*Y20150D01*
X85955Y22150D02*X86455Y21650D01*
X84955Y22150D02*X85955D01*
X84455Y21650D02*X84955Y22150D01*
X84455Y21650D02*Y20650D01*
X84955Y20150D01*
X86455D01*
X70310Y9037D02*Y7737D01*
X69610Y7037D02*X70310Y7737D01*
X67010Y7037D02*X69610D01*
X67010D02*X66310Y7737D01*
Y9037D02*Y7737D01*
X66810Y10237D02*X69810D01*
X66810D02*X66310Y10737D01*
Y11737D02*Y10737D01*
Y11737D02*X66810Y12237D01*
X69810D01*
X70310Y11737D02*X69810Y12237D01*
X70310Y11737D02*Y10737D01*
X69810Y10237D02*X70310Y10737D01*
X66310Y13437D02*X70310D01*
X66310D02*X70310Y15937D01*
X66310D02*X70310D01*
X66310Y17137D02*X70310D01*
X66310D02*X70310Y19637D01*
X66310D02*X70310D01*
X66810Y20837D02*X66310Y21337D01*
Y22837D02*Y21337D01*
Y22837D02*X66810Y23337D01*
X67810D01*
X70310Y20837D02*X67810Y23337D01*
X70310D02*Y20837D01*
X137700Y148500D02*X139000D01*
X137000Y149200D02*X137700Y148500D01*
X137000Y151800D02*Y149200D01*
Y151800D02*X137700Y152500D01*
X139000D01*
X140200Y151700D02*X141000Y152500D01*
Y148500D01*
X140200D02*X141700D01*
X142900Y150000D02*X144900Y152500D01*
X142900Y150000D02*X145400D01*
X144900Y152500D02*Y148500D01*
X183700D02*X185000D01*
X183000Y149200D02*X183700Y148500D01*
X183000Y151800D02*Y149200D01*
Y151800D02*X183700Y152500D01*
X185000D01*
X186200Y151700D02*X187000Y152500D01*
Y148500D01*
X186200D02*X187700D01*
X188900Y152000D02*X189400Y152500D01*
X190400D01*
X190900Y152000D01*
X190400Y148500D02*X190900Y149000D01*
X189400Y148500D02*X190400D01*
X188900Y149000D02*X189400Y148500D01*
Y150700D02*X190400D01*
X190900Y152000D02*Y151200D01*
Y150200D02*Y149000D01*
Y150200D02*X190400Y150700D01*
X190900Y151200D02*X190400Y150700D01*
X154600Y98300D02*X155900D01*
X153900Y99000D02*X154600Y98300D01*
X153900Y101600D02*Y99000D01*
Y101600D02*X154600Y102300D01*
X155900D01*
X157100Y101800D02*Y98800D01*
Y101800D02*X157600Y102300D01*
X158600D01*
X159100Y101800D01*
Y98800D01*
X158600Y98300D02*X159100Y98800D01*
X157600Y98300D02*X158600D01*
X157100Y98800D02*X157600Y98300D01*
X160300Y102300D02*Y98300D01*
Y102300D02*X162800Y98300D01*
Y102300D02*Y98300D01*
X164000Y102300D02*Y98300D01*
Y102300D02*X166500Y98300D01*
Y102300D02*Y98300D01*
X167700Y99800D02*X169700Y102300D01*
X167700Y99800D02*X170200D01*
X169700Y102300D02*Y98300D01*
X169700Y48000D02*X171000D01*
X169000Y48700D02*X169700Y48000D01*
X169000Y51300D02*Y48700D01*
Y51300D02*X169700Y52000D01*
X171000D01*
X172200Y51500D02*Y48500D01*
Y51500D02*X172700Y52000D01*
X173700D01*
X174200Y51500D01*
Y48500D01*
X173700Y48000D02*X174200Y48500D01*
X172700Y48000D02*X173700D01*
X172200Y48500D02*X172700Y48000D01*
X175400Y52000D02*Y48000D01*
Y52000D02*X177900Y48000D01*
Y52000D02*Y48000D01*
X179100Y52000D02*Y48000D01*
Y52000D02*X181600Y48000D01*
Y52000D02*Y48000D01*
X182800Y52000D02*X184800D01*
X182800D02*Y50000D01*
X183300Y50500D01*
X184300D01*
X184800Y50000D01*
Y48500D01*
X184300Y48000D02*X184800Y48500D01*
X183300Y48000D02*X184300D01*
X182800Y48500D02*X183300Y48000D01*
M02*
