G04 start of page 9 for group -4078 idx -4078 *
G04 Title: (unknown), bottomsilk *
G04 Creator: pcb 20140316 *
G04 CreationDate: Fri 20 Nov 2015 02:14:16 PM GMT UTC *
G04 For: fosse *
G04 Format: Gerber/RS-274X *
G04 PCB-Dimensions (mil): 3170.00 2000.00 *
G04 PCB-Coordinate-Origin: lower left *
%MOIN*%
%FSLAX25Y25*%
%LNBOTTOMSILK*%
%ADD80C,0.0197*%
%ADD79C,0.0080*%
%ADD78C,0.0100*%
%ADD77C,0.0070*%
G54D77*X217000Y151500D02*X219000D01*
X220200Y150300D02*X221000Y149500D01*
Y153500D01*
X220200D02*X221700D01*
X222900Y149500D02*X224900D01*
X222900D02*Y151500D01*
X223400Y151000D01*
X224400D01*
X224900Y151500D01*
Y153000D01*
X224400Y153500D02*X224900Y153000D01*
X223400Y153500D02*X224400D01*
X222900Y153000D02*X223400Y153500D01*
X226100Y149500D02*X227100Y153500D01*
X228100Y149500D01*
X219000Y129500D02*X219500Y130000D01*
X217500Y129500D02*X219000D01*
X217000Y130000D02*X217500Y129500D01*
X217000Y130000D02*Y131000D01*
X217500Y131500D01*
X219000D01*
X219500Y132000D01*
Y133000D01*
X219000Y133500D02*X219500Y133000D01*
X217500Y133500D02*X219000D01*
X217000Y133000D02*X217500Y133500D01*
X220700Y129500D02*X221700D01*
X221200D02*Y133500D01*
X220700D02*X221700D01*
X224900Y129500D02*X225400Y130000D01*
X223400Y129500D02*X224900D01*
X222900Y130000D02*X223400Y129500D01*
X222900Y130000D02*Y133000D01*
X223400Y133500D01*
X224900D01*
X225400Y133000D01*
Y132000D02*Y133000D01*
X224900Y131500D02*X225400Y132000D01*
X223900Y131500D02*X224900D01*
X226600Y133500D02*X227100D01*
X217700Y173500D02*X219000D01*
X217000Y172800D02*X217700Y173500D01*
X217000Y170200D02*Y172800D01*
Y170200D02*X217700Y169500D01*
X219000D01*
X220200D02*Y173500D01*
X222700Y169500D02*Y173500D01*
X220200Y171500D02*X222700D01*
X223900Y170500D02*Y173500D01*
Y170500D02*X224600Y169500D01*
X225700D01*
X226400Y170500D01*
Y173500D01*
X223900Y171500D02*X226400D01*
X229600Y169500D02*X230100Y170000D01*
X228100Y169500D02*X229600D01*
X227600Y170000D02*X228100Y169500D01*
X227600Y170000D02*Y171000D01*
X228100Y171500D01*
X229600D01*
X230100Y172000D01*
Y173000D01*
X229600Y173500D02*X230100Y173000D01*
X228100Y173500D02*X229600D01*
X227600Y173000D02*X228100Y173500D01*
X231300D02*X231800D01*
X217000Y141500D02*X219000D01*
X218000Y140500D02*Y142500D01*
X220200Y140300D02*X221000Y139500D01*
Y143500D01*
X220200D02*X221700D01*
X222900Y139500D02*X224900D01*
X222900D02*Y141500D01*
X223400Y141000D01*
X224400D01*
X224900Y141500D01*
Y143000D01*
X224400Y143500D02*X224900Y143000D01*
X223400Y143500D02*X224400D01*
X222900Y143000D02*X223400Y143500D01*
X226100Y139500D02*X227100Y143500D01*
X228100Y139500D01*
X217700Y163500D02*X219000D01*
X217000Y162800D02*X217700Y163500D01*
X217000Y160200D02*Y162800D01*
Y160200D02*X217700Y159500D01*
X219000D01*
X220200Y160000D02*Y163000D01*
Y160000D02*X220700Y159500D01*
X221700D01*
X222200Y160000D01*
Y163000D01*
X221700Y163500D02*X222200Y163000D01*
X220700Y163500D02*X221700D01*
X220200Y163000D02*X220700Y163500D01*
X223400Y159500D02*Y163500D01*
Y159500D02*X224900Y161500D01*
X226400Y159500D01*
Y163500D01*
X227600D02*X228100D01*
X175000Y29000D02*X175500Y29500D01*
X173500Y29000D02*X175000D01*
X173000Y29500D02*X173500Y29000D01*
X173000Y29500D02*Y30500D01*
X173500Y31000D01*
X175000D01*
X175500Y31500D01*
Y32500D01*
X175000Y33000D02*X175500Y32500D01*
X173500Y33000D02*X175000D01*
X173000Y32500D02*X173500Y33000D01*
X178200Y31000D02*X178700Y31500D01*
X177200Y31000D02*X178200D01*
X176700Y31500D02*X177200Y31000D01*
X176700Y31500D02*Y32500D01*
X177200Y33000D01*
X178700Y31000D02*Y32500D01*
X179200Y33000D01*
X177200D02*X178200D01*
X178700Y32500D01*
X180400Y31000D02*X181400Y33000D01*
X182400Y31000D02*X181400Y33000D01*
X184100D02*X185600D01*
X183600Y32500D02*X184100Y33000D01*
X183600Y31500D02*Y32500D01*
Y31500D02*X184100Y31000D01*
X185100D01*
X185600Y31500D01*
X183600Y32000D02*X185600D01*
Y31500D02*Y32000D01*
X189100Y29000D02*Y32500D01*
X189600Y33000D01*
X188600Y30500D02*X189600D01*
X190600Y29000D02*Y33000D01*
Y31500D02*X191100Y31000D01*
X192100D01*
X192600Y31500D01*
Y33000D01*
X194300D02*X195800D01*
X193800Y32500D02*X194300Y33000D01*
X193800Y31500D02*Y32500D01*
Y31500D02*X194300Y31000D01*
X195300D01*
X195800Y31500D01*
X193800Y32000D02*X195800D01*
Y31500D02*Y32000D01*
X199300Y31500D02*Y34500D01*
X198800Y31000D02*X199300Y31500D01*
X199800Y31000D01*
X200800D01*
X201300Y31500D01*
Y32500D01*
X200800Y33000D02*X201300Y32500D01*
X199800Y33000D02*X200800D01*
X199300Y32500D02*X199800Y33000D01*
X204000Y31000D02*X204500Y31500D01*
X203000Y31000D02*X204000D01*
X202500Y31500D02*X203000Y31000D01*
X202500Y31500D02*Y32500D01*
X203000Y33000D01*
X204500Y31000D02*Y32500D01*
X205000Y33000D01*
X203000D02*X204000D01*
X204500Y32500D01*
X206700Y31500D02*Y33000D01*
Y31500D02*X207200Y31000D01*
X207700D01*
X208200Y31500D01*
Y33000D01*
X206200Y31000D02*X206700Y31500D01*
X210900Y31000D02*X211400Y31500D01*
X209900Y31000D02*X210900D01*
X209400Y31500D02*X209900Y31000D01*
X209400Y31500D02*Y32500D01*
X209900Y33000D01*
X210900D01*
X211400Y32500D01*
X209400Y34000D02*X209900Y34500D01*
X210900D01*
X211400Y34000D01*
Y31000D02*Y34000D01*
X212600Y31500D02*Y32500D01*
Y31500D02*X213100Y31000D01*
X214100D01*
X214600Y31500D01*
Y32500D01*
X214100Y33000D02*X214600Y32500D01*
X213100Y33000D02*X214100D01*
X212600Y32500D02*X213100Y33000D01*
X215800Y29000D02*Y32500D01*
X216300Y33000D01*
X217300Y30000D02*Y30100D01*
Y31500D02*Y33000D01*
X218800Y31500D02*Y33000D01*
Y31500D02*X219300Y31000D01*
X219800D01*
X220300Y31500D01*
Y33000D01*
X218300Y31000D02*X218800Y31500D01*
X221500Y32500D02*Y33000D01*
Y29000D02*Y31500D01*
X217000Y94500D02*X219000D01*
X220200Y93300D02*X221000Y92500D01*
Y96500D01*
X220200D02*X221700D01*
X222900Y92500D02*X224900D01*
X222900D02*Y94500D01*
X223400Y94000D01*
X224400D01*
X224900Y94500D01*
Y96000D01*
X224400Y96500D02*X224900Y96000D01*
X223400Y96500D02*X224400D01*
X222900Y96000D02*X223400Y96500D01*
X226100Y92500D02*X227100Y96500D01*
X228100Y92500D01*
X217000Y84500D02*X219000D01*
X218000Y83500D02*Y85500D01*
X220200Y83300D02*X221000Y82500D01*
Y86500D01*
X220200D02*X221700D01*
X222900Y82500D02*X224900D01*
X222900D02*Y84500D01*
X223400Y84000D01*
X224400D01*
X224900Y84500D01*
Y86000D01*
X224400Y86500D02*X224900Y86000D01*
X223400Y86500D02*X224400D01*
X222900Y86000D02*X223400Y86500D01*
X226100Y82500D02*X227100Y86500D01*
X228100Y82500D01*
X217700Y116500D02*X219000D01*
X217000Y115800D02*X217700Y116500D01*
X217000Y113200D02*Y115800D01*
Y113200D02*X217700Y112500D01*
X219000D01*
X220200D02*Y116500D01*
X222700Y112500D02*Y116500D01*
X220200Y114500D02*X222700D01*
X223900Y113500D02*Y116500D01*
Y113500D02*X224600Y112500D01*
X225700D01*
X226400Y113500D01*
Y116500D01*
X223900Y114500D02*X226400D01*
X229600Y112500D02*X230100Y113000D01*
X228100Y112500D02*X229600D01*
X227600Y113000D02*X228100Y112500D01*
X227600Y113000D02*Y114000D01*
X228100Y114500D01*
X229600D01*
X230100Y115000D01*
Y116000D01*
X229600Y116500D02*X230100Y116000D01*
X228100Y116500D02*X229600D01*
X227600Y116000D02*X228100Y116500D01*
X231300D02*X231800D01*
X217700Y106500D02*X219000D01*
X217000Y105800D02*X217700Y106500D01*
X217000Y103200D02*Y105800D01*
Y103200D02*X217700Y102500D01*
X219000D01*
X220200Y103000D02*Y106000D01*
Y103000D02*X220700Y102500D01*
X221700D01*
X222200Y103000D01*
Y106000D01*
X221700Y106500D02*X222200Y106000D01*
X220700Y106500D02*X221700D01*
X220200Y106000D02*X220700Y106500D01*
X223400Y102500D02*Y106500D01*
Y102500D02*X224900Y104500D01*
X226400Y102500D01*
Y106500D01*
X227600D02*X228100D01*
G54D78*X118500Y114000D02*X137500D01*
Y83000D02*Y114000D01*
X118500Y83000D02*X137500D01*
X118500Y101000D02*Y114000D01*
Y83000D02*Y96000D01*
G75*G03X118500Y101000I0J2500D01*G01*
G54D79*X152686Y100468D02*Y96532D01*
X163314Y100468D02*Y96532D01*
X140138Y117760D02*X144862D01*
X140138Y125240D02*X144862D01*
X112760Y146638D02*Y151362D01*
X120240Y146638D02*Y151362D01*
X123638Y171260D02*X128362D01*
X123638Y178740D02*X128362D01*
X129260Y158362D02*Y153638D01*
X136740Y158362D02*Y153638D01*
X123760Y124138D02*Y128862D01*
X131240Y124138D02*Y128862D01*
X109245Y118893D02*Y118107D01*
X114755Y118893D02*Y118107D01*
X102245Y118893D02*Y118107D01*
X107755Y118893D02*Y118107D01*
X85745Y118893D02*Y118107D01*
X91255Y118893D02*Y118107D01*
X92745Y118893D02*Y118107D01*
X98255Y118893D02*Y118107D01*
X152138Y142260D02*X156862D01*
X152138Y149740D02*X156862D01*
X84245Y56893D02*Y56107D01*
X89755Y56893D02*Y56107D01*
X96745Y67893D02*Y67107D01*
X102255Y67893D02*Y67107D01*
G54D78*X118500Y66500D02*X137500D01*
Y35500D02*Y66500D01*
X118500Y35500D02*X137500D01*
X118500Y53500D02*Y66500D01*
Y35500D02*Y48500D01*
G75*G03X118500Y53500I0J2500D01*G01*
G54D79*X108245Y83893D02*Y83107D01*
X113755Y83893D02*Y83107D01*
X110245Y65893D02*Y65107D01*
X115755Y65893D02*Y65107D01*
X148032Y167686D02*X151968D01*
X148032Y178314D02*X151968D01*
X176075Y167686D02*X180011D01*
X176075Y178314D02*X180011D01*
G54D80*X200342Y107276D02*Y117118D01*
X180658Y107276D02*Y117118D01*
G54D77*X146550Y166350D02*X147850D01*
X145850Y165650D02*X146550Y166350D01*
X145850Y163050D02*Y165650D01*
Y163050D02*X146550Y162350D01*
X147850D01*
X149050Y163150D02*X149850Y162350D01*
Y166350D01*
X149050D02*X150550D01*
X153250Y162350D02*X153750Y162850D01*
X152250Y162350D02*X153250D01*
X151750Y162850D02*X152250Y162350D01*
X151750Y162850D02*Y165850D01*
X152250Y166350D01*
X153250Y164150D02*X153750Y164650D01*
X151750Y164150D02*X153250D01*
X152250Y166350D02*X153250D01*
X153750Y165850D01*
Y164650D02*Y165850D01*
X127850Y156745D02*Y158045D01*
X127150Y158745D02*X127850Y158045D01*
X124550Y158745D02*X127150D01*
X124550D02*X123850Y158045D01*
Y156745D02*Y158045D01*
X127850Y155045D02*X125850Y153545D01*
X124350D02*X125850D01*
X123850Y154045D02*X124350Y153545D01*
X123850Y154045D02*Y155045D01*
X124350Y155545D02*X123850Y155045D01*
X124350Y155545D02*X125350D01*
X125850Y155045D01*
Y153545D02*Y155045D01*
X175093Y165350D02*X176393D01*
X174393Y164650D02*X175093Y165350D01*
X174393Y162050D02*Y164650D01*
Y162050D02*X175093Y161350D01*
X176393D01*
X177593Y162150D02*X178393Y161350D01*
Y165350D01*
X177593D02*X179093D01*
X180293Y161350D02*X182293D01*
X180293D02*Y163350D01*
X180793Y162850D01*
X181793D01*
X182293Y163350D01*
Y164850D01*
X181793Y165350D02*X182293Y164850D01*
X180793Y165350D02*X181793D01*
X180293Y164850D02*X180793Y165350D01*
X123550Y169850D02*X124850D01*
X122850Y169150D02*X123550Y169850D01*
X122850Y166550D02*Y169150D01*
Y166550D02*X123550Y165850D01*
X124850D01*
X126050Y166350D02*X126550Y165850D01*
X127550D01*
X128050Y166350D01*
X127550Y169850D02*X128050Y169350D01*
X126550Y169850D02*X127550D01*
X126050Y169350D02*X126550Y169850D01*
Y167650D02*X127550D01*
X128050Y166350D02*Y167150D01*
Y168150D02*Y169350D01*
Y168150D02*X127550Y167650D01*
X128050Y167150D02*X127550Y167650D01*
X113000Y54000D02*X116500D01*
X117000Y53500D01*
Y52500D02*Y53500D01*
Y52500D02*X116500Y52000D01*
X113000D02*X116500D01*
X113500Y50800D02*X113000Y50300D01*
Y49300D02*Y50300D01*
Y49300D02*X113500Y48800D01*
X117000Y49300D02*X116500Y48800D01*
X117000Y49300D02*Y50300D01*
X116500Y50800D02*X117000Y50300D01*
X114800Y49300D02*Y50300D01*
X113500Y48800D02*X114300D01*
X115300D02*X116500D01*
X115300D02*X114800Y49300D01*
X114300Y48800D02*X114800Y49300D01*
X78850Y57193D02*Y59193D01*
Y57193D02*X79350Y56693D01*
X80350D01*
X80850Y57193D02*X80350Y56693D01*
X80850Y57193D02*Y58693D01*
X78850D02*X82850D01*
X80850Y57893D02*X82850Y56693D01*
Y54993D02*X78850Y52993D01*
Y55493D01*
X104850Y67693D02*Y69693D01*
Y67693D02*X105350Y67193D01*
X106350D01*
X106850Y67693D02*X106350Y67193D01*
X106850Y67693D02*Y69193D01*
X104850D02*X108850D01*
X106850Y68393D02*X108850Y67193D01*
X105650Y65993D02*X104850Y65193D01*
X108850D01*
Y64493D02*Y65993D01*
X107350Y63293D02*X104850Y61293D01*
X107350Y60793D02*Y63293D01*
X104850Y61293D02*X108850D01*
X95350Y69693D02*Y70993D01*
X94650Y71693D02*X95350Y70993D01*
X92050Y71693D02*X94650D01*
X92050D02*X91350Y70993D01*
Y69693D02*Y70993D01*
X91850Y68493D02*X91350Y67993D01*
Y66493D02*Y67993D01*
Y66493D02*X91850Y65993D01*
X92850D01*
X95350Y68493D02*X92850Y65993D01*
X95350D02*Y68493D01*
Y64293D02*X93350Y62793D01*
X91850D02*X93350D01*
X91350Y63293D02*X91850Y62793D01*
X91350Y63293D02*Y64293D01*
X91850Y64793D02*X91350Y64293D01*
X91850Y64793D02*X92850D01*
X93350Y64293D01*
Y62793D02*Y64293D01*
X150350Y100098D02*Y101398D01*
X149650Y102098D02*X150350Y101398D01*
X147050Y102098D02*X149650D01*
X147050D02*X146350Y101398D01*
Y100098D02*Y101398D01*
X147150Y98898D02*X146350Y98098D01*
X150350D01*
Y97398D02*Y98898D01*
Y95698D02*X146350Y93698D01*
Y96198D01*
X177980Y112756D02*Y114056D01*
X177280Y114756D02*X177980Y114056D01*
X174680Y114756D02*X177280D01*
X174680D02*X173980Y114056D01*
Y112756D02*Y114056D01*
X177480Y111556D02*X177980Y111056D01*
X176680Y111556D02*X177480D01*
X176680D02*X175980Y110856D01*
Y110256D02*Y110856D01*
Y110256D02*X176680Y109556D01*
X177480D01*
X177980Y110056D02*X177480Y109556D01*
X177980Y110056D02*Y111056D01*
X175280Y111556D02*X175980Y110856D01*
X174480Y111556D02*X175280D01*
X174480D02*X173980Y111056D01*
Y110056D02*Y111056D01*
Y110056D02*X174480Y109556D01*
X175280D01*
X175980Y110256D02*X175280Y109556D01*
X107350Y150055D02*Y152055D01*
Y150055D02*X107850Y149555D01*
X108850D01*
X109350Y150055D02*X108850Y149555D01*
X109350Y150055D02*Y151555D01*
X107350D02*X111350D01*
X109350Y150755D02*X111350Y149555D01*
X107350Y146355D02*Y148355D01*
X109350D01*
X108850Y147855D01*
Y146855D02*Y147855D01*
Y146855D02*X109350Y146355D01*
X110850D01*
X111350Y146855D02*X110850Y146355D01*
X111350Y146855D02*Y147855D01*
X110850Y148355D02*X111350Y147855D01*
X102850Y86193D02*Y88193D01*
Y86193D02*X103350Y85693D01*
X104350D01*
X104850Y86193D02*X104350Y85693D01*
X104850Y86193D02*Y87693D01*
X102850D02*X106850D01*
X104850Y86893D02*X106850Y85693D01*
X103650Y84493D02*X102850Y83693D01*
X106850D01*
Y82993D02*Y84493D01*
X103350Y81793D02*X102850Y81293D01*
Y80293D02*Y81293D01*
Y80293D02*X103350Y79793D01*
X106850Y80293D02*X106350Y79793D01*
X106850Y80293D02*Y81293D01*
X106350Y81793D02*X106850Y81293D01*
X104650Y80293D02*Y81293D01*
X103350Y79793D02*X104150D01*
X105150D02*X106350D01*
X105150D02*X104650Y80293D01*
X104150Y79793D02*X104650Y80293D01*
X106850Y132650D02*Y133950D01*
X106150Y134650D02*X106850Y133950D01*
X103550Y134650D02*X106150D01*
X103550D02*X102850Y133950D01*
Y132650D02*Y133950D01*
X103350Y131450D02*X102850Y130950D01*
Y129450D02*Y130950D01*
Y129450D02*X103350Y128950D01*
X104350D01*
X106850Y131450D02*X104350Y128950D01*
X106850D02*Y131450D01*
X106350Y127750D02*X106850Y127250D01*
X105550Y127750D02*X106350D01*
X105550D02*X104850Y127050D01*
Y126450D02*Y127050D01*
Y126450D02*X105550Y125750D01*
X106350D01*
X106850Y126250D02*X106350Y125750D01*
X106850Y126250D02*Y127250D01*
X104150Y127750D02*X104850Y127050D01*
X103350Y127750D02*X104150D01*
X103350D02*X102850Y127250D01*
Y126250D02*Y127250D01*
Y126250D02*X103350Y125750D01*
X104150D01*
X104850Y126450D02*X104150Y125750D01*
X112500Y101500D02*X116000D01*
X116500Y101000D01*
Y100000D02*Y101000D01*
Y100000D02*X116000Y99500D01*
X112500D02*X116000D01*
X115000Y98300D02*X112500Y96300D01*
X115000Y95800D02*Y98300D01*
X112500Y96300D02*X116500D01*
X109850Y131650D02*Y133650D01*
Y131650D02*X110350Y131150D01*
X111350D01*
X111850Y131650D02*X111350Y131150D01*
X111850Y131650D02*Y133150D01*
X109850D02*X113850D01*
X111850Y132350D02*X113850Y131150D01*
X110650Y129950D02*X109850Y129150D01*
X113850D01*
Y128450D02*Y129950D01*
X110650Y127250D02*X109850Y126450D01*
X113850D01*
Y125750D02*Y127250D01*
X84350Y121150D02*Y122450D01*
X83650Y123150D02*X84350Y122450D01*
X81050Y123150D02*X83650D01*
X81050D02*X80350Y122450D01*
Y121150D02*Y122450D01*
X80850Y119950D02*X80350Y119450D01*
Y117950D02*Y119450D01*
Y117950D02*X80850Y117450D01*
X81850D01*
X84350Y119950D02*X81850Y117450D01*
X84350D02*Y119950D01*
Y115750D02*X80350Y113750D01*
Y116250D01*
X93350Y132150D02*Y134150D01*
Y132150D02*X93850Y131650D01*
X94850D01*
X95350Y132150D02*X94850Y131650D01*
X95350Y132150D02*Y133650D01*
X93350D02*X97350D01*
X95350Y132850D02*X97350Y131650D01*
X94150Y130450D02*X93350Y129650D01*
X97350D01*
Y128950D02*Y130450D01*
X96850Y127750D02*X97350Y127250D01*
X93850Y127750D02*X96850D01*
X93850D02*X93350Y127250D01*
Y126250D02*Y127250D01*
Y126250D02*X93850Y125750D01*
X96850D01*
X97350Y126250D02*X96850Y125750D01*
X97350Y126250D02*Y127250D01*
X96350Y127750D02*X94350Y125750D01*
X139850Y112350D02*X141850D01*
X142350Y112850D01*
Y113850D01*
X141850Y114350D02*X142350Y113850D01*
X140350Y114350D02*X141850D01*
X140350Y112350D02*Y116350D01*
X141150Y114350D02*X142350Y116350D01*
X145050Y112350D02*X145550Y112850D01*
X144050Y112350D02*X145050D01*
X143550Y112850D02*X144050Y112350D01*
X143550Y112850D02*Y115850D01*
X144050Y116350D01*
X145050Y114150D02*X145550Y114650D01*
X143550Y114150D02*X145050D01*
X144050Y116350D02*X145050D01*
X145550Y115850D01*
Y114650D02*Y115850D01*
X117850Y127650D02*Y129650D01*
Y127650D02*X118350Y127150D01*
X119350D01*
X119850Y127650D02*X119350Y127150D01*
X119850Y127650D02*Y129150D01*
X117850D02*X121850D01*
X119850Y128350D02*X121850Y127150D01*
Y125450D02*X119850Y123950D01*
X118350D02*X119850D01*
X117850Y124450D02*X118350Y123950D01*
X117850Y124450D02*Y125450D01*
X118350Y125950D02*X117850Y125450D01*
X118350Y125950D02*X119350D01*
X119850Y125450D01*
Y123950D02*Y125450D01*
X150550Y140350D02*X151850D01*
X149850Y139650D02*X150550Y140350D01*
X149850Y137050D02*Y139650D01*
Y137050D02*X150550Y136350D01*
X151850D01*
X153050Y136850D02*X153550Y136350D01*
X155050D01*
X155550Y136850D01*
Y137850D01*
X153050Y140350D02*X155550Y137850D01*
X153050Y140350D02*X155550D01*
X158250Y136350D02*X158750Y136850D01*
X157250Y136350D02*X158250D01*
X156750Y136850D02*X157250Y136350D01*
X156750Y136850D02*Y139850D01*
X157250Y140350D01*
X158250Y138150D02*X158750Y138650D01*
X156750Y138150D02*X158250D01*
X157250Y140350D02*X158250D01*
X158750Y139850D01*
Y138650D02*Y139850D01*
M02*
