G04 start of page 3 for group 1 idx 1 *
G04 Title: (unknown), bottom *
G04 Creator: pcb 20140316 *
G04 CreationDate: Fri 17 Jul 2015 05:09:26 PM GMT UTC *
G04 For: fosse *
G04 Format: Gerber/RS-274X *
G04 PCB-Dimensions (mil): 2170.00 1700.00 *
G04 PCB-Coordinate-Origin: lower left *
%MOIN*%
%FSLAX25Y25*%
%LNBOTTOM*%
%ADD36C,0.0320*%
%ADD35C,0.0790*%
%ADD34C,0.0350*%
%ADD33C,0.0600*%
%ADD32C,0.0360*%
%ADD31R,0.0512X0.0512*%
%ADD30C,0.0800*%
%ADD29C,0.2000*%
%ADD28C,0.1600*%
%ADD27C,0.0200*%
%ADD26C,0.0400*%
%ADD25C,0.0001*%
G54D25*G36*
X196653Y83707D02*X196969Y84223D01*
X197270Y84950D01*
X197454Y85715D01*
X197500Y86500D01*
X197454Y87285D01*
X197270Y88050D01*
X196969Y88777D01*
X196653Y89293D01*
Y93707D01*
X196969Y94223D01*
X197270Y94950D01*
X197454Y95715D01*
X197500Y96500D01*
X197454Y97285D01*
X197270Y98050D01*
X196969Y98777D01*
X196653Y99293D01*
Y101000D01*
X199757D01*
X200500Y100257D01*
Y71743D01*
X198257Y69500D01*
X197492D01*
X197491Y70657D01*
X197454Y70810D01*
X197394Y70955D01*
X197312Y71090D01*
X197209Y71209D01*
X197090Y71312D01*
X196955Y71394D01*
X196810Y71454D01*
X196657Y71491D01*
X196653Y71491D01*
Y73738D01*
X196682Y73767D01*
X196728Y73831D01*
X196964Y74236D01*
X197157Y74665D01*
X197308Y75109D01*
X197418Y75566D01*
X197483Y76031D01*
X197506Y76500D01*
X197483Y76969D01*
X197418Y77434D01*
X197308Y77891D01*
X197157Y78335D01*
X196964Y78764D01*
X196732Y79172D01*
X196685Y79236D01*
X196653Y79268D01*
Y83707D01*
G37*
G36*
Y50605D02*X199500Y47757D01*
Y18243D01*
X196653Y15395D01*
Y50605D01*
G37*
G36*
Y163000D02*X197500D01*
X207500Y153000D01*
Y15500D01*
X199000Y7000D01*
X196653D01*
Y7572D01*
X196930Y7638D01*
X197366Y7819D01*
X197769Y8065D01*
X198128Y8372D01*
X198204Y8462D01*
X204538Y14796D01*
X204628Y14872D01*
X204934Y15231D01*
X204935Y15231D01*
X205181Y15634D01*
X205362Y16070D01*
X205472Y16529D01*
X205509Y17000D01*
X205500Y17118D01*
Y48882D01*
X205509Y49000D01*
X205472Y49471D01*
X205362Y49930D01*
X205181Y50366D01*
X204935Y50769D01*
X204628Y51128D01*
X204538Y51204D01*
X200485Y55258D01*
X200463Y55628D01*
X200316Y56240D01*
X200075Y56822D01*
X199746Y57358D01*
X199337Y57837D01*
X198858Y58246D01*
X198322Y58575D01*
X197740Y58816D01*
X197128Y58963D01*
X196653Y59000D01*
Y61509D01*
X196657Y61509D01*
X196810Y61546D01*
X196955Y61606D01*
X197090Y61688D01*
X197209Y61791D01*
X197312Y61910D01*
X197394Y62045D01*
X197454Y62190D01*
X197491Y62343D01*
X197500Y62500D01*
X197499Y63500D01*
X199382D01*
X199500Y63491D01*
X199970Y63528D01*
X199971Y63528D01*
X200430Y63638D01*
X200866Y63819D01*
X201269Y64065D01*
X201628Y64372D01*
X201705Y64462D01*
X205538Y68296D01*
X205628Y68372D01*
X205934Y68731D01*
X205935Y68731D01*
X206181Y69134D01*
X206362Y69570D01*
X206472Y70029D01*
X206509Y70500D01*
X206500Y70618D01*
Y101382D01*
X206509Y101500D01*
X206472Y101971D01*
X206472Y101971D01*
X206362Y102430D01*
X206181Y102866D01*
X205935Y103269D01*
X205628Y103628D01*
X205538Y103704D01*
X203204Y106038D01*
X203128Y106128D01*
X202769Y106435D01*
X202366Y106681D01*
X201930Y106862D01*
X201471Y106972D01*
X201000Y107009D01*
X200882Y107000D01*
X196653D01*
Y163000D01*
G37*
G36*
Y99293D02*X196558Y99448D01*
X196046Y100046D01*
X195448Y100558D01*
X194777Y100969D01*
X194702Y101000D01*
X196653D01*
Y99293D01*
G37*
G36*
Y89293D02*X196558Y89448D01*
X196046Y90046D01*
X195448Y90558D01*
X194777Y90969D01*
X194050Y91270D01*
X193285Y91454D01*
X192696Y91500D01*
X193285Y91546D01*
X194050Y91730D01*
X194777Y92031D01*
X195448Y92442D01*
X196046Y92954D01*
X196558Y93552D01*
X196653Y93707D01*
Y89293D01*
G37*
G36*
X188347Y83707D02*X188442Y83552D01*
X188954Y82954D01*
X189552Y82442D01*
X190223Y82031D01*
X190950Y81730D01*
X191715Y81546D01*
X192333Y81498D01*
X192031Y81483D01*
X191566Y81418D01*
X191109Y81308D01*
X190665Y81157D01*
X190236Y80964D01*
X189828Y80732D01*
X189764Y80685D01*
X189708Y80628D01*
X189663Y80564D01*
X189628Y80492D01*
X189604Y80417D01*
X189593Y80338D01*
X189594Y80259D01*
X189607Y80180D01*
X189633Y80105D01*
X189670Y80035D01*
X189717Y79971D01*
X189774Y79916D01*
X189839Y79870D01*
X189910Y79835D01*
X189986Y79812D01*
X190065Y79800D01*
X190144Y79801D01*
X190222Y79815D01*
X190297Y79840D01*
X190367Y79879D01*
X190691Y80068D01*
X191033Y80221D01*
X191388Y80342D01*
X191754Y80430D01*
X192125Y80482D01*
X192500Y80500D01*
X192875Y80482D01*
X193246Y80430D01*
X193612Y80342D01*
X193967Y80221D01*
X194309Y80068D01*
X194635Y79882D01*
X194704Y79844D01*
X194779Y79819D01*
X194856Y79806D01*
X194935Y79805D01*
X195013Y79816D01*
X195088Y79839D01*
X195159Y79874D01*
X195223Y79919D01*
X195279Y79974D01*
X195327Y80037D01*
X195363Y80107D01*
X195388Y80181D01*
X195402Y80259D01*
X195403Y80338D01*
X195392Y80416D01*
X195368Y80491D01*
X195334Y80561D01*
X195288Y80626D01*
X195233Y80682D01*
X195169Y80728D01*
X194764Y80964D01*
X194335Y81157D01*
X193891Y81308D01*
X193434Y81418D01*
X192969Y81483D01*
X192667Y81498D01*
X193285Y81546D01*
X194050Y81730D01*
X194777Y82031D01*
X195448Y82442D01*
X196046Y82954D01*
X196558Y83552D01*
X196653Y83707D01*
Y79268D01*
X196628Y79292D01*
X196564Y79337D01*
X196492Y79372D01*
X196417Y79396D01*
X196338Y79407D01*
X196259Y79406D01*
X196180Y79393D01*
X196105Y79367D01*
X196035Y79330D01*
X195971Y79283D01*
X195916Y79226D01*
X195870Y79161D01*
X195835Y79090D01*
X195812Y79014D01*
X195800Y78935D01*
X195801Y78856D01*
X195815Y78778D01*
X195840Y78703D01*
X195879Y78633D01*
X196068Y78309D01*
X196221Y77967D01*
X196342Y77612D01*
X196430Y77246D01*
X196482Y76875D01*
X196500Y76500D01*
X196482Y76125D01*
X196430Y75754D01*
X196342Y75388D01*
X196221Y75033D01*
X196068Y74691D01*
X195882Y74365D01*
X195844Y74296D01*
X195819Y74221D01*
X195806Y74144D01*
X195805Y74065D01*
X195816Y73987D01*
X195839Y73912D01*
X195874Y73841D01*
X195919Y73777D01*
X195974Y73721D01*
X196037Y73673D01*
X196107Y73637D01*
X196181Y73612D01*
X196259Y73598D01*
X196338Y73597D01*
X196416Y73608D01*
X196491Y73632D01*
X196561Y73666D01*
X196626Y73712D01*
X196653Y73738D01*
Y71491D01*
X196500Y71500D01*
X192521Y71495D01*
X192969Y71517D01*
X193434Y71582D01*
X193891Y71692D01*
X194335Y71843D01*
X194764Y72036D01*
X195172Y72268D01*
X195236Y72315D01*
X195292Y72372D01*
X195337Y72436D01*
X195372Y72508D01*
X195396Y72583D01*
X195407Y72662D01*
X195406Y72741D01*
X195393Y72820D01*
X195367Y72895D01*
X195330Y72965D01*
X195283Y73029D01*
X195226Y73084D01*
X195161Y73130D01*
X195090Y73165D01*
X195014Y73188D01*
X194935Y73200D01*
X194856Y73199D01*
X194778Y73185D01*
X194703Y73160D01*
X194633Y73121D01*
X194309Y72932D01*
X193967Y72779D01*
X193612Y72658D01*
X193246Y72570D01*
X192875Y72518D01*
X192500Y72500D01*
X192125Y72518D01*
X191754Y72570D01*
X191388Y72658D01*
X191033Y72779D01*
X190691Y72932D01*
X190364Y73118D01*
X190296Y73156D01*
X190221Y73181D01*
X190144Y73194D01*
X190065Y73195D01*
X189987Y73184D01*
X189912Y73161D01*
X189841Y73126D01*
X189777Y73081D01*
X189721Y73026D01*
X189673Y72963D01*
X189637Y72893D01*
X189612Y72819D01*
X189598Y72741D01*
X189597Y72662D01*
X189608Y72584D01*
X189632Y72509D01*
X189666Y72439D01*
X189712Y72374D01*
X189767Y72318D01*
X189831Y72272D01*
X190236Y72036D01*
X190665Y71843D01*
X191109Y71692D01*
X191566Y71582D01*
X192031Y71517D01*
X192480Y71495D01*
X188347Y71491D01*
Y73732D01*
X188372Y73708D01*
X188436Y73663D01*
X188508Y73628D01*
X188583Y73604D01*
X188662Y73593D01*
X188741Y73594D01*
X188820Y73607D01*
X188895Y73633D01*
X188965Y73670D01*
X189029Y73717D01*
X189084Y73774D01*
X189130Y73839D01*
X189165Y73910D01*
X189188Y73986D01*
X189200Y74065D01*
X189199Y74144D01*
X189185Y74222D01*
X189160Y74297D01*
X189121Y74367D01*
X188932Y74691D01*
X188779Y75033D01*
X188658Y75388D01*
X188570Y75754D01*
X188518Y76125D01*
X188500Y76500D01*
X188518Y76875D01*
X188570Y77246D01*
X188658Y77612D01*
X188779Y77967D01*
X188932Y78309D01*
X189118Y78636D01*
X189156Y78704D01*
X189181Y78779D01*
X189194Y78856D01*
X189195Y78935D01*
X189184Y79013D01*
X189161Y79088D01*
X189126Y79159D01*
X189081Y79223D01*
X189026Y79279D01*
X188963Y79327D01*
X188893Y79363D01*
X188819Y79388D01*
X188741Y79402D01*
X188662Y79403D01*
X188584Y79392D01*
X188509Y79368D01*
X188439Y79334D01*
X188374Y79288D01*
X188347Y79262D01*
Y83707D01*
G37*
G36*
Y93707D02*X188442Y93552D01*
X188954Y92954D01*
X189552Y92442D01*
X190223Y92031D01*
X190950Y91730D01*
X191715Y91546D01*
X192304Y91500D01*
X191715Y91454D01*
X190950Y91270D01*
X190223Y90969D01*
X189552Y90558D01*
X188954Y90046D01*
X188442Y89448D01*
X188347Y89293D01*
Y93707D01*
G37*
G36*
Y101000D02*X190298D01*
X190223Y100969D01*
X189552Y100558D01*
X188954Y100046D01*
X188442Y99448D01*
X188347Y99293D01*
Y101000D01*
G37*
G36*
X196653Y59000D02*X196500Y59012D01*
X195872Y58963D01*
X195260Y58816D01*
X194678Y58575D01*
X194142Y58246D01*
X193663Y57837D01*
X193254Y57358D01*
X192925Y56822D01*
X192684Y56240D01*
X192537Y55628D01*
X192488Y55000D01*
X192537Y54372D01*
X192684Y53760D01*
X192925Y53178D01*
X193254Y52642D01*
X193663Y52163D01*
X194142Y51754D01*
X194678Y51425D01*
X195260Y51184D01*
X195872Y51037D01*
X196250Y51007D01*
X196653Y50605D01*
Y15395D01*
X194757Y13500D01*
X188347D01*
Y61509D01*
X188500Y61500D01*
X196653Y61509D01*
Y59000D01*
G37*
G36*
X188347Y13500D02*X182505D01*
Y98262D01*
X185243Y101000D01*
X188347D01*
Y99293D01*
X188031Y98777D01*
X187730Y98050D01*
X187546Y97285D01*
X187485Y96500D01*
X187546Y95715D01*
X187730Y94950D01*
X188031Y94223D01*
X188347Y93707D01*
Y89293D01*
X188031Y88777D01*
X187730Y88050D01*
X187546Y87285D01*
X187485Y86500D01*
X187546Y85715D01*
X187730Y84950D01*
X188031Y84223D01*
X188347Y83707D01*
Y79262D01*
X188318Y79233D01*
X188272Y79169D01*
X188036Y78764D01*
X187843Y78335D01*
X187692Y77891D01*
X187582Y77434D01*
X187517Y76969D01*
X187494Y76500D01*
X187517Y76031D01*
X187582Y75566D01*
X187692Y75109D01*
X187843Y74665D01*
X188036Y74236D01*
X188268Y73828D01*
X188315Y73764D01*
X188347Y73732D01*
Y71491D01*
X188343Y71491D01*
X188190Y71454D01*
X188045Y71394D01*
X187910Y71312D01*
X187791Y71209D01*
X187688Y71090D01*
X187606Y70955D01*
X187546Y70810D01*
X187509Y70657D01*
X187500Y70500D01*
X187509Y62343D01*
X187546Y62190D01*
X187606Y62045D01*
X187688Y61910D01*
X187791Y61791D01*
X187910Y61688D01*
X188045Y61606D01*
X188190Y61546D01*
X188343Y61509D01*
X188347Y61509D01*
Y13500D01*
G37*
G36*
X196653Y7000D02*X182505D01*
Y7500D01*
X195882D01*
X196000Y7491D01*
X196471Y7528D01*
X196471Y7528D01*
X196653Y7572D01*
Y7000D01*
G37*
G36*
X182505Y163000D02*X196653D01*
Y107000D01*
X184118D01*
X184000Y107009D01*
X183529Y106972D01*
X183070Y106862D01*
X182634Y106681D01*
X182505Y106602D01*
Y163000D01*
G37*
G36*
Y7000D02*X86500D01*
Y23500D01*
X98500D01*
Y38257D01*
X99000Y38757D01*
Y17118D01*
X98991Y17000D01*
X99028Y16529D01*
X99138Y16070D01*
X99319Y15634D01*
X99565Y15231D01*
X99566Y15231D01*
X99872Y14872D01*
X99962Y14796D01*
X106296Y8462D01*
X106372Y8372D01*
X106731Y8066D01*
X106731Y8065D01*
X107134Y7819D01*
X107570Y7638D01*
X108029Y7528D01*
X108500Y7491D01*
X108618Y7500D01*
X182505D01*
Y7000D01*
G37*
G36*
X173494Y93500D02*X176382D01*
X176500Y93491D01*
X176971Y93528D01*
X176971Y93528D01*
X177430Y93638D01*
X177866Y93819D01*
X178269Y94065D01*
X178628Y94372D01*
X178704Y94462D01*
X182505Y98262D01*
Y13500D01*
X173494D01*
Y46988D01*
X173500Y46988D01*
X174128Y47037D01*
X174740Y47184D01*
X175322Y47425D01*
X175858Y47754D01*
X176337Y48163D01*
X176746Y48642D01*
X177075Y49178D01*
X177316Y49760D01*
X177463Y50372D01*
X177500Y51000D01*
X177463Y51628D01*
X177316Y52240D01*
X177075Y52822D01*
X176746Y53358D01*
X176500Y53646D01*
Y73854D01*
X176746Y74142D01*
X177075Y74678D01*
X177316Y75260D01*
X177463Y75872D01*
X177500Y76500D01*
X177463Y77128D01*
X177316Y77740D01*
X177075Y78322D01*
X176746Y78858D01*
X176337Y79337D01*
X175858Y79746D01*
X175322Y80075D01*
X174740Y80316D01*
X174128Y80463D01*
X173500Y80512D01*
X173494Y80512D01*
Y93500D01*
G37*
G36*
X181367Y163000D02*X182505D01*
Y106602D01*
X182231Y106435D01*
X182231Y106434D01*
X181872Y106128D01*
X181796Y106038D01*
X181367Y105610D01*
Y136786D01*
X181370Y136787D01*
X181438Y136826D01*
X181500Y136875D01*
X181552Y136934D01*
X181594Y137000D01*
X181757Y137325D01*
X181886Y137665D01*
X181984Y138015D01*
X182050Y138373D01*
X182083Y138735D01*
Y139099D01*
X182050Y139461D01*
X181984Y139819D01*
X181886Y140169D01*
X181757Y140509D01*
X181598Y140836D01*
X181555Y140902D01*
X181502Y140961D01*
X181440Y141011D01*
X181371Y141050D01*
X181367Y141052D01*
Y163000D01*
G37*
G36*
X178085D02*X181367D01*
Y141052D01*
X181297Y141078D01*
X181220Y141094D01*
X181141Y141098D01*
X181062Y141090D01*
X180986Y141069D01*
X180913Y141037D01*
X180847Y140994D01*
X180788Y140941D01*
X180739Y140879D01*
X180699Y140810D01*
X180671Y140736D01*
X180655Y140659D01*
X180651Y140580D01*
X180659Y140501D01*
X180680Y140424D01*
X180714Y140353D01*
X180836Y140110D01*
X180933Y139855D01*
X181006Y139593D01*
X181055Y139325D01*
X181080Y139053D01*
Y138781D01*
X181055Y138509D01*
X181006Y138241D01*
X180933Y137979D01*
X180836Y137724D01*
X180716Y137480D01*
X180683Y137408D01*
X180662Y137332D01*
X180654Y137254D01*
X180658Y137176D01*
X180674Y137099D01*
X180702Y137025D01*
X180741Y136957D01*
X180791Y136896D01*
X180849Y136843D01*
X180915Y136800D01*
X180987Y136768D01*
X181063Y136747D01*
X181141Y136739D01*
X181219Y136743D01*
X181296Y136759D01*
X181367Y136786D01*
Y105610D01*
X178085Y102327D01*
Y134917D01*
X178265D01*
X178627Y134950D01*
X178985Y135016D01*
X179335Y135114D01*
X179675Y135243D01*
X180002Y135402D01*
X180068Y135445D01*
X180127Y135498D01*
X180177Y135560D01*
X180216Y135629D01*
X180244Y135703D01*
X180261Y135780D01*
X180265Y135859D01*
X180256Y135938D01*
X180235Y136014D01*
X180203Y136087D01*
X180160Y136153D01*
X180107Y136212D01*
X180045Y136261D01*
X179976Y136301D01*
X179902Y136329D01*
X179825Y136345D01*
X179746Y136349D01*
X179667Y136341D01*
X179591Y136320D01*
X179519Y136287D01*
X179276Y136164D01*
X179021Y136067D01*
X178759Y135994D01*
X178491Y135945D01*
X178219Y135920D01*
X178085D01*
Y141914D01*
X178219D01*
X178491Y141889D01*
X178759Y141840D01*
X179021Y141767D01*
X179276Y141670D01*
X179521Y141550D01*
X179592Y141517D01*
X179668Y141496D01*
X179746Y141488D01*
X179824Y141492D01*
X179901Y141508D01*
X179975Y141536D01*
X180043Y141575D01*
X180104Y141624D01*
X180157Y141683D01*
X180200Y141749D01*
X180232Y141821D01*
X180253Y141897D01*
X180261Y141975D01*
X180257Y142053D01*
X180241Y142130D01*
X180213Y142204D01*
X180174Y142272D01*
X180125Y142333D01*
X180066Y142386D01*
X180000Y142428D01*
X179675Y142591D01*
X179335Y142720D01*
X178985Y142818D01*
X178627Y142884D01*
X178265Y142917D01*
X178085D01*
Y163000D01*
G37*
G36*
X174799D02*X178085D01*
Y142917D01*
X177901D01*
X177539Y142884D01*
X177181Y142818D01*
X176831Y142720D01*
X176491Y142591D01*
X176164Y142432D01*
X176098Y142389D01*
X176039Y142336D01*
X175990Y142274D01*
X175950Y142205D01*
X175922Y142131D01*
X175906Y142054D01*
X175902Y141975D01*
X175910Y141896D01*
X175931Y141820D01*
X175963Y141747D01*
X176006Y141681D01*
X176060Y141622D01*
X176121Y141573D01*
X176190Y141533D01*
X176264Y141505D01*
X176341Y141489D01*
X176420Y141485D01*
X176499Y141493D01*
X176576Y141514D01*
X176647Y141547D01*
X176890Y141670D01*
X177145Y141767D01*
X177408Y141840D01*
X177676Y141889D01*
X177947Y141914D01*
X178085D01*
Y135920D01*
X177947D01*
X177676Y135945D01*
X177408Y135994D01*
X177145Y136067D01*
X176890Y136164D01*
X176646Y136284D01*
X176575Y136317D01*
X176499Y136338D01*
X176420Y136346D01*
X176342Y136342D01*
X176265Y136326D01*
X176191Y136298D01*
X176123Y136259D01*
X176062Y136210D01*
X176009Y136151D01*
X175966Y136085D01*
X175934Y136013D01*
X175913Y135937D01*
X175905Y135859D01*
X175909Y135781D01*
X175925Y135704D01*
X175953Y135630D01*
X175992Y135562D01*
X176041Y135501D01*
X176100Y135448D01*
X176166Y135406D01*
X176491Y135243D01*
X176831Y135114D01*
X177181Y135016D01*
X177539Y134950D01*
X177901Y134917D01*
X178085D01*
Y102327D01*
X175257Y99500D01*
X174799D01*
Y136782D01*
X174869Y136756D01*
X174946Y136740D01*
X175025Y136736D01*
X175104Y136744D01*
X175181Y136765D01*
X175253Y136797D01*
X175319Y136840D01*
X175378Y136893D01*
X175428Y136955D01*
X175467Y137024D01*
X175495Y137098D01*
X175511Y137175D01*
X175515Y137254D01*
X175507Y137333D01*
X175486Y137410D01*
X175453Y137481D01*
X175330Y137724D01*
X175233Y137979D01*
X175160Y138241D01*
X175111Y138509D01*
X175086Y138781D01*
Y139053D01*
X175111Y139325D01*
X175160Y139593D01*
X175233Y139855D01*
X175330Y140110D01*
X175450Y140354D01*
X175483Y140426D01*
X175504Y140502D01*
X175512Y140580D01*
X175508Y140658D01*
X175492Y140735D01*
X175464Y140809D01*
X175425Y140877D01*
X175376Y140938D01*
X175317Y140991D01*
X175251Y141034D01*
X175179Y141066D01*
X175104Y141087D01*
X175025Y141095D01*
X174947Y141091D01*
X174870Y141075D01*
X174799Y141048D01*
Y163000D01*
G37*
G36*
X173494D02*X174799D01*
Y141048D01*
X174796Y141047D01*
X174728Y141008D01*
X174667Y140959D01*
X174614Y140900D01*
X174572Y140834D01*
X174409Y140509D01*
X174280Y140169D01*
X174182Y139819D01*
X174116Y139461D01*
X174083Y139099D01*
Y138735D01*
X174116Y138373D01*
X174182Y138015D01*
X174280Y137665D01*
X174409Y137325D01*
X174569Y136998D01*
X174611Y136932D01*
X174664Y136873D01*
X174726Y136823D01*
X174795Y136784D01*
X174799Y136782D01*
Y99500D01*
X173494D01*
Y163000D01*
G37*
G36*
X167653Y91509D02*X167657Y91509D01*
X167810Y91546D01*
X167955Y91606D01*
X168090Y91688D01*
X168209Y91791D01*
X168312Y91910D01*
X168394Y92045D01*
X168454Y92190D01*
X168491Y92343D01*
X168500Y92500D01*
X168499Y93500D01*
X173494D01*
Y80512D01*
X172872Y80463D01*
X172260Y80316D01*
X171678Y80075D01*
X171142Y79746D01*
X170663Y79337D01*
X170254Y78858D01*
X169925Y78322D01*
X169684Y77740D01*
X169537Y77128D01*
X169488Y76500D01*
X169537Y75872D01*
X169684Y75260D01*
X169925Y74678D01*
X170254Y74142D01*
X170500Y73854D01*
Y53646D01*
X170254Y53358D01*
X169925Y52822D01*
X169684Y52240D01*
X169537Y51628D01*
X169488Y51000D01*
X169537Y50372D01*
X169684Y49760D01*
X169925Y49178D01*
X170254Y48642D01*
X170663Y48163D01*
X171142Y47754D01*
X171678Y47425D01*
X172260Y47184D01*
X172872Y47037D01*
X173494Y46988D01*
Y13500D01*
X167653D01*
Y53707D01*
X167969Y54223D01*
X168270Y54950D01*
X168454Y55715D01*
X168500Y56500D01*
X168454Y57285D01*
X168270Y58050D01*
X167969Y58777D01*
X167653Y59293D01*
Y63707D01*
X167969Y64223D01*
X168270Y64950D01*
X168454Y65715D01*
X168500Y66500D01*
X168454Y67285D01*
X168270Y68050D01*
X167969Y68777D01*
X167653Y69293D01*
Y73707D01*
X167969Y74223D01*
X168270Y74950D01*
X168454Y75715D01*
X168500Y76500D01*
X168454Y77285D01*
X168270Y78050D01*
X167969Y78777D01*
X167653Y79293D01*
Y83738D01*
X167682Y83767D01*
X167728Y83831D01*
X167964Y84236D01*
X168157Y84665D01*
X168308Y85109D01*
X168418Y85566D01*
X168483Y86031D01*
X168506Y86500D01*
X168483Y86969D01*
X168418Y87434D01*
X168308Y87891D01*
X168157Y88335D01*
X167964Y88764D01*
X167732Y89172D01*
X167685Y89236D01*
X167653Y89268D01*
Y91509D01*
G37*
G36*
Y163000D02*X173494D01*
Y99500D01*
X168492D01*
X168491Y100657D01*
X168454Y100810D01*
X168394Y100955D01*
X168312Y101090D01*
X168209Y101209D01*
X168090Y101312D01*
X167955Y101394D01*
X167810Y101454D01*
X167657Y101491D01*
X167653Y101491D01*
Y163000D01*
G37*
G36*
Y69293D02*X167558Y69448D01*
X167046Y70046D01*
X166448Y70558D01*
X165777Y70969D01*
X165050Y71270D01*
X164285Y71454D01*
X163696Y71500D01*
X164285Y71546D01*
X165050Y71730D01*
X165777Y72031D01*
X166448Y72442D01*
X167046Y72954D01*
X167558Y73552D01*
X167653Y73707D01*
Y69293D01*
G37*
G36*
Y59293D02*X167558Y59448D01*
X167046Y60046D01*
X166448Y60558D01*
X165777Y60969D01*
X165050Y61270D01*
X164285Y61454D01*
X163696Y61500D01*
X164285Y61546D01*
X165050Y61730D01*
X165777Y62031D01*
X166448Y62442D01*
X167046Y62954D01*
X167558Y63552D01*
X167653Y63707D01*
Y59293D01*
G37*
G36*
X159347Y53707D02*X159442Y53552D01*
X159954Y52954D01*
X160552Y52442D01*
X161223Y52031D01*
X161950Y51730D01*
X162715Y51546D01*
X163500Y51485D01*
X164285Y51546D01*
X165050Y51730D01*
X165777Y52031D01*
X166448Y52442D01*
X167046Y52954D01*
X167558Y53552D01*
X167653Y53707D01*
Y13500D01*
X159347D01*
Y53707D01*
G37*
G36*
Y63707D02*X159442Y63552D01*
X159954Y62954D01*
X160552Y62442D01*
X161223Y62031D01*
X161950Y61730D01*
X162715Y61546D01*
X163304Y61500D01*
X162715Y61454D01*
X161950Y61270D01*
X161223Y60969D01*
X160552Y60558D01*
X159954Y60046D01*
X159442Y59448D01*
X159347Y59293D01*
Y63707D01*
G37*
G36*
Y73707D02*X159442Y73552D01*
X159954Y72954D01*
X160552Y72442D01*
X161223Y72031D01*
X161950Y71730D01*
X162715Y71546D01*
X163304Y71500D01*
X162715Y71454D01*
X161950Y71270D01*
X161223Y70969D01*
X160552Y70558D01*
X159954Y70046D01*
X159442Y69448D01*
X159347Y69293D01*
Y73707D01*
G37*
G36*
Y91509D02*X159500Y91500D01*
X163479Y91505D01*
X163031Y91483D01*
X162566Y91418D01*
X162109Y91308D01*
X161665Y91157D01*
X161236Y90964D01*
X160828Y90732D01*
X160764Y90685D01*
X160708Y90628D01*
X160663Y90564D01*
X160628Y90492D01*
X160604Y90417D01*
X160593Y90338D01*
X160594Y90259D01*
X160607Y90180D01*
X160633Y90105D01*
X160670Y90035D01*
X160717Y89971D01*
X160774Y89916D01*
X160839Y89870D01*
X160910Y89835D01*
X160986Y89812D01*
X161065Y89800D01*
X161144Y89801D01*
X161222Y89815D01*
X161297Y89840D01*
X161367Y89879D01*
X161691Y90068D01*
X162033Y90221D01*
X162388Y90342D01*
X162754Y90430D01*
X163125Y90482D01*
X163500Y90500D01*
X163875Y90482D01*
X164246Y90430D01*
X164612Y90342D01*
X164967Y90221D01*
X165309Y90068D01*
X165635Y89882D01*
X165704Y89844D01*
X165779Y89819D01*
X165856Y89806D01*
X165935Y89805D01*
X166013Y89816D01*
X166088Y89839D01*
X166159Y89874D01*
X166223Y89919D01*
X166279Y89974D01*
X166327Y90037D01*
X166363Y90107D01*
X166388Y90181D01*
X166402Y90259D01*
X166403Y90338D01*
X166392Y90416D01*
X166368Y90491D01*
X166334Y90561D01*
X166288Y90626D01*
X166233Y90682D01*
X166169Y90728D01*
X165764Y90964D01*
X165335Y91157D01*
X164891Y91308D01*
X164434Y91418D01*
X163969Y91483D01*
X163520Y91505D01*
X167653Y91509D01*
Y89268D01*
X167628Y89292D01*
X167564Y89337D01*
X167492Y89372D01*
X167417Y89396D01*
X167338Y89407D01*
X167259Y89406D01*
X167180Y89393D01*
X167105Y89367D01*
X167035Y89330D01*
X166971Y89283D01*
X166916Y89226D01*
X166870Y89161D01*
X166835Y89090D01*
X166812Y89014D01*
X166800Y88935D01*
X166801Y88856D01*
X166815Y88778D01*
X166840Y88703D01*
X166879Y88633D01*
X167068Y88309D01*
X167221Y87967D01*
X167342Y87612D01*
X167430Y87246D01*
X167482Y86875D01*
X167500Y86500D01*
X167482Y86125D01*
X167430Y85754D01*
X167342Y85388D01*
X167221Y85033D01*
X167068Y84691D01*
X166882Y84365D01*
X166844Y84296D01*
X166819Y84221D01*
X166806Y84144D01*
X166805Y84065D01*
X166816Y83987D01*
X166839Y83912D01*
X166874Y83841D01*
X166919Y83777D01*
X166974Y83721D01*
X167037Y83673D01*
X167107Y83637D01*
X167181Y83612D01*
X167259Y83598D01*
X167338Y83597D01*
X167416Y83608D01*
X167491Y83632D01*
X167561Y83666D01*
X167626Y83712D01*
X167653Y83738D01*
Y79293D01*
X167558Y79448D01*
X167046Y80046D01*
X166448Y80558D01*
X165777Y80969D01*
X165050Y81270D01*
X164285Y81454D01*
X163667Y81502D01*
X163969Y81517D01*
X164434Y81582D01*
X164891Y81692D01*
X165335Y81843D01*
X165764Y82036D01*
X166172Y82268D01*
X166236Y82315D01*
X166292Y82372D01*
X166337Y82436D01*
X166372Y82508D01*
X166396Y82583D01*
X166407Y82662D01*
X166406Y82741D01*
X166393Y82820D01*
X166367Y82895D01*
X166330Y82965D01*
X166283Y83029D01*
X166226Y83084D01*
X166161Y83130D01*
X166090Y83165D01*
X166014Y83188D01*
X165935Y83200D01*
X165856Y83199D01*
X165778Y83185D01*
X165703Y83160D01*
X165633Y83121D01*
X165309Y82932D01*
X164967Y82779D01*
X164612Y82658D01*
X164246Y82570D01*
X163875Y82518D01*
X163500Y82500D01*
X163125Y82518D01*
X162754Y82570D01*
X162388Y82658D01*
X162033Y82779D01*
X161691Y82932D01*
X161364Y83118D01*
X161296Y83156D01*
X161221Y83181D01*
X161144Y83194D01*
X161065Y83195D01*
X160987Y83184D01*
X160912Y83161D01*
X160841Y83126D01*
X160777Y83081D01*
X160721Y83026D01*
X160673Y82963D01*
X160637Y82893D01*
X160612Y82819D01*
X160598Y82741D01*
X160597Y82662D01*
X160608Y82584D01*
X160632Y82509D01*
X160666Y82439D01*
X160712Y82374D01*
X160767Y82318D01*
X160831Y82272D01*
X161236Y82036D01*
X161665Y81843D01*
X162109Y81692D01*
X162566Y81582D01*
X163031Y81517D01*
X163333Y81502D01*
X162715Y81454D01*
X161950Y81270D01*
X161223Y80969D01*
X160552Y80558D01*
X159954Y80046D01*
X159442Y79448D01*
X159347Y79293D01*
Y83732D01*
X159372Y83708D01*
X159436Y83663D01*
X159508Y83628D01*
X159583Y83604D01*
X159662Y83593D01*
X159741Y83594D01*
X159820Y83607D01*
X159895Y83633D01*
X159965Y83670D01*
X160029Y83717D01*
X160084Y83774D01*
X160130Y83839D01*
X160165Y83910D01*
X160188Y83986D01*
X160200Y84065D01*
X160199Y84144D01*
X160185Y84222D01*
X160160Y84297D01*
X160121Y84367D01*
X159932Y84691D01*
X159779Y85033D01*
X159658Y85388D01*
X159570Y85754D01*
X159518Y86125D01*
X159500Y86500D01*
X159518Y86875D01*
X159570Y87246D01*
X159658Y87612D01*
X159779Y87967D01*
X159932Y88309D01*
X160118Y88636D01*
X160156Y88704D01*
X160181Y88779D01*
X160194Y88856D01*
X160195Y88935D01*
X160184Y89013D01*
X160161Y89088D01*
X160126Y89159D01*
X160081Y89223D01*
X160026Y89279D01*
X159963Y89327D01*
X159893Y89363D01*
X159819Y89388D01*
X159741Y89402D01*
X159662Y89403D01*
X159584Y89392D01*
X159509Y89368D01*
X159439Y89334D01*
X159374Y89288D01*
X159347Y89262D01*
Y91509D01*
G37*
G36*
Y163000D02*X167653D01*
Y101491D01*
X167500Y101500D01*
X159347Y101491D01*
Y163000D01*
G37*
G36*
X153367D02*X159347D01*
Y101491D01*
X159343Y101491D01*
X159190Y101454D01*
X159045Y101394D01*
X158910Y101312D01*
X158791Y101209D01*
X158688Y101090D01*
X158606Y100955D01*
X158546Y100810D01*
X158509Y100657D01*
X158500Y100500D01*
X158509Y92343D01*
X158546Y92190D01*
X158606Y92045D01*
X158688Y91910D01*
X158791Y91791D01*
X158910Y91688D01*
X159045Y91606D01*
X159190Y91546D01*
X159343Y91509D01*
X159347Y91509D01*
Y89262D01*
X159318Y89233D01*
X159272Y89169D01*
X159036Y88764D01*
X158843Y88335D01*
X158692Y87891D01*
X158582Y87434D01*
X158517Y86969D01*
X158494Y86500D01*
X158517Y86031D01*
X158582Y85566D01*
X158692Y85109D01*
X158843Y84665D01*
X159036Y84236D01*
X159268Y83828D01*
X159315Y83764D01*
X159347Y83732D01*
Y79293D01*
X159031Y78777D01*
X158730Y78050D01*
X158546Y77285D01*
X158485Y76500D01*
X158546Y75715D01*
X158730Y74950D01*
X159031Y74223D01*
X159347Y73707D01*
Y69293D01*
X159031Y68777D01*
X158730Y68050D01*
X158546Y67285D01*
X158485Y66500D01*
X158546Y65715D01*
X158730Y64950D01*
X159031Y64223D01*
X159347Y63707D01*
Y59293D01*
X159031Y58777D01*
X158730Y58050D01*
X158546Y57285D01*
X158485Y56500D01*
X158546Y55715D01*
X158730Y54950D01*
X159031Y54223D01*
X159347Y53707D01*
Y13500D01*
X153367D01*
Y113952D01*
X153370Y113953D01*
X153438Y113992D01*
X153500Y114041D01*
X153552Y114100D01*
X153594Y114166D01*
X153757Y114491D01*
X153886Y114831D01*
X153984Y115181D01*
X154050Y115539D01*
X154083Y115901D01*
Y116265D01*
X154050Y116627D01*
X153984Y116985D01*
X153886Y117335D01*
X153757Y117675D01*
X153598Y118002D01*
X153555Y118068D01*
X153502Y118127D01*
X153440Y118177D01*
X153371Y118216D01*
X153367Y118218D01*
Y163000D01*
G37*
G36*
X150085D02*X153367D01*
Y118218D01*
X153297Y118244D01*
X153220Y118260D01*
X153141Y118264D01*
X153062Y118256D01*
X152986Y118235D01*
X152913Y118203D01*
X152847Y118160D01*
X152788Y118107D01*
X152739Y118045D01*
X152699Y117976D01*
X152671Y117902D01*
X152655Y117825D01*
X152651Y117746D01*
X152659Y117667D01*
X152680Y117590D01*
X152714Y117519D01*
X152836Y117276D01*
X152933Y117021D01*
X153006Y116759D01*
X153055Y116491D01*
X153080Y116219D01*
Y115947D01*
X153055Y115675D01*
X153006Y115407D01*
X152933Y115145D01*
X152836Y114890D01*
X152716Y114646D01*
X152683Y114574D01*
X152662Y114498D01*
X152654Y114420D01*
X152658Y114342D01*
X152674Y114265D01*
X152702Y114191D01*
X152741Y114123D01*
X152791Y114062D01*
X152849Y114009D01*
X152915Y113966D01*
X152987Y113934D01*
X153063Y113913D01*
X153141Y113905D01*
X153219Y113909D01*
X153296Y113925D01*
X153367Y113952D01*
Y13500D01*
X150085D01*
Y112083D01*
X150265D01*
X150627Y112116D01*
X150985Y112182D01*
X151335Y112280D01*
X151675Y112409D01*
X152002Y112568D01*
X152068Y112611D01*
X152127Y112664D01*
X152177Y112726D01*
X152216Y112795D01*
X152244Y112869D01*
X152261Y112946D01*
X152265Y113025D01*
X152256Y113104D01*
X152235Y113180D01*
X152203Y113253D01*
X152160Y113319D01*
X152107Y113378D01*
X152045Y113427D01*
X151976Y113467D01*
X151902Y113495D01*
X151825Y113511D01*
X151746Y113515D01*
X151667Y113507D01*
X151591Y113486D01*
X151519Y113453D01*
X151276Y113330D01*
X151021Y113233D01*
X150759Y113160D01*
X150491Y113111D01*
X150219Y113086D01*
X150085D01*
Y119080D01*
X150219D01*
X150491Y119055D01*
X150759Y119006D01*
X151021Y118933D01*
X151276Y118836D01*
X151521Y118716D01*
X151592Y118683D01*
X151668Y118662D01*
X151746Y118654D01*
X151824Y118658D01*
X151901Y118674D01*
X151975Y118702D01*
X152043Y118741D01*
X152104Y118790D01*
X152157Y118849D01*
X152200Y118915D01*
X152232Y118987D01*
X152253Y119063D01*
X152261Y119141D01*
X152257Y119219D01*
X152241Y119296D01*
X152213Y119370D01*
X152174Y119438D01*
X152125Y119499D01*
X152066Y119552D01*
X152000Y119594D01*
X151675Y119757D01*
X151335Y119886D01*
X150985Y119984D01*
X150627Y120050D01*
X150265Y120083D01*
X150085D01*
Y163000D01*
G37*
G36*
X146799D02*X150085D01*
Y120083D01*
X149901D01*
X149539Y120050D01*
X149181Y119984D01*
X148831Y119886D01*
X148491Y119757D01*
X148164Y119598D01*
X148098Y119555D01*
X148039Y119502D01*
X147990Y119440D01*
X147950Y119371D01*
X147922Y119297D01*
X147906Y119220D01*
X147902Y119141D01*
X147910Y119062D01*
X147931Y118986D01*
X147963Y118913D01*
X148006Y118847D01*
X148060Y118788D01*
X148121Y118739D01*
X148190Y118699D01*
X148264Y118671D01*
X148341Y118655D01*
X148420Y118651D01*
X148499Y118659D01*
X148576Y118680D01*
X148647Y118713D01*
X148890Y118836D01*
X149145Y118933D01*
X149408Y119006D01*
X149676Y119055D01*
X149947Y119080D01*
X150085D01*
Y113086D01*
X149947D01*
X149676Y113111D01*
X149408Y113160D01*
X149145Y113233D01*
X148890Y113330D01*
X148646Y113450D01*
X148575Y113483D01*
X148499Y113504D01*
X148420Y113512D01*
X148342Y113508D01*
X148265Y113492D01*
X148191Y113464D01*
X148123Y113425D01*
X148062Y113376D01*
X148009Y113317D01*
X147966Y113251D01*
X147934Y113179D01*
X147913Y113103D01*
X147905Y113025D01*
X147909Y112947D01*
X147925Y112870D01*
X147953Y112796D01*
X147992Y112728D01*
X148041Y112667D01*
X148100Y112614D01*
X148166Y112572D01*
X148491Y112409D01*
X148831Y112280D01*
X149181Y112182D01*
X149539Y112116D01*
X149901Y112083D01*
X150085D01*
Y13500D01*
X146799D01*
Y113948D01*
X146869Y113922D01*
X146946Y113906D01*
X147025Y113902D01*
X147104Y113910D01*
X147181Y113931D01*
X147253Y113963D01*
X147319Y114006D01*
X147378Y114059D01*
X147428Y114121D01*
X147467Y114190D01*
X147495Y114264D01*
X147511Y114341D01*
X147515Y114420D01*
X147507Y114499D01*
X147486Y114576D01*
X147453Y114647D01*
X147330Y114890D01*
X147233Y115145D01*
X147160Y115407D01*
X147111Y115675D01*
X147086Y115947D01*
Y116219D01*
X147111Y116491D01*
X147160Y116759D01*
X147233Y117021D01*
X147330Y117276D01*
X147450Y117520D01*
X147483Y117592D01*
X147504Y117668D01*
X147512Y117746D01*
X147508Y117824D01*
X147492Y117901D01*
X147464Y117975D01*
X147425Y118043D01*
X147376Y118104D01*
X147317Y118157D01*
X147251Y118200D01*
X147179Y118232D01*
X147104Y118253D01*
X147025Y118261D01*
X146947Y118257D01*
X146870Y118241D01*
X146799Y118214D01*
Y163000D01*
G37*
G36*
X123879D02*X146799D01*
Y118214D01*
X146796Y118213D01*
X146728Y118174D01*
X146667Y118125D01*
X146614Y118066D01*
X146572Y118000D01*
X146409Y117675D01*
X146280Y117335D01*
X146182Y116985D01*
X146116Y116627D01*
X146083Y116265D01*
Y115901D01*
X146116Y115539D01*
X146182Y115181D01*
X146280Y114831D01*
X146409Y114491D01*
X146569Y114164D01*
X146611Y114098D01*
X146664Y114039D01*
X146726Y113989D01*
X146795Y113950D01*
X146799Y113948D01*
Y13500D01*
X123879D01*
Y35964D01*
X123882Y35965D01*
X123950Y36004D01*
X124011Y36053D01*
X124064Y36112D01*
X124106Y36178D01*
X124269Y36503D01*
X124398Y36843D01*
X124496Y37193D01*
X124562Y37551D01*
X124595Y37913D01*
Y38277D01*
X124562Y38639D01*
X124496Y38997D01*
X124398Y39347D01*
X124269Y39687D01*
X124109Y40013D01*
X124067Y40080D01*
X124013Y40139D01*
X123952Y40188D01*
X123883Y40228D01*
X123879Y40230D01*
Y163000D01*
G37*
G36*
X122784D02*X123879D01*
Y40230D01*
X123809Y40256D01*
X123732Y40272D01*
X123653Y40276D01*
X123574Y40268D01*
X123497Y40247D01*
X123425Y40215D01*
X123359Y40172D01*
X123300Y40118D01*
X123250Y40057D01*
X123211Y39988D01*
X123183Y39914D01*
X123166Y39837D01*
X123163Y39758D01*
X123171Y39679D01*
X123192Y39602D01*
X123225Y39531D01*
X123348Y39288D01*
X123444Y39033D01*
X123518Y38770D01*
X123567Y38502D01*
X123592Y38231D01*
Y37959D01*
X123567Y37687D01*
X123518Y37419D01*
X123444Y37157D01*
X123348Y36902D01*
X123228Y36657D01*
X123195Y36586D01*
X123174Y36510D01*
X123166Y36432D01*
X123170Y36354D01*
X123186Y36277D01*
X123214Y36203D01*
X123253Y36135D01*
X123302Y36073D01*
X123361Y36021D01*
X123427Y35978D01*
X123498Y35945D01*
X123574Y35925D01*
X123653Y35917D01*
X123731Y35920D01*
X123808Y35937D01*
X123879Y35964D01*
Y13500D01*
X122784D01*
Y16869D01*
X122787Y16870D01*
X122855Y16909D01*
X122916Y16958D01*
X122969Y17017D01*
X123011Y17083D01*
X123174Y17408D01*
X123303Y17748D01*
X123401Y18098D01*
X123467Y18456D01*
X123500Y18818D01*
Y19182D01*
X123467Y19544D01*
X123401Y19902D01*
X123303Y20252D01*
X123174Y20592D01*
X123015Y20919D01*
X122972Y20985D01*
X122919Y21044D01*
X122857Y21094D01*
X122788Y21133D01*
X122784Y21135D01*
Y163000D01*
G37*
G36*
X119502D02*X122784D01*
Y21135D01*
X122714Y21161D01*
X122637Y21177D01*
X122558Y21181D01*
X122479Y21173D01*
X122403Y21152D01*
X122330Y21120D01*
X122264Y21077D01*
X122205Y21024D01*
X122156Y20962D01*
X122116Y20893D01*
X122088Y20819D01*
X122072Y20742D01*
X122068Y20663D01*
X122076Y20584D01*
X122097Y20507D01*
X122130Y20436D01*
X122253Y20193D01*
X122350Y19938D01*
X122423Y19676D01*
X122472Y19408D01*
X122497Y19136D01*
Y18864D01*
X122472Y18592D01*
X122423Y18324D01*
X122350Y18062D01*
X122253Y17807D01*
X122133Y17563D01*
X122100Y17491D01*
X122079Y17416D01*
X122071Y17337D01*
X122075Y17259D01*
X122091Y17182D01*
X122119Y17108D01*
X122158Y17040D01*
X122207Y16979D01*
X122266Y16926D01*
X122332Y16883D01*
X122404Y16851D01*
X122480Y16830D01*
X122558Y16822D01*
X122636Y16826D01*
X122713Y16842D01*
X122784Y16869D01*
Y13500D01*
X119502D01*
Y15000D01*
X119682D01*
X120044Y15033D01*
X120402Y15099D01*
X120752Y15197D01*
X121092Y15326D01*
X121419Y15485D01*
X121485Y15528D01*
X121544Y15581D01*
X121594Y15643D01*
X121633Y15712D01*
X121661Y15786D01*
X121677Y15863D01*
X121681Y15942D01*
X121673Y16021D01*
X121652Y16097D01*
X121620Y16170D01*
X121577Y16236D01*
X121524Y16295D01*
X121462Y16344D01*
X121393Y16384D01*
X121319Y16412D01*
X121242Y16428D01*
X121163Y16432D01*
X121084Y16424D01*
X121007Y16403D01*
X120936Y16370D01*
X120693Y16247D01*
X120438Y16150D01*
X120176Y16077D01*
X119908Y16028D01*
X119636Y16003D01*
X119502D01*
Y21997D01*
X119636D01*
X119908Y21972D01*
X120176Y21923D01*
X120438Y21850D01*
X120693Y21753D01*
X120937Y21633D01*
X121009Y21600D01*
X121084Y21579D01*
X121163Y21571D01*
X121241Y21575D01*
X121318Y21591D01*
X121392Y21619D01*
X121460Y21658D01*
X121521Y21707D01*
X121574Y21766D01*
X121617Y21832D01*
X121649Y21904D01*
X121670Y21980D01*
X121678Y22058D01*
X121674Y22136D01*
X121658Y22213D01*
X121630Y22287D01*
X121591Y22355D01*
X121542Y22416D01*
X121483Y22469D01*
X121417Y22511D01*
X121092Y22674D01*
X120752Y22803D01*
X120402Y22901D01*
X120044Y22967D01*
X119682Y23000D01*
X119502D01*
Y34247D01*
X119693Y34194D01*
X120051Y34128D01*
X120413Y34095D01*
X120777D01*
X121139Y34128D01*
X121497Y34194D01*
X121847Y34291D01*
X122187Y34421D01*
X122513Y34580D01*
X122580Y34623D01*
X122639Y34676D01*
X122688Y34738D01*
X122728Y34807D01*
X122756Y34881D01*
X122772Y34958D01*
X122776Y35037D01*
X122768Y35116D01*
X122747Y35192D01*
X122715Y35265D01*
X122672Y35331D01*
X122618Y35390D01*
X122557Y35439D01*
X122488Y35479D01*
X122414Y35507D01*
X122337Y35523D01*
X122258Y35527D01*
X122179Y35519D01*
X122102Y35498D01*
X122031Y35464D01*
X121787Y35342D01*
X121533Y35245D01*
X121270Y35172D01*
X121002Y35123D01*
X120731Y35098D01*
X120459D01*
X120187Y35123D01*
X119919Y35172D01*
X119657Y35245D01*
X119502Y35304D01*
Y40885D01*
X119657Y40944D01*
X119919Y41018D01*
X120187Y41067D01*
X120459Y41092D01*
X120731D01*
X121002Y41067D01*
X121270Y41018D01*
X121533Y40944D01*
X121787Y40848D01*
X122032Y40728D01*
X122103Y40695D01*
X122179Y40674D01*
X122258Y40666D01*
X122336Y40670D01*
X122413Y40686D01*
X122487Y40714D01*
X122555Y40753D01*
X122616Y40802D01*
X122669Y40861D01*
X122712Y40927D01*
X122744Y40998D01*
X122765Y41074D01*
X122773Y41153D01*
X122769Y41231D01*
X122753Y41308D01*
X122725Y41382D01*
X122686Y41450D01*
X122636Y41511D01*
X122578Y41564D01*
X122511Y41606D01*
X122187Y41769D01*
X121847Y41898D01*
X121497Y41996D01*
X121139Y42062D01*
X120777Y42095D01*
X120413D01*
X120051Y42062D01*
X119693Y41996D01*
X119502Y41943D01*
Y163000D01*
G37*
G36*
X117311D02*X119502D01*
Y41943D01*
X119343Y41898D01*
X119003Y41769D01*
X118676Y41609D01*
X118610Y41567D01*
X118551Y41514D01*
X118501Y41452D01*
X118462Y41383D01*
X118434Y41309D01*
X118417Y41232D01*
X118413Y41153D01*
X118422Y41074D01*
X118443Y40997D01*
X118475Y40925D01*
X118518Y40859D01*
X118571Y40800D01*
X118633Y40750D01*
X118702Y40711D01*
X118776Y40683D01*
X118853Y40666D01*
X118932Y40663D01*
X119011Y40671D01*
X119087Y40692D01*
X119159Y40725D01*
X119402Y40848D01*
X119502Y40885D01*
Y35304D01*
X119402Y35342D01*
X119157Y35462D01*
X119086Y35495D01*
X119010Y35516D01*
X118932Y35524D01*
X118854Y35520D01*
X118777Y35504D01*
X118703Y35476D01*
X118635Y35437D01*
X118573Y35387D01*
X118521Y35329D01*
X118478Y35263D01*
X118445Y35191D01*
X118425Y35115D01*
X118417Y35037D01*
X118420Y34958D01*
X118437Y34881D01*
X118465Y34808D01*
X118504Y34740D01*
X118553Y34678D01*
X118612Y34626D01*
X118678Y34584D01*
X119003Y34421D01*
X119343Y34291D01*
X119502Y34247D01*
Y23000D01*
X119318D01*
X118956Y22967D01*
X118598Y22901D01*
X118248Y22803D01*
X117908Y22674D01*
X117581Y22515D01*
X117515Y22472D01*
X117456Y22419D01*
X117406Y22357D01*
X117367Y22288D01*
X117339Y22214D01*
X117323Y22137D01*
X117319Y22058D01*
X117327Y21979D01*
X117348Y21903D01*
X117380Y21830D01*
X117423Y21764D01*
X117476Y21705D01*
X117538Y21656D01*
X117607Y21616D01*
X117681Y21588D01*
X117758Y21572D01*
X117837Y21568D01*
X117916Y21576D01*
X117993Y21597D01*
X118064Y21630D01*
X118307Y21753D01*
X118562Y21850D01*
X118824Y21923D01*
X119092Y21972D01*
X119364Y21997D01*
X119502D01*
Y16003D01*
X119364D01*
X119092Y16028D01*
X118824Y16077D01*
X118562Y16150D01*
X118307Y16247D01*
X118063Y16367D01*
X117991Y16400D01*
X117915Y16421D01*
X117837Y16429D01*
X117759Y16425D01*
X117682Y16409D01*
X117608Y16381D01*
X117540Y16342D01*
X117479Y16293D01*
X117426Y16234D01*
X117383Y16168D01*
X117351Y16096D01*
X117330Y16020D01*
X117322Y15942D01*
X117326Y15864D01*
X117342Y15787D01*
X117370Y15713D01*
X117409Y15645D01*
X117458Y15584D01*
X117517Y15531D01*
X117583Y15489D01*
X117908Y15326D01*
X118248Y15197D01*
X118598Y15099D01*
X118956Y15033D01*
X119318Y15000D01*
X119502D01*
Y13500D01*
X117311D01*
Y35960D01*
X117381Y35934D01*
X117458Y35917D01*
X117537Y35913D01*
X117616Y35922D01*
X117692Y35943D01*
X117765Y35975D01*
X117831Y36018D01*
X117890Y36071D01*
X117939Y36133D01*
X117979Y36202D01*
X118007Y36276D01*
X118023Y36353D01*
X118027Y36432D01*
X118019Y36511D01*
X117998Y36587D01*
X117964Y36659D01*
X117842Y36902D01*
X117745Y37157D01*
X117672Y37419D01*
X117623Y37687D01*
X117598Y37959D01*
Y38231D01*
X117623Y38502D01*
X117672Y38770D01*
X117745Y39033D01*
X117842Y39288D01*
X117962Y39532D01*
X117995Y39603D01*
X118016Y39679D01*
X118024Y39758D01*
X118020Y39836D01*
X118004Y39913D01*
X117976Y39987D01*
X117937Y40055D01*
X117887Y40116D01*
X117829Y40169D01*
X117763Y40212D01*
X117691Y40244D01*
X117615Y40265D01*
X117537Y40273D01*
X117458Y40269D01*
X117381Y40253D01*
X117311Y40226D01*
Y163000D01*
G37*
G36*
X116216D02*X117311D01*
Y40226D01*
X117308Y40225D01*
X117240Y40186D01*
X117178Y40136D01*
X117126Y40078D01*
X117084Y40011D01*
X116921Y39687D01*
X116791Y39347D01*
X116694Y38997D01*
X116628Y38639D01*
X116595Y38277D01*
Y37913D01*
X116628Y37551D01*
X116694Y37193D01*
X116791Y36843D01*
X116921Y36503D01*
X117080Y36176D01*
X117123Y36110D01*
X117176Y36051D01*
X117238Y36001D01*
X117307Y35962D01*
X117311Y35960D01*
Y13500D01*
X116216D01*
Y16865D01*
X116286Y16839D01*
X116363Y16823D01*
X116442Y16819D01*
X116521Y16827D01*
X116597Y16848D01*
X116670Y16880D01*
X116736Y16923D01*
X116795Y16976D01*
X116844Y17038D01*
X116884Y17107D01*
X116912Y17181D01*
X116928Y17258D01*
X116932Y17337D01*
X116924Y17416D01*
X116903Y17493D01*
X116870Y17564D01*
X116747Y17807D01*
X116650Y18062D01*
X116577Y18324D01*
X116528Y18592D01*
X116503Y18864D01*
Y19136D01*
X116528Y19408D01*
X116577Y19676D01*
X116650Y19938D01*
X116747Y20193D01*
X116867Y20437D01*
X116900Y20509D01*
X116921Y20585D01*
X116929Y20663D01*
X116925Y20741D01*
X116909Y20818D01*
X116881Y20892D01*
X116842Y20960D01*
X116793Y21021D01*
X116734Y21074D01*
X116668Y21117D01*
X116596Y21149D01*
X116520Y21170D01*
X116442Y21178D01*
X116364Y21174D01*
X116287Y21158D01*
X116216Y21131D01*
Y163000D01*
G37*
G36*
X97284D02*X116216D01*
Y21131D01*
X116213Y21130D01*
X116145Y21091D01*
X116084Y21042D01*
X116031Y20983D01*
X115989Y20917D01*
X115826Y20592D01*
X115697Y20252D01*
X115599Y19902D01*
X115533Y19544D01*
X115500Y19182D01*
Y18818D01*
X115533Y18456D01*
X115599Y18098D01*
X115697Y17748D01*
X115826Y17408D01*
X115985Y17081D01*
X116028Y17015D01*
X116081Y16956D01*
X116143Y16906D01*
X116212Y16867D01*
X116216Y16865D01*
Y13500D01*
X109743D01*
X105000Y18243D01*
Y43354D01*
X105246Y43642D01*
X105575Y44178D01*
X105816Y44760D01*
X105963Y45372D01*
X106000Y46000D01*
X105963Y46628D01*
X105816Y47240D01*
X105575Y47822D01*
X105246Y48358D01*
X104837Y48837D01*
X104358Y49246D01*
X103822Y49575D01*
X103240Y49816D01*
X102628Y49963D01*
X102000Y50012D01*
X101372Y49963D01*
X100760Y49816D01*
X100178Y49575D01*
X99642Y49246D01*
X99163Y48837D01*
X98754Y48358D01*
X98500Y47944D01*
Y56500D01*
X97284D01*
Y105369D01*
X97287Y105370D01*
X97355Y105409D01*
X97416Y105458D01*
X97469Y105517D01*
X97511Y105583D01*
X97674Y105908D01*
X97803Y106248D01*
X97901Y106598D01*
X97967Y106956D01*
X98000Y107318D01*
Y107682D01*
X97967Y108044D01*
X97901Y108402D01*
X97803Y108752D01*
X97674Y109092D01*
X97515Y109419D01*
X97472Y109485D01*
X97419Y109544D01*
X97357Y109594D01*
X97288Y109633D01*
X97284Y109635D01*
Y163000D01*
G37*
G36*
X94002D02*X97284D01*
Y109635D01*
X97214Y109661D01*
X97137Y109677D01*
X97058Y109681D01*
X96979Y109673D01*
X96903Y109652D01*
X96830Y109620D01*
X96764Y109577D01*
X96705Y109524D01*
X96656Y109462D01*
X96616Y109393D01*
X96588Y109319D01*
X96572Y109242D01*
X96568Y109163D01*
X96576Y109084D01*
X96597Y109007D01*
X96630Y108936D01*
X96753Y108693D01*
X96850Y108438D01*
X96923Y108176D01*
X96972Y107908D01*
X96997Y107636D01*
Y107364D01*
X96972Y107092D01*
X96923Y106824D01*
X96850Y106562D01*
X96753Y106307D01*
X96633Y106063D01*
X96600Y105991D01*
X96579Y105916D01*
X96571Y105837D01*
X96575Y105759D01*
X96591Y105682D01*
X96619Y105608D01*
X96658Y105540D01*
X96707Y105479D01*
X96766Y105426D01*
X96832Y105383D01*
X96904Y105351D01*
X96980Y105330D01*
X97058Y105322D01*
X97136Y105326D01*
X97213Y105342D01*
X97284Y105369D01*
Y56500D01*
X94002D01*
Y103500D01*
X94182D01*
X94544Y103533D01*
X94902Y103599D01*
X95252Y103697D01*
X95592Y103826D01*
X95919Y103985D01*
X95985Y104028D01*
X96044Y104081D01*
X96094Y104143D01*
X96133Y104212D01*
X96161Y104286D01*
X96177Y104363D01*
X96181Y104442D01*
X96173Y104521D01*
X96152Y104597D01*
X96120Y104670D01*
X96077Y104736D01*
X96024Y104795D01*
X95962Y104844D01*
X95893Y104884D01*
X95819Y104912D01*
X95742Y104928D01*
X95663Y104932D01*
X95584Y104924D01*
X95507Y104903D01*
X95436Y104870D01*
X95193Y104747D01*
X94938Y104650D01*
X94676Y104577D01*
X94408Y104528D01*
X94136Y104503D01*
X94002D01*
Y110497D01*
X94136D01*
X94408Y110472D01*
X94676Y110423D01*
X94938Y110350D01*
X95193Y110253D01*
X95437Y110133D01*
X95509Y110100D01*
X95584Y110079D01*
X95663Y110071D01*
X95741Y110075D01*
X95818Y110091D01*
X95892Y110119D01*
X95960Y110158D01*
X96021Y110207D01*
X96074Y110266D01*
X96117Y110332D01*
X96149Y110404D01*
X96170Y110480D01*
X96178Y110558D01*
X96174Y110636D01*
X96158Y110713D01*
X96130Y110787D01*
X96091Y110855D01*
X96042Y110916D01*
X95983Y110969D01*
X95917Y111011D01*
X95592Y111174D01*
X95252Y111303D01*
X94902Y111401D01*
X94544Y111467D01*
X94182Y111500D01*
X94002D01*
Y112500D01*
X97000D01*
Y145500D01*
X94002D01*
Y163000D01*
G37*
G36*
Y56500D02*X90716D01*
Y105365D01*
X90786Y105339D01*
X90863Y105323D01*
X90942Y105319D01*
X91021Y105327D01*
X91097Y105348D01*
X91170Y105380D01*
X91236Y105423D01*
X91295Y105476D01*
X91344Y105538D01*
X91384Y105607D01*
X91412Y105681D01*
X91428Y105758D01*
X91432Y105837D01*
X91424Y105916D01*
X91403Y105993D01*
X91370Y106064D01*
X91247Y106307D01*
X91150Y106562D01*
X91077Y106824D01*
X91028Y107092D01*
X91003Y107364D01*
Y107636D01*
X91028Y107908D01*
X91077Y108176D01*
X91150Y108438D01*
X91247Y108693D01*
X91367Y108937D01*
X91400Y109009D01*
X91421Y109085D01*
X91429Y109163D01*
X91425Y109241D01*
X91409Y109318D01*
X91381Y109392D01*
X91342Y109460D01*
X91293Y109521D01*
X91234Y109574D01*
X91168Y109617D01*
X91096Y109649D01*
X91020Y109670D01*
X90942Y109678D01*
X90864Y109674D01*
X90787Y109658D01*
X90716Y109631D01*
Y112500D01*
X94002D01*
Y111500D01*
X93818D01*
X93456Y111467D01*
X93098Y111401D01*
X92748Y111303D01*
X92408Y111174D01*
X92081Y111015D01*
X92015Y110972D01*
X91956Y110919D01*
X91906Y110857D01*
X91867Y110788D01*
X91839Y110714D01*
X91823Y110637D01*
X91819Y110558D01*
X91827Y110479D01*
X91848Y110403D01*
X91880Y110330D01*
X91923Y110264D01*
X91976Y110205D01*
X92038Y110156D01*
X92107Y110116D01*
X92181Y110088D01*
X92258Y110072D01*
X92337Y110068D01*
X92416Y110076D01*
X92493Y110097D01*
X92564Y110130D01*
X92807Y110253D01*
X93062Y110350D01*
X93324Y110423D01*
X93592Y110472D01*
X93864Y110497D01*
X94002D01*
Y104503D01*
X93864D01*
X93592Y104528D01*
X93324Y104577D01*
X93062Y104650D01*
X92807Y104747D01*
X92563Y104867D01*
X92491Y104900D01*
X92415Y104921D01*
X92337Y104929D01*
X92259Y104925D01*
X92182Y104909D01*
X92108Y104881D01*
X92040Y104842D01*
X91979Y104793D01*
X91926Y104734D01*
X91883Y104668D01*
X91851Y104596D01*
X91830Y104520D01*
X91822Y104442D01*
X91826Y104364D01*
X91842Y104287D01*
X91870Y104213D01*
X91909Y104145D01*
X91958Y104084D01*
X92017Y104031D01*
X92083Y103989D01*
X92408Y103826D01*
X92748Y103697D01*
X93098Y103599D01*
X93456Y103533D01*
X93818Y103500D01*
X94002D01*
Y56500D01*
G37*
G36*
X90716D02*X86500D01*
Y112500D01*
X90716D01*
Y109631D01*
X90713Y109630D01*
X90645Y109591D01*
X90584Y109542D01*
X90531Y109483D01*
X90489Y109417D01*
X90326Y109092D01*
X90197Y108752D01*
X90099Y108402D01*
X90033Y108044D01*
X90000Y107682D01*
Y107318D01*
X90033Y106956D01*
X90099Y106598D01*
X90197Y106248D01*
X90326Y105908D01*
X90485Y105581D01*
X90528Y105515D01*
X90581Y105456D01*
X90643Y105406D01*
X90712Y105367D01*
X90716Y105365D01*
Y56500D01*
G37*
G36*
X86500Y163000D02*X94002D01*
Y145500D01*
X86500D01*
Y163000D01*
G37*
G36*
X58822D02*X86500D01*
Y145500D01*
X76000D01*
Y112500D01*
X86500D01*
Y56500D01*
X77500D01*
Y42646D01*
X77254Y42358D01*
X76925Y41822D01*
X76684Y41240D01*
X76537Y40628D01*
X76488Y40000D01*
X76537Y39372D01*
X76684Y38760D01*
X76925Y38178D01*
X77254Y37642D01*
X77500Y37354D01*
Y23500D01*
X86500D01*
Y7000D01*
X58822D01*
Y32005D01*
X59192Y32609D01*
X59508Y33373D01*
X59701Y34176D01*
X59750Y35000D01*
X59701Y35824D01*
X59508Y36627D01*
X59192Y37391D01*
X58822Y37995D01*
Y42172D01*
X58871Y42199D01*
X58948Y42259D01*
X59015Y42331D01*
X59069Y42414D01*
X59296Y42850D01*
X59476Y43308D01*
X59612Y43781D01*
X59704Y44264D01*
X59750Y44754D01*
Y45246D01*
X59704Y45736D01*
X59612Y46219D01*
X59476Y46692D01*
X59296Y47150D01*
X59074Y47589D01*
X59019Y47672D01*
X58951Y47744D01*
X58873Y47805D01*
X58822Y47833D01*
Y132005D01*
X59192Y132609D01*
X59508Y133373D01*
X59701Y134176D01*
X59750Y135000D01*
X59701Y135824D01*
X59508Y136627D01*
X59192Y137391D01*
X58822Y137995D01*
Y142172D01*
X58871Y142199D01*
X58948Y142259D01*
X59015Y142331D01*
X59069Y142414D01*
X59296Y142850D01*
X59476Y143308D01*
X59612Y143781D01*
X59704Y144264D01*
X59750Y144754D01*
Y145246D01*
X59704Y145736D01*
X59612Y146219D01*
X59476Y146692D01*
X59296Y147150D01*
X59074Y147589D01*
X59019Y147672D01*
X58951Y147744D01*
X58873Y147805D01*
X58822Y147833D01*
Y163000D01*
G37*
G36*
X54498Y29734D02*X54500Y29734D01*
X55324Y29799D01*
X56127Y29992D01*
X56891Y30308D01*
X57595Y30740D01*
X58224Y31276D01*
X58760Y31905D01*
X58822Y32005D01*
Y7000D01*
X54498D01*
Y29734D01*
G37*
G36*
Y129734D02*X54500Y129734D01*
X55324Y129799D01*
X56127Y129992D01*
X56891Y130308D01*
X57595Y130740D01*
X58224Y131276D01*
X58760Y131905D01*
X58822Y132005D01*
Y47833D01*
X58786Y47853D01*
X58693Y47887D01*
X58596Y47906D01*
X58497Y47909D01*
X58399Y47897D01*
X58304Y47870D01*
X58214Y47828D01*
X58132Y47772D01*
X58059Y47705D01*
X57998Y47627D01*
X57950Y47540D01*
X57916Y47447D01*
X57898Y47350D01*
X57894Y47251D01*
X57906Y47152D01*
X57934Y47057D01*
X57977Y46968D01*
X58150Y46636D01*
X58287Y46288D01*
X58391Y45928D01*
X58461Y45560D01*
X58496Y45187D01*
Y44813D01*
X58461Y44440D01*
X58391Y44072D01*
X58287Y43712D01*
X58150Y43364D01*
X57981Y43029D01*
X57938Y42941D01*
X57911Y42847D01*
X57898Y42749D01*
X57902Y42651D01*
X57921Y42554D01*
X57954Y42462D01*
X58002Y42376D01*
X58062Y42298D01*
X58134Y42231D01*
X58216Y42176D01*
X58305Y42134D01*
X58400Y42107D01*
X58497Y42095D01*
X58596Y42099D01*
X58692Y42117D01*
X58785Y42151D01*
X58822Y42172D01*
Y37995D01*
X58760Y38095D01*
X58224Y38724D01*
X57595Y39260D01*
X56891Y39692D01*
X56132Y40007D01*
X56192Y40024D01*
X56650Y40204D01*
X57089Y40426D01*
X57172Y40481D01*
X57244Y40549D01*
X57305Y40627D01*
X57353Y40714D01*
X57387Y40807D01*
X57406Y40904D01*
X57409Y41003D01*
X57397Y41101D01*
X57370Y41196D01*
X57328Y41286D01*
X57272Y41368D01*
X57205Y41441D01*
X57127Y41502D01*
X57040Y41550D01*
X56947Y41584D01*
X56850Y41602D01*
X56751Y41606D01*
X56652Y41594D01*
X56557Y41566D01*
X56468Y41523D01*
X56136Y41350D01*
X55788Y41213D01*
X55428Y41109D01*
X55060Y41039D01*
X54687Y41004D01*
X54498D01*
Y48996D01*
X54687D01*
X55060Y48961D01*
X55428Y48891D01*
X55788Y48787D01*
X56136Y48650D01*
X56471Y48481D01*
X56559Y48438D01*
X56653Y48411D01*
X56751Y48398D01*
X56849Y48402D01*
X56946Y48421D01*
X57038Y48454D01*
X57124Y48502D01*
X57202Y48562D01*
X57269Y48634D01*
X57324Y48716D01*
X57366Y48805D01*
X57393Y48900D01*
X57405Y48997D01*
X57401Y49096D01*
X57383Y49192D01*
X57349Y49285D01*
X57301Y49371D01*
X57241Y49448D01*
X57169Y49515D01*
X57086Y49569D01*
X56650Y49796D01*
X56192Y49976D01*
X55719Y50112D01*
X55236Y50204D01*
X54746Y50250D01*
X54498D01*
Y129734D01*
G37*
G36*
Y163000D02*X58822D01*
Y147833D01*
X58786Y147853D01*
X58693Y147887D01*
X58596Y147906D01*
X58497Y147909D01*
X58399Y147897D01*
X58304Y147870D01*
X58214Y147828D01*
X58132Y147772D01*
X58059Y147705D01*
X57998Y147627D01*
X57950Y147540D01*
X57916Y147447D01*
X57898Y147350D01*
X57894Y147251D01*
X57906Y147152D01*
X57934Y147057D01*
X57977Y146968D01*
X58150Y146636D01*
X58287Y146288D01*
X58391Y145928D01*
X58461Y145560D01*
X58496Y145187D01*
Y144813D01*
X58461Y144440D01*
X58391Y144072D01*
X58287Y143712D01*
X58150Y143364D01*
X57981Y143029D01*
X57938Y142941D01*
X57911Y142847D01*
X57898Y142749D01*
X57902Y142651D01*
X57921Y142554D01*
X57954Y142462D01*
X58002Y142376D01*
X58062Y142298D01*
X58134Y142231D01*
X58216Y142176D01*
X58305Y142134D01*
X58400Y142107D01*
X58497Y142095D01*
X58596Y142099D01*
X58692Y142117D01*
X58785Y142151D01*
X58822Y142172D01*
Y137995D01*
X58760Y138095D01*
X58224Y138724D01*
X57595Y139260D01*
X56891Y139692D01*
X56132Y140007D01*
X56192Y140024D01*
X56650Y140204D01*
X57089Y140426D01*
X57172Y140481D01*
X57244Y140549D01*
X57305Y140627D01*
X57353Y140714D01*
X57387Y140807D01*
X57406Y140904D01*
X57409Y141003D01*
X57397Y141101D01*
X57370Y141196D01*
X57328Y141286D01*
X57272Y141368D01*
X57205Y141441D01*
X57127Y141502D01*
X57040Y141550D01*
X56947Y141584D01*
X56850Y141602D01*
X56751Y141606D01*
X56652Y141594D01*
X56557Y141566D01*
X56468Y141523D01*
X56136Y141350D01*
X55788Y141213D01*
X55428Y141109D01*
X55060Y141039D01*
X54687Y141004D01*
X54498D01*
Y148996D01*
X54687D01*
X55060Y148961D01*
X55428Y148891D01*
X55788Y148787D01*
X56136Y148650D01*
X56471Y148481D01*
X56559Y148438D01*
X56653Y148411D01*
X56751Y148398D01*
X56849Y148402D01*
X56946Y148421D01*
X57038Y148454D01*
X57124Y148502D01*
X57202Y148562D01*
X57269Y148634D01*
X57324Y148716D01*
X57366Y148805D01*
X57393Y148900D01*
X57405Y148997D01*
X57401Y149096D01*
X57383Y149192D01*
X57349Y149285D01*
X57301Y149371D01*
X57241Y149448D01*
X57169Y149515D01*
X57086Y149569D01*
X56650Y149796D01*
X56192Y149976D01*
X55719Y150112D01*
X55236Y150204D01*
X54746Y150250D01*
X54498D01*
Y163000D01*
G37*
G36*
X50178Y32005D02*X50240Y31905D01*
X50776Y31276D01*
X51405Y30740D01*
X52109Y30308D01*
X52873Y29992D01*
X53676Y29799D01*
X54498Y29734D01*
Y7000D01*
X50178D01*
Y32005D01*
G37*
G36*
Y132005D02*X50240Y131905D01*
X50776Y131276D01*
X51405Y130740D01*
X52109Y130308D01*
X52873Y129992D01*
X53676Y129799D01*
X54498Y129734D01*
Y50250D01*
X54254D01*
X53764Y50204D01*
X53281Y50112D01*
X52808Y49976D01*
X52350Y49796D01*
X51911Y49574D01*
X51828Y49519D01*
X51756Y49451D01*
X51695Y49373D01*
X51647Y49286D01*
X51613Y49193D01*
X51594Y49096D01*
X51591Y48997D01*
X51603Y48899D01*
X51630Y48804D01*
X51672Y48714D01*
X51728Y48632D01*
X51795Y48559D01*
X51873Y48498D01*
X51960Y48450D01*
X52053Y48416D01*
X52150Y48398D01*
X52249Y48394D01*
X52348Y48406D01*
X52443Y48434D01*
X52532Y48477D01*
X52864Y48650D01*
X53212Y48787D01*
X53572Y48891D01*
X53940Y48961D01*
X54313Y48996D01*
X54498D01*
Y41004D01*
X54313D01*
X53940Y41039D01*
X53572Y41109D01*
X53212Y41213D01*
X52864Y41350D01*
X52529Y41519D01*
X52441Y41562D01*
X52347Y41589D01*
X52249Y41602D01*
X52151Y41598D01*
X52054Y41579D01*
X51962Y41546D01*
X51876Y41498D01*
X51798Y41438D01*
X51731Y41366D01*
X51676Y41284D01*
X51634Y41195D01*
X51607Y41100D01*
X51595Y41003D01*
X51599Y40904D01*
X51617Y40808D01*
X51651Y40715D01*
X51699Y40629D01*
X51759Y40552D01*
X51831Y40485D01*
X51914Y40431D01*
X52350Y40204D01*
X52808Y40024D01*
X52868Y40007D01*
X52109Y39692D01*
X51405Y39260D01*
X50776Y38724D01*
X50240Y38095D01*
X50178Y37995D01*
Y42167D01*
X50214Y42147D01*
X50307Y42113D01*
X50404Y42094D01*
X50503Y42091D01*
X50601Y42103D01*
X50696Y42130D01*
X50786Y42172D01*
X50868Y42228D01*
X50941Y42295D01*
X51002Y42373D01*
X51050Y42460D01*
X51084Y42553D01*
X51102Y42650D01*
X51106Y42749D01*
X51094Y42848D01*
X51066Y42943D01*
X51023Y43032D01*
X50850Y43364D01*
X50713Y43712D01*
X50609Y44072D01*
X50539Y44440D01*
X50504Y44813D01*
Y45187D01*
X50539Y45560D01*
X50609Y45928D01*
X50713Y46288D01*
X50850Y46636D01*
X51019Y46971D01*
X51062Y47059D01*
X51089Y47153D01*
X51102Y47251D01*
X51098Y47349D01*
X51079Y47446D01*
X51046Y47538D01*
X50998Y47624D01*
X50938Y47702D01*
X50866Y47769D01*
X50784Y47824D01*
X50695Y47866D01*
X50600Y47893D01*
X50503Y47905D01*
X50404Y47901D01*
X50308Y47883D01*
X50215Y47849D01*
X50178Y47828D01*
Y132005D01*
G37*
G36*
Y163000D02*X54498D01*
Y150250D01*
X54254D01*
X53764Y150204D01*
X53281Y150112D01*
X52808Y149976D01*
X52350Y149796D01*
X51911Y149574D01*
X51828Y149519D01*
X51756Y149451D01*
X51695Y149373D01*
X51647Y149286D01*
X51613Y149193D01*
X51594Y149096D01*
X51591Y148997D01*
X51603Y148899D01*
X51630Y148804D01*
X51672Y148714D01*
X51728Y148632D01*
X51795Y148559D01*
X51873Y148498D01*
X51960Y148450D01*
X52053Y148416D01*
X52150Y148398D01*
X52249Y148394D01*
X52348Y148406D01*
X52443Y148434D01*
X52532Y148477D01*
X52864Y148650D01*
X53212Y148787D01*
X53572Y148891D01*
X53940Y148961D01*
X54313Y148996D01*
X54498D01*
Y141004D01*
X54313D01*
X53940Y141039D01*
X53572Y141109D01*
X53212Y141213D01*
X52864Y141350D01*
X52529Y141519D01*
X52441Y141562D01*
X52347Y141589D01*
X52249Y141602D01*
X52151Y141598D01*
X52054Y141579D01*
X51962Y141546D01*
X51876Y141498D01*
X51798Y141438D01*
X51731Y141366D01*
X51676Y141284D01*
X51634Y141195D01*
X51607Y141100D01*
X51595Y141003D01*
X51599Y140904D01*
X51617Y140808D01*
X51651Y140715D01*
X51699Y140629D01*
X51759Y140552D01*
X51831Y140485D01*
X51914Y140431D01*
X52350Y140204D01*
X52808Y140024D01*
X52868Y140007D01*
X52109Y139692D01*
X51405Y139260D01*
X50776Y138724D01*
X50240Y138095D01*
X50178Y137995D01*
Y142167D01*
X50214Y142147D01*
X50307Y142113D01*
X50404Y142094D01*
X50503Y142091D01*
X50601Y142103D01*
X50696Y142130D01*
X50786Y142172D01*
X50868Y142228D01*
X50941Y142295D01*
X51002Y142373D01*
X51050Y142460D01*
X51084Y142553D01*
X51102Y142650D01*
X51106Y142749D01*
X51094Y142848D01*
X51066Y142943D01*
X51023Y143032D01*
X50850Y143364D01*
X50713Y143712D01*
X50609Y144072D01*
X50539Y144440D01*
X50504Y144813D01*
Y145187D01*
X50539Y145560D01*
X50609Y145928D01*
X50713Y146288D01*
X50850Y146636D01*
X51019Y146971D01*
X51062Y147059D01*
X51089Y147153D01*
X51102Y147251D01*
X51098Y147349D01*
X51079Y147446D01*
X51046Y147538D01*
X50998Y147624D01*
X50938Y147702D01*
X50866Y147769D01*
X50784Y147824D01*
X50695Y147866D01*
X50600Y147893D01*
X50503Y147905D01*
X50404Y147901D01*
X50308Y147883D01*
X50215Y147849D01*
X50178Y147828D01*
Y163000D01*
G37*
G36*
X34486Y143716D02*X34500Y143715D01*
X36265Y143854D01*
X37987Y144268D01*
X39623Y144945D01*
X41133Y145870D01*
X42479Y147021D01*
X43630Y148367D01*
X44555Y149877D01*
X45232Y151513D01*
X45646Y153235D01*
X45750Y155000D01*
X45646Y156765D01*
X45232Y158487D01*
X44555Y160123D01*
X43630Y161633D01*
X42479Y162979D01*
X42455Y163000D01*
X50178D01*
Y147828D01*
X50129Y147801D01*
X50052Y147741D01*
X49985Y147669D01*
X49931Y147586D01*
X49704Y147150D01*
X49524Y146692D01*
X49388Y146219D01*
X49296Y145736D01*
X49250Y145246D01*
Y144754D01*
X49296Y144264D01*
X49388Y143781D01*
X49524Y143308D01*
X49704Y142850D01*
X49926Y142411D01*
X49981Y142328D01*
X50049Y142256D01*
X50127Y142195D01*
X50178Y142167D01*
Y137995D01*
X49808Y137391D01*
X49492Y136627D01*
X49299Y135824D01*
X49234Y135000D01*
X49299Y134176D01*
X49492Y133373D01*
X49808Y132609D01*
X50178Y132005D01*
Y47828D01*
X50129Y47801D01*
X50052Y47741D01*
X49985Y47669D01*
X49931Y47586D01*
X49704Y47150D01*
X49524Y46692D01*
X49388Y46219D01*
X49296Y45736D01*
X49250Y45246D01*
Y44754D01*
X49296Y44264D01*
X49388Y43781D01*
X49524Y43308D01*
X49704Y42850D01*
X49926Y42411D01*
X49981Y42328D01*
X50049Y42256D01*
X50127Y42195D01*
X50178Y42167D01*
Y37995D01*
X49808Y37391D01*
X49492Y36627D01*
X49299Y35824D01*
X49234Y35000D01*
X49299Y34176D01*
X49492Y33373D01*
X49808Y32609D01*
X50178Y32005D01*
Y7000D01*
X42455D01*
X42479Y7021D01*
X43630Y8367D01*
X44555Y9877D01*
X45232Y11513D01*
X45646Y13235D01*
X45750Y15000D01*
X45646Y16765D01*
X45232Y18487D01*
X44555Y20123D01*
X43630Y21633D01*
X42479Y22979D01*
X41133Y24130D01*
X39623Y25055D01*
X37987Y25732D01*
X36265Y26146D01*
X34500Y26285D01*
X34486Y26284D01*
Y45723D01*
X34500Y45721D01*
X35951Y45836D01*
X37367Y46176D01*
X38712Y46733D01*
X39954Y47494D01*
X41061Y48439D01*
X42006Y49546D01*
X42767Y50788D01*
X43324Y52133D01*
X43664Y53549D01*
X43750Y55000D01*
X43664Y56451D01*
X43324Y57867D01*
X42767Y59212D01*
X42006Y60454D01*
X41061Y61561D01*
X39954Y62506D01*
X38712Y63267D01*
X37367Y63824D01*
X35951Y64164D01*
X34500Y64279D01*
X34486Y64277D01*
Y105723D01*
X34500Y105721D01*
X35951Y105836D01*
X37367Y106176D01*
X38712Y106733D01*
X39954Y107494D01*
X41061Y108439D01*
X42006Y109546D01*
X42767Y110788D01*
X43324Y112133D01*
X43664Y113549D01*
X43750Y115000D01*
X43664Y116451D01*
X43324Y117867D01*
X42767Y119212D01*
X42006Y120454D01*
X41061Y121561D01*
X39954Y122506D01*
X38712Y123267D01*
X37367Y123824D01*
X35951Y124164D01*
X34500Y124279D01*
X34486Y124277D01*
Y143716D01*
G37*
G36*
X5500Y163000D02*X26545D01*
X26521Y162979D01*
X25370Y161633D01*
X24445Y160123D01*
X23768Y158487D01*
X23354Y156765D01*
X23215Y155000D01*
X23354Y153235D01*
X23768Y151513D01*
X24445Y149877D01*
X25370Y148367D01*
X26521Y147021D01*
X27867Y145870D01*
X29377Y144945D01*
X31013Y144268D01*
X32735Y143854D01*
X34486Y143716D01*
Y124277D01*
X33049Y124164D01*
X31633Y123824D01*
X30288Y123267D01*
X29046Y122506D01*
X27939Y121561D01*
X26994Y120454D01*
X26233Y119212D01*
X25676Y117867D01*
X25336Y116451D01*
X25221Y115000D01*
X25336Y113549D01*
X25676Y112133D01*
X26233Y110788D01*
X26994Y109546D01*
X27939Y108439D01*
X29046Y107494D01*
X30288Y106733D01*
X31633Y106176D01*
X33049Y105836D01*
X34486Y105723D01*
Y64277D01*
X33049Y64164D01*
X31633Y63824D01*
X30288Y63267D01*
X29046Y62506D01*
X27939Y61561D01*
X26994Y60454D01*
X26233Y59212D01*
X25676Y57867D01*
X25336Y56451D01*
X25221Y55000D01*
X25336Y53549D01*
X25676Y52133D01*
X26233Y50788D01*
X26994Y49546D01*
X27939Y48439D01*
X29046Y47494D01*
X30288Y46733D01*
X31633Y46176D01*
X33049Y45836D01*
X34486Y45723D01*
Y26284D01*
X32735Y26146D01*
X31013Y25732D01*
X29377Y25055D01*
X27867Y24130D01*
X26521Y22979D01*
X25370Y21633D01*
X24445Y20123D01*
X23768Y18487D01*
X23354Y16765D01*
X23215Y15000D01*
X23354Y13235D01*
X23768Y11513D01*
X24445Y9877D01*
X25370Y8367D01*
X26521Y7021D01*
X26545Y7000D01*
X5500D01*
Y163000D01*
G37*
G54D26*X80500Y40000D02*X96000D01*
X102000Y46000D01*
Y17000D01*
G54D27*X84000Y122957D02*Y118750D01*
Y122957D02*X86500Y125457D01*
X89000Y139250D02*Y135043D01*
X86500Y132543D01*
G54D26*X102000Y17000D02*X108500Y10500D01*
X196000D01*
X202500Y17000D01*
X176500Y96500D02*X184000Y104000D01*
X173500Y76500D02*Y51000D01*
X184000Y104000D02*X201000D01*
X163500Y96500D02*X176500D01*
X201000Y104000D02*X203500Y101500D01*
Y70500D01*
X199500Y66500D01*
X192500D01*
X202500Y17000D02*Y49000D01*
X196500Y55000D01*
G54D28*X34500D03*
G54D29*Y15000D03*
G54D30*X54500Y45000D03*
Y35000D03*
G54D29*X34500Y155000D03*
G54D28*Y115000D03*
G54D30*X54500Y145000D03*
Y135000D03*
G54D25*G36*
X159500Y100500D02*Y92500D01*
X167500D01*
Y100500D01*
X159500D01*
G37*
G54D30*X192500Y96500D03*
X163500Y86500D03*
X192500D03*
X163500Y76500D03*
X192500D03*
X163500Y66500D03*
Y56500D03*
G54D25*G36*
X188500Y70500D02*Y62500D01*
X196500D01*
Y70500D01*
X188500D01*
G37*
G54D31*X86107Y125457D02*X86893D01*
X86107Y132543D02*X86893D01*
G54D32*X84000Y118750D03*
G54D33*X94000Y107500D03*
X119500Y19000D03*
X120595Y38095D03*
X102000Y46000D03*
X150083Y116083D03*
X178083Y138917D03*
G54D32*X89000Y139250D03*
G54D33*X80500Y40000D03*
X196500Y55000D03*
X173500Y76500D03*
Y51000D03*
G54D27*G54D34*G54D27*G54D34*G54D35*G54D36*G54D35*G54D36*G54D26*M02*
