G04 start of page 3 for group 1 idx 1 *
G04 Title: (unknown), bottom *
G04 Creator: pcb 20140316 *
G04 CreationDate: Wed 22 Apr 2015 10:07:35 AM GMT UTC *
G04 For: fosse *
G04 Format: Gerber/RS-274X *
G04 PCB-Dimensions (mil): 2170.00 1700.00 *
G04 PCB-Coordinate-Origin: lower left *
%MOIN*%
%FSLAX25Y25*%
%LNBOTTOM*%
%ADD36C,0.0320*%
%ADD35C,0.0790*%
%ADD34C,0.0350*%
%ADD33C,0.0600*%
%ADD32C,0.0360*%
%ADD31R,0.0512X0.0512*%
%ADD30C,0.1600*%
%ADD29C,0.2000*%
%ADD28C,0.0800*%
%ADD27C,0.0200*%
%ADD26C,0.0400*%
%ADD25C,0.0001*%
G54D25*G36*
X171246Y31361D02*X171464Y31736D01*
X171657Y32165D01*
X171808Y32609D01*
X171918Y33066D01*
X171983Y33531D01*
X171998Y33833D01*
X172046Y33215D01*
X172230Y32450D01*
X172531Y31723D01*
X172942Y31052D01*
X173454Y30454D01*
X174052Y29942D01*
X174723Y29531D01*
X175450Y29230D01*
X176215Y29046D01*
X177000Y28985D01*
X177785Y29046D01*
X178550Y29230D01*
X179277Y29531D01*
X179948Y29942D01*
X180546Y30454D01*
X181058Y31052D01*
X181469Y31723D01*
X181770Y32450D01*
X181954Y33215D01*
X181993Y33888D01*
X182046Y33215D01*
X182230Y32450D01*
X182531Y31723D01*
X182942Y31052D01*
X183454Y30454D01*
X184000Y29987D01*
Y27243D01*
X171246Y14488D01*
Y31361D01*
G37*
G36*
X181367Y163000D02*X197500D01*
X207500Y153000D01*
Y15500D01*
X199000Y7000D01*
X181367D01*
Y16124D01*
X189038Y23796D01*
X189128Y23872D01*
X189434Y24231D01*
X189435Y24231D01*
X189681Y24634D01*
X189862Y25070D01*
X189972Y25529D01*
X190009Y26000D01*
X190000Y26118D01*
Y29987D01*
X190546Y30454D01*
X191058Y31052D01*
X191469Y31723D01*
X191770Y32450D01*
X191954Y33215D01*
X191993Y33888D01*
X192046Y33215D01*
X192230Y32450D01*
X192531Y31723D01*
X192942Y31052D01*
X193454Y30454D01*
X194052Y29942D01*
X194723Y29531D01*
X195450Y29230D01*
X196215Y29046D01*
X197000Y28985D01*
X197785Y29046D01*
X198550Y29230D01*
X199277Y29531D01*
X199948Y29942D01*
X200546Y30454D01*
X201058Y31052D01*
X201469Y31723D01*
X201770Y32450D01*
X201954Y33215D01*
X202000Y34000D01*
X201954Y34785D01*
X201770Y35550D01*
X201469Y36277D01*
X201058Y36948D01*
X200546Y37546D01*
X199948Y38058D01*
X199277Y38469D01*
X198550Y38770D01*
X197785Y38954D01*
X197000Y39015D01*
X196215Y38954D01*
X195450Y38770D01*
X194723Y38469D01*
X194052Y38058D01*
X193454Y37546D01*
X192942Y36948D01*
X192531Y36277D01*
X192230Y35550D01*
X192046Y34785D01*
X191993Y34112D01*
X191954Y34785D01*
X191770Y35550D01*
X191469Y36277D01*
X191058Y36948D01*
X190546Y37546D01*
X189948Y38058D01*
X189277Y38469D01*
X188550Y38770D01*
X187785Y38954D01*
X187000Y39015D01*
X186215Y38954D01*
X185450Y38770D01*
X184723Y38469D01*
X184052Y38058D01*
X183454Y37546D01*
X182942Y36948D01*
X182531Y36277D01*
X182230Y35550D01*
X182046Y34785D01*
X181993Y34112D01*
X181954Y34785D01*
X181770Y35550D01*
X181469Y36277D01*
X181367Y36443D01*
Y81557D01*
X181469Y81723D01*
X181770Y82450D01*
X181954Y83215D01*
X182000Y84000D01*
X181954Y84785D01*
X181770Y85550D01*
X181469Y86277D01*
X181367Y86443D01*
Y96500D01*
X182530D01*
X182849Y96228D01*
X183225Y95997D01*
X183632Y95829D01*
X184061Y95726D01*
X184500Y95691D01*
X184939Y95726D01*
X185368Y95829D01*
X185775Y95997D01*
X186151Y96228D01*
X186486Y96514D01*
X186772Y96849D01*
X187003Y97225D01*
X187171Y97632D01*
X187274Y98061D01*
X187300Y98500D01*
X187274Y98939D01*
X187171Y99368D01*
X187003Y99775D01*
X186772Y100151D01*
X186486Y100486D01*
X186151Y100772D01*
X185775Y101003D01*
X185368Y101171D01*
X184939Y101274D01*
X184500Y101309D01*
X184061Y101274D01*
X183632Y101171D01*
X183225Y101003D01*
X182849Y100772D01*
X182530Y100500D01*
X181367D01*
Y136786D01*
X181370Y136787D01*
X181438Y136826D01*
X181500Y136875D01*
X181552Y136934D01*
X181594Y137000D01*
X181757Y137325D01*
X181886Y137665D01*
X181984Y138015D01*
X182050Y138373D01*
X182083Y138735D01*
Y139099D01*
X182050Y139461D01*
X181984Y139819D01*
X181886Y140169D01*
X181757Y140509D01*
X181598Y140836D01*
X181555Y140902D01*
X181502Y140961D01*
X181440Y141011D01*
X181371Y141050D01*
X181367Y141052D01*
Y163000D01*
G37*
G36*
Y86443D02*X181058Y86948D01*
X180546Y87546D01*
X179948Y88058D01*
X179277Y88469D01*
X178550Y88770D01*
X178085Y88882D01*
Y96500D01*
X181367D01*
Y86443D01*
G37*
G36*
Y36443D02*X181058Y36948D01*
X180546Y37546D01*
X179948Y38058D01*
X179277Y38469D01*
X178550Y38770D01*
X178085Y38882D01*
Y79118D01*
X178550Y79230D01*
X179277Y79531D01*
X179948Y79942D01*
X180546Y80454D01*
X181058Y81052D01*
X181367Y81557D01*
Y36443D01*
G37*
G36*
Y7000D02*X178085D01*
Y12842D01*
X181367Y16124D01*
Y7000D01*
G37*
G36*
X178085Y163000D02*X181367D01*
Y141052D01*
X181297Y141078D01*
X181220Y141094D01*
X181141Y141098D01*
X181062Y141090D01*
X180986Y141069D01*
X180913Y141037D01*
X180847Y140994D01*
X180788Y140941D01*
X180739Y140879D01*
X180699Y140810D01*
X180671Y140736D01*
X180655Y140659D01*
X180651Y140580D01*
X180659Y140501D01*
X180680Y140424D01*
X180714Y140353D01*
X180836Y140110D01*
X180933Y139855D01*
X181006Y139593D01*
X181055Y139325D01*
X181080Y139053D01*
Y138781D01*
X181055Y138509D01*
X181006Y138241D01*
X180933Y137979D01*
X180836Y137724D01*
X180716Y137480D01*
X180683Y137408D01*
X180662Y137332D01*
X180654Y137254D01*
X180658Y137176D01*
X180674Y137099D01*
X180702Y137025D01*
X180741Y136957D01*
X180791Y136896D01*
X180849Y136843D01*
X180915Y136800D01*
X180987Y136768D01*
X181063Y136747D01*
X181141Y136739D01*
X181219Y136743D01*
X181296Y136759D01*
X181367Y136786D01*
Y100500D01*
X178085D01*
Y134917D01*
X178265D01*
X178627Y134950D01*
X178985Y135016D01*
X179335Y135114D01*
X179675Y135243D01*
X180002Y135402D01*
X180068Y135445D01*
X180127Y135498D01*
X180177Y135560D01*
X180216Y135629D01*
X180244Y135703D01*
X180261Y135780D01*
X180265Y135859D01*
X180256Y135938D01*
X180235Y136014D01*
X180203Y136087D01*
X180160Y136153D01*
X180107Y136212D01*
X180045Y136261D01*
X179976Y136301D01*
X179902Y136329D01*
X179825Y136345D01*
X179746Y136349D01*
X179667Y136341D01*
X179591Y136320D01*
X179519Y136287D01*
X179276Y136164D01*
X179021Y136067D01*
X178759Y135994D01*
X178491Y135945D01*
X178219Y135920D01*
X178085D01*
Y141914D01*
X178219D01*
X178491Y141889D01*
X178759Y141840D01*
X179021Y141767D01*
X179276Y141670D01*
X179521Y141550D01*
X179592Y141517D01*
X179668Y141496D01*
X179746Y141488D01*
X179824Y141492D01*
X179901Y141508D01*
X179975Y141536D01*
X180043Y141575D01*
X180104Y141624D01*
X180157Y141683D01*
X180200Y141749D01*
X180232Y141821D01*
X180253Y141897D01*
X180261Y141975D01*
X180257Y142053D01*
X180241Y142130D01*
X180213Y142204D01*
X180174Y142272D01*
X180125Y142333D01*
X180066Y142386D01*
X180000Y142428D01*
X179675Y142591D01*
X179335Y142720D01*
X178985Y142818D01*
X178627Y142884D01*
X178265Y142917D01*
X178085D01*
Y163000D01*
G37*
G36*
Y88882D02*X177785Y88954D01*
X177000Y89015D01*
X176215Y88954D01*
X175450Y88770D01*
X174723Y88469D01*
X174052Y88058D01*
X173454Y87546D01*
X172942Y86948D01*
X172531Y86277D01*
X172230Y85550D01*
X172046Y84785D01*
X171993Y84112D01*
X171954Y84785D01*
X171770Y85550D01*
X171469Y86277D01*
X171246Y86641D01*
Y96500D01*
X178085D01*
Y88882D01*
G37*
G36*
Y38882D02*X177785Y38954D01*
X177000Y39015D01*
X176215Y38954D01*
X175450Y38770D01*
X174723Y38469D01*
X174052Y38058D01*
X173454Y37546D01*
X172942Y36948D01*
X172531Y36277D01*
X172230Y35550D01*
X172046Y34785D01*
X171998Y34167D01*
X171983Y34469D01*
X171918Y34934D01*
X171808Y35391D01*
X171657Y35835D01*
X171464Y36264D01*
X171246Y36649D01*
Y81359D01*
X171469Y81723D01*
X171770Y82450D01*
X171954Y83215D01*
X171993Y83888D01*
X172046Y83215D01*
X172230Y82450D01*
X172531Y81723D01*
X172942Y81052D01*
X173454Y80454D01*
X174052Y79942D01*
X174723Y79531D01*
X175450Y79230D01*
X176215Y79046D01*
X177000Y78985D01*
X177785Y79046D01*
X178085Y79118D01*
Y38882D01*
G37*
G36*
Y7000D02*X171246D01*
Y7500D01*
X171382D01*
X171500Y7491D01*
X171971Y7528D01*
X171971Y7528D01*
X172430Y7638D01*
X172866Y7819D01*
X173269Y8065D01*
X173628Y8372D01*
X173704Y8462D01*
X178085Y12842D01*
Y7000D01*
G37*
G36*
X174799Y163000D02*X178085D01*
Y142917D01*
X177901D01*
X177539Y142884D01*
X177181Y142818D01*
X176831Y142720D01*
X176491Y142591D01*
X176164Y142432D01*
X176098Y142389D01*
X176039Y142336D01*
X175990Y142274D01*
X175950Y142205D01*
X175922Y142131D01*
X175906Y142054D01*
X175902Y141975D01*
X175910Y141896D01*
X175931Y141820D01*
X175963Y141747D01*
X176006Y141681D01*
X176060Y141622D01*
X176121Y141573D01*
X176190Y141533D01*
X176264Y141505D01*
X176341Y141489D01*
X176420Y141485D01*
X176499Y141493D01*
X176576Y141514D01*
X176647Y141547D01*
X176890Y141670D01*
X177145Y141767D01*
X177408Y141840D01*
X177676Y141889D01*
X177947Y141914D01*
X178085D01*
Y135920D01*
X177947D01*
X177676Y135945D01*
X177408Y135994D01*
X177145Y136067D01*
X176890Y136164D01*
X176646Y136284D01*
X176575Y136317D01*
X176499Y136338D01*
X176420Y136346D01*
X176342Y136342D01*
X176265Y136326D01*
X176191Y136298D01*
X176123Y136259D01*
X176062Y136210D01*
X176009Y136151D01*
X175966Y136085D01*
X175934Y136013D01*
X175913Y135937D01*
X175905Y135859D01*
X175909Y135781D01*
X175925Y135704D01*
X175953Y135630D01*
X175992Y135562D01*
X176041Y135501D01*
X176100Y135448D01*
X176166Y135406D01*
X176491Y135243D01*
X176831Y135114D01*
X177181Y135016D01*
X177539Y134950D01*
X177901Y134917D01*
X178085D01*
Y100500D01*
X174799D01*
Y136782D01*
X174869Y136756D01*
X174946Y136740D01*
X175025Y136736D01*
X175104Y136744D01*
X175181Y136765D01*
X175253Y136797D01*
X175319Y136840D01*
X175378Y136893D01*
X175428Y136955D01*
X175467Y137024D01*
X175495Y137098D01*
X175511Y137175D01*
X175515Y137254D01*
X175507Y137333D01*
X175486Y137410D01*
X175453Y137481D01*
X175330Y137724D01*
X175233Y137979D01*
X175160Y138241D01*
X175111Y138509D01*
X175086Y138781D01*
Y139053D01*
X175111Y139325D01*
X175160Y139593D01*
X175233Y139855D01*
X175330Y140110D01*
X175450Y140354D01*
X175483Y140426D01*
X175504Y140502D01*
X175512Y140580D01*
X175508Y140658D01*
X175492Y140735D01*
X175464Y140809D01*
X175425Y140877D01*
X175376Y140938D01*
X175317Y140991D01*
X175251Y141034D01*
X175179Y141066D01*
X175104Y141087D01*
X175025Y141095D01*
X174947Y141091D01*
X174870Y141075D01*
X174799Y141048D01*
Y163000D01*
G37*
G36*
X171246D02*X174799D01*
Y141048D01*
X174796Y141047D01*
X174728Y141008D01*
X174667Y140959D01*
X174614Y140900D01*
X174572Y140834D01*
X174409Y140509D01*
X174280Y140169D01*
X174182Y139819D01*
X174116Y139461D01*
X174083Y139099D01*
Y138735D01*
X174116Y138373D01*
X174182Y138015D01*
X174280Y137665D01*
X174409Y137325D01*
X174569Y136998D01*
X174611Y136932D01*
X174664Y136873D01*
X174726Y136823D01*
X174795Y136784D01*
X174799Y136782D01*
Y100500D01*
X171246D01*
Y163000D01*
G37*
G36*
Y7000D02*X86500D01*
Y23500D01*
X98500D01*
Y38257D01*
X99000Y38757D01*
Y17118D01*
X98991Y17000D01*
X99028Y16529D01*
X99138Y16070D01*
X99319Y15634D01*
X99565Y15231D01*
X99566Y15231D01*
X99872Y14872D01*
X99962Y14796D01*
X106296Y8462D01*
X106372Y8372D01*
X106731Y8066D01*
X106731Y8065D01*
X107134Y7819D01*
X107570Y7638D01*
X108029Y7528D01*
X108500Y7491D01*
X108618Y7500D01*
X171246D01*
Y7000D01*
G37*
G36*
X167002Y78985D02*X167785Y79046D01*
X168550Y79230D01*
X169277Y79531D01*
X169948Y79942D01*
X170546Y80454D01*
X171058Y81052D01*
X171246Y81359D01*
Y36649D01*
X171232Y36672D01*
X171185Y36736D01*
X171128Y36792D01*
X171064Y36837D01*
X170992Y36872D01*
X170917Y36896D01*
X170838Y36907D01*
X170759Y36906D01*
X170680Y36893D01*
X170605Y36867D01*
X170535Y36830D01*
X170471Y36783D01*
X170416Y36726D01*
X170370Y36661D01*
X170335Y36590D01*
X170312Y36514D01*
X170300Y36435D01*
X170301Y36356D01*
X170315Y36278D01*
X170340Y36203D01*
X170379Y36133D01*
X170568Y35809D01*
X170721Y35467D01*
X170842Y35112D01*
X170930Y34746D01*
X170982Y34375D01*
X171000Y34000D01*
X170982Y33625D01*
X170930Y33254D01*
X170842Y32888D01*
X170721Y32533D01*
X170568Y32191D01*
X170382Y31865D01*
X170344Y31796D01*
X170319Y31721D01*
X170306Y31644D01*
X170305Y31565D01*
X170316Y31487D01*
X170339Y31412D01*
X170374Y31341D01*
X170419Y31277D01*
X170474Y31221D01*
X170537Y31173D01*
X170607Y31137D01*
X170681Y31112D01*
X170759Y31098D01*
X170838Y31097D01*
X170916Y31108D01*
X170991Y31132D01*
X171061Y31166D01*
X171126Y31212D01*
X171182Y31267D01*
X171228Y31331D01*
X171246Y31361D01*
Y14488D01*
X170257Y13500D01*
X167002D01*
Y28995D01*
X167469Y29017D01*
X167934Y29082D01*
X168391Y29192D01*
X168835Y29343D01*
X169264Y29536D01*
X169672Y29768D01*
X169736Y29815D01*
X169792Y29872D01*
X169837Y29936D01*
X169872Y30008D01*
X169896Y30083D01*
X169907Y30162D01*
X169906Y30241D01*
X169893Y30320D01*
X169867Y30395D01*
X169830Y30465D01*
X169783Y30529D01*
X169726Y30584D01*
X169661Y30630D01*
X169590Y30665D01*
X169514Y30688D01*
X169435Y30700D01*
X169356Y30699D01*
X169278Y30685D01*
X169203Y30660D01*
X169133Y30621D01*
X168809Y30432D01*
X168467Y30279D01*
X168112Y30158D01*
X167746Y30070D01*
X167375Y30018D01*
X167002Y30000D01*
Y38000D01*
X167375Y37982D01*
X167746Y37930D01*
X168112Y37842D01*
X168467Y37721D01*
X168809Y37568D01*
X169135Y37382D01*
X169204Y37344D01*
X169279Y37319D01*
X169356Y37306D01*
X169435Y37305D01*
X169513Y37316D01*
X169588Y37339D01*
X169659Y37374D01*
X169723Y37419D01*
X169779Y37474D01*
X169827Y37537D01*
X169863Y37607D01*
X169888Y37681D01*
X169902Y37759D01*
X169903Y37838D01*
X169892Y37916D01*
X169868Y37991D01*
X169834Y38061D01*
X169788Y38126D01*
X169733Y38182D01*
X169669Y38228D01*
X169264Y38464D01*
X168835Y38657D01*
X168391Y38808D01*
X167934Y38918D01*
X167469Y38983D01*
X167002Y39005D01*
Y78985D01*
G37*
G36*
Y96500D02*X171246D01*
Y86641D01*
X171058Y86948D01*
X170546Y87546D01*
X169948Y88058D01*
X169277Y88469D01*
X168550Y88770D01*
X167785Y88954D01*
X167002Y89015D01*
Y96500D01*
G37*
G36*
Y163000D02*X171246D01*
Y100500D01*
X167002D01*
Y163000D01*
G37*
G36*
X157002Y95883D02*X157132Y95829D01*
X157561Y95726D01*
X158000Y95691D01*
X158439Y95726D01*
X158868Y95829D01*
X159275Y95997D01*
X159651Y96228D01*
X159970Y96500D01*
X167002D01*
Y89015D01*
X167000Y89015D01*
X166215Y88954D01*
X165450Y88770D01*
X164723Y88469D01*
X164052Y88058D01*
X163454Y87546D01*
X162942Y86948D01*
X162531Y86277D01*
X162230Y85550D01*
X162046Y84785D01*
X161998Y84167D01*
X161983Y84469D01*
X161918Y84934D01*
X161808Y85391D01*
X161657Y85835D01*
X161464Y86264D01*
X161232Y86672D01*
X161185Y86736D01*
X161128Y86792D01*
X161064Y86837D01*
X160992Y86872D01*
X160917Y86896D01*
X160838Y86907D01*
X160759Y86906D01*
X160680Y86893D01*
X160605Y86867D01*
X160535Y86830D01*
X160471Y86783D01*
X160416Y86726D01*
X160370Y86661D01*
X160335Y86590D01*
X160312Y86514D01*
X160300Y86435D01*
X160301Y86356D01*
X160315Y86278D01*
X160340Y86203D01*
X160379Y86133D01*
X160568Y85809D01*
X160721Y85467D01*
X160842Y85112D01*
X160930Y84746D01*
X160982Y84375D01*
X161000Y84000D01*
X160982Y83625D01*
X160930Y83254D01*
X160842Y82888D01*
X160721Y82533D01*
X160568Y82191D01*
X160382Y81865D01*
X160344Y81796D01*
X160319Y81721D01*
X160306Y81644D01*
X160305Y81565D01*
X160316Y81487D01*
X160339Y81412D01*
X160374Y81341D01*
X160419Y81277D01*
X160474Y81221D01*
X160537Y81173D01*
X160607Y81137D01*
X160681Y81112D01*
X160759Y81098D01*
X160838Y81097D01*
X160916Y81108D01*
X160991Y81132D01*
X161061Y81166D01*
X161126Y81212D01*
X161182Y81267D01*
X161228Y81331D01*
X161464Y81736D01*
X161657Y82165D01*
X161808Y82609D01*
X161918Y83066D01*
X161983Y83531D01*
X161998Y83833D01*
X162046Y83215D01*
X162230Y82450D01*
X162531Y81723D01*
X162942Y81052D01*
X163454Y80454D01*
X164052Y79942D01*
X164723Y79531D01*
X165450Y79230D01*
X166215Y79046D01*
X167000Y78985D01*
X167002Y78985D01*
Y39005D01*
X167000Y39006D01*
X166531Y38983D01*
X166066Y38918D01*
X165609Y38808D01*
X165165Y38657D01*
X164736Y38464D01*
X164328Y38232D01*
X164264Y38185D01*
X164208Y38128D01*
X164163Y38064D01*
X164128Y37992D01*
X164104Y37917D01*
X164093Y37838D01*
X164094Y37759D01*
X164107Y37680D01*
X164133Y37605D01*
X164170Y37535D01*
X164217Y37471D01*
X164274Y37416D01*
X164339Y37370D01*
X164410Y37335D01*
X164486Y37312D01*
X164565Y37300D01*
X164644Y37301D01*
X164722Y37315D01*
X164797Y37340D01*
X164867Y37379D01*
X165191Y37568D01*
X165533Y37721D01*
X165888Y37842D01*
X166254Y37930D01*
X166625Y37982D01*
X167000Y38000D01*
X167002Y38000D01*
Y30000D01*
X167000Y30000D01*
X166625Y30018D01*
X166254Y30070D01*
X165888Y30158D01*
X165533Y30279D01*
X165191Y30432D01*
X164864Y30618D01*
X164796Y30656D01*
X164721Y30681D01*
X164644Y30694D01*
X164565Y30695D01*
X164487Y30684D01*
X164412Y30661D01*
X164341Y30626D01*
X164277Y30581D01*
X164221Y30526D01*
X164173Y30463D01*
X164137Y30393D01*
X164112Y30319D01*
X164098Y30241D01*
X164097Y30162D01*
X164108Y30084D01*
X164132Y30009D01*
X164166Y29939D01*
X164212Y29874D01*
X164267Y29818D01*
X164331Y29772D01*
X164736Y29536D01*
X165165Y29343D01*
X165609Y29192D01*
X166066Y29082D01*
X166531Y29017D01*
X167000Y28994D01*
X167002Y28995D01*
Y13500D01*
X157002D01*
Y29005D01*
X161157Y29009D01*
X161310Y29046D01*
X161455Y29106D01*
X161590Y29188D01*
X161709Y29291D01*
X161812Y29410D01*
X161894Y29545D01*
X161954Y29690D01*
X161991Y29843D01*
X162000Y30000D01*
X161995Y33979D01*
X162017Y33531D01*
X162082Y33066D01*
X162192Y32609D01*
X162343Y32165D01*
X162536Y31736D01*
X162768Y31328D01*
X162815Y31264D01*
X162872Y31208D01*
X162936Y31163D01*
X163008Y31128D01*
X163083Y31104D01*
X163162Y31093D01*
X163241Y31094D01*
X163320Y31107D01*
X163395Y31133D01*
X163465Y31170D01*
X163529Y31217D01*
X163584Y31274D01*
X163630Y31339D01*
X163665Y31410D01*
X163688Y31486D01*
X163700Y31565D01*
X163699Y31644D01*
X163685Y31722D01*
X163660Y31797D01*
X163621Y31867D01*
X163432Y32191D01*
X163279Y32533D01*
X163158Y32888D01*
X163070Y33254D01*
X163018Y33625D01*
X163000Y34000D01*
X163018Y34375D01*
X163070Y34746D01*
X163158Y35112D01*
X163279Y35467D01*
X163432Y35809D01*
X163618Y36136D01*
X163656Y36204D01*
X163681Y36279D01*
X163694Y36356D01*
X163695Y36435D01*
X163684Y36513D01*
X163661Y36588D01*
X163626Y36659D01*
X163581Y36723D01*
X163526Y36779D01*
X163463Y36827D01*
X163393Y36863D01*
X163319Y36888D01*
X163241Y36902D01*
X163162Y36903D01*
X163084Y36892D01*
X163009Y36868D01*
X162939Y36834D01*
X162874Y36788D01*
X162818Y36733D01*
X162772Y36669D01*
X162536Y36264D01*
X162343Y35835D01*
X162192Y35391D01*
X162082Y34934D01*
X162017Y34469D01*
X161995Y34020D01*
X161991Y38157D01*
X161954Y38310D01*
X161894Y38455D01*
X161812Y38590D01*
X161709Y38709D01*
X161590Y38812D01*
X161455Y38894D01*
X161310Y38954D01*
X161157Y38991D01*
X161000Y39000D01*
X157002Y38995D01*
Y78995D01*
X157469Y79017D01*
X157934Y79082D01*
X158391Y79192D01*
X158835Y79343D01*
X159264Y79536D01*
X159672Y79768D01*
X159736Y79815D01*
X159792Y79872D01*
X159837Y79936D01*
X159872Y80008D01*
X159896Y80083D01*
X159907Y80162D01*
X159906Y80241D01*
X159893Y80320D01*
X159867Y80395D01*
X159830Y80465D01*
X159783Y80529D01*
X159726Y80584D01*
X159661Y80630D01*
X159590Y80665D01*
X159514Y80688D01*
X159435Y80700D01*
X159356Y80699D01*
X159278Y80685D01*
X159203Y80660D01*
X159133Y80621D01*
X158809Y80432D01*
X158467Y80279D01*
X158112Y80158D01*
X157746Y80070D01*
X157375Y80018D01*
X157002Y80000D01*
Y88000D01*
X157375Y87982D01*
X157746Y87930D01*
X158112Y87842D01*
X158467Y87721D01*
X158809Y87568D01*
X159135Y87382D01*
X159204Y87344D01*
X159279Y87319D01*
X159356Y87306D01*
X159435Y87305D01*
X159513Y87316D01*
X159588Y87339D01*
X159659Y87374D01*
X159723Y87419D01*
X159779Y87474D01*
X159827Y87537D01*
X159863Y87607D01*
X159888Y87681D01*
X159902Y87759D01*
X159903Y87838D01*
X159892Y87916D01*
X159868Y87991D01*
X159834Y88061D01*
X159788Y88126D01*
X159733Y88182D01*
X159669Y88228D01*
X159264Y88464D01*
X158835Y88657D01*
X158391Y88808D01*
X157934Y88918D01*
X157469Y88983D01*
X157002Y89005D01*
Y95883D01*
G37*
G36*
Y163000D02*X167002D01*
Y100500D01*
X159970D01*
X159651Y100772D01*
X159275Y101003D01*
X158868Y101171D01*
X158439Y101274D01*
X158000Y101309D01*
X157561Y101274D01*
X157132Y101171D01*
X157002Y101117D01*
Y163000D01*
G37*
G36*
Y13500D02*X153367D01*
Y29000D01*
X157002Y29005D01*
Y13500D01*
G37*
G36*
X153367Y163000D02*X157002D01*
Y101117D01*
X156725Y101003D01*
X156349Y100772D01*
X156014Y100486D01*
X155728Y100151D01*
X155497Y99775D01*
X155329Y99368D01*
X155226Y98939D01*
X155191Y98500D01*
X155226Y98061D01*
X155329Y97632D01*
X155497Y97225D01*
X155728Y96849D01*
X156014Y96514D01*
X156349Y96228D01*
X156725Y95997D01*
X157002Y95883D01*
Y89005D01*
X157000Y89006D01*
X156531Y88983D01*
X156066Y88918D01*
X155609Y88808D01*
X155165Y88657D01*
X154736Y88464D01*
X154328Y88232D01*
X154264Y88185D01*
X154208Y88128D01*
X154163Y88064D01*
X154128Y87992D01*
X154104Y87917D01*
X154093Y87838D01*
X154094Y87759D01*
X154107Y87680D01*
X154133Y87605D01*
X154170Y87535D01*
X154217Y87471D01*
X154274Y87416D01*
X154339Y87370D01*
X154410Y87335D01*
X154486Y87312D01*
X154565Y87300D01*
X154644Y87301D01*
X154722Y87315D01*
X154797Y87340D01*
X154867Y87379D01*
X155191Y87568D01*
X155533Y87721D01*
X155888Y87842D01*
X156254Y87930D01*
X156625Y87982D01*
X157000Y88000D01*
X157002Y88000D01*
Y80000D01*
X157000Y80000D01*
X156625Y80018D01*
X156254Y80070D01*
X155888Y80158D01*
X155533Y80279D01*
X155191Y80432D01*
X154864Y80618D01*
X154796Y80656D01*
X154721Y80681D01*
X154644Y80694D01*
X154565Y80695D01*
X154487Y80684D01*
X154412Y80661D01*
X154341Y80626D01*
X154277Y80581D01*
X154221Y80526D01*
X154173Y80463D01*
X154137Y80393D01*
X154112Y80319D01*
X154098Y80241D01*
X154097Y80162D01*
X154108Y80084D01*
X154132Y80009D01*
X154166Y79939D01*
X154212Y79874D01*
X154267Y79818D01*
X154331Y79772D01*
X154736Y79536D01*
X155165Y79343D01*
X155609Y79192D01*
X156066Y79082D01*
X156531Y79017D01*
X157000Y78994D01*
X157002Y78995D01*
Y38995D01*
X153367Y38991D01*
Y81123D01*
X153395Y81133D01*
X153465Y81170D01*
X153529Y81217D01*
X153584Y81274D01*
X153630Y81339D01*
X153665Y81410D01*
X153688Y81486D01*
X153700Y81565D01*
X153699Y81644D01*
X153685Y81722D01*
X153660Y81797D01*
X153621Y81867D01*
X153432Y82191D01*
X153367Y82337D01*
Y85663D01*
X153432Y85809D01*
X153618Y86136D01*
X153656Y86204D01*
X153681Y86279D01*
X153694Y86356D01*
X153695Y86435D01*
X153684Y86513D01*
X153661Y86588D01*
X153626Y86659D01*
X153581Y86723D01*
X153526Y86779D01*
X153463Y86827D01*
X153393Y86863D01*
X153367Y86872D01*
Y113952D01*
X153370Y113953D01*
X153438Y113992D01*
X153500Y114041D01*
X153552Y114100D01*
X153594Y114166D01*
X153757Y114491D01*
X153886Y114831D01*
X153984Y115181D01*
X154050Y115539D01*
X154083Y115901D01*
Y116265D01*
X154050Y116627D01*
X153984Y116985D01*
X153886Y117335D01*
X153757Y117675D01*
X153598Y118002D01*
X153555Y118068D01*
X153502Y118127D01*
X153440Y118177D01*
X153371Y118216D01*
X153367Y118218D01*
Y163000D01*
G37*
G36*
Y82337D02*X153279Y82533D01*
X153158Y82888D01*
X153070Y83254D01*
X153018Y83625D01*
X153000Y84000D01*
X153018Y84375D01*
X153070Y84746D01*
X153158Y85112D01*
X153279Y85467D01*
X153367Y85663D01*
Y82337D01*
G37*
G36*
Y13500D02*X150085D01*
Y79008D01*
X151157Y79009D01*
X151310Y79046D01*
X151455Y79106D01*
X151590Y79188D01*
X151709Y79291D01*
X151812Y79410D01*
X151894Y79545D01*
X151954Y79690D01*
X151991Y79843D01*
X152000Y80000D01*
X151995Y83979D01*
X152017Y83531D01*
X152082Y83066D01*
X152192Y82609D01*
X152343Y82165D01*
X152536Y81736D01*
X152768Y81328D01*
X152815Y81264D01*
X152872Y81208D01*
X152936Y81163D01*
X153008Y81128D01*
X153083Y81104D01*
X153162Y81093D01*
X153241Y81094D01*
X153320Y81107D01*
X153367Y81123D01*
Y38991D01*
X152843Y38991D01*
X152690Y38954D01*
X152545Y38894D01*
X152410Y38812D01*
X152291Y38709D01*
X152188Y38590D01*
X152106Y38455D01*
X152046Y38310D01*
X152009Y38157D01*
X152000Y38000D01*
X152009Y29843D01*
X152046Y29690D01*
X152106Y29545D01*
X152188Y29410D01*
X152291Y29291D01*
X152410Y29188D01*
X152545Y29106D01*
X152690Y29046D01*
X152843Y29009D01*
X153000Y29000D01*
X153367Y29000D01*
Y13500D01*
G37*
G36*
X150085Y163000D02*X153367D01*
Y118218D01*
X153297Y118244D01*
X153220Y118260D01*
X153141Y118264D01*
X153062Y118256D01*
X152986Y118235D01*
X152913Y118203D01*
X152847Y118160D01*
X152788Y118107D01*
X152739Y118045D01*
X152699Y117976D01*
X152671Y117902D01*
X152655Y117825D01*
X152651Y117746D01*
X152659Y117667D01*
X152680Y117590D01*
X152714Y117519D01*
X152836Y117276D01*
X152933Y117021D01*
X153006Y116759D01*
X153055Y116491D01*
X153080Y116219D01*
Y115947D01*
X153055Y115675D01*
X153006Y115407D01*
X152933Y115145D01*
X152836Y114890D01*
X152716Y114646D01*
X152683Y114574D01*
X152662Y114498D01*
X152654Y114420D01*
X152658Y114342D01*
X152674Y114265D01*
X152702Y114191D01*
X152741Y114123D01*
X152791Y114062D01*
X152849Y114009D01*
X152915Y113966D01*
X152987Y113934D01*
X153063Y113913D01*
X153141Y113905D01*
X153219Y113909D01*
X153296Y113925D01*
X153367Y113952D01*
Y86872D01*
X153319Y86888D01*
X153241Y86902D01*
X153162Y86903D01*
X153084Y86892D01*
X153009Y86868D01*
X152939Y86834D01*
X152874Y86788D01*
X152818Y86733D01*
X152772Y86669D01*
X152536Y86264D01*
X152343Y85835D01*
X152192Y85391D01*
X152082Y84934D01*
X152017Y84469D01*
X151995Y84020D01*
X151991Y88157D01*
X151954Y88310D01*
X151894Y88455D01*
X151812Y88590D01*
X151709Y88709D01*
X151590Y88812D01*
X151455Y88894D01*
X151310Y88954D01*
X151157Y88991D01*
X151000Y89000D01*
X150085Y88999D01*
Y112083D01*
X150265D01*
X150627Y112116D01*
X150985Y112182D01*
X151335Y112280D01*
X151675Y112409D01*
X152002Y112568D01*
X152068Y112611D01*
X152127Y112664D01*
X152177Y112726D01*
X152216Y112795D01*
X152244Y112869D01*
X152261Y112946D01*
X152265Y113025D01*
X152256Y113104D01*
X152235Y113180D01*
X152203Y113253D01*
X152160Y113319D01*
X152107Y113378D01*
X152045Y113427D01*
X151976Y113467D01*
X151902Y113495D01*
X151825Y113511D01*
X151746Y113515D01*
X151667Y113507D01*
X151591Y113486D01*
X151519Y113453D01*
X151276Y113330D01*
X151021Y113233D01*
X150759Y113160D01*
X150491Y113111D01*
X150219Y113086D01*
X150085D01*
Y119080D01*
X150219D01*
X150491Y119055D01*
X150759Y119006D01*
X151021Y118933D01*
X151276Y118836D01*
X151521Y118716D01*
X151592Y118683D01*
X151668Y118662D01*
X151746Y118654D01*
X151824Y118658D01*
X151901Y118674D01*
X151975Y118702D01*
X152043Y118741D01*
X152104Y118790D01*
X152157Y118849D01*
X152200Y118915D01*
X152232Y118987D01*
X152253Y119063D01*
X152261Y119141D01*
X152257Y119219D01*
X152241Y119296D01*
X152213Y119370D01*
X152174Y119438D01*
X152125Y119499D01*
X152066Y119552D01*
X152000Y119594D01*
X151675Y119757D01*
X151335Y119886D01*
X150985Y119984D01*
X150627Y120050D01*
X150265Y120083D01*
X150085D01*
Y163000D01*
G37*
G36*
X146799Y79004D02*X150085Y79008D01*
Y13500D01*
X146799D01*
Y79004D01*
G37*
G36*
Y163000D02*X150085D01*
Y120083D01*
X149901D01*
X149539Y120050D01*
X149181Y119984D01*
X148831Y119886D01*
X148491Y119757D01*
X148164Y119598D01*
X148098Y119555D01*
X148039Y119502D01*
X147990Y119440D01*
X147950Y119371D01*
X147922Y119297D01*
X147906Y119220D01*
X147902Y119141D01*
X147910Y119062D01*
X147931Y118986D01*
X147963Y118913D01*
X148006Y118847D01*
X148060Y118788D01*
X148121Y118739D01*
X148190Y118699D01*
X148264Y118671D01*
X148341Y118655D01*
X148420Y118651D01*
X148499Y118659D01*
X148576Y118680D01*
X148647Y118713D01*
X148890Y118836D01*
X149145Y118933D01*
X149408Y119006D01*
X149676Y119055D01*
X149947Y119080D01*
X150085D01*
Y113086D01*
X149947D01*
X149676Y113111D01*
X149408Y113160D01*
X149145Y113233D01*
X148890Y113330D01*
X148646Y113450D01*
X148575Y113483D01*
X148499Y113504D01*
X148420Y113512D01*
X148342Y113508D01*
X148265Y113492D01*
X148191Y113464D01*
X148123Y113425D01*
X148062Y113376D01*
X148009Y113317D01*
X147966Y113251D01*
X147934Y113179D01*
X147913Y113103D01*
X147905Y113025D01*
X147909Y112947D01*
X147925Y112870D01*
X147953Y112796D01*
X147992Y112728D01*
X148041Y112667D01*
X148100Y112614D01*
X148166Y112572D01*
X148491Y112409D01*
X148831Y112280D01*
X149181Y112182D01*
X149539Y112116D01*
X149901Y112083D01*
X150085D01*
Y88999D01*
X146799Y88995D01*
Y113948D01*
X146869Y113922D01*
X146946Y113906D01*
X147025Y113902D01*
X147104Y113910D01*
X147181Y113931D01*
X147253Y113963D01*
X147319Y114006D01*
X147378Y114059D01*
X147428Y114121D01*
X147467Y114190D01*
X147495Y114264D01*
X147511Y114341D01*
X147515Y114420D01*
X147507Y114499D01*
X147486Y114576D01*
X147453Y114647D01*
X147330Y114890D01*
X147233Y115145D01*
X147160Y115407D01*
X147111Y115675D01*
X147086Y115947D01*
Y116219D01*
X147111Y116491D01*
X147160Y116759D01*
X147233Y117021D01*
X147330Y117276D01*
X147450Y117520D01*
X147483Y117592D01*
X147504Y117668D01*
X147512Y117746D01*
X147508Y117824D01*
X147492Y117901D01*
X147464Y117975D01*
X147425Y118043D01*
X147376Y118104D01*
X147317Y118157D01*
X147251Y118200D01*
X147179Y118232D01*
X147104Y118253D01*
X147025Y118261D01*
X146947Y118257D01*
X146870Y118241D01*
X146799Y118214D01*
Y163000D01*
G37*
G36*
X123879D02*X146799D01*
Y118214D01*
X146796Y118213D01*
X146728Y118174D01*
X146667Y118125D01*
X146614Y118066D01*
X146572Y118000D01*
X146409Y117675D01*
X146280Y117335D01*
X146182Y116985D01*
X146116Y116627D01*
X146083Y116265D01*
Y115901D01*
X146116Y115539D01*
X146182Y115181D01*
X146280Y114831D01*
X146409Y114491D01*
X146569Y114164D01*
X146611Y114098D01*
X146664Y114039D01*
X146726Y113989D01*
X146795Y113950D01*
X146799Y113948D01*
Y88995D01*
X142843Y88991D01*
X142690Y88954D01*
X142545Y88894D01*
X142410Y88812D01*
X142291Y88709D01*
X142188Y88590D01*
X142106Y88455D01*
X142046Y88310D01*
X142009Y88157D01*
X142000Y88000D01*
X142009Y79843D01*
X142046Y79690D01*
X142106Y79545D01*
X142188Y79410D01*
X142291Y79291D01*
X142410Y79188D01*
X142545Y79106D01*
X142690Y79046D01*
X142843Y79009D01*
X143000Y79000D01*
X146799Y79004D01*
Y13500D01*
X123879D01*
Y35964D01*
X123882Y35965D01*
X123950Y36004D01*
X124011Y36053D01*
X124064Y36112D01*
X124106Y36178D01*
X124269Y36503D01*
X124398Y36843D01*
X124496Y37193D01*
X124562Y37551D01*
X124595Y37913D01*
Y38277D01*
X124562Y38639D01*
X124496Y38997D01*
X124398Y39347D01*
X124269Y39687D01*
X124109Y40013D01*
X124067Y40080D01*
X124013Y40139D01*
X123952Y40188D01*
X123883Y40228D01*
X123879Y40230D01*
Y163000D01*
G37*
G36*
X122784D02*X123879D01*
Y40230D01*
X123809Y40256D01*
X123732Y40272D01*
X123653Y40276D01*
X123574Y40268D01*
X123497Y40247D01*
X123425Y40215D01*
X123359Y40172D01*
X123300Y40118D01*
X123250Y40057D01*
X123211Y39988D01*
X123183Y39914D01*
X123166Y39837D01*
X123163Y39758D01*
X123171Y39679D01*
X123192Y39602D01*
X123225Y39531D01*
X123348Y39288D01*
X123444Y39033D01*
X123518Y38770D01*
X123567Y38502D01*
X123592Y38231D01*
Y37959D01*
X123567Y37687D01*
X123518Y37419D01*
X123444Y37157D01*
X123348Y36902D01*
X123228Y36657D01*
X123195Y36586D01*
X123174Y36510D01*
X123166Y36432D01*
X123170Y36354D01*
X123186Y36277D01*
X123214Y36203D01*
X123253Y36135D01*
X123302Y36073D01*
X123361Y36021D01*
X123427Y35978D01*
X123498Y35945D01*
X123574Y35925D01*
X123653Y35917D01*
X123731Y35920D01*
X123808Y35937D01*
X123879Y35964D01*
Y13500D01*
X122784D01*
Y16869D01*
X122787Y16870D01*
X122855Y16909D01*
X122916Y16958D01*
X122969Y17017D01*
X123011Y17083D01*
X123174Y17408D01*
X123303Y17748D01*
X123401Y18098D01*
X123467Y18456D01*
X123500Y18818D01*
Y19182D01*
X123467Y19544D01*
X123401Y19902D01*
X123303Y20252D01*
X123174Y20592D01*
X123015Y20919D01*
X122972Y20985D01*
X122919Y21044D01*
X122857Y21094D01*
X122788Y21133D01*
X122784Y21135D01*
Y163000D01*
G37*
G36*
X119502D02*X122784D01*
Y21135D01*
X122714Y21161D01*
X122637Y21177D01*
X122558Y21181D01*
X122479Y21173D01*
X122403Y21152D01*
X122330Y21120D01*
X122264Y21077D01*
X122205Y21024D01*
X122156Y20962D01*
X122116Y20893D01*
X122088Y20819D01*
X122072Y20742D01*
X122068Y20663D01*
X122076Y20584D01*
X122097Y20507D01*
X122130Y20436D01*
X122253Y20193D01*
X122350Y19938D01*
X122423Y19676D01*
X122472Y19408D01*
X122497Y19136D01*
Y18864D01*
X122472Y18592D01*
X122423Y18324D01*
X122350Y18062D01*
X122253Y17807D01*
X122133Y17563D01*
X122100Y17491D01*
X122079Y17416D01*
X122071Y17337D01*
X122075Y17259D01*
X122091Y17182D01*
X122119Y17108D01*
X122158Y17040D01*
X122207Y16979D01*
X122266Y16926D01*
X122332Y16883D01*
X122404Y16851D01*
X122480Y16830D01*
X122558Y16822D01*
X122636Y16826D01*
X122713Y16842D01*
X122784Y16869D01*
Y13500D01*
X119502D01*
Y15000D01*
X119682D01*
X120044Y15033D01*
X120402Y15099D01*
X120752Y15197D01*
X121092Y15326D01*
X121419Y15485D01*
X121485Y15528D01*
X121544Y15581D01*
X121594Y15643D01*
X121633Y15712D01*
X121661Y15786D01*
X121677Y15863D01*
X121681Y15942D01*
X121673Y16021D01*
X121652Y16097D01*
X121620Y16170D01*
X121577Y16236D01*
X121524Y16295D01*
X121462Y16344D01*
X121393Y16384D01*
X121319Y16412D01*
X121242Y16428D01*
X121163Y16432D01*
X121084Y16424D01*
X121007Y16403D01*
X120936Y16370D01*
X120693Y16247D01*
X120438Y16150D01*
X120176Y16077D01*
X119908Y16028D01*
X119636Y16003D01*
X119502D01*
Y21997D01*
X119636D01*
X119908Y21972D01*
X120176Y21923D01*
X120438Y21850D01*
X120693Y21753D01*
X120937Y21633D01*
X121009Y21600D01*
X121084Y21579D01*
X121163Y21571D01*
X121241Y21575D01*
X121318Y21591D01*
X121392Y21619D01*
X121460Y21658D01*
X121521Y21707D01*
X121574Y21766D01*
X121617Y21832D01*
X121649Y21904D01*
X121670Y21980D01*
X121678Y22058D01*
X121674Y22136D01*
X121658Y22213D01*
X121630Y22287D01*
X121591Y22355D01*
X121542Y22416D01*
X121483Y22469D01*
X121417Y22511D01*
X121092Y22674D01*
X120752Y22803D01*
X120402Y22901D01*
X120044Y22967D01*
X119682Y23000D01*
X119502D01*
Y34247D01*
X119693Y34194D01*
X120051Y34128D01*
X120413Y34095D01*
X120777D01*
X121139Y34128D01*
X121497Y34194D01*
X121847Y34291D01*
X122187Y34421D01*
X122513Y34580D01*
X122580Y34623D01*
X122639Y34676D01*
X122688Y34738D01*
X122728Y34807D01*
X122756Y34881D01*
X122772Y34958D01*
X122776Y35037D01*
X122768Y35116D01*
X122747Y35192D01*
X122715Y35265D01*
X122672Y35331D01*
X122618Y35390D01*
X122557Y35439D01*
X122488Y35479D01*
X122414Y35507D01*
X122337Y35523D01*
X122258Y35527D01*
X122179Y35519D01*
X122102Y35498D01*
X122031Y35464D01*
X121787Y35342D01*
X121533Y35245D01*
X121270Y35172D01*
X121002Y35123D01*
X120731Y35098D01*
X120459D01*
X120187Y35123D01*
X119919Y35172D01*
X119657Y35245D01*
X119502Y35304D01*
Y40885D01*
X119657Y40944D01*
X119919Y41018D01*
X120187Y41067D01*
X120459Y41092D01*
X120731D01*
X121002Y41067D01*
X121270Y41018D01*
X121533Y40944D01*
X121787Y40848D01*
X122032Y40728D01*
X122103Y40695D01*
X122179Y40674D01*
X122258Y40666D01*
X122336Y40670D01*
X122413Y40686D01*
X122487Y40714D01*
X122555Y40753D01*
X122616Y40802D01*
X122669Y40861D01*
X122712Y40927D01*
X122744Y40998D01*
X122765Y41074D01*
X122773Y41153D01*
X122769Y41231D01*
X122753Y41308D01*
X122725Y41382D01*
X122686Y41450D01*
X122636Y41511D01*
X122578Y41564D01*
X122511Y41606D01*
X122187Y41769D01*
X121847Y41898D01*
X121497Y41996D01*
X121139Y42062D01*
X120777Y42095D01*
X120413D01*
X120051Y42062D01*
X119693Y41996D01*
X119502Y41943D01*
Y163000D01*
G37*
G36*
X117311D02*X119502D01*
Y41943D01*
X119343Y41898D01*
X119003Y41769D01*
X118676Y41609D01*
X118610Y41567D01*
X118551Y41514D01*
X118501Y41452D01*
X118462Y41383D01*
X118434Y41309D01*
X118417Y41232D01*
X118413Y41153D01*
X118422Y41074D01*
X118443Y40997D01*
X118475Y40925D01*
X118518Y40859D01*
X118571Y40800D01*
X118633Y40750D01*
X118702Y40711D01*
X118776Y40683D01*
X118853Y40666D01*
X118932Y40663D01*
X119011Y40671D01*
X119087Y40692D01*
X119159Y40725D01*
X119402Y40848D01*
X119502Y40885D01*
Y35304D01*
X119402Y35342D01*
X119157Y35462D01*
X119086Y35495D01*
X119010Y35516D01*
X118932Y35524D01*
X118854Y35520D01*
X118777Y35504D01*
X118703Y35476D01*
X118635Y35437D01*
X118573Y35387D01*
X118521Y35329D01*
X118478Y35263D01*
X118445Y35191D01*
X118425Y35115D01*
X118417Y35037D01*
X118420Y34958D01*
X118437Y34881D01*
X118465Y34808D01*
X118504Y34740D01*
X118553Y34678D01*
X118612Y34626D01*
X118678Y34584D01*
X119003Y34421D01*
X119343Y34291D01*
X119502Y34247D01*
Y23000D01*
X119318D01*
X118956Y22967D01*
X118598Y22901D01*
X118248Y22803D01*
X117908Y22674D01*
X117581Y22515D01*
X117515Y22472D01*
X117456Y22419D01*
X117406Y22357D01*
X117367Y22288D01*
X117339Y22214D01*
X117323Y22137D01*
X117319Y22058D01*
X117327Y21979D01*
X117348Y21903D01*
X117380Y21830D01*
X117423Y21764D01*
X117476Y21705D01*
X117538Y21656D01*
X117607Y21616D01*
X117681Y21588D01*
X117758Y21572D01*
X117837Y21568D01*
X117916Y21576D01*
X117993Y21597D01*
X118064Y21630D01*
X118307Y21753D01*
X118562Y21850D01*
X118824Y21923D01*
X119092Y21972D01*
X119364Y21997D01*
X119502D01*
Y16003D01*
X119364D01*
X119092Y16028D01*
X118824Y16077D01*
X118562Y16150D01*
X118307Y16247D01*
X118063Y16367D01*
X117991Y16400D01*
X117915Y16421D01*
X117837Y16429D01*
X117759Y16425D01*
X117682Y16409D01*
X117608Y16381D01*
X117540Y16342D01*
X117479Y16293D01*
X117426Y16234D01*
X117383Y16168D01*
X117351Y16096D01*
X117330Y16020D01*
X117322Y15942D01*
X117326Y15864D01*
X117342Y15787D01*
X117370Y15713D01*
X117409Y15645D01*
X117458Y15584D01*
X117517Y15531D01*
X117583Y15489D01*
X117908Y15326D01*
X118248Y15197D01*
X118598Y15099D01*
X118956Y15033D01*
X119318Y15000D01*
X119502D01*
Y13500D01*
X117311D01*
Y35960D01*
X117381Y35934D01*
X117458Y35917D01*
X117537Y35913D01*
X117616Y35922D01*
X117692Y35943D01*
X117765Y35975D01*
X117831Y36018D01*
X117890Y36071D01*
X117939Y36133D01*
X117979Y36202D01*
X118007Y36276D01*
X118023Y36353D01*
X118027Y36432D01*
X118019Y36511D01*
X117998Y36587D01*
X117964Y36659D01*
X117842Y36902D01*
X117745Y37157D01*
X117672Y37419D01*
X117623Y37687D01*
X117598Y37959D01*
Y38231D01*
X117623Y38502D01*
X117672Y38770D01*
X117745Y39033D01*
X117842Y39288D01*
X117962Y39532D01*
X117995Y39603D01*
X118016Y39679D01*
X118024Y39758D01*
X118020Y39836D01*
X118004Y39913D01*
X117976Y39987D01*
X117937Y40055D01*
X117887Y40116D01*
X117829Y40169D01*
X117763Y40212D01*
X117691Y40244D01*
X117615Y40265D01*
X117537Y40273D01*
X117458Y40269D01*
X117381Y40253D01*
X117311Y40226D01*
Y163000D01*
G37*
G36*
X116216D02*X117311D01*
Y40226D01*
X117308Y40225D01*
X117240Y40186D01*
X117178Y40136D01*
X117126Y40078D01*
X117084Y40011D01*
X116921Y39687D01*
X116791Y39347D01*
X116694Y38997D01*
X116628Y38639D01*
X116595Y38277D01*
Y37913D01*
X116628Y37551D01*
X116694Y37193D01*
X116791Y36843D01*
X116921Y36503D01*
X117080Y36176D01*
X117123Y36110D01*
X117176Y36051D01*
X117238Y36001D01*
X117307Y35962D01*
X117311Y35960D01*
Y13500D01*
X116216D01*
Y16865D01*
X116286Y16839D01*
X116363Y16823D01*
X116442Y16819D01*
X116521Y16827D01*
X116597Y16848D01*
X116670Y16880D01*
X116736Y16923D01*
X116795Y16976D01*
X116844Y17038D01*
X116884Y17107D01*
X116912Y17181D01*
X116928Y17258D01*
X116932Y17337D01*
X116924Y17416D01*
X116903Y17493D01*
X116870Y17564D01*
X116747Y17807D01*
X116650Y18062D01*
X116577Y18324D01*
X116528Y18592D01*
X116503Y18864D01*
Y19136D01*
X116528Y19408D01*
X116577Y19676D01*
X116650Y19938D01*
X116747Y20193D01*
X116867Y20437D01*
X116900Y20509D01*
X116921Y20585D01*
X116929Y20663D01*
X116925Y20741D01*
X116909Y20818D01*
X116881Y20892D01*
X116842Y20960D01*
X116793Y21021D01*
X116734Y21074D01*
X116668Y21117D01*
X116596Y21149D01*
X116520Y21170D01*
X116442Y21178D01*
X116364Y21174D01*
X116287Y21158D01*
X116216Y21131D01*
Y163000D01*
G37*
G36*
X97284D02*X116216D01*
Y21131D01*
X116213Y21130D01*
X116145Y21091D01*
X116084Y21042D01*
X116031Y20983D01*
X115989Y20917D01*
X115826Y20592D01*
X115697Y20252D01*
X115599Y19902D01*
X115533Y19544D01*
X115500Y19182D01*
Y18818D01*
X115533Y18456D01*
X115599Y18098D01*
X115697Y17748D01*
X115826Y17408D01*
X115985Y17081D01*
X116028Y17015D01*
X116081Y16956D01*
X116143Y16906D01*
X116212Y16867D01*
X116216Y16865D01*
Y13500D01*
X109743D01*
X105000Y18243D01*
Y43354D01*
X105246Y43642D01*
X105575Y44178D01*
X105816Y44760D01*
X105963Y45372D01*
X106000Y46000D01*
X105963Y46628D01*
X105816Y47240D01*
X105575Y47822D01*
X105246Y48358D01*
X104837Y48837D01*
X104358Y49246D01*
X103822Y49575D01*
X103240Y49816D01*
X102628Y49963D01*
X102000Y50012D01*
X101372Y49963D01*
X100760Y49816D01*
X100178Y49575D01*
X99642Y49246D01*
X99163Y48837D01*
X98754Y48358D01*
X98500Y47944D01*
Y56500D01*
X97284D01*
Y105369D01*
X97287Y105370D01*
X97355Y105409D01*
X97416Y105458D01*
X97469Y105517D01*
X97511Y105583D01*
X97674Y105908D01*
X97803Y106248D01*
X97901Y106598D01*
X97967Y106956D01*
X98000Y107318D01*
Y107682D01*
X97967Y108044D01*
X97901Y108402D01*
X97803Y108752D01*
X97674Y109092D01*
X97515Y109419D01*
X97472Y109485D01*
X97419Y109544D01*
X97357Y109594D01*
X97288Y109633D01*
X97284Y109635D01*
Y163000D01*
G37*
G36*
X94002D02*X97284D01*
Y109635D01*
X97214Y109661D01*
X97137Y109677D01*
X97058Y109681D01*
X96979Y109673D01*
X96903Y109652D01*
X96830Y109620D01*
X96764Y109577D01*
X96705Y109524D01*
X96656Y109462D01*
X96616Y109393D01*
X96588Y109319D01*
X96572Y109242D01*
X96568Y109163D01*
X96576Y109084D01*
X96597Y109007D01*
X96630Y108936D01*
X96753Y108693D01*
X96850Y108438D01*
X96923Y108176D01*
X96972Y107908D01*
X96997Y107636D01*
Y107364D01*
X96972Y107092D01*
X96923Y106824D01*
X96850Y106562D01*
X96753Y106307D01*
X96633Y106063D01*
X96600Y105991D01*
X96579Y105916D01*
X96571Y105837D01*
X96575Y105759D01*
X96591Y105682D01*
X96619Y105608D01*
X96658Y105540D01*
X96707Y105479D01*
X96766Y105426D01*
X96832Y105383D01*
X96904Y105351D01*
X96980Y105330D01*
X97058Y105322D01*
X97136Y105326D01*
X97213Y105342D01*
X97284Y105369D01*
Y56500D01*
X94002D01*
Y103500D01*
X94182D01*
X94544Y103533D01*
X94902Y103599D01*
X95252Y103697D01*
X95592Y103826D01*
X95919Y103985D01*
X95985Y104028D01*
X96044Y104081D01*
X96094Y104143D01*
X96133Y104212D01*
X96161Y104286D01*
X96177Y104363D01*
X96181Y104442D01*
X96173Y104521D01*
X96152Y104597D01*
X96120Y104670D01*
X96077Y104736D01*
X96024Y104795D01*
X95962Y104844D01*
X95893Y104884D01*
X95819Y104912D01*
X95742Y104928D01*
X95663Y104932D01*
X95584Y104924D01*
X95507Y104903D01*
X95436Y104870D01*
X95193Y104747D01*
X94938Y104650D01*
X94676Y104577D01*
X94408Y104528D01*
X94136Y104503D01*
X94002D01*
Y110497D01*
X94136D01*
X94408Y110472D01*
X94676Y110423D01*
X94938Y110350D01*
X95193Y110253D01*
X95437Y110133D01*
X95509Y110100D01*
X95584Y110079D01*
X95663Y110071D01*
X95741Y110075D01*
X95818Y110091D01*
X95892Y110119D01*
X95960Y110158D01*
X96021Y110207D01*
X96074Y110266D01*
X96117Y110332D01*
X96149Y110404D01*
X96170Y110480D01*
X96178Y110558D01*
X96174Y110636D01*
X96158Y110713D01*
X96130Y110787D01*
X96091Y110855D01*
X96042Y110916D01*
X95983Y110969D01*
X95917Y111011D01*
X95592Y111174D01*
X95252Y111303D01*
X94902Y111401D01*
X94544Y111467D01*
X94182Y111500D01*
X94002D01*
Y112500D01*
X97000D01*
Y145500D01*
X94002D01*
Y163000D01*
G37*
G36*
Y56500D02*X90716D01*
Y105365D01*
X90786Y105339D01*
X90863Y105323D01*
X90942Y105319D01*
X91021Y105327D01*
X91097Y105348D01*
X91170Y105380D01*
X91236Y105423D01*
X91295Y105476D01*
X91344Y105538D01*
X91384Y105607D01*
X91412Y105681D01*
X91428Y105758D01*
X91432Y105837D01*
X91424Y105916D01*
X91403Y105993D01*
X91370Y106064D01*
X91247Y106307D01*
X91150Y106562D01*
X91077Y106824D01*
X91028Y107092D01*
X91003Y107364D01*
Y107636D01*
X91028Y107908D01*
X91077Y108176D01*
X91150Y108438D01*
X91247Y108693D01*
X91367Y108937D01*
X91400Y109009D01*
X91421Y109085D01*
X91429Y109163D01*
X91425Y109241D01*
X91409Y109318D01*
X91381Y109392D01*
X91342Y109460D01*
X91293Y109521D01*
X91234Y109574D01*
X91168Y109617D01*
X91096Y109649D01*
X91020Y109670D01*
X90942Y109678D01*
X90864Y109674D01*
X90787Y109658D01*
X90716Y109631D01*
Y112500D01*
X94002D01*
Y111500D01*
X93818D01*
X93456Y111467D01*
X93098Y111401D01*
X92748Y111303D01*
X92408Y111174D01*
X92081Y111015D01*
X92015Y110972D01*
X91956Y110919D01*
X91906Y110857D01*
X91867Y110788D01*
X91839Y110714D01*
X91823Y110637D01*
X91819Y110558D01*
X91827Y110479D01*
X91848Y110403D01*
X91880Y110330D01*
X91923Y110264D01*
X91976Y110205D01*
X92038Y110156D01*
X92107Y110116D01*
X92181Y110088D01*
X92258Y110072D01*
X92337Y110068D01*
X92416Y110076D01*
X92493Y110097D01*
X92564Y110130D01*
X92807Y110253D01*
X93062Y110350D01*
X93324Y110423D01*
X93592Y110472D01*
X93864Y110497D01*
X94002D01*
Y104503D01*
X93864D01*
X93592Y104528D01*
X93324Y104577D01*
X93062Y104650D01*
X92807Y104747D01*
X92563Y104867D01*
X92491Y104900D01*
X92415Y104921D01*
X92337Y104929D01*
X92259Y104925D01*
X92182Y104909D01*
X92108Y104881D01*
X92040Y104842D01*
X91979Y104793D01*
X91926Y104734D01*
X91883Y104668D01*
X91851Y104596D01*
X91830Y104520D01*
X91822Y104442D01*
X91826Y104364D01*
X91842Y104287D01*
X91870Y104213D01*
X91909Y104145D01*
X91958Y104084D01*
X92017Y104031D01*
X92083Y103989D01*
X92408Y103826D01*
X92748Y103697D01*
X93098Y103599D01*
X93456Y103533D01*
X93818Y103500D01*
X94002D01*
Y56500D01*
G37*
G36*
X90716D02*X86500D01*
Y112500D01*
X90716D01*
Y109631D01*
X90713Y109630D01*
X90645Y109591D01*
X90584Y109542D01*
X90531Y109483D01*
X90489Y109417D01*
X90326Y109092D01*
X90197Y108752D01*
X90099Y108402D01*
X90033Y108044D01*
X90000Y107682D01*
Y107318D01*
X90033Y106956D01*
X90099Y106598D01*
X90197Y106248D01*
X90326Y105908D01*
X90485Y105581D01*
X90528Y105515D01*
X90581Y105456D01*
X90643Y105406D01*
X90712Y105367D01*
X90716Y105365D01*
Y56500D01*
G37*
G36*
X86500Y163000D02*X94002D01*
Y145500D01*
X86500D01*
Y163000D01*
G37*
G36*
X67284D02*X86500D01*
Y145500D01*
X76000D01*
Y112500D01*
X86500D01*
Y56500D01*
X77500D01*
Y42646D01*
X77254Y42358D01*
X76925Y41822D01*
X76684Y41240D01*
X76537Y40628D01*
X76488Y40000D01*
X76537Y39372D01*
X76684Y38760D01*
X76925Y38178D01*
X77254Y37642D01*
X77500Y37354D01*
Y23500D01*
X86500D01*
Y7000D01*
X67284D01*
Y141369D01*
X67287Y141370D01*
X67355Y141409D01*
X67416Y141458D01*
X67469Y141517D01*
X67511Y141583D01*
X67674Y141908D01*
X67803Y142248D01*
X67901Y142598D01*
X67967Y142956D01*
X68000Y143318D01*
Y143682D01*
X67967Y144044D01*
X67901Y144402D01*
X67803Y144752D01*
X67674Y145092D01*
X67515Y145419D01*
X67472Y145485D01*
X67419Y145544D01*
X67357Y145594D01*
X67288Y145633D01*
X67284Y145635D01*
Y163000D01*
G37*
G36*
X64002D02*X67284D01*
Y145635D01*
X67214Y145661D01*
X67137Y145677D01*
X67058Y145681D01*
X66979Y145673D01*
X66903Y145652D01*
X66830Y145620D01*
X66764Y145577D01*
X66705Y145524D01*
X66656Y145462D01*
X66616Y145393D01*
X66588Y145319D01*
X66572Y145242D01*
X66568Y145163D01*
X66576Y145084D01*
X66597Y145007D01*
X66630Y144936D01*
X66753Y144693D01*
X66850Y144438D01*
X66923Y144176D01*
X66972Y143908D01*
X66997Y143636D01*
Y143364D01*
X66972Y143092D01*
X66923Y142824D01*
X66850Y142562D01*
X66753Y142307D01*
X66633Y142063D01*
X66600Y141991D01*
X66579Y141916D01*
X66571Y141837D01*
X66575Y141759D01*
X66591Y141682D01*
X66619Y141608D01*
X66658Y141540D01*
X66707Y141479D01*
X66766Y141426D01*
X66832Y141383D01*
X66904Y141351D01*
X66980Y141330D01*
X67058Y141322D01*
X67136Y141326D01*
X67213Y141342D01*
X67284Y141369D01*
Y7000D01*
X64002D01*
Y139500D01*
X64182D01*
X64544Y139533D01*
X64902Y139599D01*
X65252Y139697D01*
X65592Y139826D01*
X65919Y139985D01*
X65985Y140028D01*
X66044Y140081D01*
X66094Y140143D01*
X66133Y140212D01*
X66161Y140286D01*
X66177Y140363D01*
X66181Y140442D01*
X66173Y140521D01*
X66152Y140597D01*
X66120Y140670D01*
X66077Y140736D01*
X66024Y140795D01*
X65962Y140844D01*
X65893Y140884D01*
X65819Y140912D01*
X65742Y140928D01*
X65663Y140932D01*
X65584Y140924D01*
X65507Y140903D01*
X65436Y140870D01*
X65193Y140747D01*
X64938Y140650D01*
X64676Y140577D01*
X64408Y140528D01*
X64136Y140503D01*
X64002D01*
Y146497D01*
X64136D01*
X64408Y146472D01*
X64676Y146423D01*
X64938Y146350D01*
X65193Y146253D01*
X65437Y146133D01*
X65509Y146100D01*
X65584Y146079D01*
X65663Y146071D01*
X65741Y146075D01*
X65818Y146091D01*
X65892Y146119D01*
X65960Y146158D01*
X66021Y146207D01*
X66074Y146266D01*
X66117Y146332D01*
X66149Y146404D01*
X66170Y146480D01*
X66178Y146558D01*
X66174Y146636D01*
X66158Y146713D01*
X66130Y146787D01*
X66091Y146855D01*
X66042Y146916D01*
X65983Y146969D01*
X65917Y147011D01*
X65592Y147174D01*
X65252Y147303D01*
X64902Y147401D01*
X64544Y147467D01*
X64182Y147500D01*
X64002D01*
Y163000D01*
G37*
G36*
X60716D02*X64002D01*
Y147500D01*
X63818D01*
X63456Y147467D01*
X63098Y147401D01*
X62748Y147303D01*
X62408Y147174D01*
X62081Y147015D01*
X62015Y146972D01*
X61956Y146919D01*
X61906Y146857D01*
X61867Y146788D01*
X61839Y146714D01*
X61823Y146637D01*
X61819Y146558D01*
X61827Y146479D01*
X61848Y146403D01*
X61880Y146330D01*
X61923Y146264D01*
X61976Y146205D01*
X62038Y146156D01*
X62107Y146116D01*
X62181Y146088D01*
X62258Y146072D01*
X62337Y146068D01*
X62416Y146076D01*
X62493Y146097D01*
X62564Y146130D01*
X62807Y146253D01*
X63062Y146350D01*
X63324Y146423D01*
X63592Y146472D01*
X63864Y146497D01*
X64002D01*
Y140503D01*
X63864D01*
X63592Y140528D01*
X63324Y140577D01*
X63062Y140650D01*
X62807Y140747D01*
X62563Y140867D01*
X62491Y140900D01*
X62415Y140921D01*
X62337Y140929D01*
X62259Y140925D01*
X62182Y140909D01*
X62108Y140881D01*
X62040Y140842D01*
X61979Y140793D01*
X61926Y140734D01*
X61883Y140668D01*
X61851Y140596D01*
X61830Y140520D01*
X61822Y140442D01*
X61826Y140364D01*
X61842Y140287D01*
X61870Y140213D01*
X61909Y140145D01*
X61958Y140084D01*
X62017Y140031D01*
X62083Y139989D01*
X62408Y139826D01*
X62748Y139697D01*
X63098Y139599D01*
X63456Y139533D01*
X63818Y139500D01*
X64002D01*
Y7000D01*
X60716D01*
Y141365D01*
X60786Y141339D01*
X60863Y141323D01*
X60942Y141319D01*
X61021Y141327D01*
X61097Y141348D01*
X61170Y141380D01*
X61236Y141423D01*
X61295Y141476D01*
X61344Y141538D01*
X61384Y141607D01*
X61412Y141681D01*
X61428Y141758D01*
X61432Y141837D01*
X61424Y141916D01*
X61403Y141993D01*
X61370Y142064D01*
X61247Y142307D01*
X61150Y142562D01*
X61077Y142824D01*
X61028Y143092D01*
X61003Y143364D01*
Y143636D01*
X61028Y143908D01*
X61077Y144176D01*
X61150Y144438D01*
X61247Y144693D01*
X61367Y144937D01*
X61400Y145009D01*
X61421Y145085D01*
X61429Y145163D01*
X61425Y145241D01*
X61409Y145318D01*
X61381Y145392D01*
X61342Y145460D01*
X61293Y145521D01*
X61234Y145574D01*
X61168Y145617D01*
X61096Y145649D01*
X61020Y145670D01*
X60942Y145678D01*
X60864Y145674D01*
X60787Y145658D01*
X60716Y145631D01*
Y163000D01*
G37*
G36*
X58822D02*X60716D01*
Y145631D01*
X60713Y145630D01*
X60645Y145591D01*
X60584Y145542D01*
X60531Y145483D01*
X60489Y145417D01*
X60326Y145092D01*
X60197Y144752D01*
X60099Y144402D01*
X60033Y144044D01*
X60000Y143682D01*
Y143318D01*
X60033Y142956D01*
X60099Y142598D01*
X60197Y142248D01*
X60326Y141908D01*
X60485Y141581D01*
X60528Y141515D01*
X60581Y141456D01*
X60643Y141406D01*
X60712Y141367D01*
X60716Y141365D01*
Y7000D01*
X58822D01*
Y22172D01*
X58871Y22199D01*
X58948Y22259D01*
X59015Y22331D01*
X59069Y22414D01*
X59296Y22850D01*
X59476Y23308D01*
X59612Y23781D01*
X59704Y24264D01*
X59750Y24754D01*
Y25246D01*
X59704Y25736D01*
X59612Y26219D01*
X59476Y26692D01*
X59296Y27150D01*
X59074Y27589D01*
X59019Y27672D01*
X58951Y27744D01*
X58873Y27805D01*
X58822Y27833D01*
Y32005D01*
X59192Y32609D01*
X59508Y33373D01*
X59701Y34176D01*
X59750Y35000D01*
X59701Y35824D01*
X59508Y36627D01*
X59192Y37391D01*
X58822Y37995D01*
Y122172D01*
X58871Y122199D01*
X58948Y122259D01*
X59015Y122331D01*
X59069Y122414D01*
X59296Y122850D01*
X59476Y123308D01*
X59612Y123781D01*
X59704Y124264D01*
X59750Y124754D01*
Y125246D01*
X59704Y125736D01*
X59612Y126219D01*
X59476Y126692D01*
X59296Y127150D01*
X59074Y127589D01*
X59019Y127672D01*
X58951Y127744D01*
X58873Y127805D01*
X58822Y127833D01*
Y132005D01*
X59192Y132609D01*
X59508Y133373D01*
X59701Y134176D01*
X59750Y135000D01*
X59701Y135824D01*
X59508Y136627D01*
X59192Y137391D01*
X58822Y137995D01*
Y163000D01*
G37*
G36*
Y37995D02*X58760Y38095D01*
X58224Y38724D01*
X57595Y39260D01*
X56891Y39692D01*
X56127Y40008D01*
X55324Y40201D01*
X54502Y40266D01*
Y119750D01*
X54746D01*
X55236Y119796D01*
X55719Y119888D01*
X56192Y120024D01*
X56650Y120204D01*
X57089Y120426D01*
X57172Y120481D01*
X57244Y120549D01*
X57305Y120627D01*
X57353Y120714D01*
X57387Y120807D01*
X57406Y120904D01*
X57409Y121003D01*
X57397Y121101D01*
X57370Y121196D01*
X57328Y121286D01*
X57272Y121368D01*
X57205Y121441D01*
X57127Y121502D01*
X57040Y121550D01*
X56947Y121584D01*
X56850Y121602D01*
X56751Y121606D01*
X56652Y121594D01*
X56557Y121566D01*
X56468Y121523D01*
X56136Y121350D01*
X55788Y121213D01*
X55428Y121109D01*
X55060Y121039D01*
X54687Y121004D01*
X54502D01*
Y128996D01*
X54687D01*
X55060Y128961D01*
X55428Y128891D01*
X55788Y128787D01*
X56136Y128650D01*
X56471Y128481D01*
X56559Y128438D01*
X56653Y128411D01*
X56751Y128398D01*
X56849Y128402D01*
X56946Y128421D01*
X57038Y128454D01*
X57124Y128502D01*
X57202Y128562D01*
X57269Y128634D01*
X57324Y128716D01*
X57366Y128805D01*
X57393Y128900D01*
X57405Y128997D01*
X57401Y129096D01*
X57383Y129192D01*
X57349Y129285D01*
X57301Y129371D01*
X57241Y129448D01*
X57169Y129515D01*
X57086Y129569D01*
X56650Y129796D01*
X56192Y129976D01*
X56132Y129993D01*
X56891Y130308D01*
X57595Y130740D01*
X58224Y131276D01*
X58760Y131905D01*
X58822Y132005D01*
Y127833D01*
X58786Y127853D01*
X58693Y127887D01*
X58596Y127906D01*
X58497Y127909D01*
X58399Y127897D01*
X58304Y127870D01*
X58214Y127828D01*
X58132Y127772D01*
X58059Y127705D01*
X57998Y127627D01*
X57950Y127540D01*
X57916Y127447D01*
X57898Y127350D01*
X57894Y127251D01*
X57906Y127152D01*
X57934Y127057D01*
X57977Y126968D01*
X58150Y126636D01*
X58287Y126288D01*
X58391Y125928D01*
X58461Y125560D01*
X58496Y125187D01*
Y124813D01*
X58461Y124440D01*
X58391Y124072D01*
X58287Y123712D01*
X58150Y123364D01*
X57981Y123029D01*
X57938Y122941D01*
X57911Y122847D01*
X57898Y122749D01*
X57902Y122651D01*
X57921Y122554D01*
X57954Y122462D01*
X58002Y122376D01*
X58062Y122298D01*
X58134Y122231D01*
X58216Y122176D01*
X58305Y122134D01*
X58400Y122107D01*
X58497Y122095D01*
X58596Y122099D01*
X58692Y122117D01*
X58785Y122151D01*
X58822Y122172D01*
Y37995D01*
G37*
G36*
Y7000D02*X54502D01*
Y19750D01*
X54746D01*
X55236Y19796D01*
X55719Y19888D01*
X56192Y20024D01*
X56650Y20204D01*
X57089Y20426D01*
X57172Y20481D01*
X57244Y20549D01*
X57305Y20627D01*
X57353Y20714D01*
X57387Y20807D01*
X57406Y20904D01*
X57409Y21003D01*
X57397Y21101D01*
X57370Y21196D01*
X57328Y21286D01*
X57272Y21368D01*
X57205Y21441D01*
X57127Y21502D01*
X57040Y21550D01*
X56947Y21584D01*
X56850Y21602D01*
X56751Y21606D01*
X56652Y21594D01*
X56557Y21566D01*
X56468Y21523D01*
X56136Y21350D01*
X55788Y21213D01*
X55428Y21109D01*
X55060Y21039D01*
X54687Y21004D01*
X54502D01*
Y28996D01*
X54687D01*
X55060Y28961D01*
X55428Y28891D01*
X55788Y28787D01*
X56136Y28650D01*
X56471Y28481D01*
X56559Y28438D01*
X56653Y28411D01*
X56751Y28398D01*
X56849Y28402D01*
X56946Y28421D01*
X57038Y28454D01*
X57124Y28502D01*
X57202Y28562D01*
X57269Y28634D01*
X57324Y28716D01*
X57366Y28805D01*
X57393Y28900D01*
X57405Y28997D01*
X57401Y29096D01*
X57383Y29192D01*
X57349Y29285D01*
X57301Y29371D01*
X57241Y29448D01*
X57169Y29515D01*
X57086Y29569D01*
X56650Y29796D01*
X56192Y29976D01*
X56132Y29993D01*
X56891Y30308D01*
X57595Y30740D01*
X58224Y31276D01*
X58760Y31905D01*
X58822Y32005D01*
Y27833D01*
X58786Y27853D01*
X58693Y27887D01*
X58596Y27906D01*
X58497Y27909D01*
X58399Y27897D01*
X58304Y27870D01*
X58214Y27828D01*
X58132Y27772D01*
X58059Y27705D01*
X57998Y27627D01*
X57950Y27540D01*
X57916Y27447D01*
X57898Y27350D01*
X57894Y27251D01*
X57906Y27152D01*
X57934Y27057D01*
X57977Y26968D01*
X58150Y26636D01*
X58287Y26288D01*
X58391Y25928D01*
X58461Y25560D01*
X58496Y25187D01*
Y24813D01*
X58461Y24440D01*
X58391Y24072D01*
X58287Y23712D01*
X58150Y23364D01*
X57981Y23029D01*
X57938Y22941D01*
X57911Y22847D01*
X57898Y22749D01*
X57902Y22651D01*
X57921Y22554D01*
X57954Y22462D01*
X58002Y22376D01*
X58062Y22298D01*
X58134Y22231D01*
X58216Y22176D01*
X58305Y22134D01*
X58400Y22107D01*
X58497Y22095D01*
X58596Y22099D01*
X58692Y22117D01*
X58785Y22151D01*
X58822Y22172D01*
Y7000D01*
G37*
G36*
X54502Y163000D02*X58822D01*
Y137995D01*
X58760Y138095D01*
X58224Y138724D01*
X57595Y139260D01*
X56891Y139692D01*
X56127Y140008D01*
X55324Y140201D01*
X54502Y140266D01*
Y163000D01*
G37*
G36*
X50178Y32005D02*X50240Y31905D01*
X50776Y31276D01*
X51405Y30740D01*
X52109Y30308D01*
X52868Y29993D01*
X52808Y29976D01*
X52350Y29796D01*
X51911Y29574D01*
X51828Y29519D01*
X51756Y29451D01*
X51695Y29373D01*
X51647Y29286D01*
X51613Y29193D01*
X51594Y29096D01*
X51591Y28997D01*
X51603Y28899D01*
X51630Y28804D01*
X51672Y28714D01*
X51728Y28632D01*
X51795Y28559D01*
X51873Y28498D01*
X51960Y28450D01*
X52053Y28416D01*
X52150Y28398D01*
X52249Y28394D01*
X52348Y28406D01*
X52443Y28434D01*
X52532Y28477D01*
X52864Y28650D01*
X53212Y28787D01*
X53572Y28891D01*
X53940Y28961D01*
X54313Y28996D01*
X54502D01*
Y21004D01*
X54313D01*
X53940Y21039D01*
X53572Y21109D01*
X53212Y21213D01*
X52864Y21350D01*
X52529Y21519D01*
X52441Y21562D01*
X52347Y21589D01*
X52249Y21602D01*
X52151Y21598D01*
X52054Y21579D01*
X51962Y21546D01*
X51876Y21498D01*
X51798Y21438D01*
X51731Y21366D01*
X51676Y21284D01*
X51634Y21195D01*
X51607Y21100D01*
X51595Y21003D01*
X51599Y20904D01*
X51617Y20808D01*
X51651Y20715D01*
X51699Y20629D01*
X51759Y20552D01*
X51831Y20485D01*
X51914Y20431D01*
X52350Y20204D01*
X52808Y20024D01*
X53281Y19888D01*
X53764Y19796D01*
X54254Y19750D01*
X54502D01*
Y7000D01*
X50178D01*
Y22167D01*
X50214Y22147D01*
X50307Y22113D01*
X50404Y22094D01*
X50503Y22091D01*
X50601Y22103D01*
X50696Y22130D01*
X50786Y22172D01*
X50868Y22228D01*
X50941Y22295D01*
X51002Y22373D01*
X51050Y22460D01*
X51084Y22553D01*
X51102Y22650D01*
X51106Y22749D01*
X51094Y22848D01*
X51066Y22943D01*
X51023Y23032D01*
X50850Y23364D01*
X50713Y23712D01*
X50609Y24072D01*
X50539Y24440D01*
X50504Y24813D01*
Y25187D01*
X50539Y25560D01*
X50609Y25928D01*
X50713Y26288D01*
X50850Y26636D01*
X51019Y26971D01*
X51062Y27059D01*
X51089Y27153D01*
X51102Y27251D01*
X51098Y27349D01*
X51079Y27446D01*
X51046Y27538D01*
X50998Y27624D01*
X50938Y27702D01*
X50866Y27769D01*
X50784Y27824D01*
X50695Y27866D01*
X50600Y27893D01*
X50503Y27905D01*
X50404Y27901D01*
X50308Y27883D01*
X50215Y27849D01*
X50178Y27828D01*
Y32005D01*
G37*
G36*
Y132005D02*X50240Y131905D01*
X50776Y131276D01*
X51405Y130740D01*
X52109Y130308D01*
X52868Y129993D01*
X52808Y129976D01*
X52350Y129796D01*
X51911Y129574D01*
X51828Y129519D01*
X51756Y129451D01*
X51695Y129373D01*
X51647Y129286D01*
X51613Y129193D01*
X51594Y129096D01*
X51591Y128997D01*
X51603Y128899D01*
X51630Y128804D01*
X51672Y128714D01*
X51728Y128632D01*
X51795Y128559D01*
X51873Y128498D01*
X51960Y128450D01*
X52053Y128416D01*
X52150Y128398D01*
X52249Y128394D01*
X52348Y128406D01*
X52443Y128434D01*
X52532Y128477D01*
X52864Y128650D01*
X53212Y128787D01*
X53572Y128891D01*
X53940Y128961D01*
X54313Y128996D01*
X54502D01*
Y121004D01*
X54313D01*
X53940Y121039D01*
X53572Y121109D01*
X53212Y121213D01*
X52864Y121350D01*
X52529Y121519D01*
X52441Y121562D01*
X52347Y121589D01*
X52249Y121602D01*
X52151Y121598D01*
X52054Y121579D01*
X51962Y121546D01*
X51876Y121498D01*
X51798Y121438D01*
X51731Y121366D01*
X51676Y121284D01*
X51634Y121195D01*
X51607Y121100D01*
X51595Y121003D01*
X51599Y120904D01*
X51617Y120808D01*
X51651Y120715D01*
X51699Y120629D01*
X51759Y120552D01*
X51831Y120485D01*
X51914Y120431D01*
X52350Y120204D01*
X52808Y120024D01*
X53281Y119888D01*
X53764Y119796D01*
X54254Y119750D01*
X54502D01*
Y40266D01*
X54500Y40266D01*
X53676Y40201D01*
X52873Y40008D01*
X52109Y39692D01*
X51405Y39260D01*
X50776Y38724D01*
X50240Y38095D01*
X50178Y37995D01*
Y122167D01*
X50214Y122147D01*
X50307Y122113D01*
X50404Y122094D01*
X50503Y122091D01*
X50601Y122103D01*
X50696Y122130D01*
X50786Y122172D01*
X50868Y122228D01*
X50941Y122295D01*
X51002Y122373D01*
X51050Y122460D01*
X51084Y122553D01*
X51102Y122650D01*
X51106Y122749D01*
X51094Y122848D01*
X51066Y122943D01*
X51023Y123032D01*
X50850Y123364D01*
X50713Y123712D01*
X50609Y124072D01*
X50539Y124440D01*
X50504Y124813D01*
Y125187D01*
X50539Y125560D01*
X50609Y125928D01*
X50713Y126288D01*
X50850Y126636D01*
X51019Y126971D01*
X51062Y127059D01*
X51089Y127153D01*
X51102Y127251D01*
X51098Y127349D01*
X51079Y127446D01*
X51046Y127538D01*
X50998Y127624D01*
X50938Y127702D01*
X50866Y127769D01*
X50784Y127824D01*
X50695Y127866D01*
X50600Y127893D01*
X50503Y127905D01*
X50404Y127901D01*
X50308Y127883D01*
X50215Y127849D01*
X50178Y127828D01*
Y132005D01*
G37*
G36*
Y163000D02*X54502D01*
Y140266D01*
X54500Y140266D01*
X53676Y140201D01*
X52873Y140008D01*
X52109Y139692D01*
X51405Y139260D01*
X50776Y138724D01*
X50240Y138095D01*
X50178Y137995D01*
Y163000D01*
G37*
G36*
X34483Y145723D02*X34500Y145721D01*
X35951Y145836D01*
X37367Y146176D01*
X38712Y146733D01*
X39954Y147494D01*
X41061Y148439D01*
X42006Y149546D01*
X42767Y150788D01*
X43324Y152133D01*
X43664Y153549D01*
X43750Y155000D01*
X43664Y156451D01*
X43324Y157867D01*
X42767Y159212D01*
X42006Y160454D01*
X41061Y161561D01*
X39954Y162506D01*
X39148Y163000D01*
X50178D01*
Y137995D01*
X49808Y137391D01*
X49492Y136627D01*
X49299Y135824D01*
X49234Y135000D01*
X49299Y134176D01*
X49492Y133373D01*
X49808Y132609D01*
X50178Y132005D01*
Y127828D01*
X50129Y127801D01*
X50052Y127741D01*
X49985Y127669D01*
X49931Y127586D01*
X49704Y127150D01*
X49524Y126692D01*
X49388Y126219D01*
X49296Y125736D01*
X49250Y125246D01*
Y124754D01*
X49296Y124264D01*
X49388Y123781D01*
X49524Y123308D01*
X49704Y122850D01*
X49926Y122411D01*
X49981Y122328D01*
X50049Y122256D01*
X50127Y122195D01*
X50178Y122167D01*
Y37995D01*
X49808Y37391D01*
X49492Y36627D01*
X49299Y35824D01*
X49234Y35000D01*
X49299Y34176D01*
X49492Y33373D01*
X49808Y32609D01*
X50178Y32005D01*
Y27828D01*
X50129Y27801D01*
X50052Y27741D01*
X49985Y27669D01*
X49931Y27586D01*
X49704Y27150D01*
X49524Y26692D01*
X49388Y26219D01*
X49296Y25736D01*
X49250Y25246D01*
Y24754D01*
X49296Y24264D01*
X49388Y23781D01*
X49524Y23308D01*
X49704Y22850D01*
X49926Y22411D01*
X49981Y22328D01*
X50049Y22256D01*
X50127Y22195D01*
X50178Y22167D01*
Y7000D01*
X39148D01*
X39954Y7494D01*
X41061Y8439D01*
X42006Y9546D01*
X42767Y10788D01*
X43324Y12133D01*
X43664Y13549D01*
X43750Y15000D01*
X43664Y16451D01*
X43324Y17867D01*
X42767Y19212D01*
X42006Y20454D01*
X41061Y21561D01*
X39954Y22506D01*
X38712Y23267D01*
X37367Y23824D01*
X35951Y24164D01*
X34500Y24279D01*
X34483Y24277D01*
Y43717D01*
X34500Y43715D01*
X36265Y43854D01*
X37987Y44268D01*
X39623Y44945D01*
X41133Y45870D01*
X42479Y47021D01*
X43630Y48367D01*
X44555Y49877D01*
X45232Y51513D01*
X45646Y53235D01*
X45750Y55000D01*
X45646Y56765D01*
X45232Y58487D01*
X44555Y60123D01*
X43630Y61633D01*
X42479Y62979D01*
X41133Y64130D01*
X39623Y65055D01*
X37987Y65732D01*
X36265Y66146D01*
X34500Y66285D01*
X34483Y66283D01*
Y103717D01*
X34500Y103715D01*
X36265Y103854D01*
X37987Y104268D01*
X39623Y104945D01*
X41133Y105870D01*
X42479Y107021D01*
X43630Y108367D01*
X44555Y109877D01*
X45232Y111513D01*
X45646Y113235D01*
X45750Y115000D01*
X45646Y116765D01*
X45232Y118487D01*
X44555Y120123D01*
X43630Y121633D01*
X42479Y122979D01*
X41133Y124130D01*
X39623Y125055D01*
X37987Y125732D01*
X36265Y126146D01*
X34500Y126285D01*
X34483Y126283D01*
Y145723D01*
G37*
G36*
X5500Y163000D02*X29852D01*
X29046Y162506D01*
X27939Y161561D01*
X26994Y160454D01*
X26233Y159212D01*
X25676Y157867D01*
X25336Y156451D01*
X25221Y155000D01*
X25336Y153549D01*
X25676Y152133D01*
X26233Y150788D01*
X26994Y149546D01*
X27939Y148439D01*
X29046Y147494D01*
X30288Y146733D01*
X31633Y146176D01*
X33049Y145836D01*
X34483Y145723D01*
Y126283D01*
X32735Y126146D01*
X31013Y125732D01*
X29377Y125055D01*
X27867Y124130D01*
X26521Y122979D01*
X25370Y121633D01*
X24445Y120123D01*
X23768Y118487D01*
X23354Y116765D01*
X23215Y115000D01*
X23354Y113235D01*
X23768Y111513D01*
X24445Y109877D01*
X25370Y108367D01*
X26521Y107021D01*
X27867Y105870D01*
X29377Y104945D01*
X31013Y104268D01*
X32735Y103854D01*
X34483Y103717D01*
Y66283D01*
X32735Y66146D01*
X31013Y65732D01*
X29377Y65055D01*
X27867Y64130D01*
X26521Y62979D01*
X25370Y61633D01*
X24445Y60123D01*
X23768Y58487D01*
X23354Y56765D01*
X23215Y55000D01*
X23354Y53235D01*
X23768Y51513D01*
X24445Y49877D01*
X25370Y48367D01*
X26521Y47021D01*
X27867Y45870D01*
X29377Y44945D01*
X31013Y44268D01*
X32735Y43854D01*
X34483Y43717D01*
Y24277D01*
X33049Y24164D01*
X31633Y23824D01*
X30288Y23267D01*
X29046Y22506D01*
X27939Y21561D01*
X26994Y20454D01*
X26233Y19212D01*
X25676Y17867D01*
X25336Y16451D01*
X25221Y15000D01*
X25336Y13549D01*
X25676Y12133D01*
X26233Y10788D01*
X26994Y9546D01*
X27939Y8439D01*
X29046Y7494D01*
X29852Y7000D01*
X5500D01*
Y163000D01*
G37*
G54D26*X80500Y40000D02*X96000D01*
X102000Y46000D01*
G54D27*X184500Y98500D02*X158000D01*
X84000Y122957D02*Y118750D01*
Y122957D02*X86500Y125457D01*
X89000Y139250D02*Y135043D01*
X86500Y132543D01*
G54D26*X102000Y46000D02*Y17000D01*
X108500Y10500D01*
X171500D01*
X187000Y26000D01*
Y34000D01*
G54D25*G36*
X153000Y38000D02*Y30000D01*
X161000D01*
Y38000D01*
X153000D01*
G37*
G54D28*X167000Y34000D03*
X177000D03*
G54D25*G36*
X143000Y88000D02*Y80000D01*
X151000D01*
Y88000D01*
X143000D01*
G37*
G54D28*X157000Y84000D03*
X167000D03*
X177000D03*
X187000Y34000D03*
X197000D03*
G54D29*X34500Y115000D03*
G54D28*X54500Y125000D03*
Y135000D03*
G54D30*X34500Y155000D03*
Y15000D03*
G54D29*Y55000D03*
G54D28*X54500Y25000D03*
Y35000D03*
G54D31*X86107Y132543D02*X86893D01*
X86107Y125457D02*X86893D01*
G54D32*X84000Y118750D03*
X89000Y139250D03*
G54D33*X64000Y143500D03*
X150083Y116083D03*
X178083Y138917D03*
G54D32*X158000Y98500D03*
X184500D03*
G54D33*X94000Y107500D03*
X119500Y19000D03*
X120595Y38095D03*
X80500Y40000D03*
X102000Y46000D03*
G54D27*G54D34*G54D27*G54D34*G54D26*G54D35*G54D36*G54D35*G54D36*M02*
