G04 start of page 6 for group -4063 idx -4063 *
G04 Title: (unknown), componentmask *
G04 Creator: pcb 20140316 *
G04 CreationDate: Fri 20 Nov 2015 02:14:16 PM GMT UTC *
G04 For: fosse *
G04 Format: Gerber/RS-274X *
G04 PCB-Dimensions (mil): 3170.00 2000.00 *
G04 PCB-Coordinate-Origin: lower left *
%MOIN*%
%FSLAX25Y25*%
%LNTOPMASK*%
%ADD62R,0.0927X0.0927*%
%ADD61R,0.0300X0.0300*%
%ADD60R,0.0572X0.0572*%
%ADD59C,0.0890*%
%ADD58C,0.0860*%
%ADD57C,0.1560*%
%ADD56C,0.0660*%
%ADD55C,0.0001*%
G54D55*G36*
X207700Y174800D02*Y168200D01*
X214300D01*
Y174800D01*
X207700D01*
G37*
G54D56*X211000Y161500D03*
Y151500D03*
Y141500D03*
Y131500D03*
G54D55*G36*
X207700Y117800D02*Y111200D01*
X214300D01*
Y117800D01*
X207700D01*
G37*
G54D56*X211000Y104500D03*
Y94500D03*
Y84500D03*
G54D55*G36*
X208200Y64800D02*Y58200D01*
X214800D01*
Y64800D01*
X208200D01*
G37*
G54D56*X221500Y61500D03*
G54D55*G36*
X235200Y55300D02*Y48700D01*
X241800D01*
Y55300D01*
X235200D01*
G37*
G54D56*X248500Y52000D03*
G54D57*X81000Y134000D03*
Y174000D03*
G54D58*X101000Y144000D03*
Y154000D03*
G54D57*X81000Y34000D03*
Y74000D03*
G54D58*X101000Y44000D03*
Y54000D03*
G54D59*X106500Y104000D03*
X96500D03*
X86500D03*
X66500D03*
G54D60*X136319Y83595D02*X138681D01*
X122095Y52181D02*Y49819D01*
X133905Y52181D02*Y49819D01*
X146319Y49095D02*X148681D01*
X146319Y60905D02*X148681D01*
X146957Y70393D02*Y69607D01*
X154043Y70393D02*Y69607D01*
X163595Y69181D02*Y66819D01*
X175405Y69181D02*Y66819D01*
X131500Y37681D02*Y35319D01*
X143310Y37681D02*Y35319D01*
G54D61*X165500Y112000D02*Y105500D01*
X160500Y112000D02*Y105500D01*
X155500Y112000D02*Y105500D01*
X150500Y91500D02*Y85000D01*
X155500Y91500D02*Y85000D01*
X160500Y91500D02*Y85000D01*
X165500Y91500D02*Y85000D01*
G54D60*X136319Y95405D02*X138681D01*
X142500Y122681D02*Y120319D01*
X154310Y122681D02*Y120319D01*
G54D61*X142000Y172500D02*Y166000D01*
G54D60*X149457Y171893D02*Y171107D01*
X156543Y171893D02*Y171107D01*
X174500Y171893D02*Y171107D01*
X181586Y171893D02*Y171107D01*
G54D61*X127000Y152000D02*Y145500D01*
X132000Y152000D02*Y145500D01*
X137000Y152000D02*Y145500D01*
X142000Y152000D02*Y145500D01*
X137000Y172500D02*Y166000D01*
X132000Y172500D02*Y166000D01*
X127000Y172500D02*Y166000D01*
X150500Y112000D02*Y105500D01*
G54D62*X184792Y124114D02*X196209D01*
X184791Y100492D02*X196209D01*
G54D60*X185095Y77181D02*Y74819D01*
X196905Y77181D02*Y74819D01*
G54D62*X159492Y151209D02*Y139791D01*
X183114Y151208D02*Y139791D01*
M02*
