G04 start of page 8 for group -4079 idx -4079 *
G04 Title: (unknown), topsilk *
G04 Creator: pcb 20140316 *
G04 CreationDate: Fri 20 Nov 2015 02:14:16 PM GMT UTC *
G04 For: fosse *
G04 Format: Gerber/RS-274X *
G04 PCB-Dimensions (mil): 3170.00 2000.00 *
G04 PCB-Coordinate-Origin: lower left *
%MOIN*%
%FSLAX25Y25*%
%LNTOPSILK*%
%ADD76C,0.0197*%
%ADD75C,0.0150*%
%ADD74C,0.0400*%
%ADD73C,0.0080*%
%ADD72C,0.0100*%
%ADD71C,0.0070*%
G54D71*X113000Y157000D02*X117000D01*
X113000Y158300D02*X113700Y159000D01*
X116300D01*
X117000Y158300D02*X116300Y159000D01*
X117000Y158300D02*Y156500D01*
X113000Y158300D02*Y156500D01*
X117000Y162200D02*Y160900D01*
X116300Y160200D02*X117000Y160900D01*
X113700Y160200D02*X116300D01*
X113700D02*X113000Y160900D01*
Y162200D02*Y160900D01*
X113500Y165200D02*X116500D01*
X113500D02*X113000Y165700D01*
Y166700D02*Y165700D01*
Y166700D02*X113500Y167200D01*
X116500D01*
X117000Y166700D02*X116500Y167200D01*
X117000Y166700D02*Y165700D01*
X116500Y165200D02*X117000Y165700D01*
X115000Y168400D02*X116500D01*
X117000Y168900D01*
Y169900D02*Y168900D01*
Y169900D02*X116500Y170400D01*
X115000D02*X116500D01*
X113000Y172100D02*X116500D01*
X117000Y172600D01*
X114500D02*Y171600D01*
X115500Y174100D02*X118500D01*
X115000Y173600D02*X115500Y174100D01*
X115000Y174600D01*
Y175600D02*Y174600D01*
Y175600D02*X115500Y176100D01*
X116500D01*
X117000Y175600D02*X116500Y176100D01*
X117000Y175600D02*Y174600D01*
X116500Y174100D02*X117000Y174600D01*
X115000Y177300D02*X116500D01*
X117000Y177800D01*
Y178800D02*Y177800D01*
Y178800D02*X116500Y179300D01*
X115000D02*X116500D01*
X113000Y181000D02*X116500D01*
X117000Y181500D01*
X114500D02*Y180500D01*
X189500Y151500D02*X191500D01*
X192700Y152700D02*X193500Y153500D01*
Y149500D01*
X192700D02*X194200D01*
X195400Y153500D02*X197400D01*
X195400D02*Y151500D01*
X195900Y152000D01*
X196900D01*
X197400Y151500D01*
Y150000D01*
X196900Y149500D02*X197400Y150000D01*
X195900Y149500D02*X196900D01*
X195400Y150000D02*X195900Y149500D01*
X198600Y153500D02*X199600Y149500D01*
X200600Y153500D01*
X114000Y57500D02*X117000D01*
X114000D02*X113000Y58200D01*
Y59300D02*Y58200D01*
Y59300D02*X114000Y60000D01*
X117000D01*
X115000D02*Y57500D01*
X117000Y63200D02*Y61900D01*
X116300Y61200D02*X117000Y61900D01*
X113700Y61200D02*X116300D01*
X113700D02*X113000Y61900D01*
Y63200D02*Y61900D01*
X113500Y66200D02*X116500D01*
X113500D02*X113000Y66700D01*
Y67700D02*Y66700D01*
Y67700D02*X113500Y68200D01*
X116500D01*
X117000Y67700D02*X116500Y68200D01*
X117000Y67700D02*Y66700D01*
X116500Y66200D02*X117000Y66700D01*
X115000Y69400D02*X116500D01*
X117000Y69900D01*
Y70900D02*Y69900D01*
Y70900D02*X116500Y71400D01*
X115000D02*X116500D01*
X113000Y73100D02*X116500D01*
X117000Y73600D01*
X114500D02*Y72600D01*
X115500Y75100D02*X118500D01*
X115000Y74600D02*X115500Y75100D01*
X115000Y75600D01*
Y76600D02*Y75600D01*
Y76600D02*X115500Y77100D01*
X116500D01*
X117000Y76600D02*X116500Y77100D01*
X117000Y76600D02*Y75600D01*
X116500Y75100D02*X117000Y75600D01*
X115000Y78300D02*X116500D01*
X117000Y78800D01*
Y79800D02*Y78800D01*
Y79800D02*X116500Y80300D01*
X115000D02*X116500D01*
X113000Y82000D02*X116500D01*
X117000Y82500D01*
X114500D02*Y81500D01*
X163000Y32500D02*Y28500D01*
X164300Y32500D02*X165000Y31800D01*
Y29200D01*
X164300Y28500D02*X165000Y29200D01*
X162500Y28500D02*X164300D01*
X162500Y32500D02*X164300D01*
X166900Y28500D02*X168200D01*
X166200Y29200D02*X166900Y28500D01*
X166200Y31800D02*Y29200D01*
Y31800D02*X166900Y32500D01*
X168200D01*
X171200D02*Y28500D01*
Y32500D02*X173200D01*
X171200Y30700D02*X172700D01*
X174400Y31500D02*Y31400D01*
Y30000D02*Y28500D01*
X175400Y32500D02*Y29000D01*
X175900Y28500D01*
X177400Y32500D02*Y29000D01*
X177900Y28500D01*
X176900Y31000D02*X177900D01*
X179400Y28500D02*X180900D01*
X178900Y29000D02*X179400Y28500D01*
X178900Y30000D02*Y29000D01*
Y30000D02*X179400Y30500D01*
X180400D01*
X180900Y30000D01*
X178900Y29500D02*X180900D01*
Y30000D02*Y29500D01*
X182600Y30000D02*Y28500D01*
Y30000D02*X183100Y30500D01*
X184100D01*
X182100D02*X182600Y30000D01*
X187100Y32500D02*Y28500D01*
Y29000D02*X187600Y28500D01*
X188600D01*
X189100Y29000D01*
Y30000D02*Y29000D01*
X188600Y30500D02*X189100Y30000D01*
X187600Y30500D02*X188600D01*
X187100Y30000D02*X187600Y30500D01*
X190300D02*Y29000D01*
X190800Y28500D01*
X192300Y30500D02*Y27500D01*
X191800Y27000D02*X192300Y27500D01*
X190800Y27000D02*X191800D01*
X190300Y27500D02*X190800Y27000D01*
Y28500D02*X191800D01*
X192300Y29000D01*
X195300Y32500D02*X196300D01*
X195800D02*Y28500D01*
X195300D02*X196300D01*
X198200Y32500D02*X199000D01*
Y29000D01*
X198500Y28500D02*X199000Y29000D01*
X198000Y28500D02*X198500D01*
X197500Y29000D02*X198000Y28500D01*
X197500Y29500D02*Y29000D01*
X202200Y32500D02*X202700Y32000D01*
X200700Y32500D02*X202200D01*
X200200Y32000D02*X200700Y32500D01*
X200200Y32000D02*Y31000D01*
X200700Y30500D01*
X202200D01*
X202700Y30000D01*
Y29000D01*
X202200Y28500D02*X202700Y29000D01*
X200700Y28500D02*X202200D01*
X200200Y29000D02*X200700Y28500D01*
X162500Y38500D02*Y35500D01*
Y38500D02*X163200Y39500D01*
X164300D01*
X165000Y38500D01*
Y35500D01*
X162500Y37500D02*X165000D01*
X166900Y35500D02*X168200D01*
X166200Y36200D02*X166900Y35500D01*
X166200Y38800D02*Y36200D01*
Y38800D02*X166900Y39500D01*
X168200D01*
X171200Y38500D02*Y35500D01*
Y38500D02*X171900Y39500D01*
X173000D01*
X173700Y38500D01*
Y35500D01*
X171200Y37500D02*X173700D01*
X175400Y37000D02*Y35500D01*
Y37000D02*X175900Y37500D01*
X176400D01*
X176900Y37000D01*
Y35500D01*
Y37000D02*X177400Y37500D01*
X177900D01*
X178400Y37000D01*
Y35500D01*
X174900Y37500D02*X175400Y37000D01*
X180100D02*Y34000D01*
X179600Y37500D02*X180100Y37000D01*
X180600Y37500D01*
X181600D01*
X182100Y37000D01*
Y36000D01*
X181600Y35500D02*X182100Y36000D01*
X180600Y35500D02*X181600D01*
X180100Y36000D02*X180600Y35500D01*
X183300D02*X183800D01*
X185000Y34500D02*X186000Y35500D01*
X189000Y39500D02*X190000D01*
X189500D02*Y35500D01*
X189000D02*X190000D01*
X191700Y37000D02*Y35500D01*
Y37000D02*X192200Y37500D01*
X192700D01*
X193200Y37000D01*
Y35500D01*
X191200Y37500D02*X191700Y37000D01*
X194900Y39500D02*Y36000D01*
X195400Y35500D01*
X194400Y38000D02*X195400D01*
X196900Y35500D02*X198400D01*
X196400Y36000D02*X196900Y35500D01*
X196400Y37000D02*Y36000D01*
Y37000D02*X196900Y37500D01*
X197900D01*
X198400Y37000D01*
X196400Y36500D02*X198400D01*
Y37000D02*Y36500D01*
X201100Y37500D02*X201600Y37000D01*
X200100Y37500D02*X201100D01*
X199600Y37000D02*X200100Y37500D01*
X199600Y37000D02*Y36000D01*
X200100Y35500D01*
X201100D01*
X201600Y36000D01*
X199600Y34500D02*X200100Y34000D01*
X201100D01*
X201600Y34500D01*
Y37500D02*Y34500D01*
X203300Y37000D02*Y35500D01*
Y37000D02*X203800Y37500D01*
X204800D01*
X202800D02*X203300Y37000D01*
X207500Y37500D02*X208000Y37000D01*
X206500Y37500D02*X207500D01*
X206000Y37000D02*X206500Y37500D01*
X206000Y37000D02*Y36000D01*
X206500Y35500D01*
X208000Y37500D02*Y36000D01*
X208500Y35500D01*
X206500D02*X207500D01*
X208000Y36000D01*
X210200Y39500D02*Y36000D01*
X210700Y35500D01*
X209700Y38000D02*X210700D01*
X211700Y37000D02*Y36000D01*
Y37000D02*X212200Y37500D01*
X213200D01*
X213700Y37000D01*
Y36000D01*
X213200Y35500D02*X213700Y36000D01*
X212200Y35500D02*X213200D01*
X211700Y36000D02*X212200Y35500D01*
X215400Y37000D02*Y35500D01*
Y37000D02*X215900Y37500D01*
X216900D01*
X214900D02*X215400Y37000D01*
X219900Y36000D02*X220400Y35500D01*
X219900Y39000D02*Y38000D01*
Y39000D02*X220400Y39500D01*
X219900Y37000D02*X221400Y38500D01*
X220400Y35500D02*X220900D01*
X221900Y36500D01*
X219900Y38000D02*X222400Y35500D01*
X220400Y39500D02*X220900D01*
X221400Y39000D01*
Y38500D01*
X219900Y37000D02*Y36000D01*
X225400Y39500D02*Y35500D01*
X227400D01*
X230100Y37500D02*X230600Y37000D01*
X229100Y37500D02*X230100D01*
X228600Y37000D02*X229100Y37500D01*
X228600Y37000D02*Y36000D01*
X229100Y35500D01*
X230600Y37500D02*Y36000D01*
X231100Y35500D01*
X229100D02*X230100D01*
X230600Y36000D01*
X232300Y37500D02*Y36000D01*
X232800Y35500D01*
X234300Y37500D02*Y34500D01*
X233800Y34000D02*X234300Y34500D01*
X232800Y34000D02*X233800D01*
X232300Y34500D02*X232800Y34000D01*
Y35500D02*X233800D01*
X234300Y36000D01*
X235500Y37000D02*Y36000D01*
Y37000D02*X236000Y37500D01*
X237000D01*
X237500Y37000D01*
Y36000D01*
X237000Y35500D02*X237500Y36000D01*
X236000Y35500D02*X237000D01*
X235500Y36000D02*X236000Y35500D01*
X238700Y37500D02*Y36000D01*
X239200Y35500D01*
X240200D01*
X240700Y36000D01*
Y37500D02*Y36000D01*
X242400Y39500D02*Y36000D01*
X242900Y35500D01*
X241900Y38000D02*X242900D01*
X245700Y35500D02*X247700D01*
X248200Y36000D01*
Y37200D02*Y36000D01*
X247700Y37700D02*X248200Y37200D01*
X246200Y37700D02*X247700D01*
X246200Y39500D02*Y35500D01*
X245700Y39500D02*X247700D01*
X248200Y39000D01*
Y38200D01*
X247700Y37700D02*X248200Y38200D01*
X249400Y37500D02*Y36000D01*
X249900Y35500D01*
X251400Y37500D02*Y34500D01*
X250900Y34000D02*X251400Y34500D01*
X249900Y34000D02*X250900D01*
X249400Y34500D02*X249900Y34000D01*
Y35500D02*X250900D01*
X251400Y36000D01*
X254400Y37700D02*X255900D01*
X254400Y35500D02*X256400D01*
X254400Y39500D02*Y35500D01*
Y39500D02*X256400D01*
X257600Y37700D02*X259100D01*
X257600Y35500D02*X259600D01*
X257600Y39500D02*Y35500D01*
Y39500D02*X259600D01*
X260800D02*Y35500D01*
Y39500D02*X262800D01*
X260800Y37700D02*X262300D01*
X163000Y52000D02*Y48000D01*
X164300Y52000D02*X165000Y51300D01*
Y48700D01*
X164300Y48000D02*X165000Y48700D01*
X162500Y48000D02*X164300D01*
X162500Y52000D02*X164300D01*
X166200Y50000D02*Y48500D01*
X166700Y48000D01*
X167700D01*
X168200Y48500D01*
Y50000D02*Y48500D01*
X170900Y50000D02*X171400Y49500D01*
X169900Y50000D02*X170900D01*
X169400Y49500D02*X169900Y50000D01*
X169400Y49500D02*Y48500D01*
X169900Y48000D01*
X171400Y50000D02*Y48500D01*
X171900Y48000D01*
X169900D02*X170900D01*
X171400Y48500D01*
X173100Y52000D02*Y48500D01*
X173600Y48000D01*
X177100D02*X178400D01*
X176400Y48700D02*X177100Y48000D01*
X176400Y51300D02*Y48700D01*
Y51300D02*X177100Y52000D01*
X178400D01*
X181100Y50000D02*X181600Y49500D01*
X180100Y50000D02*X181100D01*
X179600Y49500D02*X180100Y50000D01*
X179600Y49500D02*Y48500D01*
X180100Y48000D01*
X181600Y50000D02*Y48500D01*
X182100Y48000D01*
X180100D02*X181100D01*
X181600Y48500D01*
X183300Y52000D02*Y48000D01*
Y48500D02*X183800Y48000D01*
X184800D01*
X185300Y48500D01*
Y49500D02*Y48500D01*
X184800Y50000D02*X185300Y49500D01*
X183800Y50000D02*X184800D01*
X183300Y49500D02*X183800Y50000D01*
X186500Y52000D02*Y48500D01*
X187000Y48000D01*
X188500D02*X190000D01*
X188000Y48500D02*X188500Y48000D01*
X188000Y49500D02*Y48500D01*
Y49500D02*X188500Y50000D01*
X189500D01*
X190000Y49500D01*
X188000Y49000D02*X190000D01*
Y49500D02*Y49000D01*
X193500Y52000D02*Y48000D01*
X194800Y52000D02*X195500Y51300D01*
Y48700D01*
X194800Y48000D02*X195500Y48700D01*
X193000Y48000D02*X194800D01*
X193000Y52000D02*X194800D01*
X197200Y49500D02*Y48000D01*
Y49500D02*X197700Y50000D01*
X198700D01*
X196700D02*X197200Y49500D01*
X199900Y51000D02*Y50900D01*
Y49500D02*Y48000D01*
X200900Y50000D02*X201900Y48000D01*
X202900Y50000D02*X201900Y48000D01*
X204600D02*X206100D01*
X204100Y48500D02*X204600Y48000D01*
X204100Y49500D02*Y48500D01*
Y49500D02*X204600Y50000D01*
X205600D01*
X206100Y49500D01*
X204100Y49000D02*X206100D01*
Y49500D02*Y49000D01*
X207800Y49500D02*Y48000D01*
Y49500D02*X208300Y50000D01*
X209300D01*
X207300D02*X207800Y49500D01*
X162500Y44200D02*X164000D01*
X162500Y42000D02*X164500D01*
X162500Y46000D02*Y42000D01*
Y46000D02*X164500D01*
X167200Y44000D02*X167700Y43500D01*
X166200Y44000D02*X167200D01*
X165700Y43500D02*X166200Y44000D01*
X165700Y43500D02*Y42500D01*
X166200Y42000D01*
X167700Y44000D02*Y42500D01*
X168200Y42000D01*
X166200D02*X167200D01*
X167700Y42500D01*
X169900Y46000D02*Y42500D01*
X170400Y42000D01*
X169400Y44500D02*X170400D01*
X171400Y43500D02*Y42500D01*
Y43500D02*X171900Y44000D01*
X172900D01*
X173400Y43500D01*
Y42500D01*
X172900Y42000D02*X173400Y42500D01*
X171900Y42000D02*X172900D01*
X171400Y42500D02*X171900Y42000D01*
X175100Y43500D02*Y42000D01*
Y43500D02*X175600Y44000D01*
X176100D01*
X176600Y43500D01*
Y42000D01*
X174600Y44000D02*X175100Y43500D01*
X180100Y46000D02*Y42000D01*
X179600Y46000D02*X181600D01*
X182100Y45500D01*
Y44500D01*
X181600Y44000D02*X182100Y44500D01*
X180100Y44000D02*X181600D01*
X183800Y42000D02*X185300D01*
X183300Y42500D02*X183800Y42000D01*
X183300Y43500D02*Y42500D01*
Y43500D02*X183800Y44000D01*
X184800D01*
X185300Y43500D01*
X183300Y43000D02*X185300D01*
Y43500D02*Y43000D01*
X188000Y44000D02*X188500Y43500D01*
X187000Y44000D02*X188000D01*
X186500Y43500D02*X187000Y44000D01*
X186500Y43500D02*Y42500D01*
X187000Y42000D01*
X188500Y44000D02*Y42500D01*
X189000Y42000D01*
X187000D02*X188000D01*
X188500Y42500D01*
X190200Y46000D02*Y42000D01*
Y42500D02*X190700Y42000D01*
X191700D01*
X192200Y42500D01*
Y43500D02*Y42500D01*
X191700Y44000D02*X192200Y43500D01*
X190700Y44000D02*X191700D01*
X190200Y43500D02*X190700Y44000D01*
X193400Y43500D02*Y42500D01*
Y43500D02*X193900Y44000D01*
X194900D01*
X195400Y43500D01*
Y42500D01*
X194900Y42000D02*X195400Y42500D01*
X193900Y42000D02*X194900D01*
X193400Y42500D02*X193900Y42000D01*
X198600Y46000D02*Y42000D01*
X198100D02*X198600Y42500D01*
X197100Y42000D02*X198100D01*
X196600Y42500D02*X197100Y42000D01*
X196600Y43500D02*Y42500D01*
Y43500D02*X197100Y44000D01*
X198100D01*
X198600Y43500D01*
X199800Y44000D02*Y42500D01*
X200300Y42000D01*
X201800Y44000D02*Y41000D01*
X201300Y40500D02*X201800Y41000D01*
X200300Y40500D02*X201300D01*
X199800Y41000D02*X200300Y40500D01*
Y42000D02*X201300D01*
X201800Y42500D01*
X204800Y46000D02*Y42000D01*
X206800D01*
X209500Y44000D02*X210000Y43500D01*
X208500Y44000D02*X209500D01*
X208000Y43500D02*X208500Y44000D01*
X208000Y43500D02*Y42500D01*
X208500Y42000D01*
X210000Y44000D02*Y42500D01*
X210500Y42000D01*
X208500D02*X209500D01*
X210000Y42500D01*
X211700Y46000D02*Y42000D01*
Y42500D02*X212200Y42000D01*
X213200D01*
X213700Y42500D01*
Y43500D02*Y42500D01*
X213200Y44000D02*X213700Y43500D01*
X212200Y44000D02*X213200D01*
X211700Y43500D02*X212200Y44000D01*
X225500Y32000D02*X226000Y32500D01*
X227500D01*
X228000Y32000D01*
Y31000D01*
X225500Y28500D02*X228000Y31000D01*
X225500Y28500D02*X228000D01*
X229200Y29000D02*X229700Y28500D01*
X229200Y32000D02*Y29000D01*
Y32000D02*X229700Y32500D01*
X230700D01*
X231200Y32000D01*
Y29000D01*
X230700Y28500D02*X231200Y29000D01*
X229700Y28500D02*X230700D01*
X229200Y29500D02*X231200Y31500D01*
X232400Y31700D02*X233200Y32500D01*
Y28500D01*
X232400D02*X233900D01*
X235100Y32500D02*X237100D01*
X235100D02*Y30500D01*
X235600Y31000D01*
X236600D01*
X237100Y30500D01*
Y29000D01*
X236600Y28500D02*X237100Y29000D01*
X235600Y28500D02*X236600D01*
X235100Y29000D02*X235600Y28500D01*
X238300D02*X238800D01*
X240000Y31700D02*X240800Y32500D01*
Y28500D01*
X240000D02*X241500D01*
X242700Y31700D02*X243500Y32500D01*
Y28500D01*
X242700D02*X244200D01*
X245400D02*X245900D01*
X247100Y31700D02*X247900Y32500D01*
Y28500D01*
X247100D02*X248600D01*
X249800Y32000D02*X250300Y32500D01*
X251300D01*
X251800Y32000D01*
X251300Y28500D02*X251800Y29000D01*
X250300Y28500D02*X251300D01*
X249800Y29000D02*X250300Y28500D01*
Y30700D02*X251300D01*
X251800Y32000D02*Y31200D01*
Y30200D02*Y29000D01*
Y30200D02*X251300Y30700D01*
X251800Y31200D02*X251300Y30700D01*
X186700Y169500D02*X188000D01*
X186000Y170200D02*X186700Y169500D01*
X186000Y172800D02*Y170200D01*
Y172800D02*X186700Y173500D01*
X188000D01*
X189200D02*Y169500D01*
X191700Y173500D02*Y169500D01*
X189200Y171500D02*X191700D01*
X192900Y172500D02*Y169500D01*
Y172500D02*X193600Y173500D01*
X194700D01*
X195400Y172500D01*
Y169500D01*
X192900Y171500D02*X195400D01*
X198600Y173500D02*X199100Y173000D01*
X197100Y173500D02*X198600D01*
X196600Y173000D02*X197100Y173500D01*
X196600Y173000D02*Y172000D01*
X197100Y171500D01*
X198600D01*
X199100Y171000D01*
Y170000D01*
X198600Y169500D02*X199100Y170000D01*
X197100Y169500D02*X198600D01*
X196600Y170000D02*X197100Y169500D01*
X200300D02*X200800D01*
X189500Y141500D02*X191500D01*
X190500Y142500D02*Y140500D01*
X192700Y142700D02*X193500Y143500D01*
Y139500D01*
X192700D02*X194200D01*
X195400Y143500D02*X197400D01*
X195400D02*Y141500D01*
X195900Y142000D01*
X196900D01*
X197400Y141500D01*
Y140000D01*
X196900Y139500D02*X197400Y140000D01*
X195900Y139500D02*X196900D01*
X195400Y140000D02*X195900Y139500D01*
X198600Y143500D02*X199600Y139500D01*
X200600Y143500D01*
X190500Y159500D02*X191800D01*
X189800Y160200D02*X190500Y159500D01*
X189800Y162800D02*Y160200D01*
Y162800D02*X190500Y163500D01*
X191800D01*
X193000Y163000D02*Y160000D01*
Y163000D02*X193500Y163500D01*
X194500D01*
X195000Y163000D01*
Y160000D01*
X194500Y159500D02*X195000Y160000D01*
X193500Y159500D02*X194500D01*
X193000Y160000D02*X193500Y159500D01*
X196200Y163500D02*Y159500D01*
Y163500D02*X197700Y161500D01*
X199200Y163500D01*
Y159500D01*
X200400D02*X200900D01*
X192500Y134000D02*X193000Y133500D01*
X191000Y134000D02*X192500D01*
X190500Y133500D02*X191000Y134000D01*
X190500Y133500D02*Y132500D01*
X191000Y132000D01*
X192500D01*
X193000Y131500D01*
Y130500D01*
X192500Y130000D02*X193000Y130500D01*
X191000Y130000D02*X192500D01*
X190500Y130500D02*X191000Y130000D01*
X194200Y134000D02*X195200D01*
X194700D02*Y130000D01*
X194200D02*X195200D01*
X198400Y134000D02*X198900Y133500D01*
X196900Y134000D02*X198400D01*
X196400Y133500D02*X196900Y134000D01*
X196400Y133500D02*Y130500D01*
X196900Y130000D01*
X198400D01*
X198900Y130500D01*
Y131500D02*Y130500D01*
X198400Y132000D02*X198900Y131500D01*
X197400Y132000D02*X198400D01*
X200100Y130000D02*X200600D01*
G54D72*X148500Y83000D02*X167500D01*
Y114000D02*Y83000D01*
X148500Y114000D02*X167500D01*
X148500Y96000D02*Y83000D01*
Y114000D02*Y101000D01*
Y96000D02*G75*G03X148500Y101000I0J2500D01*G01*
G54D73*X133760Y91862D02*Y87138D01*
X141240Y91862D02*Y87138D01*
X146043Y125240D02*X150767D01*
X146043Y117760D02*X150767D01*
G54D72*X51150Y183000D02*Y125000D01*
X90000Y183000D02*X110850D01*
Y125000D01*
X51150D02*X72000D01*
X51150Y183000D02*X72000D01*
X90000Y125000D02*X110850D01*
X51984Y183000D03*
G54D73*X152607Y174255D02*X153393D01*
X152607Y168745D02*X153393D01*
G54D72*X51150Y83000D02*Y25000D01*
X90000Y83000D02*X110850D01*
Y25000D01*
X51150D02*X72000D01*
X51150Y83000D02*X72000D01*
X90000Y25000D02*X110850D01*
X51984Y83000D03*
X86500Y94000D02*Y114000D01*
X53200D01*
X51200Y92000D02*Y116000D01*
X86500Y94000D02*X53200D01*
X29200Y103700D02*Y104300D01*
Y94200D02*Y113800D01*
Y101500D02*Y106500D01*
Y101500D02*X10700D01*
X29200Y106500D02*X10700D01*
X51200Y113800D02*X29200D01*
X51200Y94200D02*X29200D01*
G54D74*X106500Y104000D02*X86500D01*
G54D72*X53200Y116000D02*X51200D01*
X53200Y92000D02*X51200D01*
X53200D02*Y116000D01*
X10700Y106500D02*G75*G03X8200Y104000I0J-2500D01*G01*
G75*G03X10700Y101500I2500J0D01*G01*
G54D73*X143760Y57362D02*Y52638D01*
X151240Y57362D02*Y52638D01*
X150107Y72755D02*X150893D01*
X150107Y67245D02*X150893D01*
X125638Y54740D02*X130362D01*
X125638Y47260D02*X130362D01*
X135043Y40240D02*X139767D01*
X135043Y32760D02*X139767D01*
G54D72*X125000Y143500D02*X144000D01*
Y174500D02*Y143500D01*
X125000Y174500D02*X144000D01*
X125000Y156500D02*Y143500D01*
Y174500D02*Y161500D01*
Y156500D02*G75*G03X125000Y161500I0J2500D01*G01*
X253700Y171500D02*X234000D01*
Y176500D02*X221500D01*
X234000Y171500D02*Y176500D01*
Y165000D02*Y168000D01*
G54D74*X247400Y161500D02*X245200D01*
X247400Y171500D02*X245200D01*
X238400Y161500D02*X236200D01*
X238400Y171500D02*X236200D01*
X229400D02*X227200D01*
X229400Y161500D02*X227200D01*
X219500Y171500D02*X211000D01*
X219500Y161500D02*X211000D01*
G54D72*X253700Y158000D02*Y171500D01*
G54D74*X258400Y161500D02*X255200D01*
X258400Y171500D02*X255200D01*
G54D75*X255400Y172750D02*X234300D01*
G54D72*X253700Y131500D02*X234000D01*
Y126500D02*X221500D01*
X234000D02*Y131500D01*
Y135000D02*Y138000D01*
Y145000D02*Y148000D01*
Y155000D02*Y158000D01*
G54D74*X247400Y151500D02*X245200D01*
X247400Y141500D02*X245200D01*
X247400Y131500D02*X245200D01*
X238400D02*X236200D01*
X229400Y151500D02*X227200D01*
X229400Y131500D02*X227200D01*
X229400Y141500D02*X227200D01*
X238400D02*X236200D01*
X238400Y151500D02*X236200D01*
X219500D02*X211000D01*
X219500Y141500D02*X211000D01*
X219500Y131500D02*X211000D01*
X258400Y151500D02*X255200D01*
X258400Y141500D02*X255200D01*
X258400Y131500D02*X255200D01*
G54D75*X255700Y130250D02*X234300D01*
G54D72*X221500Y126500D02*Y176500D01*
X253700Y131500D02*Y171500D01*
G54D73*X177650Y174255D02*X178436D01*
X177650Y168745D02*X178436D01*
G54D76*X176224Y135658D02*X166382D01*
Y155342D02*X176224D01*
G54D72*X253700Y114500D02*X234000D01*
Y119500D02*X221500D01*
X234000Y114500D02*Y119500D01*
Y108000D02*Y111000D01*
G54D74*X247400Y104500D02*X245200D01*
X247400Y114500D02*X245200D01*
X238400Y104500D02*X236200D01*
X238400Y114500D02*X236200D01*
X229400D02*X227200D01*
X229400Y104500D02*X227200D01*
X219500Y114500D02*X211000D01*
X219500Y104500D02*X211000D01*
G54D72*X253700Y101000D02*Y114500D01*
G54D74*X258400Y104500D02*X255200D01*
X258400Y114500D02*X255200D01*
G54D75*X255400Y115750D02*X234300D01*
G54D72*X234000Y98000D02*Y101000D01*
G54D74*X247400Y94500D02*X245200D01*
X229400D02*X227200D01*
X238400D02*X236200D01*
X219500D02*X211000D01*
X258400D02*X255200D01*
G54D72*X221500Y79500D02*Y119500D01*
X253700Y84500D02*X234000D01*
Y79500D02*X221500D01*
X234000D02*Y84500D01*
Y88000D02*Y91000D01*
G54D74*X247400Y84500D02*X245200D01*
X238400D02*X236200D01*
X229400D02*X227200D01*
X219500D02*X211000D01*
X258400D02*X255200D01*
G54D75*X255700Y83250D02*X234300D01*
G54D72*X253700Y84500D02*Y114500D01*
X200500Y61500D02*X204500D01*
X202500Y63500D02*Y59500D01*
X228500Y61500D02*X232500D01*
X206500D02*G75*G03X206500Y61500I10000J0D01*G01*
G54D76*X200342Y117224D02*Y107382D01*
X180658Y117224D02*Y107382D01*
G54D72*X227500Y52000D02*X231500D01*
X229500Y54000D02*Y50000D01*
X255500Y52000D02*X259500D01*
X233500D02*G75*G03X233500Y52000I10000J0D01*G01*
G54D73*X188638Y79740D02*X193362D01*
X188638Y72260D02*X193362D01*
X167138Y71740D02*X171862D01*
X167138Y64260D02*X171862D01*
G54D71*X119000Y156250D02*X122500D01*
X123000Y156750D01*
Y157750D02*Y156750D01*
Y157750D02*X122500Y158250D01*
X119000D02*X122500D01*
X119500Y159450D02*X119000Y159950D01*
Y161450D02*Y159950D01*
Y161450D02*X119500Y161950D01*
X120500D01*
X123000Y159450D02*X120500Y161950D01*
X123000D02*Y159450D01*
X206500Y146000D02*Y144700D01*
X205800Y144000D02*X206500Y144700D01*
X203200Y144000D02*X205800D01*
X203200D02*X202500Y144700D01*
Y146000D02*Y144700D01*
X203000Y147200D02*X206000D01*
X203000D02*X202500Y147700D01*
Y148700D02*Y147700D01*
Y148700D02*X203000Y149200D01*
X206000D01*
X206500Y148700D02*X206000Y149200D01*
X206500Y148700D02*Y147700D01*
X206000Y147200D02*X206500Y147700D01*
X202500Y150400D02*X206500D01*
X202500D02*X206500Y152900D01*
X202500D02*X206500D01*
X202500Y154100D02*X206500D01*
X202500D02*X206500Y156600D01*
X202500D02*X206500D01*
X202500Y159800D02*Y157800D01*
X204500D01*
X204000Y158300D01*
Y159300D02*Y158300D01*
Y159300D02*X204500Y159800D01*
X206000D01*
X206500Y159300D02*X206000Y159800D01*
X206500Y159300D02*Y158300D01*
X206000Y157800D02*X206500Y158300D01*
X169444Y158020D02*X170744D01*
X168744Y158720D02*X169444Y158020D01*
X168744Y161320D02*Y158720D01*
Y161320D02*X169444Y162020D01*
X170744D01*
X171944Y161520D02*X172444Y162020D01*
X173444D01*
X173944Y161520D01*
X173444Y158020D02*X173944Y158520D01*
X172444Y158020D02*X173444D01*
X171944Y158520D02*X172444Y158020D01*
Y160220D02*X173444D01*
X173944Y161520D02*Y160720D01*
Y159720D02*Y158520D01*
Y159720D02*X173444Y160220D01*
X173944Y160720D02*X173444Y160220D01*
X175144Y161220D02*X175944Y162020D01*
Y158020D01*
X175144D02*X176644D01*
X149850Y179650D02*X151850D01*
X152350Y179150D01*
Y178150D01*
X151850Y177650D02*X152350Y178150D01*
X150350Y177650D02*X151850D01*
X150350Y179650D02*Y175650D01*
X151150Y177650D02*X152350Y175650D01*
X153550Y177150D02*X155550Y179650D01*
X153550Y177150D02*X156050D01*
X155550Y179650D02*Y175650D01*
X175393Y179650D02*X177393D01*
X177893Y179150D01*
Y178150D01*
X177393Y177650D02*X177893Y178150D01*
X175893Y177650D02*X177393D01*
X175893Y179650D02*Y175650D01*
X176693Y177650D02*X177893Y175650D01*
X179093Y179150D02*X179593Y179650D01*
X180593D01*
X181093Y179150D01*
X180593Y175650D02*X181093Y176150D01*
X179593Y175650D02*X180593D01*
X179093Y176150D02*X179593Y175650D01*
Y177850D02*X180593D01*
X181093Y179150D02*Y178350D01*
Y177350D02*Y176150D01*
Y177350D02*X180593Y177850D01*
X181093Y178350D02*X180593Y177850D01*
X116810Y29537D02*Y28237D01*
X116110Y27537D02*X116810Y28237D01*
X113510Y27537D02*X116110D01*
X113510D02*X112810Y28237D01*
Y29537D02*Y28237D01*
X113310Y30737D02*X116310D01*
X113310D02*X112810Y31237D01*
Y32237D02*Y31237D01*
Y32237D02*X113310Y32737D01*
X116310D01*
X116810Y32237D02*X116310Y32737D01*
X116810Y32237D02*Y31237D01*
X116310Y30737D02*X116810Y31237D01*
X112810Y33937D02*X116810D01*
X112810D02*X116810Y36437D01*
X112810D02*X116810D01*
X112810Y37637D02*X116810D01*
X112810D02*X116810Y40137D01*
X112810D02*X116810D01*
X113310Y41337D02*X112810Y41837D01*
Y42837D02*Y41837D01*
Y42837D02*X113310Y43337D01*
X116810Y42837D02*X116310Y43337D01*
X116810Y42837D02*Y41837D01*
X116310Y41337D02*X116810Y41837D01*
X114610Y42837D02*Y41837D01*
X113310Y43337D02*X114110D01*
X115110D02*X116310D01*
X115110D02*X114610Y42837D01*
X114110Y43337D02*X114610Y42837D01*
X124550Y56150D02*X125850D01*
X123850Y56850D02*X124550Y56150D01*
X123850Y59450D02*Y56850D01*
Y59450D02*X124550Y60150D01*
X125850D01*
X127050Y59350D02*X127850Y60150D01*
Y56150D01*
X127050D02*X128550D01*
X129750Y56650D02*X130250Y56150D01*
X129750Y59650D02*Y56650D01*
Y59650D02*X130250Y60150D01*
X131250D01*
X131750Y59650D01*
Y56650D01*
X131250Y56150D02*X131750Y56650D01*
X130250Y56150D02*X131250D01*
X129750Y57150D02*X131750Y59150D01*
X142350Y53850D02*Y52550D01*
X141650Y51850D02*X142350Y52550D01*
X139050Y51850D02*X141650D01*
X139050D02*X138350Y52550D01*
Y53850D02*Y52550D01*
X142350Y55550D02*X138350Y57550D01*
Y55050D01*
X145764Y78650D02*X147764D01*
X148264Y78150D01*
Y77150D01*
X147764Y76650D02*X148264Y77150D01*
X146264Y76650D02*X147764D01*
X146264Y78650D02*Y74650D01*
X147064Y76650D02*X148264Y74650D01*
X149464Y77850D02*X150264Y78650D01*
Y74650D01*
X149464D02*X150964D01*
X152164Y78150D02*X152664Y78650D01*
X154164D01*
X154664Y78150D01*
Y77150D01*
X152164Y74650D02*X154664Y77150D01*
X152164Y74650D02*X154664D01*
X134955Y41650D02*X136255D01*
X134255Y42350D02*X134955Y41650D01*
X134255Y44950D02*Y42350D01*
Y44950D02*X134955Y45650D01*
X136255D01*
X138955D02*X139455Y45150D01*
X137955Y45650D02*X138955D01*
X137455Y45150D02*X137955Y45650D01*
X137455Y45150D02*Y42150D01*
X137955Y41650D01*
X138955Y43850D02*X139455Y43350D01*
X137455Y43850D02*X138955D01*
X137955Y41650D02*X138955D01*
X139455Y42150D01*
Y43350D02*Y42150D01*
X206500Y93500D02*Y92200D01*
X205800Y91500D02*X206500Y92200D01*
X203200Y91500D02*X205800D01*
X203200D02*X202500Y92200D01*
Y93500D02*Y92200D01*
X203000Y94700D02*X206000D01*
X203000D02*X202500Y95200D01*
Y96200D02*Y95200D01*
Y96200D02*X203000Y96700D01*
X206000D01*
X206500Y96200D02*X206000Y96700D01*
X206500Y96200D02*Y95200D01*
X206000Y94700D02*X206500Y95200D01*
X202500Y97900D02*X206500D01*
X202500D02*X206500Y100400D01*
X202500D02*X206500D01*
X202500Y101600D02*X206500D01*
X202500D02*X206500Y104100D01*
X202500D02*X206500D01*
X205000Y105300D02*X202500Y107300D01*
X205000Y107800D02*Y105300D01*
X202500Y107300D02*X206500D01*
X212700Y73500D02*X214000D01*
X212000Y74200D02*X212700Y73500D01*
X212000Y76800D02*Y74200D01*
Y76800D02*X212700Y77500D01*
X214000D01*
X215200Y76700D02*X216000Y77500D01*
Y73500D01*
X215200D02*X216700D01*
X217900Y75000D02*X219900Y77500D01*
X217900Y75000D02*X220400D01*
X219900Y77500D02*Y73500D01*
X240200Y64000D02*X241500D01*
X239500Y64700D02*X240200Y64000D01*
X239500Y67300D02*Y64700D01*
Y67300D02*X240200Y68000D01*
X241500D01*
X242700Y67200D02*X243500Y68000D01*
Y64000D01*
X242700D02*X244200D01*
X245400Y67500D02*X245900Y68000D01*
X246900D01*
X247400Y67500D01*
X246900Y64000D02*X247400Y64500D01*
X245900Y64000D02*X246900D01*
X245400Y64500D02*X245900Y64000D01*
Y66200D02*X246900D01*
X247400Y67500D02*Y66700D01*
Y65700D02*Y64500D01*
Y65700D02*X246900Y66200D01*
X247400Y66700D02*X246900Y66200D01*
X187050Y81650D02*X188350D01*
X186350Y82350D02*X187050Y81650D01*
X186350Y84950D02*Y82350D01*
Y84950D02*X187050Y85650D01*
X188350D01*
X189550Y85150D02*X190050Y85650D01*
X191550D01*
X192050Y85150D01*
Y84150D01*
X189550Y81650D02*X192050Y84150D01*
X189550Y81650D02*X192050D01*
X193250Y82150D02*X193750Y81650D01*
X193250Y85150D02*Y82150D01*
Y85150D02*X193750Y85650D01*
X194750D01*
X195250Y85150D01*
Y82150D01*
X194750Y81650D02*X195250Y82150D01*
X193750Y81650D02*X194750D01*
X193250Y82650D02*X195250Y84650D01*
X89000Y95000D02*X89500Y95500D01*
X89000Y95000D02*Y93500D01*
X89500Y93000D02*X89000Y93500D01*
X89500Y93000D02*X90500D01*
X91000Y93500D01*
Y95000D02*Y93500D01*
Y95000D02*X91500Y95500D01*
X92500D01*
X93000Y95000D02*X92500Y95500D01*
X93000Y95000D02*Y93500D01*
X92500Y93000D02*X93000Y93500D01*
X89800Y96700D02*X89000Y97500D01*
X93000D01*
Y98200D02*Y96700D01*
X177980Y111744D02*Y110444D01*
X177280Y109744D02*X177980Y110444D01*
X174680Y109744D02*X177280D01*
X174680D02*X173980Y110444D01*
Y111744D02*Y110444D01*
X174480Y112944D02*X173980Y113444D01*
Y114444D02*Y113444D01*
Y114444D02*X174480Y114944D01*
X177980Y114444D02*X177480Y114944D01*
X177980Y114444D02*Y113444D01*
X177480Y112944D02*X177980Y113444D01*
X175780Y114444D02*Y113444D01*
X174480Y114944D02*X175280D01*
X176280D02*X177480D01*
X176280D02*X175780Y114444D01*
X175280Y114944D02*X175780Y114444D01*
X177480Y116144D02*X177980Y116644D01*
X174480Y116144D02*X177480D01*
X174480D02*X173980Y116644D01*
Y117644D02*Y116644D01*
Y117644D02*X174480Y118144D01*
X177480D01*
X177980Y117644D02*X177480Y118144D01*
X177980Y117644D02*Y116644D01*
X176980Y116144D02*X174980Y118144D01*
X142500Y96000D02*X146000D01*
X146500Y96500D01*
Y97500D02*Y96500D01*
Y97500D02*X146000Y98000D01*
X142500D02*X146000D01*
X142500Y101200D02*Y99200D01*
X144500D01*
X144000Y99700D01*
Y100700D02*Y99700D01*
Y100700D02*X144500Y101200D01*
X146000D01*
X146500Y100700D02*X146000Y101200D01*
X146500Y100700D02*Y99700D01*
X146000Y99200D02*X146500Y99700D01*
X131850Y87350D02*Y86050D01*
X131150Y85350D02*X131850Y86050D01*
X128550Y85350D02*X131150D01*
X128550D02*X127850Y86050D01*
Y87350D02*Y86050D01*
X128650Y88550D02*X127850Y89350D01*
X131850D01*
Y90050D02*Y88550D01*
X131350Y91250D02*X131850Y91750D01*
X130550Y91250D02*X131350D01*
X130550D02*X129850Y91950D01*
Y92550D02*Y91950D01*
Y92550D02*X130550Y93250D01*
X131350D01*
X131850Y92750D02*X131350Y93250D01*
X131850Y92750D02*Y91750D01*
X129150Y91250D02*X129850Y91950D01*
X128350Y91250D02*X129150D01*
X128350D02*X127850Y91750D01*
Y92750D02*Y91750D01*
Y92750D02*X128350Y93250D01*
X129150D01*
X129850Y92550D02*X129150Y93250D01*
X116810Y130037D02*Y128737D01*
X116110Y128037D02*X116810Y128737D01*
X113510Y128037D02*X116110D01*
X113510D02*X112810Y128737D01*
Y130037D02*Y128737D01*
X113310Y131237D02*X116310D01*
X113310D02*X112810Y131737D01*
Y132737D02*Y131737D01*
Y132737D02*X113310Y133237D01*
X116310D01*
X116810Y132737D02*X116310Y133237D01*
X116810Y132737D02*Y131737D01*
X116310Y131237D02*X116810Y131737D01*
X112810Y134437D02*X116810D01*
X112810D02*X116810Y136937D01*
X112810D02*X116810D01*
X112810Y138137D02*X116810D01*
X112810D02*X116810Y140637D01*
X112810D02*X116810D01*
X113310Y141837D02*X112810Y142337D01*
Y143837D02*Y142337D01*
Y143837D02*X113310Y144337D01*
X114310D01*
X116810Y141837D02*X114310Y144337D01*
X116810D02*Y141837D01*
X145455Y127150D02*X146755D01*
X144755Y127850D02*X145455Y127150D01*
X144755Y130450D02*Y127850D01*
Y130450D02*X145455Y131150D01*
X146755D01*
X147955Y130350D02*X148755Y131150D01*
Y127150D01*
X147955D02*X149455D01*
X151155D02*X152655Y129150D01*
Y130650D02*Y129150D01*
X152155Y131150D02*X152655Y130650D01*
X151155Y131150D02*X152155D01*
X150655Y130650D02*X151155Y131150D01*
X150655Y130650D02*Y129650D01*
X151155Y129150D01*
X152655D01*
X165550Y73650D02*X166850D01*
X164850Y74350D02*X165550Y73650D01*
X164850Y76950D02*Y74350D01*
Y76950D02*X165550Y77650D01*
X166850D01*
X168050Y77150D02*X168550Y77650D01*
X170050D01*
X170550Y77150D01*
Y76150D01*
X168050Y73650D02*X170550Y76150D01*
X168050Y73650D02*X170550D01*
X171750Y77650D02*X173750D01*
X171750D02*Y75650D01*
X172250Y76150D01*
X173250D01*
X173750Y75650D01*
Y74150D01*
X173250Y73650D02*X173750Y74150D01*
X172250Y73650D02*X173250D01*
X171750Y74150D02*X172250Y73650D01*
M02*
