M48
INCH
T54C0.020
T53C0.035
T52C0.043
T51C0.032
T50C0.079
T49C0.030
T48C0.042
%
T54
X012550Y008825
X012550Y004075
X013191Y017500
X013200Y014100
X013300Y010100
X013550Y006125
X014200Y014300
X014400Y015950
X014696Y007000
X014800Y013250
X015550Y008825
X016050Y010875
X016550Y016950
X018450Y010900
T49
X021150Y006150
X022150Y006150
X023850Y005200
X024850Y005200
T51
X010100Y015400
X010100Y014400
X010100Y005400
X010100Y004400
T53
X013750Y007550
X014350Y010850
X015000Y003650
X015650Y005150
X016000Y012150
X016050Y007750
X017100Y015150
X023350Y015150
X023350Y013250
X023350Y009450
X023350Y007350
X025300Y017150
X025300Y011450
X025900Y017150
X025900Y011450
T48
X021100Y017150
X021100Y016150
X021100Y015150
X021100Y014150
X021100Y013150
X021100Y011450
X021100Y010450
X021100Y009450
X021100Y008450
T52
X006650Y010400
X008650Y010400
X009650Y010400
X010650Y010400
T50
X008100Y017400
X008100Y013400
X008100Y007400
X008100Y003400
M30
