M48
INCH
T42C0.035
T41C0.020
T40C0.040
T39C0.032
T38C0.079
%
T41
X008400Y011875
X008900Y013925
T39
X005450Y014500
X005450Y013500
X005450Y004500
X005450Y003500
T42
X008050Y004000
X009400Y010750
X010200Y004600
X011950Y001900
X012059Y003809
X015008Y011608
X017350Y007650
X017350Y005100
X017808Y013892
X019650Y005500
T40
X016350Y009650
X016350Y008650
X016350Y007650
X016350Y006650
X016350Y005650
X019250Y009650
X019250Y008650
X019250Y007650
X019250Y006650
T38
X003450Y015500
X003450Y011500
X003450Y005500
X003450Y001500
M30
