G04 start of page 3 for group 1 idx 1 *
G04 Title: (unknown), solder *
G04 Creator: pcb 20140316 *
G04 CreationDate: Mon 16 Nov 2015 12:18:08 PM GMT UTC *
G04 For: fosse *
G04 Format: Gerber/RS-274X *
G04 PCB-Dimensions (mil): 1250.00 2150.00 *
G04 PCB-Coordinate-Origin: lower left *
%MOIN*%
%FSLAX25Y25*%
%LNBOTTOM*%
%ADD37C,0.0225*%
%ADD36C,0.0380*%
%ADD35C,0.0350*%
%ADD34C,0.0200*%
%ADD33C,0.0360*%
%ADD32R,0.1220X0.1220*%
%ADD31R,0.0560X0.0560*%
%ADD30R,0.0512X0.0512*%
%ADD29R,0.0850X0.0850*%
%ADD28C,0.0500*%
%ADD27C,0.0600*%
%ADD26C,0.0550*%
%ADD25C,0.0001*%
G54D25*G36*
X51000Y157000D02*X68500D01*
Y129500D01*
X51000D01*
Y157000D01*
G37*
G36*
X47800Y161645D02*X48338Y161423D01*
X48912Y161285D01*
X49500Y161238D01*
X49647Y161250D01*
X79447D01*
X88750Y151947D01*
Y143399D01*
X88684Y143240D01*
X88537Y142628D01*
X88488Y142000D01*
X88537Y141372D01*
X88684Y140760D01*
X88925Y140178D01*
X89254Y139642D01*
X89663Y139163D01*
X90142Y138754D01*
X90678Y138425D01*
X91260Y138184D01*
X91872Y138037D01*
X92500Y137988D01*
X93128Y138037D01*
X93740Y138184D01*
X94322Y138425D01*
X94858Y138754D01*
X95000Y138875D01*
Y127303D01*
X91197Y123500D01*
X47800D01*
Y139250D01*
X52409D01*
X52414Y132165D01*
X52469Y131935D01*
X52559Y131717D01*
X52683Y131516D01*
X52836Y131336D01*
X53016Y131183D01*
X53217Y131059D01*
X53435Y130969D01*
X53665Y130914D01*
X53900Y130900D01*
X66335Y130914D01*
X66565Y130969D01*
X66783Y131059D01*
X66984Y131183D01*
X67164Y131336D01*
X67317Y131516D01*
X67441Y131717D01*
X67531Y131935D01*
X67586Y132165D01*
X67600Y132400D01*
X67586Y153835D01*
X67531Y154065D01*
X67441Y154283D01*
X67317Y154484D01*
X67164Y154664D01*
X66984Y154817D01*
X66783Y154941D01*
X66565Y155031D01*
X66335Y155086D01*
X66100Y155100D01*
X53665Y155086D01*
X53435Y155031D01*
X53217Y154941D01*
X53016Y154817D01*
X52836Y154664D01*
X52683Y154484D01*
X52559Y154283D01*
X52469Y154065D01*
X52414Y153835D01*
X52400Y153600D01*
X52404Y146750D01*
X47800D01*
Y161645D01*
G37*
G36*
X30594Y138701D02*X41935Y138714D01*
X42165Y138769D01*
X42383Y138859D01*
X42584Y138983D01*
X42764Y139136D01*
X42861Y139250D01*
X47800D01*
Y123500D01*
X30594D01*
Y129701D01*
X41935Y129714D01*
X42165Y129769D01*
X42383Y129859D01*
X42584Y129983D01*
X42764Y130136D01*
X42917Y130316D01*
X43041Y130517D01*
X43131Y130735D01*
X43186Y130965D01*
X43200Y131200D01*
X43186Y137035D01*
X43131Y137265D01*
X43041Y137483D01*
X42917Y137684D01*
X42764Y137864D01*
X42584Y138017D01*
X42383Y138141D01*
X42165Y138231D01*
X41935Y138286D01*
X41700Y138300D01*
X30594Y138288D01*
Y138701D01*
G37*
G36*
Y163250D02*X45947D01*
X46744Y162452D01*
X46840Y162340D01*
X47289Y161957D01*
X47289Y161957D01*
X47792Y161648D01*
X47800Y161645D01*
Y146750D01*
X42861D01*
X42764Y146864D01*
X42584Y147017D01*
X42383Y147141D01*
X42165Y147231D01*
X41935Y147286D01*
X41700Y147300D01*
X30594Y147288D01*
Y147801D01*
X41935Y147814D01*
X42165Y147869D01*
X42383Y147959D01*
X42584Y148083D01*
X42764Y148236D01*
X42917Y148416D01*
X43041Y148617D01*
X43131Y148835D01*
X43186Y149065D01*
X43200Y149300D01*
X43186Y155135D01*
X43131Y155365D01*
X43041Y155583D01*
X42917Y155784D01*
X42764Y155964D01*
X42584Y156117D01*
X42383Y156241D01*
X42165Y156331D01*
X41935Y156386D01*
X41700Y156400D01*
X30594Y156388D01*
Y163250D01*
G37*
G36*
X14250Y168500D02*X24792D01*
X24684Y168240D01*
X24537Y167628D01*
X24488Y167000D01*
X24537Y166372D01*
X24684Y165760D01*
X24925Y165178D01*
X25254Y164642D01*
X25663Y164163D01*
X26142Y163754D01*
X26678Y163425D01*
X27260Y163184D01*
X27872Y163037D01*
X28500Y162988D01*
X29128Y163037D01*
X29740Y163184D01*
X29899Y163250D01*
X30594D01*
Y156388D01*
X29265Y156386D01*
X29035Y156331D01*
X28817Y156241D01*
X28616Y156117D01*
X28436Y155964D01*
X28339Y155850D01*
X23098D01*
X22628Y155963D01*
X22000Y156012D01*
X21372Y155963D01*
X20760Y155816D01*
X20178Y155575D01*
X19642Y155246D01*
X19163Y154837D01*
X18754Y154358D01*
X18425Y153822D01*
X18184Y153240D01*
X18037Y152628D01*
X17988Y152000D01*
X18037Y151372D01*
X18184Y150760D01*
X18425Y150178D01*
X18754Y149642D01*
X19163Y149163D01*
X19642Y148754D01*
X20178Y148425D01*
X20760Y148184D01*
X21372Y148037D01*
X22000Y147988D01*
X22628Y148037D01*
X23240Y148184D01*
X23641Y148350D01*
X28339D01*
X28436Y148236D01*
X28616Y148083D01*
X28817Y147959D01*
X29035Y147869D01*
X29265Y147814D01*
X29500Y147800D01*
X30594Y147801D01*
Y147288D01*
X29265Y147286D01*
X29035Y147231D01*
X28817Y147141D01*
X28616Y147017D01*
X28436Y146864D01*
X28283Y146684D01*
X28159Y146483D01*
X28069Y146265D01*
X28014Y146035D01*
X28000Y145800D01*
X28014Y139965D01*
X28069Y139735D01*
X28159Y139517D01*
X28283Y139316D01*
X28436Y139136D01*
X28616Y138983D01*
X28817Y138859D01*
X29035Y138769D01*
X29265Y138714D01*
X29500Y138700D01*
X30594Y138701D01*
Y138288D01*
X29265Y138286D01*
X29035Y138231D01*
X28817Y138141D01*
X28616Y138017D01*
X28436Y137864D01*
X28339Y137750D01*
X25875D01*
X25587Y138087D01*
X25108Y138496D01*
X24572Y138825D01*
X23990Y139066D01*
X23378Y139213D01*
X22750Y139262D01*
X22122Y139213D01*
X21510Y139066D01*
X20928Y138825D01*
X20392Y138496D01*
X19913Y138087D01*
X19504Y137608D01*
X19175Y137072D01*
X18934Y136490D01*
X18787Y135878D01*
X18738Y135250D01*
X18787Y134622D01*
X18934Y134010D01*
X19175Y133428D01*
X19504Y132892D01*
X19913Y132413D01*
X20392Y132004D01*
X20928Y131675D01*
X21088Y131609D01*
X21244Y131452D01*
X21340Y131340D01*
X21789Y130957D01*
X21789Y130957D01*
X22292Y130648D01*
X22838Y130423D01*
X23412Y130285D01*
X24000Y130238D01*
X24147Y130250D01*
X28339D01*
X28436Y130136D01*
X28616Y129983D01*
X28817Y129859D01*
X29035Y129769D01*
X29265Y129714D01*
X29500Y129700D01*
X30594Y129701D01*
Y123500D01*
X14542D01*
X14793Y124105D01*
X14958Y124794D01*
X15000Y125500D01*
X14958Y126206D01*
X14793Y126895D01*
X14522Y127549D01*
X14250Y127993D01*
Y133007D01*
X14522Y133451D01*
X14793Y134105D01*
X14958Y134794D01*
X15000Y135500D01*
X14958Y136206D01*
X14793Y136895D01*
X14522Y137549D01*
X14250Y137993D01*
Y143007D01*
X14522Y143451D01*
X14793Y144105D01*
X14958Y144794D01*
X15000Y145500D01*
X14958Y146206D01*
X14793Y146895D01*
X14522Y147549D01*
X14250Y147993D01*
Y153007D01*
X14522Y153451D01*
X14793Y154105D01*
X14958Y154794D01*
X15000Y155500D01*
X14958Y156206D01*
X14793Y156895D01*
X14522Y157549D01*
X14250Y157993D01*
Y163007D01*
X14522Y163451D01*
X14793Y164105D01*
X14958Y164794D01*
X15000Y165500D01*
X14958Y166206D01*
X14793Y166895D01*
X14522Y167549D01*
X14250Y167993D01*
Y168500D01*
G37*
G36*
X26500Y53000D02*Y105500D01*
X99000D01*
Y53000D01*
X82500D01*
Y62000D01*
X83500Y63000D01*
Y89500D01*
X78000Y95000D01*
X69000D01*
X64000Y90000D01*
X59000D01*
X55000Y86000D01*
X49500D01*
X45500Y82000D01*
Y73500D01*
X57000Y62000D01*
X63500D01*
Y53000D01*
X26500D01*
G37*
G54D26*X110500Y15500D02*X70500D01*
Y39500D02*Y35000D01*
X70000Y38250D02*X59250D01*
X70500Y35000D02*X60250D01*
X110500Y205500D02*X60500D01*
X28500Y167000D02*X47500D01*
X49500Y165000D02*X81000D01*
X47500Y167000D02*X49500Y165000D01*
X42500Y182000D02*X52250Y172250D01*
X59000Y174500D02*X56500Y172000D01*
X52500D01*
X52000Y172500D01*
X22000Y182000D02*X42500D01*
X30500Y205500D02*X10500D01*
X35600Y143000D02*X60000D01*
X35600Y152100D02*X22100D01*
X22000Y152000D01*
X35600Y134000D02*X24000D01*
X22750Y135250D01*
X10500Y105500D02*X110500D01*
X92500Y142000D02*Y153500D01*
X81000Y165000D01*
X59500Y116500D02*X89500D01*
X100000Y127000D01*
X110500Y15500D02*Y205500D01*
X63500Y50000D02*X67500Y46000D01*
X84000Y62000D02*Y105500D01*
X67500Y46000D02*X77000D01*
X44750Y73750D02*Y105250D01*
X50500Y37500D02*X41000D01*
X33500Y30000D02*X41000Y37500D01*
Y55500D01*
X44750Y105250D02*X45000Y105500D01*
X59000Y74500D02*X57000D01*
X54000Y77500D01*
Y105500D01*
X10500Y15500D02*Y205500D01*
X33500Y27000D02*Y30000D01*
X30500Y15500D02*Y24000D01*
X33500Y27000D01*
X20500Y15500D02*X10500D01*
X69000Y95500D02*X63500Y90000D01*
X59500D01*
X56000Y86500D01*
X50500D01*
X44750Y80750D01*
Y73750D02*X55000Y63500D01*
X61000D01*
X63500Y61000D01*
X50500Y15500D02*Y26000D01*
X59500Y35000D01*
X60250D02*X59000Y36250D01*
X77000Y46000D02*X81500Y50500D01*
Y59500D01*
X84000Y62000D01*
Y89500D02*X78000Y95500D01*
X69000D01*
X63500Y61000D02*Y50000D01*
G54D27*X110500Y125500D03*
Y115500D03*
Y105500D03*
Y95500D03*
Y85500D03*
X90500Y105500D03*
X100500D03*
X110500Y175500D03*
Y165500D03*
Y155500D03*
Y145500D03*
G54D25*G36*
X107500Y208500D02*Y202500D01*
X113500D01*
Y208500D01*
X107500D01*
G37*
G54D27*X110500Y195500D03*
Y185500D03*
Y135500D03*
X90500Y205500D03*
X100500D03*
X110500Y75500D03*
Y65500D03*
Y55500D03*
Y45500D03*
Y35500D03*
Y25500D03*
Y15500D03*
X80500D03*
X90500D03*
X100500D03*
G54D25*G36*
X17500Y18500D02*Y12500D01*
X23500D01*
Y18500D01*
X17500D01*
G37*
G54D27*X30500Y15500D03*
X40500D03*
X50500D03*
X60500D03*
X70500D03*
X10500Y25500D03*
Y15500D03*
G54D25*G36*
X17500Y108500D02*Y102500D01*
X23500D01*
Y108500D01*
X17500D01*
G37*
G54D27*X30500Y105500D03*
X60500D03*
X70500D03*
X80500D03*
G54D28*X54000Y79500D03*
X64000D03*
X59000Y74500D03*
G54D27*X10500Y145500D03*
Y135500D03*
Y125500D03*
Y115500D03*
Y105500D03*
Y95500D03*
Y85500D03*
Y75500D03*
Y65500D03*
Y55500D03*
Y45500D03*
Y35500D03*
X40500Y105500D03*
Y205500D03*
X50500Y105500D03*
G54D25*G36*
X17500Y208500D02*Y202500D01*
X23500D01*
Y208500D01*
X17500D01*
G37*
G54D27*X30500Y205500D03*
G54D25*G36*
X7500Y208500D02*Y202500D01*
X13500D01*
Y208500D01*
X7500D01*
G37*
G54D27*X10500Y195500D03*
Y185500D03*
Y175500D03*
Y165500D03*
Y155500D03*
X50500Y205500D03*
X60500D03*
X70500D03*
X80500D03*
G54D28*X54000Y179500D03*
X64000D03*
X59000Y174500D03*
G54D26*X63500Y50000D02*X67500Y46000D01*
X77000D01*
X61000Y63500D02*X63500Y61000D01*
G54D29*X27500Y69500D02*Y57500D01*
Y69500D02*Y57500D01*
Y69500D02*Y57500D01*
G54D26*X63500Y61000D02*Y50000D01*
G54D30*X57586Y37893D02*Y37107D01*
X50500Y37893D02*Y37107D01*
G54D26*X77000Y46000D02*X81500Y50500D01*
Y59500D02*Y50500D01*
Y59500D02*X84000Y62000D01*
Y105500D02*Y62000D01*
X78000Y95500D02*X84000Y89500D01*
X69000Y95500D02*X78000D01*
X63500Y90000D02*X69000Y95500D01*
X59500Y90000D02*X63500D01*
X56000Y86500D02*X59500Y90000D01*
X57000Y74500D02*X59000D01*
X50500Y86500D02*X56000D01*
X44750Y80750D02*X50500Y86500D01*
X44750Y105250D02*Y73750D01*
X55000Y63500D01*
X61000D01*
X54000Y77500D02*X57000Y74500D01*
X54000Y105500D02*Y77500D01*
G54D31*X32300Y134000D02*X38900D01*
X32300Y143000D02*X38900D01*
X32300Y152100D02*X38900D01*
G54D32*X60000Y147500D02*Y138500D01*
G54D33*X56000Y147500D03*
X60000D03*
X64000D03*
Y143500D03*
X60000D03*
X56000D03*
X64000Y151500D03*
X60000D03*
X56000D03*
G54D27*X22000Y152000D03*
Y182000D03*
X28500Y167000D03*
G54D33*X56000Y139500D03*
Y135500D03*
X60000Y139500D03*
Y135500D03*
G54D27*X59500Y116500D03*
G54D33*X70500Y39500D03*
Y35000D03*
G54D27*X38000Y34500D03*
G54D33*X64000Y139500D03*
G54D27*X100500Y127500D03*
X92500Y142000D03*
G54D33*X64000Y135500D03*
G54D27*X22750Y135250D03*
G54D34*G54D35*G54D34*G54D35*G54D34*G54D35*G54D34*G54D35*G54D34*G54D35*G54D36*G54D37*G54D36*G54D37*M02*
