G04 start of page 6 for group -4063 idx -4063 *
G04 Title: (unknown), componentmask *
G04 Creator: pcb 20140316 *
G04 CreationDate: Fri 27 Mar 2015 02:49:08 PM GMT UTC *
G04 For: fosse *
G04 Format: Gerber/RS-274X *
G04 PCB-Dimensions (mil): 1250.00 2150.00 *
G04 PCB-Coordinate-Origin: lower left *
%MOIN*%
%FSLAX25Y25*%
%LNTOPMASK*%
%ADD53C,0.0750*%
%ADD52C,0.0900*%
%ADD51C,0.2250*%
%ADD50R,0.2600X0.2600*%
%ADD49R,0.0300X0.0300*%
%ADD48C,0.0400*%
%ADD47R,0.0572X0.0572*%
%ADD46C,0.0560*%
%ADD45C,0.0001*%
%ADD44C,0.0660*%
%ADD43C,0.4250*%
%ADD42C,0.6250*%
G54D42*X57000Y79000D03*
X77000D03*
G54D43*X67000Y69000D03*
G54D44*X30500Y105500D03*
X40500D03*
X50500D03*
X60500D03*
X70500D03*
X80500D03*
X90500D03*
X100500D03*
G54D45*G36*
X7200Y208800D02*Y202200D01*
X13800D01*
Y208800D01*
X7200D01*
G37*
G54D44*X10500Y195500D03*
Y185500D03*
Y175500D03*
Y165500D03*
Y155500D03*
Y145500D03*
Y135500D03*
Y125500D03*
G54D45*G36*
X17200Y208800D02*Y202200D01*
X23800D01*
Y208800D01*
X17200D01*
G37*
G54D44*X30500Y205500D03*
X40500D03*
G54D46*X57000Y179000D03*
X77000D03*
X67000Y169000D03*
G54D45*G36*
X107200Y208800D02*Y202200D01*
X113800D01*
Y208800D01*
X107200D01*
G37*
G54D44*X110500Y195500D03*
Y185500D03*
Y175500D03*
Y165500D03*
Y155500D03*
Y145500D03*
X50500Y205500D03*
X60500D03*
X70500D03*
X80500D03*
X90500D03*
X100500D03*
X110500Y135500D03*
Y125500D03*
Y115500D03*
Y105500D03*
Y95500D03*
Y85500D03*
Y75500D03*
Y65500D03*
Y55500D03*
Y45500D03*
Y35500D03*
Y25500D03*
Y15500D03*
X10500Y115500D03*
Y105500D03*
Y95500D03*
Y85500D03*
Y75500D03*
Y65500D03*
G54D45*G36*
X17200Y108800D02*Y102200D01*
X23800D01*
Y108800D01*
X17200D01*
G37*
G54D44*X10500Y55500D03*
Y45500D03*
Y35500D03*
Y25500D03*
Y15500D03*
G54D45*G36*
X17200Y18800D02*Y12200D01*
X23800D01*
Y18800D01*
X17200D01*
G37*
G54D44*X30500Y15500D03*
X40500D03*
X50500D03*
X60500D03*
X70500D03*
X80500D03*
X90500D03*
X100500D03*
G54D47*X85819Y62914D02*X88181D01*
X85819Y51104D02*X88181D01*
X95319Y62905D02*X97681D01*
X95319Y51095D02*X97681D01*
G54D48*X87000Y62914D02*X96491D01*
G54D49*X62000Y40000D02*Y33500D01*
X67000Y40000D02*Y33500D01*
X72000Y40000D02*Y33500D01*
X77000Y40000D02*Y33500D01*
Y60500D02*Y54000D01*
X72000Y60500D02*Y54000D01*
G54D48*Y65000D02*Y57250D01*
G54D47*X99905Y118681D02*Y116319D01*
X88095Y135181D02*Y132819D01*
X99905Y135181D02*Y132819D01*
X88095Y152181D02*Y149819D01*
X99905Y152181D02*Y149819D01*
X49607Y124043D02*X50393D01*
G54D50*X57250Y144500D02*X69750D01*
G54D47*X49607Y116957D02*X50393D01*
G54D51*X22500Y98000D02*X99000D01*
X18000Y93500D02*X22500Y98000D01*
G54D47*X88095Y118681D02*Y116319D01*
X66595Y118681D02*Y116319D01*
X78405Y118681D02*Y116319D01*
G54D51*X99000Y98000D02*X103000Y94000D01*
Y58000D01*
G54D48*X77000Y79000D02*Y70000D01*
X72000Y65000D02*X77000Y70000D01*
X79914D01*
X87000Y62914D01*
G54D47*X39095Y49505D02*Y43995D01*
G54D51*X18000Y93500D02*Y26000D01*
G54D52*X20000Y46500D02*X38000D01*
G54D53*X39000Y61000D02*Y47000D01*
G54D47*X50905Y49505D02*Y43995D01*
G54D53*Y46750D02*X60500Y56345D01*
G54D49*X67000Y60500D02*Y54000D01*
X62000Y60500D02*Y54000D01*
G54D53*X60500Y58500D02*Y56345D01*
G54D48*X67000Y69000D02*Y59500D01*
X57000Y79000D02*X67000Y69000D01*
G54D51*X39000Y61000D02*X57000Y79000D01*
G54D47*X21819Y128500D02*X24181D01*
X21819Y116690D02*X24181D01*
X36607Y124043D02*X37393D01*
X36607Y116957D02*X37393D01*
X22095Y175681D02*Y173319D01*
X33905Y175681D02*Y173319D01*
X22095Y190681D02*Y188319D01*
X33905Y190681D02*Y188319D01*
X22095Y160181D02*Y157819D01*
X33905Y160181D02*Y157819D01*
M02*
