G04 start of page 7 for group -4062 idx -4062 *
G04 Title: (unknown), soldermask *
G04 Creator: pcb 20140316 *
G04 CreationDate: Fri 27 Mar 2015 02:49:08 PM GMT UTC *
G04 For: fosse *
G04 Format: Gerber/RS-274X *
G04 PCB-Dimensions (mil): 1250.00 2150.00 *
G04 PCB-Coordinate-Origin: lower left *
%MOIN*%
%FSLAX25Y25*%
%LNBOTTOMMASK*%
%ADD65R,0.0620X0.0620*%
%ADD64C,0.2550*%
%ADD63C,0.1000*%
%ADD62C,0.0750*%
%ADD61R,0.1280X0.1280*%
%ADD60R,0.0572X0.0572*%
%ADD59C,0.0550*%
%ADD58C,0.0560*%
%ADD57C,0.0001*%
%ADD56C,0.0660*%
%ADD55C,0.4250*%
%ADD54C,0.6250*%
G54D54*X57000Y79000D03*
X77000D03*
G54D55*X67000Y69000D03*
G54D56*X30500Y105500D03*
X40500D03*
X50500D03*
X60500D03*
X70500D03*
X80500D03*
X90500D03*
X100500D03*
G54D57*G36*
X7200Y208800D02*Y202200D01*
X13800D01*
Y208800D01*
X7200D01*
G37*
G54D56*X10500Y195500D03*
Y185500D03*
Y175500D03*
Y165500D03*
Y155500D03*
Y145500D03*
Y135500D03*
Y125500D03*
G54D57*G36*
X17200Y208800D02*Y202200D01*
X23800D01*
Y208800D01*
X17200D01*
G37*
G54D56*X30500Y205500D03*
X40500D03*
G54D58*X57000Y179000D03*
X77000D03*
X67000Y169000D03*
G54D57*G36*
X107200Y208800D02*Y202200D01*
X113800D01*
Y208800D01*
X107200D01*
G37*
G54D56*X110500Y195500D03*
Y185500D03*
Y175500D03*
Y165500D03*
Y155500D03*
Y145500D03*
X50500Y205500D03*
X60500D03*
X70500D03*
X80500D03*
X90500D03*
X100500D03*
X110500Y135500D03*
Y125500D03*
Y115500D03*
Y105500D03*
Y95500D03*
Y85500D03*
Y75500D03*
Y65500D03*
Y55500D03*
Y45500D03*
Y35500D03*
Y25500D03*
Y15500D03*
X10500Y115500D03*
Y105500D03*
Y95500D03*
Y85500D03*
Y75500D03*
Y65500D03*
G54D57*G36*
X17200Y108800D02*Y102200D01*
X23800D01*
Y108800D01*
X17200D01*
G37*
G54D56*X10500Y55500D03*
Y45500D03*
Y35500D03*
Y25500D03*
Y15500D03*
G54D57*G36*
X17200Y18800D02*Y12200D01*
X23800D01*
Y18800D01*
X17200D01*
G37*
G54D56*X30500Y15500D03*
X40500D03*
X50500D03*
X60500D03*
X70500D03*
X80500D03*
X90500D03*
X100500D03*
G54D59*X83000Y47000D02*X86500Y50500D01*
G54D60*X50905Y38181D02*Y35819D01*
X59745Y34595D02*X65255D01*
G54D61*X60000Y147500D02*Y138500D01*
G54D59*X99000Y98000D02*X103000Y94000D01*
X18000Y93500D02*X22500Y98000D01*
X99000D01*
X103000Y94000D02*Y50500D01*
X86500D02*X103000D01*
G54D62*X25500Y64500D02*Y32000D01*
G54D60*X39095Y38181D02*Y35819D01*
G54D63*X25500Y64500D02*X40000Y79000D01*
G54D64*X18000Y93500D02*Y26000D01*
G54D60*X59745Y46405D02*X65255D01*
G54D59*X40000Y47000D02*X83000D01*
G54D62*X39095Y56095D02*Y46750D01*
X40000Y79000D02*X57000D01*
X39095Y61095D02*Y55595D01*
Y61095D02*X57000Y79000D01*
G54D65*X32300Y134000D02*X38900D01*
X32300Y143000D02*X38900D01*
X32300Y152100D02*X38900D01*
M02*
