G04 start of page 10 for group -4015 idx -4015 *
G04 Title: (unknown), toppaste *
G04 Creator: pcb 20140316 *
G04 CreationDate: Fri 17 Jul 2015 04:35:12 PM GMT UTC *
G04 For: fosse *
G04 Format: Gerber/RS-274X *
G04 PCB-Dimensions (mil): 1250.00 2150.00 *
G04 PCB-Coordinate-Origin: lower left *
%MOIN*%
%FSLAX25Y25*%
%LNTOPPASTE*%
%ADD88C,0.0090*%
%ADD87C,0.0550*%
%ADD86C,0.0200*%
%ADD85R,0.3200X0.3200*%
%ADD84R,0.0197X0.0197*%
%ADD83R,0.0600X0.0600*%
%ADD82R,0.0200X0.0200*%
%ADD81R,0.0512X0.0512*%
G54D81*X21819Y128500D02*X24181D01*
X21819Y116690D02*X24181D01*
X88095Y118681D02*Y116319D01*
X99905Y118681D02*Y116319D01*
X22095Y175681D02*Y173319D01*
X33905Y175681D02*Y173319D01*
X22095Y190681D02*Y188319D01*
X33905Y190681D02*Y188319D01*
X22095Y160181D02*Y157819D01*
X33905Y160181D02*Y157819D01*
X66595Y118681D02*Y116319D01*
X78405Y118681D02*Y116319D01*
X36607Y124043D02*X37393D01*
X36607Y116957D02*X37393D01*
X49607Y124043D02*X50393D01*
X49607Y116957D02*X50393D01*
X88095Y135181D02*Y132819D01*
X99905Y135181D02*Y132819D01*
X88095Y152181D02*Y149819D01*
X99905Y152181D02*Y149819D01*
G54D82*X75500Y61000D02*Y54500D01*
X70500Y61000D02*Y54500D01*
X65500Y61000D02*Y54500D01*
X60500Y61000D02*Y54500D01*
Y40500D02*Y34000D01*
X65500Y40500D02*Y34000D01*
X70500Y40500D02*Y34000D01*
X75500Y40500D02*Y34000D01*
G54D81*X42457Y85893D02*Y85107D01*
X49543Y85893D02*Y85107D01*
X28957Y54893D02*Y54107D01*
X36043Y54893D02*Y54107D01*
G54D83*X44000Y76000D02*X45000D01*
X44000Y64000D02*X45000D01*
G54D81*X74595Y73181D02*Y70819D01*
X86405Y73181D02*Y70819D01*
X74604Y82681D02*Y80319D01*
X86414Y82681D02*Y80319D01*
G54D84*X35635Y69260D02*X36816D01*
X35635Y76740D02*X36816D01*
X26187Y73000D02*X27368D01*
X26187Y76740D02*X27368D01*
X26187Y69260D02*X27368D01*
G54D81*X54957Y94393D02*Y93607D01*
X62043Y94393D02*Y93607D01*
X25457Y42893D02*Y42107D01*
X32543Y42893D02*Y42107D01*
X45957Y31393D02*Y30607D01*
X53043Y31393D02*Y30607D01*
X30957Y94893D02*Y94107D01*
X38043Y94893D02*Y94107D01*
X42457Y43893D02*Y43107D01*
X49543Y43893D02*Y43107D01*
G54D85*X59000Y145000D02*X68000D01*
G54D86*X70500Y67905D02*Y57750D01*
Y67905D02*X74595Y72000D01*
X64000Y79500D02*X73500Y70000D01*
X74604Y81500D02*Y72896D01*
X54000Y79500D02*X59000Y74500D01*
X40500Y70500D02*X51000D01*
X64500Y64500D02*X65500Y63500D01*
X64500Y70000D02*Y64500D01*
X62500Y72000D02*X64500Y70000D01*
X49543Y85500D02*X54000Y81043D01*
X51000Y70500D02*X56500Y65000D01*
X64500D01*
X81000Y58500D02*Y50000D01*
X65500Y63500D02*Y50000D01*
X77500Y93500D02*X82500Y88500D01*
X69500Y93500D02*X77500D01*
X64000Y88000D02*X69500Y93500D01*
X60000Y88000D02*X64000D01*
X56500Y84500D02*X60000Y88000D01*
X42457Y85500D02*X49543D01*
G54D87*X81500Y106000D02*Y92000D01*
X49522Y88565D02*Y85522D01*
Y88565D02*X54957Y94000D01*
G54D88*X82500Y88500D02*Y63500D01*
G54D86*X81000Y58500D02*X82500Y60000D01*
Y63500D02*Y60000D01*
X83070Y88540D02*X83270Y92040D01*
X68500Y47000D02*X78000D01*
X65500Y50000D02*X68500Y47000D01*
X78000D02*X81000Y50000D01*
M02*
