G04 start of page 3 for group 1 idx 1 *
G04 Title: (unknown), solder *
G04 Creator: pcb 20140316 *
G04 CreationDate: Tue 14 Apr 2015 10:04:33 AM GMT UTC *
G04 For: fosse *
G04 Format: Gerber/RS-274X *
G04 PCB-Dimensions (mil): 5250.00 5000.00 *
G04 PCB-Coordinate-Origin: lower left *
%MOIN*%
%FSLAX25Y25*%
%LNBOTTOM*%
%ADD50C,0.0320*%
%ADD49C,0.0790*%
%ADD48C,0.0380*%
%ADD47C,0.0225*%
%ADD46C,0.0240*%
%ADD45C,0.0360*%
%ADD44R,0.0512X0.0512*%
%ADD43R,0.1220X0.1220*%
%ADD42R,0.0560X0.0560*%
%ADD41C,0.1600*%
%ADD40C,0.2000*%
%ADD39C,0.0800*%
%ADD38C,0.0600*%
%ADD37C,0.0500*%
%ADD36C,0.0200*%
%ADD35C,0.0400*%
%ADD34C,0.0350*%
%ADD33C,0.0550*%
%ADD32C,0.0001*%
G54D32*G36*
X255000Y396000D02*X272500D01*
Y368500D01*
X255000D01*
Y396000D01*
G37*
G36*
X251800Y402250D02*X257947D01*
X262244Y397952D01*
X262340Y397840D01*
X262789Y397457D01*
X262789Y397457D01*
X263292Y397148D01*
X263838Y396923D01*
X264412Y396785D01*
X265000Y396738D01*
X265147Y396750D01*
X286947D01*
X292750Y390947D01*
Y382399D01*
X292684Y382240D01*
X292537Y381628D01*
X292488Y381000D01*
X292537Y380372D01*
X292684Y379760D01*
X292925Y379178D01*
X293254Y378642D01*
X293663Y378163D01*
X294142Y377754D01*
X294678Y377425D01*
X295260Y377184D01*
X295872Y377037D01*
X296500Y376988D01*
X297128Y377037D01*
X297740Y377184D01*
X298322Y377425D01*
X298858Y377754D01*
X299000Y377875D01*
Y366303D01*
X295197Y362500D01*
X251800D01*
Y378250D01*
X256409D01*
X256414Y371165D01*
X256469Y370935D01*
X256559Y370717D01*
X256683Y370516D01*
X256836Y370336D01*
X257016Y370183D01*
X257217Y370059D01*
X257435Y369969D01*
X257665Y369914D01*
X257900Y369900D01*
X270335Y369914D01*
X270565Y369969D01*
X270783Y370059D01*
X270984Y370183D01*
X271164Y370336D01*
X271317Y370516D01*
X271441Y370717D01*
X271531Y370935D01*
X271586Y371165D01*
X271600Y371400D01*
X271586Y392835D01*
X271531Y393065D01*
X271441Y393283D01*
X271317Y393484D01*
X271164Y393664D01*
X270984Y393817D01*
X270783Y393941D01*
X270565Y394031D01*
X270335Y394086D01*
X270100Y394100D01*
X257665Y394086D01*
X257435Y394031D01*
X257217Y393941D01*
X257016Y393817D01*
X256836Y393664D01*
X256683Y393484D01*
X256559Y393283D01*
X256469Y393065D01*
X256414Y392835D01*
X256400Y392600D01*
X256404Y385750D01*
X251800D01*
Y402250D01*
G37*
G36*
X234594Y377701D02*X245935Y377714D01*
X246165Y377769D01*
X246383Y377859D01*
X246584Y377983D01*
X246764Y378136D01*
X246861Y378250D01*
X251800D01*
Y362500D01*
X234594D01*
Y368701D01*
X245935Y368714D01*
X246165Y368769D01*
X246383Y368859D01*
X246584Y368983D01*
X246764Y369136D01*
X246917Y369316D01*
X247041Y369517D01*
X247131Y369735D01*
X247186Y369965D01*
X247200Y370200D01*
X247186Y376035D01*
X247131Y376265D01*
X247041Y376483D01*
X246917Y376684D01*
X246764Y376864D01*
X246584Y377017D01*
X246383Y377141D01*
X246165Y377231D01*
X245935Y377286D01*
X245700Y377300D01*
X234594Y377288D01*
Y377701D01*
G37*
G36*
Y402250D02*X251800D01*
Y385750D01*
X246861D01*
X246764Y385864D01*
X246584Y386017D01*
X246383Y386141D01*
X246165Y386231D01*
X245935Y386286D01*
X245700Y386300D01*
X234594Y386288D01*
Y386801D01*
X245935Y386814D01*
X246165Y386869D01*
X246383Y386959D01*
X246584Y387083D01*
X246764Y387236D01*
X246917Y387416D01*
X247041Y387617D01*
X247131Y387835D01*
X247186Y388065D01*
X247200Y388300D01*
X247186Y394135D01*
X247131Y394365D01*
X247041Y394583D01*
X246917Y394784D01*
X246764Y394964D01*
X246584Y395117D01*
X246383Y395241D01*
X246165Y395331D01*
X245935Y395386D01*
X245700Y395400D01*
X234594Y395388D01*
Y402250D01*
G37*
G36*
X218250Y407500D02*X228792D01*
X228684Y407240D01*
X228537Y406628D01*
X228488Y406000D01*
X228537Y405372D01*
X228684Y404760D01*
X228925Y404178D01*
X229254Y403642D01*
X229663Y403163D01*
X230142Y402754D01*
X230678Y402425D01*
X231260Y402184D01*
X231872Y402037D01*
X232500Y401988D01*
X233128Y402037D01*
X233740Y402184D01*
X233899Y402250D01*
X234594D01*
Y395388D01*
X233265Y395386D01*
X233035Y395331D01*
X232817Y395241D01*
X232616Y395117D01*
X232436Y394964D01*
X232339Y394850D01*
X227098D01*
X226628Y394963D01*
X226000Y395012D01*
X225372Y394963D01*
X224760Y394816D01*
X224178Y394575D01*
X223642Y394246D01*
X223163Y393837D01*
X222754Y393358D01*
X222425Y392822D01*
X222184Y392240D01*
X222037Y391628D01*
X221988Y391000D01*
X222037Y390372D01*
X222184Y389760D01*
X222425Y389178D01*
X222754Y388642D01*
X223163Y388163D01*
X223642Y387754D01*
X224178Y387425D01*
X224760Y387184D01*
X225372Y387037D01*
X226000Y386988D01*
X226628Y387037D01*
X227240Y387184D01*
X227641Y387350D01*
X232339D01*
X232436Y387236D01*
X232616Y387083D01*
X232817Y386959D01*
X233035Y386869D01*
X233265Y386814D01*
X233500Y386800D01*
X234594Y386801D01*
Y386288D01*
X233265Y386286D01*
X233035Y386231D01*
X232817Y386141D01*
X232616Y386017D01*
X232436Y385864D01*
X232283Y385684D01*
X232159Y385483D01*
X232069Y385265D01*
X232014Y385035D01*
X232000Y384800D01*
X232014Y378965D01*
X232069Y378735D01*
X232159Y378517D01*
X232283Y378316D01*
X232436Y378136D01*
X232616Y377983D01*
X232817Y377859D01*
X233035Y377769D01*
X233265Y377714D01*
X233500Y377700D01*
X234594Y377701D01*
Y377288D01*
X233265Y377286D01*
X233035Y377231D01*
X232817Y377141D01*
X232616Y377017D01*
X232436Y376864D01*
X232339Y376750D01*
X229875D01*
X229587Y377087D01*
X229108Y377496D01*
X228572Y377825D01*
X227990Y378066D01*
X227378Y378213D01*
X226750Y378262D01*
X226122Y378213D01*
X225510Y378066D01*
X224928Y377825D01*
X224392Y377496D01*
X223913Y377087D01*
X223504Y376608D01*
X223175Y376072D01*
X222934Y375490D01*
X222787Y374878D01*
X222738Y374250D01*
X222787Y373622D01*
X222934Y373010D01*
X223175Y372428D01*
X223504Y371892D01*
X223913Y371413D01*
X224392Y371004D01*
X224928Y370675D01*
X225088Y370609D01*
X225244Y370452D01*
X225340Y370340D01*
X225789Y369957D01*
X225789Y369957D01*
X226292Y369648D01*
X226838Y369423D01*
X227412Y369285D01*
X228000Y369238D01*
X228147Y369250D01*
X232339D01*
X232436Y369136D01*
X232616Y368983D01*
X232817Y368859D01*
X233035Y368769D01*
X233265Y368714D01*
X233500Y368700D01*
X234594Y368701D01*
Y362500D01*
X218542D01*
X218793Y363105D01*
X218958Y363794D01*
X219000Y364500D01*
X218958Y365206D01*
X218793Y365895D01*
X218522Y366549D01*
X218250Y366993D01*
Y372007D01*
X218522Y372451D01*
X218793Y373105D01*
X218958Y373794D01*
X219000Y374500D01*
X218958Y375206D01*
X218793Y375895D01*
X218522Y376549D01*
X218250Y376993D01*
Y382007D01*
X218522Y382451D01*
X218793Y383105D01*
X218958Y383794D01*
X219000Y384500D01*
X218958Y385206D01*
X218793Y385895D01*
X218522Y386549D01*
X218250Y386993D01*
Y392007D01*
X218522Y392451D01*
X218793Y393105D01*
X218958Y393794D01*
X219000Y394500D01*
X218958Y395206D01*
X218793Y395895D01*
X218522Y396549D01*
X218250Y396993D01*
Y402007D01*
X218522Y402451D01*
X218793Y403105D01*
X218958Y403794D01*
X219000Y404500D01*
X218958Y405206D01*
X218793Y405895D01*
X218522Y406549D01*
X218250Y406993D01*
Y407500D01*
G37*
G36*
X376146Y105861D02*X376364Y106236D01*
X376557Y106665D01*
X376708Y107109D01*
X376818Y107566D01*
X376883Y108031D01*
X376898Y108333D01*
X376946Y107715D01*
X377130Y106950D01*
X377431Y106223D01*
X377842Y105552D01*
X378354Y104954D01*
X378952Y104442D01*
X379623Y104031D01*
X380350Y103730D01*
X381115Y103546D01*
X381900Y103485D01*
X382685Y103546D01*
X383450Y103730D01*
X384177Y104031D01*
X384848Y104442D01*
X385446Y104954D01*
X385958Y105552D01*
X386369Y106223D01*
X386670Y106950D01*
X386854Y107715D01*
X386893Y108388D01*
X386946Y107715D01*
X387130Y106950D01*
X387431Y106223D01*
X387842Y105552D01*
X388354Y104954D01*
X388900Y104487D01*
Y101743D01*
X376146Y88988D01*
Y105861D01*
G37*
G36*
X386267Y237500D02*X402400D01*
X412400Y227500D01*
Y90000D01*
X403900Y81500D01*
X386267D01*
Y90624D01*
X393938Y98296D01*
X394028Y98372D01*
X394334Y98731D01*
X394335Y98731D01*
X394581Y99134D01*
X394762Y99570D01*
X394872Y100029D01*
X394909Y100500D01*
X394900Y100618D01*
Y104487D01*
X395446Y104954D01*
X395958Y105552D01*
X396369Y106223D01*
X396670Y106950D01*
X396854Y107715D01*
X396893Y108388D01*
X396946Y107715D01*
X397130Y106950D01*
X397431Y106223D01*
X397842Y105552D01*
X398354Y104954D01*
X398952Y104442D01*
X399623Y104031D01*
X400350Y103730D01*
X401115Y103546D01*
X401900Y103485D01*
X402685Y103546D01*
X403450Y103730D01*
X404177Y104031D01*
X404848Y104442D01*
X405446Y104954D01*
X405958Y105552D01*
X406369Y106223D01*
X406670Y106950D01*
X406854Y107715D01*
X406900Y108500D01*
X406854Y109285D01*
X406670Y110050D01*
X406369Y110777D01*
X405958Y111448D01*
X405446Y112046D01*
X404848Y112558D01*
X404177Y112969D01*
X403450Y113270D01*
X402685Y113454D01*
X401900Y113515D01*
X401115Y113454D01*
X400350Y113270D01*
X399623Y112969D01*
X398952Y112558D01*
X398354Y112046D01*
X397842Y111448D01*
X397431Y110777D01*
X397130Y110050D01*
X396946Y109285D01*
X396893Y108612D01*
X396854Y109285D01*
X396670Y110050D01*
X396369Y110777D01*
X395958Y111448D01*
X395446Y112046D01*
X394848Y112558D01*
X394177Y112969D01*
X393450Y113270D01*
X392685Y113454D01*
X391900Y113515D01*
X391115Y113454D01*
X390350Y113270D01*
X389623Y112969D01*
X388952Y112558D01*
X388354Y112046D01*
X387842Y111448D01*
X387431Y110777D01*
X387130Y110050D01*
X386946Y109285D01*
X386893Y108612D01*
X386854Y109285D01*
X386670Y110050D01*
X386369Y110777D01*
X386267Y110943D01*
Y156057D01*
X386369Y156223D01*
X386670Y156950D01*
X386854Y157715D01*
X386900Y158500D01*
X386854Y159285D01*
X386670Y160050D01*
X386369Y160777D01*
X386267Y160943D01*
Y171000D01*
X387430D01*
X387749Y170728D01*
X388125Y170497D01*
X388532Y170329D01*
X388961Y170226D01*
X389400Y170191D01*
X389839Y170226D01*
X390268Y170329D01*
X390675Y170497D01*
X391051Y170728D01*
X391386Y171014D01*
X391672Y171349D01*
X391903Y171725D01*
X392071Y172132D01*
X392174Y172561D01*
X392200Y173000D01*
X392174Y173439D01*
X392071Y173868D01*
X391903Y174275D01*
X391672Y174651D01*
X391386Y174986D01*
X391051Y175272D01*
X390675Y175503D01*
X390268Y175671D01*
X389839Y175774D01*
X389400Y175809D01*
X388961Y175774D01*
X388532Y175671D01*
X388125Y175503D01*
X387749Y175272D01*
X387430Y175000D01*
X386267D01*
Y211286D01*
X386270Y211287D01*
X386338Y211326D01*
X386400Y211375D01*
X386452Y211434D01*
X386494Y211500D01*
X386657Y211825D01*
X386786Y212165D01*
X386884Y212515D01*
X386950Y212873D01*
X386983Y213235D01*
Y213599D01*
X386950Y213961D01*
X386884Y214319D01*
X386786Y214669D01*
X386657Y215009D01*
X386498Y215336D01*
X386455Y215402D01*
X386402Y215461D01*
X386340Y215510D01*
X386271Y215550D01*
X386267Y215552D01*
Y237500D01*
G37*
G36*
Y160943D02*X385958Y161448D01*
X385446Y162046D01*
X384848Y162558D01*
X384177Y162969D01*
X383450Y163270D01*
X382985Y163382D01*
Y171000D01*
X386267D01*
Y160943D01*
G37*
G36*
Y110943D02*X385958Y111448D01*
X385446Y112046D01*
X384848Y112558D01*
X384177Y112969D01*
X383450Y113270D01*
X382985Y113382D01*
Y153618D01*
X383450Y153730D01*
X384177Y154031D01*
X384848Y154442D01*
X385446Y154954D01*
X385958Y155552D01*
X386267Y156057D01*
Y110943D01*
G37*
G36*
Y81500D02*X382985D01*
Y87342D01*
X386267Y90624D01*
Y81500D01*
G37*
G36*
X382985Y237500D02*X386267D01*
Y215552D01*
X386197Y215578D01*
X386120Y215594D01*
X386041Y215598D01*
X385962Y215590D01*
X385886Y215569D01*
X385813Y215537D01*
X385747Y215494D01*
X385688Y215440D01*
X385639Y215379D01*
X385599Y215310D01*
X385571Y215236D01*
X385555Y215159D01*
X385551Y215080D01*
X385559Y215001D01*
X385580Y214924D01*
X385614Y214853D01*
X385736Y214610D01*
X385833Y214355D01*
X385906Y214092D01*
X385955Y213824D01*
X385980Y213553D01*
Y213281D01*
X385955Y213009D01*
X385906Y212741D01*
X385833Y212479D01*
X385736Y212224D01*
X385616Y211979D01*
X385583Y211908D01*
X385562Y211832D01*
X385554Y211754D01*
X385558Y211676D01*
X385574Y211599D01*
X385602Y211525D01*
X385641Y211457D01*
X385691Y211396D01*
X385749Y211343D01*
X385815Y211300D01*
X385887Y211268D01*
X385963Y211247D01*
X386041Y211239D01*
X386119Y211243D01*
X386196Y211259D01*
X386267Y211286D01*
Y175000D01*
X382985D01*
Y209417D01*
X383165D01*
X383527Y209450D01*
X383885Y209516D01*
X384235Y209614D01*
X384575Y209743D01*
X384902Y209902D01*
X384968Y209945D01*
X385027Y209998D01*
X385077Y210060D01*
X385116Y210129D01*
X385144Y210203D01*
X385161Y210280D01*
X385165Y210359D01*
X385156Y210438D01*
X385135Y210514D01*
X385103Y210587D01*
X385060Y210653D01*
X385007Y210712D01*
X384945Y210761D01*
X384876Y210801D01*
X384802Y210829D01*
X384725Y210845D01*
X384646Y210849D01*
X384567Y210841D01*
X384491Y210820D01*
X384419Y210786D01*
X384176Y210664D01*
X383921Y210567D01*
X383659Y210494D01*
X383391Y210445D01*
X383119Y210420D01*
X382985D01*
Y216414D01*
X383119D01*
X383391Y216389D01*
X383659Y216340D01*
X383921Y216267D01*
X384176Y216170D01*
X384421Y216050D01*
X384492Y216017D01*
X384568Y215996D01*
X384646Y215988D01*
X384724Y215992D01*
X384801Y216008D01*
X384875Y216036D01*
X384943Y216075D01*
X385004Y216124D01*
X385057Y216183D01*
X385100Y216249D01*
X385132Y216321D01*
X385153Y216396D01*
X385161Y216475D01*
X385157Y216553D01*
X385141Y216630D01*
X385113Y216704D01*
X385074Y216772D01*
X385025Y216833D01*
X384966Y216886D01*
X384900Y216928D01*
X384575Y217091D01*
X384235Y217220D01*
X383885Y217318D01*
X383527Y217384D01*
X383165Y217417D01*
X382985D01*
Y237500D01*
G37*
G36*
Y163382D02*X382685Y163454D01*
X381900Y163515D01*
X381115Y163454D01*
X380350Y163270D01*
X379623Y162969D01*
X378952Y162558D01*
X378354Y162046D01*
X377842Y161448D01*
X377431Y160777D01*
X377130Y160050D01*
X376946Y159285D01*
X376893Y158612D01*
X376854Y159285D01*
X376670Y160050D01*
X376369Y160777D01*
X376146Y161141D01*
Y171000D01*
X382985D01*
Y163382D01*
G37*
G36*
Y113382D02*X382685Y113454D01*
X381900Y113515D01*
X381115Y113454D01*
X380350Y113270D01*
X379623Y112969D01*
X378952Y112558D01*
X378354Y112046D01*
X377842Y111448D01*
X377431Y110777D01*
X377130Y110050D01*
X376946Y109285D01*
X376898Y108667D01*
X376883Y108969D01*
X376818Y109434D01*
X376708Y109891D01*
X376557Y110335D01*
X376364Y110764D01*
X376146Y111149D01*
Y155859D01*
X376369Y156223D01*
X376670Y156950D01*
X376854Y157715D01*
X376893Y158388D01*
X376946Y157715D01*
X377130Y156950D01*
X377431Y156223D01*
X377842Y155552D01*
X378354Y154954D01*
X378952Y154442D01*
X379623Y154031D01*
X380350Y153730D01*
X381115Y153546D01*
X381900Y153485D01*
X382685Y153546D01*
X382985Y153618D01*
Y113382D01*
G37*
G36*
Y81500D02*X376146D01*
Y82000D01*
X376282D01*
X376400Y81991D01*
X376871Y82028D01*
X376871Y82028D01*
X377330Y82138D01*
X377766Y82319D01*
X378169Y82565D01*
X378528Y82872D01*
X378604Y82962D01*
X382985Y87342D01*
Y81500D01*
G37*
G36*
X379699Y237500D02*X382985D01*
Y217417D01*
X382801D01*
X382439Y217384D01*
X382081Y217318D01*
X381731Y217220D01*
X381391Y217091D01*
X381064Y216931D01*
X380998Y216889D01*
X380939Y216836D01*
X380890Y216774D01*
X380850Y216705D01*
X380822Y216631D01*
X380806Y216554D01*
X380802Y216475D01*
X380810Y216396D01*
X380831Y216319D01*
X380863Y216247D01*
X380906Y216181D01*
X380960Y216122D01*
X381021Y216072D01*
X381090Y216033D01*
X381164Y216005D01*
X381241Y215989D01*
X381320Y215985D01*
X381399Y215993D01*
X381476Y216014D01*
X381547Y216047D01*
X381790Y216170D01*
X382045Y216267D01*
X382308Y216340D01*
X382576Y216389D01*
X382847Y216414D01*
X382985D01*
Y210420D01*
X382847D01*
X382576Y210445D01*
X382308Y210494D01*
X382045Y210567D01*
X381790Y210664D01*
X381546Y210784D01*
X381475Y210817D01*
X381399Y210838D01*
X381320Y210846D01*
X381242Y210842D01*
X381165Y210826D01*
X381091Y210798D01*
X381023Y210759D01*
X380962Y210709D01*
X380909Y210651D01*
X380866Y210585D01*
X380834Y210513D01*
X380813Y210437D01*
X380805Y210359D01*
X380809Y210281D01*
X380825Y210204D01*
X380853Y210130D01*
X380892Y210062D01*
X380941Y210000D01*
X381000Y209948D01*
X381066Y209906D01*
X381391Y209743D01*
X381731Y209614D01*
X382081Y209516D01*
X382439Y209450D01*
X382801Y209417D01*
X382985D01*
Y175000D01*
X379699D01*
Y211282D01*
X379769Y211256D01*
X379846Y211239D01*
X379925Y211235D01*
X380004Y211244D01*
X380081Y211265D01*
X380153Y211297D01*
X380219Y211340D01*
X380278Y211393D01*
X380328Y211455D01*
X380367Y211524D01*
X380395Y211598D01*
X380411Y211675D01*
X380415Y211754D01*
X380407Y211833D01*
X380386Y211909D01*
X380353Y211981D01*
X380230Y212224D01*
X380133Y212479D01*
X380060Y212741D01*
X380011Y213009D01*
X379986Y213281D01*
Y213553D01*
X380011Y213824D01*
X380060Y214092D01*
X380133Y214355D01*
X380230Y214610D01*
X380350Y214854D01*
X380383Y214925D01*
X380404Y215001D01*
X380412Y215080D01*
X380408Y215158D01*
X380392Y215235D01*
X380364Y215309D01*
X380325Y215377D01*
X380276Y215438D01*
X380217Y215491D01*
X380151Y215534D01*
X380079Y215566D01*
X380004Y215587D01*
X379925Y215595D01*
X379847Y215591D01*
X379770Y215575D01*
X379699Y215548D01*
Y237500D01*
G37*
G36*
X376146D02*X379699D01*
Y215548D01*
X379696Y215547D01*
X379628Y215508D01*
X379567Y215459D01*
X379514Y215400D01*
X379472Y215334D01*
X379309Y215009D01*
X379180Y214669D01*
X379082Y214319D01*
X379016Y213961D01*
X378983Y213599D01*
Y213235D01*
X379016Y212873D01*
X379082Y212515D01*
X379180Y212165D01*
X379309Y211825D01*
X379469Y211498D01*
X379511Y211432D01*
X379564Y211373D01*
X379626Y211323D01*
X379695Y211284D01*
X379699Y211282D01*
Y175000D01*
X376146D01*
Y237500D01*
G37*
G36*
Y81500D02*X291400D01*
Y98000D01*
X303400D01*
Y112757D01*
X303900Y113257D01*
Y91618D01*
X303891Y91500D01*
X303928Y91029D01*
X304038Y90570D01*
X304219Y90134D01*
X304465Y89731D01*
X304466Y89731D01*
X304772Y89372D01*
X304862Y89296D01*
X311196Y82962D01*
X311272Y82872D01*
X311631Y82566D01*
X311631Y82565D01*
X312034Y82319D01*
X312470Y82138D01*
X312929Y82028D01*
X313400Y81991D01*
X313518Y82000D01*
X376146D01*
Y81500D01*
G37*
G36*
X371902Y153485D02*X372685Y153546D01*
X373450Y153730D01*
X374177Y154031D01*
X374848Y154442D01*
X375446Y154954D01*
X375958Y155552D01*
X376146Y155859D01*
Y111149D01*
X376132Y111172D01*
X376085Y111236D01*
X376028Y111292D01*
X375964Y111337D01*
X375892Y111372D01*
X375817Y111396D01*
X375738Y111407D01*
X375659Y111406D01*
X375580Y111393D01*
X375505Y111367D01*
X375435Y111330D01*
X375371Y111283D01*
X375316Y111226D01*
X375270Y111161D01*
X375235Y111090D01*
X375212Y111014D01*
X375200Y110935D01*
X375201Y110856D01*
X375215Y110778D01*
X375240Y110703D01*
X375279Y110633D01*
X375468Y110309D01*
X375621Y109967D01*
X375742Y109612D01*
X375830Y109246D01*
X375882Y108875D01*
X375900Y108500D01*
X375882Y108125D01*
X375830Y107754D01*
X375742Y107388D01*
X375621Y107033D01*
X375468Y106691D01*
X375282Y106365D01*
X375244Y106296D01*
X375219Y106221D01*
X375206Y106144D01*
X375205Y106065D01*
X375216Y105987D01*
X375239Y105912D01*
X375274Y105841D01*
X375319Y105777D01*
X375374Y105721D01*
X375437Y105673D01*
X375507Y105637D01*
X375581Y105612D01*
X375659Y105598D01*
X375738Y105597D01*
X375816Y105608D01*
X375891Y105632D01*
X375961Y105666D01*
X376026Y105712D01*
X376082Y105767D01*
X376128Y105831D01*
X376146Y105861D01*
Y88988D01*
X375157Y88000D01*
X371902D01*
Y103495D01*
X372369Y103517D01*
X372834Y103582D01*
X373291Y103692D01*
X373735Y103843D01*
X374164Y104036D01*
X374572Y104268D01*
X374636Y104315D01*
X374692Y104372D01*
X374737Y104436D01*
X374772Y104508D01*
X374796Y104583D01*
X374807Y104662D01*
X374806Y104741D01*
X374793Y104820D01*
X374767Y104895D01*
X374730Y104965D01*
X374683Y105029D01*
X374626Y105084D01*
X374561Y105130D01*
X374490Y105165D01*
X374414Y105188D01*
X374335Y105200D01*
X374256Y105199D01*
X374178Y105185D01*
X374103Y105160D01*
X374033Y105121D01*
X373709Y104932D01*
X373367Y104779D01*
X373012Y104658D01*
X372646Y104570D01*
X372275Y104518D01*
X371902Y104500D01*
Y112500D01*
X372275Y112482D01*
X372646Y112430D01*
X373012Y112342D01*
X373367Y112221D01*
X373709Y112068D01*
X374035Y111882D01*
X374104Y111844D01*
X374179Y111819D01*
X374256Y111806D01*
X374335Y111805D01*
X374413Y111816D01*
X374488Y111839D01*
X374559Y111874D01*
X374623Y111919D01*
X374679Y111974D01*
X374727Y112037D01*
X374763Y112107D01*
X374788Y112181D01*
X374802Y112259D01*
X374803Y112338D01*
X374792Y112416D01*
X374768Y112491D01*
X374734Y112561D01*
X374688Y112626D01*
X374633Y112682D01*
X374569Y112728D01*
X374164Y112964D01*
X373735Y113157D01*
X373291Y113308D01*
X372834Y113418D01*
X372369Y113483D01*
X371902Y113505D01*
Y153485D01*
G37*
G36*
Y171000D02*X376146D01*
Y161141D01*
X375958Y161448D01*
X375446Y162046D01*
X374848Y162558D01*
X374177Y162969D01*
X373450Y163270D01*
X372685Y163454D01*
X371902Y163515D01*
Y171000D01*
G37*
G36*
X361902Y170383D02*X362032Y170329D01*
X362461Y170226D01*
X362900Y170191D01*
X363339Y170226D01*
X363768Y170329D01*
X364175Y170497D01*
X364551Y170728D01*
X364870Y171000D01*
X371902D01*
Y163515D01*
X371900Y163515D01*
X371115Y163454D01*
X370350Y163270D01*
X369623Y162969D01*
X368952Y162558D01*
X368354Y162046D01*
X367842Y161448D01*
X367431Y160777D01*
X367130Y160050D01*
X366946Y159285D01*
X366898Y158667D01*
X366883Y158969D01*
X366818Y159434D01*
X366708Y159891D01*
X366557Y160335D01*
X366364Y160764D01*
X366132Y161172D01*
X366085Y161236D01*
X366028Y161292D01*
X365964Y161337D01*
X365892Y161372D01*
X365817Y161396D01*
X365738Y161407D01*
X365659Y161406D01*
X365580Y161393D01*
X365505Y161367D01*
X365435Y161330D01*
X365371Y161283D01*
X365316Y161226D01*
X365270Y161161D01*
X365235Y161090D01*
X365212Y161014D01*
X365200Y160935D01*
X365201Y160856D01*
X365215Y160778D01*
X365240Y160703D01*
X365279Y160633D01*
X365468Y160309D01*
X365621Y159967D01*
X365742Y159612D01*
X365830Y159246D01*
X365882Y158875D01*
X365900Y158500D01*
X365882Y158125D01*
X365830Y157754D01*
X365742Y157388D01*
X365621Y157033D01*
X365468Y156691D01*
X365282Y156365D01*
X365244Y156296D01*
X365219Y156221D01*
X365206Y156144D01*
X365205Y156065D01*
X365216Y155987D01*
X365239Y155912D01*
X365274Y155841D01*
X365319Y155777D01*
X365374Y155721D01*
X365437Y155673D01*
X365507Y155637D01*
X365581Y155612D01*
X365659Y155598D01*
X365738Y155597D01*
X365816Y155608D01*
X365891Y155632D01*
X365961Y155666D01*
X366026Y155712D01*
X366082Y155767D01*
X366128Y155831D01*
X366364Y156236D01*
X366557Y156665D01*
X366708Y157109D01*
X366818Y157566D01*
X366883Y158031D01*
X366898Y158333D01*
X366946Y157715D01*
X367130Y156950D01*
X367431Y156223D01*
X367842Y155552D01*
X368354Y154954D01*
X368952Y154442D01*
X369623Y154031D01*
X370350Y153730D01*
X371115Y153546D01*
X371900Y153485D01*
X371902Y153485D01*
Y113505D01*
X371900Y113506D01*
X371431Y113483D01*
X370966Y113418D01*
X370509Y113308D01*
X370065Y113157D01*
X369636Y112964D01*
X369228Y112732D01*
X369164Y112685D01*
X369108Y112628D01*
X369063Y112564D01*
X369028Y112492D01*
X369004Y112417D01*
X368993Y112338D01*
X368994Y112259D01*
X369007Y112180D01*
X369033Y112105D01*
X369070Y112035D01*
X369117Y111971D01*
X369174Y111916D01*
X369239Y111870D01*
X369310Y111835D01*
X369386Y111812D01*
X369465Y111800D01*
X369544Y111801D01*
X369622Y111815D01*
X369697Y111840D01*
X369767Y111879D01*
X370091Y112068D01*
X370433Y112221D01*
X370788Y112342D01*
X371154Y112430D01*
X371525Y112482D01*
X371900Y112500D01*
X371902Y112500D01*
Y104500D01*
X371900Y104500D01*
X371525Y104518D01*
X371154Y104570D01*
X370788Y104658D01*
X370433Y104779D01*
X370091Y104932D01*
X369764Y105118D01*
X369696Y105156D01*
X369621Y105181D01*
X369544Y105194D01*
X369465Y105195D01*
X369387Y105184D01*
X369312Y105161D01*
X369241Y105126D01*
X369177Y105081D01*
X369121Y105026D01*
X369073Y104963D01*
X369037Y104893D01*
X369012Y104819D01*
X368998Y104741D01*
X368997Y104662D01*
X369008Y104584D01*
X369032Y104509D01*
X369066Y104439D01*
X369112Y104374D01*
X369167Y104318D01*
X369231Y104272D01*
X369636Y104036D01*
X370065Y103843D01*
X370509Y103692D01*
X370966Y103582D01*
X371431Y103517D01*
X371900Y103494D01*
X371902Y103495D01*
Y88000D01*
X361902D01*
Y103505D01*
X366057Y103509D01*
X366210Y103546D01*
X366355Y103606D01*
X366490Y103688D01*
X366609Y103791D01*
X366712Y103910D01*
X366794Y104045D01*
X366854Y104190D01*
X366891Y104343D01*
X366900Y104500D01*
X366895Y108479D01*
X366917Y108031D01*
X366982Y107566D01*
X367092Y107109D01*
X367243Y106665D01*
X367436Y106236D01*
X367668Y105828D01*
X367715Y105764D01*
X367772Y105708D01*
X367836Y105663D01*
X367908Y105628D01*
X367983Y105604D01*
X368062Y105593D01*
X368141Y105594D01*
X368220Y105607D01*
X368295Y105633D01*
X368365Y105670D01*
X368429Y105717D01*
X368484Y105774D01*
X368530Y105839D01*
X368565Y105910D01*
X368588Y105986D01*
X368600Y106065D01*
X368599Y106144D01*
X368585Y106222D01*
X368560Y106297D01*
X368521Y106367D01*
X368332Y106691D01*
X368179Y107033D01*
X368058Y107388D01*
X367970Y107754D01*
X367918Y108125D01*
X367900Y108500D01*
X367918Y108875D01*
X367970Y109246D01*
X368058Y109612D01*
X368179Y109967D01*
X368332Y110309D01*
X368518Y110636D01*
X368556Y110704D01*
X368581Y110779D01*
X368594Y110856D01*
X368595Y110935D01*
X368584Y111013D01*
X368561Y111088D01*
X368526Y111159D01*
X368481Y111223D01*
X368426Y111279D01*
X368363Y111327D01*
X368293Y111363D01*
X368219Y111388D01*
X368141Y111402D01*
X368062Y111403D01*
X367984Y111392D01*
X367909Y111368D01*
X367839Y111334D01*
X367774Y111288D01*
X367718Y111233D01*
X367672Y111169D01*
X367436Y110764D01*
X367243Y110335D01*
X367092Y109891D01*
X366982Y109434D01*
X366917Y108969D01*
X366895Y108520D01*
X366891Y112657D01*
X366854Y112810D01*
X366794Y112955D01*
X366712Y113090D01*
X366609Y113209D01*
X366490Y113312D01*
X366355Y113394D01*
X366210Y113454D01*
X366057Y113491D01*
X365900Y113500D01*
X361902Y113495D01*
Y153495D01*
X362369Y153517D01*
X362834Y153582D01*
X363291Y153692D01*
X363735Y153843D01*
X364164Y154036D01*
X364572Y154268D01*
X364636Y154315D01*
X364692Y154372D01*
X364737Y154436D01*
X364772Y154508D01*
X364796Y154583D01*
X364807Y154662D01*
X364806Y154741D01*
X364793Y154820D01*
X364767Y154895D01*
X364730Y154965D01*
X364683Y155029D01*
X364626Y155084D01*
X364561Y155130D01*
X364490Y155165D01*
X364414Y155188D01*
X364335Y155200D01*
X364256Y155199D01*
X364178Y155185D01*
X364103Y155160D01*
X364033Y155121D01*
X363709Y154932D01*
X363367Y154779D01*
X363012Y154658D01*
X362646Y154570D01*
X362275Y154518D01*
X361902Y154500D01*
Y162500D01*
X362275Y162482D01*
X362646Y162430D01*
X363012Y162342D01*
X363367Y162221D01*
X363709Y162068D01*
X364035Y161882D01*
X364104Y161844D01*
X364179Y161819D01*
X364256Y161806D01*
X364335Y161805D01*
X364413Y161816D01*
X364488Y161839D01*
X364559Y161874D01*
X364623Y161919D01*
X364679Y161974D01*
X364727Y162037D01*
X364763Y162107D01*
X364788Y162181D01*
X364802Y162259D01*
X364803Y162338D01*
X364792Y162416D01*
X364768Y162491D01*
X364734Y162561D01*
X364688Y162626D01*
X364633Y162682D01*
X364569Y162728D01*
X364164Y162964D01*
X363735Y163157D01*
X363291Y163308D01*
X362834Y163418D01*
X362369Y163483D01*
X361902Y163505D01*
Y170383D01*
G37*
G36*
Y237500D02*X376146D01*
Y175000D01*
X364870D01*
X364551Y175272D01*
X364175Y175503D01*
X363768Y175671D01*
X363339Y175774D01*
X362900Y175809D01*
X362461Y175774D01*
X362032Y175671D01*
X361902Y175617D01*
Y237500D01*
G37*
G36*
Y88000D02*X358267D01*
Y103500D01*
X361902Y103505D01*
Y88000D01*
G37*
G36*
X358267Y237500D02*X361902D01*
Y175617D01*
X361625Y175503D01*
X361249Y175272D01*
X360914Y174986D01*
X360628Y174651D01*
X360397Y174275D01*
X360229Y173868D01*
X360126Y173439D01*
X360091Y173000D01*
X360126Y172561D01*
X360229Y172132D01*
X360397Y171725D01*
X360628Y171349D01*
X360914Y171014D01*
X361249Y170728D01*
X361625Y170497D01*
X361902Y170383D01*
Y163505D01*
X361900Y163506D01*
X361431Y163483D01*
X360966Y163418D01*
X360509Y163308D01*
X360065Y163157D01*
X359636Y162964D01*
X359228Y162732D01*
X359164Y162685D01*
X359108Y162628D01*
X359063Y162564D01*
X359028Y162492D01*
X359004Y162417D01*
X358993Y162338D01*
X358994Y162259D01*
X359007Y162180D01*
X359033Y162105D01*
X359070Y162035D01*
X359117Y161971D01*
X359174Y161916D01*
X359239Y161870D01*
X359310Y161835D01*
X359386Y161812D01*
X359465Y161800D01*
X359544Y161801D01*
X359622Y161815D01*
X359697Y161840D01*
X359767Y161879D01*
X360091Y162068D01*
X360433Y162221D01*
X360788Y162342D01*
X361154Y162430D01*
X361525Y162482D01*
X361900Y162500D01*
X361902Y162500D01*
Y154500D01*
X361900Y154500D01*
X361525Y154518D01*
X361154Y154570D01*
X360788Y154658D01*
X360433Y154779D01*
X360091Y154932D01*
X359764Y155118D01*
X359696Y155156D01*
X359621Y155181D01*
X359544Y155194D01*
X359465Y155195D01*
X359387Y155184D01*
X359312Y155161D01*
X359241Y155126D01*
X359177Y155081D01*
X359121Y155026D01*
X359073Y154963D01*
X359037Y154893D01*
X359012Y154819D01*
X358998Y154741D01*
X358997Y154662D01*
X359008Y154584D01*
X359032Y154509D01*
X359066Y154439D01*
X359112Y154374D01*
X359167Y154318D01*
X359231Y154272D01*
X359636Y154036D01*
X360065Y153843D01*
X360509Y153692D01*
X360966Y153582D01*
X361431Y153517D01*
X361900Y153494D01*
X361902Y153495D01*
Y113495D01*
X358267Y113491D01*
Y155623D01*
X358295Y155633D01*
X358365Y155670D01*
X358429Y155717D01*
X358484Y155774D01*
X358530Y155839D01*
X358565Y155910D01*
X358588Y155986D01*
X358600Y156065D01*
X358599Y156144D01*
X358585Y156222D01*
X358560Y156297D01*
X358521Y156367D01*
X358332Y156691D01*
X358267Y156837D01*
Y160163D01*
X358332Y160309D01*
X358518Y160636D01*
X358556Y160704D01*
X358581Y160779D01*
X358594Y160856D01*
X358595Y160935D01*
X358584Y161013D01*
X358561Y161088D01*
X358526Y161159D01*
X358481Y161223D01*
X358426Y161279D01*
X358363Y161327D01*
X358293Y161363D01*
X358267Y161372D01*
Y188452D01*
X358270Y188453D01*
X358338Y188492D01*
X358400Y188541D01*
X358452Y188600D01*
X358494Y188666D01*
X358657Y188991D01*
X358786Y189331D01*
X358884Y189681D01*
X358950Y190039D01*
X358983Y190401D01*
Y190765D01*
X358950Y191127D01*
X358884Y191485D01*
X358786Y191835D01*
X358657Y192175D01*
X358498Y192502D01*
X358455Y192568D01*
X358402Y192627D01*
X358340Y192677D01*
X358271Y192716D01*
X358267Y192718D01*
Y237500D01*
G37*
G36*
Y156837D02*X358179Y157033D01*
X358058Y157388D01*
X357970Y157754D01*
X357918Y158125D01*
X357900Y158500D01*
X357918Y158875D01*
X357970Y159246D01*
X358058Y159612D01*
X358179Y159967D01*
X358267Y160163D01*
Y156837D01*
G37*
G36*
Y88000D02*X354985D01*
Y153508D01*
X356057Y153509D01*
X356210Y153546D01*
X356355Y153606D01*
X356490Y153688D01*
X356609Y153791D01*
X356712Y153910D01*
X356794Y154045D01*
X356854Y154190D01*
X356891Y154343D01*
X356900Y154500D01*
X356895Y158479D01*
X356917Y158031D01*
X356982Y157566D01*
X357092Y157109D01*
X357243Y156665D01*
X357436Y156236D01*
X357668Y155828D01*
X357715Y155764D01*
X357772Y155708D01*
X357836Y155663D01*
X357908Y155628D01*
X357983Y155604D01*
X358062Y155593D01*
X358141Y155594D01*
X358220Y155607D01*
X358267Y155623D01*
Y113491D01*
X357743Y113491D01*
X357590Y113454D01*
X357445Y113394D01*
X357310Y113312D01*
X357191Y113209D01*
X357088Y113090D01*
X357006Y112955D01*
X356946Y112810D01*
X356909Y112657D01*
X356900Y112500D01*
X356909Y104343D01*
X356946Y104190D01*
X357006Y104045D01*
X357088Y103910D01*
X357191Y103791D01*
X357310Y103688D01*
X357445Y103606D01*
X357590Y103546D01*
X357743Y103509D01*
X357900Y103500D01*
X358267Y103500D01*
Y88000D01*
G37*
G36*
X354985Y237500D02*X358267D01*
Y192718D01*
X358197Y192744D01*
X358120Y192761D01*
X358041Y192765D01*
X357962Y192756D01*
X357886Y192735D01*
X357813Y192703D01*
X357747Y192660D01*
X357688Y192607D01*
X357639Y192545D01*
X357599Y192476D01*
X357571Y192402D01*
X357555Y192325D01*
X357551Y192246D01*
X357559Y192167D01*
X357580Y192091D01*
X357614Y192019D01*
X357736Y191776D01*
X357833Y191521D01*
X357906Y191259D01*
X357955Y190991D01*
X357980Y190719D01*
Y190447D01*
X357955Y190176D01*
X357906Y189908D01*
X357833Y189645D01*
X357736Y189390D01*
X357616Y189146D01*
X357583Y189075D01*
X357562Y188999D01*
X357554Y188920D01*
X357558Y188842D01*
X357574Y188765D01*
X357602Y188691D01*
X357641Y188623D01*
X357691Y188562D01*
X357749Y188509D01*
X357815Y188466D01*
X357887Y188434D01*
X357963Y188413D01*
X358041Y188405D01*
X358119Y188409D01*
X358196Y188425D01*
X358267Y188452D01*
Y161372D01*
X358219Y161388D01*
X358141Y161402D01*
X358062Y161403D01*
X357984Y161392D01*
X357909Y161368D01*
X357839Y161334D01*
X357774Y161288D01*
X357718Y161233D01*
X357672Y161169D01*
X357436Y160764D01*
X357243Y160335D01*
X357092Y159891D01*
X356982Y159434D01*
X356917Y158969D01*
X356895Y158520D01*
X356891Y162657D01*
X356854Y162810D01*
X356794Y162955D01*
X356712Y163090D01*
X356609Y163209D01*
X356490Y163312D01*
X356355Y163394D01*
X356210Y163454D01*
X356057Y163491D01*
X355900Y163500D01*
X354985Y163499D01*
Y186583D01*
X355165D01*
X355527Y186616D01*
X355885Y186682D01*
X356235Y186780D01*
X356575Y186909D01*
X356902Y187069D01*
X356968Y187111D01*
X357027Y187164D01*
X357077Y187226D01*
X357116Y187295D01*
X357144Y187369D01*
X357161Y187446D01*
X357165Y187525D01*
X357156Y187604D01*
X357135Y187681D01*
X357103Y187753D01*
X357060Y187819D01*
X357007Y187878D01*
X356945Y187928D01*
X356876Y187967D01*
X356802Y187995D01*
X356725Y188011D01*
X356646Y188015D01*
X356567Y188007D01*
X356491Y187986D01*
X356419Y187953D01*
X356176Y187830D01*
X355921Y187733D01*
X355659Y187660D01*
X355391Y187611D01*
X355119Y187586D01*
X354985D01*
Y193580D01*
X355119D01*
X355391Y193555D01*
X355659Y193506D01*
X355921Y193433D01*
X356176Y193336D01*
X356421Y193216D01*
X356492Y193183D01*
X356568Y193162D01*
X356646Y193154D01*
X356724Y193158D01*
X356801Y193174D01*
X356875Y193202D01*
X356943Y193241D01*
X357004Y193291D01*
X357057Y193349D01*
X357100Y193415D01*
X357132Y193487D01*
X357153Y193563D01*
X357161Y193641D01*
X357157Y193719D01*
X357141Y193796D01*
X357113Y193870D01*
X357074Y193938D01*
X357025Y194000D01*
X356966Y194052D01*
X356900Y194094D01*
X356575Y194257D01*
X356235Y194386D01*
X355885Y194484D01*
X355527Y194550D01*
X355165Y194583D01*
X354985D01*
Y237500D01*
G37*
G36*
X351699Y153504D02*X354985Y153508D01*
Y88000D01*
X351699D01*
Y153504D01*
G37*
G36*
Y237500D02*X354985D01*
Y194583D01*
X354801D01*
X354439Y194550D01*
X354081Y194484D01*
X353731Y194386D01*
X353391Y194257D01*
X353064Y194098D01*
X352998Y194055D01*
X352939Y194002D01*
X352890Y193940D01*
X352850Y193871D01*
X352822Y193797D01*
X352806Y193720D01*
X352802Y193641D01*
X352810Y193562D01*
X352831Y193486D01*
X352863Y193413D01*
X352906Y193347D01*
X352960Y193288D01*
X353021Y193239D01*
X353090Y193199D01*
X353164Y193171D01*
X353241Y193155D01*
X353320Y193151D01*
X353399Y193159D01*
X353476Y193180D01*
X353547Y193214D01*
X353790Y193336D01*
X354045Y193433D01*
X354308Y193506D01*
X354576Y193555D01*
X354847Y193580D01*
X354985D01*
Y187586D01*
X354847D01*
X354576Y187611D01*
X354308Y187660D01*
X354045Y187733D01*
X353790Y187830D01*
X353546Y187950D01*
X353475Y187983D01*
X353399Y188004D01*
X353320Y188012D01*
X353242Y188008D01*
X353165Y187992D01*
X353091Y187964D01*
X353023Y187925D01*
X352962Y187876D01*
X352909Y187817D01*
X352866Y187751D01*
X352834Y187679D01*
X352813Y187604D01*
X352805Y187525D01*
X352809Y187447D01*
X352825Y187370D01*
X352853Y187296D01*
X352892Y187228D01*
X352941Y187167D01*
X353000Y187114D01*
X353066Y187072D01*
X353391Y186909D01*
X353731Y186780D01*
X354081Y186682D01*
X354439Y186616D01*
X354801Y186583D01*
X354985D01*
Y163499D01*
X351699Y163495D01*
Y188448D01*
X351769Y188422D01*
X351846Y188406D01*
X351925Y188402D01*
X352004Y188410D01*
X352081Y188431D01*
X352153Y188463D01*
X352219Y188506D01*
X352278Y188560D01*
X352328Y188621D01*
X352367Y188690D01*
X352395Y188764D01*
X352411Y188841D01*
X352415Y188920D01*
X352407Y188999D01*
X352386Y189076D01*
X352353Y189147D01*
X352230Y189390D01*
X352133Y189645D01*
X352060Y189908D01*
X352011Y190176D01*
X351986Y190447D01*
Y190719D01*
X352011Y190991D01*
X352060Y191259D01*
X352133Y191521D01*
X352230Y191776D01*
X352350Y192021D01*
X352383Y192092D01*
X352404Y192168D01*
X352412Y192246D01*
X352408Y192324D01*
X352392Y192401D01*
X352364Y192475D01*
X352325Y192543D01*
X352276Y192604D01*
X352217Y192657D01*
X352151Y192700D01*
X352079Y192732D01*
X352004Y192753D01*
X351925Y192761D01*
X351847Y192757D01*
X351770Y192741D01*
X351699Y192714D01*
Y237500D01*
G37*
G36*
X328779D02*X351699D01*
Y192714D01*
X351696Y192713D01*
X351628Y192674D01*
X351567Y192625D01*
X351514Y192566D01*
X351472Y192500D01*
X351309Y192175D01*
X351180Y191835D01*
X351082Y191485D01*
X351016Y191127D01*
X350983Y190765D01*
Y190401D01*
X351016Y190039D01*
X351082Y189681D01*
X351180Y189331D01*
X351309Y188991D01*
X351469Y188665D01*
X351511Y188598D01*
X351564Y188539D01*
X351626Y188490D01*
X351695Y188450D01*
X351699Y188448D01*
Y163495D01*
X347743Y163491D01*
X347590Y163454D01*
X347445Y163394D01*
X347310Y163312D01*
X347191Y163209D01*
X347088Y163090D01*
X347006Y162955D01*
X346946Y162810D01*
X346909Y162657D01*
X346900Y162500D01*
X346909Y154343D01*
X346946Y154190D01*
X347006Y154045D01*
X347088Y153910D01*
X347191Y153791D01*
X347310Y153688D01*
X347445Y153606D01*
X347590Y153546D01*
X347743Y153509D01*
X347900Y153500D01*
X351699Y153504D01*
Y88000D01*
X328779D01*
Y110464D01*
X328782Y110465D01*
X328850Y110504D01*
X328911Y110553D01*
X328964Y110612D01*
X329006Y110678D01*
X329169Y111003D01*
X329298Y111343D01*
X329396Y111693D01*
X329462Y112051D01*
X329495Y112413D01*
Y112777D01*
X329462Y113139D01*
X329396Y113497D01*
X329298Y113847D01*
X329169Y114187D01*
X329009Y114513D01*
X328967Y114580D01*
X328913Y114639D01*
X328852Y114688D01*
X328783Y114728D01*
X328779Y114730D01*
Y237500D01*
G37*
G36*
X327684D02*X328779D01*
Y114730D01*
X328709Y114756D01*
X328632Y114772D01*
X328553Y114776D01*
X328474Y114768D01*
X328397Y114747D01*
X328325Y114715D01*
X328259Y114672D01*
X328200Y114618D01*
X328150Y114557D01*
X328111Y114488D01*
X328083Y114414D01*
X328066Y114337D01*
X328063Y114258D01*
X328071Y114179D01*
X328092Y114102D01*
X328125Y114031D01*
X328248Y113788D01*
X328344Y113533D01*
X328418Y113270D01*
X328467Y113002D01*
X328492Y112731D01*
Y112459D01*
X328467Y112187D01*
X328418Y111919D01*
X328344Y111657D01*
X328248Y111402D01*
X328128Y111157D01*
X328095Y111086D01*
X328074Y111010D01*
X328066Y110932D01*
X328070Y110854D01*
X328086Y110777D01*
X328114Y110703D01*
X328153Y110635D01*
X328202Y110573D01*
X328261Y110521D01*
X328327Y110478D01*
X328398Y110445D01*
X328474Y110425D01*
X328553Y110417D01*
X328631Y110420D01*
X328708Y110437D01*
X328779Y110464D01*
Y88000D01*
X327684D01*
Y91369D01*
X327687Y91370D01*
X327755Y91409D01*
X327816Y91458D01*
X327869Y91517D01*
X327911Y91583D01*
X328074Y91908D01*
X328203Y92248D01*
X328301Y92598D01*
X328367Y92956D01*
X328400Y93318D01*
Y93682D01*
X328367Y94044D01*
X328301Y94402D01*
X328203Y94752D01*
X328074Y95092D01*
X327915Y95419D01*
X327872Y95485D01*
X327819Y95544D01*
X327757Y95594D01*
X327688Y95633D01*
X327684Y95635D01*
Y237500D01*
G37*
G36*
X324402D02*X327684D01*
Y95635D01*
X327614Y95661D01*
X327537Y95677D01*
X327458Y95681D01*
X327379Y95673D01*
X327303Y95652D01*
X327230Y95620D01*
X327164Y95577D01*
X327105Y95524D01*
X327056Y95462D01*
X327016Y95393D01*
X326988Y95319D01*
X326972Y95242D01*
X326968Y95163D01*
X326976Y95084D01*
X326997Y95007D01*
X327030Y94936D01*
X327153Y94693D01*
X327250Y94438D01*
X327323Y94176D01*
X327372Y93908D01*
X327397Y93636D01*
Y93364D01*
X327372Y93092D01*
X327323Y92824D01*
X327250Y92562D01*
X327153Y92307D01*
X327033Y92063D01*
X327000Y91991D01*
X326979Y91916D01*
X326971Y91837D01*
X326975Y91759D01*
X326991Y91682D01*
X327019Y91608D01*
X327058Y91540D01*
X327107Y91479D01*
X327166Y91426D01*
X327232Y91383D01*
X327304Y91351D01*
X327380Y91330D01*
X327458Y91322D01*
X327536Y91326D01*
X327613Y91342D01*
X327684Y91369D01*
Y88000D01*
X324402D01*
Y89500D01*
X324582D01*
X324944Y89533D01*
X325302Y89599D01*
X325652Y89697D01*
X325992Y89826D01*
X326319Y89985D01*
X326385Y90028D01*
X326444Y90081D01*
X326494Y90143D01*
X326533Y90212D01*
X326561Y90286D01*
X326577Y90363D01*
X326581Y90442D01*
X326573Y90521D01*
X326552Y90597D01*
X326520Y90670D01*
X326477Y90736D01*
X326424Y90795D01*
X326362Y90844D01*
X326293Y90884D01*
X326219Y90912D01*
X326142Y90928D01*
X326063Y90932D01*
X325984Y90924D01*
X325907Y90903D01*
X325836Y90870D01*
X325593Y90747D01*
X325338Y90650D01*
X325076Y90577D01*
X324808Y90528D01*
X324536Y90503D01*
X324402D01*
Y96497D01*
X324536D01*
X324808Y96472D01*
X325076Y96423D01*
X325338Y96350D01*
X325593Y96253D01*
X325837Y96133D01*
X325909Y96100D01*
X325984Y96079D01*
X326063Y96071D01*
X326141Y96075D01*
X326218Y96091D01*
X326292Y96119D01*
X326360Y96158D01*
X326421Y96207D01*
X326474Y96266D01*
X326517Y96332D01*
X326549Y96404D01*
X326570Y96480D01*
X326578Y96558D01*
X326574Y96636D01*
X326558Y96713D01*
X326530Y96787D01*
X326491Y96855D01*
X326442Y96916D01*
X326383Y96969D01*
X326317Y97011D01*
X325992Y97174D01*
X325652Y97303D01*
X325302Y97401D01*
X324944Y97467D01*
X324582Y97500D01*
X324402D01*
Y108747D01*
X324593Y108694D01*
X324951Y108628D01*
X325313Y108595D01*
X325677D01*
X326039Y108628D01*
X326397Y108694D01*
X326747Y108791D01*
X327087Y108921D01*
X327413Y109080D01*
X327480Y109123D01*
X327539Y109176D01*
X327588Y109238D01*
X327628Y109307D01*
X327656Y109381D01*
X327672Y109458D01*
X327676Y109537D01*
X327668Y109616D01*
X327647Y109692D01*
X327615Y109765D01*
X327572Y109831D01*
X327518Y109890D01*
X327457Y109939D01*
X327388Y109979D01*
X327314Y110007D01*
X327237Y110023D01*
X327158Y110027D01*
X327079Y110019D01*
X327002Y109998D01*
X326931Y109964D01*
X326687Y109842D01*
X326433Y109745D01*
X326170Y109672D01*
X325902Y109623D01*
X325631Y109598D01*
X325359D01*
X325087Y109623D01*
X324819Y109672D01*
X324557Y109745D01*
X324402Y109804D01*
Y115385D01*
X324557Y115444D01*
X324819Y115518D01*
X325087Y115567D01*
X325359Y115592D01*
X325631D01*
X325902Y115567D01*
X326170Y115518D01*
X326433Y115444D01*
X326687Y115348D01*
X326932Y115228D01*
X327003Y115195D01*
X327079Y115174D01*
X327158Y115166D01*
X327236Y115170D01*
X327313Y115186D01*
X327387Y115214D01*
X327455Y115253D01*
X327516Y115302D01*
X327569Y115361D01*
X327612Y115427D01*
X327644Y115498D01*
X327665Y115574D01*
X327673Y115653D01*
X327669Y115731D01*
X327653Y115808D01*
X327625Y115882D01*
X327586Y115950D01*
X327536Y116011D01*
X327478Y116064D01*
X327411Y116106D01*
X327087Y116269D01*
X326747Y116398D01*
X326397Y116496D01*
X326039Y116562D01*
X325677Y116595D01*
X325313D01*
X324951Y116562D01*
X324593Y116496D01*
X324402Y116443D01*
Y237500D01*
G37*
G36*
X322211D02*X324402D01*
Y116443D01*
X324243Y116398D01*
X323903Y116269D01*
X323576Y116109D01*
X323510Y116067D01*
X323451Y116014D01*
X323401Y115952D01*
X323362Y115883D01*
X323334Y115809D01*
X323317Y115732D01*
X323313Y115653D01*
X323322Y115574D01*
X323343Y115497D01*
X323375Y115425D01*
X323418Y115359D01*
X323471Y115300D01*
X323533Y115250D01*
X323602Y115211D01*
X323676Y115183D01*
X323753Y115166D01*
X323832Y115163D01*
X323911Y115171D01*
X323987Y115192D01*
X324059Y115225D01*
X324302Y115348D01*
X324402Y115385D01*
Y109804D01*
X324302Y109842D01*
X324057Y109962D01*
X323986Y109995D01*
X323910Y110016D01*
X323832Y110024D01*
X323754Y110020D01*
X323677Y110004D01*
X323603Y109976D01*
X323535Y109937D01*
X323473Y109887D01*
X323421Y109829D01*
X323378Y109763D01*
X323345Y109691D01*
X323325Y109615D01*
X323317Y109537D01*
X323320Y109458D01*
X323337Y109381D01*
X323365Y109308D01*
X323404Y109240D01*
X323453Y109178D01*
X323512Y109126D01*
X323578Y109084D01*
X323903Y108921D01*
X324243Y108791D01*
X324402Y108747D01*
Y97500D01*
X324218D01*
X323856Y97467D01*
X323498Y97401D01*
X323148Y97303D01*
X322808Y97174D01*
X322481Y97015D01*
X322415Y96972D01*
X322356Y96919D01*
X322306Y96857D01*
X322267Y96788D01*
X322239Y96714D01*
X322223Y96637D01*
X322219Y96558D01*
X322227Y96479D01*
X322248Y96403D01*
X322280Y96330D01*
X322323Y96264D01*
X322376Y96205D01*
X322438Y96156D01*
X322507Y96116D01*
X322581Y96088D01*
X322658Y96072D01*
X322737Y96068D01*
X322816Y96076D01*
X322893Y96097D01*
X322964Y96130D01*
X323207Y96253D01*
X323462Y96350D01*
X323724Y96423D01*
X323992Y96472D01*
X324264Y96497D01*
X324402D01*
Y90503D01*
X324264D01*
X323992Y90528D01*
X323724Y90577D01*
X323462Y90650D01*
X323207Y90747D01*
X322963Y90867D01*
X322891Y90900D01*
X322815Y90921D01*
X322737Y90929D01*
X322659Y90925D01*
X322582Y90909D01*
X322508Y90881D01*
X322440Y90842D01*
X322379Y90793D01*
X322326Y90734D01*
X322283Y90668D01*
X322251Y90596D01*
X322230Y90520D01*
X322222Y90442D01*
X322226Y90364D01*
X322242Y90287D01*
X322270Y90213D01*
X322309Y90145D01*
X322358Y90084D01*
X322417Y90031D01*
X322483Y89989D01*
X322808Y89826D01*
X323148Y89697D01*
X323498Y89599D01*
X323856Y89533D01*
X324218Y89500D01*
X324402D01*
Y88000D01*
X322211D01*
Y110460D01*
X322281Y110434D01*
X322358Y110417D01*
X322437Y110413D01*
X322516Y110422D01*
X322592Y110443D01*
X322665Y110475D01*
X322731Y110518D01*
X322790Y110571D01*
X322839Y110633D01*
X322879Y110702D01*
X322907Y110776D01*
X322923Y110853D01*
X322927Y110932D01*
X322919Y111011D01*
X322898Y111087D01*
X322864Y111159D01*
X322742Y111402D01*
X322645Y111657D01*
X322572Y111919D01*
X322523Y112187D01*
X322498Y112459D01*
Y112731D01*
X322523Y113002D01*
X322572Y113270D01*
X322645Y113533D01*
X322742Y113788D01*
X322862Y114032D01*
X322895Y114103D01*
X322916Y114179D01*
X322924Y114258D01*
X322920Y114336D01*
X322904Y114413D01*
X322876Y114487D01*
X322837Y114555D01*
X322787Y114616D01*
X322729Y114669D01*
X322663Y114712D01*
X322591Y114744D01*
X322515Y114765D01*
X322437Y114773D01*
X322358Y114769D01*
X322281Y114753D01*
X322211Y114726D01*
Y237500D01*
G37*
G36*
X321116D02*X322211D01*
Y114726D01*
X322208Y114725D01*
X322140Y114686D01*
X322078Y114636D01*
X322026Y114578D01*
X321984Y114511D01*
X321821Y114187D01*
X321691Y113847D01*
X321594Y113497D01*
X321528Y113139D01*
X321495Y112777D01*
Y112413D01*
X321528Y112051D01*
X321594Y111693D01*
X321691Y111343D01*
X321821Y111003D01*
X321980Y110676D01*
X322023Y110610D01*
X322076Y110551D01*
X322138Y110501D01*
X322207Y110462D01*
X322211Y110460D01*
Y88000D01*
X321116D01*
Y91365D01*
X321186Y91339D01*
X321263Y91323D01*
X321342Y91319D01*
X321421Y91327D01*
X321497Y91348D01*
X321570Y91380D01*
X321636Y91423D01*
X321695Y91476D01*
X321744Y91538D01*
X321784Y91607D01*
X321812Y91681D01*
X321828Y91758D01*
X321832Y91837D01*
X321824Y91916D01*
X321803Y91993D01*
X321770Y92064D01*
X321647Y92307D01*
X321550Y92562D01*
X321477Y92824D01*
X321428Y93092D01*
X321403Y93364D01*
Y93636D01*
X321428Y93908D01*
X321477Y94176D01*
X321550Y94438D01*
X321647Y94693D01*
X321767Y94937D01*
X321800Y95009D01*
X321821Y95085D01*
X321829Y95163D01*
X321825Y95241D01*
X321809Y95318D01*
X321781Y95392D01*
X321742Y95460D01*
X321693Y95521D01*
X321634Y95574D01*
X321568Y95617D01*
X321496Y95649D01*
X321420Y95670D01*
X321342Y95678D01*
X321264Y95674D01*
X321187Y95658D01*
X321116Y95631D01*
Y237500D01*
G37*
G36*
X302184D02*X321116D01*
Y95631D01*
X321113Y95630D01*
X321045Y95591D01*
X320984Y95542D01*
X320931Y95483D01*
X320889Y95417D01*
X320726Y95092D01*
X320597Y94752D01*
X320499Y94402D01*
X320433Y94044D01*
X320400Y93682D01*
Y93318D01*
X320433Y92956D01*
X320499Y92598D01*
X320597Y92248D01*
X320726Y91908D01*
X320885Y91581D01*
X320928Y91515D01*
X320981Y91456D01*
X321043Y91406D01*
X321112Y91367D01*
X321116Y91365D01*
Y88000D01*
X314643D01*
X309900Y92743D01*
Y117854D01*
X310146Y118142D01*
X310475Y118678D01*
X310716Y119260D01*
X310863Y119872D01*
X310900Y120500D01*
X310863Y121128D01*
X310716Y121740D01*
X310475Y122322D01*
X310146Y122858D01*
X309737Y123337D01*
X309258Y123746D01*
X308722Y124075D01*
X308140Y124316D01*
X307528Y124463D01*
X306900Y124512D01*
X306272Y124463D01*
X305660Y124316D01*
X305078Y124075D01*
X304542Y123746D01*
X304063Y123337D01*
X303654Y122858D01*
X303400Y122444D01*
Y131000D01*
X302184D01*
Y179869D01*
X302187Y179870D01*
X302255Y179909D01*
X302316Y179958D01*
X302369Y180017D01*
X302411Y180083D01*
X302574Y180408D01*
X302703Y180748D01*
X302801Y181098D01*
X302867Y181456D01*
X302900Y181818D01*
Y182182D01*
X302867Y182544D01*
X302801Y182902D01*
X302703Y183252D01*
X302574Y183592D01*
X302415Y183919D01*
X302372Y183985D01*
X302319Y184044D01*
X302257Y184094D01*
X302188Y184133D01*
X302184Y184135D01*
Y237500D01*
G37*
G36*
X298902D02*X302184D01*
Y184135D01*
X302114Y184161D01*
X302037Y184177D01*
X301958Y184181D01*
X301879Y184173D01*
X301803Y184152D01*
X301730Y184120D01*
X301664Y184077D01*
X301605Y184024D01*
X301556Y183962D01*
X301516Y183893D01*
X301488Y183819D01*
X301472Y183742D01*
X301468Y183663D01*
X301476Y183584D01*
X301497Y183507D01*
X301530Y183436D01*
X301653Y183193D01*
X301750Y182938D01*
X301823Y182676D01*
X301872Y182408D01*
X301897Y182136D01*
Y181864D01*
X301872Y181592D01*
X301823Y181324D01*
X301750Y181062D01*
X301653Y180807D01*
X301533Y180563D01*
X301500Y180491D01*
X301479Y180416D01*
X301471Y180337D01*
X301475Y180259D01*
X301491Y180182D01*
X301519Y180108D01*
X301558Y180040D01*
X301607Y179979D01*
X301666Y179926D01*
X301732Y179883D01*
X301804Y179851D01*
X301880Y179830D01*
X301958Y179822D01*
X302036Y179826D01*
X302113Y179842D01*
X302184Y179869D01*
Y131000D01*
X298902D01*
Y178000D01*
X299082D01*
X299444Y178033D01*
X299802Y178099D01*
X300152Y178197D01*
X300492Y178326D01*
X300819Y178485D01*
X300885Y178528D01*
X300944Y178581D01*
X300994Y178643D01*
X301033Y178712D01*
X301061Y178786D01*
X301077Y178863D01*
X301081Y178942D01*
X301073Y179021D01*
X301052Y179097D01*
X301020Y179170D01*
X300977Y179236D01*
X300924Y179295D01*
X300862Y179344D01*
X300793Y179384D01*
X300719Y179412D01*
X300642Y179428D01*
X300563Y179432D01*
X300484Y179424D01*
X300407Y179403D01*
X300336Y179370D01*
X300093Y179247D01*
X299838Y179150D01*
X299576Y179077D01*
X299308Y179028D01*
X299036Y179003D01*
X298902D01*
Y184997D01*
X299036D01*
X299308Y184972D01*
X299576Y184923D01*
X299838Y184850D01*
X300093Y184753D01*
X300337Y184633D01*
X300409Y184600D01*
X300484Y184579D01*
X300563Y184571D01*
X300641Y184575D01*
X300718Y184591D01*
X300792Y184619D01*
X300860Y184658D01*
X300921Y184707D01*
X300974Y184766D01*
X301017Y184832D01*
X301049Y184904D01*
X301070Y184980D01*
X301078Y185058D01*
X301074Y185136D01*
X301058Y185213D01*
X301030Y185287D01*
X300991Y185355D01*
X300942Y185416D01*
X300883Y185469D01*
X300817Y185511D01*
X300492Y185674D01*
X300152Y185803D01*
X299802Y185901D01*
X299444Y185967D01*
X299082Y186000D01*
X298902D01*
Y187000D01*
X301900D01*
Y220000D01*
X298902D01*
Y237500D01*
G37*
G36*
Y131000D02*X295616D01*
Y179865D01*
X295686Y179839D01*
X295763Y179823D01*
X295842Y179819D01*
X295921Y179827D01*
X295997Y179848D01*
X296070Y179880D01*
X296136Y179923D01*
X296195Y179976D01*
X296244Y180038D01*
X296284Y180107D01*
X296312Y180181D01*
X296328Y180258D01*
X296332Y180337D01*
X296324Y180416D01*
X296303Y180493D01*
X296270Y180564D01*
X296147Y180807D01*
X296050Y181062D01*
X295977Y181324D01*
X295928Y181592D01*
X295903Y181864D01*
Y182136D01*
X295928Y182408D01*
X295977Y182676D01*
X296050Y182938D01*
X296147Y183193D01*
X296267Y183437D01*
X296300Y183509D01*
X296321Y183585D01*
X296329Y183663D01*
X296325Y183741D01*
X296309Y183818D01*
X296281Y183892D01*
X296242Y183960D01*
X296193Y184021D01*
X296134Y184074D01*
X296068Y184117D01*
X295996Y184149D01*
X295920Y184170D01*
X295842Y184178D01*
X295764Y184174D01*
X295687Y184158D01*
X295616Y184131D01*
Y187000D01*
X298902D01*
Y186000D01*
X298718D01*
X298356Y185967D01*
X297998Y185901D01*
X297648Y185803D01*
X297308Y185674D01*
X296981Y185515D01*
X296915Y185472D01*
X296856Y185419D01*
X296806Y185357D01*
X296767Y185288D01*
X296739Y185214D01*
X296723Y185137D01*
X296719Y185058D01*
X296727Y184979D01*
X296748Y184903D01*
X296780Y184830D01*
X296823Y184764D01*
X296876Y184705D01*
X296938Y184656D01*
X297007Y184616D01*
X297081Y184588D01*
X297158Y184572D01*
X297237Y184568D01*
X297316Y184576D01*
X297393Y184597D01*
X297464Y184630D01*
X297707Y184753D01*
X297962Y184850D01*
X298224Y184923D01*
X298492Y184972D01*
X298764Y184997D01*
X298902D01*
Y179003D01*
X298764D01*
X298492Y179028D01*
X298224Y179077D01*
X297962Y179150D01*
X297707Y179247D01*
X297463Y179367D01*
X297391Y179400D01*
X297315Y179421D01*
X297237Y179429D01*
X297159Y179425D01*
X297082Y179409D01*
X297008Y179381D01*
X296940Y179342D01*
X296879Y179293D01*
X296826Y179234D01*
X296783Y179168D01*
X296751Y179096D01*
X296730Y179020D01*
X296722Y178942D01*
X296726Y178864D01*
X296742Y178787D01*
X296770Y178713D01*
X296809Y178645D01*
X296858Y178584D01*
X296917Y178531D01*
X296983Y178489D01*
X297308Y178326D01*
X297648Y178197D01*
X297998Y178099D01*
X298356Y178033D01*
X298718Y178000D01*
X298902D01*
Y131000D01*
G37*
G36*
X295616D02*X291400D01*
Y187000D01*
X295616D01*
Y184131D01*
X295613Y184130D01*
X295545Y184091D01*
X295484Y184042D01*
X295431Y183983D01*
X295389Y183917D01*
X295226Y183592D01*
X295097Y183252D01*
X294999Y182902D01*
X294933Y182544D01*
X294900Y182182D01*
Y181818D01*
X294933Y181456D01*
X294999Y181098D01*
X295097Y180748D01*
X295226Y180408D01*
X295385Y180081D01*
X295428Y180015D01*
X295481Y179956D01*
X295543Y179906D01*
X295612Y179867D01*
X295616Y179865D01*
Y131000D01*
G37*
G36*
X291400Y237500D02*X298902D01*
Y220000D01*
X291400D01*
Y237500D01*
G37*
G36*
X272184D02*X291400D01*
Y220000D01*
X280900D01*
Y187000D01*
X291400D01*
Y131000D01*
X282400D01*
Y117146D01*
X282154Y116858D01*
X281825Y116322D01*
X281584Y115740D01*
X281437Y115128D01*
X281388Y114500D01*
X281437Y113872D01*
X281584Y113260D01*
X281825Y112678D01*
X282154Y112142D01*
X282400Y111854D01*
Y98000D01*
X291400D01*
Y81500D01*
X272184D01*
Y215869D01*
X272187Y215870D01*
X272255Y215909D01*
X272316Y215958D01*
X272369Y216017D01*
X272411Y216083D01*
X272574Y216408D01*
X272703Y216748D01*
X272801Y217098D01*
X272867Y217456D01*
X272900Y217818D01*
Y218182D01*
X272867Y218544D01*
X272801Y218902D01*
X272703Y219252D01*
X272574Y219592D01*
X272415Y219919D01*
X272372Y219985D01*
X272319Y220044D01*
X272257Y220094D01*
X272188Y220133D01*
X272184Y220135D01*
Y237500D01*
G37*
G36*
X268902D02*X272184D01*
Y220135D01*
X272114Y220161D01*
X272037Y220177D01*
X271958Y220181D01*
X271879Y220173D01*
X271803Y220152D01*
X271730Y220120D01*
X271664Y220077D01*
X271605Y220024D01*
X271556Y219962D01*
X271516Y219893D01*
X271488Y219819D01*
X271472Y219742D01*
X271468Y219663D01*
X271476Y219584D01*
X271497Y219507D01*
X271530Y219436D01*
X271653Y219193D01*
X271750Y218938D01*
X271823Y218676D01*
X271872Y218408D01*
X271897Y218136D01*
Y217864D01*
X271872Y217592D01*
X271823Y217324D01*
X271750Y217062D01*
X271653Y216807D01*
X271533Y216563D01*
X271500Y216491D01*
X271479Y216416D01*
X271471Y216337D01*
X271475Y216259D01*
X271491Y216182D01*
X271519Y216108D01*
X271558Y216040D01*
X271607Y215979D01*
X271666Y215926D01*
X271732Y215883D01*
X271804Y215851D01*
X271880Y215830D01*
X271958Y215822D01*
X272036Y215826D01*
X272113Y215842D01*
X272184Y215869D01*
Y81500D01*
X268902D01*
Y214000D01*
X269082D01*
X269444Y214033D01*
X269802Y214099D01*
X270152Y214197D01*
X270492Y214326D01*
X270819Y214485D01*
X270885Y214528D01*
X270944Y214581D01*
X270994Y214643D01*
X271033Y214712D01*
X271061Y214786D01*
X271077Y214863D01*
X271081Y214942D01*
X271073Y215021D01*
X271052Y215097D01*
X271020Y215170D01*
X270977Y215236D01*
X270924Y215295D01*
X270862Y215344D01*
X270793Y215384D01*
X270719Y215412D01*
X270642Y215428D01*
X270563Y215432D01*
X270484Y215424D01*
X270407Y215403D01*
X270336Y215370D01*
X270093Y215247D01*
X269838Y215150D01*
X269576Y215077D01*
X269308Y215028D01*
X269036Y215003D01*
X268902D01*
Y220997D01*
X269036D01*
X269308Y220972D01*
X269576Y220923D01*
X269838Y220850D01*
X270093Y220753D01*
X270337Y220633D01*
X270409Y220600D01*
X270484Y220579D01*
X270563Y220571D01*
X270641Y220575D01*
X270718Y220591D01*
X270792Y220619D01*
X270860Y220658D01*
X270921Y220707D01*
X270974Y220766D01*
X271017Y220832D01*
X271049Y220904D01*
X271070Y220980D01*
X271078Y221058D01*
X271074Y221136D01*
X271058Y221213D01*
X271030Y221287D01*
X270991Y221355D01*
X270942Y221416D01*
X270883Y221469D01*
X270817Y221511D01*
X270492Y221674D01*
X270152Y221803D01*
X269802Y221901D01*
X269444Y221967D01*
X269082Y222000D01*
X268902D01*
Y237500D01*
G37*
G36*
X265616D02*X268902D01*
Y222000D01*
X268718D01*
X268356Y221967D01*
X267998Y221901D01*
X267648Y221803D01*
X267308Y221674D01*
X266981Y221515D01*
X266915Y221472D01*
X266856Y221419D01*
X266806Y221357D01*
X266767Y221288D01*
X266739Y221214D01*
X266723Y221137D01*
X266719Y221058D01*
X266727Y220979D01*
X266748Y220903D01*
X266780Y220830D01*
X266823Y220764D01*
X266876Y220705D01*
X266938Y220656D01*
X267007Y220616D01*
X267081Y220588D01*
X267158Y220572D01*
X267237Y220568D01*
X267316Y220576D01*
X267393Y220597D01*
X267464Y220630D01*
X267707Y220753D01*
X267962Y220850D01*
X268224Y220923D01*
X268492Y220972D01*
X268764Y220997D01*
X268902D01*
Y215003D01*
X268764D01*
X268492Y215028D01*
X268224Y215077D01*
X267962Y215150D01*
X267707Y215247D01*
X267463Y215367D01*
X267391Y215400D01*
X267315Y215421D01*
X267237Y215429D01*
X267159Y215425D01*
X267082Y215409D01*
X267008Y215381D01*
X266940Y215342D01*
X266879Y215293D01*
X266826Y215234D01*
X266783Y215168D01*
X266751Y215096D01*
X266730Y215020D01*
X266722Y214942D01*
X266726Y214864D01*
X266742Y214787D01*
X266770Y214713D01*
X266809Y214645D01*
X266858Y214584D01*
X266917Y214531D01*
X266983Y214489D01*
X267308Y214326D01*
X267648Y214197D01*
X267998Y214099D01*
X268356Y214033D01*
X268718Y214000D01*
X268902D01*
Y81500D01*
X265616D01*
Y215865D01*
X265686Y215839D01*
X265763Y215823D01*
X265842Y215819D01*
X265921Y215827D01*
X265997Y215848D01*
X266070Y215880D01*
X266136Y215923D01*
X266195Y215976D01*
X266244Y216038D01*
X266284Y216107D01*
X266312Y216181D01*
X266328Y216258D01*
X266332Y216337D01*
X266324Y216416D01*
X266303Y216493D01*
X266270Y216564D01*
X266147Y216807D01*
X266050Y217062D01*
X265977Y217324D01*
X265928Y217592D01*
X265903Y217864D01*
Y218136D01*
X265928Y218408D01*
X265977Y218676D01*
X266050Y218938D01*
X266147Y219193D01*
X266267Y219437D01*
X266300Y219509D01*
X266321Y219585D01*
X266329Y219663D01*
X266325Y219741D01*
X266309Y219818D01*
X266281Y219892D01*
X266242Y219960D01*
X266193Y220021D01*
X266134Y220074D01*
X266068Y220117D01*
X265996Y220149D01*
X265920Y220170D01*
X265842Y220178D01*
X265764Y220174D01*
X265687Y220158D01*
X265616Y220131D01*
Y237500D01*
G37*
G36*
X263722D02*X265616D01*
Y220131D01*
X265613Y220130D01*
X265545Y220091D01*
X265484Y220042D01*
X265431Y219983D01*
X265389Y219917D01*
X265226Y219592D01*
X265097Y219252D01*
X264999Y218902D01*
X264933Y218544D01*
X264900Y218182D01*
Y217818D01*
X264933Y217456D01*
X264999Y217098D01*
X265097Y216748D01*
X265226Y216408D01*
X265385Y216081D01*
X265428Y216015D01*
X265481Y215956D01*
X265543Y215906D01*
X265612Y215867D01*
X265616Y215865D01*
Y81500D01*
X263722D01*
Y96672D01*
X263771Y96699D01*
X263848Y96759D01*
X263915Y96831D01*
X263969Y96914D01*
X264196Y97350D01*
X264376Y97808D01*
X264512Y98281D01*
X264604Y98764D01*
X264650Y99254D01*
Y99746D01*
X264604Y100236D01*
X264512Y100719D01*
X264376Y101192D01*
X264196Y101650D01*
X263974Y102089D01*
X263919Y102172D01*
X263851Y102244D01*
X263773Y102305D01*
X263722Y102333D01*
Y106505D01*
X264092Y107109D01*
X264408Y107873D01*
X264601Y108676D01*
X264650Y109500D01*
X264601Y110324D01*
X264408Y111127D01*
X264092Y111891D01*
X263722Y112495D01*
Y196672D01*
X263771Y196699D01*
X263848Y196759D01*
X263915Y196831D01*
X263969Y196914D01*
X264196Y197350D01*
X264376Y197808D01*
X264512Y198281D01*
X264604Y198764D01*
X264650Y199254D01*
Y199746D01*
X264604Y200236D01*
X264512Y200719D01*
X264376Y201192D01*
X264196Y201650D01*
X263974Y202089D01*
X263919Y202172D01*
X263851Y202244D01*
X263773Y202305D01*
X263722Y202333D01*
Y206505D01*
X264092Y207109D01*
X264408Y207873D01*
X264601Y208676D01*
X264650Y209500D01*
X264601Y210324D01*
X264408Y211127D01*
X264092Y211891D01*
X263722Y212495D01*
Y237500D01*
G37*
G36*
Y112495D02*X263660Y112595D01*
X263124Y113224D01*
X262495Y113760D01*
X261791Y114192D01*
X261027Y114508D01*
X260224Y114701D01*
X259402Y114766D01*
Y194250D01*
X259646D01*
X260136Y194296D01*
X260619Y194388D01*
X261092Y194524D01*
X261550Y194704D01*
X261989Y194926D01*
X262072Y194981D01*
X262144Y195049D01*
X262205Y195127D01*
X262253Y195214D01*
X262287Y195307D01*
X262306Y195404D01*
X262309Y195503D01*
X262297Y195601D01*
X262270Y195696D01*
X262228Y195786D01*
X262172Y195868D01*
X262105Y195941D01*
X262027Y196002D01*
X261940Y196050D01*
X261847Y196084D01*
X261750Y196102D01*
X261651Y196106D01*
X261552Y196094D01*
X261457Y196066D01*
X261368Y196023D01*
X261036Y195850D01*
X260688Y195713D01*
X260328Y195609D01*
X259960Y195539D01*
X259587Y195504D01*
X259402D01*
Y203496D01*
X259587D01*
X259960Y203461D01*
X260328Y203391D01*
X260688Y203287D01*
X261036Y203150D01*
X261371Y202981D01*
X261459Y202938D01*
X261553Y202911D01*
X261651Y202898D01*
X261749Y202902D01*
X261846Y202921D01*
X261938Y202954D01*
X262024Y203002D01*
X262102Y203062D01*
X262169Y203134D01*
X262224Y203216D01*
X262266Y203305D01*
X262293Y203400D01*
X262305Y203497D01*
X262301Y203596D01*
X262283Y203692D01*
X262249Y203785D01*
X262201Y203871D01*
X262141Y203948D01*
X262069Y204015D01*
X261986Y204069D01*
X261550Y204296D01*
X261092Y204476D01*
X261032Y204493D01*
X261791Y204808D01*
X262495Y205240D01*
X263124Y205776D01*
X263660Y206405D01*
X263722Y206505D01*
Y202333D01*
X263686Y202353D01*
X263593Y202387D01*
X263496Y202406D01*
X263397Y202409D01*
X263299Y202397D01*
X263204Y202370D01*
X263114Y202328D01*
X263032Y202272D01*
X262959Y202205D01*
X262898Y202127D01*
X262850Y202040D01*
X262816Y201947D01*
X262798Y201850D01*
X262794Y201751D01*
X262806Y201652D01*
X262834Y201557D01*
X262877Y201468D01*
X263050Y201136D01*
X263187Y200788D01*
X263291Y200428D01*
X263361Y200060D01*
X263396Y199687D01*
Y199313D01*
X263361Y198940D01*
X263291Y198572D01*
X263187Y198212D01*
X263050Y197864D01*
X262881Y197529D01*
X262838Y197441D01*
X262811Y197347D01*
X262798Y197249D01*
X262802Y197151D01*
X262821Y197054D01*
X262854Y196962D01*
X262902Y196876D01*
X262962Y196798D01*
X263034Y196731D01*
X263116Y196676D01*
X263205Y196634D01*
X263300Y196607D01*
X263397Y196595D01*
X263496Y196599D01*
X263592Y196617D01*
X263685Y196651D01*
X263722Y196672D01*
Y112495D01*
G37*
G36*
Y81500D02*X259402D01*
Y94250D01*
X259646D01*
X260136Y94296D01*
X260619Y94388D01*
X261092Y94524D01*
X261550Y94704D01*
X261989Y94926D01*
X262072Y94981D01*
X262144Y95049D01*
X262205Y95127D01*
X262253Y95214D01*
X262287Y95307D01*
X262306Y95404D01*
X262309Y95503D01*
X262297Y95601D01*
X262270Y95696D01*
X262228Y95786D01*
X262172Y95868D01*
X262105Y95941D01*
X262027Y96002D01*
X261940Y96050D01*
X261847Y96084D01*
X261750Y96102D01*
X261651Y96106D01*
X261552Y96094D01*
X261457Y96066D01*
X261368Y96023D01*
X261036Y95850D01*
X260688Y95713D01*
X260328Y95609D01*
X259960Y95539D01*
X259587Y95504D01*
X259402D01*
Y103496D01*
X259587D01*
X259960Y103461D01*
X260328Y103391D01*
X260688Y103287D01*
X261036Y103150D01*
X261371Y102981D01*
X261459Y102938D01*
X261553Y102911D01*
X261651Y102898D01*
X261749Y102902D01*
X261846Y102921D01*
X261938Y102954D01*
X262024Y103002D01*
X262102Y103062D01*
X262169Y103134D01*
X262224Y103216D01*
X262266Y103305D01*
X262293Y103400D01*
X262305Y103497D01*
X262301Y103596D01*
X262283Y103692D01*
X262249Y103785D01*
X262201Y103871D01*
X262141Y103948D01*
X262069Y104015D01*
X261986Y104069D01*
X261550Y104296D01*
X261092Y104476D01*
X261032Y104493D01*
X261791Y104808D01*
X262495Y105240D01*
X263124Y105776D01*
X263660Y106405D01*
X263722Y106505D01*
Y102333D01*
X263686Y102353D01*
X263593Y102387D01*
X263496Y102406D01*
X263397Y102409D01*
X263299Y102397D01*
X263204Y102370D01*
X263114Y102328D01*
X263032Y102272D01*
X262959Y102205D01*
X262898Y102127D01*
X262850Y102040D01*
X262816Y101947D01*
X262798Y101850D01*
X262794Y101751D01*
X262806Y101652D01*
X262834Y101557D01*
X262877Y101468D01*
X263050Y101136D01*
X263187Y100788D01*
X263291Y100428D01*
X263361Y100060D01*
X263396Y99687D01*
Y99313D01*
X263361Y98940D01*
X263291Y98572D01*
X263187Y98212D01*
X263050Y97864D01*
X262881Y97529D01*
X262838Y97441D01*
X262811Y97347D01*
X262798Y97249D01*
X262802Y97151D01*
X262821Y97054D01*
X262854Y96962D01*
X262902Y96876D01*
X262962Y96798D01*
X263034Y96731D01*
X263116Y96676D01*
X263205Y96634D01*
X263300Y96607D01*
X263397Y96595D01*
X263496Y96599D01*
X263592Y96617D01*
X263685Y96651D01*
X263722Y96672D01*
Y81500D01*
G37*
G36*
X259402Y237500D02*X263722D01*
Y212495D01*
X263660Y212595D01*
X263124Y213224D01*
X262495Y213760D01*
X261791Y214192D01*
X261027Y214508D01*
X260224Y214701D01*
X259402Y214766D01*
Y237500D01*
G37*
G36*
X255078Y106505D02*X255140Y106405D01*
X255676Y105776D01*
X256305Y105240D01*
X257009Y104808D01*
X257768Y104493D01*
X257708Y104476D01*
X257250Y104296D01*
X256811Y104074D01*
X256728Y104019D01*
X256656Y103951D01*
X256595Y103873D01*
X256547Y103786D01*
X256513Y103693D01*
X256494Y103596D01*
X256491Y103497D01*
X256503Y103399D01*
X256530Y103304D01*
X256572Y103214D01*
X256628Y103132D01*
X256695Y103059D01*
X256773Y102998D01*
X256860Y102950D01*
X256953Y102916D01*
X257050Y102898D01*
X257149Y102894D01*
X257248Y102906D01*
X257343Y102934D01*
X257432Y102977D01*
X257764Y103150D01*
X258112Y103287D01*
X258472Y103391D01*
X258840Y103461D01*
X259213Y103496D01*
X259402D01*
Y95504D01*
X259213D01*
X258840Y95539D01*
X258472Y95609D01*
X258112Y95713D01*
X257764Y95850D01*
X257429Y96019D01*
X257341Y96062D01*
X257247Y96089D01*
X257149Y96102D01*
X257051Y96098D01*
X256954Y96079D01*
X256862Y96046D01*
X256776Y95998D01*
X256698Y95938D01*
X256631Y95866D01*
X256576Y95784D01*
X256534Y95695D01*
X256507Y95600D01*
X256495Y95503D01*
X256499Y95404D01*
X256517Y95308D01*
X256551Y95215D01*
X256599Y95129D01*
X256659Y95052D01*
X256731Y94985D01*
X256814Y94931D01*
X257250Y94704D01*
X257708Y94524D01*
X258181Y94388D01*
X258664Y94296D01*
X259154Y94250D01*
X259402D01*
Y81500D01*
X255078D01*
Y96667D01*
X255114Y96647D01*
X255207Y96613D01*
X255304Y96594D01*
X255403Y96591D01*
X255501Y96603D01*
X255596Y96630D01*
X255686Y96672D01*
X255768Y96728D01*
X255841Y96795D01*
X255902Y96873D01*
X255950Y96960D01*
X255984Y97053D01*
X256002Y97150D01*
X256006Y97249D01*
X255994Y97348D01*
X255966Y97443D01*
X255923Y97532D01*
X255750Y97864D01*
X255613Y98212D01*
X255509Y98572D01*
X255439Y98940D01*
X255404Y99313D01*
Y99687D01*
X255439Y100060D01*
X255509Y100428D01*
X255613Y100788D01*
X255750Y101136D01*
X255919Y101471D01*
X255962Y101559D01*
X255989Y101653D01*
X256002Y101751D01*
X255998Y101849D01*
X255979Y101946D01*
X255946Y102038D01*
X255898Y102124D01*
X255838Y102202D01*
X255766Y102269D01*
X255684Y102324D01*
X255595Y102366D01*
X255500Y102393D01*
X255403Y102405D01*
X255304Y102401D01*
X255208Y102383D01*
X255115Y102349D01*
X255078Y102328D01*
Y106505D01*
G37*
G36*
Y206505D02*X255140Y206405D01*
X255676Y205776D01*
X256305Y205240D01*
X257009Y204808D01*
X257768Y204493D01*
X257708Y204476D01*
X257250Y204296D01*
X256811Y204074D01*
X256728Y204019D01*
X256656Y203951D01*
X256595Y203873D01*
X256547Y203786D01*
X256513Y203693D01*
X256494Y203596D01*
X256491Y203497D01*
X256503Y203399D01*
X256530Y203304D01*
X256572Y203214D01*
X256628Y203132D01*
X256695Y203059D01*
X256773Y202998D01*
X256860Y202950D01*
X256953Y202916D01*
X257050Y202898D01*
X257149Y202894D01*
X257248Y202906D01*
X257343Y202934D01*
X257432Y202977D01*
X257764Y203150D01*
X258112Y203287D01*
X258472Y203391D01*
X258840Y203461D01*
X259213Y203496D01*
X259402D01*
Y195504D01*
X259213D01*
X258840Y195539D01*
X258472Y195609D01*
X258112Y195713D01*
X257764Y195850D01*
X257429Y196019D01*
X257341Y196062D01*
X257247Y196089D01*
X257149Y196102D01*
X257051Y196098D01*
X256954Y196079D01*
X256862Y196046D01*
X256776Y195998D01*
X256698Y195938D01*
X256631Y195866D01*
X256576Y195784D01*
X256534Y195695D01*
X256507Y195600D01*
X256495Y195503D01*
X256499Y195404D01*
X256517Y195308D01*
X256551Y195215D01*
X256599Y195129D01*
X256659Y195052D01*
X256731Y194985D01*
X256814Y194931D01*
X257250Y194704D01*
X257708Y194524D01*
X258181Y194388D01*
X258664Y194296D01*
X259154Y194250D01*
X259402D01*
Y114766D01*
X259400Y114766D01*
X258576Y114701D01*
X257773Y114508D01*
X257009Y114192D01*
X256305Y113760D01*
X255676Y113224D01*
X255140Y112595D01*
X255078Y112495D01*
Y196667D01*
X255114Y196647D01*
X255207Y196613D01*
X255304Y196594D01*
X255403Y196591D01*
X255501Y196603D01*
X255596Y196630D01*
X255686Y196672D01*
X255768Y196728D01*
X255841Y196795D01*
X255902Y196873D01*
X255950Y196960D01*
X255984Y197053D01*
X256002Y197150D01*
X256006Y197249D01*
X255994Y197348D01*
X255966Y197443D01*
X255923Y197532D01*
X255750Y197864D01*
X255613Y198212D01*
X255509Y198572D01*
X255439Y198940D01*
X255404Y199313D01*
Y199687D01*
X255439Y200060D01*
X255509Y200428D01*
X255613Y200788D01*
X255750Y201136D01*
X255919Y201471D01*
X255962Y201559D01*
X255989Y201653D01*
X256002Y201751D01*
X255998Y201849D01*
X255979Y201946D01*
X255946Y202038D01*
X255898Y202124D01*
X255838Y202202D01*
X255766Y202269D01*
X255684Y202324D01*
X255595Y202366D01*
X255500Y202393D01*
X255403Y202405D01*
X255304Y202401D01*
X255208Y202383D01*
X255115Y202349D01*
X255078Y202328D01*
Y206505D01*
G37*
G36*
Y237500D02*X259402D01*
Y214766D01*
X259400Y214766D01*
X258576Y214701D01*
X257773Y214508D01*
X257009Y214192D01*
X256305Y213760D01*
X255676Y213224D01*
X255140Y212595D01*
X255078Y212495D01*
Y237500D01*
G37*
G36*
X239383Y220223D02*X239400Y220221D01*
X240851Y220336D01*
X242267Y220676D01*
X243612Y221233D01*
X244854Y221994D01*
X245961Y222939D01*
X246906Y224046D01*
X247667Y225288D01*
X248224Y226633D01*
X248564Y228049D01*
X248650Y229500D01*
X248564Y230951D01*
X248224Y232367D01*
X247667Y233712D01*
X246906Y234954D01*
X245961Y236061D01*
X244854Y237006D01*
X244048Y237500D01*
X255078D01*
Y212495D01*
X254708Y211891D01*
X254392Y211127D01*
X254199Y210324D01*
X254134Y209500D01*
X254199Y208676D01*
X254392Y207873D01*
X254708Y207109D01*
X255078Y206505D01*
Y202328D01*
X255029Y202301D01*
X254952Y202241D01*
X254885Y202169D01*
X254831Y202086D01*
X254604Y201650D01*
X254424Y201192D01*
X254288Y200719D01*
X254196Y200236D01*
X254150Y199746D01*
Y199254D01*
X254196Y198764D01*
X254288Y198281D01*
X254424Y197808D01*
X254604Y197350D01*
X254826Y196911D01*
X254881Y196828D01*
X254949Y196756D01*
X255027Y196695D01*
X255078Y196667D01*
Y112495D01*
X254708Y111891D01*
X254392Y111127D01*
X254199Y110324D01*
X254134Y109500D01*
X254199Y108676D01*
X254392Y107873D01*
X254708Y107109D01*
X255078Y106505D01*
Y102328D01*
X255029Y102301D01*
X254952Y102241D01*
X254885Y102169D01*
X254831Y102086D01*
X254604Y101650D01*
X254424Y101192D01*
X254288Y100719D01*
X254196Y100236D01*
X254150Y99746D01*
Y99254D01*
X254196Y98764D01*
X254288Y98281D01*
X254424Y97808D01*
X254604Y97350D01*
X254826Y96911D01*
X254881Y96828D01*
X254949Y96756D01*
X255027Y96695D01*
X255078Y96667D01*
Y81500D01*
X244048D01*
X244854Y81994D01*
X245961Y82939D01*
X246906Y84046D01*
X247667Y85288D01*
X248224Y86633D01*
X248564Y88049D01*
X248650Y89500D01*
X248564Y90951D01*
X248224Y92367D01*
X247667Y93712D01*
X246906Y94954D01*
X245961Y96061D01*
X244854Y97006D01*
X243612Y97767D01*
X242267Y98324D01*
X240851Y98664D01*
X239400Y98779D01*
X239383Y98777D01*
Y118217D01*
X239400Y118215D01*
X241165Y118354D01*
X242887Y118768D01*
X244523Y119445D01*
X246033Y120370D01*
X247379Y121521D01*
X248530Y122867D01*
X249455Y124377D01*
X250132Y126013D01*
X250546Y127735D01*
X250650Y129500D01*
X250546Y131265D01*
X250132Y132987D01*
X249455Y134623D01*
X248530Y136133D01*
X247379Y137479D01*
X246033Y138630D01*
X244523Y139555D01*
X242887Y140232D01*
X241165Y140646D01*
X239400Y140785D01*
X239383Y140783D01*
Y178217D01*
X239400Y178215D01*
X241165Y178354D01*
X242887Y178768D01*
X244523Y179445D01*
X246033Y180370D01*
X247379Y181521D01*
X248530Y182867D01*
X249455Y184377D01*
X250132Y186013D01*
X250546Y187735D01*
X250650Y189500D01*
X250546Y191265D01*
X250132Y192987D01*
X249455Y194623D01*
X248530Y196133D01*
X247379Y197479D01*
X246033Y198630D01*
X244523Y199555D01*
X242887Y200232D01*
X241165Y200646D01*
X239400Y200785D01*
X239383Y200783D01*
Y220223D01*
G37*
G36*
X210400Y237500D02*X234752D01*
X233946Y237006D01*
X232839Y236061D01*
X231894Y234954D01*
X231133Y233712D01*
X230576Y232367D01*
X230236Y230951D01*
X230121Y229500D01*
X230236Y228049D01*
X230576Y226633D01*
X231133Y225288D01*
X231894Y224046D01*
X232839Y222939D01*
X233946Y221994D01*
X235188Y221233D01*
X236533Y220676D01*
X237949Y220336D01*
X239383Y220223D01*
Y200783D01*
X237635Y200646D01*
X235913Y200232D01*
X234277Y199555D01*
X232767Y198630D01*
X231421Y197479D01*
X230270Y196133D01*
X229345Y194623D01*
X228668Y192987D01*
X228254Y191265D01*
X228115Y189500D01*
X228254Y187735D01*
X228668Y186013D01*
X229345Y184377D01*
X230270Y182867D01*
X231421Y181521D01*
X232767Y180370D01*
X234277Y179445D01*
X235913Y178768D01*
X237635Y178354D01*
X239383Y178217D01*
Y140783D01*
X237635Y140646D01*
X235913Y140232D01*
X234277Y139555D01*
X232767Y138630D01*
X231421Y137479D01*
X230270Y136133D01*
X229345Y134623D01*
X228668Y132987D01*
X228254Y131265D01*
X228115Y129500D01*
X228254Y127735D01*
X228668Y126013D01*
X229345Y124377D01*
X230270Y122867D01*
X231421Y121521D01*
X232767Y120370D01*
X234277Y119445D01*
X235913Y118768D01*
X237635Y118354D01*
X239383Y118217D01*
Y98777D01*
X237949Y98664D01*
X236533Y98324D01*
X235188Y97767D01*
X233946Y97006D01*
X232839Y96061D01*
X231894Y94954D01*
X231133Y93712D01*
X230576Y92367D01*
X230236Y90951D01*
X230121Y89500D01*
X230236Y88049D01*
X230576Y86633D01*
X231133Y85288D01*
X231894Y84046D01*
X232839Y82939D01*
X233946Y81994D01*
X234752Y81500D01*
X210400D01*
Y237500D01*
G37*
G54D33*X239600Y382000D02*X264000D01*
X239600Y391100D02*X226100D01*
X226000Y391000D01*
X239600Y373000D02*X228000D01*
X226750Y374250D01*
X232500Y406000D02*X259500D01*
X226000Y421000D02*X252000D01*
X256000Y425000D01*
X267000D01*
X271000Y421000D01*
Y408000D01*
X263500Y355500D02*X293500D01*
X304000Y366000D01*
X314500Y444500D02*Y254500D01*
G54D34*X307000Y333000D02*X303000Y337000D01*
G54D33*X276000Y278000D02*Y273500D01*
G54D34*X290500Y289500D02*X287000Y286000D01*
G54D33*X259500Y406000D02*X265000Y400500D01*
X288500D01*
X296500Y392500D02*X288500Y400500D01*
X264500Y444500D02*X314500D01*
G54D34*X307000Y289500D02*Y333000D01*
G54D33*X274500Y254500D02*X314500D01*
G54D34*X307000Y289500D02*X290500D01*
G54D35*X285400Y114500D02*X300900D01*
X306900Y120500D01*
Y91500D01*
X313400Y85000D01*
G54D33*X296500Y381000D02*Y392500D01*
G54D34*X303000Y337000D02*X226500D01*
G54D33*X214500Y254500D02*Y444500D01*
G54D34*X222000Y332500D02*X226500Y337000D01*
X222000Y265000D02*X224500Y262500D01*
Y254500D01*
G54D33*X214500D01*
Y444500D02*X224500D01*
X314500Y344500D02*X214500D01*
X243095Y294595D02*Y300095D01*
X261000Y318000D01*
X254500Y254500D02*Y273500D01*
X234500Y254500D02*Y266000D01*
X229500Y271000D01*
X276000Y273500D02*X257405D01*
X254905Y276000D01*
X276000Y278000D02*X256905D01*
X254905Y276000D01*
G54D34*X244000Y286000D02*X287000D01*
G54D33*X229500Y271000D02*Y303500D01*
X244000Y318000D01*
G54D34*X222000Y332500D02*Y265000D01*
G54D33*X244000Y318000D02*X261000D01*
X243095Y285750D02*Y295095D01*
G54D36*X389400Y173000D02*X362900D01*
G54D35*X313400Y85000D02*X376400D01*
X391900Y100500D01*
Y108500D01*
G54D36*X288900Y197457D02*Y193250D01*
Y197457D02*X291400Y199957D01*
X293900Y213750D02*Y209543D01*
X291400Y207043D01*
G54D37*X261000Y418000D03*
X281000D03*
X271000Y408000D03*
G54D38*X214500Y404500D03*
Y394500D03*
G54D32*G36*
X311500Y447500D02*Y441500D01*
X317500D01*
Y447500D01*
X311500D01*
G37*
G54D38*X314500Y434500D03*
Y424500D03*
Y414500D03*
Y404500D03*
Y394500D03*
Y384500D03*
Y374500D03*
G54D32*G36*
X211500Y447500D02*Y441500D01*
X217500D01*
Y447500D01*
X211500D01*
G37*
G54D38*X214500Y434500D03*
Y424500D03*
Y414500D03*
G54D32*G36*
X221500Y447500D02*Y441500D01*
X227500D01*
Y447500D01*
X221500D01*
G37*
G54D38*X234500Y444500D03*
X244500D03*
X254500D03*
X264500D03*
X274500D03*
X284500D03*
X294500D03*
X304500D03*
G54D37*X261000Y318000D03*
X281000D03*
X271000Y308000D03*
G54D38*X214500Y354500D03*
Y344500D03*
Y334500D03*
Y324500D03*
G54D32*G36*
X221500Y347500D02*Y341500D01*
X227500D01*
Y347500D01*
X221500D01*
G37*
G54D38*X314500Y364500D03*
Y354500D03*
Y344500D03*
Y334500D03*
Y324500D03*
Y314500D03*
Y304500D03*
Y294500D03*
Y284500D03*
Y274500D03*
Y264500D03*
Y254500D03*
X214500Y314500D03*
Y304500D03*
Y294500D03*
Y284500D03*
Y274500D03*
Y264500D03*
Y254500D03*
G54D32*G36*
X221500Y257500D02*Y251500D01*
X227500D01*
Y257500D01*
X221500D01*
G37*
G54D38*X234500Y254500D03*
X254500D03*
X264500D03*
X274500D03*
X284500D03*
X294500D03*
X304500D03*
X214500Y384500D03*
Y374500D03*
Y364500D03*
X234500Y344500D03*
X244500D03*
X254500D03*
X264500D03*
X274500D03*
X284500D03*
X294500D03*
X304500D03*
G54D32*G36*
X347900Y162500D02*Y154500D01*
X355900D01*
Y162500D01*
X347900D01*
G37*
G54D39*X361900Y158500D03*
X371900D03*
X381900D03*
G54D32*G36*
X357900Y112500D02*Y104500D01*
X365900D01*
Y112500D01*
X357900D01*
G37*
G54D39*X371900Y108500D03*
X381900D03*
X391900D03*
X401900D03*
G54D38*X244500Y254500D03*
G54D40*X239400Y189500D03*
G54D41*Y229500D03*
G54D39*X259400Y199500D03*
Y209500D03*
G54D41*X239400Y89500D03*
G54D40*Y129500D03*
G54D39*X259400Y99500D03*
Y109500D03*
G54D42*X236300Y373000D02*X242900D01*
X236300Y382000D02*X242900D01*
X236300Y391100D02*X242900D01*
G54D43*X264000Y386500D02*Y377500D01*
G54D44*X243095Y277181D02*Y274819D01*
X254905Y277181D02*Y274819D01*
X263745Y273595D02*X269255D01*
X263745Y285405D02*X269255D01*
X291007Y199957D02*X291793D01*
X291007Y207043D02*X291793D01*
G54D45*X276000Y278000D03*
X243000Y274000D03*
Y277500D03*
X276000Y273500D03*
X269500Y286000D03*
G54D38*X268900Y218000D03*
X382983Y213417D03*
G54D45*X293900Y213750D03*
G54D46*X104200Y209500D03*
X136405D03*
X104200Y109500D03*
X136405D03*
X82090Y55940D03*
X68900Y249000D03*
X179900D03*
G54D45*X260000Y386500D03*
X264000D03*
X268000D03*
Y382500D03*
X264000D03*
X260000D03*
X268000Y390500D03*
X264000D03*
X260000D03*
G54D46*X271000Y418000D03*
G54D45*X260000Y378500D03*
Y374500D03*
X264000Y378500D03*
Y374500D03*
G54D38*X263500Y355500D03*
G54D45*X268000Y378500D03*
G54D38*X304500Y366500D03*
X296500Y381000D03*
G54D46*X271000Y318000D03*
G54D38*X354983Y190583D03*
G54D45*X288900Y193250D03*
G54D38*X298900Y182000D03*
G54D45*X362900Y173000D03*
G54D38*X324400Y93500D03*
X325495Y112595D03*
X285400Y114500D03*
X306900Y120500D03*
G54D45*X389400Y173000D03*
G54D46*X445795Y141000D03*
X478000D03*
G54D45*X268000Y374500D03*
G54D38*X226750Y374250D03*
X226000Y391000D03*
Y421000D03*
X232500Y406000D03*
G54D46*X124400Y469400D03*
X130900Y318000D03*
Y418000D03*
X68900Y450000D03*
X179900D03*
G54D36*G54D34*G54D36*G54D34*G54D36*G54D34*G54D36*G54D34*G54D36*G54D34*G54D36*G54D34*G54D36*G54D34*G54D36*G54D47*G54D48*G54D47*G54D48*G54D35*G54D48*G54D49*G54D50*G54D49*G54D50*M02*
