G04 start of page 2 for group 0 idx 0 *
G04 Title: (unknown), component *
G04 Creator: pcb 20140316 *
G04 CreationDate: Tue 22 Dec 2015 03:43:44 PM GMT UTC *
G04 For: fosse *
G04 Format: Gerber/RS-274X *
G04 PCB-Dimensions (mil): 5250.00 5000.00 *
G04 PCB-Coordinate-Origin: lower left *
%MOIN*%
%FSLAX25Y25*%
%LNTOP*%
%ADD32C,0.0320*%
%ADD31C,0.0790*%
%ADD30C,0.0380*%
%ADD29C,0.0225*%
%ADD28C,0.0240*%
%ADD27C,0.0360*%
%ADD26R,0.0515X0.0515*%
%ADD25R,0.0200X0.0200*%
%ADD24R,0.0512X0.0512*%
%ADD23C,0.1600*%
%ADD22C,0.2000*%
%ADD21C,0.0800*%
%ADD20C,0.0600*%
%ADD19C,0.0500*%
%ADD18C,0.0400*%
%ADD17C,0.0200*%
%ADD16C,0.0150*%
%ADD15C,0.0000*%
%ADD14C,0.0350*%
%ADD13C,0.0550*%
%ADD12C,0.0039*%
%ADD11C,0.0001*%
G54D11*G36*
X292095Y315702D02*X293958Y313839D01*
X292095Y313836D01*
Y315702D01*
G37*
G36*
X294654Y347340D02*X292095Y347336D01*
Y354202D01*
X300155Y346142D01*
Y335228D01*
X300075Y335422D01*
X299746Y335958D01*
X299337Y336437D01*
X298858Y336846D01*
X298322Y337175D01*
X297740Y337416D01*
X297128Y337563D01*
X296500Y337612D01*
X295872Y337563D01*
X295260Y337416D01*
X294678Y337175D01*
X294142Y336846D01*
X293663Y336437D01*
X293254Y335958D01*
X292925Y335422D01*
X292859Y335262D01*
X292095Y334498D01*
Y337864D01*
X294811Y337869D01*
X294964Y337906D01*
X295109Y337966D01*
X295244Y338048D01*
X295363Y338151D01*
X295466Y338270D01*
X295548Y338405D01*
X295608Y338550D01*
X295645Y338703D01*
X295654Y338860D01*
X295645Y346497D01*
X295608Y346650D01*
X295548Y346795D01*
X295466Y346930D01*
X295363Y347049D01*
X295244Y347152D01*
X295109Y347234D01*
X294964Y347294D01*
X294811Y347331D01*
X294654Y347340D01*
G37*
G36*
X292095Y392600D02*X294324D01*
X294500Y392586D01*
X294676Y392600D01*
X304324D01*
X304500Y392586D01*
X304676Y392600D01*
X310750D01*
Y389593D01*
X310478Y389149D01*
X310207Y388495D01*
X310042Y387806D01*
X309986Y387100D01*
X310042Y386394D01*
X310207Y385705D01*
X310478Y385051D01*
X310750Y384607D01*
Y379593D01*
X310478Y379149D01*
X310207Y378495D01*
X310042Y377806D01*
X309986Y377100D01*
X310042Y376394D01*
X310207Y375705D01*
X310478Y375051D01*
X310750Y374607D01*
Y369593D01*
X310478Y369149D01*
X310207Y368495D01*
X310042Y367806D01*
X309986Y367100D01*
X310042Y366394D01*
X310207Y365705D01*
X310478Y365051D01*
X310750Y364607D01*
Y359593D01*
X310478Y359149D01*
X310207Y358495D01*
X310042Y357806D01*
X309986Y357100D01*
X310042Y356394D01*
X310207Y355705D01*
X310478Y355051D01*
X310750Y354607D01*
Y349593D01*
X310478Y349149D01*
X310207Y348495D01*
X310042Y347806D01*
X309986Y347100D01*
X310042Y346394D01*
X310207Y345705D01*
X310478Y345051D01*
X310750Y344607D01*
Y339593D01*
X310478Y339149D01*
X310207Y338495D01*
X310042Y337806D01*
X309986Y337100D01*
X310042Y336394D01*
X310207Y335705D01*
X310478Y335051D01*
X310750Y334607D01*
Y329593D01*
X310478Y329149D01*
X310207Y328495D01*
X310042Y327806D01*
X309986Y327100D01*
X310042Y326394D01*
X310207Y325705D01*
X310478Y325051D01*
X310750Y324607D01*
Y319593D01*
X310478Y319149D01*
X310207Y318495D01*
X310042Y317806D01*
X309986Y317100D01*
X310042Y316394D01*
X310207Y315705D01*
X310478Y315051D01*
X310750Y314607D01*
Y309593D01*
X310478Y309149D01*
X310207Y308495D01*
X310042Y307806D01*
X309986Y307100D01*
X310042Y306394D01*
X310207Y305705D01*
X310478Y305051D01*
X310750Y304607D01*
Y300850D01*
X306993D01*
X306549Y301122D01*
X305895Y301393D01*
X305206Y301558D01*
X304500Y301614D01*
X303794Y301558D01*
X303105Y301393D01*
X302451Y301122D01*
X302007Y300850D01*
X296993D01*
X296549Y301122D01*
X295895Y301393D01*
X295206Y301558D01*
X294500Y301614D01*
X293794Y301558D01*
X293105Y301393D01*
X292451Y301122D01*
X292095Y300904D01*
Y304364D01*
X294811Y304369D01*
X294964Y304406D01*
X295109Y304466D01*
X295244Y304548D01*
X295363Y304651D01*
X295466Y304770D01*
X295548Y304905D01*
X295608Y305050D01*
X295645Y305203D01*
X295654Y305360D01*
X295651Y307886D01*
X295672Y307938D01*
X295810Y308512D01*
X295856Y309100D01*
X295810Y309688D01*
X295672Y310262D01*
X295648Y310321D01*
X295646Y312151D01*
X300353Y307444D01*
X300355Y305203D01*
X300392Y305050D01*
X300452Y304905D01*
X300534Y304770D01*
X300637Y304651D01*
X300756Y304548D01*
X300891Y304466D01*
X301036Y304406D01*
X301189Y304369D01*
X301346Y304360D01*
X306621Y304369D01*
X306774Y304406D01*
X306919Y304466D01*
X307054Y304548D01*
X307173Y304651D01*
X307276Y304770D01*
X307358Y304905D01*
X307418Y305050D01*
X307455Y305203D01*
X307464Y305360D01*
X307461Y307885D01*
X307483Y307938D01*
X307620Y308512D01*
X307643Y308891D01*
X307667Y309195D01*
X307620Y309783D01*
X307620Y309783D01*
X307483Y310357D01*
X307458Y310417D01*
X307455Y312997D01*
X307418Y313150D01*
X307358Y313295D01*
X307276Y313430D01*
X307173Y313549D01*
X307054Y313652D01*
X306919Y313734D01*
X306774Y313794D01*
X306621Y313831D01*
X306464Y313840D01*
X304567Y313837D01*
X303020Y315384D01*
X303260Y315284D01*
X303872Y315137D01*
X304500Y315088D01*
X305128Y315137D01*
X305740Y315284D01*
X306322Y315525D01*
X306858Y315854D01*
X307337Y316263D01*
X307746Y316742D01*
X308075Y317278D01*
X308316Y317860D01*
X308463Y318472D01*
X308500Y319100D01*
X308463Y319728D01*
X308316Y320340D01*
X308250Y320499D01*
Y324858D01*
X308262Y325005D01*
X308215Y325593D01*
X308215Y325594D01*
X308077Y326168D01*
X307852Y326713D01*
X307655Y327033D01*
Y347548D01*
X307667Y347695D01*
X307620Y348283D01*
X307620Y348283D01*
X307483Y348857D01*
X307257Y349403D01*
X306948Y349906D01*
X306565Y350355D01*
X306453Y350450D01*
X292095Y364808D01*
Y392600D01*
G37*
G36*
X270995Y368600D02*X271000D01*
X271314Y368619D01*
X271620Y368692D01*
X271911Y368812D01*
X272179Y368977D01*
X272419Y369181D01*
X272623Y369421D01*
X272788Y369689D01*
X272908Y369980D01*
X272981Y370286D01*
X273006Y370600D01*
X272981Y370914D01*
X272908Y371220D01*
X272788Y371511D01*
X272623Y371779D01*
X272419Y372019D01*
X272179Y372223D01*
X271911Y372388D01*
X271620Y372508D01*
X271314Y372581D01*
X271000Y372600D01*
X270995D01*
Y392600D01*
X274324D01*
X274500Y392586D01*
X274676Y392600D01*
X284324D01*
X284500Y392586D01*
X284676Y392600D01*
X292095D01*
Y364808D01*
X283652Y373252D01*
X283211Y373643D01*
X282708Y373952D01*
X282162Y374177D01*
X281588Y374315D01*
X281000Y374362D01*
X280412Y374315D01*
X279838Y374177D01*
X279292Y373952D01*
X278789Y373643D01*
X278340Y373260D01*
X277957Y372811D01*
X277648Y372308D01*
X277423Y371762D01*
X277285Y371188D01*
X277238Y370600D01*
X277285Y370012D01*
X277423Y369438D01*
X277648Y368892D01*
X277957Y368389D01*
X278348Y367948D01*
X292095Y354202D01*
Y347336D01*
X289379Y347331D01*
X289226Y347294D01*
X289081Y347234D01*
X288946Y347152D01*
X288827Y347049D01*
X288724Y346930D01*
X288642Y346795D01*
X288582Y346650D01*
X288545Y346497D01*
X288536Y346340D01*
X288545Y338703D01*
X288582Y338550D01*
X288642Y338405D01*
X288724Y338270D01*
X288827Y338151D01*
X288946Y338048D01*
X289081Y337966D01*
X289226Y337906D01*
X289379Y337869D01*
X289536Y337860D01*
X292095Y337864D01*
Y334498D01*
X289452Y331856D01*
X289340Y331760D01*
X288957Y331311D01*
X288648Y330808D01*
X288423Y330262D01*
X288285Y329688D01*
X288285Y329688D01*
X288238Y329100D01*
X288250Y328953D01*
Y325652D01*
X288238Y325505D01*
X288250Y325358D01*
Y321247D01*
X288238Y321100D01*
X288285Y320512D01*
X288423Y319938D01*
X288648Y319392D01*
X288957Y318889D01*
X288957Y318889D01*
X289340Y318440D01*
X289452Y318344D01*
X292095Y315702D01*
Y313836D01*
X289379Y313831D01*
X289226Y313794D01*
X289081Y313734D01*
X288946Y313652D01*
X288827Y313549D01*
X288724Y313430D01*
X288642Y313295D01*
X288582Y313150D01*
X288545Y312997D01*
X288537Y312850D01*
X285955D01*
X285955Y312997D01*
X285918Y313150D01*
X285858Y313295D01*
X285776Y313430D01*
X285673Y313549D01*
X285554Y313652D01*
X285419Y313734D01*
X285274Y313794D01*
X285121Y313831D01*
X284964Y313840D01*
X279689Y313831D01*
X279536Y313794D01*
X279391Y313734D01*
X279256Y313652D01*
X279137Y313549D01*
X279034Y313430D01*
X278952Y313295D01*
X278892Y313150D01*
X278855Y312997D01*
X278846Y312840D01*
X278849Y310314D01*
X278828Y310262D01*
X278690Y309688D01*
X278644Y309100D01*
X278690Y308512D01*
X278828Y307938D01*
X278852Y307879D01*
X278855Y305203D01*
X278892Y305050D01*
X278952Y304905D01*
X279034Y304770D01*
X279137Y304651D01*
X279256Y304548D01*
X279391Y304466D01*
X279536Y304406D01*
X279689Y304369D01*
X279846Y304360D01*
X285121Y304369D01*
X285274Y304406D01*
X285419Y304466D01*
X285554Y304548D01*
X285673Y304651D01*
X285776Y304770D01*
X285858Y304905D01*
X285918Y305050D01*
X285955Y305203D01*
X285963Y305350D01*
X288545D01*
X288545Y305203D01*
X288582Y305050D01*
X288642Y304905D01*
X288724Y304770D01*
X288827Y304651D01*
X288946Y304548D01*
X289081Y304466D01*
X289226Y304406D01*
X289379Y304369D01*
X289536Y304360D01*
X292095Y304364D01*
Y300904D01*
X292007Y300850D01*
X286993D01*
X286549Y301122D01*
X285895Y301393D01*
X285206Y301558D01*
X284500Y301614D01*
X283794Y301558D01*
X283105Y301393D01*
X282451Y301122D01*
X282007Y300850D01*
X276993D01*
X276549Y301122D01*
X275895Y301393D01*
X275206Y301558D01*
X274500Y301614D01*
X273794Y301558D01*
X273105Y301393D01*
X272451Y301122D01*
X272007Y300850D01*
X270995D01*
Y304365D01*
X273311Y304369D01*
X273464Y304406D01*
X273609Y304466D01*
X273744Y304548D01*
X273863Y304651D01*
X273966Y304770D01*
X274048Y304905D01*
X274108Y305050D01*
X274145Y305203D01*
X274154Y305360D01*
X274151Y307886D01*
X274172Y307938D01*
X274172Y307938D01*
X274172Y307938D01*
X274243Y308231D01*
X274310Y308512D01*
X274310Y308512D01*
X274310Y308512D01*
X274356Y309100D01*
X274345Y309247D01*
Y310195D01*
X274310Y310783D01*
X274172Y311357D01*
X274147Y311419D01*
X274145Y312997D01*
X274108Y313150D01*
X274048Y313295D01*
X273966Y313430D01*
X273863Y313549D01*
X273744Y313652D01*
X273609Y313734D01*
X273464Y313794D01*
X273311Y313831D01*
X273154Y313840D01*
X271488Y313837D01*
X271183Y313910D01*
X270995Y313925D01*
Y357491D01*
X271000Y357490D01*
X271486Y357529D01*
X271961Y357643D01*
X272412Y357829D01*
X272828Y358084D01*
X273199Y358401D01*
X273516Y358772D01*
X273771Y359188D01*
X273957Y359639D01*
X274071Y360114D01*
X274100Y360600D01*
X274071Y361086D01*
X273957Y361561D01*
X273771Y362012D01*
X273516Y362428D01*
X273199Y362799D01*
X272828Y363116D01*
X272412Y363371D01*
X271961Y363557D01*
X271486Y363671D01*
X271000Y363710D01*
X270995Y363709D01*
Y368600D01*
G37*
G36*
Y300850D02*X266993D01*
X266549Y301122D01*
X265895Y301393D01*
X265206Y301558D01*
X264500Y301614D01*
X263996Y301574D01*
Y304127D01*
X264128Y304137D01*
X264740Y304284D01*
X265322Y304525D01*
X265346Y304540D01*
X267460D01*
X267581Y304466D01*
X267726Y304406D01*
X267879Y304369D01*
X268036Y304360D01*
X270995Y304365D01*
Y300850D01*
G37*
G36*
Y372600D02*X263996D01*
Y392600D01*
X264324D01*
X264500Y392586D01*
X264676Y392600D01*
X270995D01*
Y372600D01*
G37*
G36*
X263996Y368600D02*X270995D01*
Y363709D01*
X270514Y363671D01*
X270039Y363557D01*
X269588Y363371D01*
X269172Y363116D01*
X268801Y362799D01*
X268484Y362428D01*
X268229Y362012D01*
X268043Y361561D01*
X267929Y361086D01*
X267890Y360600D01*
X267929Y360114D01*
X268043Y359639D01*
X268229Y359188D01*
X268484Y358772D01*
X268801Y358401D01*
X269172Y358084D01*
X269588Y357829D01*
X270039Y357643D01*
X270514Y357529D01*
X270995Y357491D01*
Y313925D01*
X270595Y313956D01*
X270006Y313910D01*
X269689Y313834D01*
X267879Y313831D01*
X267726Y313794D01*
X267581Y313734D01*
X267446Y313652D01*
X267327Y313549D01*
X267224Y313430D01*
X267142Y313295D01*
X267082Y313150D01*
X267045Y312997D01*
X267036Y312840D01*
X267037Y312040D01*
X264223D01*
X264128Y312063D01*
X263996Y312073D01*
Y324292D01*
X264000Y324291D01*
X264439Y324326D01*
X264868Y324429D01*
X265275Y324597D01*
X265651Y324828D01*
X265986Y325114D01*
X266000Y325130D01*
X266014Y325114D01*
X266349Y324828D01*
X266725Y324597D01*
X267132Y324429D01*
X267561Y324326D01*
X268000Y324291D01*
X268439Y324326D01*
X268868Y324429D01*
X269275Y324597D01*
X269651Y324828D01*
X269986Y325114D01*
X270272Y325449D01*
X270503Y325825D01*
X270671Y326232D01*
X270774Y326661D01*
X270800Y327100D01*
X270774Y327539D01*
X270671Y327968D01*
X270503Y328375D01*
X270272Y328751D01*
X269986Y329086D01*
X269970Y329100D01*
X269986Y329114D01*
X270272Y329449D01*
X270503Y329825D01*
X270671Y330232D01*
X270774Y330661D01*
X270800Y331100D01*
X270774Y331539D01*
X270671Y331968D01*
X270503Y332375D01*
X270272Y332751D01*
X269986Y333086D01*
X269970Y333100D01*
X269986Y333114D01*
X270272Y333449D01*
X270503Y333825D01*
X270671Y334232D01*
X270774Y334661D01*
X270800Y335100D01*
X270774Y335539D01*
X270671Y335968D01*
X270503Y336375D01*
X270272Y336751D01*
X269986Y337086D01*
X269970Y337100D01*
X269986Y337114D01*
X270272Y337449D01*
X270503Y337825D01*
X270671Y338232D01*
X270774Y338661D01*
X270800Y339100D01*
X270774Y339539D01*
X270671Y339968D01*
X270503Y340375D01*
X270272Y340751D01*
X269986Y341086D01*
X269970Y341100D01*
X269986Y341114D01*
X270272Y341449D01*
X270503Y341825D01*
X270671Y342232D01*
X270774Y342661D01*
X270800Y343100D01*
X270774Y343539D01*
X270671Y343968D01*
X270503Y344375D01*
X270272Y344751D01*
X269986Y345086D01*
X269651Y345372D01*
X269275Y345603D01*
X268868Y345771D01*
X268439Y345874D01*
X268000Y345909D01*
X267561Y345874D01*
X267132Y345771D01*
X266725Y345603D01*
X266349Y345372D01*
X266014Y345086D01*
X266000Y345070D01*
X265986Y345086D01*
X265651Y345372D01*
X265275Y345603D01*
X264868Y345771D01*
X264439Y345874D01*
X264000Y345909D01*
X263996Y345908D01*
Y368600D01*
G37*
G36*
Y301574D02*X263794Y301558D01*
X263105Y301393D01*
X262451Y301122D01*
X262007Y300850D01*
X256993D01*
X256549Y301122D01*
X255895Y301393D01*
X255206Y301558D01*
X254500Y301614D01*
X253794Y301558D01*
X253105Y301393D01*
X252451Y301122D01*
X252007Y300850D01*
X248308D01*
Y304540D01*
X261654D01*
X261678Y304525D01*
X262260Y304284D01*
X262872Y304137D01*
X263500Y304088D01*
X263996Y304127D01*
Y301574D01*
G37*
G36*
Y372600D02*X263369D01*
X263199Y372799D01*
X262828Y373116D01*
X262412Y373371D01*
X261961Y373557D01*
X261486Y373671D01*
X261000Y373710D01*
X260514Y373671D01*
X260039Y373557D01*
X259588Y373371D01*
X259172Y373116D01*
X258801Y372799D01*
X258631Y372600D01*
X250714D01*
X250577Y373168D01*
X250352Y373713D01*
X250043Y374216D01*
X250043Y374216D01*
X249660Y374665D01*
X249548Y374761D01*
X248308Y376000D01*
Y384105D01*
X256803Y392600D01*
X263996D01*
Y372600D01*
G37*
G36*
X248308Y355605D02*X249548Y356844D01*
X249660Y356940D01*
X250043Y357389D01*
X250043Y357389D01*
X250352Y357892D01*
X250577Y358438D01*
X250715Y359012D01*
X250762Y359600D01*
X250750Y359747D01*
Y368600D01*
X258631D01*
X258801Y368401D01*
X259172Y368084D01*
X259588Y367829D01*
X260039Y367643D01*
X260514Y367529D01*
X261000Y367490D01*
X261486Y367529D01*
X261961Y367643D01*
X262412Y367829D01*
X262828Y368084D01*
X263199Y368401D01*
X263369Y368600D01*
X263996D01*
Y345908D01*
X263561Y345874D01*
X263132Y345771D01*
X262725Y345603D01*
X262349Y345372D01*
X262014Y345086D01*
X262000Y345070D01*
X261986Y345086D01*
X261651Y345372D01*
X261275Y345603D01*
X260868Y345771D01*
X260439Y345874D01*
X260000Y345909D01*
X259561Y345874D01*
X259132Y345771D01*
X258725Y345603D01*
X258349Y345372D01*
X258014Y345086D01*
X257728Y344751D01*
X257497Y344375D01*
X257329Y343968D01*
X257226Y343539D01*
X257191Y343100D01*
X257226Y342661D01*
X257329Y342232D01*
X257497Y341825D01*
X257728Y341449D01*
X258014Y341114D01*
X258030Y341100D01*
X258014Y341086D01*
X257728Y340751D01*
X257497Y340375D01*
X257329Y339968D01*
X257226Y339539D01*
X257191Y339100D01*
X257226Y338661D01*
X257329Y338232D01*
X257497Y337825D01*
X257728Y337449D01*
X258014Y337114D01*
X258030Y337100D01*
X258014Y337086D01*
X257728Y336751D01*
X257497Y336375D01*
X257329Y335968D01*
X257226Y335539D01*
X257191Y335100D01*
X257226Y334661D01*
X257329Y334232D01*
X257497Y333825D01*
X257728Y333449D01*
X258014Y333114D01*
X258030Y333100D01*
X258014Y333086D01*
X257728Y332751D01*
X257497Y332375D01*
X257329Y331968D01*
X257226Y331539D01*
X257191Y331100D01*
X257226Y330661D01*
X257329Y330232D01*
X257497Y329825D01*
X257728Y329449D01*
X258014Y329114D01*
X258030Y329100D01*
X258014Y329086D01*
X257728Y328751D01*
X257497Y328375D01*
X257329Y327968D01*
X257226Y327539D01*
X257191Y327100D01*
X257226Y326661D01*
X257329Y326232D01*
X257497Y325825D01*
X257728Y325449D01*
X258014Y325114D01*
X258349Y324828D01*
X258725Y324597D01*
X259132Y324429D01*
X259561Y324326D01*
X260000Y324291D01*
X260439Y324326D01*
X260868Y324429D01*
X261275Y324597D01*
X261651Y324828D01*
X261986Y325114D01*
X262000Y325130D01*
X262014Y325114D01*
X262349Y324828D01*
X262725Y324597D01*
X263132Y324429D01*
X263561Y324326D01*
X263996Y324292D01*
Y312073D01*
X263500Y312112D01*
X262872Y312063D01*
X262777Y312040D01*
X257334D01*
X257262Y312070D01*
X257137Y312100D01*
X257262Y312130D01*
X257407Y312190D01*
X257542Y312272D01*
X257661Y312375D01*
X257764Y312494D01*
X257846Y312629D01*
X257906Y312774D01*
X257943Y312927D01*
X257952Y313084D01*
X257943Y318359D01*
X257906Y318512D01*
X257846Y318657D01*
X257764Y318792D01*
X257661Y318911D01*
X257542Y319014D01*
X257407Y319096D01*
X257262Y319156D01*
X257109Y319193D01*
X256952Y319202D01*
X255213Y319199D01*
X255162Y319220D01*
X254588Y319358D01*
X254000Y319393D01*
X248308D01*
Y355605D01*
G37*
G36*
Y376000D02*X244256Y380053D01*
X248308Y384105D01*
Y376000D01*
G37*
G36*
X243250Y368600D02*Y361153D01*
X237431Y355335D01*
X235189Y355331D01*
X235036Y355294D01*
X234891Y355234D01*
X234756Y355152D01*
X234637Y355049D01*
X234534Y354930D01*
X234452Y354795D01*
X234392Y354650D01*
X234355Y354497D01*
X234346Y354340D01*
X234349Y351814D01*
X234328Y351762D01*
X234190Y351188D01*
X234144Y350600D01*
X234190Y350012D01*
X234328Y349438D01*
X234352Y349379D01*
X234355Y346703D01*
X234392Y346550D01*
X234452Y346405D01*
X234534Y346270D01*
X234637Y346151D01*
X234756Y346048D01*
X234891Y345966D01*
X235036Y345906D01*
X235189Y345869D01*
X235346Y345860D01*
X240621Y345869D01*
X240774Y345906D01*
X240919Y345966D01*
X241054Y346048D01*
X241173Y346151D01*
X241276Y346270D01*
X241358Y346405D01*
X241418Y346550D01*
X241455Y346703D01*
X241464Y346860D01*
X241462Y348758D01*
X248308Y355605D01*
Y319393D01*
X233010D01*
X231735Y320669D01*
X231731Y322816D01*
X231694Y322969D01*
X231634Y323114D01*
X231552Y323248D01*
X231449Y323368D01*
X231330Y323470D01*
X231195Y323553D01*
X231050Y323613D01*
X230897Y323650D01*
X230740Y323659D01*
X230500Y323659D01*
Y325451D01*
X230566Y325610D01*
X230713Y326222D01*
X230750Y326850D01*
X230713Y327478D01*
X230566Y328090D01*
X230325Y328672D01*
X229996Y329208D01*
X229587Y329687D01*
X229108Y330096D01*
X228572Y330425D01*
X227990Y330666D01*
X227378Y330813D01*
X226750Y330862D01*
X226122Y330813D01*
X225510Y330666D01*
X224928Y330425D01*
X224392Y330096D01*
X223913Y329687D01*
X223504Y329208D01*
X223175Y328672D01*
X222934Y328090D01*
X222787Y327478D01*
X222738Y326850D01*
X222787Y326222D01*
X222934Y325610D01*
X223000Y325451D01*
Y323625D01*
X222950Y323613D01*
X222805Y323553D01*
X222670Y323470D01*
X222551Y323368D01*
X222448Y323248D01*
X222366Y323114D01*
X222306Y322969D01*
X222269Y322816D01*
X222260Y322659D01*
X222269Y317384D01*
X222306Y317231D01*
X222366Y317085D01*
X222448Y316951D01*
X222551Y316832D01*
X222670Y316729D01*
X222805Y316647D01*
X222950Y316587D01*
X223103Y316550D01*
X223260Y316541D01*
X225253Y316543D01*
X228701Y313095D01*
X228797Y312983D01*
X229245Y312600D01*
X229246Y312600D01*
X229246Y312600D01*
X229246Y312600D01*
X229497Y312446D01*
X229749Y312291D01*
X229749Y312291D01*
X229749Y312291D01*
X230051Y312166D01*
X230294Y312066D01*
X230294Y312065D01*
X230294Y312065D01*
X230400Y312040D01*
X227000D01*
X226412Y312005D01*
X225838Y311867D01*
X225778Y311843D01*
X223103Y311840D01*
X222950Y311803D01*
X222805Y311743D01*
X222670Y311660D01*
X222551Y311558D01*
X222448Y311438D01*
X222366Y311304D01*
X222306Y311159D01*
X222269Y311006D01*
X222260Y310849D01*
X222269Y305574D01*
X222306Y305421D01*
X222366Y305275D01*
X222448Y305141D01*
X222551Y305022D01*
X222670Y304919D01*
X222805Y304837D01*
X222950Y304777D01*
X223103Y304740D01*
X223260Y304731D01*
X225786Y304734D01*
X225838Y304713D01*
X226412Y304575D01*
X227000Y304540D01*
X248308D01*
Y300850D01*
X246993D01*
X246549Y301122D01*
X245895Y301393D01*
X245206Y301558D01*
X244500Y301614D01*
X243794Y301558D01*
X243105Y301393D01*
X242451Y301122D01*
X242007Y300850D01*
X236993D01*
X236549Y301122D01*
X235895Y301393D01*
X235206Y301558D01*
X234500Y301614D01*
X233794Y301558D01*
X233105Y301393D01*
X232451Y301122D01*
X232007Y300850D01*
X228800D01*
X228717Y300984D01*
X228564Y301164D01*
X228384Y301317D01*
X228183Y301441D01*
X227965Y301531D01*
X227735Y301586D01*
X227500Y301600D01*
X221265Y301586D01*
X221035Y301531D01*
X220817Y301441D01*
X220616Y301317D01*
X220436Y301164D01*
X220283Y300984D01*
X220200Y300850D01*
X218250D01*
Y304607D01*
X218522Y305051D01*
X218793Y305705D01*
X218958Y306394D01*
X219000Y307100D01*
X218958Y307806D01*
X218793Y308495D01*
X218522Y309149D01*
X218250Y309593D01*
Y314607D01*
X218522Y315051D01*
X218793Y315705D01*
X218958Y316394D01*
X219000Y317100D01*
X218958Y317806D01*
X218793Y318495D01*
X218522Y319149D01*
X218250Y319593D01*
Y324607D01*
X218522Y325051D01*
X218793Y325705D01*
X218958Y326394D01*
X219000Y327100D01*
X218958Y327806D01*
X218793Y328495D01*
X218522Y329149D01*
X218250Y329593D01*
Y334607D01*
X218522Y335051D01*
X218793Y335705D01*
X218958Y336394D01*
X219000Y337100D01*
X218958Y337806D01*
X218793Y338495D01*
X218522Y339149D01*
X218250Y339593D01*
Y344607D01*
X218522Y345051D01*
X218793Y345705D01*
X218958Y346394D01*
X219000Y347100D01*
X218958Y347806D01*
X218793Y348495D01*
X218522Y349149D01*
X218250Y349593D01*
Y354607D01*
X218522Y355051D01*
X218793Y355705D01*
X218958Y356394D01*
X219000Y357100D01*
X218958Y357806D01*
X218793Y358495D01*
X218522Y359149D01*
X218250Y359593D01*
Y364607D01*
X218522Y365051D01*
X218793Y365705D01*
X218958Y366394D01*
X219000Y367100D01*
X218958Y367806D01*
X218793Y368495D01*
X218749Y368600D01*
X222345D01*
Y366100D01*
X222380Y365512D01*
X222517Y364938D01*
X222542Y364878D01*
X222545Y362203D01*
X222582Y362050D01*
X222642Y361905D01*
X222724Y361770D01*
X222827Y361651D01*
X222946Y361548D01*
X223081Y361466D01*
X223226Y361406D01*
X223379Y361369D01*
X223536Y361360D01*
X228811Y361369D01*
X228964Y361406D01*
X229109Y361466D01*
X229244Y361548D01*
X229363Y361651D01*
X229466Y361770D01*
X229548Y361905D01*
X229608Y362050D01*
X229645Y362203D01*
X229654Y362360D01*
X229651Y364886D01*
X229672Y364938D01*
X229810Y365512D01*
X229845Y366100D01*
Y368600D01*
X234348D01*
X234349Y367456D01*
X234285Y367188D01*
X234250Y366600D01*
Y365653D01*
X230838Y362241D01*
X230678Y362175D01*
X230142Y361846D01*
X229663Y361437D01*
X229254Y360958D01*
X228925Y360422D01*
X228859Y360262D01*
X223928Y355332D01*
X223379Y355331D01*
X223226Y355294D01*
X223081Y355234D01*
X222946Y355152D01*
X222827Y355049D01*
X222724Y354930D01*
X222642Y354795D01*
X222582Y354650D01*
X222545Y354497D01*
X222536Y354340D01*
X222537Y353405D01*
X222517Y353357D01*
X222380Y352783D01*
X222380Y352783D01*
X222333Y352195D01*
X222345Y352048D01*
Y351344D01*
X222285Y351094D01*
X222285Y351093D01*
X222238Y350505D01*
X222250Y350358D01*
Y344999D01*
X222184Y344840D01*
X222037Y344228D01*
X221988Y343600D01*
X222037Y342972D01*
X222184Y342360D01*
X222425Y341778D01*
X222754Y341242D01*
X223163Y340763D01*
X223642Y340354D01*
X224178Y340025D01*
X224760Y339784D01*
X225372Y339637D01*
X226000Y339588D01*
X226628Y339637D01*
X227240Y339784D01*
X227822Y340025D01*
X228358Y340354D01*
X228837Y340763D01*
X229246Y341242D01*
X229575Y341778D01*
X229816Y342360D01*
X229963Y342972D01*
X230000Y343600D01*
X229963Y344228D01*
X229816Y344840D01*
X229750Y344999D01*
Y349761D01*
X229810Y350012D01*
X229856Y350600D01*
X229853Y350649D01*
X234162Y354959D01*
X234322Y355025D01*
X234858Y355354D01*
X235337Y355763D01*
X235746Y356242D01*
X236075Y356778D01*
X236141Y356938D01*
X240548Y361344D01*
X240577Y361369D01*
X240621Y361369D01*
X240774Y361406D01*
X240919Y361466D01*
X241054Y361548D01*
X241173Y361651D01*
X241276Y361770D01*
X241358Y361905D01*
X241418Y362050D01*
X241455Y362203D01*
X241464Y362360D01*
X241464Y362663D01*
X241577Y362938D01*
X241715Y363512D01*
X241762Y364100D01*
X241750Y364247D01*
Y366600D01*
X241715Y367188D01*
X241577Y367762D01*
X241457Y368053D01*
X241456Y368600D01*
X243250D01*
G37*
G36*
X254500Y346100D02*X272500D01*
Y320600D01*
X254500D01*
Y346100D01*
G37*
G36*
X288000Y346600D02*Y346100D01*
X291000Y343100D01*
X288000Y340100D01*
Y346600D01*
G37*
G54D12*X204400Y469400D02*Y29940D01*
G54D13*X226000Y343600D02*Y350505D01*
X226095Y350600D01*
Y352195D01*
Y381100D02*Y366100D01*
X226750Y320350D02*Y326850D01*
X214500Y207100D02*Y397100D01*
G54D14*X226500Y289600D02*X222000Y285100D01*
G54D13*X226095Y380600D02*Y383195D01*
X224500Y397100D02*X214500D01*
G54D14*X224500Y207100D02*Y215100D01*
X222000Y217600D01*
Y285100D02*Y217600D01*
G54D13*X214500Y207100D02*X224500D01*
G54D15*X204400Y34480D02*Y19480D01*
Y479480D02*Y464480D01*
X198200D02*X204400D01*
X198200Y474780D02*Y464480D01*
X190700Y474780D02*X198200D01*
X190700D02*Y455980D01*
G54D16*X271000Y228350D03*
X285000Y247100D02*X286500Y248600D01*
X285000Y243100D02*Y247100D01*
G54D17*X271000Y233850D02*X271250Y234100D01*
G54D13*X244500Y207100D02*Y228100D01*
X224000Y238100D02*X242000D01*
G54D17*X266000Y208600D02*X264500Y207100D01*
G54D13*X274500D02*X314500D01*
G54D17*X264500D02*X271000Y213600D01*
Y233850D02*Y213600D01*
G54D13*X214500Y297100D02*X314500D01*
G54D17*X291000Y242704D02*X297147D01*
X284646Y236350D02*X291000Y242704D01*
G54D16*X283000Y241100D02*X285000Y243100D01*
G54D17*X271000Y233850D02*X273500Y236350D01*
X284646D01*
G54D16*X274500Y241100D02*X283000D01*
X271000Y244600D02*X274500Y241100D01*
G54D17*X271000Y240100D02*X269500Y238600D01*
X271000Y248850D02*Y240100D01*
Y251100D02*Y260600D01*
X276000Y248850D02*Y256600D01*
G54D18*X277495Y179100D02*X268900Y170600D01*
G54D17*X259400Y175600D02*X269900Y186100D01*
X259400Y162100D02*Y175600D01*
X281000Y270600D02*Y261600D01*
X276000Y256600D01*
X281000Y261600D02*X283914D01*
X291000Y254514D01*
X300491D01*
X300500Y254505D01*
G54D18*X300150Y145850D02*X307055D01*
X311353Y150148D01*
G54D17*X302305Y186100D02*X309305Y179100D01*
X269900Y186100D02*X302305D01*
G54D13*X255000Y227600D02*Y238255D01*
G54D14*X243000Y230100D02*X255000D01*
X243000Y226600D02*X254000D01*
X243000Y228600D02*X255000Y227600D01*
X242500Y238600D02*Y241100D01*
G54D13*X255000Y238255D02*X254905Y238350D01*
X264500Y247945D02*X254905Y238350D01*
X264500Y250100D02*Y247945D01*
G54D17*X271000Y260600D02*X261000Y270600D01*
G54D13*X243000Y238600D02*Y252600D01*
X261000Y270600D01*
G54D17*X299400Y134600D02*X308495D01*
G54D18*X307900D02*X299400D01*
X299900D02*X298900D01*
X293900Y139600D01*
X294805Y40100D02*X300305Y45600D01*
X303400D01*
X300400Y45695D02*Y52100D01*
X303495Y44600D02*Y39505D01*
G54D17*X307378Y56122D02*X306400Y57100D01*
X259400Y62100D02*Y65005D01*
G54D18*X282995Y40100D02*Y47505D01*
X279400Y51100D01*
Y61100D01*
X290400Y72100D01*
G54D17*X295400Y76100D02*Y89195D01*
X296305Y90100D01*
X259400Y65005D02*X284495Y90100D01*
G54D12*X130900Y469400D02*Y31200D01*
X124400Y31390D02*Y469200D01*
X44400Y469400D02*Y28470D01*
G54D15*X103550Y466950D02*Y31970D01*
X97250Y466950D02*Y31970D01*
G54D17*X125490Y108640D02*X119350Y114780D01*
G54D15*X44400Y34480D02*X50600D01*
X80650Y42980D02*X58100D01*
G54D12*X103550Y190623D02*Y133537D01*
Y90623D02*Y33537D01*
G54D17*X126400Y116430D02*X118150Y108180D01*
G54D15*X128650Y24180D02*X136150D01*
X135755Y162080D02*Y62080D01*
X135802Y62032D01*
X128650Y24180D02*Y31980D01*
X136150D02*Y24180D01*
G54D12*X164967Y90623D02*Y33537D01*
X131818Y66017D02*X139692Y58143D01*
Y66017D02*X131818Y58143D01*
G54D15*X120150Y31980D02*Y24180D01*
X112550D02*X120150D01*
X96650D02*X104150D01*
X80650D02*X88150D01*
X120150Y31980D02*X128650D01*
X104150D02*X112650D01*
X88150D02*X96650D01*
X112650Y24180D02*Y31980D01*
G54D12*X164967Y33537D02*X103550D01*
Y190623D02*X164967D01*
Y133537D01*
X103550D01*
X131818Y166017D02*X139692Y158143D01*
Y166017D02*X131818Y158143D01*
X103550Y90623D02*X164967D01*
G54D15*X104150Y31980D02*Y24180D01*
X96650D02*Y31980D01*
X88150D02*Y24180D01*
X80650D02*Y42980D01*
X58100Y24180D02*Y42980D01*
X44400Y19480D02*Y34480D01*
X50600D02*Y24180D01*
X58100D01*
X112650Y474780D02*X120150D01*
X80650D02*X88150D01*
X96650D02*X104050D01*
X120150D02*Y466980D01*
X88150Y474780D02*Y466980D01*
X96650Y474780D02*Y466980D01*
X112650Y474780D02*Y466980D01*
X120150D02*X128650D01*
X88150D02*X96650D01*
X44400Y479480D02*X204400D01*
X136150Y474780D02*Y466980D01*
X128650Y474780D02*Y466980D01*
X136150D02*X144650D01*
Y474780D02*Y466980D01*
Y474780D02*X152150D01*
Y466980D01*
X128650Y474780D02*X136250D01*
X160650D02*X168150D01*
X152150Y466980D02*X160650D01*
Y474780D02*Y466980D01*
X168150Y474780D02*Y455980D01*
X190700D01*
X80650Y474780D02*Y455980D01*
X44400Y479480D02*Y464480D01*
X104150Y466980D02*X112650D01*
X44400Y464480D02*X50600D01*
Y474780D02*Y464480D01*
X58100Y474780D02*Y455980D01*
X50600Y474780D02*X58100D01*
X104150D02*Y466980D01*
X58100Y455980D02*X80650D01*
G54D13*X226095Y352195D02*X238000Y364100D01*
Y366600D01*
Y350600D02*X247000Y359600D01*
Y372005D01*
X237905Y381100D01*
Y350600D02*X238000D01*
X303905Y325600D02*Y347695D01*
X281000Y370600D01*
X292000Y325600D02*Y329100D01*
X296500Y333600D01*
X282405Y309100D02*X292095D01*
X269785Y308290D02*X270595Y309100D01*
Y310195D01*
G54D14*X303000Y289600D02*X226500D01*
G54D13*X227000Y308290D02*X269785D01*
X254000Y315643D02*X231457D01*
X227000Y320100D01*
X303905Y309100D02*Y309195D01*
X292000Y321100D01*
Y325505D01*
X292095Y325600D01*
X304500Y325005D02*X303905Y325600D01*
X304500Y319100D02*Y325005D01*
X314500Y207100D02*Y397100D01*
G54D14*X303000Y289600D02*X307000Y285600D01*
Y249600D01*
G54D13*X314500Y397100D02*X264500D01*
X254500D02*Y395600D01*
X238952Y380052D01*
X226095Y383195D02*X234500Y391600D01*
Y397100D01*
G54D17*X290400Y56850D02*Y64100D01*
X295400Y56850D02*Y62100D01*
X297900Y64600D01*
X302900D01*
X306400Y61100D01*
Y57100D01*
X290400Y64100D02*X295400Y69100D01*
Y77350D01*
X259400Y62100D02*X24100D01*
G54D15*X22100Y112080D02*X204400D01*
X152150Y31980D02*X160650D01*
X152150D02*Y24180D01*
X136150Y31980D02*X144650D01*
X144750Y24180D02*X152150D01*
X44400Y19480D02*X204400D01*
X144650Y24180D02*Y31980D01*
X160650Y24180D02*X168150D01*
X198200Y34480D02*X204400D01*
X198200D02*Y24180D01*
X190700D02*X198200D01*
X190700Y42980D02*Y24180D01*
X168150Y42980D02*X190700D01*
X160650Y24180D02*Y31980D01*
X168150Y42980D02*Y24180D01*
G54D17*X288900Y178695D02*X289305Y179100D01*
X293900Y175505D02*Y166350D01*
Y175505D02*X297495Y179100D01*
X288900Y178695D02*Y160600D01*
X290400Y159100D01*
X302400D01*
X305400Y162100D01*
X298900Y145850D02*X307055D01*
X311400Y150195D01*
X305400Y162100D02*X311305D01*
X311400Y162005D01*
X293452Y122505D02*X288900Y127057D01*
Y145850D02*Y134143D01*
X293900Y145850D02*Y140100D01*
X259400Y162100D02*X21700D01*
X271000Y270600D02*X17800D01*
X271000Y370600D02*X15200D01*
G54D12*X126963Y274537D02*X134837Y266663D01*
Y274537D02*X126963Y266663D01*
Y374537D02*X134837Y366663D01*
Y374537D02*X126963Y366663D01*
X125900Y375600D02*X135900Y365600D01*
Y375600D02*X125900Y365600D01*
Y265600D02*X135900Y275600D01*
Y265600D02*X125900Y275600D01*
G54D18*X345900Y143183D02*X354983D01*
X320305Y134600D02*Y150505D01*
X391900Y166017D02*X382983D01*
X371900Y140017D02*X345900Y166017D01*
X346317Y165600D02*X346359Y165559D01*
X345900Y165600D02*X346109Y165809D01*
X381900Y133183D02*X391900Y143183D01*
G54D12*X445795Y122143D02*X507213D01*
G54D18*X392109Y143391D02*X352900Y182600D01*
X331995D02*X311400Y162005D01*
X331995Y182600D02*X352900D01*
X320305Y150505D02*X335400Y165600D01*
X345900D01*
X381900Y111100D02*Y133183D01*
X391900Y101100D02*X381900Y111100D01*
X371900Y140017D02*Y105100D01*
G54D17*X401900Y113100D02*X389400Y125600D01*
G54D18*X391900Y61100D02*Y101100D01*
X371900Y61100D02*Y91100D01*
G54D17*X401900Y61100D02*Y113100D01*
G54D18*X373400Y37600D02*X381900Y46100D01*
Y95100D02*Y46100D01*
Y95100D02*X371900Y105100D01*
X361900Y61100D02*Y86600D01*
X351900Y96600D01*
Y111100D01*
X371900Y91100D02*X361900Y101100D01*
Y111100D01*
G54D12*X507213Y122143D02*Y65057D01*
X474063Y97537D02*X481937Y89663D01*
Y97537D02*X474063Y89663D01*
X507213Y65057D02*X445795D01*
Y122143D02*Y65057D01*
G54D17*X327857Y94600D02*Y107152D01*
X346305Y125600D01*
G54D18*X311305Y150100D02*X320305D01*
G54D17*X331400Y122505D02*X293452D01*
X362900Y125600D02*X346305D01*
X337305Y77600D02*Y92238D01*
X334943Y94600D01*
X335857Y61600D02*Y68557D01*
X337400Y70100D01*
Y77505D01*
X337305Y77600D01*
X345305Y56100D02*X307378Y56122D01*
G54D18*X316805Y46100D02*X315305Y44600D01*
X316805Y46100D02*X333495D01*
X325495Y77600D02*Y65195D01*
X321900Y61600D01*
X316305D01*
X315900Y61195D01*
X306900Y73100D02*X315805D01*
X315900Y73005D01*
G54D17*X345305Y46100D02*Y59238D01*
X342943Y61600D01*
G54D15*X416390Y447230D02*X424890D01*
Y455030D02*Y447230D01*
Y455030D02*X432490D01*
X432390D02*Y447230D01*
X408890Y455030D02*X416390D01*
X392890D02*X400290D01*
X456890D02*X464390D01*
X416390D02*Y447230D01*
X340640Y459730D02*X500640D01*
X400390Y447230D02*X408890D01*
Y455030D02*Y447230D01*
X400390Y455030D02*Y447230D01*
X432390D02*X440890D01*
Y455030D02*Y447230D01*
Y455030D02*X448390D01*
Y447230D01*
X456890D01*
Y455030D02*Y447230D01*
X464390Y455030D02*Y436230D01*
X500640Y459730D02*Y444730D01*
X494440D02*X500640D01*
X464390Y436230D02*X486940D01*
Y455030D02*X494440D01*
X384390Y447230D02*X392890D01*
Y455030D02*Y447230D01*
X376890Y455030D02*X384390D01*
Y447230D01*
X376890Y455030D02*Y436230D01*
X340640Y459730D02*Y444730D01*
X346840D01*
Y455030D02*Y444730D01*
Y455030D02*X354340D01*
Y436230D01*
X376890D01*
X494440Y455030D02*Y444730D01*
X486940Y455030D02*Y436230D01*
X500070Y416510D02*Y401510D01*
X493870Y416510D02*X500070D01*
X493870D02*Y406210D01*
X486370D02*X493870D01*
X486370Y425010D02*Y406210D01*
X415820Y414010D02*X424320D01*
Y406210D02*X431820D01*
X424320D02*Y414010D01*
X415820D02*Y406210D01*
X431820Y414010D02*Y406210D01*
X408320D02*Y414010D01*
X399820D02*X408320D01*
X447820D02*X456320D01*
X408220Y406210D02*X415820D01*
X392320D02*X399820D01*
X456320D02*X463820D01*
X440420D02*X447820D01*
X376320D02*X383820D01*
X340070Y401510D02*X500070D01*
X399820Y414010D02*Y406210D01*
X392320D02*Y414010D01*
X340070Y401510D02*Y416510D01*
X346270D01*
Y406210D01*
X353770D01*
X383820Y414010D02*X392320D01*
X383820D02*Y406210D01*
X376320D02*Y425010D01*
X353770Y406210D02*Y425010D01*
X376320D02*X353770D01*
X456320Y406210D02*Y414010D01*
X447820D02*Y406210D01*
X431820Y414010D02*X440320D01*
X463820Y425010D02*Y406210D01*
X440320D02*Y414010D01*
X463820Y425010D02*X486370D01*
G54D19*X261000Y370600D03*
X281000D03*
X271000Y360600D03*
G54D20*X214500Y357100D03*
Y347100D03*
G54D11*G36*
X311500Y400100D02*Y394100D01*
X317500D01*
Y400100D01*
X311500D01*
G37*
G54D20*X314500Y387100D03*
Y377100D03*
Y367100D03*
Y357100D03*
Y347100D03*
Y337100D03*
Y327100D03*
G54D11*G36*
X211500Y400100D02*Y394100D01*
X217500D01*
Y400100D01*
X211500D01*
G37*
G54D20*X214500Y387100D03*
Y377100D03*
Y367100D03*
G54D11*G36*
X221500Y400100D02*Y394100D01*
X227500D01*
Y400100D01*
X221500D01*
G37*
G54D20*X234500Y397100D03*
X244500D03*
X254500D03*
X264500D03*
X274500D03*
X284500D03*
X294500D03*
X304500D03*
G54D19*X261000Y270600D03*
X281000D03*
X271000Y260600D03*
G54D20*X214500Y307100D03*
Y297100D03*
Y287100D03*
Y277100D03*
G54D11*G36*
X221500Y300100D02*Y294100D01*
X227500D01*
Y300100D01*
X221500D01*
G37*
G54D20*X314500Y317100D03*
Y307100D03*
Y297100D03*
Y287100D03*
Y277100D03*
Y267100D03*
Y257100D03*
Y247100D03*
Y237100D03*
Y227100D03*
Y217100D03*
Y207100D03*
X214500Y267100D03*
Y257100D03*
Y247100D03*
Y237100D03*
Y227100D03*
Y217100D03*
Y207100D03*
G54D11*G36*
X221500Y210100D02*Y204100D01*
X227500D01*
Y210100D01*
X221500D01*
G37*
G54D20*X234500Y207100D03*
X254500D03*
X264500D03*
X274500D03*
X284500D03*
X294500D03*
X304500D03*
X214500Y337100D03*
Y327100D03*
Y317100D03*
X234500Y297100D03*
X244500D03*
X254500D03*
X264500D03*
X274500D03*
X284500D03*
X294500D03*
X304500D03*
G54D11*G36*
X347900Y115100D02*Y107100D01*
X355900D01*
Y115100D01*
X347900D01*
G37*
G54D21*X361900Y111100D03*
X371900D03*
X381900D03*
G54D11*G36*
X357900Y65100D02*Y57100D01*
X365900D01*
Y65100D01*
X357900D01*
G37*
G54D21*X371900Y61100D03*
X381900D03*
X391900D03*
X401900D03*
G54D20*X244500Y207100D03*
G54D22*X239400Y142100D03*
G54D23*Y182100D03*
G54D21*X259400Y152100D03*
Y162100D03*
G54D23*X239400Y42100D03*
G54D22*Y82100D03*
G54D21*X259400Y52100D03*
Y62100D03*
G54D24*X226095Y367281D02*Y364919D01*
Y351781D02*Y349419D01*
X237905Y367281D02*Y364919D01*
Y382281D02*Y379919D01*
Y351781D02*Y349419D01*
X226095Y382281D02*Y379919D01*
X270595Y310281D02*Y307919D01*
X225819Y320100D02*X228181D01*
X225819Y308290D02*X228181D01*
X240607Y315643D02*X241393D01*
X240607Y308557D02*X241393D01*
X253607Y315643D02*X254393D01*
X253607Y308557D02*X254393D01*
X292095Y310281D02*Y307919D01*
X289819Y254514D02*X292181D01*
X289819Y242704D02*X292181D01*
X303905Y310281D02*Y307919D01*
X299319Y254505D02*X301681D01*
X299319Y242695D02*X301681D01*
X282405Y310281D02*Y307919D01*
G54D25*X281000Y252100D02*Y245600D01*
X276000Y252100D02*Y245600D01*
X271000Y252100D02*Y245600D01*
G54D24*X292095Y326781D02*Y324419D01*
X303905Y326781D02*Y324419D01*
X292095Y343781D02*Y341419D01*
X303905Y343781D02*Y341419D01*
X243095Y241105D02*Y235595D01*
X254905Y241105D02*Y235595D01*
G54D25*X266000Y252100D02*Y245600D01*
Y231600D02*Y225100D01*
X271000Y231600D02*Y225100D01*
X276000Y231600D02*Y225100D01*
X281000Y231600D02*Y225100D01*
G54D24*X328645Y110695D02*X334155D01*
X328645Y122505D02*X334155D01*
X325495Y80355D02*Y74845D01*
X337305Y80355D02*Y74845D01*
X327857Y94993D02*Y94207D01*
X334943Y94993D02*Y94207D01*
G54D26*X345900Y171332D02*Y160702D01*
Y148498D02*Y137868D01*
X391900Y171332D02*Y160702D01*
Y148498D02*Y137868D01*
G54D24*X333495Y48855D02*Y43345D01*
X315305Y45781D02*Y43419D01*
X345305Y48855D02*Y43345D01*
X335857Y61993D02*Y61207D01*
X342943Y61993D02*Y61207D01*
X314719Y61195D02*X317081D01*
X314719Y73005D02*X317081D01*
G54D25*X285400Y60100D02*Y53600D01*
X290400Y60100D02*Y53600D01*
X295400Y60100D02*Y53600D01*
X300400Y60100D02*Y53600D01*
Y80600D02*Y74100D01*
G54D24*X303495Y45781D02*Y43419D01*
G54D25*X295400Y80600D02*Y74100D01*
G54D24*X296305Y91281D02*Y88919D01*
X294805Y41281D02*Y38919D01*
G54D25*X290400Y80600D02*Y74100D01*
X285400Y80600D02*Y74100D01*
G54D24*X284495Y91281D02*Y88919D01*
X282995Y41281D02*Y38919D01*
G54D25*X283900Y149100D02*Y142600D01*
X288900Y149100D02*Y142600D01*
G54D24*X288507Y127057D02*X289293D01*
X288507Y134143D02*X289293D01*
G54D25*X293900Y149100D02*Y142600D01*
X298900Y149100D02*Y142600D01*
G54D24*X310219Y150195D02*X312581D01*
X308495Y135781D02*Y133419D01*
X320305Y135781D02*Y133419D01*
G54D25*X298900Y169600D02*Y163100D01*
G54D24*X297495Y180281D02*Y177919D01*
X309305Y180281D02*Y177919D01*
X310219Y162005D02*X312581D01*
G54D25*X293900Y169600D02*Y163100D01*
X288900Y169600D02*Y163100D01*
X283900Y169600D02*Y163100D01*
G54D24*X277495Y180281D02*Y177919D01*
X289305Y180281D02*Y177919D01*
G54D27*X276000Y230600D03*
X243000Y226600D03*
Y230100D03*
X276000Y226100D03*
X269500Y238600D03*
G54D20*X268900Y170600D03*
X354983Y143183D03*
G54D27*X288900Y145850D03*
G54D20*X298900Y134600D03*
X382983Y166017D03*
G54D27*X293900Y166350D03*
X362900Y125600D03*
G54D20*X324400Y46100D03*
X325495Y65195D03*
X285400Y67100D03*
X306900Y73100D03*
G54D27*X389400Y125600D03*
G54D28*X445795Y93600D03*
X478000D03*
G54D27*X260000Y339100D03*
X264000D03*
X268000D03*
Y335100D03*
X264000D03*
X260000D03*
X268000Y343100D03*
X264000D03*
X260000D03*
G54D28*X271000Y370600D03*
G54D27*X260000Y331100D03*
Y327100D03*
X264000Y331100D03*
Y327100D03*
G54D20*X263500Y308100D03*
G54D27*X268000Y331100D03*
G54D20*X304500Y319100D03*
X296500Y333600D03*
G54D28*X271000Y270600D03*
G54D27*X268000Y327100D03*
G54D20*X226750Y326850D03*
X226000Y343600D03*
Y373600D03*
X232500Y358600D03*
G54D28*X130900Y270600D03*
Y370600D03*
X68900Y402600D03*
X179900D03*
X68900Y201600D03*
X179900D03*
X82090Y8540D03*
X103550Y162080D03*
X135755D03*
X103550Y62080D03*
X135755D03*
G54D27*X122050Y112080D03*
G54D17*G54D14*G54D17*G54D14*G54D17*G54D14*G54D17*G54D14*G54D17*G54D14*G54D17*G54D14*G54D17*G54D29*G54D30*G54D29*G54D30*G54D18*G54D30*G54D31*G54D32*G54D31*G54D32*M02*
