G04 start of page 2 for group 0 idx 0 *
G04 Title: (unknown), component *
G04 Creator: pcb 20140316 *
G04 CreationDate: Tue 14 Apr 2015 10:04:32 AM GMT UTC *
G04 For: fosse *
G04 Format: Gerber/RS-274X *
G04 PCB-Dimensions (mil): 5250.00 5000.00 *
G04 PCB-Coordinate-Origin: lower left *
%MOIN*%
%FSLAX25Y25*%
%LNTOP*%
%ADD31C,0.0320*%
%ADD30C,0.0790*%
%ADD29C,0.0380*%
%ADD28C,0.0225*%
%ADD27C,0.0240*%
%ADD26C,0.0360*%
%ADD25R,0.0515X0.0515*%
%ADD24R,0.0200X0.0200*%
%ADD23R,0.0512X0.0512*%
%ADD22C,0.1600*%
%ADD21C,0.2000*%
%ADD20C,0.0800*%
%ADD19C,0.0600*%
%ADD18C,0.0500*%
%ADD17C,0.0400*%
%ADD16C,0.0039*%
%ADD15C,0.0150*%
%ADD14C,0.0200*%
%ADD13C,0.0550*%
%ADD12C,0.0350*%
%ADD11C,0.0001*%
G54D11*G36*
X293958Y361239D02*X292095Y361236D01*
Y363102D01*
X293958Y361239D01*
G37*
G36*
X294654Y394740D02*X292095Y394736D01*
Y401602D01*
X300155Y393542D01*
Y382628D01*
X300075Y382822D01*
X299746Y383358D01*
X299337Y383837D01*
X298858Y384246D01*
X298322Y384575D01*
X297740Y384816D01*
X297128Y384963D01*
X296500Y385012D01*
X295872Y384963D01*
X295260Y384816D01*
X294678Y384575D01*
X294142Y384246D01*
X293663Y383837D01*
X293254Y383358D01*
X292925Y382822D01*
X292859Y382662D01*
X292095Y381898D01*
Y385264D01*
X294811Y385269D01*
X294964Y385306D01*
X295109Y385366D01*
X295244Y385448D01*
X295363Y385551D01*
X295466Y385670D01*
X295548Y385805D01*
X295608Y385950D01*
X295645Y386103D01*
X295654Y386260D01*
X295645Y393897D01*
X295608Y394050D01*
X295548Y394195D01*
X295466Y394330D01*
X295363Y394449D01*
X295244Y394552D01*
X295109Y394634D01*
X294964Y394694D01*
X294811Y394731D01*
X294654Y394740D01*
G37*
G36*
X292095Y440000D02*X294324D01*
X294500Y439986D01*
X294676Y440000D01*
X304324D01*
X304500Y439986D01*
X304676Y440000D01*
X310750D01*
Y436993D01*
X310478Y436549D01*
X310207Y435895D01*
X310042Y435206D01*
X309986Y434500D01*
X310042Y433794D01*
X310207Y433105D01*
X310478Y432451D01*
X310750Y432007D01*
Y426993D01*
X310478Y426549D01*
X310207Y425895D01*
X310042Y425206D01*
X309986Y424500D01*
X310042Y423794D01*
X310207Y423105D01*
X310478Y422451D01*
X310750Y422007D01*
Y416993D01*
X310478Y416549D01*
X310207Y415895D01*
X310042Y415206D01*
X309986Y414500D01*
X310042Y413794D01*
X310207Y413105D01*
X310478Y412451D01*
X310750Y412007D01*
Y406993D01*
X310478Y406549D01*
X310207Y405895D01*
X310042Y405206D01*
X309986Y404500D01*
X310042Y403794D01*
X310207Y403105D01*
X310478Y402451D01*
X310750Y402007D01*
Y396993D01*
X310478Y396549D01*
X310207Y395895D01*
X310042Y395206D01*
X309986Y394500D01*
X310042Y393794D01*
X310207Y393105D01*
X310478Y392451D01*
X310750Y392007D01*
Y386993D01*
X310478Y386549D01*
X310207Y385895D01*
X310042Y385206D01*
X309986Y384500D01*
X310042Y383794D01*
X310207Y383105D01*
X310478Y382451D01*
X310750Y382007D01*
Y376993D01*
X310478Y376549D01*
X310207Y375895D01*
X310042Y375206D01*
X309986Y374500D01*
X310042Y373794D01*
X310207Y373105D01*
X310478Y372451D01*
X310750Y372007D01*
Y366993D01*
X310478Y366549D01*
X310207Y365895D01*
X310042Y365206D01*
X309986Y364500D01*
X310042Y363794D01*
X310207Y363105D01*
X310478Y362451D01*
X310750Y362007D01*
Y356993D01*
X310478Y356549D01*
X310207Y355895D01*
X310042Y355206D01*
X309986Y354500D01*
X310042Y353794D01*
X310207Y353105D01*
X310478Y352451D01*
X310750Y352007D01*
Y348250D01*
X306993D01*
X306549Y348522D01*
X305895Y348793D01*
X305206Y348958D01*
X304500Y349014D01*
X303794Y348958D01*
X303105Y348793D01*
X302451Y348522D01*
X302007Y348250D01*
X296993D01*
X296549Y348522D01*
X295895Y348793D01*
X295206Y348958D01*
X294500Y349014D01*
X293794Y348958D01*
X293105Y348793D01*
X292451Y348522D01*
X292095Y348304D01*
Y351764D01*
X294811Y351769D01*
X294964Y351806D01*
X295109Y351866D01*
X295244Y351948D01*
X295363Y352051D01*
X295466Y352170D01*
X295548Y352305D01*
X295608Y352450D01*
X295645Y352603D01*
X295654Y352760D01*
X295651Y355286D01*
X295672Y355338D01*
X295810Y355912D01*
X295856Y356500D01*
X295810Y357088D01*
X295672Y357662D01*
X295648Y357721D01*
X295646Y359551D01*
X300353Y354844D01*
X300355Y352603D01*
X300392Y352450D01*
X300452Y352305D01*
X300534Y352170D01*
X300637Y352051D01*
X300756Y351948D01*
X300891Y351866D01*
X301036Y351806D01*
X301189Y351769D01*
X301346Y351760D01*
X306621Y351769D01*
X306774Y351806D01*
X306919Y351866D01*
X307054Y351948D01*
X307173Y352051D01*
X307276Y352170D01*
X307358Y352305D01*
X307418Y352450D01*
X307455Y352603D01*
X307464Y352760D01*
X307461Y355285D01*
X307483Y355338D01*
X307620Y355912D01*
X307643Y356291D01*
X307667Y356595D01*
X307620Y357183D01*
X307620Y357183D01*
X307483Y357757D01*
X307458Y357817D01*
X307455Y360397D01*
X307418Y360550D01*
X307358Y360695D01*
X307276Y360830D01*
X307173Y360949D01*
X307054Y361052D01*
X306919Y361134D01*
X306774Y361194D01*
X306621Y361231D01*
X306464Y361240D01*
X304567Y361237D01*
X303020Y362784D01*
X303260Y362684D01*
X303872Y362537D01*
X304500Y362488D01*
X305128Y362537D01*
X305740Y362684D01*
X306322Y362925D01*
X306858Y363254D01*
X307337Y363663D01*
X307746Y364142D01*
X308075Y364678D01*
X308316Y365260D01*
X308463Y365872D01*
X308500Y366500D01*
X308463Y367128D01*
X308316Y367740D01*
X308250Y367899D01*
Y372258D01*
X308262Y372405D01*
X308215Y372993D01*
X308215Y372994D01*
X308077Y373568D01*
X307852Y374113D01*
X307655Y374433D01*
Y394948D01*
X307667Y395095D01*
X307620Y395683D01*
X307620Y395683D01*
X307483Y396257D01*
X307257Y396803D01*
X306948Y397306D01*
X306565Y397755D01*
X306453Y397850D01*
X292095Y412208D01*
Y440000D01*
G37*
G36*
X270995Y416000D02*X271000D01*
X271314Y416019D01*
X271620Y416092D01*
X271911Y416212D01*
X272179Y416377D01*
X272419Y416581D01*
X272623Y416821D01*
X272788Y417089D01*
X272908Y417380D01*
X272981Y417686D01*
X273006Y418000D01*
X272981Y418314D01*
X272908Y418620D01*
X272788Y418911D01*
X272623Y419179D01*
X272419Y419419D01*
X272179Y419623D01*
X271911Y419788D01*
X271620Y419908D01*
X271314Y419981D01*
X271000Y420000D01*
X270995D01*
Y440000D01*
X274324D01*
X274500Y439986D01*
X274676Y440000D01*
X284324D01*
X284500Y439986D01*
X284676Y440000D01*
X292095D01*
Y412208D01*
X283652Y420652D01*
X283211Y421043D01*
X282708Y421352D01*
X282162Y421577D01*
X281588Y421715D01*
X281000Y421762D01*
X280412Y421715D01*
X279838Y421577D01*
X279292Y421352D01*
X278789Y421043D01*
X278340Y420660D01*
X277957Y420211D01*
X277648Y419708D01*
X277423Y419162D01*
X277285Y418588D01*
X277238Y418000D01*
X277285Y417412D01*
X277423Y416838D01*
X277648Y416292D01*
X277957Y415789D01*
X278348Y415348D01*
X292095Y401602D01*
Y394736D01*
X289379Y394731D01*
X289226Y394694D01*
X289081Y394634D01*
X288946Y394552D01*
X288827Y394449D01*
X288724Y394330D01*
X288642Y394195D01*
X288582Y394050D01*
X288545Y393897D01*
X288536Y393740D01*
X288545Y386103D01*
X288582Y385950D01*
X288642Y385805D01*
X288724Y385670D01*
X288827Y385551D01*
X288946Y385448D01*
X289081Y385366D01*
X289226Y385306D01*
X289379Y385269D01*
X289536Y385260D01*
X292095Y385264D01*
Y381898D01*
X289452Y379256D01*
X289340Y379160D01*
X288957Y378711D01*
X288648Y378208D01*
X288423Y377662D01*
X288285Y377088D01*
X288285Y377088D01*
X288238Y376500D01*
X288250Y376353D01*
Y373052D01*
X288238Y372905D01*
X288250Y372758D01*
Y368647D01*
X288238Y368500D01*
X288285Y367912D01*
X288423Y367338D01*
X288648Y366792D01*
X288957Y366289D01*
X288957Y366289D01*
X289340Y365840D01*
X289452Y365744D01*
X292095Y363102D01*
Y361236D01*
X289379Y361231D01*
X289226Y361194D01*
X289081Y361134D01*
X288946Y361052D01*
X288827Y360949D01*
X288724Y360830D01*
X288642Y360695D01*
X288582Y360550D01*
X288545Y360397D01*
X288537Y360250D01*
X285955D01*
X285955Y360397D01*
X285918Y360550D01*
X285858Y360695D01*
X285776Y360830D01*
X285673Y360949D01*
X285554Y361052D01*
X285419Y361134D01*
X285274Y361194D01*
X285121Y361231D01*
X284964Y361240D01*
X279689Y361231D01*
X279536Y361194D01*
X279391Y361134D01*
X279256Y361052D01*
X279137Y360949D01*
X279034Y360830D01*
X278952Y360695D01*
X278892Y360550D01*
X278855Y360397D01*
X278846Y360240D01*
X278849Y357714D01*
X278828Y357662D01*
X278690Y357088D01*
X278644Y356500D01*
X278690Y355912D01*
X278828Y355338D01*
X278852Y355279D01*
X278855Y352603D01*
X278892Y352450D01*
X278952Y352305D01*
X279034Y352170D01*
X279137Y352051D01*
X279256Y351948D01*
X279391Y351866D01*
X279536Y351806D01*
X279689Y351769D01*
X279846Y351760D01*
X285121Y351769D01*
X285274Y351806D01*
X285419Y351866D01*
X285554Y351948D01*
X285673Y352051D01*
X285776Y352170D01*
X285858Y352305D01*
X285918Y352450D01*
X285955Y352603D01*
X285963Y352750D01*
X288545D01*
X288545Y352603D01*
X288582Y352450D01*
X288642Y352305D01*
X288724Y352170D01*
X288827Y352051D01*
X288946Y351948D01*
X289081Y351866D01*
X289226Y351806D01*
X289379Y351769D01*
X289536Y351760D01*
X292095Y351764D01*
Y348304D01*
X292007Y348250D01*
X286993D01*
X286549Y348522D01*
X285895Y348793D01*
X285206Y348958D01*
X284500Y349014D01*
X283794Y348958D01*
X283105Y348793D01*
X282451Y348522D01*
X282007Y348250D01*
X276993D01*
X276549Y348522D01*
X275895Y348793D01*
X275206Y348958D01*
X274500Y349014D01*
X273794Y348958D01*
X273105Y348793D01*
X272451Y348522D01*
X272007Y348250D01*
X270995D01*
Y351765D01*
X273311Y351769D01*
X273464Y351806D01*
X273609Y351866D01*
X273744Y351948D01*
X273863Y352051D01*
X273966Y352170D01*
X274048Y352305D01*
X274108Y352450D01*
X274145Y352603D01*
X274154Y352760D01*
X274151Y355286D01*
X274172Y355338D01*
X274172Y355338D01*
X274172Y355338D01*
X274243Y355631D01*
X274310Y355912D01*
X274310Y355912D01*
X274310Y355912D01*
X274356Y356500D01*
X274345Y356647D01*
Y357595D01*
X274310Y358183D01*
X274172Y358757D01*
X274147Y358819D01*
X274145Y360397D01*
X274108Y360550D01*
X274048Y360695D01*
X273966Y360830D01*
X273863Y360949D01*
X273744Y361052D01*
X273609Y361134D01*
X273464Y361194D01*
X273311Y361231D01*
X273154Y361240D01*
X271488Y361237D01*
X271183Y361310D01*
X270995Y361325D01*
Y404891D01*
X271000Y404890D01*
X271486Y404929D01*
X271961Y405043D01*
X272412Y405229D01*
X272828Y405484D01*
X273199Y405801D01*
X273516Y406172D01*
X273771Y406588D01*
X273957Y407039D01*
X274071Y407514D01*
X274100Y408000D01*
X274071Y408486D01*
X273957Y408961D01*
X273771Y409412D01*
X273516Y409828D01*
X273199Y410199D01*
X272828Y410516D01*
X272412Y410771D01*
X271961Y410957D01*
X271486Y411071D01*
X271000Y411110D01*
X270995Y411109D01*
Y416000D01*
G37*
G36*
Y348250D02*X266993D01*
X266549Y348522D01*
X265895Y348793D01*
X265206Y348958D01*
X264500Y349014D01*
X263996Y348974D01*
Y351527D01*
X264128Y351537D01*
X264740Y351684D01*
X265322Y351925D01*
X265346Y351940D01*
X267460D01*
X267581Y351866D01*
X267726Y351806D01*
X267879Y351769D01*
X268036Y351760D01*
X270995Y351765D01*
Y348250D01*
G37*
G36*
Y420000D02*X263996D01*
Y440000D01*
X264324D01*
X264500Y439986D01*
X264676Y440000D01*
X270995D01*
Y420000D01*
G37*
G36*
X263996Y416000D02*X270995D01*
Y411109D01*
X270514Y411071D01*
X270039Y410957D01*
X269588Y410771D01*
X269172Y410516D01*
X268801Y410199D01*
X268484Y409828D01*
X268229Y409412D01*
X268043Y408961D01*
X267929Y408486D01*
X267890Y408000D01*
X267929Y407514D01*
X268043Y407039D01*
X268229Y406588D01*
X268484Y406172D01*
X268801Y405801D01*
X269172Y405484D01*
X269588Y405229D01*
X270039Y405043D01*
X270514Y404929D01*
X270995Y404891D01*
Y361325D01*
X270595Y361356D01*
X270006Y361310D01*
X269689Y361234D01*
X267879Y361231D01*
X267726Y361194D01*
X267581Y361134D01*
X267446Y361052D01*
X267327Y360949D01*
X267224Y360830D01*
X267142Y360695D01*
X267082Y360550D01*
X267045Y360397D01*
X267036Y360240D01*
X267037Y359440D01*
X264223D01*
X264128Y359463D01*
X263996Y359473D01*
Y371692D01*
X264000Y371691D01*
X264439Y371726D01*
X264868Y371829D01*
X265275Y371997D01*
X265651Y372228D01*
X265986Y372514D01*
X266000Y372530D01*
X266014Y372514D01*
X266349Y372228D01*
X266725Y371997D01*
X267132Y371829D01*
X267561Y371726D01*
X268000Y371691D01*
X268439Y371726D01*
X268868Y371829D01*
X269275Y371997D01*
X269651Y372228D01*
X269986Y372514D01*
X270272Y372849D01*
X270503Y373225D01*
X270671Y373632D01*
X270774Y374061D01*
X270800Y374500D01*
X270774Y374939D01*
X270671Y375368D01*
X270503Y375775D01*
X270272Y376151D01*
X269986Y376486D01*
X269970Y376500D01*
X269986Y376514D01*
X270272Y376849D01*
X270503Y377225D01*
X270671Y377632D01*
X270774Y378061D01*
X270800Y378500D01*
X270774Y378939D01*
X270671Y379368D01*
X270503Y379775D01*
X270272Y380151D01*
X269986Y380486D01*
X269970Y380500D01*
X269986Y380514D01*
X270272Y380849D01*
X270503Y381225D01*
X270671Y381632D01*
X270774Y382061D01*
X270800Y382500D01*
X270774Y382939D01*
X270671Y383368D01*
X270503Y383775D01*
X270272Y384151D01*
X269986Y384486D01*
X269970Y384500D01*
X269986Y384514D01*
X270272Y384849D01*
X270503Y385225D01*
X270671Y385632D01*
X270774Y386061D01*
X270800Y386500D01*
X270774Y386939D01*
X270671Y387368D01*
X270503Y387775D01*
X270272Y388151D01*
X269986Y388486D01*
X269970Y388500D01*
X269986Y388514D01*
X270272Y388849D01*
X270503Y389225D01*
X270671Y389632D01*
X270774Y390061D01*
X270800Y390500D01*
X270774Y390939D01*
X270671Y391368D01*
X270503Y391775D01*
X270272Y392151D01*
X269986Y392486D01*
X269651Y392772D01*
X269275Y393003D01*
X268868Y393171D01*
X268439Y393274D01*
X268000Y393309D01*
X267561Y393274D01*
X267132Y393171D01*
X266725Y393003D01*
X266349Y392772D01*
X266014Y392486D01*
X266000Y392470D01*
X265986Y392486D01*
X265651Y392772D01*
X265275Y393003D01*
X264868Y393171D01*
X264439Y393274D01*
X264000Y393309D01*
X263996Y393308D01*
Y416000D01*
G37*
G36*
Y348974D02*X263794Y348958D01*
X263105Y348793D01*
X262451Y348522D01*
X262007Y348250D01*
X256993D01*
X256549Y348522D01*
X255895Y348793D01*
X255206Y348958D01*
X254500Y349014D01*
X253794Y348958D01*
X253105Y348793D01*
X252451Y348522D01*
X252007Y348250D01*
X248308D01*
Y351940D01*
X261654D01*
X261678Y351925D01*
X262260Y351684D01*
X262872Y351537D01*
X263500Y351488D01*
X263996Y351527D01*
Y348974D01*
G37*
G36*
Y420000D02*X263369D01*
X263199Y420199D01*
X262828Y420516D01*
X262412Y420771D01*
X261961Y420957D01*
X261486Y421071D01*
X261000Y421110D01*
X260514Y421071D01*
X260039Y420957D01*
X259588Y420771D01*
X259172Y420516D01*
X258801Y420199D01*
X258631Y420000D01*
X250714D01*
X250577Y420568D01*
X250352Y421113D01*
X250043Y421616D01*
X250043Y421616D01*
X249660Y422065D01*
X249548Y422161D01*
X248308Y423400D01*
Y431505D01*
X256803Y440000D01*
X263996D01*
Y420000D01*
G37*
G36*
X248308Y403005D02*X249548Y404244D01*
X249660Y404340D01*
X250043Y404789D01*
X250043Y404789D01*
X250352Y405292D01*
X250577Y405838D01*
X250715Y406412D01*
X250762Y407000D01*
X250750Y407147D01*
Y416000D01*
X258631D01*
X258801Y415801D01*
X259172Y415484D01*
X259588Y415229D01*
X260039Y415043D01*
X260514Y414929D01*
X261000Y414890D01*
X261486Y414929D01*
X261961Y415043D01*
X262412Y415229D01*
X262828Y415484D01*
X263199Y415801D01*
X263369Y416000D01*
X263996D01*
Y393308D01*
X263561Y393274D01*
X263132Y393171D01*
X262725Y393003D01*
X262349Y392772D01*
X262014Y392486D01*
X262000Y392470D01*
X261986Y392486D01*
X261651Y392772D01*
X261275Y393003D01*
X260868Y393171D01*
X260439Y393274D01*
X260000Y393309D01*
X259561Y393274D01*
X259132Y393171D01*
X258725Y393003D01*
X258349Y392772D01*
X258014Y392486D01*
X257728Y392151D01*
X257497Y391775D01*
X257329Y391368D01*
X257226Y390939D01*
X257191Y390500D01*
X257226Y390061D01*
X257329Y389632D01*
X257497Y389225D01*
X257728Y388849D01*
X258014Y388514D01*
X258030Y388500D01*
X258014Y388486D01*
X257728Y388151D01*
X257497Y387775D01*
X257329Y387368D01*
X257226Y386939D01*
X257191Y386500D01*
X257226Y386061D01*
X257329Y385632D01*
X257497Y385225D01*
X257728Y384849D01*
X258014Y384514D01*
X258030Y384500D01*
X258014Y384486D01*
X257728Y384151D01*
X257497Y383775D01*
X257329Y383368D01*
X257226Y382939D01*
X257191Y382500D01*
X257226Y382061D01*
X257329Y381632D01*
X257497Y381225D01*
X257728Y380849D01*
X258014Y380514D01*
X258030Y380500D01*
X258014Y380486D01*
X257728Y380151D01*
X257497Y379775D01*
X257329Y379368D01*
X257226Y378939D01*
X257191Y378500D01*
X257226Y378061D01*
X257329Y377632D01*
X257497Y377225D01*
X257728Y376849D01*
X258014Y376514D01*
X258030Y376500D01*
X258014Y376486D01*
X257728Y376151D01*
X257497Y375775D01*
X257329Y375368D01*
X257226Y374939D01*
X257191Y374500D01*
X257226Y374061D01*
X257329Y373632D01*
X257497Y373225D01*
X257728Y372849D01*
X258014Y372514D01*
X258349Y372228D01*
X258725Y371997D01*
X259132Y371829D01*
X259561Y371726D01*
X260000Y371691D01*
X260439Y371726D01*
X260868Y371829D01*
X261275Y371997D01*
X261651Y372228D01*
X261986Y372514D01*
X262000Y372530D01*
X262014Y372514D01*
X262349Y372228D01*
X262725Y371997D01*
X263132Y371829D01*
X263561Y371726D01*
X263996Y371692D01*
Y359473D01*
X263500Y359512D01*
X262872Y359463D01*
X262777Y359440D01*
X257334D01*
X257262Y359470D01*
X257137Y359500D01*
X257262Y359530D01*
X257407Y359590D01*
X257542Y359672D01*
X257661Y359775D01*
X257764Y359894D01*
X257846Y360029D01*
X257906Y360174D01*
X257943Y360327D01*
X257952Y360484D01*
X257943Y365759D01*
X257906Y365912D01*
X257846Y366057D01*
X257764Y366192D01*
X257661Y366311D01*
X257542Y366414D01*
X257407Y366496D01*
X257262Y366556D01*
X257109Y366593D01*
X256952Y366602D01*
X255213Y366599D01*
X255162Y366620D01*
X254588Y366758D01*
X254000Y366793D01*
X248308D01*
Y403005D01*
G37*
G36*
Y423400D02*X244256Y427453D01*
X248308Y431505D01*
Y423400D01*
G37*
G36*
X237431Y402735D02*X235189Y402731D01*
X235036Y402694D01*
X234891Y402634D01*
X234756Y402552D01*
X234637Y402449D01*
X234534Y402330D01*
X234452Y402195D01*
X234392Y402050D01*
X234355Y401897D01*
X234346Y401740D01*
X234349Y399214D01*
X234328Y399162D01*
X234190Y398588D01*
X234144Y398000D01*
X234190Y397412D01*
X234328Y396838D01*
X234352Y396779D01*
X234355Y394103D01*
X234392Y393950D01*
X234452Y393805D01*
X234534Y393670D01*
X234637Y393551D01*
X234756Y393448D01*
X234891Y393366D01*
X235036Y393306D01*
X235189Y393269D01*
X235346Y393260D01*
X240621Y393269D01*
X240774Y393306D01*
X240919Y393366D01*
X241054Y393448D01*
X241173Y393551D01*
X241276Y393670D01*
X241358Y393805D01*
X241418Y393950D01*
X241455Y394103D01*
X241464Y394260D01*
X241462Y396158D01*
X248308Y403005D01*
Y366793D01*
X233010D01*
X231735Y368069D01*
X231731Y370216D01*
X231694Y370369D01*
X231634Y370514D01*
X231552Y370648D01*
X231449Y370768D01*
X231330Y370870D01*
X231195Y370953D01*
X231050Y371013D01*
X230897Y371050D01*
X230740Y371059D01*
X230500Y371059D01*
Y372851D01*
X230566Y373010D01*
X230713Y373622D01*
X230750Y374250D01*
X230713Y374878D01*
X230566Y375490D01*
X230325Y376072D01*
X229996Y376608D01*
X229587Y377087D01*
X229108Y377496D01*
X228572Y377825D01*
X227990Y378066D01*
X227378Y378213D01*
X226750Y378262D01*
X226122Y378213D01*
X225510Y378066D01*
X224928Y377825D01*
X224392Y377496D01*
X223913Y377087D01*
X223504Y376608D01*
X223175Y376072D01*
X222934Y375490D01*
X222787Y374878D01*
X222738Y374250D01*
X222787Y373622D01*
X222934Y373010D01*
X223000Y372851D01*
Y371025D01*
X222950Y371013D01*
X222805Y370953D01*
X222670Y370870D01*
X222551Y370768D01*
X222448Y370648D01*
X222366Y370514D01*
X222306Y370369D01*
X222269Y370216D01*
X222260Y370059D01*
X222269Y364784D01*
X222306Y364631D01*
X222366Y364485D01*
X222448Y364351D01*
X222551Y364232D01*
X222670Y364129D01*
X222805Y364047D01*
X222950Y363987D01*
X223103Y363950D01*
X223260Y363941D01*
X225253Y363943D01*
X228701Y360495D01*
X228797Y360383D01*
X229245Y360000D01*
X229246Y360000D01*
X229246Y360000D01*
X229246Y360000D01*
X229497Y359846D01*
X229749Y359691D01*
X229749Y359691D01*
X229749Y359691D01*
X230051Y359566D01*
X230294Y359466D01*
X230294Y359465D01*
X230294Y359465D01*
X230400Y359440D01*
X227000D01*
X226412Y359405D01*
X225838Y359267D01*
X225778Y359243D01*
X223103Y359240D01*
X222950Y359203D01*
X222805Y359143D01*
X222670Y359060D01*
X222551Y358958D01*
X222448Y358838D01*
X222366Y358704D01*
X222306Y358559D01*
X222269Y358406D01*
X222260Y358249D01*
X222269Y352974D01*
X222306Y352821D01*
X222366Y352675D01*
X222448Y352541D01*
X222551Y352422D01*
X222670Y352319D01*
X222805Y352237D01*
X222950Y352177D01*
X223103Y352140D01*
X223260Y352131D01*
X225786Y352134D01*
X225838Y352113D01*
X226412Y351975D01*
X227000Y351940D01*
X248308D01*
Y348250D01*
X246993D01*
X246549Y348522D01*
X245895Y348793D01*
X245206Y348958D01*
X244500Y349014D01*
X243794Y348958D01*
X243105Y348793D01*
X242451Y348522D01*
X242007Y348250D01*
X236993D01*
X236549Y348522D01*
X235895Y348793D01*
X235206Y348958D01*
X234500Y349014D01*
X233794Y348958D01*
X233105Y348793D01*
X232451Y348522D01*
X232007Y348250D01*
X228800D01*
X228717Y348384D01*
X228564Y348564D01*
X228384Y348717D01*
X228183Y348841D01*
X227965Y348931D01*
X227735Y348986D01*
X227500Y349000D01*
X221265Y348986D01*
X221035Y348931D01*
X220817Y348841D01*
X220616Y348717D01*
X220436Y348564D01*
X220283Y348384D01*
X220200Y348250D01*
X218250D01*
Y352007D01*
X218522Y352451D01*
X218793Y353105D01*
X218958Y353794D01*
X219000Y354500D01*
X218958Y355206D01*
X218793Y355895D01*
X218522Y356549D01*
X218250Y356993D01*
Y362007D01*
X218522Y362451D01*
X218793Y363105D01*
X218958Y363794D01*
X219000Y364500D01*
X218958Y365206D01*
X218793Y365895D01*
X218522Y366549D01*
X218250Y366993D01*
Y372007D01*
X218522Y372451D01*
X218793Y373105D01*
X218958Y373794D01*
X219000Y374500D01*
X218958Y375206D01*
X218793Y375895D01*
X218522Y376549D01*
X218250Y376993D01*
Y382007D01*
X218522Y382451D01*
X218793Y383105D01*
X218958Y383794D01*
X219000Y384500D01*
X218958Y385206D01*
X218793Y385895D01*
X218522Y386549D01*
X218250Y386993D01*
Y392007D01*
X218522Y392451D01*
X218793Y393105D01*
X218958Y393794D01*
X219000Y394500D01*
X218958Y395206D01*
X218793Y395895D01*
X218522Y396549D01*
X218250Y396993D01*
Y402007D01*
X218522Y402451D01*
X218793Y403105D01*
X218958Y403794D01*
X219000Y404500D01*
X218958Y405206D01*
X218793Y405895D01*
X218522Y406549D01*
X218250Y406993D01*
Y412007D01*
X218522Y412451D01*
X218793Y413105D01*
X218958Y413794D01*
X219000Y414500D01*
X218958Y415206D01*
X218793Y415895D01*
X218749Y416000D01*
X222345D01*
Y413500D01*
X222380Y412912D01*
X222517Y412338D01*
X222542Y412278D01*
X222545Y409603D01*
X222582Y409450D01*
X222642Y409305D01*
X222724Y409170D01*
X222827Y409051D01*
X222946Y408948D01*
X223081Y408866D01*
X223226Y408806D01*
X223379Y408769D01*
X223536Y408760D01*
X228811Y408769D01*
X228964Y408806D01*
X229109Y408866D01*
X229244Y408948D01*
X229363Y409051D01*
X229466Y409170D01*
X229548Y409305D01*
X229608Y409450D01*
X229645Y409603D01*
X229654Y409760D01*
X229651Y412286D01*
X229672Y412338D01*
X229810Y412912D01*
X229845Y413500D01*
Y416000D01*
X234348D01*
X234349Y414856D01*
X234285Y414588D01*
X234250Y414000D01*
Y413053D01*
X230838Y409641D01*
X230678Y409575D01*
X230142Y409246D01*
X229663Y408837D01*
X229254Y408358D01*
X228925Y407822D01*
X228859Y407662D01*
X223928Y402732D01*
X223379Y402731D01*
X223226Y402694D01*
X223081Y402634D01*
X222946Y402552D01*
X222827Y402449D01*
X222724Y402330D01*
X222642Y402195D01*
X222582Y402050D01*
X222545Y401897D01*
X222536Y401740D01*
X222537Y400805D01*
X222517Y400757D01*
X222380Y400183D01*
X222380Y400183D01*
X222333Y399595D01*
X222345Y399448D01*
Y398744D01*
X222285Y398494D01*
X222285Y398493D01*
X222238Y397905D01*
X222250Y397758D01*
Y392399D01*
X222184Y392240D01*
X222037Y391628D01*
X221988Y391000D01*
X222037Y390372D01*
X222184Y389760D01*
X222425Y389178D01*
X222754Y388642D01*
X223163Y388163D01*
X223642Y387754D01*
X224178Y387425D01*
X224760Y387184D01*
X225372Y387037D01*
X226000Y386988D01*
X226628Y387037D01*
X227240Y387184D01*
X227822Y387425D01*
X228358Y387754D01*
X228837Y388163D01*
X229246Y388642D01*
X229575Y389178D01*
X229816Y389760D01*
X229963Y390372D01*
X230000Y391000D01*
X229963Y391628D01*
X229816Y392240D01*
X229750Y392399D01*
Y397161D01*
X229810Y397412D01*
X229856Y398000D01*
X229853Y398049D01*
X234162Y402359D01*
X234322Y402425D01*
X234858Y402754D01*
X235337Y403163D01*
X235746Y403642D01*
X236075Y404178D01*
X236141Y404338D01*
X240548Y408744D01*
X240577Y408769D01*
X240621Y408769D01*
X240774Y408806D01*
X240919Y408866D01*
X241054Y408948D01*
X241173Y409051D01*
X241276Y409170D01*
X241358Y409305D01*
X241418Y409450D01*
X241455Y409603D01*
X241464Y409760D01*
X241464Y410063D01*
X241577Y410338D01*
X241715Y410912D01*
X241762Y411500D01*
X241750Y411647D01*
Y414000D01*
X241715Y414588D01*
X241577Y415162D01*
X241457Y415453D01*
X241456Y416000D01*
X243250D01*
Y408553D01*
X237431Y402735D01*
G37*
G36*
X254500Y393500D02*X272500D01*
Y368000D01*
X254500D01*
Y393500D01*
G37*
G36*
X288000Y394000D02*Y393500D01*
X291000Y390500D01*
X288000Y387500D01*
Y394000D01*
G37*
G54D12*X226500Y337000D02*X222000Y332500D01*
X224500Y254500D02*Y262500D01*
X222000Y265000D01*
Y332500D02*Y265000D01*
G54D13*X224000Y285500D02*X242000D01*
G54D12*X243000Y277500D02*X255000D01*
X243000Y274000D02*X254000D01*
X243000Y276000D02*X255000Y275000D01*
G54D13*X214500Y254500D02*X224500D01*
X255000Y275000D02*Y285655D01*
X254905Y285750D01*
X264500Y295345D02*X254905Y285750D01*
X264500Y297500D02*Y295345D01*
X243000Y300000D02*X261000Y318000D01*
X243000Y286000D02*Y300000D01*
G54D14*X266000Y256000D02*X264500Y254500D01*
G54D13*X274500D02*X314500D01*
G54D15*X271000Y275750D03*
G54D14*X264500Y254500D02*X271000Y261000D01*
G54D15*X285000Y290500D02*Y294500D01*
G54D14*X284646Y283750D02*X291000Y290104D01*
G54D15*X283000Y288500D02*X285000Y290500D01*
G54D14*X283914Y309000D02*X291000Y301914D01*
Y290104D02*X297147D01*
X291000Y301914D02*X300491D01*
X300500Y301905D01*
X271000Y281250D02*X273500Y283750D01*
X284646D01*
G54D15*X274500Y288500D02*X283000D01*
X271000Y292000D02*X274500Y288500D01*
G54D14*X271000Y287500D02*X269500Y286000D01*
X271000Y281250D02*X271250Y281500D01*
X271000Y296250D02*Y287500D01*
Y298500D02*Y308000D01*
Y281250D02*Y261000D01*
X276000Y296250D02*Y304000D01*
X281000Y318000D02*Y309000D01*
X276000Y304000D01*
X281000Y309000D02*X283914D01*
X271000Y308000D02*X261000Y318000D01*
X271000D02*X17800D01*
X271000Y418000D02*X15200D01*
G54D16*X126963Y321937D02*X134837Y314063D01*
Y321937D02*X126963Y314063D01*
X125900Y313000D02*X135900Y323000D01*
Y313000D02*X125900Y323000D01*
G54D13*X282405Y356500D02*X292095D01*
X227000Y355690D02*X269785D01*
X270595Y356500D01*
Y357595D01*
X254000Y363043D02*X231457D01*
X227000Y367500D01*
G54D12*X303000Y337000D02*X226500D01*
G54D13*X214500Y344500D02*X314500D01*
X226095Y399595D02*X238000Y411500D01*
Y414000D01*
X237905Y398000D02*X238000D01*
X247000Y407000D01*
X226000Y391000D02*Y397905D01*
X226095Y398000D01*
Y399595D01*
X226750Y367750D02*Y374250D01*
X247000Y419405D02*X237905Y428500D01*
X226095D02*Y413500D01*
Y428000D02*Y430595D01*
X254500Y444500D02*Y443000D01*
X238952Y427452D01*
X226095Y430595D02*X234500Y439000D01*
Y444500D01*
X303905Y395095D02*X281000Y418000D01*
X314500Y444500D02*X264500D01*
X303905Y356595D02*X292000Y368500D01*
X304500Y366500D02*Y372405D01*
X303905Y373000D01*
Y395095D01*
X292000Y368500D02*Y372905D01*
X292095Y373000D01*
X292000D02*Y376500D01*
X296500Y381000D01*
X247000Y407000D02*Y419405D01*
X244500Y254500D02*Y275500D01*
X214500Y254500D02*Y444500D01*
X224500D02*X214500D01*
G54D12*X242500Y286000D02*Y288500D01*
G54D13*X303905Y356500D02*Y356595D01*
G54D12*X303000Y337000D02*X307000Y333000D01*
Y297000D01*
G54D15*X285000Y294500D02*X286500Y296000D01*
G54D13*X314500Y254500D02*Y444500D01*
G54D14*X103200Y467200D02*Y39000D01*
G54D16*X104200Y238043D02*Y180957D01*
Y138043D02*Y80957D01*
Y238043D02*X165617D01*
Y180957D01*
X104200D01*
X132468Y213437D02*X140342Y205563D01*
Y213437D02*X132468Y205563D01*
X104200Y138043D02*X165617D01*
Y80957D01*
X104200D01*
X132468Y113437D02*X140342Y105563D01*
Y113437D02*X132468Y105563D01*
G54D14*X98900Y467200D02*Y37300D01*
G54D16*X41900Y469400D02*Y28470D01*
X130900Y469400D02*Y31200D01*
X124400Y31390D02*Y469200D01*
X206900Y469400D02*Y29940D01*
X126963Y421937D02*X134837Y414063D01*
Y421937D02*X126963Y414063D01*
X125900Y423000D02*X135900Y413000D01*
Y423000D02*X125900Y413000D01*
X41900Y469400D02*X206900D01*
G54D17*X345900Y190583D02*X354983D01*
X391900Y213417D02*X382983D01*
X371900Y187417D02*X345900Y213417D01*
X346317Y213000D02*X346359Y212959D01*
X345900Y213000D02*X346109Y213209D01*
X381900Y158500D02*Y180583D01*
X371900Y187417D02*Y152500D01*
X381900Y180583D02*X391900Y190583D01*
X392109Y190791D02*X352900Y230000D01*
G54D14*X362900Y173000D02*X346305D01*
X288900Y226095D02*X289305Y226500D01*
X293900Y222905D02*Y213750D01*
Y222905D02*X297495Y226500D01*
X288900Y226095D02*Y208000D01*
Y193250D02*Y181543D01*
Y208000D02*X290400Y206500D01*
X302400D01*
G54D17*X277495Y226500D02*X268900Y218000D01*
G54D14*X269900Y233500D02*X302305D01*
G54D17*X298900Y182000D02*X293900Y187000D01*
G54D14*X259400Y223000D02*X269900Y233500D01*
X259400Y209500D02*Y223000D01*
X305400Y209500D02*X311305D01*
X311400Y209405D01*
G54D17*X331995Y230000D02*X311400Y209405D01*
G54D14*X302305Y233500D02*X309305Y226500D01*
G54D17*X331995Y230000D02*X352900D01*
X320305Y197905D02*X335400Y213000D01*
X345900D01*
G54D14*X302400Y206500D02*X305400Y209500D01*
X298900Y193250D02*X307055D01*
X311400Y197595D01*
G54D17*X300150Y193250D02*X307055D01*
X311353Y197548D01*
X311305Y197500D02*X320305D01*
G54D14*X293900Y193250D02*Y187500D01*
X299400Y182000D02*X308495D01*
G54D17*X307900D02*X299400D01*
X299900D02*X298900D01*
X320305D02*Y197905D01*
G54D16*X445795Y169543D02*X507213D01*
Y112457D01*
X445795D01*
Y169543D02*Y112457D01*
X474063Y144937D02*X481937Y137063D01*
Y144937D02*X474063Y137063D01*
G54D17*X391900Y108500D02*Y148500D01*
G54D14*X401900Y108500D02*Y160500D01*
X389400Y173000D01*
G54D17*X391900Y148500D02*X381900Y158500D01*
Y142500D02*X371900Y152500D01*
Y108500D02*Y138500D01*
X361900Y148500D01*
Y108500D02*Y134000D01*
X351900Y144000D01*
Y158500D01*
X361900Y148500D02*Y158500D01*
X381900Y142500D02*Y93500D01*
G54D14*X327857Y142000D02*Y154552D01*
X337305Y125000D02*Y139638D01*
X334943Y142000D01*
X327857Y154552D02*X346305Y173000D01*
X331400Y169905D02*X293452D01*
X288900Y174457D01*
X295400Y123500D02*Y136595D01*
X296305Y137500D01*
X259400Y209500D02*X21700D01*
X302900Y112000D02*X306400Y108500D01*
G54D17*X294805Y87500D02*X300305Y93000D01*
X303495Y92000D02*Y86905D01*
X305400Y85000D01*
X316805Y93500D02*X315305Y92000D01*
X300305Y93000D02*X303400D01*
X300400Y93095D02*Y99500D01*
G54D14*X306400Y108500D02*Y104500D01*
X345305Y103500D02*X307378Y103522D01*
X306400Y104500D01*
G54D17*X305400Y85000D02*X373400D01*
X381900Y93500D01*
X316805D02*X333495D01*
G54D14*X345305D02*Y106638D01*
X342943Y109000D01*
G54D16*X512000Y55950D02*X33500D01*
G54D17*X325495Y125000D02*Y112595D01*
X321900Y109000D01*
X316305D01*
X315900Y108595D01*
G54D14*X335857Y109000D02*Y115957D01*
X337400Y117500D01*
Y124905D01*
X337305Y125000D01*
G54D17*X306900Y120500D02*X315805D01*
X315900Y120405D01*
G54D14*X259400Y109500D02*X24100D01*
X290400Y104250D02*Y111500D01*
X295400Y116500D01*
Y104250D02*Y109500D01*
X297900Y112000D01*
X302900D01*
G54D17*X282995Y87500D02*Y94905D01*
X279400Y98500D01*
Y108500D01*
G54D14*X295400Y116500D02*Y124750D01*
G54D17*X279400Y108500D02*X290400Y119500D01*
G54D14*X259400Y109500D02*Y112405D01*
X284495Y137500D01*
G54D18*X261000Y418000D03*
X281000D03*
X271000Y408000D03*
G54D19*X214500Y404500D03*
Y394500D03*
G54D11*G36*
X311500Y447500D02*Y441500D01*
X317500D01*
Y447500D01*
X311500D01*
G37*
G54D19*X314500Y434500D03*
Y424500D03*
Y414500D03*
Y404500D03*
Y394500D03*
Y384500D03*
Y374500D03*
G54D11*G36*
X211500Y447500D02*Y441500D01*
X217500D01*
Y447500D01*
X211500D01*
G37*
G54D19*X214500Y434500D03*
Y424500D03*
Y414500D03*
G54D11*G36*
X221500Y447500D02*Y441500D01*
X227500D01*
Y447500D01*
X221500D01*
G37*
G54D19*X234500Y444500D03*
X244500D03*
X254500D03*
X264500D03*
X274500D03*
X284500D03*
X294500D03*
X304500D03*
G54D18*X261000Y318000D03*
X281000D03*
X271000Y308000D03*
G54D19*X214500Y354500D03*
Y344500D03*
Y334500D03*
Y324500D03*
G54D11*G36*
X221500Y347500D02*Y341500D01*
X227500D01*
Y347500D01*
X221500D01*
G37*
G54D19*X314500Y364500D03*
Y354500D03*
Y344500D03*
Y334500D03*
Y324500D03*
Y314500D03*
Y304500D03*
Y294500D03*
Y284500D03*
Y274500D03*
Y264500D03*
Y254500D03*
X214500Y314500D03*
Y304500D03*
Y294500D03*
Y284500D03*
Y274500D03*
Y264500D03*
Y254500D03*
G54D11*G36*
X221500Y257500D02*Y251500D01*
X227500D01*
Y257500D01*
X221500D01*
G37*
G54D19*X234500Y254500D03*
X254500D03*
X264500D03*
X274500D03*
X284500D03*
X294500D03*
X304500D03*
X214500Y384500D03*
Y374500D03*
Y364500D03*
X234500Y344500D03*
X244500D03*
X254500D03*
X264500D03*
X274500D03*
X284500D03*
X294500D03*
X304500D03*
G54D11*G36*
X347900Y162500D02*Y154500D01*
X355900D01*
Y162500D01*
X347900D01*
G37*
G54D20*X361900Y158500D03*
X371900D03*
X381900D03*
G54D11*G36*
X357900Y112500D02*Y104500D01*
X365900D01*
Y112500D01*
X357900D01*
G37*
G54D20*X371900Y108500D03*
X381900D03*
X391900D03*
X401900D03*
G54D19*X244500Y254500D03*
G54D21*X239400Y189500D03*
G54D22*Y229500D03*
G54D20*X259400Y199500D03*
Y209500D03*
G54D22*X239400Y89500D03*
G54D21*Y129500D03*
G54D20*X259400Y99500D03*
Y109500D03*
G54D23*X226095Y414681D02*Y412319D01*
Y399181D02*Y396819D01*
X237905Y414681D02*Y412319D01*
Y429681D02*Y427319D01*
Y399181D02*Y396819D01*
X226095Y429681D02*Y427319D01*
X270595Y357681D02*Y355319D01*
X225819Y367500D02*X228181D01*
X225819Y355690D02*X228181D01*
X240607Y363043D02*X241393D01*
X240607Y355957D02*X241393D01*
X253607Y363043D02*X254393D01*
X253607Y355957D02*X254393D01*
X292095Y357681D02*Y355319D01*
X289819Y301914D02*X292181D01*
X289819Y290104D02*X292181D01*
X303905Y357681D02*Y355319D01*
X299319Y301905D02*X301681D01*
X299319Y290095D02*X301681D01*
X282405Y357681D02*Y355319D01*
G54D24*X281000Y299500D02*Y293000D01*
X276000Y299500D02*Y293000D01*
X271000Y299500D02*Y293000D01*
G54D23*X292095Y374181D02*Y371819D01*
X303905Y374181D02*Y371819D01*
X292095Y391181D02*Y388819D01*
X303905Y391181D02*Y388819D01*
X243095Y288505D02*Y282995D01*
X254905Y288505D02*Y282995D01*
G54D24*X266000Y299500D02*Y293000D01*
Y279000D02*Y272500D01*
X271000Y279000D02*Y272500D01*
X276000Y279000D02*Y272500D01*
X281000Y279000D02*Y272500D01*
G54D23*X328645Y158095D02*X334155D01*
X328645Y169905D02*X334155D01*
X325495Y127755D02*Y122245D01*
X337305Y127755D02*Y122245D01*
X327857Y142393D02*Y141607D01*
X334943Y142393D02*Y141607D01*
G54D25*X345900Y218732D02*Y208102D01*
Y195898D02*Y185268D01*
X391900Y218732D02*Y208102D01*
Y195898D02*Y185268D01*
G54D23*X333495Y96255D02*Y90745D01*
X315305Y93181D02*Y90819D01*
X345305Y96255D02*Y90745D01*
X335857Y109393D02*Y108607D01*
X342943Y109393D02*Y108607D01*
X314719Y108595D02*X317081D01*
X314719Y120405D02*X317081D01*
G54D24*X285400Y107500D02*Y101000D01*
X290400Y107500D02*Y101000D01*
X295400Y107500D02*Y101000D01*
X300400Y107500D02*Y101000D01*
Y128000D02*Y121500D01*
G54D23*X303495Y93181D02*Y90819D01*
G54D24*X295400Y128000D02*Y121500D01*
G54D23*X296305Y138681D02*Y136319D01*
X294805Y88681D02*Y86319D01*
G54D24*X290400Y128000D02*Y121500D01*
X285400Y128000D02*Y121500D01*
G54D23*X284495Y138681D02*Y136319D01*
X282995Y88681D02*Y86319D01*
G54D24*X283900Y196500D02*Y190000D01*
X288900Y196500D02*Y190000D01*
G54D23*X288507Y174457D02*X289293D01*
X288507Y181543D02*X289293D01*
G54D24*X293900Y196500D02*Y190000D01*
X298900Y196500D02*Y190000D01*
G54D23*X310219Y197595D02*X312581D01*
X308495Y183181D02*Y180819D01*
X320305Y183181D02*Y180819D01*
G54D24*X298900Y217000D02*Y210500D01*
G54D23*X297495Y227681D02*Y225319D01*
X309305Y227681D02*Y225319D01*
X310219Y209405D02*X312581D01*
G54D24*X293900Y217000D02*Y210500D01*
X288900Y217000D02*Y210500D01*
X283900Y217000D02*Y210500D01*
G54D23*X277495Y227681D02*Y225319D01*
X289305Y227681D02*Y225319D01*
G54D26*X276000Y278000D03*
X243000Y274000D03*
Y277500D03*
X276000Y273500D03*
X269500Y286000D03*
G54D19*X268900Y218000D03*
X382983Y213417D03*
G54D26*X293900Y213750D03*
G54D27*X104200Y209500D03*
X136405D03*
X104200Y109500D03*
X136405D03*
X82090Y55940D03*
X68900Y249000D03*
X179900D03*
G54D26*X260000Y386500D03*
X264000D03*
X268000D03*
Y382500D03*
X264000D03*
X260000D03*
X268000Y390500D03*
X264000D03*
X260000D03*
G54D27*X271000Y418000D03*
G54D26*X260000Y378500D03*
Y374500D03*
X264000Y378500D03*
Y374500D03*
G54D19*X263500Y355500D03*
G54D26*X268000Y378500D03*
G54D19*X304500Y366500D03*
X296500Y381000D03*
G54D27*X271000Y318000D03*
G54D19*X354983Y190583D03*
G54D26*X288900Y193250D03*
G54D19*X298900Y182000D03*
G54D26*X362900Y173000D03*
G54D19*X324400Y93500D03*
X325495Y112595D03*
X285400Y114500D03*
X306900Y120500D03*
G54D26*X389400Y173000D03*
G54D27*X445795Y141000D03*
X478000D03*
G54D26*X268000Y374500D03*
G54D19*X226750Y374250D03*
X226000Y391000D03*
Y421000D03*
X232500Y406000D03*
G54D27*X124400Y469400D03*
X130900Y318000D03*
Y418000D03*
X68900Y450000D03*
X179900D03*
G54D14*G54D12*G54D14*G54D12*G54D14*G54D12*G54D14*G54D12*G54D14*G54D12*G54D14*G54D12*G54D14*G54D12*G54D14*G54D28*G54D29*G54D28*G54D29*G54D17*G54D29*G54D30*G54D31*G54D30*G54D31*M02*
