G04 start of page 12 for group -3984 idx -3984 *
G04 Title: (unknown), fab *
G04 Creator: pcb 20140316 *
G04 CreationDate: Tue 14 Apr 2015 10:04:33 AM GMT UTC *
G04 For: fosse *
G04 Format: Gerber/RS-274X *
G04 PCB-Dimensions (mil): 5250.00 5000.00 *
G04 PCB-Coordinate-Origin: lower left *
%MOIN*%
%FSLAX25Y25*%
%LNFAB*%
%ADD96C,0.0100*%
%ADD95C,0.0060*%
%ADD94R,0.0080X0.0080*%
G54D94*X239400Y192700D02*Y186300D01*
X236200Y189500D02*X242600D01*
X237800Y191100D02*X241000D01*
X237800D02*Y187900D01*
X241000D01*
Y191100D02*Y187900D01*
X239400Y232700D02*Y226300D01*
X236200Y229500D02*X242600D01*
X237800Y231100D02*X241000D01*
X237800D02*Y227900D01*
X241000D01*
Y231100D02*Y227900D01*
X239400Y92700D02*Y86300D01*
X236200Y89500D02*X242600D01*
X237800Y91100D02*X241000D01*
X237800D02*Y87900D01*
X241000D01*
Y91100D02*Y87900D01*
X239400Y132700D02*Y126300D01*
X236200Y129500D02*X242600D01*
X237800Y131100D02*X241000D01*
X237800D02*Y127900D01*
X241000D01*
Y131100D02*Y127900D01*
X15000Y514450D02*Y508050D01*
X11800Y511250D02*X18200D01*
X13400Y512850D02*X16600D01*
X13400D02*Y509650D01*
X16600D01*
Y512850D02*Y509650D01*
G54D95*X135000Y513500D02*Y512750D01*
X136500Y511250D01*
X138000Y512750D01*
Y513500D02*Y512750D01*
X136500Y511250D02*Y507500D01*
X139800Y510500D02*X142050D01*
X139800Y507500D02*X142800D01*
X139800Y513500D02*Y507500D01*
Y513500D02*X142800D01*
X147600D02*X148350Y512750D01*
X145350Y513500D02*X147600D01*
X144600Y512750D02*X145350Y513500D01*
X144600Y512750D02*Y511250D01*
X145350Y510500D01*
X147600D01*
X148350Y509750D01*
Y508250D01*
X147600Y507500D02*X148350Y508250D01*
X145350Y507500D02*X147600D01*
X144600Y508250D02*X145350Y507500D01*
X98000Y510500D02*X101000Y513500D01*
X98000Y510500D02*X101750D01*
X101000Y513500D02*Y507500D01*
X45000Y508250D02*X45750Y507500D01*
X45000Y512750D02*Y508250D01*
Y512750D02*X45750Y513500D01*
X47250D01*
X48000Y512750D01*
Y508250D01*
X47250Y507500D02*X48000Y508250D01*
X45750Y507500D02*X47250D01*
X45000Y509000D02*X48000Y512000D01*
X49800Y507500D02*X50550D01*
X52350Y508250D02*X53100Y507500D01*
X52350Y512750D02*Y508250D01*
Y512750D02*X53100Y513500D01*
X54600D01*
X55350Y512750D01*
Y508250D01*
X54600Y507500D02*X55350Y508250D01*
X53100Y507500D02*X54600D01*
X52350Y509000D02*X55350Y512000D01*
X57150Y507500D02*X60900Y511250D01*
Y513500D02*Y511250D01*
X57150Y513500D02*X60900D01*
X62700Y507500D02*X65700Y510500D01*
Y512750D02*Y510500D01*
X64950Y513500D02*X65700Y512750D01*
X63450Y513500D02*X64950D01*
X62700Y512750D02*X63450Y513500D01*
X62700Y512750D02*Y511250D01*
X63450Y510500D01*
X65700D01*
X351900Y158500D02*Y155300D01*
Y158500D02*X354673Y160100D01*
X351900Y158500D02*X349127Y160100D01*
X350300Y158500D02*G75*G03X353500Y158500I1600J0D01*G01*
G75*G03X350300Y158500I-1600J0D01*G01*
X361900D02*Y155300D01*
Y158500D02*X364673Y160100D01*
X361900Y158500D02*X359127Y160100D01*
X360300Y158500D02*G75*G03X363500Y158500I1600J0D01*G01*
G75*G03X360300Y158500I-1600J0D01*G01*
X371900D02*Y155300D01*
Y158500D02*X374673Y160100D01*
X371900Y158500D02*X369127Y160100D01*
X370300Y158500D02*G75*G03X373500Y158500I1600J0D01*G01*
G75*G03X370300Y158500I-1600J0D01*G01*
X381900D02*Y155300D01*
Y158500D02*X384673Y160100D01*
X381900Y158500D02*X379127Y160100D01*
X380300Y158500D02*G75*G03X383500Y158500I1600J0D01*G01*
G75*G03X380300Y158500I-1600J0D01*G01*
X361900Y108500D02*Y105300D01*
Y108500D02*X364673Y110100D01*
X361900Y108500D02*X359127Y110100D01*
X360300Y108500D02*G75*G03X363500Y108500I1600J0D01*G01*
G75*G03X360300Y108500I-1600J0D01*G01*
X371900D02*Y105300D01*
Y108500D02*X374673Y110100D01*
X371900Y108500D02*X369127Y110100D01*
X370300Y108500D02*G75*G03X373500Y108500I1600J0D01*G01*
G75*G03X370300Y108500I-1600J0D01*G01*
X381900D02*Y105300D01*
Y108500D02*X384673Y110100D01*
X381900Y108500D02*X379127Y110100D01*
X380300Y108500D02*G75*G03X383500Y108500I1600J0D01*G01*
G75*G03X380300Y108500I-1600J0D01*G01*
X391900D02*Y105300D01*
Y108500D02*X394673Y110100D01*
X391900Y108500D02*X389127Y110100D01*
X390300Y108500D02*G75*G03X393500Y108500I1600J0D01*G01*
G75*G03X390300Y108500I-1600J0D01*G01*
X401900D02*Y105300D01*
Y108500D02*X404673Y110100D01*
X401900Y108500D02*X399127Y110100D01*
X400300Y108500D02*G75*G03X403500Y108500I1600J0D01*G01*
G75*G03X400300Y108500I-1600J0D01*G01*
X15000Y526250D02*Y523050D01*
Y526250D02*X17773Y527850D01*
X15000Y526250D02*X12227Y527850D01*
X13400Y526250D02*G75*G03X16600Y526250I1600J0D01*G01*
G75*G03X13400Y526250I-1600J0D01*G01*
X135000Y528500D02*Y527750D01*
X136500Y526250D01*
X138000Y527750D01*
Y528500D02*Y527750D01*
X136500Y526250D02*Y522500D01*
X139800Y525500D02*X142050D01*
X139800Y522500D02*X142800D01*
X139800Y528500D02*Y522500D01*
Y528500D02*X142800D01*
X147600D02*X148350Y527750D01*
X145350Y528500D02*X147600D01*
X144600Y527750D02*X145350Y528500D01*
X144600Y527750D02*Y526250D01*
X145350Y525500D01*
X147600D01*
X148350Y524750D01*
Y523250D01*
X147600Y522500D02*X148350Y523250D01*
X145350Y522500D02*X147600D01*
X144600Y523250D02*X145350Y522500D01*
X98000D02*X101000Y525500D01*
Y527750D02*Y525500D01*
X100250Y528500D02*X101000Y527750D01*
X98750Y528500D02*X100250D01*
X98000Y527750D02*X98750Y528500D01*
X98000Y527750D02*Y526250D01*
X98750Y525500D01*
X101000D01*
X45000Y523250D02*X45750Y522500D01*
X45000Y527750D02*Y523250D01*
Y527750D02*X45750Y528500D01*
X47250D01*
X48000Y527750D01*
Y523250D01*
X47250Y522500D02*X48000Y523250D01*
X45750Y522500D02*X47250D01*
X45000Y524000D02*X48000Y527000D01*
X49800Y522500D02*X50550D01*
X52350Y523250D02*X53100Y522500D01*
X52350Y527750D02*Y523250D01*
Y527750D02*X53100Y528500D01*
X54600D01*
X55350Y527750D01*
Y523250D01*
X54600Y522500D02*X55350Y523250D01*
X53100Y522500D02*X54600D01*
X52350Y524000D02*X55350Y527000D01*
X57150Y525500D02*X60150Y528500D01*
X57150Y525500D02*X60900D01*
X60150Y528500D02*Y522500D01*
X62700Y523250D02*X63450Y522500D01*
X62700Y527750D02*Y523250D01*
Y527750D02*X63450Y528500D01*
X64950D01*
X65700Y527750D01*
Y523250D01*
X64950Y522500D02*X65700Y523250D01*
X63450Y522500D02*X64950D01*
X62700Y524000D02*X65700Y527000D01*
X212900Y446100D02*X216100D01*
X212900D02*Y442900D01*
X216100D01*
Y446100D02*Y442900D01*
X212900Y436100D02*X216100D01*
X212900D02*Y432900D01*
X216100D01*
Y436100D02*Y432900D01*
X212900Y426100D02*X216100D01*
X212900D02*Y422900D01*
X216100D01*
Y426100D02*Y422900D01*
X212900Y416100D02*X216100D01*
X212900D02*Y412900D01*
X216100D01*
Y416100D02*Y412900D01*
X212900Y406100D02*X216100D01*
X212900D02*Y402900D01*
X216100D01*
Y406100D02*Y402900D01*
X212900Y396100D02*X216100D01*
X212900D02*Y392900D01*
X216100D01*
Y396100D02*Y392900D01*
X212900Y386100D02*X216100D01*
X212900D02*Y382900D01*
X216100D01*
Y386100D02*Y382900D01*
X212900Y376100D02*X216100D01*
X212900D02*Y372900D01*
X216100D01*
Y376100D02*Y372900D01*
X212900Y366100D02*X216100D01*
X212900D02*Y362900D01*
X216100D01*
Y366100D02*Y362900D01*
X212900Y356100D02*X216100D01*
X212900D02*Y352900D01*
X216100D01*
Y356100D02*Y352900D01*
X212900Y346100D02*X216100D01*
X212900D02*Y342900D01*
X216100D01*
Y346100D02*Y342900D01*
X212900Y336100D02*X216100D01*
X212900D02*Y332900D01*
X216100D01*
Y336100D02*Y332900D01*
X212900Y326100D02*X216100D01*
X212900D02*Y322900D01*
X216100D01*
Y326100D02*Y322900D01*
X212900Y316100D02*X216100D01*
X212900D02*Y312900D01*
X216100D01*
Y316100D02*Y312900D01*
X212900Y306100D02*X216100D01*
X212900D02*Y302900D01*
X216100D01*
Y306100D02*Y302900D01*
X212900Y296100D02*X216100D01*
X212900D02*Y292900D01*
X216100D01*
Y296100D02*Y292900D01*
X212900Y286100D02*X216100D01*
X212900D02*Y282900D01*
X216100D01*
Y286100D02*Y282900D01*
X212900Y276100D02*X216100D01*
X212900D02*Y272900D01*
X216100D01*
Y276100D02*Y272900D01*
X212900Y266100D02*X216100D01*
X212900D02*Y262900D01*
X216100D01*
Y266100D02*Y262900D01*
X212900Y256100D02*X216100D01*
X212900D02*Y252900D01*
X216100D01*
Y256100D02*Y252900D01*
X312900Y446100D02*X316100D01*
X312900D02*Y442900D01*
X316100D01*
Y446100D02*Y442900D01*
X312900Y436100D02*X316100D01*
X312900D02*Y432900D01*
X316100D01*
Y436100D02*Y432900D01*
X312900Y426100D02*X316100D01*
X312900D02*Y422900D01*
X316100D01*
Y426100D02*Y422900D01*
X312900Y416100D02*X316100D01*
X312900D02*Y412900D01*
X316100D01*
Y416100D02*Y412900D01*
X312900Y406100D02*X316100D01*
X312900D02*Y402900D01*
X316100D01*
Y406100D02*Y402900D01*
X312900Y396100D02*X316100D01*
X312900D02*Y392900D01*
X316100D01*
Y396100D02*Y392900D01*
X312900Y386100D02*X316100D01*
X312900D02*Y382900D01*
X316100D01*
Y386100D02*Y382900D01*
X312900Y376100D02*X316100D01*
X312900D02*Y372900D01*
X316100D01*
Y376100D02*Y372900D01*
X312900Y366100D02*X316100D01*
X312900D02*Y362900D01*
X316100D01*
Y366100D02*Y362900D01*
X312900Y356100D02*X316100D01*
X312900D02*Y352900D01*
X316100D01*
Y356100D02*Y352900D01*
X312900Y346100D02*X316100D01*
X312900D02*Y342900D01*
X316100D01*
Y346100D02*Y342900D01*
X312900Y336100D02*X316100D01*
X312900D02*Y332900D01*
X316100D01*
Y336100D02*Y332900D01*
X312900Y326100D02*X316100D01*
X312900D02*Y322900D01*
X316100D01*
Y326100D02*Y322900D01*
X312900Y316100D02*X316100D01*
X312900D02*Y312900D01*
X316100D01*
Y316100D02*Y312900D01*
X312900Y306100D02*X316100D01*
X312900D02*Y302900D01*
X316100D01*
Y306100D02*Y302900D01*
X312900Y296100D02*X316100D01*
X312900D02*Y292900D01*
X316100D01*
Y296100D02*Y292900D01*
X312900Y286100D02*X316100D01*
X312900D02*Y282900D01*
X316100D01*
Y286100D02*Y282900D01*
X312900Y276100D02*X316100D01*
X312900D02*Y272900D01*
X316100D01*
Y276100D02*Y272900D01*
X312900Y266100D02*X316100D01*
X312900D02*Y262900D01*
X316100D01*
Y266100D02*Y262900D01*
X312900Y256100D02*X316100D01*
X312900D02*Y252900D01*
X316100D01*
Y256100D02*Y252900D01*
X222900Y256100D02*X226100D01*
X222900D02*Y252900D01*
X226100D01*
Y256100D02*Y252900D01*
X232900Y256100D02*X236100D01*
X232900D02*Y252900D01*
X236100D01*
Y256100D02*Y252900D01*
X242900Y256100D02*X246100D01*
X242900D02*Y252900D01*
X246100D01*
Y256100D02*Y252900D01*
X252900Y256100D02*X256100D01*
X252900D02*Y252900D01*
X256100D01*
Y256100D02*Y252900D01*
X262900Y256100D02*X266100D01*
X262900D02*Y252900D01*
X266100D01*
Y256100D02*Y252900D01*
X272900Y256100D02*X276100D01*
X272900D02*Y252900D01*
X276100D01*
Y256100D02*Y252900D01*
X282900Y256100D02*X286100D01*
X282900D02*Y252900D01*
X286100D01*
Y256100D02*Y252900D01*
X292900Y256100D02*X296100D01*
X292900D02*Y252900D01*
X296100D01*
Y256100D02*Y252900D01*
X302900Y256100D02*X306100D01*
X302900D02*Y252900D01*
X306100D01*
Y256100D02*Y252900D01*
X222900Y346100D02*X226100D01*
X222900D02*Y342900D01*
X226100D01*
Y346100D02*Y342900D01*
X232900Y346100D02*X236100D01*
X232900D02*Y342900D01*
X236100D01*
Y346100D02*Y342900D01*
X242900Y346100D02*X246100D01*
X242900D02*Y342900D01*
X246100D01*
Y346100D02*Y342900D01*
X252900Y346100D02*X256100D01*
X252900D02*Y342900D01*
X256100D01*
Y346100D02*Y342900D01*
X262900Y346100D02*X266100D01*
X262900D02*Y342900D01*
X266100D01*
Y346100D02*Y342900D01*
X272900Y346100D02*X276100D01*
X272900D02*Y342900D01*
X276100D01*
Y346100D02*Y342900D01*
X282900Y346100D02*X286100D01*
X282900D02*Y342900D01*
X286100D01*
Y346100D02*Y342900D01*
X292900Y346100D02*X296100D01*
X292900D02*Y342900D01*
X296100D01*
Y346100D02*Y342900D01*
X302900Y346100D02*X306100D01*
X302900D02*Y342900D01*
X306100D01*
Y346100D02*Y342900D01*
X222900Y446100D02*X226100D01*
X222900D02*Y442900D01*
X226100D01*
Y446100D02*Y442900D01*
X232900Y446100D02*X236100D01*
X232900D02*Y442900D01*
X236100D01*
Y446100D02*Y442900D01*
X242900Y446100D02*X246100D01*
X242900D02*Y442900D01*
X246100D01*
Y446100D02*Y442900D01*
X252900Y446100D02*X256100D01*
X252900D02*Y442900D01*
X256100D01*
Y446100D02*Y442900D01*
X262900Y446100D02*X266100D01*
X262900D02*Y442900D01*
X266100D01*
Y446100D02*Y442900D01*
X272900Y446100D02*X276100D01*
X272900D02*Y442900D01*
X276100D01*
Y446100D02*Y442900D01*
X282900Y446100D02*X286100D01*
X282900D02*Y442900D01*
X286100D01*
Y446100D02*Y442900D01*
X292900Y446100D02*X296100D01*
X292900D02*Y442900D01*
X296100D01*
Y446100D02*Y442900D01*
X302900Y446100D02*X306100D01*
X302900D02*Y442900D01*
X306100D01*
Y446100D02*Y442900D01*
X13400Y542850D02*X16600D01*
X13400D02*Y539650D01*
X16600D01*
Y542850D02*Y539650D01*
X135000Y543500D02*Y542750D01*
X136500Y541250D01*
X138000Y542750D01*
Y543500D02*Y542750D01*
X136500Y541250D02*Y537500D01*
X139800Y540500D02*X142050D01*
X139800Y537500D02*X142800D01*
X139800Y543500D02*Y537500D01*
Y543500D02*X142800D01*
X147600D02*X148350Y542750D01*
X145350Y543500D02*X147600D01*
X144600Y542750D02*X145350Y543500D01*
X144600Y542750D02*Y541250D01*
X145350Y540500D01*
X147600D01*
X148350Y539750D01*
Y538250D01*
X147600Y537500D02*X148350Y538250D01*
X145350Y537500D02*X147600D01*
X144600Y538250D02*X145350Y537500D01*
X100250Y543500D02*X101000Y542750D01*
X98750Y543500D02*X100250D01*
X98000Y542750D02*X98750Y543500D01*
X98000Y542750D02*Y538250D01*
X98750Y537500D01*
X100250Y540500D02*X101000Y539750D01*
X98000Y540500D02*X100250D01*
X98750Y537500D02*X100250D01*
X101000Y538250D01*
Y539750D02*Y538250D01*
X102800Y537500D02*X106550Y541250D01*
Y543500D02*Y541250D01*
X102800Y543500D02*X106550D01*
X45000Y538250D02*X45750Y537500D01*
X45000Y542750D02*Y538250D01*
Y542750D02*X45750Y543500D01*
X47250D01*
X48000Y542750D01*
Y538250D01*
X47250Y537500D02*X48000Y538250D01*
X45750Y537500D02*X47250D01*
X45000Y539000D02*X48000Y542000D01*
X49800Y537500D02*X50550D01*
X52350Y538250D02*X53100Y537500D01*
X52350Y542750D02*Y538250D01*
Y542750D02*X53100Y543500D01*
X54600D01*
X55350Y542750D01*
Y538250D01*
X54600Y537500D02*X55350Y538250D01*
X53100Y537500D02*X54600D01*
X52350Y539000D02*X55350Y542000D01*
X57150Y542750D02*X57900Y543500D01*
X59400D01*
X60150Y542750D01*
Y538250D01*
X59400Y537500D02*X60150Y538250D01*
X57900Y537500D02*X59400D01*
X57150Y538250D02*X57900Y537500D01*
Y540500D02*X60150D01*
X61950Y538250D02*X62700Y537500D01*
X61950Y539750D02*Y538250D01*
Y539750D02*X62700Y540500D01*
X64200D01*
X64950Y539750D01*
Y538250D01*
X64200Y537500D02*X64950Y538250D01*
X62700Y537500D02*X64200D01*
X61950Y541250D02*X62700Y540500D01*
X61950Y542750D02*Y541250D01*
Y542750D02*X62700Y543500D01*
X64200D01*
X64950Y542750D01*
Y541250D01*
X64200Y540500D02*X64950Y541250D01*
X225200Y391000D02*G75*G03X226800Y391000I800J0D01*G01*
G75*G03X225200Y391000I-800J0D01*G01*
Y421000D02*G75*G03X226800Y421000I800J0D01*G01*
G75*G03X225200Y421000I-800J0D01*G01*
X262700Y355500D02*G75*G03X264300Y355500I800J0D01*G01*
G75*G03X262700Y355500I-800J0D01*G01*
X225950Y374250D02*G75*G03X227550Y374250I800J0D01*G01*
G75*G03X225950Y374250I-800J0D01*G01*
X303700Y366500D02*G75*G03X305300Y366500I800J0D01*G01*
G75*G03X303700Y366500I-800J0D01*G01*
X231700Y406000D02*G75*G03X233300Y406000I800J0D01*G01*
G75*G03X231700Y406000I-800J0D01*G01*
X295700Y381000D02*G75*G03X297300Y381000I800J0D01*G01*
G75*G03X295700Y381000I-800J0D01*G01*
X354183Y190583D02*G75*G03X355783Y190583I800J0D01*G01*
G75*G03X354183Y190583I-800J0D01*G01*
X382183Y213417D02*G75*G03X383783Y213417I800J0D01*G01*
G75*G03X382183Y213417I-800J0D01*G01*
X268100Y218000D02*G75*G03X269700Y218000I800J0D01*G01*
G75*G03X268100Y218000I-800J0D01*G01*
X298100Y182000D02*G75*G03X299700Y182000I800J0D01*G01*
G75*G03X298100Y182000I-800J0D01*G01*
X323600Y93500D02*G75*G03X325200Y93500I800J0D01*G01*
G75*G03X323600Y93500I-800J0D01*G01*
X324695Y112595D02*G75*G03X326295Y112595I800J0D01*G01*
G75*G03X324695Y112595I-800J0D01*G01*
X284600Y114500D02*G75*G03X286200Y114500I800J0D01*G01*
G75*G03X284600Y114500I-800J0D01*G01*
X306100Y120500D02*G75*G03X307700Y120500I800J0D01*G01*
G75*G03X306100Y120500I-800J0D01*G01*
X14200Y556250D02*G75*G03X15800Y556250I800J0D01*G01*
G75*G03X14200Y556250I-800J0D01*G01*
X135000Y558500D02*Y557750D01*
X136500Y556250D01*
X138000Y557750D01*
Y558500D02*Y557750D01*
X136500Y556250D02*Y552500D01*
X139800Y555500D02*X142050D01*
X139800Y552500D02*X142800D01*
X139800Y558500D02*Y552500D01*
Y558500D02*X142800D01*
X147600D02*X148350Y557750D01*
X145350Y558500D02*X147600D01*
X144600Y557750D02*X145350Y558500D01*
X144600Y557750D02*Y556250D01*
X145350Y555500D01*
X147600D01*
X148350Y554750D01*
Y553250D01*
X147600Y552500D02*X148350Y553250D01*
X145350Y552500D02*X147600D01*
X144600Y553250D02*X145350Y552500D01*
X98750D02*X100250D01*
X99500Y558500D02*Y552500D01*
X98000Y557000D02*X99500Y558500D01*
X102050D02*X105050D01*
X102050D02*Y555500D01*
X102800Y556250D01*
X104300D01*
X105050Y555500D01*
Y553250D01*
X104300Y552500D02*X105050Y553250D01*
X102800Y552500D02*X104300D01*
X102050Y553250D02*X102800Y552500D01*
X45000Y553250D02*X45750Y552500D01*
X45000Y557750D02*Y553250D01*
Y557750D02*X45750Y558500D01*
X47250D01*
X48000Y557750D01*
Y553250D01*
X47250Y552500D02*X48000Y553250D01*
X45750Y552500D02*X47250D01*
X45000Y554000D02*X48000Y557000D01*
X49800Y552500D02*X50550D01*
X52350Y553250D02*X53100Y552500D01*
X52350Y557750D02*Y553250D01*
Y557750D02*X53100Y558500D01*
X54600D01*
X55350Y557750D01*
Y553250D01*
X54600Y552500D02*X55350Y553250D01*
X53100Y552500D02*X54600D01*
X52350Y554000D02*X55350Y557000D01*
X57150Y557750D02*X57900Y558500D01*
X59400D01*
X60150Y557750D01*
Y553250D01*
X59400Y552500D02*X60150Y553250D01*
X57900Y552500D02*X59400D01*
X57150Y553250D02*X57900Y552500D01*
Y555500D02*X60150D01*
X61950Y558500D02*X64950D01*
X61950D02*Y555500D01*
X62700Y556250D01*
X64200D01*
X64950Y555500D01*
Y553250D01*
X64200Y552500D02*X64950Y553250D01*
X62700Y552500D02*X64200D01*
X61950Y553250D02*X62700Y552500D01*
X258200Y200700D02*X260600Y198300D01*
X258200D02*X260600Y200700D01*
X258200Y210700D02*X260600Y208300D01*
X258200D02*X260600Y210700D01*
X258200Y100700D02*X260600Y98300D01*
X258200D02*X260600Y100700D01*
X258200Y110700D02*X260600Y108300D01*
X258200D02*X260600Y110700D01*
X13800Y572450D02*X16200Y570050D01*
X13800D02*X16200Y572450D01*
X135000Y573500D02*Y572750D01*
X136500Y571250D01*
X138000Y572750D01*
Y573500D02*Y572750D01*
X136500Y571250D02*Y567500D01*
X139800Y570500D02*X142050D01*
X139800Y567500D02*X142800D01*
X139800Y573500D02*Y567500D01*
Y573500D02*X142800D01*
X147600D02*X148350Y572750D01*
X145350Y573500D02*X147600D01*
X144600Y572750D02*X145350Y573500D01*
X144600Y572750D02*Y571250D01*
X145350Y570500D01*
X147600D01*
X148350Y569750D01*
Y568250D01*
X147600Y567500D02*X148350Y568250D01*
X145350Y567500D02*X147600D01*
X144600Y568250D02*X145350Y567500D01*
X98000Y570500D02*X101000Y573500D01*
X98000Y570500D02*X101750D01*
X101000Y573500D02*Y567500D01*
X45000Y568250D02*X45750Y567500D01*
X45000Y572750D02*Y568250D01*
Y572750D02*X45750Y573500D01*
X47250D01*
X48000Y572750D01*
Y568250D01*
X47250Y567500D02*X48000Y568250D01*
X45750Y567500D02*X47250D01*
X45000Y569000D02*X48000Y572000D01*
X49800Y567500D02*X50550D01*
X52350Y568250D02*X53100Y567500D01*
X52350Y572750D02*Y568250D01*
Y572750D02*X53100Y573500D01*
X54600D01*
X55350Y572750D01*
Y568250D01*
X54600Y567500D02*X55350Y568250D01*
X53100Y567500D02*X54600D01*
X52350Y569000D02*X55350Y572000D01*
X57150Y572750D02*X57900Y573500D01*
X59400D01*
X60150Y572750D01*
Y568250D01*
X59400Y567500D02*X60150Y568250D01*
X57900Y567500D02*X59400D01*
X57150Y568250D02*X57900Y567500D01*
Y570500D02*X60150D01*
X61950Y572750D02*X62700Y573500D01*
X64950D01*
X65700Y572750D01*
Y571250D01*
X61950Y567500D02*X65700Y571250D01*
X61950Y567500D02*X65700D01*
X261000Y319600D02*Y316400D01*
X259400Y318000D02*X262600D01*
X281000Y319600D02*Y316400D01*
X279400Y318000D02*X282600D01*
X271000Y309600D02*Y306400D01*
X269400Y308000D02*X272600D01*
X261000Y419600D02*Y416400D01*
X259400Y418000D02*X262600D01*
X281000Y419600D02*Y416400D01*
X279400Y418000D02*X282600D01*
X271000Y409600D02*Y406400D01*
X269400Y408000D02*X272600D01*
X15000Y587850D02*Y584650D01*
X13400Y586250D02*X16600D01*
X135000Y588500D02*Y587750D01*
X136500Y586250D01*
X138000Y587750D01*
Y588500D02*Y587750D01*
X136500Y586250D02*Y582500D01*
X139800Y585500D02*X142050D01*
X139800Y582500D02*X142800D01*
X139800Y588500D02*Y582500D01*
Y588500D02*X142800D01*
X147600D02*X148350Y587750D01*
X145350Y588500D02*X147600D01*
X144600Y587750D02*X145350Y588500D01*
X144600Y587750D02*Y586250D01*
X145350Y585500D01*
X147600D01*
X148350Y584750D01*
Y583250D01*
X147600Y582500D02*X148350Y583250D01*
X145350Y582500D02*X147600D01*
X144600Y583250D02*X145350Y582500D01*
X100250Y588500D02*X101000Y587750D01*
X98750Y588500D02*X100250D01*
X98000Y587750D02*X98750Y588500D01*
X98000Y587750D02*Y583250D01*
X98750Y582500D01*
X100250Y585500D02*X101000Y584750D01*
X98000Y585500D02*X100250D01*
X98750Y582500D02*X100250D01*
X101000Y583250D01*
Y584750D02*Y583250D01*
X45000D02*X45750Y582500D01*
X45000Y587750D02*Y583250D01*
Y587750D02*X45750Y588500D01*
X47250D01*
X48000Y587750D01*
Y583250D01*
X47250Y582500D02*X48000Y583250D01*
X45750Y582500D02*X47250D01*
X45000Y584000D02*X48000Y587000D01*
X49800Y582500D02*X50550D01*
X52350Y583250D02*X53100Y582500D01*
X52350Y587750D02*Y583250D01*
Y587750D02*X53100Y588500D01*
X54600D01*
X55350Y587750D01*
Y583250D01*
X54600Y582500D02*X55350Y583250D01*
X53100Y582500D02*X54600D01*
X52350Y584000D02*X55350Y587000D01*
X57150Y587750D02*X57900Y588500D01*
X60150D01*
X60900Y587750D01*
Y586250D01*
X57150Y582500D02*X60900Y586250D01*
X57150Y582500D02*X60900D01*
X62700Y587750D02*X63450Y588500D01*
X64950D01*
X65700Y587750D01*
Y583250D01*
X64950Y582500D02*X65700Y583250D01*
X63450Y582500D02*X64950D01*
X62700Y583250D02*X63450Y582500D01*
Y585500D02*X65700D01*
X268000Y390500D02*Y388900D01*
Y390500D02*X269387Y391300D01*
X268000Y390500D02*X266613Y391300D01*
X264000Y390500D02*Y388900D01*
Y390500D02*X265387Y391300D01*
X264000Y390500D02*X262613Y391300D01*
X260000Y390500D02*Y388900D01*
Y390500D02*X261387Y391300D01*
X260000Y390500D02*X258613Y391300D01*
X260000Y386500D02*Y384900D01*
Y386500D02*X261387Y387300D01*
X260000Y386500D02*X258613Y387300D01*
X264000Y386500D02*Y384900D01*
Y386500D02*X265387Y387300D01*
X264000Y386500D02*X262613Y387300D01*
X268000Y386500D02*Y384900D01*
Y386500D02*X269387Y387300D01*
X268000Y386500D02*X266613Y387300D01*
X268000Y382500D02*Y380900D01*
Y382500D02*X269387Y383300D01*
X268000Y382500D02*X266613Y383300D01*
X264000Y382500D02*Y380900D01*
Y382500D02*X265387Y383300D01*
X264000Y382500D02*X262613Y383300D01*
X260000Y382500D02*Y380900D01*
Y382500D02*X261387Y383300D01*
X260000Y382500D02*X258613Y383300D01*
X260000Y378500D02*Y376900D01*
Y378500D02*X261387Y379300D01*
X260000Y378500D02*X258613Y379300D01*
X264000Y378500D02*Y376900D01*
Y378500D02*X265387Y379300D01*
X264000Y378500D02*X262613Y379300D01*
X268000Y378500D02*Y376900D01*
Y378500D02*X269387Y379300D01*
X268000Y378500D02*X266613Y379300D01*
X268000Y374500D02*Y372900D01*
Y374500D02*X269387Y375300D01*
X268000Y374500D02*X266613Y375300D01*
X264000Y374500D02*Y372900D01*
Y374500D02*X265387Y375300D01*
X264000Y374500D02*X262613Y375300D01*
X260000Y374500D02*Y372900D01*
Y374500D02*X261387Y375300D01*
X260000Y374500D02*X258613Y375300D01*
X276000Y278000D02*Y276400D01*
Y278000D02*X277387Y278800D01*
X276000Y278000D02*X274613Y278800D01*
X243000Y274000D02*Y272400D01*
Y274000D02*X244387Y274800D01*
X243000Y274000D02*X241613Y274800D01*
X243000Y277500D02*Y275900D01*
Y277500D02*X244387Y278300D01*
X243000Y277500D02*X241613Y278300D01*
X276000Y273500D02*Y271900D01*
Y273500D02*X277387Y274300D01*
X276000Y273500D02*X274613Y274300D01*
X269500Y286000D02*Y284400D01*
Y286000D02*X270887Y286800D01*
X269500Y286000D02*X268113Y286800D01*
X362900Y173000D02*Y171400D01*
Y173000D02*X364287Y173800D01*
X362900Y173000D02*X361513Y173800D01*
X389400Y173000D02*Y171400D01*
Y173000D02*X390787Y173800D01*
X389400Y173000D02*X388013Y173800D01*
X288900Y193250D02*Y191650D01*
Y193250D02*X290287Y194050D01*
X288900Y193250D02*X287513Y194050D01*
X293900Y213750D02*Y212150D01*
Y213750D02*X295287Y214550D01*
X293900Y213750D02*X292513Y214550D01*
X104200Y209500D02*Y207900D01*
Y209500D02*X105587Y210300D01*
X104200Y209500D02*X102813Y210300D01*
X136405Y209500D02*Y207900D01*
Y209500D02*X137791Y210300D01*
X136405Y209500D02*X135018Y210300D01*
X104200Y109500D02*Y107900D01*
Y109500D02*X105587Y110300D01*
X104200Y109500D02*X102813Y110300D01*
X136405Y109500D02*Y107900D01*
Y109500D02*X137791Y110300D01*
X136405Y109500D02*X135018Y110300D01*
X445795Y141000D02*Y139400D01*
Y141000D02*X447182Y141800D01*
X445795Y141000D02*X444409Y141800D01*
X478000Y141000D02*Y139400D01*
Y141000D02*X479387Y141800D01*
X478000Y141000D02*X476613Y141800D01*
X271000Y418000D02*Y416400D01*
Y418000D02*X272387Y418800D01*
X271000Y418000D02*X269613Y418800D01*
X271000Y318000D02*Y316400D01*
Y318000D02*X272387Y318800D01*
X271000Y318000D02*X269613Y318800D01*
X124400Y469400D02*Y467800D01*
Y469400D02*X125787Y470200D01*
X124400Y469400D02*X123013Y470200D01*
X130900Y318000D02*Y316400D01*
Y318000D02*X132287Y318800D01*
X130900Y318000D02*X129513Y318800D01*
X130900Y418000D02*Y416400D01*
Y418000D02*X132287Y418800D01*
X130900Y418000D02*X129513Y418800D01*
X68900Y450000D02*Y448400D01*
Y450000D02*X70287Y450800D01*
X68900Y450000D02*X67513Y450800D01*
X68900Y249000D02*Y247400D01*
Y249000D02*X70287Y249800D01*
X68900Y249000D02*X67513Y249800D01*
X179900Y249000D02*Y247400D01*
Y249000D02*X181287Y249800D01*
X179900Y249000D02*X178513Y249800D01*
X179900Y450000D02*Y448400D01*
Y450000D02*X181287Y450800D01*
X179900Y450000D02*X178513Y450800D01*
X82090Y55940D02*Y54340D01*
Y55940D02*X83477Y56740D01*
X82090Y55940D02*X80703Y56740D01*
X15000Y601250D02*Y599650D01*
Y601250D02*X16387Y602050D01*
X15000Y601250D02*X13613Y602050D01*
X135000Y603500D02*Y602750D01*
X136500Y601250D01*
X138000Y602750D01*
Y603500D02*Y602750D01*
X136500Y601250D02*Y597500D01*
X139800Y600500D02*X142050D01*
X139800Y597500D02*X142800D01*
X139800Y603500D02*Y597500D01*
Y603500D02*X142800D01*
X147600D02*X148350Y602750D01*
X145350Y603500D02*X147600D01*
X144600Y602750D02*X145350Y603500D01*
X144600Y602750D02*Y601250D01*
X145350Y600500D01*
X147600D01*
X148350Y599750D01*
Y598250D01*
X147600Y597500D02*X148350Y598250D01*
X145350Y597500D02*X147600D01*
X144600Y598250D02*X145350Y597500D01*
X98000Y600500D02*X101000Y603500D01*
X98000Y600500D02*X101750D01*
X101000Y603500D02*Y597500D01*
X103550Y598250D02*X104300Y597500D01*
X103550Y602750D02*Y598250D01*
Y602750D02*X104300Y603500D01*
X105800D01*
X106550Y602750D01*
Y598250D01*
X105800Y597500D02*X106550Y598250D01*
X104300Y597500D02*X105800D01*
X103550Y599000D02*X106550Y602000D01*
X45000Y598250D02*X45750Y597500D01*
X45000Y602750D02*Y598250D01*
Y602750D02*X45750Y603500D01*
X47250D01*
X48000Y602750D01*
Y598250D01*
X47250Y597500D02*X48000Y598250D01*
X45750Y597500D02*X47250D01*
X45000Y599000D02*X48000Y602000D01*
X49800Y597500D02*X50550D01*
X52350Y598250D02*X53100Y597500D01*
X52350Y602750D02*Y598250D01*
Y602750D02*X53100Y603500D01*
X54600D01*
X55350Y602750D01*
Y598250D01*
X54600Y597500D02*X55350Y598250D01*
X53100Y597500D02*X54600D01*
X52350Y599000D02*X55350Y602000D01*
X57150Y602750D02*X57900Y603500D01*
X60150D01*
X60900Y602750D01*
Y601250D01*
X57150Y597500D02*X60900Y601250D01*
X57150Y597500D02*X60900D01*
X62700Y598250D02*X63450Y597500D01*
X62700Y602750D02*Y598250D01*
Y602750D02*X63450Y603500D01*
X64950D01*
X65700Y602750D01*
Y598250D01*
X64950Y597500D02*X65700Y598250D01*
X63450Y597500D02*X64950D01*
X62700Y599000D02*X65700Y602000D01*
X3000Y618500D02*X3750Y617750D01*
X750Y618500D02*X3000D01*
X0Y617750D02*X750Y618500D01*
X0Y617750D02*Y616250D01*
X750Y615500D01*
X3000D01*
X3750Y614750D01*
Y613250D01*
X3000Y612500D02*X3750Y613250D01*
X750Y612500D02*X3000D01*
X0Y613250D02*X750Y612500D01*
X5550Y615500D02*Y613250D01*
X6300Y612500D01*
X8550Y615500D02*Y611000D01*
X7800Y610250D02*X8550Y611000D01*
X6300Y610250D02*X7800D01*
X5550Y611000D02*X6300Y610250D01*
Y612500D02*X7800D01*
X8550Y613250D01*
X11100Y614750D02*Y612500D01*
Y614750D02*X11850Y615500D01*
X12600D01*
X13350Y614750D01*
Y612500D01*
Y614750D02*X14100Y615500D01*
X14850D01*
X15600Y614750D01*
Y612500D01*
X10350Y615500D02*X11100Y614750D01*
X17400Y618500D02*Y612500D01*
Y613250D02*X18150Y612500D01*
X19650D01*
X20400Y613250D01*
Y614750D02*Y613250D01*
X19650Y615500D02*X20400Y614750D01*
X18150Y615500D02*X19650D01*
X17400Y614750D02*X18150Y615500D01*
X22200Y614750D02*Y613250D01*
Y614750D02*X22950Y615500D01*
X24450D01*
X25200Y614750D01*
Y613250D01*
X24450Y612500D02*X25200Y613250D01*
X22950Y612500D02*X24450D01*
X22200Y613250D02*X22950Y612500D01*
X27000Y618500D02*Y613250D01*
X27750Y612500D01*
X0Y609250D02*X29250D01*
X41750Y618500D02*Y612500D01*
X44000Y618500D02*X44750Y617750D01*
Y613250D01*
X44000Y612500D02*X44750Y613250D01*
X41000Y612500D02*X44000D01*
X41000Y618500D02*X44000D01*
X46550Y617000D02*Y616250D01*
Y614750D02*Y612500D01*
X50300Y615500D02*X51050Y614750D01*
X48800Y615500D02*X50300D01*
X48050Y614750D02*X48800Y615500D01*
X48050Y614750D02*Y613250D01*
X48800Y612500D01*
X51050Y615500D02*Y613250D01*
X51800Y612500D01*
X48800D02*X50300D01*
X51050Y613250D01*
X54350Y614750D02*Y612500D01*
Y614750D02*X55100Y615500D01*
X55850D01*
X56600Y614750D01*
Y612500D01*
Y614750D02*X57350Y615500D01*
X58100D01*
X58850Y614750D01*
Y612500D01*
X53600Y615500D02*X54350Y614750D01*
X60650Y612500D02*X61400D01*
X65900Y613250D02*X66650Y612500D01*
X65900Y617750D02*X66650Y618500D01*
X65900Y617750D02*Y613250D01*
X68450Y618500D02*X69950D01*
X69200D02*Y612500D01*
X68450D02*X69950D01*
X72500Y614750D02*Y612500D01*
Y614750D02*X73250Y615500D01*
X74000D01*
X74750Y614750D01*
Y612500D01*
X71750Y615500D02*X72500Y614750D01*
X77300Y615500D02*X79550D01*
X76550Y614750D02*X77300Y615500D01*
X76550Y614750D02*Y613250D01*
X77300Y612500D01*
X79550D01*
X81350Y618500D02*Y612500D01*
Y614750D02*X82100Y615500D01*
X83600D01*
X84350Y614750D01*
Y612500D01*
X86150Y618500D02*X86900Y617750D01*
Y613250D01*
X86150Y612500D02*X86900Y613250D01*
X41000Y609250D02*X88700D01*
X95750Y612500D02*X98000D01*
X95000Y613250D02*X95750Y612500D01*
X95000Y617750D02*Y613250D01*
Y617750D02*X95750Y618500D01*
X98000D01*
X99800Y614750D02*Y613250D01*
Y614750D02*X100550Y615500D01*
X102050D01*
X102800Y614750D01*
Y613250D01*
X102050Y612500D02*X102800Y613250D01*
X100550Y612500D02*X102050D01*
X99800Y613250D02*X100550Y612500D01*
X104600Y615500D02*Y613250D01*
X105350Y612500D01*
X106850D01*
X107600Y613250D01*
Y615500D02*Y613250D01*
X110150Y614750D02*Y612500D01*
Y614750D02*X110900Y615500D01*
X111650D01*
X112400Y614750D01*
Y612500D01*
X109400Y615500D02*X110150Y614750D01*
X114950Y618500D02*Y613250D01*
X115700Y612500D01*
X114200Y616250D02*X115700D01*
X95000Y609250D02*X117200D01*
X130750Y618500D02*Y612500D01*
X130000Y618500D02*X133000D01*
X133750Y617750D01*
Y616250D01*
X133000Y615500D02*X133750Y616250D01*
X130750Y615500D02*X133000D01*
X135550Y618500D02*Y613250D01*
X136300Y612500D01*
X140050Y615500D02*X140800Y614750D01*
X138550Y615500D02*X140050D01*
X137800Y614750D02*X138550Y615500D01*
X137800Y614750D02*Y613250D01*
X138550Y612500D01*
X140800Y615500D02*Y613250D01*
X141550Y612500D01*
X138550D02*X140050D01*
X140800Y613250D01*
X144100Y618500D02*Y613250D01*
X144850Y612500D01*
X143350Y616250D02*X144850D01*
X147100Y612500D02*X149350D01*
X146350Y613250D02*X147100Y612500D01*
X146350Y614750D02*Y613250D01*
Y614750D02*X147100Y615500D01*
X148600D01*
X149350Y614750D01*
X146350Y614000D02*X149350D01*
Y614750D02*Y614000D01*
X154150Y618500D02*Y612500D01*
X153400D02*X154150Y613250D01*
X151900Y612500D02*X153400D01*
X151150Y613250D02*X151900Y612500D01*
X151150Y614750D02*Y613250D01*
Y614750D02*X151900Y615500D01*
X153400D01*
X154150Y614750D01*
X157450Y615500D02*Y614750D01*
Y613250D02*Y612500D01*
X155950Y617750D02*Y617000D01*
Y617750D02*X156700Y618500D01*
X158200D01*
X158950Y617750D01*
Y617000D01*
X157450Y615500D02*X158950Y617000D01*
X130000Y609250D02*X160750D01*
X0Y633500D02*X3000D01*
X1500D02*Y627500D01*
X4800Y633500D02*Y627500D01*
Y629750D02*X5550Y630500D01*
X7050D01*
X7800Y629750D01*
Y627500D01*
X10350D02*X12600D01*
X9600Y628250D02*X10350Y627500D01*
X9600Y629750D02*Y628250D01*
Y629750D02*X10350Y630500D01*
X11850D01*
X12600Y629750D01*
X9600Y629000D02*X12600D01*
Y629750D02*Y629000D01*
X15150Y629750D02*Y627500D01*
Y629750D02*X15900Y630500D01*
X17400D01*
X14400D02*X15150Y629750D01*
X19950Y627500D02*X22200D01*
X19200Y628250D02*X19950Y627500D01*
X19200Y629750D02*Y628250D01*
Y629750D02*X19950Y630500D01*
X21450D01*
X22200Y629750D01*
X19200Y629000D02*X22200D01*
Y629750D02*Y629000D01*
X28950Y630500D02*X29700Y629750D01*
X27450Y630500D02*X28950D01*
X26700Y629750D02*X27450Y630500D01*
X26700Y629750D02*Y628250D01*
X27450Y627500D01*
X29700Y630500D02*Y628250D01*
X30450Y627500D01*
X27450D02*X28950D01*
X29700Y628250D01*
X33000Y629750D02*Y627500D01*
Y629750D02*X33750Y630500D01*
X35250D01*
X32250D02*X33000Y629750D01*
X37800Y627500D02*X40050D01*
X37050Y628250D02*X37800Y627500D01*
X37050Y629750D02*Y628250D01*
Y629750D02*X37800Y630500D01*
X39300D01*
X40050Y629750D01*
X37050Y629000D02*X40050D01*
Y629750D02*Y629000D01*
X44550Y627500D02*X48300Y631250D01*
Y633500D02*Y631250D01*
X44550Y633500D02*X48300D01*
X55800D02*Y627500D01*
X55050D02*X55800Y628250D01*
X53550Y627500D02*X55050D01*
X52800Y628250D02*X53550Y627500D01*
X52800Y629750D02*Y628250D01*
Y629750D02*X53550Y630500D01*
X55050D01*
X55800Y629750D01*
X57600Y632000D02*Y631250D01*
Y629750D02*Y627500D01*
X59850Y632750D02*Y627500D01*
Y632750D02*X60600Y633500D01*
X61350D01*
X59100Y630500D02*X60600D01*
X63600Y632750D02*Y627500D01*
Y632750D02*X64350Y633500D01*
X65100D01*
X62850Y630500D02*X64350D01*
X67350Y627500D02*X69600D01*
X66600Y628250D02*X67350Y627500D01*
X66600Y629750D02*Y628250D01*
Y629750D02*X67350Y630500D01*
X68850D01*
X69600Y629750D01*
X66600Y629000D02*X69600D01*
Y629750D02*Y629000D01*
X72150Y629750D02*Y627500D01*
Y629750D02*X72900Y630500D01*
X74400D01*
X71400D02*X72150Y629750D01*
X76950Y627500D02*X79200D01*
X76200Y628250D02*X76950Y627500D01*
X76200Y629750D02*Y628250D01*
Y629750D02*X76950Y630500D01*
X78450D01*
X79200Y629750D01*
X76200Y629000D02*X79200D01*
Y629750D02*Y629000D01*
X81750Y629750D02*Y627500D01*
Y629750D02*X82500Y630500D01*
X83250D01*
X84000Y629750D01*
Y627500D01*
X81000Y630500D02*X81750Y629750D01*
X86550Y633500D02*Y628250D01*
X87300Y627500D01*
X85800Y631250D02*X87300D01*
X94500Y633500D02*Y627500D01*
X93750D02*X94500Y628250D01*
X92250Y627500D02*X93750D01*
X91500Y628250D02*X92250Y627500D01*
X91500Y629750D02*Y628250D01*
Y629750D02*X92250Y630500D01*
X93750D01*
X94500Y629750D01*
X97050D02*Y627500D01*
Y629750D02*X97800Y630500D01*
X99300D01*
X96300D02*X97050Y629750D01*
X101100Y632000D02*Y631250D01*
Y629750D02*Y627500D01*
X102600Y633500D02*Y628250D01*
X103350Y627500D01*
X104850Y633500D02*Y628250D01*
X105600Y627500D01*
X110550D02*X112800D01*
X113550Y628250D01*
X112800Y629000D02*X113550Y628250D01*
X110550Y629000D02*X112800D01*
X109800Y629750D02*X110550Y629000D01*
X109800Y629750D02*X110550Y630500D01*
X112800D01*
X113550Y629750D01*
X109800Y628250D02*X110550Y627500D01*
X115350Y632000D02*Y631250D01*
Y629750D02*Y627500D01*
X116850Y630500D02*X119850D01*
X116850Y627500D02*X119850Y630500D01*
X116850Y627500D02*X119850D01*
X122400D02*X124650D01*
X121650Y628250D02*X122400Y627500D01*
X121650Y629750D02*Y628250D01*
Y629750D02*X122400Y630500D01*
X123900D01*
X124650Y629750D01*
X121650Y629000D02*X124650D01*
Y629750D02*Y629000D01*
X127200Y627500D02*X129450D01*
X130200Y628250D01*
X129450Y629000D02*X130200Y628250D01*
X127200Y629000D02*X129450D01*
X126450Y629750D02*X127200Y629000D01*
X126450Y629750D02*X127200Y630500D01*
X129450D01*
X130200Y629750D01*
X126450Y628250D02*X127200Y627500D01*
X134700Y630500D02*Y628250D01*
X135450Y627500D01*
X136950D01*
X137700Y628250D01*
Y630500D02*Y628250D01*
X140250Y627500D02*X142500D01*
X143250Y628250D01*
X142500Y629000D02*X143250Y628250D01*
X140250Y629000D02*X142500D01*
X139500Y629750D02*X140250Y629000D01*
X139500Y629750D02*X140250Y630500D01*
X142500D01*
X143250Y629750D01*
X139500Y628250D02*X140250Y627500D01*
X145800D02*X148050D01*
X145050Y628250D02*X145800Y627500D01*
X145050Y629750D02*Y628250D01*
Y629750D02*X145800Y630500D01*
X147300D01*
X148050Y629750D01*
X145050Y629000D02*X148050D01*
Y629750D02*Y629000D01*
X152850Y633500D02*Y627500D01*
X152100D02*X152850Y628250D01*
X150600Y627500D02*X152100D01*
X149850Y628250D02*X150600Y627500D01*
X149850Y629750D02*Y628250D01*
Y629750D02*X150600Y630500D01*
X152100D01*
X152850Y629750D01*
X157350Y632000D02*Y631250D01*
Y629750D02*Y627500D01*
X159600Y629750D02*Y627500D01*
Y629750D02*X160350Y630500D01*
X161100D01*
X161850Y629750D01*
Y627500D01*
X158850Y630500D02*X159600Y629750D01*
X167100Y633500D02*Y628250D01*
X167850Y627500D01*
X166350Y631250D02*X167850D01*
X169350Y633500D02*Y627500D01*
Y629750D02*X170100Y630500D01*
X171600D01*
X172350Y629750D01*
Y627500D01*
X174150Y632000D02*Y631250D01*
Y629750D02*Y627500D01*
X176400D02*X178650D01*
X179400Y628250D01*
X178650Y629000D02*X179400Y628250D01*
X176400Y629000D02*X178650D01*
X175650Y629750D02*X176400Y629000D01*
X175650Y629750D02*X176400Y630500D01*
X178650D01*
X179400Y629750D01*
X175650Y628250D02*X176400Y627500D01*
X183900Y633500D02*Y628250D01*
X184650Y627500D01*
X188400Y630500D02*X189150Y629750D01*
X186900Y630500D02*X188400D01*
X186150Y629750D02*X186900Y630500D01*
X186150Y629750D02*Y628250D01*
X186900Y627500D01*
X189150Y630500D02*Y628250D01*
X189900Y627500D01*
X186900D02*X188400D01*
X189150Y628250D01*
X191700Y630500D02*Y628250D01*
X192450Y627500D01*
X194700Y630500D02*Y626000D01*
X193950Y625250D02*X194700Y626000D01*
X192450Y625250D02*X193950D01*
X191700Y626000D02*X192450Y625250D01*
Y627500D02*X193950D01*
X194700Y628250D01*
X196500Y629750D02*Y628250D01*
Y629750D02*X197250Y630500D01*
X198750D01*
X199500Y629750D01*
Y628250D01*
X198750Y627500D02*X199500Y628250D01*
X197250Y627500D02*X198750D01*
X196500Y628250D02*X197250Y627500D01*
X201300Y630500D02*Y628250D01*
X202050Y627500D01*
X203550D01*
X204300Y628250D01*
Y630500D02*Y628250D01*
X206850Y633500D02*Y628250D01*
X207600Y627500D01*
X206100Y631250D02*X207600D01*
X209100Y626000D02*X210600Y627500D01*
X215850D02*X217350D01*
X216600Y633500D02*Y627500D01*
X215100Y632000D02*X216600Y633500D01*
X219150Y630500D02*X222150Y633500D01*
X219150Y630500D02*X222900D01*
X222150Y633500D02*Y627500D01*
X224700Y633500D02*X227700D01*
X224700D02*Y630500D01*
X225450Y631250D01*
X226950D01*
X227700Y630500D01*
Y628250D01*
X226950Y627500D02*X227700Y628250D01*
X225450Y627500D02*X226950D01*
X224700Y628250D02*X225450Y627500D01*
X232200Y633500D02*Y627500D01*
Y629750D02*X232950Y630500D01*
X234450D01*
X235200Y629750D01*
Y627500D01*
X237000Y629750D02*Y628250D01*
Y629750D02*X237750Y630500D01*
X239250D01*
X240000Y629750D01*
Y628250D01*
X239250Y627500D02*X240000Y628250D01*
X237750Y627500D02*X239250D01*
X237000Y628250D02*X237750Y627500D01*
X241800Y633500D02*Y628250D01*
X242550Y627500D01*
X244800D02*X247050D01*
X244050Y628250D02*X244800Y627500D01*
X244050Y629750D02*Y628250D01*
Y629750D02*X244800Y630500D01*
X246300D01*
X247050Y629750D01*
X244050Y629000D02*X247050D01*
Y629750D02*Y629000D01*
X249600Y627500D02*X251850D01*
X252600Y628250D01*
X251850Y629000D02*X252600Y628250D01*
X249600Y629000D02*X251850D01*
X248850Y629750D02*X249600Y629000D01*
X248850Y629750D02*X249600Y630500D01*
X251850D01*
X252600Y629750D01*
X248850Y628250D02*X249600Y627500D01*
X257850Y633500D02*Y628250D01*
X258600Y627500D01*
X257100Y631250D02*X258600D01*
X260100Y629750D02*Y628250D01*
Y629750D02*X260850Y630500D01*
X262350D01*
X263100Y629750D01*
Y628250D01*
X262350Y627500D02*X263100Y628250D01*
X260850Y627500D02*X262350D01*
X260100Y628250D02*X260850Y627500D01*
X265650Y633500D02*Y628250D01*
X266400Y627500D01*
X264900Y631250D02*X266400D01*
X270150Y630500D02*X270900Y629750D01*
X268650Y630500D02*X270150D01*
X267900Y629750D02*X268650Y630500D01*
X267900Y629750D02*Y628250D01*
X268650Y627500D01*
X270900Y630500D02*Y628250D01*
X271650Y627500D01*
X268650D02*X270150D01*
X270900Y628250D01*
X273450Y633500D02*Y628250D01*
X274200Y627500D01*
G54D96*X209000Y450000D02*X320000D01*
Y249000D01*
X209000D01*
Y450000D01*
X208900Y239000D02*X402400D01*
X413900Y227500D02*Y91500D01*
X402400Y80000D02*X208900D01*
Y239000D01*
X68900Y450000D02*X179900D01*
Y249000D01*
X68900D01*
Y450000D01*
X402400Y239000D02*G75*G02X413900Y227500I0J-11500D01*G01*
Y91500D02*G75*G02X402400Y80000I-11500J0D01*G01*
G54D95*X176175Y-9500D02*X179175D01*
X179925Y-8750D01*
Y-7250D02*Y-8750D01*
X179175Y-6500D02*X179925Y-7250D01*
X176925Y-6500D02*X179175D01*
X176925Y-3500D02*Y-9500D01*
X176175Y-3500D02*X179175D01*
X179925Y-4250D01*
Y-5750D01*
X179175Y-6500D02*X179925Y-5750D01*
X181725Y-7250D02*Y-8750D01*
Y-7250D02*X182475Y-6500D01*
X183975D01*
X184725Y-7250D01*
Y-8750D01*
X183975Y-9500D02*X184725Y-8750D01*
X182475Y-9500D02*X183975D01*
X181725Y-8750D02*X182475Y-9500D01*
X188775Y-6500D02*X189525Y-7250D01*
X187275Y-6500D02*X188775D01*
X186525Y-7250D02*X187275Y-6500D01*
X186525Y-7250D02*Y-8750D01*
X187275Y-9500D01*
X189525Y-6500D02*Y-8750D01*
X190275Y-9500D01*
X187275D02*X188775D01*
X189525Y-8750D01*
X192825Y-7250D02*Y-9500D01*
Y-7250D02*X193575Y-6500D01*
X195075D01*
X192075D02*X192825Y-7250D01*
X199875Y-3500D02*Y-9500D01*
X199125D02*X199875Y-8750D01*
X197625Y-9500D02*X199125D01*
X196875Y-8750D02*X197625Y-9500D01*
X196875Y-7250D02*Y-8750D01*
Y-7250D02*X197625Y-6500D01*
X199125D01*
X199875Y-7250D01*
X204375D02*Y-8750D01*
Y-7250D02*X205125Y-6500D01*
X206625D01*
X207375Y-7250D01*
Y-8750D01*
X206625Y-9500D02*X207375Y-8750D01*
X205125Y-9500D02*X206625D01*
X204375Y-8750D02*X205125Y-9500D01*
X209175Y-6500D02*Y-8750D01*
X209925Y-9500D01*
X211425D01*
X212175Y-8750D01*
Y-6500D02*Y-8750D01*
X214725Y-3500D02*Y-8750D01*
X215475Y-9500D01*
X213975Y-5750D02*X215475D01*
X216975Y-3500D02*Y-8750D01*
X217725Y-9500D01*
X219225Y-5000D02*Y-5750D01*
Y-7250D02*Y-9500D01*
X221475Y-7250D02*Y-9500D01*
Y-7250D02*X222225Y-6500D01*
X222975D01*
X223725Y-7250D01*
Y-9500D01*
X220725Y-6500D02*X221475Y-7250D01*
X226275Y-9500D02*X228525D01*
X225525Y-8750D02*X226275Y-9500D01*
X225525Y-7250D02*Y-8750D01*
Y-7250D02*X226275Y-6500D01*
X227775D01*
X228525Y-7250D01*
X225525Y-8000D02*X228525D01*
Y-7250D02*Y-8000D01*
X233025Y-5000D02*Y-5750D01*
Y-7250D02*Y-9500D01*
X235275D02*X237525D01*
X238275Y-8750D01*
X237525Y-8000D02*X238275Y-8750D01*
X235275Y-8000D02*X237525D01*
X234525Y-7250D02*X235275Y-8000D01*
X234525Y-7250D02*X235275Y-6500D01*
X237525D01*
X238275Y-7250D01*
X234525Y-8750D02*X235275Y-9500D01*
X243525Y-3500D02*Y-8750D01*
X244275Y-9500D01*
X242775Y-5750D02*X244275D01*
X245775Y-3500D02*Y-9500D01*
Y-7250D02*X246525Y-6500D01*
X248025D01*
X248775Y-7250D01*
Y-9500D01*
X251325D02*X253575D01*
X250575Y-8750D02*X251325Y-9500D01*
X250575Y-7250D02*Y-8750D01*
Y-7250D02*X251325Y-6500D01*
X252825D01*
X253575Y-7250D01*
X250575Y-8000D02*X253575D01*
Y-7250D02*Y-8000D01*
X258825Y-6500D02*X261075D01*
X258075Y-7250D02*X258825Y-6500D01*
X258075Y-7250D02*Y-8750D01*
X258825Y-9500D01*
X261075D01*
X263625D02*X265875D01*
X262875Y-8750D02*X263625Y-9500D01*
X262875Y-7250D02*Y-8750D01*
Y-7250D02*X263625Y-6500D01*
X265125D01*
X265875Y-7250D01*
X262875Y-8000D02*X265875D01*
Y-7250D02*Y-8000D01*
X268425Y-7250D02*Y-9500D01*
Y-7250D02*X269175Y-6500D01*
X269925D01*
X270675Y-7250D01*
Y-9500D01*
X267675Y-6500D02*X268425Y-7250D01*
X273225Y-3500D02*Y-8750D01*
X273975Y-9500D01*
X272475Y-5750D02*X273975D01*
X276225Y-9500D02*X278475D01*
X275475Y-8750D02*X276225Y-9500D01*
X275475Y-7250D02*Y-8750D01*
Y-7250D02*X276225Y-6500D01*
X277725D01*
X278475Y-7250D01*
X275475Y-8000D02*X278475D01*
Y-7250D02*Y-8000D01*
X281025Y-7250D02*Y-9500D01*
Y-7250D02*X281775Y-6500D01*
X283275D01*
X280275D02*X281025Y-7250D01*
X285075Y-3500D02*Y-8750D01*
X285825Y-9500D01*
X287325Y-5000D02*Y-5750D01*
Y-7250D02*Y-9500D01*
X289575Y-7250D02*Y-9500D01*
Y-7250D02*X290325Y-6500D01*
X291075D01*
X291825Y-7250D01*
Y-9500D01*
X288825Y-6500D02*X289575Y-7250D01*
X294375Y-9500D02*X296625D01*
X293625Y-8750D02*X294375Y-9500D01*
X293625Y-7250D02*Y-8750D01*
Y-7250D02*X294375Y-6500D01*
X295875D01*
X296625Y-7250D01*
X293625Y-8000D02*X296625D01*
Y-7250D02*Y-8000D01*
X301125Y-7250D02*Y-8750D01*
Y-7250D02*X301875Y-6500D01*
X303375D01*
X304125Y-7250D01*
Y-8750D01*
X303375Y-9500D02*X304125Y-8750D01*
X301875Y-9500D02*X303375D01*
X301125Y-8750D02*X301875Y-9500D01*
X306675Y-4250D02*Y-9500D01*
Y-4250D02*X307425Y-3500D01*
X308175D01*
X305925Y-6500D02*X307425D01*
X313125Y-3500D02*Y-8750D01*
X313875Y-9500D01*
X312375Y-5750D02*X313875D01*
X315375Y-3500D02*Y-9500D01*
Y-7250D02*X316125Y-6500D01*
X317625D01*
X318375Y-7250D01*
Y-9500D01*
X320175Y-5000D02*Y-5750D01*
Y-7250D02*Y-9500D01*
X322425D02*X324675D01*
X325425Y-8750D01*
X324675Y-8000D02*X325425Y-8750D01*
X322425Y-8000D02*X324675D01*
X321675Y-7250D02*X322425Y-8000D01*
X321675Y-7250D02*X322425Y-6500D01*
X324675D01*
X325425Y-7250D01*
X321675Y-8750D02*X322425Y-9500D01*
X330675Y-7250D02*Y-11750D01*
X329925Y-6500D02*X330675Y-7250D01*
X331425Y-6500D01*
X332925D01*
X333675Y-7250D01*
Y-8750D01*
X332925Y-9500D02*X333675Y-8750D01*
X331425Y-9500D02*X332925D01*
X330675Y-8750D02*X331425Y-9500D01*
X337725Y-6500D02*X338475Y-7250D01*
X336225Y-6500D02*X337725D01*
X335475Y-7250D02*X336225Y-6500D01*
X335475Y-7250D02*Y-8750D01*
X336225Y-9500D01*
X338475Y-6500D02*Y-8750D01*
X339225Y-9500D01*
X336225D02*X337725D01*
X338475Y-8750D01*
X341775Y-3500D02*Y-8750D01*
X342525Y-9500D01*
X341025Y-5750D02*X342525D01*
X344025Y-3500D02*Y-9500D01*
Y-7250D02*X344775Y-6500D01*
X346275D01*
X347025Y-7250D01*
Y-9500D01*
X200750Y528500D02*Y522500D01*
X203000Y528500D02*X203750Y527750D01*
Y523250D01*
X203000Y522500D02*X203750Y523250D01*
X200000Y522500D02*X203000D01*
X200000Y528500D02*X203000D01*
X207800Y525500D02*X208550Y524750D01*
X206300Y525500D02*X207800D01*
X205550Y524750D02*X206300Y525500D01*
X205550Y524750D02*Y523250D01*
X206300Y522500D01*
X208550Y525500D02*Y523250D01*
X209300Y522500D01*
X206300D02*X207800D01*
X208550Y523250D01*
X211850Y528500D02*Y523250D01*
X212600Y522500D01*
X211100Y526250D02*X212600D01*
X214850Y522500D02*X217100D01*
X214100Y523250D02*X214850Y522500D01*
X214100Y524750D02*Y523250D01*
Y524750D02*X214850Y525500D01*
X216350D01*
X217100Y524750D01*
X214100Y524000D02*X217100D01*
Y524750D02*Y524000D01*
X218900Y526250D02*X219650D01*
X218900Y524750D02*X219650D01*
X224150Y528500D02*X227150D01*
X225650D02*Y522500D01*
X228950Y525500D02*Y523250D01*
X229700Y522500D01*
X231200D01*
X231950Y523250D01*
Y525500D02*Y523250D01*
X234500Y522500D02*X236750D01*
X233750Y523250D02*X234500Y522500D01*
X233750Y524750D02*Y523250D01*
Y524750D02*X234500Y525500D01*
X236000D01*
X236750Y524750D01*
X233750Y524000D02*X236750D01*
Y524750D02*Y524000D01*
X242000Y522500D02*X243500D01*
X242750Y528500D02*Y522500D01*
X241250Y527000D02*X242750Y528500D01*
X245300Y525500D02*X248300Y528500D01*
X245300Y525500D02*X249050D01*
X248300Y528500D02*Y522500D01*
X253550Y527750D02*Y522500D01*
Y527750D02*X254300Y528500D01*
X256550D01*
X257300Y527750D01*
Y522500D01*
X253550Y525500D02*X257300D01*
X259850Y524750D02*Y520250D01*
X259100Y525500D02*X259850Y524750D01*
X260600Y525500D01*
X262100D01*
X262850Y524750D01*
Y523250D01*
X262100Y522500D02*X262850Y523250D01*
X260600Y522500D02*X262100D01*
X259850Y523250D02*X260600Y522500D01*
X265400Y524750D02*Y522500D01*
Y524750D02*X266150Y525500D01*
X267650D01*
X264650D02*X265400Y524750D01*
X272150Y527750D02*X272900Y528500D01*
X275150D01*
X275900Y527750D01*
Y526250D01*
X272150Y522500D02*X275900Y526250D01*
X272150Y522500D02*X275900D01*
X277700Y523250D02*X278450Y522500D01*
X277700Y527750D02*Y523250D01*
Y527750D02*X278450Y528500D01*
X279950D01*
X280700Y527750D01*
Y523250D01*
X279950Y522500D02*X280700Y523250D01*
X278450Y522500D02*X279950D01*
X277700Y524000D02*X280700Y527000D01*
X283250Y522500D02*X284750D01*
X284000Y528500D02*Y522500D01*
X282500Y527000D02*X284000Y528500D01*
X286550D02*X289550D01*
X286550D02*Y525500D01*
X287300Y526250D01*
X288800D01*
X289550Y525500D01*
Y523250D01*
X288800Y522500D02*X289550Y523250D01*
X287300Y522500D02*X288800D01*
X286550Y523250D02*X287300Y522500D01*
X294800D02*X296300D01*
X295550Y528500D02*Y522500D01*
X294050Y527000D02*X295550Y528500D01*
X298100Y523250D02*X298850Y522500D01*
X298100Y527750D02*Y523250D01*
Y527750D02*X298850Y528500D01*
X300350D01*
X301100Y527750D01*
Y523250D01*
X300350Y522500D02*X301100Y523250D01*
X298850Y522500D02*X300350D01*
X298100Y524000D02*X301100Y527000D01*
X302900Y526250D02*X303650D01*
X302900Y524750D02*X303650D01*
X305450Y523250D02*X306200Y522500D01*
X305450Y527750D02*Y523250D01*
Y527750D02*X306200Y528500D01*
X307700D01*
X308450Y527750D01*
Y523250D01*
X307700Y522500D02*X308450Y523250D01*
X306200Y522500D02*X307700D01*
X305450Y524000D02*X308450Y527000D01*
X310250Y525500D02*X313250Y528500D01*
X310250Y525500D02*X314000D01*
X313250Y528500D02*Y522500D01*
X315800Y526250D02*X316550D01*
X315800Y524750D02*X316550D01*
X318350Y527750D02*X319100Y528500D01*
X320600D01*
X321350Y527750D01*
Y523250D01*
X320600Y522500D02*X321350Y523250D01*
X319100Y522500D02*X320600D01*
X318350Y523250D02*X319100Y522500D01*
Y525500D02*X321350D01*
X323150Y527750D02*X323900Y528500D01*
X325400D01*
X326150Y527750D01*
Y523250D01*
X325400Y522500D02*X326150Y523250D01*
X323900Y522500D02*X325400D01*
X323150Y523250D02*X323900Y522500D01*
Y525500D02*X326150D01*
X330650Y527750D02*Y522500D01*
Y527750D02*X331400Y528500D01*
X333650D01*
X334400Y527750D01*
Y522500D01*
X330650Y525500D02*X334400D01*
X336200Y528500D02*Y522500D01*
Y528500D02*X338450Y526250D01*
X340700Y528500D01*
Y522500D01*
X348200Y528500D02*X348950Y527750D01*
X345950Y528500D02*X348200D01*
X345200Y527750D02*X345950Y528500D01*
X345200Y527750D02*Y523250D01*
X345950Y522500D01*
X348200D01*
X348950Y523250D01*
Y524750D02*Y523250D01*
X348200Y525500D02*X348950Y524750D01*
X346700Y525500D02*X348200D01*
X350750Y528500D02*Y522500D01*
Y528500D02*X353000Y526250D01*
X355250Y528500D01*
Y522500D01*
X357050Y528500D02*X360050D01*
X358550D02*Y522500D01*
X364550Y528500D02*Y523250D01*
X365300Y522500D01*
X366800D01*
X367550Y523250D01*
Y528500D02*Y523250D01*
X369350Y528500D02*X372350D01*
X370850D02*Y522500D01*
X374900D02*X377150D01*
X374150Y523250D02*X374900Y522500D01*
X374150Y527750D02*Y523250D01*
Y527750D02*X374900Y528500D01*
X377150D01*
X200000Y542750D02*Y537500D01*
Y542750D02*X200750Y543500D01*
X203000D01*
X203750Y542750D01*
Y537500D01*
X200000Y540500D02*X203750D01*
X205550D02*Y538250D01*
X206300Y537500D01*
X207800D01*
X208550Y538250D01*
Y540500D02*Y538250D01*
X211100Y543500D02*Y538250D01*
X211850Y537500D01*
X210350Y541250D02*X211850D01*
X213350Y543500D02*Y537500D01*
Y539750D02*X214100Y540500D01*
X215600D01*
X216350Y539750D01*
Y537500D01*
X218150Y539750D02*Y538250D01*
Y539750D02*X218900Y540500D01*
X220400D01*
X221150Y539750D01*
Y538250D01*
X220400Y537500D02*X221150Y538250D01*
X218900Y537500D02*X220400D01*
X218150Y538250D02*X218900Y537500D01*
X223700Y539750D02*Y537500D01*
Y539750D02*X224450Y540500D01*
X225950D01*
X222950D02*X223700Y539750D01*
X227750Y541250D02*X228500D01*
X227750Y539750D02*X228500D01*
X200000Y558500D02*X203000D01*
X201500D02*Y552500D01*
X204800Y557000D02*Y556250D01*
Y554750D02*Y552500D01*
X207050Y558500D02*Y553250D01*
X207800Y552500D01*
X206300Y556250D02*X207800D01*
X209300Y558500D02*Y553250D01*
X210050Y552500D01*
X212300D02*X214550D01*
X211550Y553250D02*X212300Y552500D01*
X211550Y554750D02*Y553250D01*
Y554750D02*X212300Y555500D01*
X213800D01*
X214550Y554750D01*
X211550Y554000D02*X214550D01*
Y554750D02*Y554000D01*
X216350Y556250D02*X217100D01*
X216350Y554750D02*X217100D01*
X221600Y553250D02*X222350Y552500D01*
X221600Y557750D02*X222350Y558500D01*
X221600Y557750D02*Y553250D01*
X224150Y555500D02*Y553250D01*
X224900Y552500D01*
X226400D01*
X227150Y553250D01*
Y555500D02*Y553250D01*
X229700Y554750D02*Y552500D01*
Y554750D02*X230450Y555500D01*
X231200D01*
X231950Y554750D01*
Y552500D01*
X228950Y555500D02*X229700Y554750D01*
X233750Y558500D02*Y552500D01*
Y554750D02*X236000Y552500D01*
X233750Y554750D02*X235250Y556250D01*
X238550Y554750D02*Y552500D01*
Y554750D02*X239300Y555500D01*
X240050D01*
X240800Y554750D01*
Y552500D01*
X237800Y555500D02*X238550Y554750D01*
X242600D02*Y553250D01*
Y554750D02*X243350Y555500D01*
X244850D01*
X245600Y554750D01*
Y553250D01*
X244850Y552500D02*X245600Y553250D01*
X243350Y552500D02*X244850D01*
X242600Y553250D02*X243350Y552500D01*
X247400Y555500D02*Y553250D01*
X248150Y552500D01*
X248900D01*
X249650Y553250D01*
Y555500D02*Y553250D01*
X250400Y552500D01*
X251150D01*
X251900Y553250D01*
Y555500D02*Y553250D01*
X254450Y554750D02*Y552500D01*
Y554750D02*X255200Y555500D01*
X255950D01*
X256700Y554750D01*
Y552500D01*
X253700Y555500D02*X254450Y554750D01*
X258500Y558500D02*X259250Y557750D01*
Y553250D01*
X258500Y552500D02*X259250Y553250D01*
X263750Y555500D02*X266750D01*
X271250Y558500D02*Y552500D01*
Y558500D02*X274250D01*
X271250Y555500D02*X273500D01*
X278300D02*X279050Y554750D01*
X276800Y555500D02*X278300D01*
X276050Y554750D02*X276800Y555500D01*
X276050Y554750D02*Y553250D01*
X276800Y552500D01*
X279050Y555500D02*Y553250D01*
X279800Y552500D01*
X276800D02*X278300D01*
X279050Y553250D01*
X281600Y558500D02*Y552500D01*
Y553250D02*X282350Y552500D01*
X283850D01*
X284600Y553250D01*
Y554750D02*Y553250D01*
X283850Y555500D02*X284600Y554750D01*
X282350Y555500D02*X283850D01*
X281600Y554750D02*X282350Y555500D01*
X287150Y554750D02*Y552500D01*
Y554750D02*X287900Y555500D01*
X289400D01*
X286400D02*X287150Y554750D01*
X291200Y557000D02*Y556250D01*
Y554750D02*Y552500D01*
X293450Y555500D02*X295700D01*
X292700Y554750D02*X293450Y555500D01*
X292700Y554750D02*Y553250D01*
X293450Y552500D01*
X295700D01*
X299750Y555500D02*X300500Y554750D01*
X298250Y555500D02*X299750D01*
X297500Y554750D02*X298250Y555500D01*
X297500Y554750D02*Y553250D01*
X298250Y552500D01*
X300500Y555500D02*Y553250D01*
X301250Y552500D01*
X298250D02*X299750D01*
X300500Y553250D01*
X303800Y558500D02*Y553250D01*
X304550Y552500D01*
X303050Y556250D02*X304550D01*
X306050Y557000D02*Y556250D01*
Y554750D02*Y552500D01*
X307550Y554750D02*Y553250D01*
Y554750D02*X308300Y555500D01*
X309800D01*
X310550Y554750D01*
Y553250D01*
X309800Y552500D02*X310550Y553250D01*
X308300Y552500D02*X309800D01*
X307550Y553250D02*X308300Y552500D01*
X313100Y554750D02*Y552500D01*
Y554750D02*X313850Y555500D01*
X314600D01*
X315350Y554750D01*
Y552500D01*
X312350Y555500D02*X313100Y554750D01*
X320600Y558500D02*Y552500D01*
X322850Y558500D02*X323600Y557750D01*
Y553250D01*
X322850Y552500D02*X323600Y553250D01*
X319850Y552500D02*X322850D01*
X319850Y558500D02*X322850D01*
X326150Y554750D02*Y552500D01*
Y554750D02*X326900Y555500D01*
X328400D01*
X325400D02*X326150Y554750D01*
X332450Y555500D02*X333200Y554750D01*
X330950Y555500D02*X332450D01*
X330200Y554750D02*X330950Y555500D01*
X330200Y554750D02*Y553250D01*
X330950Y552500D01*
X333200Y555500D02*Y553250D01*
X333950Y552500D01*
X330950D02*X332450D01*
X333200Y553250D01*
X335750Y555500D02*Y553250D01*
X336500Y552500D01*
X337250D01*
X338000Y553250D01*
Y555500D02*Y553250D01*
X338750Y552500D01*
X339500D01*
X340250Y553250D01*
Y555500D02*Y553250D01*
X342050Y557000D02*Y556250D01*
Y554750D02*Y552500D01*
X344300Y554750D02*Y552500D01*
Y554750D02*X345050Y555500D01*
X345800D01*
X346550Y554750D01*
Y552500D01*
X343550Y555500D02*X344300Y554750D01*
X350600Y555500D02*X351350Y554750D01*
X349100Y555500D02*X350600D01*
X348350Y554750D02*X349100Y555500D01*
X348350Y554750D02*Y553250D01*
X349100Y552500D01*
X350600D01*
X351350Y553250D01*
X348350Y551000D02*X349100Y550250D01*
X350600D01*
X351350Y551000D01*
Y555500D02*Y551000D01*
M02*
