G04 start of page 9 for group -4078 idx -4078 *
G04 Title: (unknown), bottomsilk *
G04 Creator: pcb 20140316 *
G04 CreationDate: Tue 22 Dec 2015 03:43:44 PM GMT UTC *
G04 For: fosse *
G04 Format: Gerber/RS-274X *
G04 PCB-Dimensions (mil): 5250.00 5000.00 *
G04 PCB-Coordinate-Origin: lower left *
%MOIN*%
%FSLAX25Y25*%
%LNBOTTOMSILK*%
%ADD89C,0.0100*%
%ADD88C,0.0060*%
%ADD87C,0.0080*%
%ADD86C,0.0160*%
G54D86*X246000Y250100D02*X296000D01*
X246000Y291100D02*Y250100D01*
Y291100D02*X296000D01*
Y250100D01*
X261000Y282100D02*X259500Y280600D01*
X261000Y284100D02*X259500Y282600D01*
X261000Y284100D02*Y280100D01*
X259500Y278600D01*
X261000Y282100D02*X263000D01*
X271000Y271100D02*Y270100D01*
Y271100D02*X271500Y270600D01*
X270500D02*X271500D01*
X270500D02*X271000Y270100D01*
X271500Y270600D01*
X269500Y254100D02*G75*G03X271000Y252600I1500J0D01*G01*
G75*G03X272500Y254100I0J1500D01*G01*
X281000Y279600D02*G75*G03X282500Y281100I0J1500D01*G01*
X279500D02*G75*G03X281000Y279600I1500J0D01*G01*
Y282600D02*G75*G03X279500Y281100I0J-1500D01*G01*
X282500D02*G75*G03X281000Y282600I-1500J0D01*G01*
X279500Y284100D02*G75*G03X281000Y282600I1500J0D01*G01*
X271000Y270100D02*G75*G03X271500Y270600I0J500D01*G01*
X270500D02*G75*G03X271000Y270100I500J0D01*G01*
Y271100D02*G75*G03X270500Y270600I0J-500D01*G01*
X271500D02*G75*G03X271000Y271100I-500J0D01*G01*
G54D87*X271814Y234068D02*Y230132D01*
X261186Y234068D02*Y230132D01*
X246638Y224860D02*X251362D01*
X246638Y232340D02*X251362D01*
G54D88*X246000Y350100D02*X296000D01*
X246000Y391100D02*Y350100D01*
Y391100D02*X296000D01*
Y350100D01*
X261000Y382100D02*X259500Y380600D01*
X261000Y384100D02*X259500Y382600D01*
X261000Y384100D02*Y380100D01*
X259500Y378600D01*
X261000Y382100D02*X263000D01*
X271000Y371100D02*Y370100D01*
Y371100D02*X271500Y370600D01*
X270500D02*X271500D01*
X270500D02*X271000Y370100D01*
X271500Y370600D01*
X269500Y354100D02*G75*G03X271000Y352600I1500J0D01*G01*
G75*G03X272500Y354100I0J1500D01*G01*
X281000Y379600D02*G75*G03X282500Y381100I0J1500D01*G01*
X279500D02*G75*G03X281000Y379600I1500J0D01*G01*
Y382600D02*G75*G03X279500Y381100I0J-1500D01*G01*
X282500D02*G75*G03X281000Y382600I-1500J0D01*G01*
X279500Y384100D02*G75*G03X281000Y382600I1500J0D01*G01*
X271000Y370100D02*G75*G03X271500Y370600I0J500D01*G01*
X270500D02*G75*G03X271000Y370100I500J0D01*G01*
Y371100D02*G75*G03X270500Y370600I0J-500D01*G01*
X271500D02*G75*G03X271000Y371100I-500J0D01*G01*
G54D89*X231100Y320400D02*X272500D01*
X231100Y348900D02*Y320400D01*
Y348900D02*X272500D01*
Y320400D01*
G54D87*X294155Y156493D02*Y155707D01*
X288645Y156493D02*Y155707D01*
G54D88*X246350Y223450D02*X247850D01*
X245850Y222950D02*X246350Y223450D01*
X245850Y219950D02*Y222950D01*
Y219950D02*X246350Y219450D01*
X247850D01*
X249050D02*X251050D01*
X249050D02*Y221450D01*
X249550Y220950D01*
X250550D01*
X251050Y221450D01*
Y222950D01*
X250550Y223450D02*X251050Y222950D01*
X249550Y223450D02*X250550D01*
X249050Y222950D02*X249550Y223450D01*
X298000Y267600D02*X302000D01*
Y269100D02*X301500Y269600D01*
X298500D02*X301500D01*
X298000Y269100D02*X298500Y269600D01*
X298000Y267100D02*Y269100D01*
X302000Y267100D02*Y269100D01*
X298000Y271300D02*Y272300D01*
Y271800D02*X302000D01*
X301000Y270800D02*X302000Y271800D01*
X273850Y229845D02*Y231345D01*
X274350Y229345D02*X273850Y229845D01*
X274350Y229345D02*X277350D01*
X277850Y229845D01*
Y231345D01*
X277350Y232545D02*X277850Y233045D01*
Y234545D01*
X277350Y235045D01*
X276350D02*X277350D01*
X273850Y232545D02*X276350Y235045D01*
X273850Y232545D02*Y235045D01*
X298000Y361100D02*X302000D01*
X298000D02*Y363100D01*
X300000Y364300D02*Y365800D01*
X298000Y364300D02*Y366300D01*
Y364300D02*X302000D01*
Y366300D01*
X298000Y368000D02*X302000D01*
Y369500D02*X301500Y370000D01*
X298500D02*X301500D01*
X298000Y369500D02*X298500Y370000D01*
X298000Y367500D02*Y369500D01*
X302000Y367500D02*Y369500D01*
X298000Y371700D02*Y372700D01*
Y372200D02*X302000D01*
X301000Y371200D02*X302000Y372200D01*
X298500Y373900D02*X298000Y374400D01*
X298500Y373900D02*X301500D01*
X302000Y374400D01*
Y375400D01*
X301500Y375900D01*
X298500D02*X301500D01*
X298000Y375400D02*X298500Y375900D01*
X298000Y374400D02*Y375400D01*
X299000Y373900D02*X301000Y375900D01*
X298500Y377100D02*X298000Y377600D01*
X298500Y377100D02*X301500D01*
X302000Y377600D01*
Y378600D01*
X301500Y379100D01*
X298500D02*X301500D01*
X298000Y378600D02*X298500Y379100D01*
X298000Y377600D02*Y378600D01*
X299000Y377100D02*X301000Y379100D01*
X275300Y329100D02*X278800D01*
X275300D02*X274800Y329600D01*
Y330600D01*
X275300Y331100D01*
X278800D01*
X274800Y332800D02*Y333800D01*
Y333300D02*X278800D01*
X277800Y332300D02*X278800Y333300D01*
X275300Y335000D02*X274800Y335500D01*
X275300Y335000D02*X278300D01*
X278800Y335500D01*
Y336500D01*
X278300Y337000D01*
X275300D02*X278300D01*
X274800Y336500D02*X275300Y337000D01*
X274800Y335500D02*Y336500D01*
X275800Y335000D02*X277800Y337000D01*
X275300Y338200D02*X274800Y338700D01*
X275300Y338200D02*X278300D01*
X278800Y338700D01*
Y339700D01*
X278300Y340200D01*
X275300D02*X278300D01*
X274800Y339700D02*X275300Y340200D01*
X274800Y338700D02*Y339700D01*
X275800Y338200D02*X277800Y340200D01*
X299550Y153407D02*Y155407D01*
X299050Y155907D01*
X298050D02*X299050D01*
X297550Y155407D02*X298050Y155907D01*
X297550Y153907D02*Y155407D01*
X295550Y153907D02*X299550D01*
X297550D02*X295550Y155907D01*
Y157107D02*X298050Y159607D01*
X299550D01*
Y157107D02*Y159607D01*
M02*
