G04 start of page 9 for group -4078 idx -4078 *
G04 Title: (unknown), bottomsilk *
G04 Creator: pcb 20140316 *
G04 CreationDate: Tue 14 Apr 2015 10:04:33 AM GMT UTC *
G04 For: fosse *
G04 Format: Gerber/RS-274X *
G04 PCB-Dimensions (mil): 5250.00 5000.00 *
G04 PCB-Coordinate-Origin: lower left *
%MOIN*%
%FSLAX25Y25*%
%LNBOTTOMSILK*%
%ADD87C,0.0100*%
%ADD86C,0.0060*%
%ADD85C,0.0080*%
%ADD84C,0.0160*%
G54D84*X246000Y297500D02*X296000D01*
X246000Y338500D02*Y297500D01*
Y338500D02*X296000D01*
Y297500D01*
X261000Y329500D02*X259500Y328000D01*
X261000Y331500D02*X259500Y330000D01*
X261000Y331500D02*Y327500D01*
X259500Y326000D01*
X261000Y329500D02*X263000D01*
X271000Y318500D02*Y317500D01*
Y318500D02*X271500Y318000D01*
X270500D02*X271500D01*
X270500D02*X271000Y317500D01*
X271500Y318000D01*
X269500Y301500D02*G75*G03X271000Y300000I1500J0D01*G01*
G75*G03X272500Y301500I0J1500D01*G01*
X281000Y327000D02*G75*G03X282500Y328500I0J1500D01*G01*
X279500D02*G75*G03X281000Y327000I1500J0D01*G01*
Y330000D02*G75*G03X279500Y328500I0J-1500D01*G01*
X282500D02*G75*G03X281000Y330000I-1500J0D01*G01*
X279500Y331500D02*G75*G03X281000Y330000I1500J0D01*G01*
X271000Y317500D02*G75*G03X271500Y318000I0J500D01*G01*
X270500D02*G75*G03X271000Y317500I500J0D01*G01*
Y318500D02*G75*G03X270500Y318000I0J-500D01*G01*
X271500D02*G75*G03X271000Y318500I-500J0D01*G01*
G54D85*X271814Y281468D02*Y277532D01*
X261186Y281468D02*Y277532D01*
X246638Y272260D02*X251362D01*
X246638Y279740D02*X251362D01*
G54D86*X246000Y397500D02*X296000D01*
X246000Y438500D02*Y397500D01*
Y438500D02*X296000D01*
Y397500D01*
X261000Y429500D02*X259500Y428000D01*
X261000Y431500D02*X259500Y430000D01*
X261000Y431500D02*Y427500D01*
X259500Y426000D01*
X261000Y429500D02*X263000D01*
X271000Y418500D02*Y417500D01*
Y418500D02*X271500Y418000D01*
X270500D02*X271500D01*
X270500D02*X271000Y417500D01*
X271500Y418000D01*
X269500Y401500D02*G75*G03X271000Y400000I1500J0D01*G01*
G75*G03X272500Y401500I0J1500D01*G01*
X281000Y427000D02*G75*G03X282500Y428500I0J1500D01*G01*
X279500D02*G75*G03X281000Y427000I1500J0D01*G01*
Y430000D02*G75*G03X279500Y428500I0J-1500D01*G01*
X282500D02*G75*G03X281000Y430000I-1500J0D01*G01*
X279500Y431500D02*G75*G03X281000Y430000I1500J0D01*G01*
X271000Y417500D02*G75*G03X271500Y418000I0J500D01*G01*
X270500D02*G75*G03X271000Y417500I500J0D01*G01*
Y418500D02*G75*G03X270500Y418000I0J-500D01*G01*
X271500D02*G75*G03X271000Y418500I-500J0D01*G01*
G54D87*X231100Y367800D02*X272500D01*
X231100Y396300D02*Y367800D01*
Y396300D02*X272500D01*
Y367800D01*
G54D85*X294155Y203893D02*Y203107D01*
X288645Y203893D02*Y203107D01*
G54D86*X246350Y270850D02*X247850D01*
X245850Y270350D02*X246350Y270850D01*
X245850Y267350D02*Y270350D01*
Y267350D02*X246350Y266850D01*
X247850D01*
X249050D02*X251050D01*
X249050D02*Y268850D01*
X249550Y268350D01*
X250550D01*
X251050Y268850D01*
Y270350D01*
X250550Y270850D02*X251050Y270350D01*
X249550Y270850D02*X250550D01*
X249050Y270350D02*X249550Y270850D01*
X298000Y315000D02*X302000D01*
Y316500D02*X301500Y317000D01*
X298500D02*X301500D01*
X298000Y316500D02*X298500Y317000D01*
X298000Y314500D02*Y316500D01*
X302000Y314500D02*Y316500D01*
X298000Y318700D02*Y319700D01*
Y319200D02*X302000D01*
X301000Y318200D02*X302000Y319200D01*
X273850Y277245D02*Y278745D01*
X274350Y276745D02*X273850Y277245D01*
X274350Y276745D02*X277350D01*
X277850Y277245D01*
Y278745D01*
X277350Y279945D02*X277850Y280445D01*
Y281945D01*
X277350Y282445D01*
X276350D02*X277350D01*
X273850Y279945D02*X276350Y282445D01*
X273850Y279945D02*Y282445D01*
X298000Y408500D02*X302000D01*
X298000D02*Y410500D01*
X300000Y411700D02*Y413200D01*
X298000Y411700D02*Y413700D01*
Y411700D02*X302000D01*
Y413700D01*
X298000Y415400D02*X302000D01*
Y416900D02*X301500Y417400D01*
X298500D02*X301500D01*
X298000Y416900D02*X298500Y417400D01*
X298000Y414900D02*Y416900D01*
X302000Y414900D02*Y416900D01*
X298000Y419100D02*Y420100D01*
Y419600D02*X302000D01*
X301000Y418600D02*X302000Y419600D01*
X298500Y421300D02*X298000Y421800D01*
X298500Y421300D02*X301500D01*
X302000Y421800D01*
Y422800D01*
X301500Y423300D01*
X298500D02*X301500D01*
X298000Y422800D02*X298500Y423300D01*
X298000Y421800D02*Y422800D01*
X299000Y421300D02*X301000Y423300D01*
X298500Y424500D02*X298000Y425000D01*
X298500Y424500D02*X301500D01*
X302000Y425000D01*
Y426000D01*
X301500Y426500D01*
X298500D02*X301500D01*
X298000Y426000D02*X298500Y426500D01*
X298000Y425000D02*Y426000D01*
X299000Y424500D02*X301000Y426500D01*
X275300Y376500D02*X278800D01*
X275300D02*X274800Y377000D01*
Y378000D01*
X275300Y378500D01*
X278800D01*
X274800Y380200D02*Y381200D01*
Y380700D02*X278800D01*
X277800Y379700D02*X278800Y380700D01*
X275300Y382400D02*X274800Y382900D01*
X275300Y382400D02*X278300D01*
X278800Y382900D01*
Y383900D01*
X278300Y384400D01*
X275300D02*X278300D01*
X274800Y383900D02*X275300Y384400D01*
X274800Y382900D02*Y383900D01*
X275800Y382400D02*X277800Y384400D01*
X275300Y385600D02*X274800Y386100D01*
X275300Y385600D02*X278300D01*
X278800Y386100D01*
Y387100D01*
X278300Y387600D01*
X275300D02*X278300D01*
X274800Y387100D02*X275300Y387600D01*
X274800Y386100D02*Y387100D01*
X275800Y385600D02*X277800Y387600D01*
X299550Y200807D02*Y202807D01*
X299050Y203307D01*
X298050D02*X299050D01*
X297550Y202807D02*X298050Y203307D01*
X297550Y201307D02*Y202807D01*
X295550Y201307D02*X299550D01*
X297550D02*X295550Y203307D01*
Y204507D02*X298050Y207007D01*
X299550D01*
Y204507D02*Y207007D01*
M02*
