G04 start of page 12 for group -3984 idx -3984 *
G04 Title: (unknown), fab *
G04 Creator: pcb 20140316 *
G04 CreationDate: Tue 22 Dec 2015 03:43:44 PM GMT UTC *
G04 For: fosse *
G04 Format: Gerber/RS-274X *
G04 PCB-Dimensions (mil): 5250.00 5000.00 *
G04 PCB-Coordinate-Origin: lower left *
%MOIN*%
%FSLAX25Y25*%
%LNFAB*%
%ADD98C,0.0100*%
%ADD97C,0.0060*%
%ADD96R,0.0080X0.0080*%
G54D96*X239400Y145300D02*Y138900D01*
X236200Y142100D02*X242600D01*
X237800Y143700D02*X241000D01*
X237800D02*Y140500D01*
X241000D01*
Y143700D02*Y140500D01*
X239400Y185300D02*Y178900D01*
X236200Y182100D02*X242600D01*
X237800Y183700D02*X241000D01*
X237800D02*Y180500D01*
X241000D01*
Y183700D02*Y180500D01*
X239400Y45300D02*Y38900D01*
X236200Y42100D02*X242600D01*
X237800Y43700D02*X241000D01*
X237800D02*Y40500D01*
X241000D01*
Y43700D02*Y40500D01*
X239400Y85300D02*Y78900D01*
X236200Y82100D02*X242600D01*
X237800Y83700D02*X241000D01*
X237800D02*Y80500D01*
X241000D01*
Y83700D02*Y80500D01*
X15000Y514450D02*Y508050D01*
X11800Y511250D02*X18200D01*
X13400Y512850D02*X16600D01*
X13400D02*Y509650D01*
X16600D01*
Y512850D02*Y509650D01*
G54D97*X135000Y513500D02*Y512750D01*
X136500Y511250D01*
X138000Y512750D01*
Y513500D02*Y512750D01*
X136500Y511250D02*Y507500D01*
X139800Y510500D02*X142050D01*
X139800Y507500D02*X142800D01*
X139800Y513500D02*Y507500D01*
Y513500D02*X142800D01*
X147600D02*X148350Y512750D01*
X145350Y513500D02*X147600D01*
X144600Y512750D02*X145350Y513500D01*
X144600Y512750D02*Y511250D01*
X145350Y510500D01*
X147600D01*
X148350Y509750D01*
Y508250D01*
X147600Y507500D02*X148350Y508250D01*
X145350Y507500D02*X147600D01*
X144600Y508250D02*X145350Y507500D01*
X98000Y510500D02*X101000Y513500D01*
X98000Y510500D02*X101750D01*
X101000Y513500D02*Y507500D01*
X45000Y508250D02*X45750Y507500D01*
X45000Y512750D02*Y508250D01*
Y512750D02*X45750Y513500D01*
X47250D01*
X48000Y512750D01*
Y508250D01*
X47250Y507500D02*X48000Y508250D01*
X45750Y507500D02*X47250D01*
X45000Y509000D02*X48000Y512000D01*
X49800Y507500D02*X50550D01*
X52350Y508250D02*X53100Y507500D01*
X52350Y512750D02*Y508250D01*
Y512750D02*X53100Y513500D01*
X54600D01*
X55350Y512750D01*
Y508250D01*
X54600Y507500D02*X55350Y508250D01*
X53100Y507500D02*X54600D01*
X52350Y509000D02*X55350Y512000D01*
X57150Y507500D02*X60900Y511250D01*
Y513500D02*Y511250D01*
X57150Y513500D02*X60900D01*
X62700Y507500D02*X65700Y510500D01*
Y512750D02*Y510500D01*
X64950Y513500D02*X65700Y512750D01*
X63450Y513500D02*X64950D01*
X62700Y512750D02*X63450Y513500D01*
X62700Y512750D02*Y511250D01*
X63450Y510500D01*
X65700D01*
X351900Y111100D02*Y107900D01*
Y111100D02*X354673Y112700D01*
X351900Y111100D02*X349127Y112700D01*
X350300Y111100D02*G75*G03X353500Y111100I1600J0D01*G01*
G75*G03X350300Y111100I-1600J0D01*G01*
X361900D02*Y107900D01*
Y111100D02*X364673Y112700D01*
X361900Y111100D02*X359127Y112700D01*
X360300Y111100D02*G75*G03X363500Y111100I1600J0D01*G01*
G75*G03X360300Y111100I-1600J0D01*G01*
X371900D02*Y107900D01*
Y111100D02*X374673Y112700D01*
X371900Y111100D02*X369127Y112700D01*
X370300Y111100D02*G75*G03X373500Y111100I1600J0D01*G01*
G75*G03X370300Y111100I-1600J0D01*G01*
X381900D02*Y107900D01*
Y111100D02*X384673Y112700D01*
X381900Y111100D02*X379127Y112700D01*
X380300Y111100D02*G75*G03X383500Y111100I1600J0D01*G01*
G75*G03X380300Y111100I-1600J0D01*G01*
X361900Y61100D02*Y57900D01*
Y61100D02*X364673Y62700D01*
X361900Y61100D02*X359127Y62700D01*
X360300Y61100D02*G75*G03X363500Y61100I1600J0D01*G01*
G75*G03X360300Y61100I-1600J0D01*G01*
X371900D02*Y57900D01*
Y61100D02*X374673Y62700D01*
X371900Y61100D02*X369127Y62700D01*
X370300Y61100D02*G75*G03X373500Y61100I1600J0D01*G01*
G75*G03X370300Y61100I-1600J0D01*G01*
X381900D02*Y57900D01*
Y61100D02*X384673Y62700D01*
X381900Y61100D02*X379127Y62700D01*
X380300Y61100D02*G75*G03X383500Y61100I1600J0D01*G01*
G75*G03X380300Y61100I-1600J0D01*G01*
X391900D02*Y57900D01*
Y61100D02*X394673Y62700D01*
X391900Y61100D02*X389127Y62700D01*
X390300Y61100D02*G75*G03X393500Y61100I1600J0D01*G01*
G75*G03X390300Y61100I-1600J0D01*G01*
X401900D02*Y57900D01*
Y61100D02*X404673Y62700D01*
X401900Y61100D02*X399127Y62700D01*
X400300Y61100D02*G75*G03X403500Y61100I1600J0D01*G01*
G75*G03X400300Y61100I-1600J0D01*G01*
X15000Y526250D02*Y523050D01*
Y526250D02*X17773Y527850D01*
X15000Y526250D02*X12227Y527850D01*
X13400Y526250D02*G75*G03X16600Y526250I1600J0D01*G01*
G75*G03X13400Y526250I-1600J0D01*G01*
X135000Y528500D02*Y527750D01*
X136500Y526250D01*
X138000Y527750D01*
Y528500D02*Y527750D01*
X136500Y526250D02*Y522500D01*
X139800Y525500D02*X142050D01*
X139800Y522500D02*X142800D01*
X139800Y528500D02*Y522500D01*
Y528500D02*X142800D01*
X147600D02*X148350Y527750D01*
X145350Y528500D02*X147600D01*
X144600Y527750D02*X145350Y528500D01*
X144600Y527750D02*Y526250D01*
X145350Y525500D01*
X147600D01*
X148350Y524750D01*
Y523250D01*
X147600Y522500D02*X148350Y523250D01*
X145350Y522500D02*X147600D01*
X144600Y523250D02*X145350Y522500D01*
X98000D02*X101000Y525500D01*
Y527750D02*Y525500D01*
X100250Y528500D02*X101000Y527750D01*
X98750Y528500D02*X100250D01*
X98000Y527750D02*X98750Y528500D01*
X98000Y527750D02*Y526250D01*
X98750Y525500D01*
X101000D01*
X45000Y523250D02*X45750Y522500D01*
X45000Y527750D02*Y523250D01*
Y527750D02*X45750Y528500D01*
X47250D01*
X48000Y527750D01*
Y523250D01*
X47250Y522500D02*X48000Y523250D01*
X45750Y522500D02*X47250D01*
X45000Y524000D02*X48000Y527000D01*
X49800Y522500D02*X50550D01*
X52350Y523250D02*X53100Y522500D01*
X52350Y527750D02*Y523250D01*
Y527750D02*X53100Y528500D01*
X54600D01*
X55350Y527750D01*
Y523250D01*
X54600Y522500D02*X55350Y523250D01*
X53100Y522500D02*X54600D01*
X52350Y524000D02*X55350Y527000D01*
X57150Y525500D02*X60150Y528500D01*
X57150Y525500D02*X60900D01*
X60150Y528500D02*Y522500D01*
X62700Y523250D02*X63450Y522500D01*
X62700Y527750D02*Y523250D01*
Y527750D02*X63450Y528500D01*
X64950D01*
X65700Y527750D01*
Y523250D01*
X64950Y522500D02*X65700Y523250D01*
X63450Y522500D02*X64950D01*
X62700Y524000D02*X65700Y527000D01*
X212900Y398700D02*X216100D01*
X212900D02*Y395500D01*
X216100D01*
Y398700D02*Y395500D01*
X212900Y388700D02*X216100D01*
X212900D02*Y385500D01*
X216100D01*
Y388700D02*Y385500D01*
X212900Y378700D02*X216100D01*
X212900D02*Y375500D01*
X216100D01*
Y378700D02*Y375500D01*
X212900Y368700D02*X216100D01*
X212900D02*Y365500D01*
X216100D01*
Y368700D02*Y365500D01*
X212900Y358700D02*X216100D01*
X212900D02*Y355500D01*
X216100D01*
Y358700D02*Y355500D01*
X212900Y348700D02*X216100D01*
X212900D02*Y345500D01*
X216100D01*
Y348700D02*Y345500D01*
X212900Y338700D02*X216100D01*
X212900D02*Y335500D01*
X216100D01*
Y338700D02*Y335500D01*
X212900Y328700D02*X216100D01*
X212900D02*Y325500D01*
X216100D01*
Y328700D02*Y325500D01*
X212900Y318700D02*X216100D01*
X212900D02*Y315500D01*
X216100D01*
Y318700D02*Y315500D01*
X212900Y308700D02*X216100D01*
X212900D02*Y305500D01*
X216100D01*
Y308700D02*Y305500D01*
X212900Y298700D02*X216100D01*
X212900D02*Y295500D01*
X216100D01*
Y298700D02*Y295500D01*
X212900Y288700D02*X216100D01*
X212900D02*Y285500D01*
X216100D01*
Y288700D02*Y285500D01*
X212900Y278700D02*X216100D01*
X212900D02*Y275500D01*
X216100D01*
Y278700D02*Y275500D01*
X212900Y268700D02*X216100D01*
X212900D02*Y265500D01*
X216100D01*
Y268700D02*Y265500D01*
X212900Y258700D02*X216100D01*
X212900D02*Y255500D01*
X216100D01*
Y258700D02*Y255500D01*
X212900Y248700D02*X216100D01*
X212900D02*Y245500D01*
X216100D01*
Y248700D02*Y245500D01*
X212900Y238700D02*X216100D01*
X212900D02*Y235500D01*
X216100D01*
Y238700D02*Y235500D01*
X212900Y228700D02*X216100D01*
X212900D02*Y225500D01*
X216100D01*
Y228700D02*Y225500D01*
X212900Y218700D02*X216100D01*
X212900D02*Y215500D01*
X216100D01*
Y218700D02*Y215500D01*
X212900Y208700D02*X216100D01*
X212900D02*Y205500D01*
X216100D01*
Y208700D02*Y205500D01*
X312900Y398700D02*X316100D01*
X312900D02*Y395500D01*
X316100D01*
Y398700D02*Y395500D01*
X312900Y388700D02*X316100D01*
X312900D02*Y385500D01*
X316100D01*
Y388700D02*Y385500D01*
X312900Y378700D02*X316100D01*
X312900D02*Y375500D01*
X316100D01*
Y378700D02*Y375500D01*
X312900Y368700D02*X316100D01*
X312900D02*Y365500D01*
X316100D01*
Y368700D02*Y365500D01*
X312900Y358700D02*X316100D01*
X312900D02*Y355500D01*
X316100D01*
Y358700D02*Y355500D01*
X312900Y348700D02*X316100D01*
X312900D02*Y345500D01*
X316100D01*
Y348700D02*Y345500D01*
X312900Y338700D02*X316100D01*
X312900D02*Y335500D01*
X316100D01*
Y338700D02*Y335500D01*
X312900Y328700D02*X316100D01*
X312900D02*Y325500D01*
X316100D01*
Y328700D02*Y325500D01*
X312900Y318700D02*X316100D01*
X312900D02*Y315500D01*
X316100D01*
Y318700D02*Y315500D01*
X312900Y308700D02*X316100D01*
X312900D02*Y305500D01*
X316100D01*
Y308700D02*Y305500D01*
X312900Y298700D02*X316100D01*
X312900D02*Y295500D01*
X316100D01*
Y298700D02*Y295500D01*
X312900Y288700D02*X316100D01*
X312900D02*Y285500D01*
X316100D01*
Y288700D02*Y285500D01*
X312900Y278700D02*X316100D01*
X312900D02*Y275500D01*
X316100D01*
Y278700D02*Y275500D01*
X312900Y268700D02*X316100D01*
X312900D02*Y265500D01*
X316100D01*
Y268700D02*Y265500D01*
X312900Y258700D02*X316100D01*
X312900D02*Y255500D01*
X316100D01*
Y258700D02*Y255500D01*
X312900Y248700D02*X316100D01*
X312900D02*Y245500D01*
X316100D01*
Y248700D02*Y245500D01*
X312900Y238700D02*X316100D01*
X312900D02*Y235500D01*
X316100D01*
Y238700D02*Y235500D01*
X312900Y228700D02*X316100D01*
X312900D02*Y225500D01*
X316100D01*
Y228700D02*Y225500D01*
X312900Y218700D02*X316100D01*
X312900D02*Y215500D01*
X316100D01*
Y218700D02*Y215500D01*
X312900Y208700D02*X316100D01*
X312900D02*Y205500D01*
X316100D01*
Y208700D02*Y205500D01*
X222900Y208700D02*X226100D01*
X222900D02*Y205500D01*
X226100D01*
Y208700D02*Y205500D01*
X232900Y208700D02*X236100D01*
X232900D02*Y205500D01*
X236100D01*
Y208700D02*Y205500D01*
X242900Y208700D02*X246100D01*
X242900D02*Y205500D01*
X246100D01*
Y208700D02*Y205500D01*
X252900Y208700D02*X256100D01*
X252900D02*Y205500D01*
X256100D01*
Y208700D02*Y205500D01*
X262900Y208700D02*X266100D01*
X262900D02*Y205500D01*
X266100D01*
Y208700D02*Y205500D01*
X272900Y208700D02*X276100D01*
X272900D02*Y205500D01*
X276100D01*
Y208700D02*Y205500D01*
X282900Y208700D02*X286100D01*
X282900D02*Y205500D01*
X286100D01*
Y208700D02*Y205500D01*
X292900Y208700D02*X296100D01*
X292900D02*Y205500D01*
X296100D01*
Y208700D02*Y205500D01*
X302900Y208700D02*X306100D01*
X302900D02*Y205500D01*
X306100D01*
Y208700D02*Y205500D01*
X222900Y298700D02*X226100D01*
X222900D02*Y295500D01*
X226100D01*
Y298700D02*Y295500D01*
X232900Y298700D02*X236100D01*
X232900D02*Y295500D01*
X236100D01*
Y298700D02*Y295500D01*
X242900Y298700D02*X246100D01*
X242900D02*Y295500D01*
X246100D01*
Y298700D02*Y295500D01*
X252900Y298700D02*X256100D01*
X252900D02*Y295500D01*
X256100D01*
Y298700D02*Y295500D01*
X262900Y298700D02*X266100D01*
X262900D02*Y295500D01*
X266100D01*
Y298700D02*Y295500D01*
X272900Y298700D02*X276100D01*
X272900D02*Y295500D01*
X276100D01*
Y298700D02*Y295500D01*
X282900Y298700D02*X286100D01*
X282900D02*Y295500D01*
X286100D01*
Y298700D02*Y295500D01*
X292900Y298700D02*X296100D01*
X292900D02*Y295500D01*
X296100D01*
Y298700D02*Y295500D01*
X302900Y298700D02*X306100D01*
X302900D02*Y295500D01*
X306100D01*
Y298700D02*Y295500D01*
X222900Y398700D02*X226100D01*
X222900D02*Y395500D01*
X226100D01*
Y398700D02*Y395500D01*
X232900Y398700D02*X236100D01*
X232900D02*Y395500D01*
X236100D01*
Y398700D02*Y395500D01*
X242900Y398700D02*X246100D01*
X242900D02*Y395500D01*
X246100D01*
Y398700D02*Y395500D01*
X252900Y398700D02*X256100D01*
X252900D02*Y395500D01*
X256100D01*
Y398700D02*Y395500D01*
X262900Y398700D02*X266100D01*
X262900D02*Y395500D01*
X266100D01*
Y398700D02*Y395500D01*
X272900Y398700D02*X276100D01*
X272900D02*Y395500D01*
X276100D01*
Y398700D02*Y395500D01*
X282900Y398700D02*X286100D01*
X282900D02*Y395500D01*
X286100D01*
Y398700D02*Y395500D01*
X292900Y398700D02*X296100D01*
X292900D02*Y395500D01*
X296100D01*
Y398700D02*Y395500D01*
X302900Y398700D02*X306100D01*
X302900D02*Y395500D01*
X306100D01*
Y398700D02*Y395500D01*
X13400Y542850D02*X16600D01*
X13400D02*Y539650D01*
X16600D01*
Y542850D02*Y539650D01*
X135000Y543500D02*Y542750D01*
X136500Y541250D01*
X138000Y542750D01*
Y543500D02*Y542750D01*
X136500Y541250D02*Y537500D01*
X139800Y540500D02*X142050D01*
X139800Y537500D02*X142800D01*
X139800Y543500D02*Y537500D01*
Y543500D02*X142800D01*
X147600D02*X148350Y542750D01*
X145350Y543500D02*X147600D01*
X144600Y542750D02*X145350Y543500D01*
X144600Y542750D02*Y541250D01*
X145350Y540500D01*
X147600D01*
X148350Y539750D01*
Y538250D01*
X147600Y537500D02*X148350Y538250D01*
X145350Y537500D02*X147600D01*
X144600Y538250D02*X145350Y537500D01*
X100250Y543500D02*X101000Y542750D01*
X98750Y543500D02*X100250D01*
X98000Y542750D02*X98750Y543500D01*
X98000Y542750D02*Y538250D01*
X98750Y537500D01*
X100250Y540500D02*X101000Y539750D01*
X98000Y540500D02*X100250D01*
X98750Y537500D02*X100250D01*
X101000Y538250D01*
Y539750D02*Y538250D01*
X102800Y537500D02*X106550Y541250D01*
Y543500D02*Y541250D01*
X102800Y543500D02*X106550D01*
X45000Y538250D02*X45750Y537500D01*
X45000Y542750D02*Y538250D01*
Y542750D02*X45750Y543500D01*
X47250D01*
X48000Y542750D01*
Y538250D01*
X47250Y537500D02*X48000Y538250D01*
X45750Y537500D02*X47250D01*
X45000Y539000D02*X48000Y542000D01*
X49800Y537500D02*X50550D01*
X52350Y538250D02*X53100Y537500D01*
X52350Y542750D02*Y538250D01*
Y542750D02*X53100Y543500D01*
X54600D01*
X55350Y542750D01*
Y538250D01*
X54600Y537500D02*X55350Y538250D01*
X53100Y537500D02*X54600D01*
X52350Y539000D02*X55350Y542000D01*
X57150Y542750D02*X57900Y543500D01*
X59400D01*
X60150Y542750D01*
Y538250D01*
X59400Y537500D02*X60150Y538250D01*
X57900Y537500D02*X59400D01*
X57150Y538250D02*X57900Y537500D01*
Y540500D02*X60150D01*
X61950Y538250D02*X62700Y537500D01*
X61950Y539750D02*Y538250D01*
Y539750D02*X62700Y540500D01*
X64200D01*
X64950Y539750D01*
Y538250D01*
X64200Y537500D02*X64950Y538250D01*
X62700Y537500D02*X64200D01*
X61950Y541250D02*X62700Y540500D01*
X61950Y542750D02*Y541250D01*
Y542750D02*X62700Y543500D01*
X64200D01*
X64950Y542750D01*
Y541250D01*
X64200Y540500D02*X64950Y541250D01*
X225200Y343600D02*G75*G03X226800Y343600I800J0D01*G01*
G75*G03X225200Y343600I-800J0D01*G01*
Y373600D02*G75*G03X226800Y373600I800J0D01*G01*
G75*G03X225200Y373600I-800J0D01*G01*
X262700Y308100D02*G75*G03X264300Y308100I800J0D01*G01*
G75*G03X262700Y308100I-800J0D01*G01*
X225950Y326850D02*G75*G03X227550Y326850I800J0D01*G01*
G75*G03X225950Y326850I-800J0D01*G01*
X303700Y319100D02*G75*G03X305300Y319100I800J0D01*G01*
G75*G03X303700Y319100I-800J0D01*G01*
X231700Y358600D02*G75*G03X233300Y358600I800J0D01*G01*
G75*G03X231700Y358600I-800J0D01*G01*
X295700Y333600D02*G75*G03X297300Y333600I800J0D01*G01*
G75*G03X295700Y333600I-800J0D01*G01*
X354183Y143183D02*G75*G03X355783Y143183I800J0D01*G01*
G75*G03X354183Y143183I-800J0D01*G01*
X382183Y166017D02*G75*G03X383783Y166017I800J0D01*G01*
G75*G03X382183Y166017I-800J0D01*G01*
X268100Y170600D02*G75*G03X269700Y170600I800J0D01*G01*
G75*G03X268100Y170600I-800J0D01*G01*
X298100Y134600D02*G75*G03X299700Y134600I800J0D01*G01*
G75*G03X298100Y134600I-800J0D01*G01*
X323600Y46100D02*G75*G03X325200Y46100I800J0D01*G01*
G75*G03X323600Y46100I-800J0D01*G01*
X324695Y65195D02*G75*G03X326295Y65195I800J0D01*G01*
G75*G03X324695Y65195I-800J0D01*G01*
X284600Y67100D02*G75*G03X286200Y67100I800J0D01*G01*
G75*G03X284600Y67100I-800J0D01*G01*
X306100Y73100D02*G75*G03X307700Y73100I800J0D01*G01*
G75*G03X306100Y73100I-800J0D01*G01*
X14200Y556250D02*G75*G03X15800Y556250I800J0D01*G01*
G75*G03X14200Y556250I-800J0D01*G01*
X135000Y558500D02*Y557750D01*
X136500Y556250D01*
X138000Y557750D01*
Y558500D02*Y557750D01*
X136500Y556250D02*Y552500D01*
X139800Y555500D02*X142050D01*
X139800Y552500D02*X142800D01*
X139800Y558500D02*Y552500D01*
Y558500D02*X142800D01*
X147600D02*X148350Y557750D01*
X145350Y558500D02*X147600D01*
X144600Y557750D02*X145350Y558500D01*
X144600Y557750D02*Y556250D01*
X145350Y555500D01*
X147600D01*
X148350Y554750D01*
Y553250D01*
X147600Y552500D02*X148350Y553250D01*
X145350Y552500D02*X147600D01*
X144600Y553250D02*X145350Y552500D01*
X98750D02*X100250D01*
X99500Y558500D02*Y552500D01*
X98000Y557000D02*X99500Y558500D01*
X102050D02*X105050D01*
X102050D02*Y555500D01*
X102800Y556250D01*
X104300D01*
X105050Y555500D01*
Y553250D01*
X104300Y552500D02*X105050Y553250D01*
X102800Y552500D02*X104300D01*
X102050Y553250D02*X102800Y552500D01*
X45000Y553250D02*X45750Y552500D01*
X45000Y557750D02*Y553250D01*
Y557750D02*X45750Y558500D01*
X47250D01*
X48000Y557750D01*
Y553250D01*
X47250Y552500D02*X48000Y553250D01*
X45750Y552500D02*X47250D01*
X45000Y554000D02*X48000Y557000D01*
X49800Y552500D02*X50550D01*
X52350Y553250D02*X53100Y552500D01*
X52350Y557750D02*Y553250D01*
Y557750D02*X53100Y558500D01*
X54600D01*
X55350Y557750D01*
Y553250D01*
X54600Y552500D02*X55350Y553250D01*
X53100Y552500D02*X54600D01*
X52350Y554000D02*X55350Y557000D01*
X57150Y557750D02*X57900Y558500D01*
X59400D01*
X60150Y557750D01*
Y553250D01*
X59400Y552500D02*X60150Y553250D01*
X57900Y552500D02*X59400D01*
X57150Y553250D02*X57900Y552500D01*
Y555500D02*X60150D01*
X61950Y558500D02*X64950D01*
X61950D02*Y555500D01*
X62700Y556250D01*
X64200D01*
X64950Y555500D01*
Y553250D01*
X64200Y552500D02*X64950Y553250D01*
X62700Y552500D02*X64200D01*
X61950Y553250D02*X62700Y552500D01*
X258200Y153300D02*X260600Y150900D01*
X258200D02*X260600Y153300D01*
X258200Y163300D02*X260600Y160900D01*
X258200D02*X260600Y163300D01*
X258200Y53300D02*X260600Y50900D01*
X258200D02*X260600Y53300D01*
X258200Y63300D02*X260600Y60900D01*
X258200D02*X260600Y63300D01*
X13800Y572450D02*X16200Y570050D01*
X13800D02*X16200Y572450D01*
X135000Y573500D02*Y572750D01*
X136500Y571250D01*
X138000Y572750D01*
Y573500D02*Y572750D01*
X136500Y571250D02*Y567500D01*
X139800Y570500D02*X142050D01*
X139800Y567500D02*X142800D01*
X139800Y573500D02*Y567500D01*
Y573500D02*X142800D01*
X147600D02*X148350Y572750D01*
X145350Y573500D02*X147600D01*
X144600Y572750D02*X145350Y573500D01*
X144600Y572750D02*Y571250D01*
X145350Y570500D01*
X147600D01*
X148350Y569750D01*
Y568250D01*
X147600Y567500D02*X148350Y568250D01*
X145350Y567500D02*X147600D01*
X144600Y568250D02*X145350Y567500D01*
X98000Y570500D02*X101000Y573500D01*
X98000Y570500D02*X101750D01*
X101000Y573500D02*Y567500D01*
X45000Y568250D02*X45750Y567500D01*
X45000Y572750D02*Y568250D01*
Y572750D02*X45750Y573500D01*
X47250D01*
X48000Y572750D01*
Y568250D01*
X47250Y567500D02*X48000Y568250D01*
X45750Y567500D02*X47250D01*
X45000Y569000D02*X48000Y572000D01*
X49800Y567500D02*X50550D01*
X52350Y568250D02*X53100Y567500D01*
X52350Y572750D02*Y568250D01*
Y572750D02*X53100Y573500D01*
X54600D01*
X55350Y572750D01*
Y568250D01*
X54600Y567500D02*X55350Y568250D01*
X53100Y567500D02*X54600D01*
X52350Y569000D02*X55350Y572000D01*
X57150Y572750D02*X57900Y573500D01*
X59400D01*
X60150Y572750D01*
Y568250D01*
X59400Y567500D02*X60150Y568250D01*
X57900Y567500D02*X59400D01*
X57150Y568250D02*X57900Y567500D01*
Y570500D02*X60150D01*
X61950Y572750D02*X62700Y573500D01*
X64950D01*
X65700Y572750D01*
Y571250D01*
X61950Y567500D02*X65700Y571250D01*
X61950Y567500D02*X65700D01*
X261000Y272200D02*Y269000D01*
X259400Y270600D02*X262600D01*
X281000Y272200D02*Y269000D01*
X279400Y270600D02*X282600D01*
X271000Y262200D02*Y259000D01*
X269400Y260600D02*X272600D01*
X261000Y372200D02*Y369000D01*
X259400Y370600D02*X262600D01*
X281000Y372200D02*Y369000D01*
X279400Y370600D02*X282600D01*
X271000Y362200D02*Y359000D01*
X269400Y360600D02*X272600D01*
X15000Y587850D02*Y584650D01*
X13400Y586250D02*X16600D01*
X135000Y588500D02*Y587750D01*
X136500Y586250D01*
X138000Y587750D01*
Y588500D02*Y587750D01*
X136500Y586250D02*Y582500D01*
X139800Y585500D02*X142050D01*
X139800Y582500D02*X142800D01*
X139800Y588500D02*Y582500D01*
Y588500D02*X142800D01*
X147600D02*X148350Y587750D01*
X145350Y588500D02*X147600D01*
X144600Y587750D02*X145350Y588500D01*
X144600Y587750D02*Y586250D01*
X145350Y585500D01*
X147600D01*
X148350Y584750D01*
Y583250D01*
X147600Y582500D02*X148350Y583250D01*
X145350Y582500D02*X147600D01*
X144600Y583250D02*X145350Y582500D01*
X100250Y588500D02*X101000Y587750D01*
X98750Y588500D02*X100250D01*
X98000Y587750D02*X98750Y588500D01*
X98000Y587750D02*Y583250D01*
X98750Y582500D01*
X100250Y585500D02*X101000Y584750D01*
X98000Y585500D02*X100250D01*
X98750Y582500D02*X100250D01*
X101000Y583250D01*
Y584750D02*Y583250D01*
X45000D02*X45750Y582500D01*
X45000Y587750D02*Y583250D01*
Y587750D02*X45750Y588500D01*
X47250D01*
X48000Y587750D01*
Y583250D01*
X47250Y582500D02*X48000Y583250D01*
X45750Y582500D02*X47250D01*
X45000Y584000D02*X48000Y587000D01*
X49800Y582500D02*X50550D01*
X52350Y583250D02*X53100Y582500D01*
X52350Y587750D02*Y583250D01*
Y587750D02*X53100Y588500D01*
X54600D01*
X55350Y587750D01*
Y583250D01*
X54600Y582500D02*X55350Y583250D01*
X53100Y582500D02*X54600D01*
X52350Y584000D02*X55350Y587000D01*
X57150Y587750D02*X57900Y588500D01*
X60150D01*
X60900Y587750D01*
Y586250D01*
X57150Y582500D02*X60900Y586250D01*
X57150Y582500D02*X60900D01*
X62700Y587750D02*X63450Y588500D01*
X64950D01*
X65700Y587750D01*
Y583250D01*
X64950Y582500D02*X65700Y583250D01*
X63450Y582500D02*X64950D01*
X62700Y583250D02*X63450Y582500D01*
Y585500D02*X65700D01*
X268000Y343100D02*Y341500D01*
Y343100D02*X269387Y343900D01*
X268000Y343100D02*X266613Y343900D01*
X264000Y343100D02*Y341500D01*
Y343100D02*X265387Y343900D01*
X264000Y343100D02*X262613Y343900D01*
X260000Y343100D02*Y341500D01*
Y343100D02*X261387Y343900D01*
X260000Y343100D02*X258613Y343900D01*
X260000Y339100D02*Y337500D01*
Y339100D02*X261387Y339900D01*
X260000Y339100D02*X258613Y339900D01*
X264000Y339100D02*Y337500D01*
Y339100D02*X265387Y339900D01*
X264000Y339100D02*X262613Y339900D01*
X268000Y339100D02*Y337500D01*
Y339100D02*X269387Y339900D01*
X268000Y339100D02*X266613Y339900D01*
X268000Y335100D02*Y333500D01*
Y335100D02*X269387Y335900D01*
X268000Y335100D02*X266613Y335900D01*
X264000Y335100D02*Y333500D01*
Y335100D02*X265387Y335900D01*
X264000Y335100D02*X262613Y335900D01*
X260000Y335100D02*Y333500D01*
Y335100D02*X261387Y335900D01*
X260000Y335100D02*X258613Y335900D01*
X260000Y331100D02*Y329500D01*
Y331100D02*X261387Y331900D01*
X260000Y331100D02*X258613Y331900D01*
X264000Y331100D02*Y329500D01*
Y331100D02*X265387Y331900D01*
X264000Y331100D02*X262613Y331900D01*
X268000Y331100D02*Y329500D01*
Y331100D02*X269387Y331900D01*
X268000Y331100D02*X266613Y331900D01*
X268000Y327100D02*Y325500D01*
Y327100D02*X269387Y327900D01*
X268000Y327100D02*X266613Y327900D01*
X264000Y327100D02*Y325500D01*
Y327100D02*X265387Y327900D01*
X264000Y327100D02*X262613Y327900D01*
X260000Y327100D02*Y325500D01*
Y327100D02*X261387Y327900D01*
X260000Y327100D02*X258613Y327900D01*
X276000Y230600D02*Y229000D01*
Y230600D02*X277387Y231400D01*
X276000Y230600D02*X274613Y231400D01*
X243000Y226600D02*Y225000D01*
Y226600D02*X244387Y227400D01*
X243000Y226600D02*X241613Y227400D01*
X243000Y230100D02*Y228500D01*
Y230100D02*X244387Y230900D01*
X243000Y230100D02*X241613Y230900D01*
X276000Y226100D02*Y224500D01*
Y226100D02*X277387Y226900D01*
X276000Y226100D02*X274613Y226900D01*
X269500Y238600D02*Y237000D01*
Y238600D02*X270887Y239400D01*
X269500Y238600D02*X268113Y239400D01*
X362900Y125600D02*Y124000D01*
Y125600D02*X364287Y126400D01*
X362900Y125600D02*X361513Y126400D01*
X389400Y125600D02*Y124000D01*
Y125600D02*X390787Y126400D01*
X389400Y125600D02*X388013Y126400D01*
X288900Y145850D02*Y144250D01*
Y145850D02*X290287Y146650D01*
X288900Y145850D02*X287513Y146650D01*
X293900Y166350D02*Y164750D01*
Y166350D02*X295287Y167150D01*
X293900Y166350D02*X292513Y167150D01*
X445795Y93600D02*Y92000D01*
Y93600D02*X447182Y94400D01*
X445795Y93600D02*X444409Y94400D01*
X478000Y93600D02*Y92000D01*
Y93600D02*X479387Y94400D01*
X478000Y93600D02*X476613Y94400D01*
X271000Y370600D02*Y369000D01*
Y370600D02*X272387Y371400D01*
X271000Y370600D02*X269613Y371400D01*
X271000Y270600D02*Y269000D01*
Y270600D02*X272387Y271400D01*
X271000Y270600D02*X269613Y271400D01*
X130900Y270600D02*Y269000D01*
Y270600D02*X132287Y271400D01*
X130900Y270600D02*X129513Y271400D01*
X130900Y370600D02*Y369000D01*
Y370600D02*X132287Y371400D01*
X130900Y370600D02*X129513Y371400D01*
X68900Y402600D02*Y401000D01*
Y402600D02*X70287Y403400D01*
X68900Y402600D02*X67513Y403400D01*
X68900Y201600D02*Y200000D01*
Y201600D02*X70287Y202400D01*
X68900Y201600D02*X67513Y202400D01*
X179900Y201600D02*Y200000D01*
Y201600D02*X181287Y202400D01*
X179900Y201600D02*X178513Y202400D01*
X179900Y402600D02*Y401000D01*
Y402600D02*X181287Y403400D01*
X179900Y402600D02*X178513Y403400D01*
X82090Y8540D02*Y6940D01*
Y8540D02*X83477Y9340D01*
X82090Y8540D02*X80703Y9340D01*
X103550Y162080D02*Y160480D01*
Y162080D02*X104937Y162880D01*
X103550Y162080D02*X102163Y162880D01*
X135755Y162080D02*Y160480D01*
Y162080D02*X137141Y162880D01*
X135755Y162080D02*X134368Y162880D01*
X103550Y62080D02*Y60480D01*
Y62080D02*X104937Y62880D01*
X103550Y62080D02*X102163Y62880D01*
X135755Y62080D02*Y60480D01*
Y62080D02*X137141Y62880D01*
X135755Y62080D02*X134368Y62880D01*
X122050Y112080D02*Y110480D01*
Y112080D02*X123437Y112880D01*
X122050Y112080D02*X120663Y112880D01*
X15000Y601250D02*Y599650D01*
Y601250D02*X16387Y602050D01*
X15000Y601250D02*X13613Y602050D01*
X135000Y603500D02*Y602750D01*
X136500Y601250D01*
X138000Y602750D01*
Y603500D02*Y602750D01*
X136500Y601250D02*Y597500D01*
X139800Y600500D02*X142050D01*
X139800Y597500D02*X142800D01*
X139800Y603500D02*Y597500D01*
Y603500D02*X142800D01*
X147600D02*X148350Y602750D01*
X145350Y603500D02*X147600D01*
X144600Y602750D02*X145350Y603500D01*
X144600Y602750D02*Y601250D01*
X145350Y600500D01*
X147600D01*
X148350Y599750D01*
Y598250D01*
X147600Y597500D02*X148350Y598250D01*
X145350Y597500D02*X147600D01*
X144600Y598250D02*X145350Y597500D01*
X98000Y600500D02*X101000Y603500D01*
X98000Y600500D02*X101750D01*
X101000Y603500D02*Y597500D01*
X103550Y598250D02*X104300Y597500D01*
X103550Y602750D02*Y598250D01*
Y602750D02*X104300Y603500D01*
X105800D01*
X106550Y602750D01*
Y598250D01*
X105800Y597500D02*X106550Y598250D01*
X104300Y597500D02*X105800D01*
X103550Y599000D02*X106550Y602000D01*
X45000Y598250D02*X45750Y597500D01*
X45000Y602750D02*Y598250D01*
Y602750D02*X45750Y603500D01*
X47250D01*
X48000Y602750D01*
Y598250D01*
X47250Y597500D02*X48000Y598250D01*
X45750Y597500D02*X47250D01*
X45000Y599000D02*X48000Y602000D01*
X49800Y597500D02*X50550D01*
X52350Y598250D02*X53100Y597500D01*
X52350Y602750D02*Y598250D01*
Y602750D02*X53100Y603500D01*
X54600D01*
X55350Y602750D01*
Y598250D01*
X54600Y597500D02*X55350Y598250D01*
X53100Y597500D02*X54600D01*
X52350Y599000D02*X55350Y602000D01*
X57150Y602750D02*X57900Y603500D01*
X60150D01*
X60900Y602750D01*
Y601250D01*
X57150Y597500D02*X60900Y601250D01*
X57150Y597500D02*X60900D01*
X62700Y598250D02*X63450Y597500D01*
X62700Y602750D02*Y598250D01*
Y602750D02*X63450Y603500D01*
X64950D01*
X65700Y602750D01*
Y598250D01*
X64950Y597500D02*X65700Y598250D01*
X63450Y597500D02*X64950D01*
X62700Y599000D02*X65700Y602000D01*
X3000Y618500D02*X3750Y617750D01*
X750Y618500D02*X3000D01*
X0Y617750D02*X750Y618500D01*
X0Y617750D02*Y616250D01*
X750Y615500D01*
X3000D01*
X3750Y614750D01*
Y613250D01*
X3000Y612500D02*X3750Y613250D01*
X750Y612500D02*X3000D01*
X0Y613250D02*X750Y612500D01*
X5550Y615500D02*Y613250D01*
X6300Y612500D01*
X8550Y615500D02*Y611000D01*
X7800Y610250D02*X8550Y611000D01*
X6300Y610250D02*X7800D01*
X5550Y611000D02*X6300Y610250D01*
Y612500D02*X7800D01*
X8550Y613250D01*
X11100Y614750D02*Y612500D01*
Y614750D02*X11850Y615500D01*
X12600D01*
X13350Y614750D01*
Y612500D01*
Y614750D02*X14100Y615500D01*
X14850D01*
X15600Y614750D01*
Y612500D01*
X10350Y615500D02*X11100Y614750D01*
X17400Y618500D02*Y612500D01*
Y613250D02*X18150Y612500D01*
X19650D01*
X20400Y613250D01*
Y614750D02*Y613250D01*
X19650Y615500D02*X20400Y614750D01*
X18150Y615500D02*X19650D01*
X17400Y614750D02*X18150Y615500D01*
X22200Y614750D02*Y613250D01*
Y614750D02*X22950Y615500D01*
X24450D01*
X25200Y614750D01*
Y613250D01*
X24450Y612500D02*X25200Y613250D01*
X22950Y612500D02*X24450D01*
X22200Y613250D02*X22950Y612500D01*
X27000Y618500D02*Y613250D01*
X27750Y612500D01*
X0Y609250D02*X29250D01*
X41750Y618500D02*Y612500D01*
X44000Y618500D02*X44750Y617750D01*
Y613250D01*
X44000Y612500D02*X44750Y613250D01*
X41000Y612500D02*X44000D01*
X41000Y618500D02*X44000D01*
X46550Y617000D02*Y616250D01*
Y614750D02*Y612500D01*
X50300Y615500D02*X51050Y614750D01*
X48800Y615500D02*X50300D01*
X48050Y614750D02*X48800Y615500D01*
X48050Y614750D02*Y613250D01*
X48800Y612500D01*
X51050Y615500D02*Y613250D01*
X51800Y612500D01*
X48800D02*X50300D01*
X51050Y613250D01*
X54350Y614750D02*Y612500D01*
Y614750D02*X55100Y615500D01*
X55850D01*
X56600Y614750D01*
Y612500D01*
Y614750D02*X57350Y615500D01*
X58100D01*
X58850Y614750D01*
Y612500D01*
X53600Y615500D02*X54350Y614750D01*
X60650Y612500D02*X61400D01*
X65900Y613250D02*X66650Y612500D01*
X65900Y617750D02*X66650Y618500D01*
X65900Y617750D02*Y613250D01*
X68450Y618500D02*X69950D01*
X69200D02*Y612500D01*
X68450D02*X69950D01*
X72500Y614750D02*Y612500D01*
Y614750D02*X73250Y615500D01*
X74000D01*
X74750Y614750D01*
Y612500D01*
X71750Y615500D02*X72500Y614750D01*
X77300Y615500D02*X79550D01*
X76550Y614750D02*X77300Y615500D01*
X76550Y614750D02*Y613250D01*
X77300Y612500D01*
X79550D01*
X81350Y618500D02*Y612500D01*
Y614750D02*X82100Y615500D01*
X83600D01*
X84350Y614750D01*
Y612500D01*
X86150Y618500D02*X86900Y617750D01*
Y613250D01*
X86150Y612500D02*X86900Y613250D01*
X41000Y609250D02*X88700D01*
X95750Y612500D02*X98000D01*
X95000Y613250D02*X95750Y612500D01*
X95000Y617750D02*Y613250D01*
Y617750D02*X95750Y618500D01*
X98000D01*
X99800Y614750D02*Y613250D01*
Y614750D02*X100550Y615500D01*
X102050D01*
X102800Y614750D01*
Y613250D01*
X102050Y612500D02*X102800Y613250D01*
X100550Y612500D02*X102050D01*
X99800Y613250D02*X100550Y612500D01*
X104600Y615500D02*Y613250D01*
X105350Y612500D01*
X106850D01*
X107600Y613250D01*
Y615500D02*Y613250D01*
X110150Y614750D02*Y612500D01*
Y614750D02*X110900Y615500D01*
X111650D01*
X112400Y614750D01*
Y612500D01*
X109400Y615500D02*X110150Y614750D01*
X114950Y618500D02*Y613250D01*
X115700Y612500D01*
X114200Y616250D02*X115700D01*
X95000Y609250D02*X117200D01*
X130750Y618500D02*Y612500D01*
X130000Y618500D02*X133000D01*
X133750Y617750D01*
Y616250D01*
X133000Y615500D02*X133750Y616250D01*
X130750Y615500D02*X133000D01*
X135550Y618500D02*Y613250D01*
X136300Y612500D01*
X140050Y615500D02*X140800Y614750D01*
X138550Y615500D02*X140050D01*
X137800Y614750D02*X138550Y615500D01*
X137800Y614750D02*Y613250D01*
X138550Y612500D01*
X140800Y615500D02*Y613250D01*
X141550Y612500D01*
X138550D02*X140050D01*
X140800Y613250D01*
X144100Y618500D02*Y613250D01*
X144850Y612500D01*
X143350Y616250D02*X144850D01*
X147100Y612500D02*X149350D01*
X146350Y613250D02*X147100Y612500D01*
X146350Y614750D02*Y613250D01*
Y614750D02*X147100Y615500D01*
X148600D01*
X149350Y614750D01*
X146350Y614000D02*X149350D01*
Y614750D02*Y614000D01*
X154150Y618500D02*Y612500D01*
X153400D02*X154150Y613250D01*
X151900Y612500D02*X153400D01*
X151150Y613250D02*X151900Y612500D01*
X151150Y614750D02*Y613250D01*
Y614750D02*X151900Y615500D01*
X153400D01*
X154150Y614750D01*
X157450Y615500D02*Y614750D01*
Y613250D02*Y612500D01*
X155950Y617750D02*Y617000D01*
Y617750D02*X156700Y618500D01*
X158200D01*
X158950Y617750D01*
Y617000D01*
X157450Y615500D02*X158950Y617000D01*
X130000Y609250D02*X160750D01*
X0Y633500D02*X3000D01*
X1500D02*Y627500D01*
X4800Y633500D02*Y627500D01*
Y629750D02*X5550Y630500D01*
X7050D01*
X7800Y629750D01*
Y627500D01*
X10350D02*X12600D01*
X9600Y628250D02*X10350Y627500D01*
X9600Y629750D02*Y628250D01*
Y629750D02*X10350Y630500D01*
X11850D01*
X12600Y629750D01*
X9600Y629000D02*X12600D01*
Y629750D02*Y629000D01*
X15150Y629750D02*Y627500D01*
Y629750D02*X15900Y630500D01*
X17400D01*
X14400D02*X15150Y629750D01*
X19950Y627500D02*X22200D01*
X19200Y628250D02*X19950Y627500D01*
X19200Y629750D02*Y628250D01*
Y629750D02*X19950Y630500D01*
X21450D01*
X22200Y629750D01*
X19200Y629000D02*X22200D01*
Y629750D02*Y629000D01*
X28950Y630500D02*X29700Y629750D01*
X27450Y630500D02*X28950D01*
X26700Y629750D02*X27450Y630500D01*
X26700Y629750D02*Y628250D01*
X27450Y627500D01*
X29700Y630500D02*Y628250D01*
X30450Y627500D01*
X27450D02*X28950D01*
X29700Y628250D01*
X33000Y629750D02*Y627500D01*
Y629750D02*X33750Y630500D01*
X35250D01*
X32250D02*X33000Y629750D01*
X37800Y627500D02*X40050D01*
X37050Y628250D02*X37800Y627500D01*
X37050Y629750D02*Y628250D01*
Y629750D02*X37800Y630500D01*
X39300D01*
X40050Y629750D01*
X37050Y629000D02*X40050D01*
Y629750D02*Y629000D01*
X44550Y627500D02*X48300Y631250D01*
Y633500D02*Y631250D01*
X44550Y633500D02*X48300D01*
X55800D02*Y627500D01*
X55050D02*X55800Y628250D01*
X53550Y627500D02*X55050D01*
X52800Y628250D02*X53550Y627500D01*
X52800Y629750D02*Y628250D01*
Y629750D02*X53550Y630500D01*
X55050D01*
X55800Y629750D01*
X57600Y632000D02*Y631250D01*
Y629750D02*Y627500D01*
X59850Y632750D02*Y627500D01*
Y632750D02*X60600Y633500D01*
X61350D01*
X59100Y630500D02*X60600D01*
X63600Y632750D02*Y627500D01*
Y632750D02*X64350Y633500D01*
X65100D01*
X62850Y630500D02*X64350D01*
X67350Y627500D02*X69600D01*
X66600Y628250D02*X67350Y627500D01*
X66600Y629750D02*Y628250D01*
Y629750D02*X67350Y630500D01*
X68850D01*
X69600Y629750D01*
X66600Y629000D02*X69600D01*
Y629750D02*Y629000D01*
X72150Y629750D02*Y627500D01*
Y629750D02*X72900Y630500D01*
X74400D01*
X71400D02*X72150Y629750D01*
X76950Y627500D02*X79200D01*
X76200Y628250D02*X76950Y627500D01*
X76200Y629750D02*Y628250D01*
Y629750D02*X76950Y630500D01*
X78450D01*
X79200Y629750D01*
X76200Y629000D02*X79200D01*
Y629750D02*Y629000D01*
X81750Y629750D02*Y627500D01*
Y629750D02*X82500Y630500D01*
X83250D01*
X84000Y629750D01*
Y627500D01*
X81000Y630500D02*X81750Y629750D01*
X86550Y633500D02*Y628250D01*
X87300Y627500D01*
X85800Y631250D02*X87300D01*
X94500Y633500D02*Y627500D01*
X93750D02*X94500Y628250D01*
X92250Y627500D02*X93750D01*
X91500Y628250D02*X92250Y627500D01*
X91500Y629750D02*Y628250D01*
Y629750D02*X92250Y630500D01*
X93750D01*
X94500Y629750D01*
X97050D02*Y627500D01*
Y629750D02*X97800Y630500D01*
X99300D01*
X96300D02*X97050Y629750D01*
X101100Y632000D02*Y631250D01*
Y629750D02*Y627500D01*
X102600Y633500D02*Y628250D01*
X103350Y627500D01*
X104850Y633500D02*Y628250D01*
X105600Y627500D01*
X110550D02*X112800D01*
X113550Y628250D01*
X112800Y629000D02*X113550Y628250D01*
X110550Y629000D02*X112800D01*
X109800Y629750D02*X110550Y629000D01*
X109800Y629750D02*X110550Y630500D01*
X112800D01*
X113550Y629750D01*
X109800Y628250D02*X110550Y627500D01*
X115350Y632000D02*Y631250D01*
Y629750D02*Y627500D01*
X116850Y630500D02*X119850D01*
X116850Y627500D02*X119850Y630500D01*
X116850Y627500D02*X119850D01*
X122400D02*X124650D01*
X121650Y628250D02*X122400Y627500D01*
X121650Y629750D02*Y628250D01*
Y629750D02*X122400Y630500D01*
X123900D01*
X124650Y629750D01*
X121650Y629000D02*X124650D01*
Y629750D02*Y629000D01*
X127200Y627500D02*X129450D01*
X130200Y628250D01*
X129450Y629000D02*X130200Y628250D01*
X127200Y629000D02*X129450D01*
X126450Y629750D02*X127200Y629000D01*
X126450Y629750D02*X127200Y630500D01*
X129450D01*
X130200Y629750D01*
X126450Y628250D02*X127200Y627500D01*
X134700Y630500D02*Y628250D01*
X135450Y627500D01*
X136950D01*
X137700Y628250D01*
Y630500D02*Y628250D01*
X140250Y627500D02*X142500D01*
X143250Y628250D01*
X142500Y629000D02*X143250Y628250D01*
X140250Y629000D02*X142500D01*
X139500Y629750D02*X140250Y629000D01*
X139500Y629750D02*X140250Y630500D01*
X142500D01*
X143250Y629750D01*
X139500Y628250D02*X140250Y627500D01*
X145800D02*X148050D01*
X145050Y628250D02*X145800Y627500D01*
X145050Y629750D02*Y628250D01*
Y629750D02*X145800Y630500D01*
X147300D01*
X148050Y629750D01*
X145050Y629000D02*X148050D01*
Y629750D02*Y629000D01*
X152850Y633500D02*Y627500D01*
X152100D02*X152850Y628250D01*
X150600Y627500D02*X152100D01*
X149850Y628250D02*X150600Y627500D01*
X149850Y629750D02*Y628250D01*
Y629750D02*X150600Y630500D01*
X152100D01*
X152850Y629750D01*
X157350Y632000D02*Y631250D01*
Y629750D02*Y627500D01*
X159600Y629750D02*Y627500D01*
Y629750D02*X160350Y630500D01*
X161100D01*
X161850Y629750D01*
Y627500D01*
X158850Y630500D02*X159600Y629750D01*
X167100Y633500D02*Y628250D01*
X167850Y627500D01*
X166350Y631250D02*X167850D01*
X169350Y633500D02*Y627500D01*
Y629750D02*X170100Y630500D01*
X171600D01*
X172350Y629750D01*
Y627500D01*
X174150Y632000D02*Y631250D01*
Y629750D02*Y627500D01*
X176400D02*X178650D01*
X179400Y628250D01*
X178650Y629000D02*X179400Y628250D01*
X176400Y629000D02*X178650D01*
X175650Y629750D02*X176400Y629000D01*
X175650Y629750D02*X176400Y630500D01*
X178650D01*
X179400Y629750D01*
X175650Y628250D02*X176400Y627500D01*
X183900Y633500D02*Y628250D01*
X184650Y627500D01*
X188400Y630500D02*X189150Y629750D01*
X186900Y630500D02*X188400D01*
X186150Y629750D02*X186900Y630500D01*
X186150Y629750D02*Y628250D01*
X186900Y627500D01*
X189150Y630500D02*Y628250D01*
X189900Y627500D01*
X186900D02*X188400D01*
X189150Y628250D01*
X191700Y630500D02*Y628250D01*
X192450Y627500D01*
X194700Y630500D02*Y626000D01*
X193950Y625250D02*X194700Y626000D01*
X192450Y625250D02*X193950D01*
X191700Y626000D02*X192450Y625250D01*
Y627500D02*X193950D01*
X194700Y628250D01*
X196500Y629750D02*Y628250D01*
Y629750D02*X197250Y630500D01*
X198750D01*
X199500Y629750D01*
Y628250D01*
X198750Y627500D02*X199500Y628250D01*
X197250Y627500D02*X198750D01*
X196500Y628250D02*X197250Y627500D01*
X201300Y630500D02*Y628250D01*
X202050Y627500D01*
X203550D01*
X204300Y628250D01*
Y630500D02*Y628250D01*
X206850Y633500D02*Y628250D01*
X207600Y627500D01*
X206100Y631250D02*X207600D01*
X209100Y626000D02*X210600Y627500D01*
X215850D02*X217350D01*
X216600Y633500D02*Y627500D01*
X215100Y632000D02*X216600Y633500D01*
X219150Y630500D02*X222150Y633500D01*
X219150Y630500D02*X222900D01*
X222150Y633500D02*Y627500D01*
X224700Y633500D02*X227700D01*
X224700D02*Y630500D01*
X225450Y631250D01*
X226950D01*
X227700Y630500D01*
Y628250D01*
X226950Y627500D02*X227700Y628250D01*
X225450Y627500D02*X226950D01*
X224700Y628250D02*X225450Y627500D01*
X232200Y633500D02*Y627500D01*
Y629750D02*X232950Y630500D01*
X234450D01*
X235200Y629750D01*
Y627500D01*
X237000Y629750D02*Y628250D01*
Y629750D02*X237750Y630500D01*
X239250D01*
X240000Y629750D01*
Y628250D01*
X239250Y627500D02*X240000Y628250D01*
X237750Y627500D02*X239250D01*
X237000Y628250D02*X237750Y627500D01*
X241800Y633500D02*Y628250D01*
X242550Y627500D01*
X244800D02*X247050D01*
X244050Y628250D02*X244800Y627500D01*
X244050Y629750D02*Y628250D01*
Y629750D02*X244800Y630500D01*
X246300D01*
X247050Y629750D01*
X244050Y629000D02*X247050D01*
Y629750D02*Y629000D01*
X249600Y627500D02*X251850D01*
X252600Y628250D01*
X251850Y629000D02*X252600Y628250D01*
X249600Y629000D02*X251850D01*
X248850Y629750D02*X249600Y629000D01*
X248850Y629750D02*X249600Y630500D01*
X251850D01*
X252600Y629750D01*
X248850Y628250D02*X249600Y627500D01*
X257850Y633500D02*Y628250D01*
X258600Y627500D01*
X257100Y631250D02*X258600D01*
X260100Y629750D02*Y628250D01*
Y629750D02*X260850Y630500D01*
X262350D01*
X263100Y629750D01*
Y628250D01*
X262350Y627500D02*X263100Y628250D01*
X260850Y627500D02*X262350D01*
X260100Y628250D02*X260850Y627500D01*
X265650Y633500D02*Y628250D01*
X266400Y627500D01*
X264900Y631250D02*X266400D01*
X270150Y630500D02*X270900Y629750D01*
X268650Y630500D02*X270150D01*
X267900Y629750D02*X268650Y630500D01*
X267900Y629750D02*Y628250D01*
X268650Y627500D01*
X270900Y630500D02*Y628250D01*
X271650Y627500D01*
X268650D02*X270150D01*
X270900Y628250D01*
X273450Y633500D02*Y628250D01*
X274200Y627500D01*
G54D98*X209000Y402600D02*X320000D01*
Y201600D01*
X209000D01*
Y402600D01*
X208900Y191600D02*X402400D01*
X413900Y180100D02*Y44100D01*
X402400Y32600D02*X208900D01*
Y191600D01*
X68900Y402600D02*X179900D01*
Y201600D01*
X68900D01*
Y402600D01*
X124400Y31980D02*Y19480D01*
X44400Y24180D02*X204400D01*
X44400Y19480D02*X204400D01*
X120200Y31980D02*X128600D01*
X124400Y479480D02*Y466980D01*
X44400Y474780D02*X204400D01*
X44400Y479480D02*X204400D01*
X120200Y466980D02*X128600D01*
X420640Y459730D02*Y447230D01*
X340640Y455030D02*X500640D01*
X340640Y459730D02*X500640D01*
X416440Y447230D02*X424840D01*
X420070Y414010D02*Y401510D01*
X340070Y406210D02*X500070D01*
X340070Y401510D02*X500070D01*
X415870Y414010D02*X424270D01*
X402400Y191600D02*G75*G02X413900Y180100I0J-11500D01*G01*
Y44100D02*G75*G02X402400Y32600I-11500J0D01*G01*
G54D97*X176175Y-9500D02*X179175D01*
X179925Y-8750D01*
Y-7250D02*Y-8750D01*
X179175Y-6500D02*X179925Y-7250D01*
X176925Y-6500D02*X179175D01*
X176925Y-3500D02*Y-9500D01*
X176175Y-3500D02*X179175D01*
X179925Y-4250D01*
Y-5750D01*
X179175Y-6500D02*X179925Y-5750D01*
X181725Y-7250D02*Y-8750D01*
Y-7250D02*X182475Y-6500D01*
X183975D01*
X184725Y-7250D01*
Y-8750D01*
X183975Y-9500D02*X184725Y-8750D01*
X182475Y-9500D02*X183975D01*
X181725Y-8750D02*X182475Y-9500D01*
X188775Y-6500D02*X189525Y-7250D01*
X187275Y-6500D02*X188775D01*
X186525Y-7250D02*X187275Y-6500D01*
X186525Y-7250D02*Y-8750D01*
X187275Y-9500D01*
X189525Y-6500D02*Y-8750D01*
X190275Y-9500D01*
X187275D02*X188775D01*
X189525Y-8750D01*
X192825Y-7250D02*Y-9500D01*
Y-7250D02*X193575Y-6500D01*
X195075D01*
X192075D02*X192825Y-7250D01*
X199875Y-3500D02*Y-9500D01*
X199125D02*X199875Y-8750D01*
X197625Y-9500D02*X199125D01*
X196875Y-8750D02*X197625Y-9500D01*
X196875Y-7250D02*Y-8750D01*
Y-7250D02*X197625Y-6500D01*
X199125D01*
X199875Y-7250D01*
X204375D02*Y-8750D01*
Y-7250D02*X205125Y-6500D01*
X206625D01*
X207375Y-7250D01*
Y-8750D01*
X206625Y-9500D02*X207375Y-8750D01*
X205125Y-9500D02*X206625D01*
X204375Y-8750D02*X205125Y-9500D01*
X209175Y-6500D02*Y-8750D01*
X209925Y-9500D01*
X211425D01*
X212175Y-8750D01*
Y-6500D02*Y-8750D01*
X214725Y-3500D02*Y-8750D01*
X215475Y-9500D01*
X213975Y-5750D02*X215475D01*
X216975Y-3500D02*Y-8750D01*
X217725Y-9500D01*
X219225Y-5000D02*Y-5750D01*
Y-7250D02*Y-9500D01*
X221475Y-7250D02*Y-9500D01*
Y-7250D02*X222225Y-6500D01*
X222975D01*
X223725Y-7250D01*
Y-9500D01*
X220725Y-6500D02*X221475Y-7250D01*
X226275Y-9500D02*X228525D01*
X225525Y-8750D02*X226275Y-9500D01*
X225525Y-7250D02*Y-8750D01*
Y-7250D02*X226275Y-6500D01*
X227775D01*
X228525Y-7250D01*
X225525Y-8000D02*X228525D01*
Y-7250D02*Y-8000D01*
X233025Y-5000D02*Y-5750D01*
Y-7250D02*Y-9500D01*
X235275D02*X237525D01*
X238275Y-8750D01*
X237525Y-8000D02*X238275Y-8750D01*
X235275Y-8000D02*X237525D01*
X234525Y-7250D02*X235275Y-8000D01*
X234525Y-7250D02*X235275Y-6500D01*
X237525D01*
X238275Y-7250D01*
X234525Y-8750D02*X235275Y-9500D01*
X243525Y-3500D02*Y-8750D01*
X244275Y-9500D01*
X242775Y-5750D02*X244275D01*
X245775Y-3500D02*Y-9500D01*
Y-7250D02*X246525Y-6500D01*
X248025D01*
X248775Y-7250D01*
Y-9500D01*
X251325D02*X253575D01*
X250575Y-8750D02*X251325Y-9500D01*
X250575Y-7250D02*Y-8750D01*
Y-7250D02*X251325Y-6500D01*
X252825D01*
X253575Y-7250D01*
X250575Y-8000D02*X253575D01*
Y-7250D02*Y-8000D01*
X258825Y-6500D02*X261075D01*
X258075Y-7250D02*X258825Y-6500D01*
X258075Y-7250D02*Y-8750D01*
X258825Y-9500D01*
X261075D01*
X263625D02*X265875D01*
X262875Y-8750D02*X263625Y-9500D01*
X262875Y-7250D02*Y-8750D01*
Y-7250D02*X263625Y-6500D01*
X265125D01*
X265875Y-7250D01*
X262875Y-8000D02*X265875D01*
Y-7250D02*Y-8000D01*
X268425Y-7250D02*Y-9500D01*
Y-7250D02*X269175Y-6500D01*
X269925D01*
X270675Y-7250D01*
Y-9500D01*
X267675Y-6500D02*X268425Y-7250D01*
X273225Y-3500D02*Y-8750D01*
X273975Y-9500D01*
X272475Y-5750D02*X273975D01*
X276225Y-9500D02*X278475D01*
X275475Y-8750D02*X276225Y-9500D01*
X275475Y-7250D02*Y-8750D01*
Y-7250D02*X276225Y-6500D01*
X277725D01*
X278475Y-7250D01*
X275475Y-8000D02*X278475D01*
Y-7250D02*Y-8000D01*
X281025Y-7250D02*Y-9500D01*
Y-7250D02*X281775Y-6500D01*
X283275D01*
X280275D02*X281025Y-7250D01*
X285075Y-3500D02*Y-8750D01*
X285825Y-9500D01*
X287325Y-5000D02*Y-5750D01*
Y-7250D02*Y-9500D01*
X289575Y-7250D02*Y-9500D01*
Y-7250D02*X290325Y-6500D01*
X291075D01*
X291825Y-7250D01*
Y-9500D01*
X288825Y-6500D02*X289575Y-7250D01*
X294375Y-9500D02*X296625D01*
X293625Y-8750D02*X294375Y-9500D01*
X293625Y-7250D02*Y-8750D01*
Y-7250D02*X294375Y-6500D01*
X295875D01*
X296625Y-7250D01*
X293625Y-8000D02*X296625D01*
Y-7250D02*Y-8000D01*
X301125Y-7250D02*Y-8750D01*
Y-7250D02*X301875Y-6500D01*
X303375D01*
X304125Y-7250D01*
Y-8750D01*
X303375Y-9500D02*X304125Y-8750D01*
X301875Y-9500D02*X303375D01*
X301125Y-8750D02*X301875Y-9500D01*
X306675Y-4250D02*Y-9500D01*
Y-4250D02*X307425Y-3500D01*
X308175D01*
X305925Y-6500D02*X307425D01*
X313125Y-3500D02*Y-8750D01*
X313875Y-9500D01*
X312375Y-5750D02*X313875D01*
X315375Y-3500D02*Y-9500D01*
Y-7250D02*X316125Y-6500D01*
X317625D01*
X318375Y-7250D01*
Y-9500D01*
X320175Y-5000D02*Y-5750D01*
Y-7250D02*Y-9500D01*
X322425D02*X324675D01*
X325425Y-8750D01*
X324675Y-8000D02*X325425Y-8750D01*
X322425Y-8000D02*X324675D01*
X321675Y-7250D02*X322425Y-8000D01*
X321675Y-7250D02*X322425Y-6500D01*
X324675D01*
X325425Y-7250D01*
X321675Y-8750D02*X322425Y-9500D01*
X330675Y-7250D02*Y-11750D01*
X329925Y-6500D02*X330675Y-7250D01*
X331425Y-6500D01*
X332925D01*
X333675Y-7250D01*
Y-8750D01*
X332925Y-9500D02*X333675Y-8750D01*
X331425Y-9500D02*X332925D01*
X330675Y-8750D02*X331425Y-9500D01*
X337725Y-6500D02*X338475Y-7250D01*
X336225Y-6500D02*X337725D01*
X335475Y-7250D02*X336225Y-6500D01*
X335475Y-7250D02*Y-8750D01*
X336225Y-9500D01*
X338475Y-6500D02*Y-8750D01*
X339225Y-9500D01*
X336225D02*X337725D01*
X338475Y-8750D01*
X341775Y-3500D02*Y-8750D01*
X342525Y-9500D01*
X341025Y-5750D02*X342525D01*
X344025Y-3500D02*Y-9500D01*
Y-7250D02*X344775Y-6500D01*
X346275D01*
X347025Y-7250D01*
Y-9500D01*
X200750Y528500D02*Y522500D01*
X203000Y528500D02*X203750Y527750D01*
Y523250D01*
X203000Y522500D02*X203750Y523250D01*
X200000Y522500D02*X203000D01*
X200000Y528500D02*X203000D01*
X207800Y525500D02*X208550Y524750D01*
X206300Y525500D02*X207800D01*
X205550Y524750D02*X206300Y525500D01*
X205550Y524750D02*Y523250D01*
X206300Y522500D01*
X208550Y525500D02*Y523250D01*
X209300Y522500D01*
X206300D02*X207800D01*
X208550Y523250D01*
X211850Y528500D02*Y523250D01*
X212600Y522500D01*
X211100Y526250D02*X212600D01*
X214850Y522500D02*X217100D01*
X214100Y523250D02*X214850Y522500D01*
X214100Y524750D02*Y523250D01*
Y524750D02*X214850Y525500D01*
X216350D01*
X217100Y524750D01*
X214100Y524000D02*X217100D01*
Y524750D02*Y524000D01*
X218900Y526250D02*X219650D01*
X218900Y524750D02*X219650D01*
X224150Y528500D02*X227150D01*
X225650D02*Y522500D01*
X228950Y525500D02*Y523250D01*
X229700Y522500D01*
X231200D01*
X231950Y523250D01*
Y525500D02*Y523250D01*
X234500Y522500D02*X236750D01*
X233750Y523250D02*X234500Y522500D01*
X233750Y524750D02*Y523250D01*
Y524750D02*X234500Y525500D01*
X236000D01*
X236750Y524750D01*
X233750Y524000D02*X236750D01*
Y524750D02*Y524000D01*
X241250Y527750D02*X242000Y528500D01*
X244250D01*
X245000Y527750D01*
Y526250D01*
X241250Y522500D02*X245000Y526250D01*
X241250Y522500D02*X245000D01*
X246800Y527750D02*X247550Y528500D01*
X249800D01*
X250550Y527750D01*
Y526250D01*
X246800Y522500D02*X250550Y526250D01*
X246800Y522500D02*X250550D01*
X255800Y528500D02*Y522500D01*
X258050Y528500D02*X258800Y527750D01*
Y523250D01*
X258050Y522500D02*X258800Y523250D01*
X255050Y522500D02*X258050D01*
X255050Y528500D02*X258050D01*
X261350Y522500D02*X263600D01*
X260600Y523250D02*X261350Y522500D01*
X260600Y524750D02*Y523250D01*
Y524750D02*X261350Y525500D01*
X262850D01*
X263600Y524750D01*
X260600Y524000D02*X263600D01*
Y524750D02*Y524000D01*
X266150Y525500D02*X268400D01*
X265400Y524750D02*X266150Y525500D01*
X265400Y524750D02*Y523250D01*
X266150Y522500D01*
X268400D01*
X272900Y527750D02*X273650Y528500D01*
X275900D01*
X276650Y527750D01*
Y526250D01*
X272900Y522500D02*X276650Y526250D01*
X272900Y522500D02*X276650D01*
X278450Y523250D02*X279200Y522500D01*
X278450Y527750D02*Y523250D01*
Y527750D02*X279200Y528500D01*
X280700D01*
X281450Y527750D01*
Y523250D01*
X280700Y522500D02*X281450Y523250D01*
X279200Y522500D02*X280700D01*
X278450Y524000D02*X281450Y527000D01*
X284000Y522500D02*X285500D01*
X284750Y528500D02*Y522500D01*
X283250Y527000D02*X284750Y528500D01*
X287300D02*X290300D01*
X287300D02*Y525500D01*
X288050Y526250D01*
X289550D01*
X290300Y525500D01*
Y523250D01*
X289550Y522500D02*X290300Y523250D01*
X288050Y522500D02*X289550D01*
X287300Y523250D02*X288050Y522500D01*
X294800Y523250D02*X295550Y522500D01*
X294800Y527750D02*Y523250D01*
Y527750D02*X295550Y528500D01*
X297050D01*
X297800Y527750D01*
Y523250D01*
X297050Y522500D02*X297800Y523250D01*
X295550Y522500D02*X297050D01*
X294800Y524000D02*X297800Y527000D01*
X299600Y527750D02*X300350Y528500D01*
X301850D01*
X302600Y527750D01*
Y523250D01*
X301850Y522500D02*X302600Y523250D01*
X300350Y522500D02*X301850D01*
X299600Y523250D02*X300350Y522500D01*
Y525500D02*X302600D01*
X304400Y526250D02*X305150D01*
X304400Y524750D02*X305150D01*
X306950Y525500D02*X309950Y528500D01*
X306950Y525500D02*X310700D01*
X309950Y528500D02*Y522500D01*
X312500Y527750D02*X313250Y528500D01*
X314750D01*
X315500Y527750D01*
Y523250D01*
X314750Y522500D02*X315500Y523250D01*
X313250Y522500D02*X314750D01*
X312500Y523250D02*X313250Y522500D01*
Y525500D02*X315500D01*
X317300Y526250D02*X318050D01*
X317300Y524750D02*X318050D01*
X319850Y525500D02*X322850Y528500D01*
X319850Y525500D02*X323600D01*
X322850Y528500D02*Y522500D01*
X325400Y525500D02*X328400Y528500D01*
X325400Y525500D02*X329150D01*
X328400Y528500D02*Y522500D01*
X334400Y528500D02*Y522500D01*
X333650Y528500D02*X336650D01*
X337400Y527750D01*
Y526250D01*
X336650Y525500D02*X337400Y526250D01*
X334400Y525500D02*X336650D01*
X339200Y528500D02*Y522500D01*
Y528500D02*X341450Y526250D01*
X343700Y528500D01*
Y522500D01*
X351200Y528500D02*X351950Y527750D01*
X348950Y528500D02*X351200D01*
X348200Y527750D02*X348950Y528500D01*
X348200Y527750D02*Y523250D01*
X348950Y522500D01*
X351200D01*
X351950Y523250D01*
Y524750D02*Y523250D01*
X351200Y525500D02*X351950Y524750D01*
X349700Y525500D02*X351200D01*
X353750Y528500D02*Y522500D01*
Y528500D02*X356000Y526250D01*
X358250Y528500D01*
Y522500D01*
X360050Y528500D02*X363050D01*
X361550D02*Y522500D01*
X367550Y528500D02*Y523250D01*
X368300Y522500D01*
X369800D01*
X370550Y523250D01*
Y528500D02*Y523250D01*
X372350Y528500D02*X375350D01*
X373850D02*Y522500D01*
X377900D02*X380150D01*
X377150Y523250D02*X377900Y522500D01*
X377150Y527750D02*Y523250D01*
Y527750D02*X377900Y528500D01*
X380150D01*
X200000Y542750D02*Y537500D01*
Y542750D02*X200750Y543500D01*
X203000D01*
X203750Y542750D01*
Y537500D01*
X200000Y540500D02*X203750D01*
X205550D02*Y538250D01*
X206300Y537500D01*
X207800D01*
X208550Y538250D01*
Y540500D02*Y538250D01*
X211100Y543500D02*Y538250D01*
X211850Y537500D01*
X210350Y541250D02*X211850D01*
X213350Y543500D02*Y537500D01*
Y539750D02*X214100Y540500D01*
X215600D01*
X216350Y539750D01*
Y537500D01*
X218150Y539750D02*Y538250D01*
Y539750D02*X218900Y540500D01*
X220400D01*
X221150Y539750D01*
Y538250D01*
X220400Y537500D02*X221150Y538250D01*
X218900Y537500D02*X220400D01*
X218150Y538250D02*X218900Y537500D01*
X223700Y539750D02*Y537500D01*
Y539750D02*X224450Y540500D01*
X225950D01*
X222950D02*X223700Y539750D01*
X227750Y541250D02*X228500D01*
X227750Y539750D02*X228500D01*
X200000Y558500D02*X203000D01*
X201500D02*Y552500D01*
X204800Y557000D02*Y556250D01*
Y554750D02*Y552500D01*
X207050Y558500D02*Y553250D01*
X207800Y552500D01*
X206300Y556250D02*X207800D01*
X209300Y558500D02*Y553250D01*
X210050Y552500D01*
X212300D02*X214550D01*
X211550Y553250D02*X212300Y552500D01*
X211550Y554750D02*Y553250D01*
Y554750D02*X212300Y555500D01*
X213800D01*
X214550Y554750D01*
X211550Y554000D02*X214550D01*
Y554750D02*Y554000D01*
X216350Y556250D02*X217100D01*
X216350Y554750D02*X217100D01*
X221600Y553250D02*X222350Y552500D01*
X221600Y557750D02*X222350Y558500D01*
X221600Y557750D02*Y553250D01*
X224150Y555500D02*Y553250D01*
X224900Y552500D01*
X226400D01*
X227150Y553250D01*
Y555500D02*Y553250D01*
X229700Y554750D02*Y552500D01*
Y554750D02*X230450Y555500D01*
X231200D01*
X231950Y554750D01*
Y552500D01*
X228950Y555500D02*X229700Y554750D01*
X233750Y558500D02*Y552500D01*
Y554750D02*X236000Y552500D01*
X233750Y554750D02*X235250Y556250D01*
X238550Y554750D02*Y552500D01*
Y554750D02*X239300Y555500D01*
X240050D01*
X240800Y554750D01*
Y552500D01*
X237800Y555500D02*X238550Y554750D01*
X242600D02*Y553250D01*
Y554750D02*X243350Y555500D01*
X244850D01*
X245600Y554750D01*
Y553250D01*
X244850Y552500D02*X245600Y553250D01*
X243350Y552500D02*X244850D01*
X242600Y553250D02*X243350Y552500D01*
X247400Y555500D02*Y553250D01*
X248150Y552500D01*
X248900D01*
X249650Y553250D01*
Y555500D02*Y553250D01*
X250400Y552500D01*
X251150D01*
X251900Y553250D01*
Y555500D02*Y553250D01*
X254450Y554750D02*Y552500D01*
Y554750D02*X255200Y555500D01*
X255950D01*
X256700Y554750D01*
Y552500D01*
X253700Y555500D02*X254450Y554750D01*
X258500Y558500D02*X259250Y557750D01*
Y553250D01*
X258500Y552500D02*X259250Y553250D01*
X263750Y555500D02*X266750D01*
X271250Y558500D02*Y552500D01*
Y558500D02*X274250D01*
X271250Y555500D02*X273500D01*
X278300D02*X279050Y554750D01*
X276800Y555500D02*X278300D01*
X276050Y554750D02*X276800Y555500D01*
X276050Y554750D02*Y553250D01*
X276800Y552500D01*
X279050Y555500D02*Y553250D01*
X279800Y552500D01*
X276800D02*X278300D01*
X279050Y553250D01*
X281600Y558500D02*Y552500D01*
Y553250D02*X282350Y552500D01*
X283850D01*
X284600Y553250D01*
Y554750D02*Y553250D01*
X283850Y555500D02*X284600Y554750D01*
X282350Y555500D02*X283850D01*
X281600Y554750D02*X282350Y555500D01*
X287150Y554750D02*Y552500D01*
Y554750D02*X287900Y555500D01*
X289400D01*
X286400D02*X287150Y554750D01*
X291200Y557000D02*Y556250D01*
Y554750D02*Y552500D01*
X293450Y555500D02*X295700D01*
X292700Y554750D02*X293450Y555500D01*
X292700Y554750D02*Y553250D01*
X293450Y552500D01*
X295700D01*
X299750Y555500D02*X300500Y554750D01*
X298250Y555500D02*X299750D01*
X297500Y554750D02*X298250Y555500D01*
X297500Y554750D02*Y553250D01*
X298250Y552500D01*
X300500Y555500D02*Y553250D01*
X301250Y552500D01*
X298250D02*X299750D01*
X300500Y553250D01*
X303800Y558500D02*Y553250D01*
X304550Y552500D01*
X303050Y556250D02*X304550D01*
X306050Y557000D02*Y556250D01*
Y554750D02*Y552500D01*
X307550Y554750D02*Y553250D01*
Y554750D02*X308300Y555500D01*
X309800D01*
X310550Y554750D01*
Y553250D01*
X309800Y552500D02*X310550Y553250D01*
X308300Y552500D02*X309800D01*
X307550Y553250D02*X308300Y552500D01*
X313100Y554750D02*Y552500D01*
Y554750D02*X313850Y555500D01*
X314600D01*
X315350Y554750D01*
Y552500D01*
X312350Y555500D02*X313100Y554750D01*
X320600Y558500D02*Y552500D01*
X322850Y558500D02*X323600Y557750D01*
Y553250D01*
X322850Y552500D02*X323600Y553250D01*
X319850Y552500D02*X322850D01*
X319850Y558500D02*X322850D01*
X326150Y554750D02*Y552500D01*
Y554750D02*X326900Y555500D01*
X328400D01*
X325400D02*X326150Y554750D01*
X332450Y555500D02*X333200Y554750D01*
X330950Y555500D02*X332450D01*
X330200Y554750D02*X330950Y555500D01*
X330200Y554750D02*Y553250D01*
X330950Y552500D01*
X333200Y555500D02*Y553250D01*
X333950Y552500D01*
X330950D02*X332450D01*
X333200Y553250D01*
X335750Y555500D02*Y553250D01*
X336500Y552500D01*
X337250D01*
X338000Y553250D01*
Y555500D02*Y553250D01*
X338750Y552500D01*
X339500D01*
X340250Y553250D01*
Y555500D02*Y553250D01*
X342050Y557000D02*Y556250D01*
Y554750D02*Y552500D01*
X344300Y554750D02*Y552500D01*
Y554750D02*X345050Y555500D01*
X345800D01*
X346550Y554750D01*
Y552500D01*
X343550Y555500D02*X344300Y554750D01*
X350600Y555500D02*X351350Y554750D01*
X349100Y555500D02*X350600D01*
X348350Y554750D02*X349100Y555500D01*
X348350Y554750D02*Y553250D01*
X349100Y552500D01*
X350600D01*
X351350Y553250D01*
X348350Y551000D02*X349100Y550250D01*
X350600D01*
X351350Y551000D01*
Y555500D02*Y551000D01*
M02*
