M48
INCH
T59C0.035
T58C0.020
T57C0.032
T56C0.079
T55C0.040
T54C0.038
T53C0.022
%
T58
X006890Y045000
X006890Y024900
X008209Y005594
X010420Y020950
X010420Y010950
X012440Y046940
X013090Y041800
X013090Y031800
X013640Y020950
X013640Y010950
X017990Y045000
X017990Y024900
X024300Y027750
X024300Y027400
X026000Y039050
X026000Y038650
X026000Y038250
X026000Y037850
X026000Y037450
X026400Y039050
X026400Y038650
X026400Y038250
X026400Y037850
X026400Y037450
X026800Y039050
X026800Y038650
X026800Y038250
X026800Y037850
X026800Y037450
X026950Y028600
X027100Y041800
X027100Y031800
X027600Y027800
X027600Y027350
X028890Y019325
X029390Y021375
X036290Y017300
X038940Y017300
X044580Y014100
X047800Y014100
T53
X026100Y041800
X026100Y031800
X027100Y040800
X027100Y030800
X028100Y041800
X028100Y031800
T57
X025940Y020950
X025940Y019950
X025940Y010950
X025940Y009950
T59
X022600Y042100
X022600Y039100
X022675Y037425
X023250Y040600
X026350Y035550
X026890Y021800
X028540Y011450
X029650Y038100
X029890Y018200
X030450Y036650
X030690Y012050
X032440Y009350
X032549Y011259
X035498Y019058
X038298Y021342
T54
X021450Y044450
X021450Y043450
X021450Y042450
X021450Y041450
X021450Y040450
X021450Y039450
X021450Y038450
X021450Y037450
X021450Y036450
X021450Y035450
X021450Y034450
X021450Y033450
X021450Y032450
X021450Y031450
X021450Y030450
X021450Y029450
X021450Y028450
X021450Y027450
X021450Y026450
X021450Y025450
X022450Y044450
X022450Y034450
X022450Y025450
X023450Y044450
X023450Y034450
X023450Y025450
X024450Y044450
X024450Y034450
X024450Y025450
X025450Y044450
X025450Y034450
X025450Y025450
X026450Y044450
X026450Y034450
X026450Y025450
X027450Y044450
X027450Y034450
X027450Y025450
X028450Y044450
X028450Y034450
X028450Y025450
X029450Y044450
X029450Y034450
X029450Y025450
X030450Y044450
X030450Y034450
X030450Y025450
X031450Y044450
X031450Y043450
X031450Y042450
X031450Y041450
X031450Y040450
X031450Y039450
X031450Y038450
X031450Y037450
X031450Y036450
X031450Y035450
X031450Y034450
X031450Y033450
X031450Y032450
X031450Y031450
X031450Y030450
X031450Y029450
X031450Y028450
X031450Y027450
X031450Y026450
X031450Y025450
T55
X035190Y015850
X036190Y015850
X036190Y010850
X037190Y015850
X037190Y010850
X038190Y015850
X038190Y010850
X039190Y010850
X040190Y010850
T56
X023940Y022950
X023940Y018950
X023940Y012950
X023940Y008950
M30
