G04 start of page 6 for group -4063 idx -4063 *
G04 Title: (unknown), componentmask *
G04 Creator: pcb 20140316 *
G04 CreationDate: Tue 14 Apr 2015 10:04:33 AM GMT UTC *
G04 For: fosse *
G04 Format: Gerber/RS-274X *
G04 PCB-Dimensions (mil): 5250.00 5000.00 *
G04 PCB-Coordinate-Origin: lower left *
%MOIN*%
%FSLAX25Y25*%
%LNTOPMASK*%
%ADD68R,0.0615X0.0615*%
%ADD67R,0.0300X0.0300*%
%ADD66R,0.0572X0.0572*%
%ADD65C,0.1660*%
%ADD64C,0.2060*%
%ADD63C,0.0860*%
%ADD62C,0.0001*%
%ADD61C,0.0660*%
%ADD60C,0.0560*%
G54D60*X261000Y418000D03*
X281000D03*
X271000Y408000D03*
G54D61*X214500Y404500D03*
Y394500D03*
G54D62*G36*
X311200Y447800D02*Y441200D01*
X317800D01*
Y447800D01*
X311200D01*
G37*
G54D61*X314500Y434500D03*
Y424500D03*
Y414500D03*
Y404500D03*
Y394500D03*
Y384500D03*
Y374500D03*
G54D62*G36*
X211200Y447800D02*Y441200D01*
X217800D01*
Y447800D01*
X211200D01*
G37*
G54D61*X214500Y434500D03*
Y424500D03*
Y414500D03*
G54D62*G36*
X221200Y447800D02*Y441200D01*
X227800D01*
Y447800D01*
X221200D01*
G37*
G54D61*X234500Y444500D03*
X244500D03*
X254500D03*
X264500D03*
X274500D03*
X284500D03*
X294500D03*
X304500D03*
G54D60*X261000Y318000D03*
X281000D03*
X271000Y308000D03*
G54D61*X214500Y354500D03*
Y344500D03*
Y334500D03*
Y324500D03*
G54D62*G36*
X221200Y347800D02*Y341200D01*
X227800D01*
Y347800D01*
X221200D01*
G37*
G54D61*X314500Y364500D03*
Y354500D03*
Y344500D03*
Y334500D03*
Y324500D03*
Y314500D03*
Y304500D03*
Y294500D03*
Y284500D03*
Y274500D03*
Y264500D03*
Y254500D03*
X214500Y314500D03*
Y304500D03*
Y294500D03*
Y284500D03*
Y274500D03*
Y264500D03*
Y254500D03*
G54D62*G36*
X221200Y257800D02*Y251200D01*
X227800D01*
Y257800D01*
X221200D01*
G37*
G54D61*X234500Y254500D03*
X254500D03*
X264500D03*
X274500D03*
X284500D03*
X294500D03*
X304500D03*
X214500Y384500D03*
Y374500D03*
Y364500D03*
X234500Y344500D03*
X244500D03*
X254500D03*
X264500D03*
X274500D03*
X284500D03*
X294500D03*
X304500D03*
G54D62*G36*
X347600Y162800D02*Y154200D01*
X356200D01*
Y162800D01*
X347600D01*
G37*
G54D63*X361900Y158500D03*
X371900D03*
X381900D03*
G54D62*G36*
X357600Y112800D02*Y104200D01*
X366200D01*
Y112800D01*
X357600D01*
G37*
G54D63*X371900Y108500D03*
X381900D03*
X391900D03*
X401900D03*
G54D61*X244500Y254500D03*
G54D64*X239400Y189500D03*
G54D65*Y229500D03*
G54D63*X259400Y199500D03*
Y209500D03*
G54D65*X239400Y89500D03*
G54D64*Y129500D03*
G54D63*X259400Y99500D03*
Y109500D03*
G54D66*X226095Y414681D02*Y412319D01*
Y399181D02*Y396819D01*
X237905Y414681D02*Y412319D01*
Y429681D02*Y427319D01*
Y399181D02*Y396819D01*
X226095Y429681D02*Y427319D01*
X270595Y357681D02*Y355319D01*
X225819Y367500D02*X228181D01*
X225819Y355690D02*X228181D01*
X240607Y363043D02*X241393D01*
X240607Y355957D02*X241393D01*
X253607Y363043D02*X254393D01*
X253607Y355957D02*X254393D01*
X292095Y357681D02*Y355319D01*
X289819Y301914D02*X292181D01*
X289819Y290104D02*X292181D01*
X303905Y357681D02*Y355319D01*
X299319Y301905D02*X301681D01*
X299319Y290095D02*X301681D01*
X282405Y357681D02*Y355319D01*
G54D67*X281000Y299500D02*Y293000D01*
X276000Y299500D02*Y293000D01*
X271000Y299500D02*Y293000D01*
G54D66*X292095Y374181D02*Y371819D01*
X303905Y374181D02*Y371819D01*
X292095Y391181D02*Y388819D01*
X303905Y391181D02*Y388819D01*
X243095Y288505D02*Y282995D01*
X254905Y288505D02*Y282995D01*
G54D67*X266000Y299500D02*Y293000D01*
Y279000D02*Y272500D01*
X271000Y279000D02*Y272500D01*
X276000Y279000D02*Y272500D01*
X281000Y279000D02*Y272500D01*
G54D66*X328645Y158095D02*X334155D01*
X328645Y169905D02*X334155D01*
X325495Y127755D02*Y122245D01*
X337305Y127755D02*Y122245D01*
X327857Y142393D02*Y141607D01*
X334943Y142393D02*Y141607D01*
G54D68*X345900Y218732D02*Y208102D01*
Y195898D02*Y185268D01*
X391900Y218732D02*Y208102D01*
Y195898D02*Y185268D01*
G54D66*X333495Y96255D02*Y90745D01*
X315305Y93181D02*Y90819D01*
X345305Y96255D02*Y90745D01*
X335857Y109393D02*Y108607D01*
X342943Y109393D02*Y108607D01*
X314719Y108595D02*X317081D01*
X314719Y120405D02*X317081D01*
G54D67*X285400Y107500D02*Y101000D01*
X290400Y107500D02*Y101000D01*
X295400Y107500D02*Y101000D01*
X300400Y107500D02*Y101000D01*
Y128000D02*Y121500D01*
G54D66*X303495Y93181D02*Y90819D01*
G54D67*X295400Y128000D02*Y121500D01*
G54D66*X296305Y138681D02*Y136319D01*
X294805Y88681D02*Y86319D01*
G54D67*X290400Y128000D02*Y121500D01*
X285400Y128000D02*Y121500D01*
G54D66*X284495Y138681D02*Y136319D01*
X282995Y88681D02*Y86319D01*
G54D67*X283900Y196500D02*Y190000D01*
X288900Y196500D02*Y190000D01*
G54D66*X288507Y174457D02*X289293D01*
X288507Y181543D02*X289293D01*
G54D67*X293900Y196500D02*Y190000D01*
X298900Y196500D02*Y190000D01*
G54D66*X310219Y197595D02*X312581D01*
X308495Y183181D02*Y180819D01*
X320305Y183181D02*Y180819D01*
G54D67*X298900Y217000D02*Y210500D01*
G54D66*X297495Y227681D02*Y225319D01*
X309305Y227681D02*Y225319D01*
X310219Y209405D02*X312581D01*
G54D67*X293900Y217000D02*Y210500D01*
X288900Y217000D02*Y210500D01*
X283900Y217000D02*Y210500D01*
G54D66*X277495Y227681D02*Y225319D01*
X289305Y227681D02*Y225319D01*
M02*
