G04 start of page 8 for group -4079 idx -4079 *
G04 Title: (unknown), topsilk *
G04 Creator: pcb 20140316 *
G04 CreationDate: Tue 22 Dec 2015 03:43:44 PM GMT UTC *
G04 For: fosse *
G04 Format: Gerber/RS-274X *
G04 PCB-Dimensions (mil): 5250.00 5000.00 *
G04 PCB-Coordinate-Origin: lower left *
%MOIN*%
%FSLAX25Y25*%
%LNTOPSILK*%
%ADD85C,0.0130*%
%ADD84C,0.0100*%
%ADD83C,0.0080*%
%ADD82C,0.0060*%
%ADD81C,0.0200*%
%ADD80C,0.0150*%
G54D80*X230000Y215600D02*X228000Y213600D01*
X226000Y215600D02*X230000D01*
X228000Y213600D02*X226000Y215600D01*
X228000Y219100D02*Y213600D01*
X233000Y230100D02*Y220600D01*
X223000Y230100D02*X233000D01*
X247000Y229100D02*X249000Y231100D01*
X223000Y230100D02*Y220600D01*
X249000Y225600D02*Y231100D01*
G54D81*X79850Y169600D02*X90850D01*
X97350Y163100D01*
Y165900D01*
X94550Y163100D02*X97350Y165900D01*
X94550Y163100D02*X97350D01*
X81050Y69600D02*X92050D01*
X98550Y63100D01*
Y65900D01*
X95750Y63100D02*X98550Y65900D01*
X95750Y63100D02*X98550D01*
G54D80*X306000Y381100D02*X308000Y379100D01*
X306000Y381100D02*Y377100D01*
X308000Y379100D02*X306000Y377100D01*
X302500Y379100D02*X308000D01*
X301000Y384100D02*Y374100D01*
X291500Y384100D02*X301000D01*
X276500Y383600D02*X286500D01*
X291500Y384100D02*Y374100D01*
X301000D01*
X276500D02*X286500D01*
X279500Y388600D02*X281500Y390600D01*
X279500Y388600D02*X283500D01*
X281500Y390600D02*X283500Y388600D01*
X281500Y390600D02*Y385100D01*
X276500Y383600D02*Y374100D01*
X286500Y383600D02*Y374100D01*
X223000Y333100D02*X221000Y335100D01*
X223000Y337100D02*Y333100D01*
X221000Y335100D02*X223000Y337100D01*
X221000Y335100D02*X226500D01*
X228000Y340100D02*Y330100D01*
X237500D01*
Y340100D02*Y330100D01*
X228000Y340100D02*X237500D01*
X239000Y214600D02*Y224100D01*
X249000Y214600D02*X239000D01*
X249000Y224100D02*Y214600D01*
X251000Y229100D02*X247000D01*
X254000Y224100D02*X244000D01*
X223000Y220600D02*X233000D01*
X307500Y219600D02*X286500D01*
X293000Y234100D02*X295000Y236100D01*
X297000Y234100D02*X293000D01*
X295000Y236100D02*X297000Y234100D01*
X295000Y230600D02*Y236100D01*
X307500Y229100D02*X286500D01*
X249000Y231100D02*X251000Y229100D01*
X286500Y219600D02*Y229100D01*
X307500D02*Y219600D01*
G54D81*X75600Y378100D02*X86600D01*
X93100Y371600D01*
Y374400D01*
X90300Y371600D02*X93100Y374400D01*
X90300Y371600D02*X93100D01*
X76800Y278100D02*X87800D01*
X94300Y271600D01*
Y274400D01*
X91500Y271600D02*X94300Y274400D01*
X91500Y271600D02*X94300D01*
X84550Y475600D02*X95550D01*
X102050Y469100D01*
Y471900D01*
X99250Y469100D02*X102050Y471900D01*
X99250Y469100D02*X102050D01*
X271000Y373000D02*Y266000D01*
X274800Y270600D02*X266300D01*
X267800Y370600D02*X276200D01*
G54D82*X248500Y366100D02*X250000D01*
X248500Y364100D02*X250500D01*
X248500Y368100D02*Y364100D01*
Y368100D02*X250500D01*
X253200Y366100D02*X253700Y365600D01*
X252200Y366100D02*X253200D01*
X251700Y365600D02*X252200Y366100D01*
X251700Y365600D02*Y364600D01*
X252200Y364100D01*
X253700Y366100D02*Y364600D01*
X254200Y364100D01*
X252200D02*X253200D01*
X253700Y364600D01*
X255900Y368100D02*Y364600D01*
X256400Y364100D01*
X255400Y366600D02*X256400D01*
X257400Y365600D02*Y364600D01*
Y365600D02*X257900Y366100D01*
X258900D01*
X259400Y365600D01*
Y364600D01*
X258900Y364100D02*X259400Y364600D01*
X257900Y364100D02*X258900D01*
X257400Y364600D02*X257900Y364100D01*
X261100Y365600D02*Y364100D01*
Y365600D02*X261600Y366100D01*
X262100D01*
X262600Y365600D01*
Y364100D01*
X260600Y366100D02*X261100Y365600D01*
X266100Y368100D02*Y364100D01*
X265600Y368100D02*X267600D01*
X268100Y367600D01*
Y366600D01*
X267600Y366100D02*X268100Y366600D01*
X266100Y366100D02*X267600D01*
X269800Y364100D02*X271300D01*
X269300Y364600D02*X269800Y364100D01*
X269300Y365600D02*Y364600D01*
Y365600D02*X269800Y366100D01*
X270800D01*
X271300Y365600D01*
X269300Y365100D02*X271300D01*
Y365600D02*Y365100D01*
X274000Y366100D02*X274500Y365600D01*
X273000Y366100D02*X274000D01*
X272500Y365600D02*X273000Y366100D01*
X272500Y365600D02*Y364600D01*
X273000Y364100D01*
X274500Y366100D02*Y364600D01*
X275000Y364100D01*
X273000D02*X274000D01*
X274500Y364600D01*
X276200Y368100D02*Y364100D01*
Y364600D02*X276700Y364100D01*
X277700D01*
X278200Y364600D01*
Y365600D02*Y364600D01*
X277700Y366100D02*X278200Y365600D01*
X276700Y366100D02*X277700D01*
X276200Y365600D02*X276700Y366100D01*
X279400Y365600D02*Y364600D01*
Y365600D02*X279900Y366100D01*
X280900D01*
X281400Y365600D01*
Y364600D01*
X280900Y364100D02*X281400Y364600D01*
X279900Y364100D02*X280900D01*
X279400Y364600D02*X279900Y364100D01*
X284600Y368100D02*Y364100D01*
X284100D02*X284600Y364600D01*
X283100Y364100D02*X284100D01*
X282600Y364600D02*X283100Y364100D01*
X282600Y365600D02*Y364600D01*
Y365600D02*X283100Y366100D01*
X284100D01*
X284600Y365600D01*
X285800Y366100D02*Y364600D01*
X286300Y364100D01*
X287800Y366100D02*Y363100D01*
X287300Y362600D02*X287800Y363100D01*
X286300Y362600D02*X287300D01*
X285800Y363100D02*X286300Y362600D01*
Y364100D02*X287300D01*
X287800Y364600D01*
X290800Y368100D02*Y364100D01*
X292800D01*
X295500Y366100D02*X296000Y365600D01*
X294500Y366100D02*X295500D01*
X294000Y365600D02*X294500Y366100D01*
X294000Y365600D02*Y364600D01*
X294500Y364100D01*
X296000Y366100D02*Y364600D01*
X296500Y364100D01*
X294500D02*X295500D01*
X296000Y364600D01*
X297700Y368100D02*Y364100D01*
Y364600D02*X298200Y364100D01*
X299200D01*
X299700Y364600D01*
Y365600D02*Y364600D01*
X299200Y366100D02*X299700Y365600D01*
X298200Y366100D02*X299200D01*
X297700Y365600D02*X298200Y366100D01*
X265500Y354600D02*X267500D01*
X268000Y355100D01*
Y356100D02*Y355100D01*
X267500Y356600D02*X268000Y356100D01*
X266000Y356600D02*X267500D01*
X266000Y358600D02*Y354600D01*
X265500Y358600D02*X267500D01*
X268000Y358100D01*
Y357100D01*
X267500Y356600D02*X268000Y357100D01*
X269200Y356600D02*Y355100D01*
X269700Y354600D01*
X271200Y356600D02*Y353600D01*
X270700Y353100D02*X271200Y353600D01*
X269700Y353100D02*X270700D01*
X269200Y353600D02*X269700Y353100D01*
Y354600D02*X270700D01*
X271200Y355100D01*
X274200Y356600D02*X275700D01*
X274200Y354600D02*X276200D01*
X274200Y358600D02*Y354600D01*
Y358600D02*X276200D01*
X277400Y356600D02*Y355600D01*
X278400Y354600D01*
X279400Y355600D01*
Y356600D02*Y355600D01*
X282100Y356600D02*X282600Y356100D01*
X281100Y356600D02*X282100D01*
X280600Y356100D02*X281100Y356600D01*
X280600Y356100D02*Y355100D01*
X281100Y354600D01*
X282600Y356600D02*Y355100D01*
X283100Y354600D01*
X281100D02*X282100D01*
X282600Y355100D01*
X284800Y356100D02*Y354600D01*
Y356100D02*X285300Y356600D01*
X285800D01*
X286300Y356100D01*
Y354600D01*
X284300Y356600D02*X284800Y356100D01*
X289300Y358600D02*Y354600D01*
Y358600D02*X291300D01*
X289300Y356600D02*X290800D01*
X292500Y356100D02*Y355100D01*
Y356100D02*X293000Y356600D01*
X294000D01*
X294500Y356100D01*
Y355100D01*
X294000Y354600D02*X294500Y355100D01*
X293000Y354600D02*X294000D01*
X292500Y355100D02*X293000Y354600D01*
X296200D02*X297700D01*
X298200Y355100D01*
X297700Y355600D02*X298200Y355100D01*
X296200Y355600D02*X297700D01*
X295700Y356100D02*X296200Y355600D01*
X295700Y356100D02*X296200Y356600D01*
X297700D01*
X298200Y356100D01*
X295700Y355100D02*X296200Y354600D01*
X299900D02*X301400D01*
X301900Y355100D01*
X301400Y355600D02*X301900Y355100D01*
X299900Y355600D02*X301400D01*
X299400Y356100D02*X299900Y355600D01*
X299400Y356100D02*X299900Y356600D01*
X301400D01*
X301900Y356100D01*
X299400Y355100D02*X299900Y354600D01*
X242500Y390600D02*Y386600D01*
Y390600D02*X244500D01*
X242500Y388600D02*X244000D01*
X245700Y389600D02*Y389100D01*
Y388100D02*Y386600D01*
X246700Y390600D02*Y386600D01*
Y387100D02*X247200Y386600D01*
X248200D01*
X248700Y387100D01*
Y388100D02*Y387100D01*
X248200Y388600D02*X248700Y388100D01*
X247200Y388600D02*X248200D01*
X246700Y388100D02*X247200Y388600D01*
X250400Y386600D02*X251900D01*
X249900Y387100D02*X250400Y386600D01*
X249900Y388100D02*Y387100D01*
Y388100D02*X250400Y388600D01*
X251400D01*
X251900Y388100D01*
X249900Y387600D02*X251900D01*
Y388100D02*Y387600D01*
X253600Y388100D02*Y386600D01*
Y388100D02*X254100Y388600D01*
X255100D01*
X253100D02*X253600Y388100D01*
X256300D02*Y387100D01*
Y388100D02*X256800Y388600D01*
X257800D01*
X258300Y388100D01*
Y387100D01*
X257800Y386600D02*X258300Y387100D01*
X256800Y386600D02*X257800D01*
X256300Y387100D02*X256800Y386600D01*
X260000Y388100D02*Y385100D01*
X259500Y388600D02*X260000Y388100D01*
X260500Y388600D01*
X261500D01*
X262000Y388100D01*
Y387100D01*
X261500Y386600D02*X262000Y387100D01*
X260500Y386600D02*X261500D01*
X260000Y387100D02*X260500Y386600D01*
X263700Y390600D02*Y387100D01*
X264200Y386600D01*
X263200Y389100D02*X264200D01*
X265200Y389600D02*Y389100D01*
Y388100D02*Y386600D01*
X266700Y388600D02*X268200D01*
X266200Y388100D02*X266700Y388600D01*
X266200Y388100D02*Y387100D01*
X266700Y386600D01*
X268200D01*
X242500Y384100D02*Y380100D01*
Y384100D02*X244000Y382600D01*
X245500Y384100D01*
Y380100D01*
X246700Y383100D02*Y382600D01*
Y381600D02*Y380100D01*
X248200Y382100D02*X249700D01*
X247700Y381600D02*X248200Y382100D01*
X247700Y381600D02*Y380600D01*
X248200Y380100D01*
X249700D01*
X251400Y381600D02*Y380100D01*
Y381600D02*X251900Y382100D01*
X252900D01*
X250900D02*X251400Y381600D01*
X254100D02*Y380600D01*
Y381600D02*X254600Y382100D01*
X255600D01*
X256100Y381600D01*
Y380600D01*
X255600Y380100D02*X256100Y380600D01*
X254600Y380100D02*X255600D01*
X254100Y380600D02*X254600Y380100D01*
X257800Y381600D02*Y378600D01*
X257300Y382100D02*X257800Y381600D01*
X258300Y382100D01*
X259300D01*
X259800Y381600D01*
Y380600D01*
X259300Y380100D02*X259800Y380600D01*
X258300Y380100D02*X259300D01*
X257800Y380600D02*X258300Y380100D01*
X261000Y384100D02*Y380100D01*
Y381600D02*X261500Y382100D01*
X262500D01*
X263000Y381600D01*
Y380100D01*
X264200Y381600D02*Y380600D01*
Y381600D02*X264700Y382100D01*
X265700D01*
X266200Y381600D01*
Y380600D01*
X265700Y380100D02*X266200Y380600D01*
X264700Y380100D02*X265700D01*
X264200Y380600D02*X264700Y380100D01*
X267900Y381600D02*Y380100D01*
Y381600D02*X268400Y382100D01*
X268900D01*
X269400Y381600D01*
Y380100D01*
X267400Y382100D02*X267900Y381600D01*
X271100Y380100D02*X272600D01*
X270600Y380600D02*X271100Y380100D01*
X270600Y381600D02*Y380600D01*
Y381600D02*X271100Y382100D01*
X272100D01*
X272600Y381600D01*
X270600Y381100D02*X272600D01*
Y381600D02*Y381100D01*
X242500Y377100D02*Y373600D01*
Y377100D02*X243000Y377600D01*
X244500D01*
X245000Y377100D01*
Y373600D01*
X242500Y375600D02*X245000D01*
X246700Y375100D02*Y373600D01*
Y375100D02*X247200Y375600D01*
X247700D01*
X248200Y375100D01*
Y373600D01*
Y375100D02*X248700Y375600D01*
X249200D01*
X249700Y375100D01*
Y373600D01*
X246200Y375600D02*X246700Y375100D01*
X251400D02*Y372100D01*
X250900Y375600D02*X251400Y375100D01*
X251900Y375600D01*
X252900D01*
X253400Y375100D01*
Y374100D01*
X252900Y373600D02*X253400Y374100D01*
X251900Y373600D02*X252900D01*
X251400Y374100D02*X251900Y373600D01*
X254600Y377600D02*Y374100D01*
X255100Y373600D01*
X256100Y376600D02*Y376100D01*
Y375100D02*Y373600D01*
X257600Y377100D02*Y373600D01*
Y377100D02*X258100Y377600D01*
X258600D01*
X257100Y375600D02*X258100D01*
X259600Y376600D02*Y376100D01*
Y375100D02*Y373600D01*
X261100D02*X262600D01*
X260600Y374100D02*X261100Y373600D01*
X260600Y375100D02*Y374100D01*
Y375100D02*X261100Y375600D01*
X262100D01*
X262600Y375100D01*
X260600Y374600D02*X262600D01*
Y375100D02*Y374600D01*
X264300Y375100D02*Y373600D01*
Y375100D02*X264800Y375600D01*
X265800D01*
X263800D02*X264300Y375100D01*
X14900Y280200D02*Y276200D01*
X14400Y280200D02*X16400D01*
X16900Y279700D01*
Y278700D01*
X16400Y278200D02*X16900Y278700D01*
X14900Y278200D02*X16400D01*
X18100Y280200D02*Y276200D01*
Y277700D02*X18600Y278200D01*
X19600D01*
X20100Y277700D01*
Y276200D01*
X21300Y277700D02*Y276700D01*
Y277700D02*X21800Y278200D01*
X22800D01*
X23300Y277700D01*
Y276700D01*
X22800Y276200D02*X23300Y276700D01*
X21800Y276200D02*X22800D01*
X21300Y276700D02*X21800Y276200D01*
X25000Y280200D02*Y276700D01*
X25500Y276200D01*
X24500Y278700D02*X25500D01*
X26500Y277700D02*Y276700D01*
Y277700D02*X27000Y278200D01*
X28000D01*
X28500Y277700D01*
Y276700D01*
X28000Y276200D02*X28500Y276700D01*
X27000Y276200D02*X28000D01*
X26500Y276700D02*X27000Y276200D01*
X31700Y280200D02*Y276200D01*
X31200D02*X31700Y276700D01*
X30200Y276200D02*X31200D01*
X29700Y276700D02*X30200Y276200D01*
X29700Y277700D02*Y276700D01*
Y277700D02*X30200Y278200D01*
X31200D01*
X31700Y277700D01*
X32900Y279200D02*Y278700D01*
Y277700D02*Y276200D01*
X33900Y277700D02*Y276700D01*
Y277700D02*X34400Y278200D01*
X35400D01*
X35900Y277700D01*
Y276700D01*
X35400Y276200D02*X35900Y276700D01*
X34400Y276200D02*X35400D01*
X33900Y276700D02*X34400Y276200D01*
X39100Y280200D02*Y276200D01*
X38600D02*X39100Y276700D01*
X37600Y276200D02*X38600D01*
X37100Y276700D02*X37600Y276200D01*
X37100Y277700D02*Y276700D01*
Y277700D02*X37600Y278200D01*
X38600D01*
X39100Y277700D01*
X40800Y276200D02*X42300D01*
X40300Y276700D02*X40800Y276200D01*
X40300Y277700D02*Y276700D01*
Y277700D02*X40800Y278200D01*
X41800D01*
X42300Y277700D01*
X40300Y277200D02*X42300D01*
Y277700D02*Y277200D01*
X45800Y276200D02*X47300D01*
X45300Y276700D02*X45800Y276200D01*
X45300Y279700D02*Y276700D01*
Y279700D02*X45800Y280200D01*
X47300D01*
X49000Y276200D02*X50500D01*
X48500Y276700D02*X49000Y276200D01*
X48500Y277700D02*Y276700D01*
Y277700D02*X49000Y278200D01*
X50000D01*
X50500Y277700D01*
X48500Y277200D02*X50500D01*
Y277700D02*Y277200D01*
X52200Y277700D02*Y276200D01*
Y277700D02*X52700Y278200D01*
X53200D01*
X53700Y277700D01*
Y276200D01*
X51700Y278200D02*X52200Y277700D01*
X55400Y280200D02*Y276700D01*
X55900Y276200D01*
X54900Y278700D02*X55900D01*
X57400Y276200D02*X58900D01*
X56900Y276700D02*X57400Y276200D01*
X56900Y277700D02*Y276700D01*
Y277700D02*X57400Y278200D01*
X58400D01*
X58900Y277700D01*
X56900Y277200D02*X58900D01*
Y277700D02*Y277200D01*
X60600Y277700D02*Y276200D01*
Y277700D02*X61100Y278200D01*
X62100D01*
X60100D02*X60600Y277700D01*
X65100Y280200D02*Y276200D01*
X67100D01*
X68300Y279200D02*Y278700D01*
Y277700D02*Y276200D01*
X69800Y277700D02*Y276200D01*
Y277700D02*X70300Y278200D01*
X70800D01*
X71300Y277700D01*
Y276200D01*
X69300Y278200D02*X69800Y277700D01*
X73000Y276200D02*X74500D01*
X72500Y276700D02*X73000Y276200D01*
X72500Y277700D02*Y276700D01*
Y277700D02*X73000Y278200D01*
X74000D01*
X74500Y277700D01*
X72500Y277200D02*X74500D01*
Y277700D02*Y277200D01*
X31900Y380100D02*Y376100D01*
X33900D01*
X35100Y378100D02*X36600D01*
X35100Y376100D02*X37100D01*
X35100Y380100D02*Y376100D01*
Y380100D02*X37100D01*
X38800D02*Y376100D01*
X40300Y380100D02*X40800Y379600D01*
Y376600D01*
X40300Y376100D02*X40800Y376600D01*
X38300Y376100D02*X40300D01*
X38300Y380100D02*X40300D01*
X44300Y376100D02*X45800D01*
X43800Y376600D02*X44300Y376100D01*
X43800Y379600D02*Y376600D01*
Y379600D02*X44300Y380100D01*
X45800D01*
X47500Y376100D02*X49000D01*
X47000Y376600D02*X47500Y376100D01*
X47000Y377600D02*Y376600D01*
Y377600D02*X47500Y378100D01*
X48500D01*
X49000Y377600D01*
X47000Y377100D02*X49000D01*
Y377600D02*Y377100D01*
X50700Y377600D02*Y376100D01*
Y377600D02*X51200Y378100D01*
X51700D01*
X52200Y377600D01*
Y376100D01*
X50200Y378100D02*X50700Y377600D01*
X53900Y380100D02*Y376600D01*
X54400Y376100D01*
X53400Y378600D02*X54400D01*
X55900Y376100D02*X57400D01*
X55400Y376600D02*X55900Y376100D01*
X55400Y377600D02*Y376600D01*
Y377600D02*X55900Y378100D01*
X56900D01*
X57400Y377600D01*
X55400Y377100D02*X57400D01*
Y377600D02*Y377100D01*
X59100Y377600D02*Y376100D01*
Y377600D02*X59600Y378100D01*
X60600D01*
X58600D02*X59100Y377600D01*
X63600Y380100D02*Y376100D01*
X65600D01*
X66800Y379100D02*Y378600D01*
Y377600D02*Y376100D01*
X68300Y377600D02*Y376100D01*
Y377600D02*X68800Y378100D01*
X69300D01*
X69800Y377600D01*
Y376100D01*
X67800Y378100D02*X68300Y377600D01*
X71500Y376100D02*X73000D01*
X71000Y376600D02*X71500Y376100D01*
X71000Y377600D02*Y376600D01*
Y377600D02*X71500Y378100D01*
X72500D01*
X73000Y377600D01*
X71000Y377100D02*X73000D01*
Y377600D02*Y377100D01*
X52650Y477900D02*X54650D01*
X53650D02*Y473900D01*
X55850Y475400D02*Y474400D01*
Y475400D02*X56350Y475900D01*
X57350D01*
X57850Y475400D01*
Y474400D01*
X57350Y473900D02*X57850Y474400D01*
X56350Y473900D02*X57350D01*
X55850Y474400D02*X56350Y473900D01*
X59550Y475400D02*Y472400D01*
X59050Y475900D02*X59550Y475400D01*
X60050Y475900D01*
X61050D01*
X61550Y475400D01*
Y474400D01*
X61050Y473900D02*X61550Y474400D01*
X60050Y473900D02*X61050D01*
X59550Y474400D02*X60050Y473900D01*
X64550Y475400D02*Y474400D01*
Y475400D02*X65050Y475900D01*
X66050D01*
X66550Y475400D01*
Y474400D01*
X66050Y473900D02*X66550Y474400D01*
X65050Y473900D02*X66050D01*
X64550Y474400D02*X65050Y473900D01*
X68250Y477400D02*Y473900D01*
Y477400D02*X68750Y477900D01*
X69250D01*
X67750Y475900D02*X68750D01*
X72550Y477900D02*Y473900D01*
X72050Y477900D02*X74050D01*
X74550Y477400D01*
Y476400D01*
X74050Y475900D02*X74550Y476400D01*
X72550Y475900D02*X74050D01*
X76250Y473900D02*X77750D01*
X75750Y474400D02*X76250Y473900D01*
X75750Y477400D02*Y474400D01*
Y477400D02*X76250Y477900D01*
X77750D01*
X78950Y473900D02*X80950D01*
X81450Y474400D01*
Y475400D02*Y474400D01*
X80950Y475900D02*X81450Y475400D01*
X79450Y475900D02*X80950D01*
X79450Y477900D02*Y473900D01*
X78950Y477900D02*X80950D01*
X81450Y477400D01*
Y476400D01*
X80950Y475900D02*X81450Y476400D01*
X8150Y168100D02*X10150D01*
X10650Y168600D01*
Y169600D02*Y168600D01*
X10150Y170100D02*X10650Y169600D01*
X8650Y170100D02*X10150D01*
X8650Y172100D02*Y168100D01*
X8150Y172100D02*X10150D01*
X10650Y171600D01*
Y170600D01*
X10150Y170100D02*X10650Y170600D01*
X11850Y172100D02*Y168100D01*
Y172100D02*Y171600D01*
X14350Y169100D01*
Y172100D02*Y168100D01*
X16050D02*X17550D01*
X15550Y168600D02*X16050Y168100D01*
X15550Y171600D02*Y168600D01*
Y171600D02*X16050Y172100D01*
X17550D01*
X20550Y171600D02*Y168100D01*
Y171600D02*X21050Y172100D01*
X22550D01*
X23050Y171600D01*
Y168100D01*
X20550Y170100D02*X23050D01*
X24750Y168100D02*X26250D01*
X24250Y168600D02*X24750Y168100D01*
X24250Y171600D02*Y168600D01*
Y171600D02*X24750Y172100D01*
X26250D01*
X29250Y171600D02*Y168600D01*
Y171600D02*X29750Y172100D01*
X30750D01*
X31250Y171600D01*
Y168600D01*
X30750Y168100D02*X31250Y168600D01*
X29750Y168100D02*X30750D01*
X29250Y168600D02*X29750Y168100D01*
X32450Y170100D02*Y168600D01*
X32950Y168100D01*
X33950D01*
X34450Y168600D01*
Y170100D02*Y168600D01*
X36150Y172100D02*Y168600D01*
X36650Y168100D01*
X35650Y170600D02*X36650D01*
X38150Y169600D02*Y166600D01*
X37650Y170100D02*X38150Y169600D01*
X38650Y170100D01*
X39650D01*
X40150Y169600D01*
Y168600D01*
X39650Y168100D02*X40150Y168600D01*
X38650Y168100D02*X39650D01*
X38150Y168600D02*X38650Y168100D01*
X41350Y170100D02*Y168600D01*
X41850Y168100D01*
X42850D01*
X43350Y168600D01*
Y170100D02*Y168600D01*
X45050Y172100D02*Y168600D01*
X45550Y168100D01*
X44550Y170600D02*X45550D01*
X48850Y168100D02*X50350D01*
X48350Y168600D02*X48850Y168100D01*
X48350Y171600D02*Y168600D01*
Y171600D02*X48850Y172100D01*
X50350D01*
X52050Y168100D02*X53550D01*
X51550Y168600D02*X52050Y168100D01*
X51550Y169600D02*Y168600D01*
Y169600D02*X52050Y170100D01*
X53050D01*
X53550Y169600D01*
X51550Y169100D02*X53550D01*
Y169600D02*Y169100D01*
X55250Y169600D02*Y168100D01*
Y169600D02*X55750Y170100D01*
X56250D01*
X56750Y169600D01*
Y168100D01*
X54750Y170100D02*X55250Y169600D01*
X58450Y172100D02*Y168600D01*
X58950Y168100D01*
X57950Y170600D02*X58950D01*
X60450Y168100D02*X61950D01*
X59950Y168600D02*X60450Y168100D01*
X59950Y169600D02*Y168600D01*
Y169600D02*X60450Y170100D01*
X61450D01*
X61950Y169600D01*
X59950Y169100D02*X61950D01*
Y169600D02*Y169100D01*
X63650Y169600D02*Y168100D01*
Y169600D02*X64150Y170100D01*
X65150D01*
X63150D02*X63650Y169600D01*
X68150Y172100D02*Y168100D01*
X70150D01*
X71350Y171100D02*Y170600D01*
Y169600D02*Y168100D01*
X72850Y169600D02*Y168100D01*
Y169600D02*X73350Y170100D01*
X73850D01*
X74350Y169600D01*
Y168100D01*
X72350Y170100D02*X72850Y169600D01*
X76050Y168100D02*X77550D01*
X75550Y168600D02*X76050Y168100D01*
X75550Y169600D02*Y168600D01*
Y169600D02*X76050Y170100D01*
X77050D01*
X77550Y169600D01*
X75550Y169100D02*X77550D01*
Y169600D02*Y169100D01*
X9350Y67800D02*X11350D01*
X11850Y68300D01*
Y69300D02*Y68300D01*
X11350Y69800D02*X11850Y69300D01*
X9850Y69800D02*X11350D01*
X9850Y71800D02*Y67800D01*
X9350Y71800D02*X11350D01*
X11850Y71300D01*
Y70300D01*
X11350Y69800D02*X11850Y70300D01*
X13050Y71800D02*Y67800D01*
Y71800D02*Y71300D01*
X15550Y68800D01*
Y71800D02*Y67800D01*
X17250D02*X18750D01*
X16750Y68300D02*X17250Y67800D01*
X16750Y71300D02*Y68300D01*
Y71300D02*X17250Y71800D01*
X18750D01*
X22250D02*Y67800D01*
X23750Y71800D02*X24250Y71300D01*
Y68300D01*
X23750Y67800D02*X24250Y68300D01*
X21750Y67800D02*X23750D01*
X21750Y71800D02*X23750D01*
X25950Y67800D02*X27450D01*
X25450Y68300D02*X25950Y67800D01*
X25450Y71300D02*Y68300D01*
Y71300D02*X25950Y71800D01*
X27450D01*
X30450Y71300D02*Y68300D01*
Y71300D02*X30950Y71800D01*
X31950D01*
X32450Y71300D01*
Y68300D01*
X31950Y67800D02*X32450Y68300D01*
X30950Y67800D02*X31950D01*
X30450Y68300D02*X30950Y67800D01*
X33650Y69800D02*Y68300D01*
X34150Y67800D01*
X35150D01*
X35650Y68300D01*
Y69800D02*Y68300D01*
X37350Y71800D02*Y68300D01*
X37850Y67800D01*
X36850Y70300D02*X37850D01*
X39350Y69300D02*Y66300D01*
X38850Y69800D02*X39350Y69300D01*
X39850Y69800D01*
X40850D01*
X41350Y69300D01*
Y68300D01*
X40850Y67800D02*X41350Y68300D01*
X39850Y67800D02*X40850D01*
X39350Y68300D02*X39850Y67800D01*
X42550Y69800D02*Y68300D01*
X43050Y67800D01*
X44050D01*
X44550Y68300D01*
Y69800D02*Y68300D01*
X46250Y71800D02*Y68300D01*
X46750Y67800D01*
X45750Y70300D02*X46750D01*
X50050Y67800D02*X51550D01*
X49550Y68300D02*X50050Y67800D01*
X49550Y71300D02*Y68300D01*
Y71300D02*X50050Y71800D01*
X51550D01*
X53250Y67800D02*X54750D01*
X52750Y68300D02*X53250Y67800D01*
X52750Y69300D02*Y68300D01*
Y69300D02*X53250Y69800D01*
X54250D01*
X54750Y69300D01*
X52750Y68800D02*X54750D01*
Y69300D02*Y68800D01*
X56450Y69300D02*Y67800D01*
Y69300D02*X56950Y69800D01*
X57450D01*
X57950Y69300D01*
Y67800D01*
X55950Y69800D02*X56450Y69300D01*
X59650Y71800D02*Y68300D01*
X60150Y67800D01*
X59150Y70300D02*X60150D01*
X61650Y67800D02*X63150D01*
X61150Y68300D02*X61650Y67800D01*
X61150Y69300D02*Y68300D01*
Y69300D02*X61650Y69800D01*
X62650D01*
X63150Y69300D01*
X61150Y68800D02*X63150D01*
Y69300D02*Y68800D01*
X64850Y69300D02*Y67800D01*
Y69300D02*X65350Y69800D01*
X66350D01*
X64350D02*X64850Y69300D01*
X69350Y71800D02*Y67800D01*
X71350D01*
X72550Y70800D02*Y70300D01*
Y69300D02*Y67800D01*
X74050Y69300D02*Y67800D01*
Y69300D02*X74550Y69800D01*
X75050D01*
X75550Y69300D01*
Y67800D01*
X73550Y69800D02*X74050Y69300D01*
X77250Y67800D02*X78750D01*
X76750Y68300D02*X77250Y67800D01*
X76750Y69300D02*Y68300D01*
Y69300D02*X77250Y69800D01*
X78250D01*
X78750Y69300D01*
X76750Y68800D02*X78750D01*
Y69300D02*Y68800D01*
X251500Y217600D02*X252000Y218100D01*
X253500D01*
X254000Y217600D01*
Y216600D01*
X251500Y214100D02*X254000Y216600D01*
X251500Y214100D02*X254000D01*
X255200Y214600D02*X255700Y214100D01*
X255200Y217600D02*Y214600D01*
Y217600D02*X255700Y218100D01*
X256700D01*
X257200Y217600D01*
Y214600D01*
X256700Y214100D02*X257200Y214600D01*
X255700Y214100D02*X256700D01*
X255200Y215100D02*X257200Y217100D01*
X258900Y214100D02*X259900D01*
X259400Y218100D02*Y214100D01*
X258400Y217100D02*X259400Y218100D01*
X261100D02*X263100D01*
X261100D02*Y216100D01*
X261600Y216600D01*
X262600D01*
X263100Y216100D01*
Y214600D01*
X262600Y214100D02*X263100Y214600D01*
X261600Y214100D02*X262600D01*
X261100Y214600D02*X261600Y214100D01*
X264300D02*X264800D01*
X266000Y214600D02*X266500Y214100D01*
X266000Y217600D02*Y214600D01*
Y217600D02*X266500Y218100D01*
X267500D01*
X268000Y217600D01*
Y214600D01*
X267500Y214100D02*X268000Y214600D01*
X266500Y214100D02*X267500D01*
X266000Y215100D02*X268000Y217100D01*
X269200Y217600D02*X269700Y218100D01*
X270700D01*
X271200Y217600D01*
Y214600D01*
X270700Y214100D02*X271200Y214600D01*
X269700Y214100D02*X270700D01*
X269200Y214600D02*X269700Y214100D01*
Y216100D02*X271200D01*
X272400Y214100D02*X272900D01*
X274100Y214600D02*X274600Y214100D01*
X274100Y217600D02*Y214600D01*
Y217600D02*X274600Y218100D01*
X275600D01*
X276100Y217600D01*
Y214600D01*
X275600Y214100D02*X276100Y214600D01*
X274600Y214100D02*X275600D01*
X274100Y215100D02*X276100Y217100D01*
X278800Y218100D02*X279300Y217600D01*
X277800Y218100D02*X278800D01*
X277300Y217600D02*X277800Y218100D01*
X277300Y217600D02*Y214600D01*
X277800Y214100D01*
X278800Y216100D02*X279300Y215600D01*
X277300Y216100D02*X278800D01*
X277800Y214100D02*X278800D01*
X279300Y214600D01*
Y215600D02*Y214600D01*
X363900Y83100D02*Y84600D01*
X363400Y85100D02*X363900Y84600D01*
X360400Y85100D02*X363400D01*
X360400D02*X359900Y84600D01*
Y83100D02*Y84600D01*
Y81900D02*X363900D01*
X359900Y79400D02*X363900D01*
X361900D02*Y81900D01*
X360400Y78200D02*X363900D01*
X360400D02*X359900Y77700D01*
Y76200D02*Y77700D01*
Y76200D02*X360400Y75700D01*
X363900D01*
X361900D02*Y78200D01*
X359900Y72500D02*X360400Y72000D01*
X359900Y72500D02*Y74000D01*
X360400Y74500D02*X359900Y74000D01*
X360400Y74500D02*X361400D01*
X361900Y74000D01*
Y72500D02*Y74000D01*
Y72500D02*X362400Y72000D01*
X363400D01*
X363900Y72500D02*X363400Y72000D01*
X363900Y72500D02*Y74000D01*
X363400Y74500D02*X363900Y74000D01*
Y70300D02*Y70800D01*
X373900Y79600D02*Y81100D01*
X373400Y81600D02*X373900Y81100D01*
X370400Y81600D02*X373400D01*
X370400D02*X369900Y81100D01*
Y79600D02*Y81100D01*
X370400Y78400D02*X373400D01*
X370400D02*X369900Y77900D01*
Y76900D02*Y77900D01*
Y76900D02*X370400Y76400D01*
X373400D01*
X373900Y76900D02*X373400Y76400D01*
X373900Y76900D02*Y77900D01*
X373400Y78400D02*X373900Y77900D01*
X369900Y75200D02*X373900D01*
X369900D02*X371400Y73700D01*
X369900Y72200D01*
X373900D01*
Y70500D02*Y71000D01*
X381900Y79600D02*Y81600D01*
X383900Y76900D02*Y77900D01*
X379900Y77400D02*X383900D01*
X380900Y78400D02*X379900Y77400D01*
Y73700D02*Y75700D01*
X381900D01*
X381400Y75200D01*
Y74200D02*Y75200D01*
Y74200D02*X381900Y73700D01*
X383400D01*
X383900Y74200D02*X383400Y73700D01*
X383900Y74200D02*Y75200D01*
X383400Y75700D02*X383900Y75200D01*
X379900Y72500D02*X382900D01*
X383900Y71500D01*
X382900Y70500D01*
X379900D02*X382900D01*
X391900Y79600D02*Y81600D01*
X390900Y80600D02*X392900D01*
X393900Y76900D02*Y77900D01*
X389900Y77400D02*X393900D01*
X390900Y78400D02*X389900Y77400D01*
Y73700D02*Y75700D01*
X391900D01*
X391400Y75200D01*
Y74200D02*Y75200D01*
Y74200D02*X391900Y73700D01*
X393400D01*
X393900Y74200D02*X393400Y73700D01*
X393900Y74200D02*Y75200D01*
X393400Y75700D02*X393900Y75200D01*
X389900Y72500D02*X392900D01*
X393900Y71500D01*
X392900Y70500D01*
X389900D02*X392900D01*
X399900Y78600D02*X400400Y78100D01*
X399900Y78600D02*Y80100D01*
X400400Y80600D02*X399900Y80100D01*
X400400Y80600D02*X401400D01*
X401900Y80100D01*
Y78600D02*Y80100D01*
Y78600D02*X402400Y78100D01*
X403400D01*
X403900Y78600D02*X403400Y78100D01*
X403900Y78600D02*Y80100D01*
X403400Y80600D02*X403900Y80100D01*
X399900Y75900D02*Y76900D01*
Y76400D02*X403900D01*
Y75900D02*Y76900D01*
X399900Y72700D02*X400400Y72200D01*
X399900Y72700D02*Y74200D01*
X400400Y74700D02*X399900Y74200D01*
X400400Y74700D02*X403400D01*
X403900Y74200D01*
Y72700D02*Y74200D01*
Y72700D02*X403400Y72200D01*
X402400D02*X403400D01*
X401900Y72700D02*X402400Y72200D01*
X401900Y72700D02*Y73700D01*
X403900Y70500D02*Y71000D01*
G54D83*X230740Y316557D02*Y311833D01*
X223260Y316557D02*Y311833D01*
X274138Y312840D02*X278862D01*
X274138Y305360D02*X278862D01*
X243755Y312493D02*Y311707D01*
X238245Y312493D02*Y311707D01*
X256755Y312493D02*Y311707D01*
X251245Y312493D02*Y311707D01*
G54D84*X209500Y402100D02*Y202100D01*
X219500D01*
Y402100D01*
X209500D01*
Y392100D02*X219500D01*
Y402100D01*
G54D85*X247032Y233036D02*X250968D01*
X247032Y243664D02*X250968D01*
G54D84*X283000Y236100D02*Y223100D01*
Y254100D02*Y241100D01*
X264000Y223100D02*X283000D01*
X264000Y254100D02*Y223100D01*
Y254100D02*X283000D01*
Y241100D02*G75*G03X283000Y236100I0J-2500D01*G01*
X209550Y191100D02*Y133100D01*
X248400Y191100D02*X269250D01*
Y133100D01*
X209550D02*X230400D01*
X209550Y191100D02*X230400D01*
X248400Y133100D02*X269250D01*
X210384Y191100D03*
X209550Y91100D02*Y33100D01*
X248400Y91100D02*X269250D01*
Y33100D01*
X209550D02*X230400D01*
X209550Y91100D02*X230400D01*
X248400Y33100D02*X269250D01*
X210384Y91100D03*
G54D83*X229638Y369840D02*X234362D01*
X229638Y362360D02*X234362D01*
X229638Y384840D02*X234362D01*
X229638Y377360D02*X234362D01*
X229638Y354340D02*X234362D01*
X229638Y346860D02*X234362D01*
X295638Y329340D02*X300362D01*
X295638Y321860D02*X300362D01*
X295638Y346340D02*X300362D01*
X295638Y338860D02*X300362D01*
G54D84*X309500Y402100D02*Y202100D01*
X319500D01*
Y402100D01*
X309500D01*
Y392100D02*X319500D01*
Y402100D01*
X219500Y202100D02*X309500D01*
Y212100D02*Y202100D01*
X219500Y212100D02*X309500D01*
X219500D02*Y202100D01*
X229500Y212100D02*Y202100D01*
X219500Y212100D02*X229500D01*
G54D85*X287260Y250971D02*Y246247D01*
X294740Y250971D02*Y246247D01*
G54D83*X281038Y182840D02*X285762D01*
X281038Y175360D02*X285762D01*
G54D84*X219500Y292100D02*X309500D01*
Y302100D02*Y292100D01*
X219500Y302100D02*X309500D01*
X219500D02*Y292100D01*
X229500Y302100D02*Y292100D01*
X219500Y302100D02*X229500D01*
X219500Y392100D02*X309500D01*
Y402100D02*Y392100D01*
X219500Y402100D02*X309500D01*
X219500D02*Y392100D01*
X229500Y402100D02*Y392100D01*
X219500Y402100D02*X229500D01*
G54D83*X295638Y312840D02*X300362D01*
X295638Y305360D02*X300362D01*
X304240Y250962D02*Y246238D01*
X296760Y250962D02*Y246238D01*
X326086Y118568D02*Y114632D01*
X336714Y118568D02*Y114632D01*
G54D84*X363932Y136568D02*X349774D01*
X363932D02*Y169632D01*
X360932Y172632D01*
X349774D01*
X327868Y136568D02*X342026D01*
X327868D02*Y169632D01*
X330868Y172632D01*
X342026D01*
X409932Y136568D02*X395774D01*
X409932D02*Y169632D01*
X406932Y172632D01*
X395774D01*
X373868Y136568D02*X388026D01*
X373868D02*Y169632D01*
X376868Y172632D01*
X388026D01*
X346900Y98300D02*X386900D01*
X346900Y123300D02*X386900D01*
X351900Y117300D02*Y123300D01*
Y117300D02*X381900D01*
Y123300D01*
X346900D02*Y98300D01*
X386900Y123300D02*Y98300D01*
X281900Y140600D02*X300900D01*
Y171600D02*Y140600D01*
X281900Y171600D02*X300900D01*
X281900Y153600D02*Y140600D01*
Y171600D02*Y158600D01*
Y153600D02*G75*G03X281900Y158600I0J2500D01*G01*
G54D83*X301038Y182840D02*X305762D01*
X301038Y175360D02*X305762D01*
X307660Y158462D02*Y153738D01*
X315140Y158462D02*Y153738D01*
X312038Y138340D02*X316762D01*
X312038Y130860D02*X316762D01*
X286145Y130993D02*Y130207D01*
X291655Y130993D02*Y130207D01*
X329432Y82914D02*X333368D01*
X329432Y72286D02*X333368D01*
X312160Y69462D02*Y64738D01*
X319640Y69462D02*Y64738D01*
G54D84*X283400Y51600D02*X302400D01*
Y82600D02*Y51600D01*
X283400Y82600D02*X302400D01*
X283400Y64600D02*Y51600D01*
Y82600D02*Y69600D01*
Y64600D02*G75*G03X283400Y69600I0J2500D01*G01*
G54D83*X307038Y48340D02*X311762D01*
X307038Y40860D02*X311762D01*
X331007Y97355D02*X331793D01*
X331007Y91845D02*X331793D01*
X288038Y93840D02*X292762D01*
X288038Y86360D02*X292762D01*
X286538Y43840D02*X291262D01*
X286538Y36360D02*X291262D01*
X337432Y51414D02*X341368D01*
X337432Y40786D02*X341368D01*
G54D84*X356900Y48300D02*X406900D01*
X356900Y73300D02*X406900D01*
X361900Y67300D02*Y73300D01*
Y67300D02*X401900D01*
Y73300D01*
X356900D02*Y48300D01*
X406900Y73300D02*Y48300D01*
G54D83*X339007Y64355D02*X339793D01*
X339007Y58845D02*X339793D01*
G54D82*X249150Y318250D02*Y316250D01*
X248650Y315750D01*
X247650D02*X248650D01*
X247150Y316250D02*X247650Y315750D01*
X247150Y317750D02*Y316250D01*
X245150Y317750D02*X249150D01*
X247150D02*X245150Y315750D01*
Y314050D02*Y313050D01*
Y313550D02*X249150D01*
X248150Y314550D02*X249150Y313550D01*
X245650Y311850D02*X245150Y311350D01*
X245650Y311850D02*X248650D01*
X249150Y311350D01*
Y310350D01*
X248650Y309850D01*
X245650D02*X248650D01*
X245150Y310350D02*X245650Y309850D01*
X245150Y311350D02*Y310350D01*
X246150Y311850D02*X248150Y309850D01*
X248650Y308650D02*X249150Y308150D01*
Y306650D01*
X248650Y306150D01*
X247650D02*X248650D01*
X245150Y308650D02*X247650Y306150D01*
X245150Y308650D02*Y306150D01*
X223000Y308100D02*X224500D01*
Y304600D01*
X224000Y304100D02*X224500Y304600D01*
X223500Y304100D02*X224000D01*
X223000Y304600D02*X223500Y304100D01*
X225700Y307600D02*X226200Y308100D01*
X227700D01*
X228200Y307600D01*
Y306600D01*
X225700Y304100D02*X228200Y306600D01*
X225700Y304100D02*X228200D01*
X262150Y318250D02*Y316250D01*
X261650Y315750D01*
X260650D02*X261650D01*
X260150Y316250D02*X260650Y315750D01*
X260150Y317750D02*Y316250D01*
X258150Y317750D02*X262150D01*
X260150D02*X258150Y315750D01*
Y314050D02*Y313050D01*
Y313550D02*X262150D01*
X261150Y314550D02*X262150Y313550D01*
X258650Y311850D02*X258150Y311350D01*
X258650Y311850D02*X261650D01*
X262150Y311350D01*
Y310350D01*
X261650Y309850D01*
X258650D02*X261650D01*
X258150Y310350D02*X258650Y309850D01*
X258150Y311350D02*Y310350D01*
X259150Y311850D02*X261150Y309850D01*
X258150Y308150D02*Y307150D01*
Y307650D02*X262150D01*
X261150Y308650D02*X262150Y307650D01*
X246755Y217500D02*X248255D01*
X246255Y218000D02*X246755Y217500D01*
X246255Y221000D02*Y218000D01*
Y221000D02*X246755Y221500D01*
X248255D01*
X249455Y219500D02*X251455Y221500D01*
X249455Y219500D02*X251955D01*
X251455Y221500D02*Y217500D01*
X232150Y318845D02*Y317345D01*
X232650Y319345D02*X232150Y318845D01*
X232650Y319345D02*X235650D01*
X236150Y318845D01*
Y317345D01*
X232150Y315645D02*Y314645D01*
Y315145D02*X236150D01*
X235150Y316145D02*X236150Y315145D01*
X232650Y313445D02*X232150Y312945D01*
X232650Y313445D02*X235650D01*
X236150Y312945D01*
Y311945D01*
X235650Y311445D01*
X232650D02*X235650D01*
X232150Y311945D02*X232650Y311445D01*
X232150Y312945D02*Y311945D01*
X233150Y313445D02*X235150Y311445D01*
X232650Y310245D02*X232150Y309745D01*
X232650Y310245D02*X235650D01*
X236150Y309745D01*
Y308745D01*
X235650Y308245D01*
X232650D02*X235650D01*
X232150Y308745D02*X232650Y308245D01*
X232150Y309745D02*Y308745D01*
X233150Y310245D02*X235150Y308245D01*
X226850Y371750D02*X228350D01*
X226350Y372250D02*X226850Y371750D01*
X226350Y375250D02*Y372250D01*
Y375250D02*X226850Y375750D01*
X228350D01*
X230050Y371750D02*X231050D01*
X230550Y375750D02*Y371750D01*
X229550Y374750D02*X230550Y375750D01*
X232250Y372250D02*X232750Y371750D01*
X232250Y375250D02*Y372250D01*
Y375250D02*X232750Y375750D01*
X233750D01*
X234250Y375250D01*
Y372250D01*
X233750Y371750D02*X234250Y372250D01*
X232750Y371750D02*X233750D01*
X232250Y372750D02*X234250Y374750D01*
X235450Y375250D02*X235950Y375750D01*
X236950D01*
X237450Y375250D01*
Y372250D01*
X236950Y371750D02*X237450Y372250D01*
X235950Y371750D02*X236950D01*
X235450Y372250D02*X235950Y371750D01*
Y373750D02*X237450D01*
X226350Y386750D02*X227850D01*
X225850Y387250D02*X226350Y386750D01*
X225850Y390250D02*Y387250D01*
Y390250D02*X226350Y390750D01*
X227850D01*
X229550Y386750D02*X230550D01*
X230050Y390750D02*Y386750D01*
X229050Y389750D02*X230050Y390750D01*
X231750Y387250D02*X232250Y386750D01*
X231750Y390250D02*Y387250D01*
Y390250D02*X232250Y390750D01*
X233250D01*
X233750Y390250D01*
Y387250D01*
X233250Y386750D02*X233750Y387250D01*
X232250Y386750D02*X233250D01*
X231750Y387750D02*X233750Y389750D01*
X234950Y388750D02*X236950Y390750D01*
X234950Y388750D02*X237450D01*
X236950Y390750D02*Y386750D01*
X225945Y360250D02*X227945D01*
X228445Y359750D01*
Y358750D01*
X227945Y358250D02*X228445Y358750D01*
X226445Y358250D02*X227945D01*
X226445Y360250D02*Y356250D01*
Y358250D02*X228445Y356250D01*
X230145D02*X231145D01*
X230645Y360250D02*Y356250D01*
X229645Y359250D02*X230645Y360250D01*
X232345Y356750D02*X232845Y356250D01*
X232345Y359750D02*Y356750D01*
Y359750D02*X232845Y360250D01*
X233845D01*
X234345Y359750D01*
Y356750D01*
X233845Y356250D02*X234345Y356750D01*
X232845Y356250D02*X233845D01*
X232345Y357250D02*X234345Y359250D01*
X235545Y358250D02*X237545Y360250D01*
X235545Y358250D02*X238045D01*
X237545Y360250D02*Y356250D01*
X234500Y337600D02*Y336100D01*
X231000D02*X234500D01*
X230500Y336600D02*X231000Y336100D01*
X230500Y337100D02*Y336600D01*
X231000Y337600D02*X230500Y337100D01*
X232500Y334900D02*X234500Y332900D01*
X232500Y334900D02*Y332400D01*
X230500Y332900D02*X234500D01*
X226000Y227100D02*X227500D01*
Y223600D01*
X227000Y223100D02*X227500Y223600D01*
X226500Y223100D02*X227000D01*
X226000Y223600D02*X226500Y223100D01*
X229200D02*X230200D01*
X229700Y227100D02*Y223100D01*
X228700Y226100D02*X229700Y227100D01*
X299150Y227259D02*Y225259D01*
X298650Y224759D01*
X297650D02*X298650D01*
X297150Y225259D02*X297650Y224759D01*
X297150Y226759D02*Y225259D01*
X295150Y226759D02*X299150D01*
X297150D02*X295150Y224759D01*
Y223059D02*Y222059D01*
Y222559D02*X299150D01*
X298150Y223559D02*X299150Y222559D01*
X289500Y226600D02*X293000D01*
X289500D02*X289000Y226100D01*
Y225100D01*
X289500Y224600D01*
X293000D01*
X289000Y222900D02*Y221900D01*
Y222400D02*X293000D01*
X292000Y223400D02*X293000Y222400D01*
X301150Y226250D02*Y224750D01*
X301650Y226750D02*X301150Y226250D01*
X301650Y226750D02*X304650D01*
X305150Y226250D01*
Y224750D01*
X301150Y223050D02*Y222050D01*
Y222550D02*X305150D01*
X304150Y223550D02*X305150Y222550D01*
X270445Y318750D02*X272445D01*
X272945Y318250D01*
Y317250D01*
X272445Y316750D02*X272945Y317250D01*
X270945Y316750D02*X272445D01*
X270945Y318750D02*Y314750D01*
Y316750D02*X272945Y314750D01*
X274645D02*X275645D01*
X275145Y318750D02*Y314750D01*
X274145Y317750D02*X275145Y318750D01*
X276845Y315250D02*X277345Y314750D01*
X276845Y318250D02*Y315250D01*
Y318250D02*X277345Y318750D01*
X278345D01*
X278845Y318250D01*
Y315250D01*
X278345Y314750D02*X278845Y315250D01*
X277345Y314750D02*X278345D01*
X276845Y315750D02*X278845Y317750D01*
X280045Y318250D02*X280545Y318750D01*
X281545D01*
X282045Y318250D01*
Y315250D01*
X281545Y314750D02*X282045Y315250D01*
X280545Y314750D02*X281545D01*
X280045Y315250D02*X280545Y314750D01*
Y316750D02*X282045D01*
X298000Y381600D02*Y380100D01*
X294500D02*X298000D01*
X294000Y380600D02*X294500Y380100D01*
X294000Y381100D02*Y380600D01*
X294500Y381600D02*X294000Y381100D01*
X298000Y378900D02*Y376900D01*
X296000Y378900D02*X298000D01*
X296000D02*X296500Y378400D01*
Y377400D01*
X296000Y376900D01*
X294500D02*X296000D01*
X294000Y377400D02*X294500Y376900D01*
X294000Y378400D02*Y377400D01*
X294500Y378900D02*X294000Y378400D01*
X279000Y380600D02*X280500D01*
Y377100D01*
X280000Y376600D02*X280500Y377100D01*
X279500Y376600D02*X280000D01*
X279000Y377100D02*X279500Y376600D01*
X281700Y380100D02*X282200Y380600D01*
X283200D01*
X283700Y380100D01*
Y377100D01*
X283200Y376600D02*X283700Y377100D01*
X282200Y376600D02*X283200D01*
X281700Y377100D02*X282200Y376600D01*
Y378600D02*X283700D01*
X292850Y314750D02*X294350D01*
X292350Y315250D02*X292850Y314750D01*
X292350Y318250D02*Y315250D01*
Y318250D02*X292850Y318750D01*
X294350D01*
X296050Y314750D02*X297050D01*
X296550Y318750D02*Y314750D01*
X295550Y317750D02*X296550Y318750D01*
X298250Y315250D02*X298750Y314750D01*
X298250Y318250D02*Y315250D01*
Y318250D02*X298750Y318750D01*
X299750D01*
X300250Y318250D01*
Y315250D01*
X299750Y314750D02*X300250Y315250D01*
X298750Y314750D02*X299750D01*
X298250Y315750D02*X300250Y317750D01*
X301450Y318250D02*X301950Y318750D01*
X303450D01*
X303950Y318250D01*
Y317250D01*
X301450Y314750D02*X303950Y317250D01*
X301450Y314750D02*X303950D01*
X293350Y331250D02*X294850D01*
X292850Y331750D02*X293350Y331250D01*
X292850Y334750D02*Y331750D01*
Y334750D02*X293350Y335250D01*
X294850D01*
X296550Y331250D02*X297550D01*
X297050Y335250D02*Y331250D01*
X296050Y334250D02*X297050Y335250D01*
X298750Y331750D02*X299250Y331250D01*
X298750Y334750D02*Y331750D01*
Y334750D02*X299250Y335250D01*
X300250D01*
X300750Y334750D01*
Y331750D01*
X300250Y331250D02*X300750Y331750D01*
X299250Y331250D02*X300250D01*
X298750Y332250D02*X300750Y334250D01*
X302450Y331250D02*X303450D01*
X302950Y335250D02*Y331250D01*
X301950Y334250D02*X302950Y335250D01*
X291945Y352250D02*X293945D01*
X294445Y351750D01*
Y350750D01*
X293945Y350250D02*X294445Y350750D01*
X292445Y350250D02*X293945D01*
X292445Y352250D02*Y348250D01*
Y350250D02*X294445Y348250D01*
X296145D02*X297145D01*
X296645Y352250D02*Y348250D01*
X295645Y351250D02*X296645Y352250D01*
X298345Y348750D02*X298845Y348250D01*
X298345Y351750D02*Y348750D01*
Y351750D02*X298845Y352250D01*
X299845D01*
X300345Y351750D01*
Y348750D01*
X299845Y348250D02*X300345Y348750D01*
X298845Y348250D02*X299845D01*
X298345Y349250D02*X300345Y351250D01*
X301545Y348750D02*X302045Y348250D01*
X301545Y351750D02*Y348750D01*
Y351750D02*X302045Y352250D01*
X303045D01*
X303545Y351750D01*
Y348750D01*
X303045Y348250D02*X303545Y348750D01*
X302045Y348250D02*X303045D01*
X301545Y349250D02*X303545Y351250D01*
X324250Y115450D02*Y113950D01*
X323750Y113450D02*X324250Y113950D01*
X320750Y113450D02*X323750D01*
X320750D02*X320250Y113950D01*
Y115450D02*Y113950D01*
X323750Y116650D02*X324250Y117150D01*
X322750Y116650D02*X323750D01*
X322750D02*X322250Y117150D01*
Y118150D02*Y117150D01*
Y118150D02*X322750Y118650D01*
X323750D01*
X324250Y118150D02*X323750Y118650D01*
X324250Y118150D02*Y117150D01*
X321750Y116650D02*X322250Y117150D01*
X320750Y116650D02*X321750D01*
X320750D02*X320250Y117150D01*
Y118150D02*Y117150D01*
Y118150D02*X320750Y118650D01*
X321750D01*
X322250Y118150D02*X321750Y118650D01*
X311250Y139750D02*X313250Y141750D01*
Y143250D02*Y141750D01*
X312750Y143750D02*X313250Y143250D01*
X311750Y143750D02*X312750D01*
X311250Y143250D02*X311750Y143750D01*
X311250Y143250D02*Y142250D01*
X311750Y141750D01*
X313250D01*
X328750Y102750D02*X330750D01*
X331250Y102250D01*
Y101250D01*
X330750Y100750D02*X331250Y101250D01*
X329250Y100750D02*X330750D01*
X329250Y102750D02*Y98750D01*
Y100750D02*X331250Y98750D01*
X332450Y102250D02*X332950Y102750D01*
X333950D01*
X334450Y102250D01*
Y99250D01*
X333950Y98750D02*X334450Y99250D01*
X332950Y98750D02*X333950D01*
X332450Y99250D02*X332950Y98750D01*
Y100750D02*X334450D01*
X342400Y175600D02*X343900D01*
X341900Y176100D02*X342400Y175600D01*
X341900Y179100D02*Y176100D01*
Y179100D02*X342400Y179600D01*
X343900D01*
X345600Y175600D02*X346600D01*
X346100Y179600D02*Y175600D01*
X345100Y178600D02*X346100Y179600D01*
X347800Y177600D02*X349800Y179600D01*
X347800Y177600D02*X350300D01*
X349800Y179600D02*Y175600D01*
X388400D02*X389900D01*
X387900Y176100D02*X388400Y175600D01*
X387900Y179100D02*Y176100D01*
Y179100D02*X388400Y179600D01*
X389900D01*
X391600Y175600D02*X392600D01*
X392100Y179600D02*Y175600D01*
X391100Y178600D02*X392100Y179600D01*
X393800Y179100D02*X394300Y179600D01*
X395300D01*
X395800Y179100D01*
Y176100D01*
X395300Y175600D02*X395800Y176100D01*
X394300Y175600D02*X395300D01*
X393800Y176100D02*X394300Y175600D01*
Y177600D02*X395800D01*
X359300Y125400D02*X360800D01*
X358800Y125900D02*X359300Y125400D01*
X358800Y128900D02*Y125900D01*
Y128900D02*X359300Y129400D01*
X360800D01*
X362000Y128900D02*Y125900D01*
Y128900D02*X362500Y129400D01*
X363500D01*
X364000Y128900D01*
Y125900D01*
X363500Y125400D02*X364000Y125900D01*
X362500Y125400D02*X363500D01*
X362000Y125900D02*X362500Y125400D01*
X365200Y129400D02*Y125400D01*
Y129400D02*Y128900D01*
X367700Y126400D01*
Y129400D02*Y125400D01*
X368900Y129400D02*Y125400D01*
Y129400D02*Y128900D01*
X371400Y126400D01*
Y129400D02*Y125400D01*
X372600Y127400D02*X374600Y129400D01*
X372600Y127400D02*X375100D01*
X374600Y129400D02*Y125400D01*
X374400Y75100D02*X375900D01*
X373900Y75600D02*X374400Y75100D01*
X373900Y78600D02*Y75600D01*
Y78600D02*X374400Y79100D01*
X375900D01*
X377100Y78600D02*Y75600D01*
Y78600D02*X377600Y79100D01*
X378600D01*
X379100Y78600D01*
Y75600D01*
X378600Y75100D02*X379100Y75600D01*
X377600Y75100D02*X378600D01*
X377100Y75600D02*X377600Y75100D01*
X380300Y79100D02*Y75100D01*
Y79100D02*Y78600D01*
X382800Y76100D01*
Y79100D02*Y75100D01*
X384000Y79100D02*Y75100D01*
Y79100D02*Y78600D01*
X386500Y76100D01*
Y79100D02*Y75100D01*
X387700Y79100D02*X389700D01*
X387700D02*Y77100D01*
X388200Y77600D01*
X389200D01*
X389700Y77100D01*
Y75600D01*
X389200Y75100D02*X389700Y75600D01*
X388200Y75100D02*X389200D01*
X387700Y75600D02*X388200Y75100D01*
X276400Y153100D02*X279900D01*
X280400Y153600D01*
Y154600D02*Y153600D01*
Y154600D02*X279900Y155100D01*
X276400D02*X279900D01*
X276900Y156300D02*X276400Y156800D01*
Y157800D02*Y156800D01*
Y157800D02*X276900Y158300D01*
X279900D01*
X280400Y157800D02*X279900Y158300D01*
X280400Y157800D02*Y156800D01*
X279900Y156300D02*X280400Y156800D01*
X278400Y158300D02*Y156800D01*
X300250Y188750D02*X302250D01*
X302750Y188250D01*
Y187250D01*
X302250Y186750D02*X302750Y187250D01*
X300750Y186750D02*X302250D01*
X300750Y188750D02*Y184750D01*
Y186750D02*X302750Y184750D01*
X303950Y185250D02*X304450Y184750D01*
X303950Y186250D02*Y185250D01*
Y186250D02*X304450Y186750D01*
X305450D01*
X305950Y186250D01*
Y185250D01*
X305450Y184750D02*X305950Y185250D01*
X304450Y184750D02*X305450D01*
X303950Y187250D02*X304450Y186750D01*
X303950Y188250D02*Y187250D01*
Y188250D02*X304450Y188750D01*
X305450D01*
X305950Y188250D01*
Y187250D01*
X305450Y186750D02*X305950Y187250D01*
X306250Y153950D02*Y152450D01*
X305750Y151950D02*X306250Y152450D01*
X302750Y151950D02*X305750D01*
X302750D02*X302250Y152450D01*
Y153950D02*Y152450D01*
X306250Y156650D02*Y155650D01*
X302250Y156150D02*X306250D01*
X303250Y155150D02*X302250Y156150D01*
X305750Y157850D02*X306250Y158350D01*
X302750Y157850D02*X305750D01*
X302750D02*X302250Y158350D01*
Y159350D02*Y158350D01*
Y159350D02*X302750Y159850D01*
X305750D01*
X306250Y159350D02*X305750Y159850D01*
X306250Y159350D02*Y158350D01*
X305250Y157850D02*X303250Y159850D01*
X280750Y184250D02*X282250D01*
X280250Y184750D02*X280750Y184250D01*
X280250Y187750D02*Y184750D01*
Y187750D02*X280750Y188250D01*
X282250D01*
X283450Y184250D02*X285950Y186750D01*
Y188250D02*Y186750D01*
X283450Y188250D02*X285950D01*
X310750Y65950D02*Y64450D01*
X310250Y63950D02*X310750Y64450D01*
X307250Y63950D02*X310250D01*
X307250D02*X306750Y64450D01*
Y65950D02*Y64450D01*
X307250Y67150D02*X306750Y67650D01*
Y68650D02*Y67650D01*
Y68650D02*X307250Y69150D01*
X310250D01*
X310750Y68650D02*X310250Y69150D01*
X310750Y68650D02*Y67650D01*
X310250Y67150D02*X310750Y67650D01*
X308750Y69150D02*Y67650D01*
X277400Y64350D02*X280900D01*
X281400Y64850D01*
Y65850D02*Y64850D01*
Y65850D02*X280900Y66350D01*
X277400D02*X280900D01*
X277900Y67550D02*X277400Y68050D01*
Y69550D02*Y68050D01*
Y69550D02*X277900Y70050D01*
X278900D01*
X281400Y67550D02*X278900Y70050D01*
X281400D02*Y67550D01*
X287345Y99250D02*X289345D01*
X289845Y98750D01*
Y97750D01*
X289345Y97250D02*X289845Y97750D01*
X287845Y97250D02*X289345D01*
X287845Y99250D02*Y95250D01*
Y97250D02*X289845Y95250D01*
X291045Y99250D02*X293045D01*
X291045D02*Y97250D01*
X291545Y97750D01*
X292545D01*
X293045Y97250D01*
Y95750D01*
X292545Y95250D02*X293045Y95750D01*
X291545Y95250D02*X292545D01*
X291045Y95750D02*X291545Y95250D01*
X280750Y129950D02*Y127950D01*
Y129950D02*X281250Y130450D01*
X282250D01*
X282750Y129950D02*X282250Y130450D01*
X282750Y129950D02*Y128450D01*
X280750D02*X284750D01*
X282750D02*X284750Y130450D01*
X280750Y133150D02*X281250Y133650D01*
X280750Y133150D02*Y132150D01*
X281250Y131650D02*X280750Y132150D01*
X281250Y131650D02*X284250D01*
X284750Y132150D01*
X282750Y133150D02*X283250Y133650D01*
X282750Y133150D02*Y131650D01*
X284750Y133150D02*Y132150D01*
Y133150D02*X284250Y133650D01*
X283250D02*X284250D01*
X275210Y135137D02*Y133637D01*
X274710Y133137D02*X275210Y133637D01*
X271710Y133137D02*X274710D01*
X271710D02*X271210Y133637D01*
Y135137D02*Y133637D01*
X271710Y136337D02*X274710D01*
X271710D02*X271210Y136837D01*
Y137837D02*Y136837D01*
Y137837D02*X271710Y138337D01*
X274710D01*
X275210Y137837D02*X274710Y138337D01*
X275210Y137837D02*Y136837D01*
X274710Y136337D02*X275210Y136837D01*
X271210Y139537D02*X275210D01*
X271210D02*X271710D01*
X274210Y142037D01*
X271210D02*X275210D01*
X271210Y143237D02*X275210D01*
X271210D02*X271710D01*
X274210Y145737D01*
X271210D02*X275210D01*
X271710Y146937D02*X271210Y147437D01*
Y148437D02*Y147437D01*
Y148437D02*X271710Y148937D01*
X274710D01*
X275210Y148437D02*X274710Y148937D01*
X275210Y148437D02*Y147437D01*
X274710Y146937D02*X275210Y147437D01*
X273210Y148937D02*Y147437D01*
X286655Y45250D02*X288155D01*
X286155Y45750D02*X286655Y45250D01*
X286155Y48750D02*Y45750D01*
Y48750D02*X286655Y49250D01*
X288155D01*
X289355Y45250D02*X291355Y47250D01*
Y48750D02*Y47250D01*
X290855Y49250D02*X291355Y48750D01*
X289855Y49250D02*X290855D01*
X289355Y48750D02*X289855Y49250D01*
X289355Y48750D02*Y47750D01*
X289855Y47250D01*
X291355D01*
X275210Y36137D02*Y34637D01*
X274710Y34137D02*X275210Y34637D01*
X271710Y34137D02*X274710D01*
X271710D02*X271210Y34637D01*
Y36137D02*Y34637D01*
X271710Y37337D02*X274710D01*
X271710D02*X271210Y37837D01*
Y38837D02*Y37837D01*
Y38837D02*X271710Y39337D01*
X274710D01*
X275210Y38837D02*X274710Y39337D01*
X275210Y38837D02*Y37837D01*
X274710Y37337D02*X275210Y37837D01*
X271210Y40537D02*X275210D01*
X271210D02*X271710D01*
X274210Y43037D01*
X271210D02*X275210D01*
X271210Y44237D02*X275210D01*
X271210D02*X271710D01*
X274210Y46737D01*
X271210D02*X275210D01*
X271710Y47937D02*X271210Y48437D01*
Y49937D02*Y48437D01*
Y49937D02*X271710Y50437D01*
X272710D01*
X275210Y47937D02*X272710Y50437D01*
X275210D02*Y47937D01*
X328250Y85250D02*X329750D01*
X327750Y85750D02*X328250Y85250D01*
X327750Y88750D02*Y85750D01*
Y88750D02*X328250Y89250D01*
X329750D01*
X331450Y85250D02*X332450D01*
X331950Y89250D02*Y85250D01*
X330950Y88250D02*X331950Y89250D01*
X333650D02*X335650D01*
X333650D02*Y87250D01*
X334150Y87750D01*
X335150D01*
X335650Y87250D01*
Y85750D01*
X335150Y85250D02*X335650Y85750D01*
X334150Y85250D02*X335150D01*
X333650Y85750D02*X334150Y85250D01*
X335750Y52750D02*X337250D01*
X335250Y53250D02*X335750Y52750D01*
X335250Y56250D02*Y53250D01*
Y56250D02*X335750Y56750D01*
X337250D01*
X338950Y52750D02*X339950D01*
X339450Y56750D02*Y52750D01*
X338450Y55750D02*X339450Y56750D01*
X342650D02*X343150Y56250D01*
X341650Y56750D02*X342650D01*
X341150Y56250D02*X341650Y56750D01*
X341150Y56250D02*Y53250D01*
X341650Y52750D01*
X342650Y54750D02*X343150Y54250D01*
X341150Y54750D02*X342650D01*
X341650Y52750D02*X342650D01*
X343150Y53250D01*
Y54250D02*Y53250D01*
X306750Y49750D02*X308250D01*
X306250Y50250D02*X306750Y49750D01*
X306250Y53250D02*Y50250D01*
Y53250D02*X306750Y53750D01*
X308250D01*
X310950D02*X311450Y53250D01*
X309950Y53750D02*X310950D01*
X309450Y53250D02*X309950Y53750D01*
X309450Y53250D02*Y50250D01*
X309950Y49750D01*
X310950Y51750D02*X311450Y51250D01*
X309450Y51750D02*X310950D01*
X309950Y49750D02*X310950D01*
X311450Y50250D01*
Y51250D02*Y50250D01*
X336250Y69750D02*X338250D01*
X338750Y69250D01*
Y68250D01*
X338250Y67750D02*X338750Y68250D01*
X336750Y67750D02*X338250D01*
X336750Y69750D02*Y65750D01*
Y67750D02*X338750Y65750D01*
X339950Y67750D02*X341950Y69750D01*
X339950Y67750D02*X342450D01*
X341950Y69750D02*Y65750D01*
M02*
