M48
INCH
T61C0.035
T60C0.020
T59C0.032
T58C0.079
T57C0.040
T56C0.038
T55C0.022
%
T60
X006890Y040260
X006890Y020160
X008209Y000854
X010355Y016208
X010355Y006208
X012205Y011208
X013090Y037060
X013090Y027060
X013575Y016208
X013575Y006208
X017990Y040260
X017990Y020160
X024300Y023010
X024300Y022660
X026000Y034310
X026000Y033910
X026000Y033510
X026000Y033110
X026000Y032710
X026400Y034310
X026400Y033910
X026400Y033510
X026400Y033110
X026400Y032710
X026800Y034310
X026800Y033910
X026800Y033510
X026800Y033110
X026800Y032710
X026950Y023860
X027100Y037060
X027100Y027060
X027600Y023060
X027600Y022610
X028890Y014585
X029390Y016635
X036290Y012560
X038940Y012560
X044580Y009360
X047800Y009360
T55
X026100Y037060
X026100Y027060
X027100Y036060
X027100Y026060
X028100Y037060
X028100Y027060
T59
X025940Y016210
X025940Y015210
X025940Y006210
X025940Y005210
T61
X022600Y037360
X022600Y034360
X022675Y032685
X023250Y035860
X026350Y030810
X026890Y017060
X028540Y006710
X029650Y033360
X029890Y013460
X030450Y031910
X030690Y007310
X032440Y004610
X032549Y006519
X035498Y014318
X038298Y016602
T56
X021450Y039710
X021450Y038710
X021450Y037710
X021450Y036710
X021450Y035710
X021450Y034710
X021450Y033710
X021450Y032710
X021450Y031710
X021450Y030710
X021450Y029710
X021450Y028710
X021450Y027710
X021450Y026710
X021450Y025710
X021450Y024710
X021450Y023710
X021450Y022710
X021450Y021710
X021450Y020710
X022450Y039710
X022450Y029710
X022450Y020710
X023450Y039710
X023450Y029710
X023450Y020710
X024450Y039710
X024450Y029710
X024450Y020710
X025450Y039710
X025450Y029710
X025450Y020710
X026450Y039710
X026450Y029710
X026450Y020710
X027450Y039710
X027450Y029710
X027450Y020710
X028450Y039710
X028450Y029710
X028450Y020710
X029450Y039710
X029450Y029710
X029450Y020710
X030450Y039710
X030450Y029710
X030450Y020710
X031450Y039710
X031450Y038710
X031450Y037710
X031450Y036710
X031450Y035710
X031450Y034710
X031450Y033710
X031450Y032710
X031450Y031710
X031450Y030710
X031450Y029710
X031450Y028710
X031450Y027710
X031450Y026710
X031450Y025710
X031450Y024710
X031450Y023710
X031450Y022710
X031450Y021710
X031450Y020710
T57
X035190Y011110
X036190Y011110
X036190Y006110
X037190Y011110
X037190Y006110
X038190Y011110
X038190Y006110
X039190Y006110
X040190Y006110
T58
X023940Y018210
X023940Y014210
X023940Y008210
X023940Y004210
M30
