G04 start of page 6 for group -4063 idx -4063 *
G04 Title: (unknown), componentmask *
G04 Creator: pcb 20140316 *
G04 CreationDate: Tue 22 Dec 2015 03:43:44 PM GMT UTC *
G04 For: fosse *
G04 Format: Gerber/RS-274X *
G04 PCB-Dimensions (mil): 5250.00 5000.00 *
G04 PCB-Coordinate-Origin: lower left *
%MOIN*%
%FSLAX25Y25*%
%LNTOPMASK*%
%ADD70R,0.0615X0.0615*%
%ADD69R,0.0300X0.0300*%
%ADD68R,0.0572X0.0572*%
%ADD67C,0.1660*%
%ADD66C,0.2060*%
%ADD65C,0.0860*%
%ADD64C,0.0001*%
%ADD63C,0.0660*%
%ADD62C,0.0560*%
G54D62*X261000Y370600D03*
X281000D03*
X271000Y360600D03*
G54D63*X214500Y357100D03*
Y347100D03*
G54D64*G36*
X311200Y400400D02*Y393800D01*
X317800D01*
Y400400D01*
X311200D01*
G37*
G54D63*X314500Y387100D03*
Y377100D03*
Y367100D03*
Y357100D03*
Y347100D03*
Y337100D03*
Y327100D03*
G54D64*G36*
X211200Y400400D02*Y393800D01*
X217800D01*
Y400400D01*
X211200D01*
G37*
G54D63*X214500Y387100D03*
Y377100D03*
Y367100D03*
G54D64*G36*
X221200Y400400D02*Y393800D01*
X227800D01*
Y400400D01*
X221200D01*
G37*
G54D63*X234500Y397100D03*
X244500D03*
X254500D03*
X264500D03*
X274500D03*
X284500D03*
X294500D03*
X304500D03*
G54D62*X261000Y270600D03*
X281000D03*
X271000Y260600D03*
G54D63*X214500Y307100D03*
Y297100D03*
Y287100D03*
Y277100D03*
G54D64*G36*
X221200Y300400D02*Y293800D01*
X227800D01*
Y300400D01*
X221200D01*
G37*
G54D63*X314500Y317100D03*
Y307100D03*
Y297100D03*
Y287100D03*
Y277100D03*
Y267100D03*
Y257100D03*
Y247100D03*
Y237100D03*
Y227100D03*
Y217100D03*
Y207100D03*
X214500Y267100D03*
Y257100D03*
Y247100D03*
Y237100D03*
Y227100D03*
Y217100D03*
Y207100D03*
G54D64*G36*
X221200Y210400D02*Y203800D01*
X227800D01*
Y210400D01*
X221200D01*
G37*
G54D63*X234500Y207100D03*
X254500D03*
X264500D03*
X274500D03*
X284500D03*
X294500D03*
X304500D03*
X214500Y337100D03*
Y327100D03*
Y317100D03*
X234500Y297100D03*
X244500D03*
X254500D03*
X264500D03*
X274500D03*
X284500D03*
X294500D03*
X304500D03*
G54D64*G36*
X347600Y115400D02*Y106800D01*
X356200D01*
Y115400D01*
X347600D01*
G37*
G54D65*X361900Y111100D03*
X371900D03*
X381900D03*
G54D64*G36*
X357600Y65400D02*Y56800D01*
X366200D01*
Y65400D01*
X357600D01*
G37*
G54D65*X371900Y61100D03*
X381900D03*
X391900D03*
X401900D03*
G54D63*X244500Y207100D03*
G54D66*X239400Y142100D03*
G54D67*Y182100D03*
G54D65*X259400Y152100D03*
Y162100D03*
G54D67*X239400Y42100D03*
G54D66*Y82100D03*
G54D65*X259400Y52100D03*
Y62100D03*
G54D68*X226095Y367281D02*Y364919D01*
Y351781D02*Y349419D01*
X237905Y367281D02*Y364919D01*
Y382281D02*Y379919D01*
Y351781D02*Y349419D01*
X226095Y382281D02*Y379919D01*
X270595Y310281D02*Y307919D01*
X225819Y320100D02*X228181D01*
X225819Y308290D02*X228181D01*
X240607Y315643D02*X241393D01*
X240607Y308557D02*X241393D01*
X253607Y315643D02*X254393D01*
X253607Y308557D02*X254393D01*
X292095Y310281D02*Y307919D01*
X289819Y254514D02*X292181D01*
X289819Y242704D02*X292181D01*
X303905Y310281D02*Y307919D01*
X299319Y254505D02*X301681D01*
X299319Y242695D02*X301681D01*
X282405Y310281D02*Y307919D01*
G54D69*X281000Y252100D02*Y245600D01*
X276000Y252100D02*Y245600D01*
X271000Y252100D02*Y245600D01*
G54D68*X292095Y326781D02*Y324419D01*
X303905Y326781D02*Y324419D01*
X292095Y343781D02*Y341419D01*
X303905Y343781D02*Y341419D01*
X243095Y241105D02*Y235595D01*
X254905Y241105D02*Y235595D01*
G54D69*X266000Y252100D02*Y245600D01*
Y231600D02*Y225100D01*
X271000Y231600D02*Y225100D01*
X276000Y231600D02*Y225100D01*
X281000Y231600D02*Y225100D01*
G54D68*X328645Y110695D02*X334155D01*
X328645Y122505D02*X334155D01*
X325495Y80355D02*Y74845D01*
X337305Y80355D02*Y74845D01*
X327857Y94993D02*Y94207D01*
X334943Y94993D02*Y94207D01*
G54D70*X345900Y171332D02*Y160702D01*
Y148498D02*Y137868D01*
X391900Y171332D02*Y160702D01*
Y148498D02*Y137868D01*
G54D68*X333495Y48855D02*Y43345D01*
X315305Y45781D02*Y43419D01*
X345305Y48855D02*Y43345D01*
X335857Y61993D02*Y61207D01*
X342943Y61993D02*Y61207D01*
X314719Y61195D02*X317081D01*
X314719Y73005D02*X317081D01*
G54D69*X285400Y60100D02*Y53600D01*
X290400Y60100D02*Y53600D01*
X295400Y60100D02*Y53600D01*
X300400Y60100D02*Y53600D01*
Y80600D02*Y74100D01*
G54D68*X303495Y45781D02*Y43419D01*
G54D69*X295400Y80600D02*Y74100D01*
G54D68*X296305Y91281D02*Y88919D01*
X294805Y41281D02*Y38919D01*
G54D69*X290400Y80600D02*Y74100D01*
X285400Y80600D02*Y74100D01*
G54D68*X284495Y91281D02*Y88919D01*
X282995Y41281D02*Y38919D01*
G54D69*X283900Y149100D02*Y142600D01*
X288900Y149100D02*Y142600D01*
G54D68*X288507Y127057D02*X289293D01*
X288507Y134143D02*X289293D01*
G54D69*X293900Y149100D02*Y142600D01*
X298900Y149100D02*Y142600D01*
G54D68*X310219Y150195D02*X312581D01*
X308495Y135781D02*Y133419D01*
X320305Y135781D02*Y133419D01*
G54D69*X298900Y169600D02*Y163100D01*
G54D68*X297495Y180281D02*Y177919D01*
X309305Y180281D02*Y177919D01*
X310219Y162005D02*X312581D01*
G54D69*X293900Y169600D02*Y163100D01*
X288900Y169600D02*Y163100D01*
X283900Y169600D02*Y163100D01*
G54D68*X277495Y180281D02*Y177919D01*
X289305Y180281D02*Y177919D01*
M02*
