G04 start of page 9 for group -4078 idx -4078 *
G04 Title: (unknown), bottomsilk *
G04 Creator: pcb 20140316 *
G04 CreationDate: Wed 25 Mar 2015 04:01:29 PM GMT UTC *
G04 For: fosse *
G04 Format: Gerber/RS-274X *
G04 PCB-Dimensions (mil): 1250.00 2150.00 *
G04 PCB-Coordinate-Origin: lower left *
%MOIN*%
%FSLAX25Y25*%
%LNBOTTOMSILK*%
%ADD64C,0.0100*%
%ADD63C,0.0060*%
%ADD62C,0.0080*%
%ADD61C,0.0160*%
G54D61*X42000Y58500D02*X92000D01*
X42000Y99500D02*Y58500D01*
Y99500D02*X92000D01*
Y58500D01*
X57000Y90500D02*X55500Y89000D01*
X57000Y92500D02*X55500Y91000D01*
X57000Y92500D02*Y88500D01*
X55500Y87000D01*
X57000Y90500D02*X59000D01*
X67000Y79500D02*Y78500D01*
Y79500D02*X67500Y79000D01*
X66500D02*X67500D01*
X66500D02*X67000Y78500D01*
X67500Y79000D01*
X65500Y62500D02*G75*G03X67000Y61000I1500J0D01*G01*
G75*G03X68500Y62500I0J1500D01*G01*
X77000Y88000D02*G75*G03X78500Y89500I0J1500D01*G01*
X75500D02*G75*G03X77000Y88000I1500J0D01*G01*
Y91000D02*G75*G03X75500Y89500I0J-1500D01*G01*
X78500D02*G75*G03X77000Y91000I-1500J0D01*G01*
X75500Y92500D02*G75*G03X77000Y91000I1500J0D01*G01*
X67000Y78500D02*G75*G03X67500Y79000I0J500D01*G01*
X66500D02*G75*G03X67000Y78500I500J0D01*G01*
Y79500D02*G75*G03X66500Y79000I0J-500D01*G01*
X67500D02*G75*G03X67000Y79500I-500J0D01*G01*
G54D62*X67814Y42468D02*Y38532D01*
X57186Y42468D02*Y38532D01*
X42638Y33260D02*X47362D01*
X42638Y40740D02*X47362D01*
G54D63*X42000Y158500D02*X92000D01*
X42000Y199500D02*Y158500D01*
Y199500D02*X92000D01*
Y158500D01*
X57000Y190500D02*X55500Y189000D01*
X57000Y192500D02*X55500Y191000D01*
X57000Y192500D02*Y188500D01*
X55500Y187000D01*
X57000Y190500D02*X59000D01*
X67000Y179500D02*Y178500D01*
Y179500D02*X67500Y179000D01*
X66500D02*X67500D01*
X66500D02*X67000Y178500D01*
X67500Y179000D01*
X65500Y162500D02*G75*G03X67000Y161000I1500J0D01*G01*
G75*G03X68500Y162500I0J1500D01*G01*
X77000Y188000D02*G75*G03X78500Y189500I0J1500D01*G01*
X75500D02*G75*G03X77000Y188000I1500J0D01*G01*
Y191000D02*G75*G03X75500Y189500I0J-1500D01*G01*
X78500D02*G75*G03X77000Y191000I-1500J0D01*G01*
X75500Y192500D02*G75*G03X77000Y191000I1500J0D01*G01*
X67000Y178500D02*G75*G03X67500Y179000I0J500D01*G01*
X66500D02*G75*G03X67000Y178500I500J0D01*G01*
Y179500D02*G75*G03X66500Y179000I0J-500D01*G01*
X67500D02*G75*G03X67000Y179500I-500J0D01*G01*
G54D64*X27100Y128800D02*X68500D01*
X27100Y157300D02*Y128800D01*
Y157300D02*X68500D01*
Y128800D01*
G54D63*X42350Y31850D02*X43850D01*
X41850Y31350D02*X42350Y31850D01*
X41850Y28350D02*Y31350D01*
Y28350D02*X42350Y27850D01*
X43850D01*
X45050D02*X47050D01*
X45050D02*Y29850D01*
X45550Y29350D01*
X46550D01*
X47050Y29850D01*
Y31350D01*
X46550Y31850D02*X47050Y31350D01*
X45550Y31850D02*X46550D01*
X45050Y31350D02*X45550Y31850D01*
X94000Y76000D02*X98000D01*
Y77500D02*X97500Y78000D01*
X94500D02*X97500D01*
X94000Y77500D02*X94500Y78000D01*
X94000Y75500D02*Y77500D01*
X98000Y75500D02*Y77500D01*
X94000Y79700D02*Y80700D01*
Y80200D02*X98000D01*
X97000Y79200D02*X98000Y80200D01*
X69850Y38245D02*Y39745D01*
X70350Y37745D02*X69850Y38245D01*
X70350Y37745D02*X73350D01*
X73850Y38245D01*
Y39745D01*
X73350Y40945D02*X73850Y41445D01*
Y42945D01*
X73350Y43445D01*
X72350D02*X73350D01*
X69850Y40945D02*X72350Y43445D01*
X69850Y40945D02*Y43445D01*
X94000Y169500D02*X98000D01*
X94000D02*Y171500D01*
X96000Y172700D02*Y174200D01*
X94000Y172700D02*Y174700D01*
Y172700D02*X98000D01*
Y174700D01*
X94000Y176400D02*X98000D01*
Y177900D02*X97500Y178400D01*
X94500D02*X97500D01*
X94000Y177900D02*X94500Y178400D01*
X94000Y175900D02*Y177900D01*
X98000Y175900D02*Y177900D01*
X94000Y180100D02*Y181100D01*
Y180600D02*X98000D01*
X97000Y179600D02*X98000Y180600D01*
X94500Y182300D02*X94000Y182800D01*
X94500Y182300D02*X97500D01*
X98000Y182800D01*
Y183800D01*
X97500Y184300D01*
X94500D02*X97500D01*
X94000Y183800D02*X94500Y184300D01*
X94000Y182800D02*Y183800D01*
X95000Y182300D02*X97000Y184300D01*
X94500Y185500D02*X94000Y186000D01*
X94500Y185500D02*X97500D01*
X98000Y186000D01*
Y187000D01*
X97500Y187500D01*
X94500D02*X97500D01*
X94000Y187000D02*X94500Y187500D01*
X94000Y186000D02*Y187000D01*
X95000Y185500D02*X97000Y187500D01*
X71300Y137500D02*X74800D01*
X71300D02*X70800Y138000D01*
Y139000D01*
X71300Y139500D01*
X74800D01*
X70800Y141200D02*Y142200D01*
Y141700D02*X74800D01*
X73800Y140700D02*X74800Y141700D01*
X71300Y143400D02*X70800Y143900D01*
X71300Y143400D02*X74300D01*
X74800Y143900D01*
Y144900D01*
X74300Y145400D01*
X71300D02*X74300D01*
X70800Y144900D02*X71300Y145400D01*
X70800Y143900D02*Y144900D01*
X71800Y143400D02*X73800Y145400D01*
X71300Y146600D02*X70800Y147100D01*
X71300Y146600D02*X74300D01*
X74800Y147100D01*
Y148100D01*
X74300Y148600D01*
X71300D02*X74300D01*
X70800Y148100D02*X71300Y148600D01*
X70800Y147100D02*Y148100D01*
X71800Y146600D02*X73800Y148600D01*
M02*
