G04 start of page 8 for group -4079 idx -4079 *
G04 Title: (unknown), topsilk *
G04 Creator: pcb 20140316 *
G04 CreationDate: Fri 17 Jul 2015 04:33:48 PM GMT UTC *
G04 For: fosse *
G04 Format: Gerber/RS-274X *
G04 PCB-Dimensions (mil): 3250.00 2150.00 *
G04 PCB-Coordinate-Origin: lower left *
%MOIN*%
%FSLAX25Y25*%
%LNTOPSILK*%
%ADD77C,0.0130*%
%ADD76C,0.0080*%
%ADD75C,0.0100*%
%ADD74C,0.0060*%
%ADD73C,0.0150*%
G54D73*X19000Y141500D02*X17000Y143500D01*
X19000Y145500D02*Y141500D01*
X17000Y143500D02*X19000Y145500D01*
X17000Y143500D02*X22500D01*
X24000Y148500D02*Y138500D01*
X33500D01*
Y148500D02*Y138500D01*
X24000Y148500D02*X33500D01*
X87500Y192500D02*X97000D01*
X87500D02*Y182500D01*
X97000D01*
X102000Y189500D02*X104000Y187500D01*
X102000Y189500D02*Y185500D01*
X104000Y187500D02*X102000Y185500D01*
X98500Y187500D02*X104000D01*
X97000Y192500D02*Y182500D01*
X75500Y197000D02*X77500Y199000D01*
X75500Y197000D02*X79500D01*
X72500Y192000D02*X82500D01*
X72500D02*Y182500D01*
X82500D01*
Y192000D02*Y182500D01*
X77500Y199000D02*X79500Y197000D01*
X77500Y199000D02*Y193500D01*
X81000Y35000D02*X79000Y37000D01*
X81000Y39000D02*Y35000D01*
X79000Y37000D02*X81000Y39000D01*
X79000Y37000D02*X84500D01*
X19500Y24500D02*X17500Y22500D01*
X15500Y24500D02*X19500D01*
X17500Y22500D02*X15500Y24500D01*
X17500Y28000D02*Y22500D01*
G54D74*X44500Y174500D02*X46000D01*
X44500Y172500D02*X46500D01*
X44500Y176500D02*Y172500D01*
Y176500D02*X46500D01*
X49200Y174500D02*X49700Y174000D01*
X48200Y174500D02*X49200D01*
X47700Y174000D02*X48200Y174500D01*
X47700Y174000D02*Y173000D01*
X48200Y172500D01*
X49700Y174500D02*Y173000D01*
X50200Y172500D01*
X48200D02*X49200D01*
X49700Y173000D01*
X51900Y176500D02*Y173000D01*
X52400Y172500D01*
X51400Y175000D02*X52400D01*
X53400Y174000D02*Y173000D01*
Y174000D02*X53900Y174500D01*
X54900D01*
X55400Y174000D01*
Y173000D01*
X54900Y172500D02*X55400Y173000D01*
X53900Y172500D02*X54900D01*
X53400Y173000D02*X53900Y172500D01*
X57100Y174000D02*Y172500D01*
Y174000D02*X57600Y174500D01*
X58100D01*
X58600Y174000D01*
Y172500D01*
X56600Y174500D02*X57100Y174000D01*
X62100Y176500D02*Y172500D01*
X61600Y176500D02*X63600D01*
X64100Y176000D01*
Y175000D01*
X63600Y174500D02*X64100Y175000D01*
X62100Y174500D02*X63600D01*
X65800Y172500D02*X67300D01*
X65300Y173000D02*X65800Y172500D01*
X65300Y174000D02*Y173000D01*
Y174000D02*X65800Y174500D01*
X66800D01*
X67300Y174000D01*
X65300Y173500D02*X67300D01*
Y174000D02*Y173500D01*
X70000Y174500D02*X70500Y174000D01*
X69000Y174500D02*X70000D01*
X68500Y174000D02*X69000Y174500D01*
X68500Y174000D02*Y173000D01*
X69000Y172500D01*
X70500Y174500D02*Y173000D01*
X71000Y172500D01*
X69000D02*X70000D01*
X70500Y173000D01*
X72200Y176500D02*Y172500D01*
Y173000D02*X72700Y172500D01*
X73700D01*
X74200Y173000D01*
Y174000D02*Y173000D01*
X73700Y174500D02*X74200Y174000D01*
X72700Y174500D02*X73700D01*
X72200Y174000D02*X72700Y174500D01*
X75400Y174000D02*Y173000D01*
Y174000D02*X75900Y174500D01*
X76900D01*
X77400Y174000D01*
Y173000D01*
X76900Y172500D02*X77400Y173000D01*
X75900Y172500D02*X76900D01*
X75400Y173000D02*X75900Y172500D01*
X80600Y176500D02*Y172500D01*
X80100D02*X80600Y173000D01*
X79100Y172500D02*X80100D01*
X78600Y173000D02*X79100Y172500D01*
X78600Y174000D02*Y173000D01*
Y174000D02*X79100Y174500D01*
X80100D01*
X80600Y174000D01*
X81800Y174500D02*Y173000D01*
X82300Y172500D01*
X83800Y174500D02*Y171500D01*
X83300Y171000D02*X83800Y171500D01*
X82300Y171000D02*X83300D01*
X81800Y171500D02*X82300Y171000D01*
Y172500D02*X83300D01*
X83800Y173000D01*
X86800Y176500D02*Y172500D01*
X88800D01*
X91500Y174500D02*X92000Y174000D01*
X90500Y174500D02*X91500D01*
X90000Y174000D02*X90500Y174500D01*
X90000Y174000D02*Y173000D01*
X90500Y172500D01*
X92000Y174500D02*Y173000D01*
X92500Y172500D01*
X90500D02*X91500D01*
X92000Y173000D01*
X93700Y176500D02*Y172500D01*
Y173000D02*X94200Y172500D01*
X95200D01*
X95700Y173000D01*
Y174000D02*Y173000D01*
X95200Y174500D02*X95700Y174000D01*
X94200Y174500D02*X95200D01*
X93700Y174000D02*X94200Y174500D01*
X61500Y163000D02*X63500D01*
X64000Y163500D01*
Y164500D02*Y163500D01*
X63500Y165000D02*X64000Y164500D01*
X62000Y165000D02*X63500D01*
X62000Y167000D02*Y163000D01*
X61500Y167000D02*X63500D01*
X64000Y166500D01*
Y165500D01*
X63500Y165000D02*X64000Y165500D01*
X65200Y165000D02*Y163500D01*
X65700Y163000D01*
X67200Y165000D02*Y162000D01*
X66700Y161500D02*X67200Y162000D01*
X65700Y161500D02*X66700D01*
X65200Y162000D02*X65700Y161500D01*
Y163000D02*X66700D01*
X67200Y163500D01*
X70200Y165000D02*X71700D01*
X70200Y163000D02*X72200D01*
X70200Y167000D02*Y163000D01*
Y167000D02*X72200D01*
X73400Y165000D02*Y164000D01*
X74400Y163000D01*
X75400Y164000D01*
Y165000D02*Y164000D01*
X78100Y165000D02*X78600Y164500D01*
X77100Y165000D02*X78100D01*
X76600Y164500D02*X77100Y165000D01*
X76600Y164500D02*Y163500D01*
X77100Y163000D01*
X78600Y165000D02*Y163500D01*
X79100Y163000D01*
X77100D02*X78100D01*
X78600Y163500D01*
X80800Y164500D02*Y163000D01*
Y164500D02*X81300Y165000D01*
X81800D01*
X82300Y164500D01*
Y163000D01*
X80300Y165000D02*X80800Y164500D01*
X85300Y167000D02*Y163000D01*
Y167000D02*X87300D01*
X85300Y165000D02*X86800D01*
X88500Y164500D02*Y163500D01*
Y164500D02*X89000Y165000D01*
X90000D01*
X90500Y164500D01*
Y163500D01*
X90000Y163000D02*X90500Y163500D01*
X89000Y163000D02*X90000D01*
X88500Y163500D02*X89000Y163000D01*
X92200D02*X93700D01*
X94200Y163500D01*
X93700Y164000D02*X94200Y163500D01*
X92200Y164000D02*X93700D01*
X91700Y164500D02*X92200Y164000D01*
X91700Y164500D02*X92200Y165000D01*
X93700D01*
X94200Y164500D01*
X91700Y163500D02*X92200Y163000D01*
X95900D02*X97400D01*
X97900Y163500D01*
X97400Y164000D02*X97900Y163500D01*
X95900Y164000D02*X97400D01*
X95400Y164500D02*X95900Y164000D01*
X95400Y164500D02*X95900Y165000D01*
X97400D01*
X97900Y164500D01*
X95400Y163500D02*X95900Y163000D01*
X38500Y199000D02*Y195000D01*
Y199000D02*X40500D01*
X38500Y197000D02*X40000D01*
X41700Y198000D02*Y197500D01*
Y196500D02*Y195000D01*
X42700Y199000D02*Y195000D01*
Y195500D02*X43200Y195000D01*
X44200D01*
X44700Y195500D01*
Y196500D02*Y195500D01*
X44200Y197000D02*X44700Y196500D01*
X43200Y197000D02*X44200D01*
X42700Y196500D02*X43200Y197000D01*
X46400Y195000D02*X47900D01*
X45900Y195500D02*X46400Y195000D01*
X45900Y196500D02*Y195500D01*
Y196500D02*X46400Y197000D01*
X47400D01*
X47900Y196500D01*
X45900Y196000D02*X47900D01*
Y196500D02*Y196000D01*
X49600Y196500D02*Y195000D01*
Y196500D02*X50100Y197000D01*
X51100D01*
X49100D02*X49600Y196500D01*
X52300D02*Y195500D01*
Y196500D02*X52800Y197000D01*
X53800D01*
X54300Y196500D01*
Y195500D01*
X53800Y195000D02*X54300Y195500D01*
X52800Y195000D02*X53800D01*
X52300Y195500D02*X52800Y195000D01*
X56000Y196500D02*Y193500D01*
X55500Y197000D02*X56000Y196500D01*
X56500Y197000D01*
X57500D01*
X58000Y196500D01*
Y195500D01*
X57500Y195000D02*X58000Y195500D01*
X56500Y195000D02*X57500D01*
X56000Y195500D02*X56500Y195000D01*
X59700Y199000D02*Y195500D01*
X60200Y195000D01*
X59200Y197500D02*X60200D01*
X61200Y198000D02*Y197500D01*
Y196500D02*Y195000D01*
X62700Y197000D02*X64200D01*
X62200Y196500D02*X62700Y197000D01*
X62200Y196500D02*Y195500D01*
X62700Y195000D01*
X64200D01*
X38500Y192500D02*Y188500D01*
Y192500D02*X40000Y191000D01*
X41500Y192500D01*
Y188500D01*
X42700Y191500D02*Y191000D01*
Y190000D02*Y188500D01*
X44200Y190500D02*X45700D01*
X43700Y190000D02*X44200Y190500D01*
X43700Y190000D02*Y189000D01*
X44200Y188500D01*
X45700D01*
X47400Y190000D02*Y188500D01*
Y190000D02*X47900Y190500D01*
X48900D01*
X46900D02*X47400Y190000D01*
X50100D02*Y189000D01*
Y190000D02*X50600Y190500D01*
X51600D01*
X52100Y190000D01*
Y189000D01*
X51600Y188500D02*X52100Y189000D01*
X50600Y188500D02*X51600D01*
X50100Y189000D02*X50600Y188500D01*
X53800Y190000D02*Y187000D01*
X53300Y190500D02*X53800Y190000D01*
X54300Y190500D01*
X55300D01*
X55800Y190000D01*
Y189000D01*
X55300Y188500D02*X55800Y189000D01*
X54300Y188500D02*X55300D01*
X53800Y189000D02*X54300Y188500D01*
X57000Y192500D02*Y188500D01*
Y190000D02*X57500Y190500D01*
X58500D01*
X59000Y190000D01*
Y188500D01*
X60200Y190000D02*Y189000D01*
Y190000D02*X60700Y190500D01*
X61700D01*
X62200Y190000D01*
Y189000D01*
X61700Y188500D02*X62200Y189000D01*
X60700Y188500D02*X61700D01*
X60200Y189000D02*X60700Y188500D01*
X63900Y190000D02*Y188500D01*
Y190000D02*X64400Y190500D01*
X64900D01*
X65400Y190000D01*
Y188500D01*
X63400Y190500D02*X63900Y190000D01*
X67100Y188500D02*X68600D01*
X66600Y189000D02*X67100Y188500D01*
X66600Y190000D02*Y189000D01*
Y190000D02*X67100Y190500D01*
X68100D01*
X68600Y190000D01*
X66600Y189500D02*X68600D01*
Y190000D02*Y189500D01*
X38500Y185500D02*Y182000D01*
Y185500D02*X39000Y186000D01*
X40500D01*
X41000Y185500D01*
Y182000D01*
X38500Y184000D02*X41000D01*
X42700Y183500D02*Y182000D01*
Y183500D02*X43200Y184000D01*
X43700D01*
X44200Y183500D01*
Y182000D01*
Y183500D02*X44700Y184000D01*
X45200D01*
X45700Y183500D01*
Y182000D01*
X42200Y184000D02*X42700Y183500D01*
X47400D02*Y180500D01*
X46900Y184000D02*X47400Y183500D01*
X47900Y184000D01*
X48900D01*
X49400Y183500D01*
Y182500D01*
X48900Y182000D02*X49400Y182500D01*
X47900Y182000D02*X48900D01*
X47400Y182500D02*X47900Y182000D01*
X50600Y186000D02*Y182500D01*
X51100Y182000D01*
X52100Y185000D02*Y184500D01*
Y183500D02*Y182000D01*
X53600Y185500D02*Y182000D01*
Y185500D02*X54100Y186000D01*
X54600D01*
X53100Y184000D02*X54100D01*
X55600Y185000D02*Y184500D01*
Y183500D02*Y182000D01*
X57100D02*X58600D01*
X56600Y182500D02*X57100Y182000D01*
X56600Y183500D02*Y182500D01*
Y183500D02*X57100Y184000D01*
X58100D01*
X58600Y183500D01*
X56600Y183000D02*X58600D01*
Y183500D02*Y183000D01*
X60300Y183500D02*Y182000D01*
Y183500D02*X60800Y184000D01*
X61800D01*
X59800D02*X60300Y183500D01*
X55000Y26500D02*X55500Y27000D01*
X57000D01*
X57500Y26500D01*
Y25500D01*
X55000Y23000D02*X57500Y25500D01*
X55000Y23000D02*X57500D01*
X58700Y23500D02*X59200Y23000D01*
X58700Y26500D02*Y23500D01*
Y26500D02*X59200Y27000D01*
X60200D01*
X60700Y26500D01*
Y23500D01*
X60200Y23000D02*X60700Y23500D01*
X59200Y23000D02*X60200D01*
X58700Y24000D02*X60700Y26000D01*
X62400Y23000D02*X63400D01*
X62900Y27000D02*Y23000D01*
X61900Y26000D02*X62900Y27000D01*
X64600D02*X66600D01*
X64600D02*Y25000D01*
X65100Y25500D01*
X66100D01*
X66600Y25000D01*
Y23500D01*
X66100Y23000D02*X66600Y23500D01*
X65100Y23000D02*X66100D01*
X64600Y23500D02*X65100Y23000D01*
X67800D02*X68300D01*
X69500Y23500D02*X70000Y23000D01*
X69500Y26500D02*Y23500D01*
Y26500D02*X70000Y27000D01*
X71000D01*
X71500Y26500D01*
Y23500D01*
X71000Y23000D02*X71500Y23500D01*
X70000Y23000D02*X71000D01*
X69500Y24000D02*X71500Y26000D01*
X72700Y26500D02*X73200Y27000D01*
X74200D01*
X74700Y26500D01*
Y23500D01*
X74200Y23000D02*X74700Y23500D01*
X73200Y23000D02*X74200D01*
X72700Y23500D02*X73200Y23000D01*
Y25000D02*X74700D01*
X75900Y23000D02*X76400D01*
X77600Y23500D02*X78100Y23000D01*
X77600Y26500D02*Y23500D01*
Y26500D02*X78100Y27000D01*
X79100D01*
X79600Y26500D01*
Y23500D01*
X79100Y23000D02*X79600Y23500D01*
X78100Y23000D02*X79100D01*
X77600Y24000D02*X79600Y26000D01*
X82300Y27000D02*X82800Y26500D01*
X81300Y27000D02*X82300D01*
X80800Y26500D02*X81300Y27000D01*
X80800Y26500D02*Y23500D01*
X81300Y23000D01*
X82300Y25000D02*X82800Y24500D01*
X80800Y25000D02*X82300D01*
X81300Y23000D02*X82300D01*
X82800Y23500D01*
Y24500D02*Y23500D01*
G54D75*X105500Y210500D02*Y10500D01*
X115500D01*
Y210500D01*
X105500D01*
Y200500D02*X115500D01*
Y210500D01*
G54D76*X39500Y80500D02*X49500D01*
X39500D02*Y59500D01*
X49500D01*
Y80500D02*Y59500D01*
X78147Y85240D02*X82871D01*
X78147Y77760D02*X82871D01*
X58107Y96755D02*X58893D01*
X58107Y91245D02*X58893D01*
X91638Y121240D02*X96362D01*
X91638Y113760D02*X96362D01*
X70138Y121240D02*X74862D01*
X70138Y113760D02*X74862D01*
G54D75*X15500Y100500D02*X105500D01*
Y110500D02*Y100500D01*
X15500Y110500D02*X105500D01*
X15500D02*Y100500D01*
X25500Y110500D02*Y100500D01*
X15500Y110500D02*X25500D01*
G54D76*X45607Y88255D02*X46393D01*
X45607Y82745D02*X46393D01*
X25638Y178240D02*X30362D01*
X25638Y170760D02*X30362D01*
X25638Y193240D02*X30362D01*
X25638Y185760D02*X30362D01*
X25638Y162740D02*X30362D01*
X25638Y155260D02*X30362D01*
G54D75*X15500Y200500D02*X105500D01*
Y210500D02*Y200500D01*
X15500Y210500D02*X105500D01*
X15500D02*Y200500D01*
X25500Y210500D02*Y200500D01*
X15500Y210500D02*X25500D01*
G54D76*X26740Y124957D02*Y120233D01*
X19260Y124957D02*Y120233D01*
X39755Y120893D02*Y120107D01*
X34245Y120893D02*Y120107D01*
X52755Y120893D02*Y120107D01*
X47245Y120893D02*Y120107D01*
G54D75*X5500Y210500D02*Y10500D01*
X15500D01*
Y210500D01*
X5500D01*
Y200500D02*X15500D01*
Y210500D01*
G54D76*X91638Y137740D02*X96362D01*
X91638Y130260D02*X96362D01*
X91638Y154740D02*X96362D01*
X91638Y147260D02*X96362D01*
G54D75*X15500Y10500D02*X105500D01*
Y20500D02*Y10500D01*
X15500Y20500D02*X105500D01*
X15500D02*Y10500D01*
X25500Y20500D02*Y10500D01*
X15500Y20500D02*X25500D01*
X77500Y45000D02*Y32000D01*
Y63000D02*Y50000D01*
X58500Y32000D02*X77500D01*
X58500Y63000D02*Y32000D01*
Y63000D02*X77500D01*
Y50000D02*G75*G03X77500Y45000I0J-2500D01*G01*
G54D76*X49107Y33755D02*X49893D01*
X49107Y28245D02*X49893D01*
X45607Y46255D02*X46393D01*
X45607Y40745D02*X46393D01*
G54D74*X28940Y78708D02*X34058D01*
X28940Y67291D02*X34058D01*
Y78708D02*Y67291D01*
X28940Y78708D02*Y67291D01*
G54D76*X34107Y97255D02*X34893D01*
X34107Y91745D02*X34893D01*
X28607Y45255D02*X29393D01*
X28607Y39745D02*X29393D01*
X32107Y57255D02*X32893D01*
X32107Y51745D02*X32893D01*
G54D77*X78138Y68260D02*X82862D01*
X78138Y75740D02*X82862D01*
G54D74*X17000Y33000D02*X18500D01*
Y29500D01*
X18000Y29000D02*X18500Y29500D01*
X17500Y29000D02*X18000D01*
X17000Y29500D02*X17500Y29000D01*
X20200D02*X21200D01*
X20700Y33000D02*Y29000D01*
X19700Y32000D02*X20700Y33000D01*
X27350Y62650D02*X29350D01*
X29850Y62150D01*
Y61150D01*
X29350Y60650D02*X29850Y61150D01*
X27850Y60650D02*X29350D01*
X27850Y62650D02*Y58650D01*
Y60650D02*X29850Y58650D01*
X31050Y62150D02*X31550Y62650D01*
X33050D01*
X33550Y62150D01*
Y61150D01*
X31050Y58650D02*X33550Y61150D01*
X31050Y58650D02*X33550D01*
X34750Y62150D02*X35250Y62650D01*
X36750D01*
X37250Y62150D01*
Y61150D01*
X34750Y58650D02*X37250Y61150D01*
X34750Y58650D02*X37250D01*
X29350Y46150D02*X30850D01*
X28850Y46650D02*X29350Y46150D01*
X28850Y49650D02*Y46650D01*
Y49650D02*X29350Y50150D01*
X30850D01*
X33550D02*X34050Y49650D01*
X32550Y50150D02*X33550D01*
X32050Y49650D02*X32550Y50150D01*
X32050Y49650D02*Y46650D01*
X32550Y46150D01*
X33550Y48150D02*X34050Y47650D01*
X32050Y48150D02*X33550D01*
X32550Y46150D02*X33550D01*
X34050Y46650D01*
Y47650D02*Y46650D01*
X18138Y84402D02*Y81402D01*
X19138Y80402D01*
X20138Y81402D01*
Y84402D02*Y81402D01*
X21338Y84402D02*X23338D01*
X23838Y83902D01*
Y82902D01*
X23338Y82402D02*X23838Y82902D01*
X21838Y82402D02*X23338D01*
X21838Y84402D02*Y80402D01*
Y82402D02*X23838Y80402D01*
X25038Y82402D02*X26538D01*
X25038Y80402D02*X27038D01*
X25038Y84402D02*Y80402D01*
Y84402D02*X27038D01*
X30238D02*X30738Y83902D01*
X28738Y84402D02*X30238D01*
X28238Y83902D02*X28738Y84402D01*
X28238Y83902D02*Y80902D01*
X28738Y80402D01*
X30238D01*
X30738Y80902D01*
Y81902D02*Y80902D01*
X30238Y82402D02*X30738Y81902D01*
X29238Y82402D02*X30238D01*
X31938Y83902D02*X32438Y84402D01*
X33938D01*
X34438Y83902D01*
Y82902D01*
X31938Y80402D02*X34438Y82902D01*
X31938Y80402D02*X34438D01*
X35638Y83902D02*X36138Y84402D01*
X37638D01*
X38138Y83902D01*
Y82902D01*
X35638Y80402D02*X38138Y82902D01*
X35638Y80402D02*X38138D01*
X19000Y116500D02*X20500D01*
Y113000D01*
X20000Y112500D02*X20500Y113000D01*
X19500Y112500D02*X20000D01*
X19000Y113000D02*X19500Y112500D01*
X21700Y116000D02*X22200Y116500D01*
X23700D01*
X24200Y116000D01*
Y115000D01*
X21700Y112500D02*X24200Y115000D01*
X21700Y112500D02*X24200D01*
X28850Y90150D02*X30850D01*
X31350Y89650D01*
Y88650D01*
X30850Y88150D02*X31350Y88650D01*
X29350Y88150D02*X30850D01*
X29350Y90150D02*Y86150D01*
Y88150D02*X31350Y86150D01*
X32550Y89650D02*X33050Y90150D01*
X34550D01*
X35050Y89650D01*
Y88650D01*
X32550Y86150D02*X35050Y88650D01*
X32550Y86150D02*X35050D01*
X36750D02*X37750D01*
X37250Y90150D02*Y86150D01*
X36250Y89150D02*X37250Y90150D01*
X17850Y93150D02*X19350D01*
X17350Y93650D02*X17850Y93150D01*
X17350Y96650D02*Y93650D01*
Y96650D02*X17850Y97150D01*
X19350D01*
X20550Y96650D02*X21050Y97150D01*
X22550D01*
X23050Y96650D01*
Y95650D01*
X20550Y93150D02*X23050Y95650D01*
X20550Y93150D02*X23050D01*
X24250Y96650D02*X24750Y97150D01*
X25750D01*
X26250Y96650D01*
Y93650D01*
X25750Y93150D02*X26250Y93650D01*
X24750Y93150D02*X25750D01*
X24250Y93650D02*X24750Y93150D01*
Y95150D02*X26250D01*
X88850Y123150D02*X90350D01*
X88350Y123650D02*X88850Y123150D01*
X88350Y126650D02*Y123650D01*
Y126650D02*X88850Y127150D01*
X90350D01*
X92050Y123150D02*X93050D01*
X92550Y127150D02*Y123150D01*
X91550Y126150D02*X92550Y127150D01*
X94250Y123650D02*X94750Y123150D01*
X94250Y126650D02*Y123650D01*
Y126650D02*X94750Y127150D01*
X95750D01*
X96250Y126650D01*
Y123650D01*
X95750Y123150D02*X96250Y123650D01*
X94750Y123150D02*X95750D01*
X94250Y124150D02*X96250Y126150D01*
X97450Y126650D02*X97950Y127150D01*
X99450D01*
X99950Y126650D01*
Y125650D01*
X97450Y123150D02*X99950Y125650D01*
X97450Y123150D02*X99950D01*
X66445Y127150D02*X68445D01*
X68945Y126650D01*
Y125650D01*
X68445Y125150D02*X68945Y125650D01*
X66945Y125150D02*X68445D01*
X66945Y127150D02*Y123150D01*
Y125150D02*X68945Y123150D01*
X70645D02*X71645D01*
X71145Y127150D02*Y123150D01*
X70145Y126150D02*X71145Y127150D01*
X72845Y123650D02*X73345Y123150D01*
X72845Y126650D02*Y123650D01*
Y126650D02*X73345Y127150D01*
X74345D01*
X74845Y126650D01*
Y123650D01*
X74345Y123150D02*X74845Y123650D01*
X73345Y123150D02*X74345D01*
X72845Y124150D02*X74845Y126150D01*
X76045Y126650D02*X76545Y127150D01*
X77545D01*
X78045Y126650D01*
Y123650D01*
X77545Y123150D02*X78045Y123650D01*
X76545Y123150D02*X77545D01*
X76045Y123650D02*X76545Y123150D01*
Y125150D02*X78045D01*
X89350Y139650D02*X90850D01*
X88850Y140150D02*X89350Y139650D01*
X88850Y143150D02*Y140150D01*
Y143150D02*X89350Y143650D01*
X90850D01*
X92550Y139650D02*X93550D01*
X93050Y143650D02*Y139650D01*
X92050Y142650D02*X93050Y143650D01*
X94750Y140150D02*X95250Y139650D01*
X94750Y143150D02*Y140150D01*
Y143150D02*X95250Y143650D01*
X96250D01*
X96750Y143150D01*
Y140150D01*
X96250Y139650D02*X96750Y140150D01*
X95250Y139650D02*X96250D01*
X94750Y140650D02*X96750Y142650D01*
X98450Y139650D02*X99450D01*
X98950Y143650D02*Y139650D01*
X97950Y142650D02*X98950Y143650D01*
X87945Y160650D02*X89945D01*
X90445Y160150D01*
Y159150D01*
X89945Y158650D02*X90445Y159150D01*
X88445Y158650D02*X89945D01*
X88445Y160650D02*Y156650D01*
Y158650D02*X90445Y156650D01*
X92145D02*X93145D01*
X92645Y160650D02*Y156650D01*
X91645Y159650D02*X92645Y160650D01*
X94345Y157150D02*X94845Y156650D01*
X94345Y160150D02*Y157150D01*
Y160150D02*X94845Y160650D01*
X95845D01*
X96345Y160150D01*
Y157150D01*
X95845Y156650D02*X96345Y157150D01*
X94845Y156650D02*X95845D01*
X94345Y157650D02*X96345Y159650D01*
X97545Y157150D02*X98045Y156650D01*
X97545Y160150D02*Y157150D01*
Y160150D02*X98045Y160650D01*
X99045D01*
X99545Y160150D01*
Y157150D01*
X99045Y156650D02*X99545Y157150D01*
X98045Y156650D02*X99045D01*
X97545Y157650D02*X99545Y159650D01*
X86500Y39500D02*X90000D01*
X86500D02*X86000Y39000D01*
Y38000D01*
X86500Y37500D01*
X90000D01*
X86000Y35800D02*Y34800D01*
Y35300D02*X90000D01*
X89000Y36300D02*X90000Y35300D01*
X96850Y74150D02*X98850D01*
X99350Y73650D01*
Y72650D01*
X98850Y72150D02*X99350Y72650D01*
X97350Y72150D02*X98850D01*
X97350Y74150D02*Y70150D01*
Y72150D02*X99350Y70150D01*
X101050D02*X102050D01*
X101550Y74150D02*Y70150D01*
X100550Y73150D02*X101550Y74150D01*
X97359Y79650D02*X98859D01*
X96859Y80150D02*X97359Y79650D01*
X96859Y83150D02*Y80150D01*
Y83150D02*X97359Y83650D01*
X98859D01*
X100559Y79650D02*X101559D01*
X101059Y83650D02*Y79650D01*
X100059Y82650D02*X101059Y83650D01*
X94000Y190000D02*Y188500D01*
X90500D02*X94000D01*
X90000Y189000D02*X90500Y188500D01*
X90000Y189500D02*Y189000D01*
X90500Y190000D02*X90000Y189500D01*
X94000Y187300D02*Y185300D01*
X92000Y187300D02*X94000D01*
X92000D02*X92500Y186800D01*
Y185800D01*
X92000Y185300D01*
X90500D02*X92000D01*
X90000Y185800D02*X90500Y185300D01*
X90000Y186800D02*Y185800D01*
X90500Y187300D02*X90000Y186800D01*
X75000Y189000D02*X76500D01*
Y185500D01*
X76000Y185000D02*X76500Y185500D01*
X75500Y185000D02*X76000D01*
X75000Y185500D02*X75500Y185000D01*
X77700Y188500D02*X78200Y189000D01*
X79200D01*
X79700Y188500D01*
Y185500D01*
X79200Y185000D02*X79700Y185500D01*
X78200Y185000D02*X79200D01*
X77700Y185500D02*X78200Y185000D01*
Y187000D02*X79700D01*
X22850Y180150D02*X24350D01*
X22350Y180650D02*X22850Y180150D01*
X22350Y183650D02*Y180650D01*
Y183650D02*X22850Y184150D01*
X24350D01*
X26050Y180150D02*X27050D01*
X26550Y184150D02*Y180150D01*
X25550Y183150D02*X26550Y184150D01*
X28250Y180650D02*X28750Y180150D01*
X28250Y183650D02*Y180650D01*
Y183650D02*X28750Y184150D01*
X29750D01*
X30250Y183650D01*
Y180650D01*
X29750Y180150D02*X30250Y180650D01*
X28750Y180150D02*X29750D01*
X28250Y181150D02*X30250Y183150D01*
X31450Y183650D02*X31950Y184150D01*
X32950D01*
X33450Y183650D01*
Y180650D01*
X32950Y180150D02*X33450Y180650D01*
X31950Y180150D02*X32950D01*
X31450Y180650D02*X31950Y180150D01*
Y182150D02*X33450D01*
X22350Y195150D02*X23850D01*
X21850Y195650D02*X22350Y195150D01*
X21850Y198650D02*Y195650D01*
Y198650D02*X22350Y199150D01*
X23850D01*
X25550Y195150D02*X26550D01*
X26050Y199150D02*Y195150D01*
X25050Y198150D02*X26050Y199150D01*
X27750Y195650D02*X28250Y195150D01*
X27750Y198650D02*Y195650D01*
Y198650D02*X28250Y199150D01*
X29250D01*
X29750Y198650D01*
Y195650D01*
X29250Y195150D02*X29750Y195650D01*
X28250Y195150D02*X29250D01*
X27750Y196150D02*X29750Y198150D01*
X30950Y197150D02*X32950Y199150D01*
X30950Y197150D02*X33450D01*
X32950Y199150D02*Y195150D01*
X21945Y168650D02*X23945D01*
X24445Y168150D01*
Y167150D01*
X23945Y166650D02*X24445Y167150D01*
X22445Y166650D02*X23945D01*
X22445Y168650D02*Y164650D01*
Y166650D02*X24445Y164650D01*
X26145D02*X27145D01*
X26645Y168650D02*Y164650D01*
X25645Y167650D02*X26645Y168650D01*
X28345Y165150D02*X28845Y164650D01*
X28345Y168150D02*Y165150D01*
Y168150D02*X28845Y168650D01*
X29845D01*
X30345Y168150D01*
Y165150D01*
X29845Y164650D02*X30345Y165150D01*
X28845Y164650D02*X29845D01*
X28345Y165650D02*X30345Y167650D01*
X31545Y166650D02*X33545Y168650D01*
X31545Y166650D02*X34045D01*
X33545Y168650D02*Y164650D01*
X30500Y146000D02*Y144500D01*
X27000D02*X30500D01*
X26500Y145000D02*X27000Y144500D01*
X26500Y145500D02*Y145000D01*
X27000Y146000D02*X26500Y145500D01*
X28500Y143300D02*X30500Y141300D01*
X28500Y143300D02*Y140800D01*
X26500Y141300D02*X30500D01*
X45150Y126650D02*Y124650D01*
X44650Y124150D01*
X43650D02*X44650D01*
X43150Y124650D02*X43650Y124150D01*
X43150Y126150D02*Y124650D01*
X41150Y126150D02*X45150D01*
X43150D02*X41150Y124150D01*
Y122450D02*Y121450D01*
Y121950D02*X45150D01*
X44150Y122950D02*X45150Y121950D01*
X41650Y120250D02*X41150Y119750D01*
X41650Y120250D02*X44650D01*
X45150Y119750D01*
Y118750D01*
X44650Y118250D01*
X41650D02*X44650D01*
X41150Y118750D02*X41650Y118250D01*
X41150Y119750D02*Y118750D01*
X42150Y120250D02*X44150Y118250D01*
X44650Y117050D02*X45150Y116550D01*
Y115050D01*
X44650Y114550D01*
X43650D02*X44650D01*
X41150Y117050D02*X43650Y114550D01*
X41150Y117050D02*Y114550D01*
X42350Y95650D02*X43850D01*
X41850Y96150D02*X42350Y95650D01*
X41850Y99150D02*Y96150D01*
Y99150D02*X42350Y99650D01*
X43850D01*
X45050Y99150D02*X45550Y99650D01*
X47050D01*
X47550Y99150D01*
Y98150D01*
X45050Y95650D02*X47550Y98150D01*
X45050Y95650D02*X47550D01*
X48750Y97650D02*X50750Y99650D01*
X48750Y97650D02*X51250D01*
X50750Y99650D02*Y95650D01*
X58150Y126650D02*Y124650D01*
X57650Y124150D01*
X56650D02*X57650D01*
X56150Y124650D02*X56650Y124150D01*
X56150Y126150D02*Y124650D01*
X54150Y126150D02*X58150D01*
X56150D02*X54150Y124150D01*
Y122450D02*Y121450D01*
Y121950D02*X58150D01*
X57150Y122950D02*X58150Y121950D01*
X54650Y120250D02*X54150Y119750D01*
X54650Y120250D02*X57650D01*
X58150Y119750D01*
Y118750D01*
X57650Y118250D01*
X54650D02*X57650D01*
X54150Y118750D02*X54650Y118250D01*
X54150Y119750D02*Y118750D01*
X55150Y120250D02*X57150Y118250D01*
X54150Y116550D02*Y115550D01*
Y116050D02*X58150D01*
X57150Y117050D02*X58150Y116050D01*
X51000Y63500D02*Y62000D01*
X51500Y64000D02*X51000Y63500D01*
X51500Y64000D02*X54500D01*
X55000Y63500D01*
Y62000D01*
X54500Y60800D02*X55000Y60300D01*
Y58800D01*
X54500Y58300D01*
X53500D02*X54500D01*
X51000Y60800D02*X53500Y58300D01*
X51000Y60800D02*Y58300D01*
X54500Y57100D02*X55000Y56600D01*
Y55100D01*
X54500Y54600D01*
X53500D02*X54500D01*
X51000Y57100D02*X53500Y54600D01*
X51000Y57100D02*Y54600D01*
X47350Y35150D02*X48850D01*
X46850Y35650D02*X47350Y35150D01*
X46850Y38650D02*Y35650D01*
Y38650D02*X47350Y39150D01*
X48850D01*
X50050D02*X52050D01*
X50050D02*Y37150D01*
X50550Y37650D01*
X51550D01*
X52050Y37150D01*
Y35650D01*
X51550Y35150D02*X52050Y35650D01*
X50550Y35150D02*X51550D01*
X50050Y35650D02*X50550Y35150D01*
X45936Y47650D02*X47436D01*
X45436Y48150D02*X45936Y47650D01*
X45436Y51150D02*Y48150D01*
Y51150D02*X45936Y51650D01*
X47436D01*
X48636Y49650D02*X50636Y51650D01*
X48636Y49650D02*X51136D01*
X50636Y51650D02*Y47650D01*
X28150Y127245D02*Y125745D01*
X28650Y127745D02*X28150Y127245D01*
X28650Y127745D02*X31650D01*
X32150Y127245D01*
Y125745D01*
X28150Y124045D02*Y123045D01*
Y123545D02*X32150D01*
X31150Y124545D02*X32150Y123545D01*
X28650Y121845D02*X28150Y121345D01*
X28650Y121845D02*X31650D01*
X32150Y121345D01*
Y120345D01*
X31650Y119845D01*
X28650D02*X31650D01*
X28150Y120345D02*X28650Y119845D01*
X28150Y121345D02*Y120345D01*
X29150Y121845D02*X31150Y119845D01*
X28650Y118645D02*X28150Y118145D01*
X28650Y118645D02*X31650D01*
X32150Y118145D01*
Y117145D01*
X31650Y116645D01*
X28650D02*X31650D01*
X28150Y117145D02*X28650Y116645D01*
X28150Y118145D02*Y117145D01*
X29150Y118645D02*X31150Y116645D01*
M02*
