G04 start of page 4 for group 2 idx 2 *
G04 Title: (unknown), outline *
G04 Creator: pcb 20140316 *
G04 CreationDate: Fri 17 Jul 2015 02:50:28 PM GMT UTC *
G04 For: fosse *
G04 Format: Gerber/RS-274X *
G04 PCB-Dimensions (mil): 3250.00 2150.00 *
G04 PCB-Coordinate-Origin: lower left *
%MOIN*%
%FSLAX25Y25*%
%LNOUTLINE*%
%ADD39C,0.0300*%
%ADD38C,0.0200*%
G54D38*X116000Y211000D02*Y10000D01*
X79000Y85500D02*Y65000D01*
X5000Y211000D02*X116000D01*
Y10000D02*X5000D01*
X67500Y71500D02*Y65500D01*
G54D39*X75500Y62000D02*Y53000D01*
G54D38*X70500Y51000D02*X73500D01*
X5000Y10000D02*Y211000D01*
X67500Y71500D02*X64000Y75000D01*
X63500Y84500D02*X66000D01*
X71500Y90000D02*X74500D01*
X66000Y84500D02*G75*G03X68500Y87000I0J2500D01*G01*
X71500Y90000D02*G75*G03X68500Y87000I0J-3000D01*G01*
X68000Y53500D02*G75*G03X70500Y51000I2500J0D01*G01*
X73500D02*G75*G03X76000Y53500I0J2500D01*G01*
X73000Y51000D02*G75*G03X75000Y53000I0J2000D01*G01*
X77500Y63500D02*G75*G03X76000Y62000I0J-1500D01*G01*
X77500Y63500D02*G75*G03X79000Y65000I0J1500D01*G01*
X63500Y84500D02*G75*G03X59000Y80000I0J-4500D01*G01*
X79000Y85500D02*G75*G03X74500Y90000I-4500J0D01*G01*
M02*
