G04 start of page 9 for group -4078 idx -4078 *
G04 Title: (unknown), bottomsilk *
G04 Creator: pcb 20140316 *
G04 CreationDate: Fri 17 Jul 2015 04:33:48 PM GMT UTC *
G04 For: fosse *
G04 Format: Gerber/RS-274X *
G04 PCB-Dimensions (mil): 3250.00 2150.00 *
G04 PCB-Coordinate-Origin: lower left *
%MOIN*%
%FSLAX25Y25*%
%LNBOTTOMSILK*%
%ADD80C,0.0080*%
%ADD79C,0.0100*%
%ADD78C,0.0060*%
G54D78*X34000Y59000D02*X84000D01*
X34000Y100000D02*Y59000D01*
Y100000D02*X84000D01*
Y59000D01*
X59000Y80000D02*Y79000D01*
Y80000D02*X59500Y79500D01*
X58500D02*X59500D01*
X58500D02*X59000Y79000D01*
X59500Y79500D01*
X49000Y95000D02*X47500Y93500D01*
X49000Y97000D02*X47500Y95500D01*
X49000Y97000D02*Y93000D01*
X47500Y91500D01*
X49000Y95000D02*X51000D01*
X59000Y79000D02*G75*G03X59500Y79500I0J500D01*G01*
X58500D02*G75*G03X59000Y79000I500J0D01*G01*
Y80000D02*G75*G03X58500Y79500I0J-500D01*G01*
X59500D02*G75*G03X59000Y80000I-500J0D01*G01*
X57500Y63000D02*G75*G03X59000Y61500I1500J0D01*G01*
G75*G03X60500Y63000I0J1500D01*G01*
X69000Y92500D02*G75*G03X70500Y94000I0J1500D01*G01*
X67500D02*G75*G03X69000Y92500I1500J0D01*G01*
Y95500D02*G75*G03X67500Y94000I0J-1500D01*G01*
X70500D02*G75*G03X69000Y95500I-1500J0D01*G01*
X67500Y97000D02*G75*G03X69000Y95500I1500J0D01*G01*
X34000Y159000D02*X84000D01*
X34000Y200000D02*Y159000D01*
Y200000D02*X84000D01*
Y159000D01*
X59000Y180000D02*Y179000D01*
Y180000D02*X59500Y179500D01*
X58500D02*X59500D01*
X58500D02*X59000Y179000D01*
X59500Y179500D01*
X49000Y195000D02*X47500Y193500D01*
X49000Y197000D02*X47500Y195500D01*
X49000Y197000D02*Y193000D01*
X47500Y191500D01*
X49000Y195000D02*X51000D01*
X59000Y179000D02*G75*G03X59500Y179500I0J500D01*G01*
X58500D02*G75*G03X59000Y179000I500J0D01*G01*
Y180000D02*G75*G03X58500Y179500I0J-500D01*G01*
X59500D02*G75*G03X59000Y180000I-500J0D01*G01*
X57500Y163000D02*G75*G03X59000Y161500I1500J0D01*G01*
G75*G03X60500Y163000I0J1500D01*G01*
X69000Y192500D02*G75*G03X70500Y194000I0J1500D01*G01*
X67500D02*G75*G03X69000Y192500I1500J0D01*G01*
Y195500D02*G75*G03X67500Y194000I0J-1500D01*G01*
X70500D02*G75*G03X69000Y195500I-1500J0D01*G01*
X67500Y197000D02*G75*G03X69000Y195500I1500J0D01*G01*
G54D79*X27100Y128800D02*X68500D01*
X27100Y157300D02*Y128800D01*
Y157300D02*X68500D01*
Y128800D01*
G54D80*X23607Y93745D02*X24393D01*
X23607Y99255D02*X24393D01*
X28107Y28245D02*X28893D01*
X28107Y33755D02*X28893D01*
G54D78*X20350Y92350D02*X21850D01*
X19850Y91850D02*X20350Y92350D01*
X19850Y88850D02*Y91850D01*
Y88850D02*X20350Y88350D01*
X21850D01*
X23050Y88850D02*X23550Y88350D01*
X25050D01*
X25550Y88850D01*
Y89850D01*
X23050Y92350D02*X25550Y89850D01*
X23050Y92350D02*X25550D01*
X27250D02*X28250D01*
X27750Y88350D02*Y92350D01*
X26750Y89350D02*X27750Y88350D01*
X25850Y26850D02*X27350D01*
X25350Y26350D02*X25850Y26850D01*
X25350Y23350D02*Y26350D01*
Y23350D02*X25850Y22850D01*
X27350D01*
X28550Y23350D02*X29050Y22850D01*
X30550D01*
X31050Y23350D01*
Y24350D01*
X28550Y26850D02*X31050Y24350D01*
X28550Y26850D02*X31050D01*
X71300Y137500D02*X74800D01*
X71300D02*X70800Y138000D01*
Y139000D01*
X71300Y139500D01*
X74800D01*
X70800Y141200D02*Y142200D01*
Y141700D02*X74800D01*
X73800Y140700D02*X74800Y141700D01*
X71300Y143400D02*X70800Y143900D01*
X71300Y143400D02*X74300D01*
X74800Y143900D01*
Y144900D01*
X74300Y145400D01*
X71300D02*X74300D01*
X70800Y144900D02*X71300Y145400D01*
X70800Y143900D02*Y144900D01*
X71800Y143400D02*X73800Y145400D01*
X71300Y146600D02*X70800Y147100D01*
X71300Y146600D02*X74300D01*
X74800Y147100D01*
Y148100D01*
X74300Y148600D01*
X71300D02*X74300D01*
X70800Y148100D02*X71300Y148600D01*
X70800Y147100D02*Y148100D01*
X71800Y146600D02*X73800Y148600D01*
X85500Y77500D02*X89500D01*
Y79000D02*X89000Y79500D01*
X86000D02*X89000D01*
X85500Y79000D02*X86000Y79500D01*
X85500Y77000D02*Y79000D01*
X89500Y77000D02*Y79000D01*
X85500Y81200D02*Y82200D01*
Y81700D02*X89500D01*
X88500Y80700D02*X89500Y81700D01*
M02*
