G04 start of page 11 for group -4014 idx -4014 *
G04 Title: (unknown), bottompaste *
G04 Creator: pcb 20140316 *
G04 CreationDate: Fri 17 Jul 2015 02:50:28 PM GMT UTC *
G04 For: fosse *
G04 Format: Gerber/RS-274X *
G04 PCB-Dimensions (mil): 3250.00 2150.00 *
G04 PCB-Coordinate-Origin: lower left *
%MOIN*%
%FSLAX25Y25*%
%LNBOTTOMPASTE*%
%ADD91R,0.0850X0.0850*%
%ADD90R,0.0512X0.0512*%
%ADD89C,0.0550*%
G54D89*X77000Y46000D02*X81500Y50500D01*
Y59500D02*Y50500D01*
Y59500D02*X84000Y62000D01*
X78000Y95500D02*X84000Y89500D01*
X69000Y95500D02*X78000D01*
X63500Y90000D02*X69000Y95500D01*
X59500Y90000D02*X63500D01*
X56000Y86500D02*X59500Y90000D01*
X50500Y86500D02*X56000D01*
X44750Y80750D02*X50500Y86500D01*
X44750Y73750D02*X55000Y63500D01*
X61000D01*
X63500Y61000D01*
Y50000D01*
X67500Y46000D01*
X44750Y105250D02*Y73750D01*
X84000Y105500D02*Y62000D01*
X57000Y74500D02*X59000D01*
X54000Y77500D02*X57000Y74500D01*
X54000Y105500D02*Y77500D01*
X67500Y46000D02*X77000D01*
G54D90*X50500Y37893D02*Y37107D01*
X57586Y37893D02*Y37107D01*
G54D91*X30750Y84750D02*Y72750D01*
Y84750D02*Y72750D01*
Y84750D02*Y72750D01*
M02*
