G04 start of page 10 for group -4015 idx -4015 *
G04 Title: (unknown), toppaste *
G04 Creator: pcb 20140316 *
G04 CreationDate: Fri 08 May 2015 01:38:14 PM GMT UTC *
G04 For: fosse *
G04 Format: Gerber/RS-274X *
G04 PCB-Dimensions (mil): 1250.00 2150.00 *
G04 PCB-Coordinate-Origin: lower left *
%MOIN*%
%FSLAX25Y25*%
%LNTOPPASTE*%
%ADD84C,0.0070*%
%ADD83R,0.2900X0.2900*%
%ADD82C,0.0200*%
%ADD81C,0.0550*%
%ADD80C,0.0350*%
%ADD79R,0.0200X0.0200*%
%ADD78R,0.0512X0.0512*%
G54D78*X21819Y128500D02*X24181D01*
X21819Y116690D02*X24181D01*
X88095Y118681D02*Y116319D01*
X99905Y118681D02*Y116319D01*
X22095Y175681D02*Y173319D01*
X33905Y175681D02*Y173319D01*
X22095Y190681D02*Y188319D01*
X33905Y190681D02*Y188319D01*
X22095Y160181D02*Y157819D01*
X33905Y160181D02*Y157819D01*
X66595Y118681D02*Y116319D01*
X78405Y118681D02*Y116319D01*
X36607Y124043D02*X37393D01*
X36607Y116957D02*X37393D01*
X49607Y124043D02*X50393D01*
X49607Y116957D02*X50393D01*
X88095Y135181D02*Y132819D01*
X99905Y135181D02*Y132819D01*
X88095Y152181D02*Y149819D01*
X99905Y152181D02*Y149819D01*
X85819Y62914D02*X88181D01*
X85819Y51104D02*X88181D01*
X39095Y49505D02*Y43995D01*
X50905Y49505D02*Y43995D01*
G54D79*X77000Y60500D02*Y54000D01*
X72000Y60500D02*Y54000D01*
X67000Y60500D02*Y54000D01*
X62000Y60500D02*Y54000D01*
Y40000D02*Y33500D01*
X67000Y40000D02*Y33500D01*
X72000Y40000D02*Y33500D01*
X77000Y40000D02*Y33500D01*
G54D78*X95319Y62905D02*X97681D01*
X95319Y51095D02*X97681D01*
G54D80*X99000Y98000D02*X103000Y94000D01*
Y72000D01*
X22500Y98000D02*X99000D01*
X18000Y93500D02*X22500Y98000D01*
X18000Y93500D02*Y26000D01*
G54D81*X50905Y46750D02*X60500Y56345D01*
Y58500D02*Y56345D01*
G54D82*X67000Y57250D02*Y48500D01*
X87000Y62914D02*X96491D01*
X103000Y72000D02*X105500Y69500D01*
Y57000D01*
X67000Y61000D02*Y57500D01*
X60500Y74000D02*X67000Y61000D01*
X55500Y79000D02*X60500Y74000D01*
X65500Y79000D02*X86500Y62914D01*
X72000Y66000D02*Y57500D01*
X65500Y79000D02*X72000Y66000D01*
G54D81*X18000Y79000D02*X55500D01*
G54D83*X58500Y144500D02*X67000D01*
G54D84*X83500Y55500D02*X101500D01*
G54D82*X68000Y47500D02*X75500D01*
X67000Y48500D02*X68000Y47500D01*
M02*
