G04 start of page 11 for group -4014 idx -4014 *
G04 Title: (unknown), bottompaste *
G04 Creator: pcb 20140316 *
G04 CreationDate: Fri 08 May 2015 01:38:14 PM GMT UTC *
G04 For: fosse *
G04 Format: Gerber/RS-274X *
G04 PCB-Dimensions (mil): 1250.00 2150.00 *
G04 PCB-Coordinate-Origin: lower left *
%MOIN*%
%FSLAX25Y25*%
%LNBOTTOMPASTE*%
%ADD90C,0.0200*%
%ADD89C,0.0550*%
%ADD88C,0.0350*%
%ADD87R,0.0512X0.0512*%
%ADD86R,0.1220X0.1220*%
%ADD85R,0.0560X0.0560*%
G54D85*X32300Y134000D02*X38900D01*
X32300Y143000D02*X38900D01*
X32300Y152100D02*X38900D01*
G54D86*X60000Y147500D02*Y138500D01*
G54D87*X39095Y38181D02*Y35819D01*
X50905Y38181D02*Y35819D01*
X59745Y34595D02*X65255D01*
X59745Y46405D02*X65255D01*
G54D88*X99000Y98000D02*X103000Y94000D01*
X18000Y93500D02*X22500Y98000D01*
X99000D01*
G54D89*X25500Y64500D02*Y32000D01*
Y64500D02*X40000Y79000D01*
G54D88*X18000Y93500D02*Y26000D01*
G54D89*X40000Y79000D02*X55500D01*
G54D88*X40000Y47000D02*X65500D01*
X103000Y94000D02*Y72000D01*
G54D90*X105500Y69500D01*
Y52500D01*
X103500Y50500D02*X105500Y52500D01*
G54D89*X25500Y47000D02*X39500D01*
G54D88*X86500Y50500D02*X103000D01*
X83000Y47000D02*X86500Y50500D01*
X40000Y47000D02*X83000D01*
M02*
