G04 start of page 7 for group -4062 idx -4062 *
G04 Title: (unknown), soldermask *
G04 Creator: pcb 20140316 *
G04 CreationDate: Fri 08 May 2015 01:38:14 PM GMT UTC *
G04 For: fosse *
G04 Format: Gerber/RS-274X *
G04 PCB-Dimensions (mil): 1250.00 2150.00 *
G04 PCB-Coordinate-Origin: lower left *
%MOIN*%
%FSLAX25Y25*%
%LNBOTTOMMASK*%
%ADD69C,0.0750*%
%ADD68R,0.1280X0.1280*%
%ADD67R,0.0620X0.0620*%
%ADD66C,0.1000*%
%ADD65R,0.1000X0.1000*%
%ADD64C,0.2000*%
%ADD63R,0.0572X0.0572*%
%ADD62C,0.0550*%
%ADD61C,0.0560*%
%ADD60C,0.5000*%
%ADD59C,0.0001*%
%ADD58C,0.0660*%
G54D58*X10500Y125500D03*
Y115500D03*
Y105500D03*
Y95500D03*
Y85500D03*
G54D59*G36*
X17200Y108800D02*Y102200D01*
X23800D01*
Y108800D01*
X17200D01*
G37*
G54D58*X30500Y105500D03*
X110500Y155500D03*
Y145500D03*
Y135500D03*
Y125500D03*
Y115500D03*
Y105500D03*
Y95500D03*
Y85500D03*
Y75500D03*
Y65500D03*
Y55500D03*
Y45500D03*
Y35500D03*
Y25500D03*
Y15500D03*
X10500Y75500D03*
Y65500D03*
Y55500D03*
Y45500D03*
Y35500D03*
Y25500D03*
Y15500D03*
G54D59*G36*
X17200Y18800D02*Y12200D01*
X23800D01*
Y18800D01*
X17200D01*
G37*
G54D58*X40500Y105500D03*
X50500D03*
X60500D03*
X70500D03*
X80500D03*
X90500D03*
X100500D03*
X30500Y15500D03*
X40500D03*
X50500D03*
X60500D03*
X70500D03*
X80500D03*
X90500D03*
X100500D03*
G54D60*X55500Y79000D03*
X65500D03*
X60500Y74000D03*
G54D58*X10500Y175500D03*
Y165500D03*
Y155500D03*
Y145500D03*
G54D59*G36*
X7200Y208800D02*Y202200D01*
X13800D01*
Y208800D01*
X7200D01*
G37*
G54D58*X10500Y195500D03*
Y185500D03*
Y135500D03*
G54D59*G36*
X17200Y208800D02*Y202200D01*
X23800D01*
Y208800D01*
X17200D01*
G37*
G54D58*X30500Y205500D03*
G54D61*X55500Y179000D03*
X65500D03*
X60500Y174000D03*
G54D58*X40500Y205500D03*
X50500D03*
X60500D03*
X70500D03*
X80500D03*
X90500D03*
G54D59*G36*
X107200Y208800D02*Y202200D01*
X113800D01*
Y208800D01*
X107200D01*
G37*
G54D58*X110500Y195500D03*
Y185500D03*
Y175500D03*
Y165500D03*
X100500Y205500D03*
G54D62*X99000Y98000D02*X103000Y94000D01*
G54D63*X39095Y38181D02*Y35819D01*
X50905Y38181D02*Y35819D01*
X59745Y34595D02*X65255D01*
G54D64*X103000Y94000D02*Y72000D01*
X105500Y69500D01*
Y52500D01*
X103500Y50500D02*X105500Y52500D01*
G54D62*X86500Y50500D02*X103000D01*
X83000Y47000D02*X86500Y50500D01*
G54D65*X59745Y46405D02*X65255D01*
G54D66*X40000Y47000D02*X65500D01*
G54D62*X40000D02*X83000D01*
G54D67*X32300Y134000D02*X38900D01*
X32300Y143000D02*X38900D01*
X32300Y152100D02*X38900D01*
G54D64*X25500Y64500D02*Y32000D01*
X18000Y93500D02*Y26000D01*
G54D62*Y93500D02*X22500Y98000D01*
G54D68*X60000Y147500D02*Y138500D01*
G54D66*X22500Y98000D02*X99000D01*
G54D60*X25500Y64500D02*X40000Y79000D01*
G54D64*X55500D01*
G54D69*X25500Y47000D02*X39500D01*
M02*
