G04 start of page 6 for group -4063 idx -4063 *
G04 Title: (unknown), componentmask *
G04 Creator: pcb 20140316 *
G04 CreationDate: Fri 08 May 2015 01:38:14 PM GMT UTC *
G04 For: fosse *
G04 Format: Gerber/RS-274X *
G04 PCB-Dimensions (mil): 1250.00 2150.00 *
G04 PCB-Coordinate-Origin: lower left *
%MOIN*%
%FSLAX25Y25*%
%LNTOPMASK*%
%ADD57C,0.2500*%
%ADD56R,0.3000X0.3000*%
%ADD55C,0.0750*%
%ADD54C,0.1250*%
%ADD53R,0.0300X0.0300*%
%ADD52R,0.1500X0.1500*%
%ADD51R,0.0950X0.0950*%
%ADD50C,0.0190*%
%ADD49C,0.0400*%
%ADD48C,0.2000*%
%ADD47C,0.1000*%
%ADD46R,0.0572X0.0572*%
%ADD45C,0.0560*%
%ADD44C,0.5000*%
%ADD43C,0.0001*%
%ADD42C,0.0660*%
G54D42*X10500Y125500D03*
Y115500D03*
Y105500D03*
Y95500D03*
Y85500D03*
G54D43*G36*
X17200Y108800D02*Y102200D01*
X23800D01*
Y108800D01*
X17200D01*
G37*
G54D42*X30500Y105500D03*
X110500Y155500D03*
Y145500D03*
Y135500D03*
Y125500D03*
Y115500D03*
Y105500D03*
Y95500D03*
Y85500D03*
Y75500D03*
Y65500D03*
Y55500D03*
Y45500D03*
Y35500D03*
Y25500D03*
Y15500D03*
X10500Y75500D03*
Y65500D03*
Y55500D03*
Y45500D03*
Y35500D03*
Y25500D03*
Y15500D03*
G54D43*G36*
X17200Y18800D02*Y12200D01*
X23800D01*
Y18800D01*
X17200D01*
G37*
G54D42*X40500Y105500D03*
X50500D03*
X60500D03*
X70500D03*
X80500D03*
X90500D03*
X100500D03*
X30500Y15500D03*
X40500D03*
X50500D03*
X60500D03*
X70500D03*
X80500D03*
X90500D03*
X100500D03*
G54D44*X55500Y79000D03*
X65500D03*
X60500Y74000D03*
G54D42*X10500Y175500D03*
Y165500D03*
Y155500D03*
Y145500D03*
G54D43*G36*
X7200Y208800D02*Y202200D01*
X13800D01*
Y208800D01*
X7200D01*
G37*
G54D42*X10500Y195500D03*
Y185500D03*
Y135500D03*
G54D43*G36*
X17200Y208800D02*Y202200D01*
X23800D01*
Y208800D01*
X17200D01*
G37*
G54D42*X30500Y205500D03*
G54D45*X55500Y179000D03*
X65500D03*
X60500Y174000D03*
G54D42*X40500Y205500D03*
X50500D03*
X60500D03*
X70500D03*
X80500D03*
X90500D03*
G54D43*G36*
X107200Y208800D02*Y202200D01*
X113800D01*
Y208800D01*
X107200D01*
G37*
G54D42*X110500Y195500D03*
Y185500D03*
Y175500D03*
Y165500D03*
X100500Y205500D03*
G54D46*X99905Y118681D02*Y116319D01*
G54D47*X99000Y98000D02*X103000Y94000D01*
G54D46*X78405Y118681D02*Y116319D01*
X88095Y135181D02*Y132819D01*
Y152181D02*Y149819D01*
X99905Y152181D02*Y149819D01*
X39095Y49505D02*Y43995D01*
X50905Y49505D02*Y43995D01*
X88095Y118681D02*Y116319D01*
X85819Y62914D02*X88181D01*
X85819Y51104D02*X88181D01*
X99905Y135181D02*Y132819D01*
X95319Y62905D02*X97681D01*
G54D47*X103000Y94000D02*Y72000D01*
G54D48*X87000Y62914D02*X96491D01*
G54D49*X103000Y72000D02*X105500Y69500D01*
G54D50*X83500Y55500D02*X101500D01*
G54D49*X105500Y69500D02*Y57000D01*
X60500Y74000D02*X67000Y61000D01*
X55500Y79000D02*X60500Y74000D01*
X65500Y79000D02*X86500Y62914D01*
X65500Y79000D02*X72000Y66000D01*
G54D51*X77000Y60500D02*Y54000D01*
G54D52*X72000Y60500D02*Y54000D01*
X67000Y60500D02*Y54000D01*
G54D53*X62000Y60500D02*Y54000D01*
G54D49*X67000Y61000D02*Y57500D01*
X72000Y66000D02*Y57500D01*
G54D46*X95319Y51095D02*X97681D01*
G54D53*X62000Y40000D02*Y33500D01*
X67000Y40000D02*Y33500D01*
X72000Y40000D02*Y33500D01*
X77000Y40000D02*Y33500D01*
G54D54*X50905Y46750D02*X60500Y56345D01*
G54D49*X67000Y48500D02*X68000Y47500D01*
G54D47*X60500Y58500D02*Y56345D01*
G54D55*X67000Y57250D02*Y48500D01*
G54D49*X68000Y47500D02*X75500D01*
G54D46*X22095Y175681D02*Y173319D01*
Y160181D02*Y157819D01*
X33905Y175681D02*Y173319D01*
Y190681D02*Y188319D01*
Y160181D02*Y157819D01*
X22095Y190681D02*Y188319D01*
G54D47*X18000Y93500D02*Y26000D01*
G54D46*X66595Y118681D02*Y116319D01*
X21819Y128500D02*X24181D01*
X21819Y116690D02*X24181D01*
X36607Y124043D02*X37393D01*
X36607Y116957D02*X37393D01*
X49607Y124043D02*X50393D01*
X49607Y116957D02*X50393D01*
G54D47*X22500Y98000D02*X99000D01*
X18000Y93500D02*X22500Y98000D01*
G54D56*X58500Y144500D02*X67000D01*
G54D57*X18000Y79000D02*X55500D01*
M02*
